<svg width="64" height="64" viewBox="0 0 64 64" fill="none" xmlns="http://www.w3.org/2000/svg">
<g clip-path="url(#clip0_15_551)">
<path fill-rule="evenodd" clip-rule="evenodd" d="M35.3333 0C34.08 0 32.88 0.426667 31.9867 1.32C31.0933 2.21067 30.6667 3.41333 30.6667 4.66667V23.3333C30.6667 24.5867 31.0933 25.7867 31.9867 26.68C32.8773 27.5733 34.08 28 35.3333 28H44.6667V31.3333H42C41.2928 31.3333 40.6145 31.6143 40.1144 32.1144C39.6143 32.6145 39.3333 33.2928 39.3333 34C39.3333 34.7072 39.6143 35.3855 40.1144 35.8856C40.6145 36.3857 41.2928 36.6667 42 36.6667H52.6667C53.3739 36.6667 54.0522 36.3857 54.5523 35.8856C55.0524 35.3855 55.3333 34.7072 55.3333 34C55.3333 33.2928 55.0524 32.6145 54.5523 32.1144C54.0522 31.6143 53.3739 31.3333 52.6667 31.3333H50V28H59.3333C60.5867 28 61.7867 27.5733 62.68 26.68C63.5733 25.7893 64 24.5867 64 23.3333V4.66667C64 3.41333 63.5733 2.21333 62.68 1.32C61.7893 0.426667 60.5867 0 59.3333 0H35.3333ZM55.3707 8.25067C55.6004 8.37808 55.8029 8.54952 55.9664 8.75519C56.1299 8.96086 56.2513 9.19674 56.3236 9.44933C56.3959 9.70193 56.4177 9.9663 56.3878 10.2273C56.3579 10.4884 56.2769 10.741 56.1493 10.9707L52.1493 18.1707C52.0082 18.4254 51.8132 18.6463 51.5779 18.8179C51.3426 18.9894 51.0726 19.1075 50.7869 19.1639C50.5012 19.2203 50.2066 19.2136 49.9238 19.1443C49.6409 19.075 49.3766 18.9447 49.1493 18.7627L44.3173 14.896L42.008 18.984C41.747 19.4458 41.3133 19.7851 40.8022 19.9271C40.2911 20.0691 39.7445 20.0023 39.2827 19.7413C38.8208 19.4804 38.4816 19.0466 38.3396 18.5355C38.1975 18.0244 38.2644 17.4778 38.5253 17.016L41.992 10.8827C42.1344 10.6302 42.33 10.4117 42.5652 10.2423C42.8004 10.0729 43.0696 9.95667 43.3542 9.90163C43.6388 9.84659 43.932 9.85407 44.2134 9.92354C44.4948 9.99302 44.7577 10.1228 44.984 10.304L49.8 14.16L52.6533 9.02933C52.7807 8.79955 52.9522 8.59713 53.1579 8.43362C53.3635 8.27012 53.5994 8.14875 53.852 8.07643C54.1046 8.00412 54.369 7.98229 54.63 8.01219C54.891 8.04208 55.1436 8.12312 55.3733 8.25067H55.3707ZM17.9147 3.35467C17.6315 3.08423 17.2752 2.90286 16.8899 2.83305C16.5046 2.76325 16.1073 2.80807 15.7472 2.96197C15.3872 3.11587 15.0802 3.37208 14.8645 3.69881C14.6487 4.02555 14.5335 4.40844 14.5333 4.8V8C8.592 8.06933 4 12.704 4 18.6667C4 19.0169 4.06897 19.3636 4.20299 19.6872C4.337 20.0107 4.53343 20.3047 4.78105 20.5523C5.02867 20.7999 5.32264 20.9963 5.64618 21.1303C5.96971 21.2644 6.31647 21.3333 6.66667 21.3333C7.01686 21.3333 7.36362 21.2644 7.68716 21.1303C8.01069 20.9963 8.30466 20.7999 8.55229 20.5523C8.79991 20.3047 8.99633 20.0107 9.13035 19.6872C9.26436 19.3636 9.33333 19.0169 9.33333 18.6667C9.33333 15.6507 11.5413 13.4 14.5333 13.3333V16.5333C14.5335 16.9249 14.6487 17.3078 14.8645 17.6345C15.0802 17.9613 15.3872 18.2175 15.7472 18.3714C16.1073 18.5253 16.5046 18.5701 16.8899 18.5003C17.2752 18.4305 17.6315 18.2491 17.9147 17.9787L24.048 12.112C24.2432 11.9253 24.3986 11.701 24.5047 11.4525C24.6109 11.2041 24.6656 10.9368 24.6656 10.6667C24.6656 10.3965 24.6109 10.1292 24.5047 9.88079C24.3986 9.63238 24.2432 9.40805 24.048 9.22133L17.9147 3.35467ZM57.3333 45.3333C57.3333 44.6261 57.0524 43.9478 56.5523 43.4477C56.0522 42.9476 55.3739 42.6667 54.6667 42.6667C53.9594 42.6667 53.2811 42.9476 52.781 43.4477C52.281 43.9478 52 44.6261 52 45.3333C52 48.3947 49.728 50.6667 46.6667 50.6667H46.5333V47.4667C46.533 47.0714 46.4155 46.685 46.1957 46.3564C45.9759 46.0279 45.6637 45.7718 45.2985 45.6206C44.9332 45.4693 44.5314 45.4297 44.1436 45.5068C43.7559 45.5838 43.3997 45.774 43.12 46.0533L37.2533 51.92C36.8788 52.295 36.6684 52.8033 36.6684 53.3333C36.6684 53.8633 36.8788 54.3717 37.2533 54.7467L43.12 60.6133C43.3997 60.8927 43.7559 61.0829 44.1436 61.1599C44.5314 61.2369 44.9332 61.1973 45.2985 61.0461C45.6637 60.8949 45.9759 60.6388 46.1957 60.3102C46.4155 59.9816 46.533 59.5953 46.5333 59.2V56H46.6667C52.672 56 57.3333 51.3387 57.3333 45.3333ZM0 46C0 41.2261 1.89642 36.6477 5.27208 33.2721C8.64773 29.8964 13.2261 28 18 28C22.7739 28 27.3523 29.8964 30.7279 33.2721C34.1036 36.6477 36 41.2261 36 46C36 50.7739 34.1036 55.3523 30.7279 58.7279C27.3523 62.1036 22.7739 64 18 64C13.2261 64 8.64773 62.1036 5.27208 58.7279C1.89642 55.3523 0 50.7739 0 46ZM16.2667 42.8C16.2667 42.48 16.3893 42.2267 16.6293 42.024C16.888 41.8053 17.344 41.6 18 41.6C18.3653 41.6 18.5733 41.6453 18.7147 41.6987C18.848 41.752 19.0187 41.8453 19.2533 42.08C19.4364 42.2765 19.6572 42.4341 19.9026 42.5434C20.1479 42.6527 20.4127 42.7115 20.6813 42.7162C20.9498 42.721 21.2166 42.6716 21.4656 42.571C21.7146 42.4704 21.9409 42.3207 22.1308 42.1308C22.3207 41.9408 22.4704 41.7146 22.571 41.4656C22.6716 41.2166 22.721 40.9498 22.7162 40.6813C22.7115 40.4127 22.6527 40.1479 22.5434 39.9026C22.4341 39.6572 22.2765 39.4364 22.08 39.2533C21.4974 38.6543 20.7861 38.1956 20 37.912V36.6667C20 36.1362 19.7893 35.6275 19.4142 35.2525C19.0391 34.8774 18.5304 34.6667 18 34.6667C17.4696 34.6667 16.9609 34.8774 16.5858 35.2525C16.2107 35.6275 16 36.1362 16 36.6667V37.912C13.9147 38.5787 12.2667 40.3013 12.2667 42.8C12.2667 45.8667 14.8613 48.2667 18 48.2667C18.656 48.2667 19.112 48.472 19.3707 48.6907C19.4871 48.7831 19.5804 48.9013 19.6433 49.036C19.7063 49.1706 19.7371 49.3181 19.7333 49.4667C19.7333 49.6 19.6533 49.888 19.328 50.1813C18.9639 50.4985 18.4962 50.6712 18.0133 50.6667H18H17.9867C17.6921 50.6546 17.4025 50.5868 17.1333 50.4667C16.9874 50.4098 16.8522 50.3287 16.7333 50.2267L16.7307 50.224C16.5864 50.0023 16.3996 49.8115 16.181 49.6625C15.9625 49.5135 15.7165 49.4094 15.4575 49.3561C15.1984 49.3028 14.9313 49.3014 14.6717 49.352C14.4121 49.4026 14.1651 49.5042 13.9451 49.6509C13.725 49.7976 13.5362 49.9866 13.3896 50.2067C13.2431 50.4269 13.1416 50.674 13.0912 50.9336C13.0407 51.1932 13.0423 51.4603 13.0958 51.7193C13.1492 51.9784 13.2535 52.2242 13.4027 52.4427C13.9573 53.2747 14.7973 53.8107 15.5307 54.1333C15.6827 54.2 15.84 54.2613 16 54.3147V55.6C16 56.1304 16.2107 56.6391 16.5858 57.0142C16.9609 57.3893 17.4696 57.6 18 57.6C18.5304 57.6 19.0391 57.3893 19.4142 57.0142C19.7893 56.6391 20 56.1304 20 55.6V54.3253C22.128 53.584 23.7333 51.7013 23.7333 49.4667C23.7333 46.2027 20.92 44.2667 18 44.2667C16.872 44.2667 16.2667 43.4667 16.2667 42.8Z" fill="#00FFFF"/>
</g>
<defs>
<clipPath id="clip0_15_551">
<rect width="64" height="64" fill="white"/>
</clipPath>
</defs>
</svg>
