<svg width="63" height="64" viewBox="0 0 63 64" fill="none" xmlns="http://www.w3.org/2000/svg">
<path d="M49.7069 34.1317C49.8818 34.1338 50.0551 34.0993 50.2159 34.0304C50.3766 33.9615 50.5212 33.8598 50.6402 33.7317C51.1202 33.2517 62.6669 21.5983 62.6669 12.3983C62.5155 9.05935 61.0825 5.9073 58.6661 3.598C56.2497 1.28871 53.036 0 49.6936 0C46.3511 0 43.1374 1.28871 40.721 3.598C38.3046 5.9073 36.8716 9.05935 36.7202 12.3983C36.7202 21.5717 48.2669 33.225 48.7469 33.7317C48.871 33.8605 49.0202 33.9625 49.1854 34.0313C49.3505 34.1001 49.528 34.1343 49.7069 34.1317ZM45.3335 12.425C45.3335 11.56 45.59 10.7145 46.0706 9.99531C46.5511 9.27612 47.2342 8.71558 48.0333 8.38457C48.8324 8.05356 49.7117 7.96696 50.5601 8.1357C51.4084 8.30445 52.1877 8.72097 52.7993 9.33259C53.4109 9.94421 53.8274 10.7235 53.9962 11.5718C54.1649 12.4202 54.0783 13.2995 53.7473 14.0986C53.4163 14.8977 52.8558 15.5807 52.1366 16.0613C51.4174 16.5418 50.5718 16.7983 49.7069 16.7983C49.1316 16.8019 48.5613 16.6912 48.0291 16.4726C47.4969 16.2541 47.0134 15.9321 46.6066 15.5253C46.1998 15.1185 45.8778 14.635 45.6592 14.1028C45.4407 13.5706 45.33 13.0003 45.3335 12.425Z" fill="#00FFFF"/>
<path d="M50.4 38.0783H49.7067C49.0029 38.0789 48.306 37.9402 47.6561 37.6701C47.0062 37.4001 46.4162 37.0041 45.92 36.505C40.2933 30.905 33.28 21.385 32.7733 13.2783C32.7475 12.9946 32.6333 12.7261 32.4467 12.5108C32.2601 12.2955 32.0105 12.1442 31.7333 12.0783C29.8518 11.6566 27.9282 11.4508 26 11.465C19.1065 11.4721 12.4974 14.2136 7.62302 19.088C2.7486 23.9624 0.00705936 30.5715 0 37.465C0.00559233 40.3978 0.50131 43.309 1.46667 46.0783C1.5469 46.2794 1.67311 46.4589 1.83518 46.6025C1.99726 46.746 2.19069 46.8496 2.4 46.905C2.6058 46.9701 2.82512 46.9797 3.03581 46.9328C3.24651 46.886 3.44112 46.7844 3.6 46.6383C4.69333 45.705 5.73333 44.825 6.77333 43.9717C7.19074 43.6967 7.69599 43.588 8.18955 43.667C8.68312 43.7459 9.12922 44.0069 9.44 44.3983C9.74858 44.8284 9.8767 45.362 9.79697 45.8852C9.71724 46.4085 9.43598 46.8798 9.01333 47.1983C7.57416 48.2597 6.19431 49.3992 4.88 50.6117C4.63376 50.8281 4.47789 51.1292 4.44331 51.4553C4.40874 51.7813 4.49798 52.1084 4.69333 52.3717C7.75723 56.7779 12.1108 60.1268 17.1555 61.9579C22.2001 63.7891 27.6882 64.0127 32.8651 62.5979C38.0419 61.1831 42.6535 58.1994 46.0656 54.057C49.4777 49.9147 51.5229 44.817 51.92 39.465C51.9331 39.2627 51.9018 39.0599 51.828 38.871C51.7543 38.6821 51.6401 38.5116 51.4933 38.3717C51.3428 38.2471 51.1673 38.1565 50.9786 38.1059C50.79 38.0552 50.5926 38.0459 50.4 38.0783ZM24.9333 42.4783C23.9866 42.2714 23.0222 42.1553 22.0533 42.1317C20.68 42.1668 19.3173 42.382 18 42.7717C17.8232 42.7976 17.6435 42.7976 17.4667 42.7717C16.9718 42.7842 16.4898 42.6127 16.1141 42.2905C15.7383 41.9682 15.4954 41.518 15.4323 41.027C15.3693 40.536 15.4906 40.039 15.7728 39.6323C16.055 39.2255 16.478 38.9379 16.96 38.825C18.6387 38.3739 20.3685 38.1408 22.1067 38.1317C23.3239 38.1306 24.5384 38.2466 25.7333 38.4783C26.0056 38.511 26.2683 38.5992 26.5051 38.7377C26.7419 38.8761 26.9476 39.0618 27.1096 39.2831C27.2715 39.5045 27.3862 39.7568 27.4465 40.0243C27.5068 40.2919 27.5115 40.569 27.4602 40.8384C27.4088 41.1078 27.3027 41.3638 27.1482 41.5904C26.9938 41.8171 26.7944 42.0095 26.5624 42.1558C26.3304 42.3021 26.0708 42.3992 25.7997 42.4409C25.5287 42.4826 25.2519 42.4681 24.9867 42.3983L24.9333 42.4783ZM44.3467 48.3717C44.2211 48.775 43.9694 49.1274 43.6285 49.3771C43.2877 49.6267 42.8758 49.7603 42.4533 49.7583C42.2507 49.7966 42.0427 49.7966 41.84 49.7583C39.2381 48.854 36.7216 47.7207 34.32 46.3717C33.8526 46.1315 33.4969 45.7191 33.3277 45.2216C33.1586 44.7241 33.1893 44.1803 33.4133 43.705C33.5294 43.471 33.6908 43.2623 33.8881 43.0912C34.0854 42.92 34.3147 42.7897 34.5628 42.7078C34.8109 42.626 35.0727 42.5942 35.3331 42.6143C35.5936 42.6344 35.8474 42.706 36.08 42.825C38.2851 44.0678 40.5965 45.1119 42.9867 45.945C43.484 46.0939 43.9039 46.4303 44.1577 46.8832C44.4114 47.336 44.4792 47.8698 44.3467 48.3717Z" fill="#00FFFF"/>
</svg>
