<svg width="64" height="64" viewBox="0 0 64 64" fill="none" xmlns="http://www.w3.org/2000/svg">
<g clip-path="url(#clip0_15_536)">
<path d="M61.3333 0H19.3333C18.6261 0 17.9478 0.280952 17.4477 0.781049C16.9476 1.28115 16.6667 1.95942 16.6667 2.66667V4.66667C16.6667 5.02029 16.5262 5.35943 16.2761 5.60948C16.0261 5.85952 15.687 6 15.3333 6C13.037 6.00703 10.8366 6.92238 9.21284 8.54618C7.58905 10.17 6.6737 12.3703 6.66667 14.6667V56C6.66667 56.3536 6.52619 56.6928 6.27614 56.9428C6.02609 57.1929 5.68696 57.3333 5.33333 57.3333H3.33333C2.44928 57.3333 1.60143 57.6845 0.976311 58.3096C0.351189 58.9348 0 59.7826 0 60.6667C0 61.5507 0.351189 62.3986 0.976311 63.0237C1.60143 63.6488 2.44928 64 3.33333 64H16.6667C17.5507 64 18.3986 63.6488 19.0237 63.0237C19.6488 62.3986 20 61.5507 20 60.6667C20 59.7826 19.6488 58.9348 19.0237 58.3096C18.3986 57.6845 17.5507 57.3333 16.6667 57.3333H14.6667C14.313 57.3333 13.9739 57.1929 13.7239 56.9428C13.4738 56.6928 13.3333 56.3536 13.3333 56V14.6667C13.3402 14.1384 13.5532 13.6337 13.9268 13.2601C14.3003 12.8865 14.805 12.6736 15.3333 12.6667C15.687 12.6667 16.0261 12.8071 16.2761 13.0572C16.5262 13.3072 16.6667 13.6464 16.6667 14V18.6667C16.6667 19.0169 16.7356 19.3636 16.8697 19.6872C17.0037 20.0107 17.2001 20.3047 17.4477 20.5523C17.6953 20.7999 17.9893 20.9963 18.3128 21.1303C18.6364 21.2644 18.9831 21.3333 19.3333 21.3333H61.3333C61.6835 21.3333 62.0303 21.2644 62.3538 21.1303C62.6774 20.9963 62.9713 20.7999 63.219 20.5523C63.4666 20.3047 63.663 20.0107 63.797 19.6872C63.931 19.3636 64 19.0169 64 18.6667V2.66667C64 1.95942 63.719 1.28115 63.219 0.781049C62.7189 0.280952 62.0406 0 61.3333 0ZM26.6667 14.6667C25.8755 14.6667 25.1022 14.4321 24.4444 13.9925C23.7866 13.553 23.2739 12.9283 22.9711 12.1974C22.6684 11.4665 22.5892 10.6622 22.7435 9.88631C22.8979 9.11038 23.2788 8.39765 23.8382 7.83824C24.3976 7.27883 25.1104 6.89787 25.8863 6.74353C26.6622 6.58918 27.4665 6.6684 28.1974 6.97115C28.9283 7.2739 29.553 7.78659 29.9925 8.44439C30.4321 9.10218 30.6667 9.87554 30.6667 10.6667C30.6667 11.7275 30.2452 12.7449 29.4951 13.4951C28.7449 14.2452 27.7275 14.6667 26.6667 14.6667ZM40 14.6667C39.2089 14.6667 38.4355 14.4321 37.7777 13.9925C37.1199 13.553 36.6072 12.9283 36.3045 12.1974C36.0017 11.4665 35.9225 10.6622 36.0769 9.88631C36.2312 9.11038 36.6122 8.39765 37.1716 7.83824C37.731 7.27883 38.4437 6.89787 39.2196 6.74353C39.9956 6.58918 40.7998 6.6684 41.5307 6.97115C42.2616 7.2739 42.8864 7.78659 43.3259 8.44439C43.7654 9.10218 44 9.87554 44 10.6667C44 11.7275 43.5786 12.7449 42.8284 13.4951C42.0783 14.2452 41.0609 14.6667 40 14.6667ZM53.3333 14.6667C52.5422 14.6667 51.7688 14.4321 51.1111 13.9925C50.4533 13.553 49.9406 12.9283 49.6378 12.1974C49.3351 11.4665 49.2558 10.6622 49.4102 9.88631C49.5645 9.11038 49.9455 8.39765 50.5049 7.83824C51.0643 7.27883 51.777 6.89787 52.553 6.74353C53.3289 6.58918 54.1332 6.6684 54.8641 6.97115C55.595 7.2739 56.2197 7.78659 56.6592 8.44439C57.0987 9.10218 57.3333 9.87554 57.3333 10.6667C57.3333 11.7275 56.9119 12.7449 56.1618 13.4951C55.4116 14.2452 54.3942 14.6667 53.3333 14.6667Z" fill="#00FFFF"/>
</g>
<defs>
<clipPath id="clip0_15_536">
<rect width="64" height="64" fill="white"/>
</clipPath>
</defs>
</svg>
