<svg width="64" height="64" viewBox="0 0 64 64" fill="none" xmlns="http://www.w3.org/2000/svg">
<g clip-path="url(#clip0_15_520)">
<path d="M14.4269 31.7066C14.2499 31.3947 13.9943 31.1345 13.6855 30.952C13.3767 30.7696 13.0256 30.6712 12.6669 30.6666H11.4936C11.3059 30.668 11.1203 30.6281 10.9498 30.5498C10.7793 30.4714 10.6281 30.3566 10.5069 30.2133C10.3788 30.0752 10.2836 29.9099 10.2282 29.7299C10.1728 29.5498 10.1587 29.3596 10.1869 29.1733C10.7432 24.8827 12.5522 20.8513 15.3878 17.5834C18.2233 14.3156 21.9594 11.9564 26.1288 10.8009C30.2983 9.64541 34.7158 9.74497 38.8289 11.0871C42.9421 12.4292 46.5681 14.9544 49.2536 18.3466C49.7269 18.7573 50.3298 18.9881 50.9564 18.9985C51.5829 19.009 52.1931 18.7985 52.68 18.404C53.1668 18.0094 53.4991 17.456 53.6187 16.8409C53.7382 16.2257 53.6372 15.5881 53.3336 15.04C49.9377 10.7898 45.3507 7.64974 40.1598 6.0216C34.969 4.39346 29.4103 4.35135 24.1954 5.90065C18.9804 7.44996 14.3464 10.5202 10.8865 14.7184C7.42657 18.9166 5.29812 24.0518 4.77358 29.4667C4.7409 29.7921 4.58972 30.0942 4.34878 30.3155C4.10785 30.5368 3.79399 30.6617 3.46691 30.6666H2.00024C1.64131 30.664 1.28827 30.758 0.978158 30.9387C0.66805 31.1195 0.412306 31.3804 0.237754 31.694C0.0632031 32.0077 -0.0237212 32.3625 -0.0138994 32.7213C-0.00407761 33.0801 0.102128 33.4297 0.293576 33.7333L5.62691 42.2667C5.81025 42.5529 6.06266 42.7885 6.3609 42.9516C6.65914 43.1148 6.99363 43.2003 7.33358 43.2003C7.67353 43.2003 8.00802 43.1148 8.30626 42.9516C8.6045 42.7885 8.8569 42.5529 9.04024 42.2667L14.3736 33.7333C14.5596 33.4299 14.6625 33.0829 14.6719 32.7271C14.6812 32.3714 14.5967 32.0194 14.4269 31.7066Z" fill="#00FFFF"/>
<path d="M63.7071 30.2667L58.3737 21.7333C58.1784 21.4634 57.9219 21.2437 57.6252 21.0922C57.3286 20.9407 57.0002 20.8617 56.6671 20.8617C56.3339 20.8617 56.0055 20.9407 55.7089 21.0922C55.4122 21.2437 55.1557 21.4634 54.9604 21.7333L49.6271 30.2667C49.4356 30.5703 49.3294 30.9198 49.3196 31.2786C49.3098 31.6375 49.3967 31.9923 49.5712 32.306C49.7458 32.6196 50.0015 32.8805 50.3116 33.0613C50.6217 33.242 50.9748 33.336 51.3337 33.3333H52.5071C52.6947 33.3319 52.8803 33.3718 53.0508 33.4502C53.2213 33.5285 53.3725 33.6434 53.4937 33.7867C53.6218 33.9248 53.7171 34.0901 53.7725 34.2701C53.8279 34.4502 53.842 34.6404 53.8137 34.8267C53.2575 39.1173 51.4484 43.1487 48.6129 46.4165C45.7773 49.6844 42.0412 52.0436 37.8718 53.1991C33.7024 54.3546 29.2848 54.255 25.1717 52.9129C21.0586 51.5707 17.4325 49.0456 14.7471 45.6533C14.2737 45.2427 13.6708 45.0119 13.0443 45.0014C12.4177 44.9909 11.8075 45.2015 11.3206 45.596C10.8338 45.9906 10.5015 46.544 10.382 47.1591C10.2624 47.7743 10.3634 48.4118 10.6671 48.96C14.0547 53.2058 18.6305 56.346 23.8106 57.9799C28.9907 59.6138 34.5402 59.6673 39.7508 58.1336C44.9615 56.5999 49.597 53.5485 53.0659 49.3688C56.5348 45.1891 58.6798 40.0707 59.2271 34.6667C59.2597 34.3412 59.4109 34.0391 59.6518 33.8178C59.8928 33.5965 60.2066 33.4716 60.5337 33.4667H62.0004C62.3593 33.4693 62.7124 33.3753 63.0225 33.1946C63.3326 33.0138 63.5883 32.7529 63.7629 32.4393C63.9374 32.1256 64.0244 31.7708 64.0145 31.412C64.0047 31.0532 63.8985 30.7036 63.7071 30.4V30.2667Z" fill="#00FFFF"/>
<path d="M32.0002 17.0667C31.5564 17.0645 31.1192 17.1732 30.728 17.3827C30.3369 17.5922 30.0042 17.8961 29.7602 18.2667C26.6668 23.0667 21.3335 31.76 21.3335 36C21.3335 38.829 22.4573 41.5421 24.4577 43.5425C26.4581 45.5429 29.1712 46.6667 32.0002 46.6667C34.8291 46.6667 37.5422 45.5429 39.5426 43.5425C41.543 41.5421 42.6668 38.829 42.6668 36C42.6668 31.76 37.3335 23.0667 34.2402 18.2667C33.9961 17.8961 33.6634 17.5922 33.2723 17.3827C32.8811 17.1732 32.4439 17.0645 32.0002 17.0667ZM34.6668 41.52C34.6668 41.6951 34.6323 41.8685 34.5653 42.0303C34.4983 42.192 34.4001 42.339 34.2763 42.4628C34.1525 42.5866 34.0055 42.6848 33.8437 42.7519C33.682 42.8189 33.5086 42.8533 33.3335 42.8533C31.2118 42.8533 29.1769 42.0105 27.6766 40.5102C26.1764 39.0099 25.3335 36.9751 25.3335 34.8533C25.3335 34.4997 25.474 34.1606 25.724 33.9105C25.9741 33.6605 26.3132 33.52 26.6668 33.52C27.0205 33.52 27.3596 33.6605 27.6096 33.9105C27.8597 34.1606 28.0002 34.4997 28.0002 34.8533C28.0002 36.2678 28.5621 37.6244 29.5623 38.6246C30.5625 39.6248 31.919 40.1867 33.3335 40.1867C33.5086 40.1867 33.682 40.2212 33.8437 40.2882C34.0055 40.3552 34.1525 40.4534 34.2763 40.5772C34.4001 40.701 34.4983 40.848 34.5653 41.0098C34.6323 41.1715 34.6668 41.3449 34.6668 41.52Z" fill="#00FFFF"/>
</g>
<defs>
<clipPath id="clip0_15_520">
<rect width="64" height="64" fill="white"/>
</clipPath>
</defs>
</svg>
