<svg width="64" height="64" viewBox="0 0 64 64" fill="none" xmlns="http://www.w3.org/2000/svg">
<g clip-path="url(#clip0_15_511)">
<path d="M33.307 27.4933C33.307 24.5333 32.747 18.56 32.7737 18.3467L31.147 17.92L31.547 16.7467C32.5604 13.84 33.1204 12 32.2937 10.8267C32.1094 10.5697 31.8645 10.3622 31.5807 10.2226C31.2969 10.083 30.9831 10.0157 30.667 10.0267C28.0004 10.0267 25.1737 14.0267 22.1337 18.0267C17.8519 18.5888 13.7263 20.0033 10.0004 22.1867C4.08035 25.7333 3.78702 30.1867 3.94702 32.16C-0.346313 36.32 0.000353906 37.76 0.000353906 38.24C0.0736561 38.8469 0.287865 39.4282 0.625869 39.9375C0.963872 40.4468 1.4163 40.87 1.94702 41.1733C5.57369 43.12 10.827 38.72 20.6137 36.56C22.827 39.0667 26.667 42.6667 29.3337 42.6667C30.667 42.6667 29.8137 38.4533 28.987 35.3067H32.8804C33.1777 32.713 33.3202 30.1039 33.307 27.4933ZM9.30702 30.6667C9.30702 30.1392 9.46342 29.6237 9.75643 29.1851C10.0495 28.7466 10.4659 28.4048 10.9532 28.203C11.4405 28.0011 11.9766 27.9483 12.4939 28.0512C13.0112 28.1541 13.4864 28.4081 13.8593 28.781C14.2322 29.154 14.4862 29.6291 14.5891 30.1464C14.692 30.6637 14.6392 31.1999 14.4374 31.6871C14.2355 32.1744 13.8937 32.5909 13.4552 32.8839C13.0167 33.1769 12.5011 33.3333 11.9737 33.3333C11.2757 33.3194 10.6111 33.0323 10.1225 32.5337C9.63383 32.0351 9.36021 31.3648 9.36035 30.6667H9.30702Z" fill="#00FFFF"/>
<path d="M30.6934 54.88C29.7534 55.9979 28.5938 56.9108 27.2865 57.5622C25.9792 58.2135 24.552 58.5895 23.0934 58.6667C21.6684 58.5751 20.2847 58.1511 19.0529 57.4287C17.8212 56.7064 16.7757 55.7056 16.0001 54.5067C15.772 54.142 15.4591 53.8379 15.088 53.6203C14.717 53.4028 14.2988 53.2782 13.8692 53.2573C13.4396 53.2363 13.0113 53.3196 12.6208 53.5C12.2303 53.6804 11.8893 53.9526 11.6268 54.2933C11.6268 54.2933 7.54678 59.28 3.06678 58.6667C2.71803 58.6098 2.36147 58.6229 2.01781 58.705C1.67415 58.7872 1.35024 58.9368 1.06491 59.1452C0.779575 59.3536 0.538508 59.6167 0.355714 59.9191C0.172919 60.2215 0.0520436 60.5572 0.000109957 60.9067C0.000109957 60.9067 -0.453224 64 3.84011 64C7.46378 63.8183 10.9046 62.3532 13.5468 59.8667C16.0638 62.443 19.4923 63.9274 23.0934 64C26.7627 63.932 30.2883 62.5615 33.0401 60.1333C34.1734 61.3628 35.5511 62.3419 37.0849 63.0077C38.6187 63.6736 40.2747 64.0116 41.9468 64C45.482 64.0017 48.8784 62.624 51.4134 60.16C52.7253 61.5337 54.337 62.5854 56.1226 63.233C57.9082 63.8807 59.8194 64.1066 61.7068 63.8933C62.057 63.8443 62.3941 63.7268 62.6988 63.5475C63.0036 63.3682 63.2701 63.1306 63.483 62.8483C63.696 62.566 63.8513 62.2445 63.94 61.9022C64.0287 61.5599 64.0491 61.2035 64.0001 60.8533C63.9511 60.5031 63.8336 60.166 63.6543 59.8613C63.4749 59.5565 63.2374 59.29 62.9551 59.0771C62.6728 58.8641 62.3513 58.7088 62.009 58.6201C61.6667 58.5314 61.3103 58.511 60.9601 58.56C56.6668 59.1733 53.6801 54.6133 53.6534 54.5867C53.4157 54.1948 53.0811 53.8708 52.6817 53.646C52.2823 53.4211 51.8318 53.303 51.3734 53.303C50.9151 53.303 50.4646 53.4211 50.0652 53.646C49.6658 53.8708 49.3311 54.1948 49.0934 54.5867C48.3249 55.7976 47.272 56.8024 46.0264 57.5135C44.7808 58.2246 43.3803 58.6205 41.9468 58.6667C40.6655 58.6415 39.4141 58.2749 38.3218 57.6045C37.2295 56.9342 36.336 55.9844 35.7334 54.8533C35.5523 54.5183 35.3015 54.2259 34.9979 53.9959C34.6943 53.766 34.345 53.6037 33.9734 53.52C34.7675 52.9273 35.4842 52.2375 36.1068 51.4667C39.2833 46.8498 41.2291 41.4988 41.7601 35.92C46.9601 36.4267 50.9068 36.9867 52.4268 37.2267L57.4668 47.8933C57.5625 48.0932 57.7066 48.2661 57.886 48.3963C58.0653 48.5265 58.2743 48.6099 58.4941 48.639C58.7138 48.6681 58.9373 48.642 59.1444 48.563C59.3515 48.4841 59.5356 48.3547 59.6801 48.1867C60.8067 46.7972 61.5089 45.1125 61.7028 43.3343C61.8967 41.556 61.5741 39.7596 60.7734 38.16C61.848 37.391 62.7084 36.3603 63.2731 35.1656C63.8378 33.9709 64.088 32.6518 64.0001 31.3333C64.002 31.13 63.9573 30.9289 63.8695 30.7454C63.7817 30.562 63.6531 30.401 63.4936 30.2749C63.334 30.1488 63.1477 30.0609 62.949 30.0179C62.7502 29.9748 62.5442 29.9778 62.3468 30.0267L55.0934 31.8133C51.2344 27.9703 46.8645 24.6771 42.1068 22.0267C41.0401 10.6667 36.6934 0 29.4668 0C25.7334 0 22.3734 2.96 20.0268 8.29333C19.7365 8.93381 19.7109 9.66303 19.9556 10.3223C20.2003 10.9815 20.6955 11.5174 21.3334 11.8133C21.6538 11.9554 21.9991 12.0329 22.3495 12.0414C22.6998 12.0499 23.0484 11.9893 23.3754 11.863C23.7023 11.7367 24.0011 11.5472 24.2547 11.3053C24.5083 11.0634 24.7118 10.7739 24.8534 10.4533C26.2934 7.28 28.0268 5.33333 29.4668 5.33333C31.6534 5.33333 34.5868 9.76 36.0801 17.2533C36.7223 20.6284 37.0349 24.0578 37.0134 27.4933C37.0796 32.4407 36.3871 37.3691 34.9601 42.1067C33.3868 46.9333 31.2001 49.68 29.4668 49.68C27.7334 49.68 26.3201 47.7333 24.9334 44.64C24.6273 44.0295 24.0986 43.5598 23.4564 43.3276C22.8142 43.0954 22.1073 43.1184 21.4816 43.392C20.8558 43.6655 20.3589 44.1687 20.0932 44.7979C19.8275 45.427 19.8132 46.134 20.0534 46.7733C20.6397 48.4717 21.5598 50.0356 22.7597 51.3728C23.9596 52.7101 25.415 53.7938 27.0401 54.56C27.8142 54.8591 28.6369 55.0128 29.4668 55.0133C29.8791 55.0101 30.29 54.9654 30.6934 54.88Z" fill="#00FFFF"/>
</g>
<defs>
<clipPath id="clip0_15_511">
<rect width="64" height="64" fill="white"/>
</clipPath>
</defs>
</svg>
