<svg width="128" height="128" viewBox="0 0 128 128" fill="none" xmlns="http://www.w3.org/2000/svg">
<path d="M64 0C99.288 0 128 23.296 128 51.936C128 63.4 123.56 73.72 114.28 83.888C100.856 99.344 70.832 118.168 64 121.048C57.36 123.848 58.128 119.472 58.432 117.744L58.456 117.6L59.368 112.12C59.584 110.488 59.808 107.952 59.16 106.336C58.44 104.552 55.608 103.624 53.528 103.176C22.768 99.12 0 77.608 0 51.936C0 23.296 28.72 0 64 0ZM40.176 61.488H27.976V39.344C27.976 39.0144 27.8456 38.6982 27.6133 38.4643C27.381 38.2305 27.0656 38.0981 26.736 38.096H22.24C22.0761 38.096 21.9138 38.1283 21.7624 38.191C21.611 38.2537 21.4734 38.3456 21.3575 38.4615C21.2416 38.5774 21.1497 38.715 21.087 38.8664C21.0243 39.0178 20.992 39.1801 20.992 39.344V67.232C20.992 67.56 21.128 67.872 21.344 68.088V68.096L21.36 68.112L21.376 68.128C21.4899 68.2399 21.625 68.328 21.7733 68.3871C21.9217 68.4462 22.0803 68.475 22.24 68.472H40.176C40.864 68.472 41.416 67.912 41.416 67.224V62.744C41.4171 62.5801 41.3858 62.4176 41.3241 62.2658C41.2623 62.114 41.1713 61.9758 41.0561 61.8592C40.941 61.7425 40.804 61.6497 40.653 61.5861C40.502 61.5224 40.3399 61.489 40.176 61.488ZM46.504 38.096C46.173 38.096 45.8556 38.2275 45.6215 38.4615C45.3875 38.6956 45.256 39.013 45.256 39.344V67.232C45.256 67.92 45.816 68.472 46.504 68.472H51C51.688 68.472 52.24 67.912 52.24 67.232V39.344C52.24 39.0144 52.1096 38.6982 51.8773 38.4643C51.645 38.2305 51.3296 38.0981 51 38.096H46.504ZM77.408 38.096C77.077 38.096 76.7596 38.2275 76.5255 38.4615C76.2915 38.6956 76.16 39.013 76.16 39.344V55.904L63.384 38.656L63.28 38.536L63.2 38.448L63.176 38.424L63.088 38.352L63.04 38.32L63.016 38.304L62.976 38.28L62.912 38.24H62.896L62.872 38.224L62.792 38.192L62.76 38.176L62.68 38.152H62.664L62.64 38.144L62.568 38.128H62.52L62.496 38.12H62.464L62.448 38.112H57.856C57.5264 38.112 57.2102 38.2424 56.9763 38.4747C56.7425 38.707 56.6101 39.0224 56.608 39.352V67.24C56.608 67.928 57.168 68.48 57.856 68.48H62.336C63.032 68.48 63.592 67.92 63.592 67.24V50.68L76.392 67.96C76.4817 68.0751 76.5866 68.1774 76.704 68.264L76.712 68.272L76.792 68.32L76.824 68.336L76.888 68.368L76.944 68.392L76.984 68.408L77.064 68.432H77.088C77.1928 68.4588 77.3 68.4749 77.408 68.48H81.888C82.584 68.48 83.144 67.92 83.144 67.24V39.344C83.144 39.013 83.0125 38.6956 82.7785 38.4615C82.5444 38.2275 82.227 38.096 81.896 38.096H77.408ZM107.928 43.832V39.352C107.929 39.1881 107.898 39.0256 107.836 38.8738C107.774 38.722 107.683 38.5838 107.568 38.4672C107.453 38.3505 107.316 38.2577 107.165 38.1941C107.014 38.1304 106.852 38.097 106.688 38.096H88.752C88.43 38.1005 88.1215 38.2262 87.888 38.448H87.88L87.872 38.464L87.856 38.488C87.636 38.7194 87.5105 39.0248 87.504 39.344V67.232C87.504 67.56 87.64 67.872 87.856 68.088L87.872 68.112L87.888 68.128C88.1227 68.3469 88.4311 68.4697 88.752 68.472H106.688C107.376 68.472 107.928 67.912 107.928 67.224V62.744C107.929 62.5801 107.898 62.4176 107.836 62.2658C107.774 62.114 107.683 61.9758 107.568 61.8592C107.453 61.7425 107.316 61.6497 107.165 61.5861C107.014 61.5224 106.852 61.489 106.688 61.488H94.48V56.776H106.68C107.368 56.776 107.92 56.216 107.92 55.528V51.048C107.921 50.8841 107.89 50.7216 107.828 50.5698C107.766 50.418 107.675 50.2798 107.56 50.1632C107.445 50.0466 107.308 49.9537 107.157 49.8901C107.006 49.8264 106.844 49.793 106.68 49.792H94.48V45.08H106.68C107.368 45.08 107.92 44.52 107.92 43.832H107.928Z" fill="white"/>
</svg>
