<svg width="222" height="59" viewBox="0 0 222 59" fill="none" xmlns="http://www.w3.org/2000/svg">
<path d="M58.6477 14.4205C58.5568 13.5038 58.1667 12.7917 57.4773 12.2841C56.7879 11.7765 55.8523 11.5227 54.6705 11.5227C53.8674 11.5227 53.1894 11.6364 52.6364 11.8636C52.0833 12.0833 51.6591 12.3902 51.3636 12.7841C51.0758 13.178 50.9318 13.625 50.9318 14.125C50.9167 14.5417 51.0038 14.9053 51.1932 15.2159C51.3902 15.5265 51.6591 15.7955 52 16.0227C52.3409 16.2424 52.7348 16.4356 53.1818 16.6023C53.6288 16.7614 54.1061 16.8977 54.6136 17.0114L56.7045 17.5114C57.7197 17.7386 58.6515 18.0417 59.5 18.4205C60.3485 18.7992 61.0833 19.2652 61.7045 19.8182C62.3258 20.3712 62.8068 21.0227 63.1477 21.7727C63.4962 22.5227 63.6742 23.3826 63.6818 24.3523C63.6742 25.7765 63.3106 27.0114 62.5909 28.0568C61.8788 29.0947 60.8485 29.9015 59.5 30.4773C58.1591 31.0455 56.5417 31.3295 54.6477 31.3295C52.7689 31.3295 51.1326 31.0417 49.7386 30.4659C48.3523 29.8902 47.2689 29.0379 46.4886 27.9091C45.7159 26.7727 45.3106 25.3674 45.2727 23.6932H50.0341C50.0871 24.4735 50.3106 25.125 50.7045 25.6477C51.1061 26.1629 51.6402 26.553 52.3068 26.8182C52.9811 27.0758 53.7424 27.2045 54.5909 27.2045C55.4242 27.2045 56.1477 27.0833 56.7614 26.8409C57.3826 26.5985 57.8636 26.2614 58.2045 25.8295C58.5455 25.3977 58.7159 24.9015 58.7159 24.3409C58.7159 23.8182 58.5606 23.3788 58.25 23.0227C57.947 22.6667 57.5 22.3636 56.9091 22.1136C56.3258 21.8636 55.6098 21.6364 54.7614 21.4318L52.2273 20.7955C50.2652 20.3182 48.7159 19.572 47.5795 18.5568C46.4432 17.5417 45.8788 16.1742 45.8864 14.4545C45.8788 13.0455 46.2538 11.8144 47.0114 10.7614C47.7765 9.70833 48.8258 8.88636 50.1591 8.29545C51.4924 7.70454 53.0076 7.40909 54.7045 7.40909C56.4318 7.40909 57.9394 7.70454 59.2273 8.29545C60.5227 8.88636 61.5303 9.70833 62.25 10.7614C62.9697 11.8144 63.3409 13.0341 63.3636 14.4205H58.6477ZM66.9006 31V13.5455H71.5142V16.625H71.7188C72.0824 15.6023 72.6884 14.7955 73.5369 14.2045C74.3854 13.6136 75.4006 13.3182 76.5824 13.3182C77.7794 13.3182 78.7983 13.6174 79.6392 14.2159C80.4801 14.8068 81.0407 15.6098 81.321 16.625H81.5028C81.8589 15.625 82.5028 14.8258 83.4347 14.2273C84.3741 13.6212 85.4839 13.3182 86.7642 13.3182C88.393 13.3182 89.715 13.8371 90.7301 14.875C91.7528 15.9053 92.2642 17.3674 92.2642 19.2614V31H87.4347V20.2159C87.4347 19.2462 87.1771 18.5189 86.6619 18.0341C86.1468 17.5492 85.5028 17.3068 84.7301 17.3068C83.8513 17.3068 83.1657 17.5871 82.6733 18.1477C82.1809 18.7008 81.9347 19.4318 81.9347 20.3409V31H77.2415V20.1136C77.2415 19.2576 76.9953 18.5758 76.5028 18.0682C76.018 17.5606 75.3778 17.3068 74.5824 17.3068C74.0445 17.3068 73.5597 17.4432 73.1278 17.7159C72.7036 17.9811 72.3665 18.3561 72.1165 18.8409C71.8665 19.3182 71.7415 19.8788 71.7415 20.5227V31H66.9006ZM101.065 31.3295C99.9517 31.3295 98.9593 31.1364 98.0881 30.75C97.2169 30.3561 96.5275 29.7765 96.0199 29.0114C95.5199 28.2386 95.2699 27.2765 95.2699 26.125C95.2699 25.1553 95.4479 24.3409 95.804 23.6818C96.16 23.0227 96.6449 22.4924 97.2585 22.0909C97.8722 21.6894 98.5691 21.3864 99.3494 21.1818C100.137 20.9773 100.963 20.8333 101.827 20.75C102.842 20.6439 103.66 20.5455 104.281 20.4545C104.902 20.3561 105.353 20.2121 105.634 20.0227C105.914 19.8333 106.054 19.553 106.054 19.1818V19.1136C106.054 18.3939 105.827 17.8371 105.372 17.4432C104.925 17.0492 104.289 16.8523 103.463 16.8523C102.592 16.8523 101.899 17.0455 101.384 17.4318C100.868 17.8106 100.527 18.2879 100.361 18.8636L95.8835 18.5C96.1108 17.4394 96.5578 16.5227 97.2244 15.75C97.8911 14.9697 98.7509 14.3712 99.804 13.9545C100.865 13.5303 102.092 13.3182 103.486 13.3182C104.455 13.3182 105.384 13.4318 106.27 13.6591C107.164 13.8864 107.955 14.2386 108.645 14.7159C109.342 15.1932 109.891 15.8068 110.293 16.5568C110.694 17.2992 110.895 18.1894 110.895 19.2273V31H106.304V28.5795H106.168C105.887 29.125 105.512 29.6061 105.043 30.0227C104.573 30.4318 104.009 30.7538 103.349 30.9886C102.69 31.2159 101.929 31.3295 101.065 31.3295ZM102.452 27.9886C103.164 27.9886 103.793 27.8485 104.338 27.5682C104.884 27.2803 105.312 26.8939 105.622 26.4091C105.933 25.9242 106.088 25.375 106.088 24.7614V22.9091C105.937 23.0076 105.728 23.0985 105.463 23.1818C105.205 23.2576 104.914 23.3295 104.588 23.3977C104.262 23.4583 103.937 23.5152 103.611 23.5682C103.285 23.6136 102.99 23.6553 102.724 23.6932C102.156 23.7765 101.66 23.9091 101.236 24.0909C100.812 24.2727 100.482 24.5189 100.247 24.8295C100.012 25.1326 99.8949 25.5114 99.8949 25.9659C99.8949 26.625 100.134 27.1288 100.611 27.4773C101.096 27.8182 101.709 27.9886 102.452 27.9886ZM114.651 31V13.5455H119.344V16.5909H119.526C119.844 15.5076 120.378 14.6894 121.128 14.1364C121.878 13.5758 122.741 13.2955 123.719 13.2955C123.961 13.2955 124.223 13.3106 124.503 13.3409C124.783 13.3712 125.029 13.4129 125.241 13.4659V17.7614C125.014 17.6932 124.7 17.6326 124.298 17.5795C123.897 17.5265 123.529 17.5 123.196 17.5C122.484 17.5 121.848 17.6553 121.287 17.9659C120.734 18.2689 120.295 18.6932 119.969 19.2386C119.651 19.7841 119.491 20.4129 119.491 21.125V31H114.651ZM137.903 13.5455V17.1818H127.392V13.5455H137.903ZM129.778 9.36364H134.619V25.6364C134.619 26.0833 134.688 26.4318 134.824 26.6818C134.96 26.9242 135.15 27.0947 135.392 27.1932C135.642 27.2917 135.93 27.3409 136.256 27.3409C136.483 27.3409 136.71 27.322 136.938 27.2841C137.165 27.2386 137.339 27.2045 137.46 27.1818L138.222 30.7841C137.979 30.8598 137.638 30.947 137.199 31.0455C136.759 31.1515 136.225 31.2159 135.597 31.2386C134.43 31.2841 133.407 31.1288 132.528 30.7727C131.657 30.4167 130.979 29.8636 130.494 29.1136C130.009 28.3636 129.771 27.4167 129.778 26.2727V9.36364ZM149.773 31H141.523V7.72727H149.841C152.182 7.72727 154.197 8.19318 155.886 9.125C157.576 10.0492 158.875 11.3788 159.784 13.1136C160.701 14.8485 161.159 16.9242 161.159 19.3409C161.159 21.7652 160.701 23.8485 159.784 25.5909C158.875 27.3333 157.568 28.6705 155.864 29.6023C154.167 30.5341 152.136 31 149.773 31ZM146.443 26.7841H149.568C151.023 26.7841 152.246 26.5265 153.239 26.0114C154.239 25.4886 154.989 24.6818 155.489 23.5909C155.996 22.4924 156.25 21.0758 156.25 19.3409C156.25 17.6212 155.996 16.2159 155.489 15.125C154.989 14.0341 154.242 13.2311 153.25 12.7159C152.258 12.2008 151.034 11.9432 149.58 11.9432H146.443V26.7841ZM164.713 31V13.5455H169.406V16.5909H169.588C169.906 15.5076 170.44 14.6894 171.19 14.1364C171.94 13.5758 172.804 13.2955 173.781 13.2955C174.024 13.2955 174.285 13.3106 174.565 13.3409C174.846 13.3712 175.092 13.4129 175.304 13.4659V17.7614C175.077 17.6932 174.762 17.6326 174.361 17.5795C173.959 17.5265 173.592 17.5 173.259 17.5C172.546 17.5 171.91 17.6553 171.349 17.9659C170.796 18.2689 170.357 18.6932 170.031 19.2386C169.713 19.7841 169.554 20.4129 169.554 21.125V31H164.713ZM177.807 31V13.5455H182.648V31H177.807ZM180.239 11.2955C179.519 11.2955 178.902 11.0568 178.386 10.5795C177.879 10.0947 177.625 9.51515 177.625 8.84091C177.625 8.17424 177.879 7.60227 178.386 7.125C178.902 6.64015 179.519 6.39773 180.239 6.39773C180.958 6.39773 181.572 6.64015 182.08 7.125C182.595 7.60227 182.852 8.17424 182.852 8.84091C182.852 9.51515 182.595 10.0947 182.08 10.5795C181.572 11.0568 180.958 11.2955 180.239 11.2955ZM202.798 13.5455L196.696 31H191.241L185.139 13.5455H190.253L193.878 26.0341H194.06L197.673 13.5455H202.798ZM212.668 31.3409C210.872 31.3409 209.327 30.9773 208.031 30.25C206.743 29.5152 205.751 28.4773 205.054 27.1364C204.357 25.7879 204.009 24.1932 204.009 22.3523C204.009 20.5568 204.357 18.9811 205.054 17.625C205.751 16.2689 206.732 15.2121 207.997 14.4545C209.27 13.697 210.762 13.3182 212.474 13.3182C213.626 13.3182 214.698 13.5038 215.69 13.875C216.69 14.2386 217.562 14.7879 218.304 15.5227C219.054 16.2576 219.637 17.1818 220.054 18.2955C220.471 19.4015 220.679 20.697 220.679 22.1818V23.5114H205.94V20.5114H216.122C216.122 19.8144 215.971 19.197 215.668 18.6591C215.365 18.1212 214.944 17.7008 214.406 17.3977C213.876 17.0871 213.259 16.9318 212.554 16.9318C211.819 16.9318 211.168 17.1023 210.599 17.4432C210.039 17.7765 209.599 18.2273 209.281 18.7955C208.963 19.3561 208.8 19.9811 208.793 20.6705V23.5227C208.793 24.3864 208.952 25.1326 209.27 25.7614C209.596 26.3902 210.054 26.875 210.645 27.2159C211.236 27.5568 211.937 27.7273 212.747 27.7273C213.285 27.7273 213.777 27.6515 214.224 27.5C214.671 27.3485 215.054 27.1212 215.372 26.8182C215.69 26.5152 215.933 26.1439 216.099 25.7045L220.577 26C220.349 27.0758 219.884 28.0152 219.179 28.8182C218.482 29.6136 217.58 30.2348 216.474 30.6818C215.376 31.1212 214.107 31.3409 212.668 31.3409Z" fill="#FAFAFA"/>
<g clip-path="url(#clip0_30_3436)">
<path d="M4.81 58.34L21.85 40.86L0 33.58L22.87 12.18L15.44 8.1L36.41 3L32.48 24.55L28.26 17.12L14.57 30.66L36.42 37.94L17.49 58.33H4.81V58.34Z" fill="url(#paint0_linear_30_3436)"/>
</g>
<defs>
<linearGradient id="paint0_linear_30_3436" x1="36.95" y1="3.31" x2="5.07999" y2="58.5" gradientUnits="userSpaceOnUse">
<stop stop-color="#FF00FF"/>
<stop offset="0.23" stop-color="#FA00FA"/>
<stop offset="0.51" stop-color="#EC00ED"/>
<stop offset="0.79" stop-color="#D500D7"/>
<stop offset="1" stop-color="#C000C3"/>
</linearGradient>
<clipPath id="clip0_30_3436">
<rect width="36.41" height="55.34" fill="white" transform="translate(0 3)"/>
</clipPath>
</defs>
</svg>
