<?xml version="1.0" encoding="UTF-8"?><svg id="_圖層_2" xmlns="http://www.w3.org/2000/svg" width="527.46" height="490.23" viewBox="0 0 527.46 490.23"><g id="Layer_1"><path d="M19.57,175.63c-3.66-1.48-9.48-4.58-10.09-8.95l-.09.02c.96,4.2,5.4,9.62,10.06,9.72.49,0,.52-.63.12-.79Z"/><path d="M58.9,362.54h0c4.37,6.71,9.61,12.91,15.31,18.57-.02.71.81,1.65,1.9,2.59v.05c-.02.48-.04.96-.06,1.45h.1c0-.46.03-.92.04-1.38v-.05c1.44,1.22,3.27,2.42,4.18,3.07,2.74,2.37,5.56,4.62,8.44,6.71.11.08.23.13.34.15.15.03.29.02.42-.03l.04-.02c4.66,3.19,9.48,6.16,14.39,8.92,9.52,5.34,19.65,9.56,30.2,12.38,6.47,1.74,13.13,2.51,19.82,3.04,4.42.35,8.86.6,13.27.96,1.6.13,3.19.27,4.78.43,6.33.66,12.6,1.69,18.88,2.47.55.07,1.11.13,1.66.2.51.06,1.02.12,1.53.17.93.1,1.87.19,2.8.27.21.02.42.04.63.05,1.12.09,2.24.17,3.37.23h.13c-.98,5.06-.47,11.17-.17,16.22.39,6.54,2.06,12.56,3.91,18.82,1.85,6.28,2.36,12.35,2.6,18.84.12,3.25.89,6.29,3.1,8.56-.54.6-.52,1.74.49,2.01,2.17.59,4.33,1.07,6.48,1.49l-.06.06.06.06.17-.02.24-.03c16.93,3.21,33.26.97,48.6-6.62,2.67-1.32,5.31-2.79,7.92-4.44,19.37-12.21,36.2-29.26,47.02-49.52,10.4-19.47,13.56-42.63,5.12-63.4-5.38-13.26-14.66-24-25.14-33.58-7.47-6.83-15.55-13.07-23.28-19.2-3.53-2.8-7.13-5.58-10.58-8.51-4.83-4.1-9.35-8.5-12.96-13.72-.52-.75-1.02-1.5-1.5-2.29-1.36-2.23-2.43-4.61-3.25-7.06-1.19-3.57-1.81-7.32-1.88-11.11-.03-1.99.48-11.84,1.66-15.85,1.55,3.28,3.21,6.53,5,9.7.06.11.13.23.19.34.22.39.44.77.66,1.15,5.4,9.27,11.96,17.79,20.12,24.34,2.62,2.68,5.33,5.3,8.12,7.84-2.42-2.3-4.8-4.65-7.14-7.06,1.12.87,2.28,1.7,3.46,2.49,18.26,12.19,44.26,16.28,65.47,11.31,19.74-4.63,34.69-19.33,44.61-36.41,10.58,2.84,20.57,4.53,31.56,2.68,11.57-1.95,22.07-7.73,31.35-14.69,9.77-7.33,17.75-16.8,22.03-28.31,3.38-9.08,3.68-19.18,2.6-28.95,3.54-1.27,8.34,2.28,11.44,3.74,5.16,2.44,10,5.61,14.92,8.5,4.09,2.4,7.69,5.77,11.03,9.22-5.32-3.59-13.46-3.71-20.5-3.47,9.1-.07,18.5,1.43,24.33,8.68.2.25.56-.05.43-.32-.19-.4-.4-.77-.62-1.14,2.47,2.46,5.31,5.26,5.89,8.54.07.38.29.59.56.68-2.24,3.14-4.54,6.24-6.91,9.28-4.55,5.83-9.33,11.47-14.33,16.9-27.08,29.36-60.72,52.23-99.46,63.62-24.86,7.3-51.29,10.37-76.26,2.05-16.38-5.46-31.35-15.47-44.44-27.35.88.83,1.77,1.65,2.66,2.47,9.44,8.62,19.65,16.24,31.29,22.02.67.33,1.34.68,2.02,1,.19.09.39.19.58.28,1.46.68,2.94,1.33,4.45,1.95,7.58,3.11,15.4,4.96,23.32,5.82,17.43,1.9,35.35-.96,52.36-5.47,24.15-6.41,46.86-17.68,67.11-32.24,22.04-15.84,40.08-36.72,56.6-58.06.62-.8,1.27-1.58,1.91-2.37.2-.12.36-.31.45-.55.29-.35.57-.72.87-1.07.22-.27.08-.55-.14-.65-.16-.07-.35-.05-.49.15-.11.15-.21.3-.32.45l-.05-.18c-.94-3.48-4.16-6.65-6.48-9.14-.4-.43-.8-.84-1.2-1.26-4.06-4.2-8.49-8.01-13.36-11.25-.1-.07-.19-.13-.29-.2-5.21-3.43-11.24-7.07-17.13-9.22h-.03c-2.78-1.03-7.25-3.07-10.2-1.54-.02-.16-.04-.32-.05-.48-.31-2.71-.73-5.39-1.21-8.02.44-.1.83-.56.54-1.07-3.63-6.51-3.26-14.65-3.16-21.87.1-7.18-.81-14.37-1.91-21.45-1.18-7.61-3.12-15.01-6.06-22.12-3.09-7.47-7.78-13.73-12.64-20.1-1.76-2.3-3.54-4.6-5.35-6.9-1.14-1.45-2.29-2.9-3.46-4.33-.26-.31-.52-.63-.78-.94-.19-.23-.39-.46-.58-.69-.48-.56-.96-1.13-1.44-1.69h0c-5.25-6.03-10.98-11.6-17.68-15.96-3.39-2.21-6.84-4.32-10.25-6.5-.24-.15-.48-.31-.72-.46-.56-.36-1.11-.73-1.67-1.09-.86-.57-1.73-1.13-2.58-1.72-2.81-1.92-6.91-4.52-9.59-7.61-.75-1.76-1.72-3.46-2.97-5.07-.19-.24-.39-.46-.59-.7-7.37-8.83-19.55-12.88-30.63-14.36-4.51-.6-8.99-.84-13.47-1.01-8.76-.33-17.46-.37-26.13-2.15-1.96-.4-3.92-.89-5.87-1.5-5.39-1.67-10.55-3.95-15.63-6.45-8.23-4.05-16.23-8.69-24.63-12.24-.91-.38-1.83-.74-2.74-1.1C251.61.36,224.44-2.12,198.08,1.72c-24.18,3.53-47.87,15.28-66.48,30.9-2.49,2.09-4.72,4.47-6.94,6.85-.32.35-.65.69-.97,1.04l-.05.06c-.62.67-1.24,1.34-1.87,1.99l.07.07c.51-.49,1.04-.96,1.56-1.44l.22-.2.18-.17c17.7-16.3,38.92-27.83,61.99-34.6,26.3-7.72,57.23-6.06,83.05,2.49,14.2,4.7,26.79,12.64,40.23,19.02,12.26,5.81,24.69,7.76,38.15,7.94,14.63.2,30.29.73,42.66,9.69,6.83,4.95,10.11,12.11,11.08,19.89.01.25.03.51.04.76,0-.15,0-.3,0-.45.37,3.14.38,6.38.09,9.62h.1c.39-6.36.55-12.94-1.54-18.88,4.59,5.74,12.46,9.74,18.11,13.34,4.34,2.77,9.03,5.4,12.76,8.99,6.74,6.48,12.72,13.58,18.44,20.97,5.55,7.19,11.03,14.29,14.79,22.61,3.51,7.75,5.54,16.21,7.03,24.55,1.39,7.81,2.02,15.55,2.12,23.46.07,5.37-.08,11.01,1.68,16.13-.04.11-.06.23-.03.37,2.59,12.56,3.46,25.94-.33,38.35-3.5,11.46-11.77,20.76-20.91,28.16-18.19,14.74-40.47,19.65-63.09,13.9,1.07-1.84,2.08-3.72,3.03-5.61,4.43-8.82,7.7-19.02,7.8-28.96.08-8.96-5.48-16.64-12.72-21.35-6.46-4.2-15.16-6.06-22.72-4.31-9.42,2.17-7.1,11.66-3.54,17.87.61,1.06,2.21.17,1.65-.91-.99-1.96-1.81-3.97-2.19-5.87.35-5.46,7.79-6.89,13.23-5.62,3.33,1.22,6.22,3.59,8.4,7.38,4.39,7.64,4.07,15.51,3.08,23.93-.09.78-.14,1.57-.18,2.35-.86,1.76-2,3.35-3.29,4.99-1.17-6.21-7.56-11.81-12.27-14.92-5.88-3.88-12.64-6.88-19.64-8.09.12-.05.24-.13.33-.28,7.68-12.52,10.46-28.93,6.41-42.81,11.91-11.42,34.71-2.69,48.21.99,21.62,5.89,45.69,8.55,67.46,2.15.5-.15.3-.93-.2-.79-23.95,7.04-49.23,3.01-72.87-3.33-12.31-3.3-31.98-9.38-42.64.82-.79-2.67-1.85-5.23-3.16-7.66,16.35-13.84,38.35-15.28,58.99-15.69,10.19-.2,19.9-1.1,29.74-3.78,5.03-1.37,14.33-3.96,15.1-10.24.04-.33-.48-.47-.62-.18-4.08,7.82-14.18,9.33-22.05,11.19-11.6,2.73-23.66,1.28-35.41,2.47-8.73.89-17.5,1.67-25.96,4.13-7.65,2.23-14.19,6.45-19.89,11.91-2.3-4.21-5.4-8-9.38-11.11,6.25-6.88,13.77-12.38,20.58-18.69,7.19-6.67,13.75-14.8,18.83-23.18,5.66-9.34,10.44-18.78,13.48-29.31,1.7-5.9,2.61-11.88,3.01-17.91-.5,6.03-1.59,12.02-3.19,17.85-2.89,10.55-8.14,19.8-13.62,29.16-4.95,8.46-11.76,16.29-18.83,23.04-6.74,6.44-14.38,11.81-20.69,18.71-1.77-1.34-3.7-2.57-5.81-3.63-19.87-10.02-52.19-1.45-62.27,19.05-1.85-2.37-5.11-6.22-8.38-6.19l-.08-.05c.25-.16.52-.29.81-.37v-.13c-.55-.11-1.04-.04-1.47.16-.31-.04-.63.15-.73.47l-.03.08c-2.22,2.28-2.16,9.05-2.12,11.13.19,8.9,2.91,16.9,6.95,24.69-1.42-1.19-2.75-2.54-3.89-4.15-4.88-6.9-8.24-16.04-5.83-24.42l-.12-.05c-5.35,10.92-.48,24.14,6.33,33.28,4.2,5.65,9.5,10.53,13.51,16.27,1.91,2.73,2.93,5.83,4.35,8.8.79,1.65,1.33,4.46,3.01,5.49.25.15.5.26.74.33-.6.4-.95,1.11-.78,1.98.75,3.94,2.17,7.79,3.32,11.62,1.32,4.41,2.1,9,3.63,13.36.43,1.23,1.79,1.36,2.58.39,1.08-1.34,2.06-2.73,2.9-4.18-.17,1.39-.47,2.77-.96,4.14-.44,1.22-.98,2.32-1.48,3.41-1.69-2.16-3.83-3.94-5.86-5.86-2.06-1.95-4.54-3.93-6.21-6.24-2.14-2.97-3.84-6.22-5.83-9.29-3.94-6.09-7.92-12.01-10.94-18.63-1.18-2.6-2.09-5.26-2.93-7.99-1.15-3.68-2.53-7.14-3.83-10.74-1.02-2.83-2.37-5.84-3.15-8.7-1.02-3.75-3.32-6.71-4.14-10.52-1.54-7.16,4.33-15.86,8.17-21.42.09-.13-.1-.26-.21-.17-1.72,1.45-3.37,2.98-4.93,4.6.25-.5.5-1,.75-1.5l-.09-.2c2.08-1.89,4.17-3.7,6.21-5.43l-.07-.07c-8.44,7.16-17.05,13.7-22.62,23.15.22-5.84-2.77-11.83-5.26-16.88-3.7-7.49-9.16-14.44-15.79-19.55-.3-.23-.59-.48-.89-.7l-.05.08c.62.46,1.21.95,1.79,1.46,5.26,4.6,8.98,11.03,11.99,17.22,2.95,6.05,7.4,14.76,5.33,21.57-.01-.11-.05-.21-.11-.28l-.18-.13c-.21-.1-.49-.08-.68.18-.75,1.03-1.53,2.02-2.34,2.97l-.07-.16c-6.27-14-13.86-27.48-24.08-38.81-3.43-3.8-7.16-7.36-11.24-10.62-15.56-12.44-34.57-21.3-54.44-23.43l.19-.07c.87-.33,1.75-.65,2.64-.93,1.75-.56,4.27-.69,5.63-1.96.28-.26.26-.6.08-.85l-.12-.13c9.39,4.77,19.38,8.51,29.08,12.39,17.82,7.13,33.36,16.62,46.7,30.57l.1-.09c-10.28-11.97-22.35-21.65-36.87-28.01-15.12-6.62-30.85-11.98-45.23-20.2-14.01-8.01-25.5-19.3-29.66-35.24-3.42-13.11-1.63-27.64,2.22-40.64.38-1.28.77-2.55,1.19-3.79l-.09-.03c-5.35,13.04-7.58,26.82-5.39,40.87,1.21,7.72,4.2,14.52,8.45,20.51,4,5.64,9.12,10.57,14.94,14.84.98.72,1.97,1.41,2.98,2.08-3.69,2.04-7.46,4.27-10.91,6.65-2.25,1.55-5.15,1.99-7.17,3.93-.11.11-.17.24-.18.36-8.07.87-16.11,2.29-24.13,3.19-10.87,1.23-21.84,1.27-32.77,1.69-1.46.05-2.91.11-4.37.19-7.06.35-13.95,1.08-20.74,2.5-3.83.8-7.63,1.8-11.4,3.09-8.62,2.93-16.6,7.19-24.33,11.93l-.11.03-.02.05c-.62.38-1.23.76-1.84,1.15l.08-.18c.18-.42.38-.84.62-1.24l-.08-.05c-.14.21-.25.42-.37.63-.2.34-.39.69-.56,1.04-.28.18-.56.35-.84.53l-.07-.09c-1.44-1.65-2.89-3.29-4.43-4.86l-.1.09c1.39,1.65,2.71,3.37,3.99,5.1l.07.09-.17.11-.03.06.09.06.2-.11c.17.23.34.46.5.69l.1.13c-1.82,5.95.73,12.44,3.23,18.1,4.67,10.58,11.37,20.01,15.56,30.84l.16.18.18.05c-.07.67-.13,1.34-.19,2.01-.61,6.49-.93,13.01-1.07,19.52-.05,2.03-.06,4.06-.06,6.09M54.9,355.67c.98,1.8,2.01,3.57,3.1,5.31M22.54,235.13c.03,8.66.38,17.3.57,25.96.1,4.22.19,8.44.36,12.65-.17.06-.32.19-.39.38M23.09,278.86c.04-.11.07-.22.11-.34,0,.15,0,.31.02.46l.04.08c.07.07.2.08.23-.04.03-.18.07-.36.1-.55.03-.19.07-.37.1-.56.29,4.96.75,9.92,1.55,14.85,3.32,20.44,17.92,36.82,25.99,55.41.78,1.8,1.64,3.58,2.54,5.34-.19.04-.39.11-.57.25M272.57,309.68c20.39,15.74,43.88,31.93,53.06,57.13,8.83,24.26,2.29,49.37-11.55,70.31-13.35,20.19-34.11,38.59-56.96,47.11-11.17,4.17-22.86,4.84-34.37,3.08,3.2-1.47,6.08-3.8,9.06-5.64-3.32,1.53-5.96,4.02-9.09,5.64-3.48-.53-6.94-1.29-10.37-2.23h-.01c-3.96-3.44-3.12-9.21-3.21-13.94-.09-5.22-1.42-10.29-2.84-15.27-1.75-6.16-3.01-11.99-3.33-18.43-.23-4.6.12-10.2-1.38-14.65,3,.13,6.01.14,9.04-.07,12.59-.86,24.86-5.3,36.65-9.49,2.18-.77,4.35-1.52,6.51-2.29-6.79,10.05-17.08,16.24-26.49,23.54-5.7,4.42-10.51,9.19-14.16,14.9,10.33-15.33,30.93-22.7,41.09-38.59,6.62-2.33,13.12-4.78,19.24-8.26-3.87,14.33-6.2,29.45-13.43,42.55-5.79,10.49-10.63,23.42-20.9,30.42l.07.12c10.17-6.52,15.35-18.96,20.94-29.16,7.64-13.95,10.17-29.07,13.92-44.26,1.01-.59,2.01-1.2,3-1.85,8.22-5.42,14.79-13,19.52-21.59.33-.6,0-1.18-.48-1.43.36-8.19-4.93-15.11-9.99-21.06-3.09-3.62-7.39-6.19-11.2-9.14l.05-.22c-1.71-8.6-4.34-16.95-8.49-24.69-4.28-7.98-9.65-15.35-14.25-23.14-6.16-10.42-9.67-21.93-10.81-33.74.72,9.7,2.94,19.2,7.43,28.52,4.12,8.55,9.8,16.28,14.7,24.38,5.35,8.84,8.78,18.34,10.82,28.45-1.76-1.41-3.39-2.92-4.72-4.68-.24-.76-.5-1.52-.78-2.28-1.88-5.1-4.54-9.83-7.36-14.47-5.57-9.17-12.57-17.38-18.24-26.5-12.12-19.48-16.22-48.65-2.8-68.54.66,2.23,1.4,4.43,2.2,6.57,1.83,4.92,3.86,9.95,6.14,14.93-2.8,11.39-4.07,21.64.63,32.79,4.49,10.64,14.25,18.32,23.13,25.17ZM325.17,244.38c4.2-2.58,8.12-5.23,12.87-5.78-5.23,1.4-9.98,4.02-13.23,7.71-.26.3-.51.61-.75.92.34-.96.71-1.91,1.12-2.85ZM371.31,266.52c.05.29.09.58.14.86.71,4.02-1.52,8.47-4.91,12.31,2.46-3.79,4.05-8.46,4.77-13.17ZM346.28,239.46h.01c8.57.09,17.16,3.75,21.25,10.7l.14.26c1.13,2.53,1.83,5.36,2.36,8.18.03.39.06.79.07,1.18-8.84-5.83-18.97-10.14-26.18-18.1.58-.89,1.25-1.83,1.72-2.23.21,0,.41,0,.62,0ZM343.88,241.78c7.39,8.58,17.04,13.25,26.13,19.72l.11.05c-.27,10.22-6.06,21.39-15.1,24.02-.48.14-.94.25-1.37.34-.74-1.05-1.66-1.98-2.81-2.69-1.51-.93-3.59-2.25-5.61-3.11-.72-5.64,2-13.71,4.52-17.28.7-.99-.29-1.97-1.24-1.9-.17-.11-.37-.15-.59-.06-.37.14-.72.3-1.06.46-.93-.72-2.27-.89-3.38.18-2.03,1.94-3.13,4.45-4.25,6.98-1.83,2.74-3.34,5.78-5.09,8.55,0-6.66.63-13.24,2.31-19.72.9-3.46,2.28-6.76,3.94-9.92.72-1.36,1.59-2.64,2.43-3.94.18-.28.59-.96,1.07-1.69ZM354.96,288.24c-.05-.1-.1-.2-.15-.31.52-.08,1.02-.19,1.51-.32-.46.23-.91.43-1.36.62ZM382.19,276.16c1.23-1.95,2.34-3.97,3.39-5.85,2.71-4.84,4.96-9.93,7.76-14.7.53-.9,1.11-1.73,1.69-2.56-2.85,8.24-7.3,16.14-12.84,23.11ZM361.29,215.07c.09-.99.38-1.91.92-2.71.64-.18,1.28-.34,1.92-.48-1.39.83-2.33,1.92-2.84,3.19ZM385.61,252.93c-.2,1.31-.54,2.61-1.11,3.89-.42.93-.86,1.85-1.32,2.76.09-1.14.1-2.27.05-3.4.9-1.09,1.69-2.17,2.39-3.24ZM364.45,234.53c-4.07-1.43-8.29-2.35-12.08-2.91-5.81-.87-11.3-.99-16.6,1.76-3.57,1.85-6.45,4.28-8.77,7.31,2.11-3.7,4.83-6.85,8.29-8.97.65.54,1.54.74,2.42.2,1-.62,1.79-1.43,2.5-2.32,1.43-.39,2.96-.62,4.59-.68,6.76-.24,13.67,2.42,19.66,5.61ZM273.72,178.99c-1.21-1.26-2.52-2.46-3.96-3.6,1.44.72,2.77,2.07,3.96,3.6ZM268.95,175.06c-.15,0-.29.03-.43.09-.09-.09-.19-.17-.29-.25.24.04.48.09.72.17ZM267.71,198.34c-.46-1.47-1.27-5.01-1.78-8.93.6,2.77,1.4,5.5,1.95,8.29.62,3.13,1.97,6.3,3.35,9.35-1.39-2.75-2.55-5.64-3.51-8.7ZM291.46,245.77l-.11.23-.18-.03c.1-.06.19-.12.29-.2ZM302.53,270.44c.2-1.59.3-3.19.31-4.78,1.01-2.76,1.43-5.71.96-8.83-.46-3.06-2.15-5.61-4.1-7.93-1.27-1.51-3.25-2.08-5.24-2.43-.38-.17-.78-.32-1.19-.46.81-1.83,1.1-3.65,1-5.44.47-1.62.69-3.13.66-3.84-.19-3.94-2.12-7.56-4.62-10.74-1.95-10.33-3.38-20.59-6.4-30.77-1.5-5.06-3.98-9.65-7.17-13.83,10.99-19.49,41.33-27.45,61.11-18.29,2.07.96,3.96,2.09,5.68,3.34l-.04.05c-.23.26.14.65.37.39l.12-.12c4.03,3.03,7.09,6.82,9.31,11.07l-.25.24.09.1.23-.2c1.3,2.51,2.31,5.18,3.04,7.96-.1.11-.21.22-.3.33l.09.1c.08-.1.17-.18.25-.27,3.48,13.47.53,29.31-6.56,40.86-.23.37-.08.73.19.94-1.35-.21-2.71-.35-4.07-.42-1.57-.08-3.05.03-4.45.26.52-.77,1.04-1.54,1.63-2.27,2.18-2.7,3.8-5.21,5.11-8.45,2.68-6.61,3.18-14.38,2.65-21.42-.83-11.04-5.65-22.28-15.79-27.66-.15-.08-.29.13-.14.23,9.72,6.72,12.53,18.79,12.32,30.01-.12,6.25-1.47,12.85-4.03,18.55-2.06,4.59-9.48,7.79-8.99,13.17.02.2.06.39.12.58-6.3,4.05-10.18,11.65-12.16,19.59-2.27,4.43-2.75,9.62-2.37,14.61.33,4.29,2.21,12.14,8.06,10.71.49-.12.56-.94.02-1.04-5.75-1.08-5.84-7.89-5.7-12.61.17-5.61,1.26-10.28,5.01-14.64,4.16-4.83,10.66-7.31,17.36-7.59-9.78,10.04-11.64,25.07-11.19,38.62-.97,1.45-2.02,2.8-3.23,3.98-1.84,1.5-4.02,1.14-6.05,2.24-1.3.7-2.65,1.47-4.03,2.05-2.81.22-5.74.01-8.33-.14-.84-.05-1.84-.1-2.92-.18-1.55-.67-3.06-1.36-4.52-2.07-1.09-.53-2.09-1.2-3.08-1.9-.16-.74-.42-1.46-.8-2.15-.28-.6-.6-1.16-.95-1.71,1.01-2.57,2.63-4.96,2.99-7.78ZM243.22,200.24c3.47-7.21,9.31-13.57,15.42-19.21-6.74,6.94-13.56,12.83-15.99,22.67-1.09,4.43-1.17,9.23-.23,13.78v.12c-.68,9.19,1.98,17.41,5.7,25.67,3.72,8.26,8.67,16.61,14.56,23.48,2.5,2.92,5.57,5.04,8.25,7.73,2.97,2.99,5.69,6.17,8.57,9.25,2.56,2.74,6.38,6.82,10.25,7.53,1.19.24,2.39.44,3.6.59.58-.03,1.03-.07,1.37-.1,1.74.88,3.52,1.67,5.25,2.59,11.31,6,25.88,6.83,38.32,2.95,3.13,2.5,7.23,3.73,10.92,2.49,2.43-.81,4.93-2.47,5.86-4.99,1.43-.31,2.79-.74,3.84-1.08,3.31-1.08,6.02-2.87,8.36-5.07,2.55-1.18,5-2.61,7.21-4.07-5.12,4.86-10.81,8.97-16.81,12.03-22.36,11.4-51.06,7.23-72.74-3.86-11.42-5.84-19.76-15.98-26.28-26.76-2.76-4.56-5.35-9.34-7.74-14.24.64-.24.6-1.3-.19-1.29-.14,0-.29,0-.43,0-2.88-6.02-5.45-12.19-7.58-18.35-3.67-10.6-4.44-21.56.53-31.88ZM240,201.53c-.09.51.18.9.57,1.1-3.69,8.54-2.83,17.8-.4,26.54h-.27s-.16-.07-.16-.07c-.67-.2-1.04.61-.72,1.05-12.88,17.84-10.28,44.31-1.11,63.24,5.09,10.52,12.79,19.6,19.34,29.21,3.51,5.15,6.67,10.57,9.14,16.29,1.46,3.37,2.55,6.87,3.31,10.45.5,2.38.9,4.68,2.25,6.73.44.67,1.63.31,1.37-.54-1.05-3.53-1.84-7.09-2.81-10.61,2.26,2.71,5.2,4.97,8.14,7.22,7.34,5.63,16.23,15.36,16.69,25.12-.19.07-.36.21-.48.45-4.71,9.7-11.6,17.39-20.51,23.33.12-.47.23-.94.35-1.41.07-.25-.32-.36-.39-.11-.18.63-.36,1.27-.53,1.91-.19.12-.36.26-.55.38-5.9,3.76-12.4,6.45-19.03,8.76l-.16.04h0c-4.45,1.56-8.95,2.95-13.38,4.38-12.77,4.13-25.4,6.64-38.87,5.94-12.86-.67-25.52-3.22-38.36-4.12-13.12-.92-25.68-2.04-38.25-6.2-10.62-3.52-20.64-8.85-30.11-14.76-1.63-1.02-3.25-2.06-4.85-3.13,0-.29-.1-.57-.41-.77-4.79-3.17-9.29-6.8-13.5-10.78,1.27-22.02,10.34-41.82,23.36-58.98l-.08.22.1-.25c1.33-1.75,2.7-3.47,4.1-5.16.1.04.2.08.3.14l.05-.08c-.11-.06-.19-.11-.28-.15,5.71-6.87,12.02-13.29,18.67-19.21,12.64-11.26,26.55-21.02,40.63-30.36,15.25-10.12,31.16-19.58,44.71-31.98.2-.18-.08-.46-.28-.29-26.15,21.91-56.73,37.6-82.8,59.62l-.1-.02c-7.3,1.19-14.86,3.64-21.91,5.86-5.75,1.81-10.16,5.4-12.78,10.82l.11.07c3.28-6.36,8.76-9.38,15.5-11.08,6.13-1.54,12.21-3.76,18.42-5-1.47,1.25-2.93,2.51-4.37,3.81-5.98,5.39-11.64,11.16-16.81,17.32l-.15-.03h-.01c-.16.26-.32.53-.47.79-4.16,5.04-7.99,10.34-11.4,15.93.02-.12.05-.24.06-.37h-.09c-.01.18-.04.35-.06.53-.87,1.43-1.72,2.87-2.53,4.33-.45.8-.87,1.61-1.29,2.42-4.48,4.07-11.55,6.57-14.3,11.91-.16.31.28.58.46.28,3.09-5.01,9.37-7.71,13.62-11.78-6.55,12.83-9.66,26.33-10.46,40.62-6.21-5.9-11.72-12.59-16.35-19.79,0-.32-.21-.63-.5-.79-2.9-4.6-5.46-9.4-7.61-14.34-8.19-18.81-22.22-34.61-25.61-55.35-1.69-10.34-1.65-20.92-1.9-31.36-.26-10.61-.68-21.2-.51-31.82.2-12.82,1.27-25.91,3.73-38.67.46.14.92.28,1.38.41.51.14.71-.6.22-.78-.48-.18-.95-.35-1.43-.51.65-3.29,1.39-6.55,2.24-9.79,5.28.62,11.77.2,11.93-4.64.02-.5-.61-.61-.87-.25-1.82,2.53-5.6,3.27-9.48,3.05.01-.09-.02-.18-.13-.2-.28-.05-.56-.11-.85-.16,1.23-4.42,2.67-8.78,4.33-13.04.1-.08.21-.16.32-.24l.14.07.05-.12-.07-.04c7.76-5.75,16.53-10.87,26.25-11.98,10.87-1.25,21.47,3.87,30.3,9.66,9.38,6.16,17.54,14.03,26.02,21.32,8.33,7.16,16.63,14.41,25.13,21.37,15.7,12.85,33.57,23.48,54.54,22.14,14.45-.92,29.28-6.38,38.42-17.61.19,0,.38.03.58.03.56,0,.61-.78.15-.91,1.24-1.62,2.37-3.36,3.36-5.22ZM35.02,162.53c.06-.14.11-.29.16-.43l.2-.13c.28-.18.6-.31.91-.45-.41.35-.82.71-1.23,1.07l-.04-.06ZM34.99,162.32v-.02s.01-.01.01-.01v.03ZM133.94,128.84c4-2.01,7.66-4.46,11.53-6.69.24-.14.4-.32.5-.51,2.94,1.85,5.97,3.55,9.07,5.13l-.09-.03c-1.78-.22-4.03,1.16-5.68,1.84-1.46.61-2.84,1.24-4.11,2.11-2.83-.24-5.68-.35-8.54-.31-2.66.04-5.32.2-7.97.43,1.77-.62,3.61-1.13,5.29-1.97ZM9.81,153.11c4.66-1.18,9.24-1.21,13.79-.68-4.62-.63-9.24-.64-13.76.67,7.31-3.78,14.82-7.21,22.58-9.91,10.87-3.78,22.11-4.89,33.54-5.36,11.21-.46,22.42-.4,33.61-1.34,11.25-.94,22.39-2.95,33.68-3.5,24.32-1.18,46.22,8.48,65.6,22.43,16.71,12.03,28.43,30.98,37.35,49.13-.61.7-1.23,1.38-1.87,2.03-12.19-1.22-22.74-11.58-33.03-17.28-12.12-6.71-25.26-11.06-37.97-16.43-13.72-5.79-27.42-11.67-41.81-15.61-13-3.55-25.61-8.65-39.31-8.3v.13c14.81-.13,28.41,6,42.43,9.9,14.34,3.98,28.15,10.58,41.84,16.32,13.79,5.79,27.66,10.67,40.55,18.43,8.4,5.06,16.48,12.34,26.46,13.66-2.29,2.24-4.75,4.26-7.37,6.04-7.86,1.46-15.8.23-23.64-1.34-4.9-.98-9.8-1.6-14.63-2.95-5.62-1.57-11.08-3.62-16.73-5.07-10.57-2.73-20.22-7.2-29.75-12.49-9.31-5.16-19.03-9.63-27.06-16.78l-.1.09c7.55,6.86,16.7,11.44,25.57,16.32,10.02,5.52,19.94,10.84,31.12,13.59,5.66,1.39,11.15,3.42,16.74,5.04,5.64,1.64,11.45,2.29,17.2,3.37,6.22,1.16,13.32,2.33,19.78,1.19-11.26,7.12-25.03,10.09-38.58,8.52-23.05-2.68-41.46-20.69-58.2-35.09-14.79-12.73-29.67-28.18-47.98-35.68-13.38-5.49-25.83-2.79-36.8,4.29-6.56-1.41-12.99-3.3-19.45-4.05,6.41.87,12.83,2.93,18.99,4.35-2.07,1.37-4.1,2.89-6.06,4.54.04-.2-.18-.45-.4-.31-.51.33-1.74,1.08-1.27,1.63l-.08.21c-.19.17-.37.33-.56.5l.09.1c.11-.08.22-.16.32-.24-1.72,4.27-3.27,8.52-4.63,12.82-3.55-.71-6.93-1.8-10.14-3.23-3.62-2.68-6.66-7-9.43-10.25-1.73-2.03-3.43-4.08-5.16-6.1.09-.37.21-.74.34-1.1,1.39-.75,2.79-1.49,4.19-2.22ZM29.24,176.24c-3-.43-5.84-1.34-7.65-2.34-.32-.18-.64-.38-.95-.58,2.7,1.23,5.55,2.22,8.6,2.92ZM4.93,156.03l-.2-.23c.12-.06.24-.13.36-.19l.18-.1c-.09.2-.19.4-.27.61l-.08-.09ZM11.55,179.47c-3-5.74-7.67-14.85-6.47-22.08,2.71,3.73,5.32,7.53,8.27,11.07.47.57.94,1.12,1.42,1.67-.27-.16-.55-.32-.82-.49.28.18.57.36.86.54,2.66,3.04,5.54,5.73,9.48,7,1.11.36,2.94.79,5.02,1.06-.95,3.15-1.78,6.33-2.51,9.56-4.52-1.54-9.03-2.75-13.22-5.28-.15-.09-.29.13-.14.23,4.02,2.66,8.55,4.52,13.16,5.96-.4,1.81-.77,3.64-1.1,5.49-.63,3.59-1.12,7.19-1.52,10.81-2.52-9.21-8.05-17.14-12.44-25.54Z"/><path d="M328.17,170.68c5.37,3.69,9,9.57,10.68,15.78,2.29,8.48-2.08,14.97-6.32,21.87-3.55,5.78-7.62,10.79-10.52,17-2.87,6.12-4.49,12.95-5.9,19.54-1.29,6.02-2.7,12.62-2.17,18.8.49,5.71,2.97,11.59,5.92,16.43.6.99,2.11.4,1.87-.74-.75-3.5-2.11-6.75-3.14-10.17-1.34-4.45-1.18-8.63-.5-13.17,1.22-8.06,3.26-15.93,7.2-23.1,3.7-6.75,8.71-12.67,12.8-19.18,4.15-6.6,4.93-13.35,4.88-20.96-.07-10.8-7.74-21.58-17.61-25.74-12.22-5.14-24.14-.63-35.48,4.63l.06.12c12.53-5.22,26.02-9.51,38.24-1.1Z"/><path d="M387.73,314.43c16.73-2.66,32.9-10.85,47.71-18.69,15.55-8.22,30.24-18.03,43.91-29.07,6.94-5.61,13.45-11.71,20.34-17.39,7.33-6.04,15.59-10.63,23.07-16.38.11-.08.15-.18.14-.28.12-.02.23-.04.34-.06.43-.06.26-.71-.16-.65-31.36,4.42-55.13,27.12-80.06,44.57-22.54,15.78-56.43,37.94-84.52,23.17l-.07.11c24.34,14.47,55.42-2.98,76.07-16.58,14.14-9.31,27.41-19.77,41.11-29.69,13.35-9.67,28.71-17.65,45.07-20.51-6.43,3.07-12.34,8.07-17.84,12.46-6.5,5.19-12.51,10.93-18.76,16.4-13.17,11.54-27.77,21.49-42.95,30.17-14.42,8.25-29.87,15.85-45.9,20.38-10.15,2.87-20.65,3.53-30.83,1.98,7.49,1.27,15.2,1.35,23.32.06Z"/><path d="M342.38,307.13c6.97,3.67,14.4,6.08,22.03,7.24-7.5-1.27-14.79-3.73-22.03-7.24Z"/><path d="M340.04,305.86l-.05.08c.8.41,1.6.81,2.4,1.19-.79-.41-1.57-.83-2.35-1.27Z"/><path d="M406.59,275.81c-4.9.12-9.76-.29-14.47-1.28,4.67,1.18,9.57,1.53,14.47,1.28Z"/><path d="M390.09,273.97l-.03.09c.68.17,1.37.33,2.06.47-.68-.17-1.36-.36-2.04-.57Z"/><path d="M480.79,239.71c10.65-5.74,23.42-11.64,35.61-12.5.34-.03.36-.56,0-.54-10.04.51-19.26,5-28.37,8.87-10.64,4.52-20.76,11.03-29.81,18.17-9.83,7.76-19.23,13.95-31.18,17.99-6.41,2.17-13.44,3.75-20.45,4.12,15.33-.37,30.98-5.9,43-14.75,10.25-7.55,19.94-15.28,31.2-21.35Z"/><path d="M486.61,216.29c.6-.04,1.2-.09,1.81-.12-.63.02-1.24.03-1.81.03v.09Z"/><path d="M494.55,215.93c-2.08.01-4.14.11-6.13.24,1.86-.05,3.95-.16,6.13-.24Z"/><path d="M400.99,66.01c.06,3.58,0,7.15-.23,10.69.29-3.55.38-7.12.23-10.69Z"/><path d="M294.71,160.89c.13.42.8.24.65-.17-6.98-18.81-5.54-39.88-3.97-59.53.37-4.62.84-9.44,1.55-14.31-.59,3.77-1.05,7.57-1.42,11.36-2.05,20.69-3.18,42.58,3.2,62.65Z"/><path d="M310.08,45.64c.3-.31.6-.61.91-.91l-.07-.07c-.3.32-.56.66-.85.98Z"/><path d="M310.08,45.64c-10.54,10.71-14.96,26.17-17.13,41.25,2.35-15.04,6.88-29.57,17.13-41.25Z"/><path d="M137.11,41.2c-.16.76-.27,1.51-.36,2.26.11-.74.25-1.49.45-2.24l-.09-.03Z"/><path d="M189.62,102.39c15.94,8.1,32.25,15.49,45.81,27.41,12.78,11.23,24.62,25.48,31.36,41.14.12.28.6.09.5-.2-4.86-13.89-15.57-25.16-25.47-35.66-11.25-11.93-25.2-20.03-39.71-27.37-14.64-7.4-29.74-14.18-42.84-24.2-6.87-5.25-11.82-11.87-16.41-19.11-2.33-3.68-4.41-7.68-5.5-11.87,1.93,8.33,7.31,16.05,12.58,22.62,9.96,12.41,25.81,20.18,39.69,27.23Z"/><path d="M137.35,52.54c-.69-2.96-.94-5.99-.6-9.08-.46,3.09-.18,6.13.6,9.08Z"/><path d="M185.44,16.6l-.07.12c19.68,15.11,23.63,40.01,30.98,62.2,3.8,11.46,9.88,20.97,17.16,30.54,9.12,12.01,16.87,25.05,26.26,36.84.14.18.46-.05.32-.24-8.57-11.79-16.25-24.18-25.04-35.8-4.59-6.07-9.1-12.18-12.75-18.88-3.01-5.52-4.8-11.78-6.64-17.77-2-6.52-3.87-13.16-6.06-19.63l.08-.19c-2.43-5.35.39-10.36,2.34-15.33,1.81-4.62,1.42-9.64,1.37-14.49h-.1c.37,6.61-.44,12.24-3,18.34-1.27,3.02-2.13,5.92-1.64,8.92-4.75-13.33-11.15-25.75-23.2-34.63Z"/><path d="M236.58,16.92c.35.53.68,1.06,1.01,1.59-.31-.54-.61-1.09-.93-1.63l-.08.05Z"/><path d="M243.4,30.16c-1.55-3.97-3.46-7.86-5.82-11.65,2.18,3.82,4.13,7.69,5.82,11.65Z"/><path d="M276.49,100.43c-2.18,21.39-5.59,44.85,3.14,65.26.2.48.92.08.71-.39-10.01-22.17-5.02-47.85-3.03-71.15,1.03-12,1.07-24.04,1.99-36.04-.17,1.59-.34,3.11-.46,4.48-1.07,12.6-1.06,25.24-2.34,37.83Z"/><path d="M279.3,58.12c.83-7.58,1.77-17.01-2.06-23.03,3.56,6.83,2.62,15.64,2.06,23.01h0Z"/><path d="M276.64,34.18c.22.29.4.6.6.9-.17-.32-.33-.65-.52-.96l-.08.06Z"/><path d="M370.42,64.54c4.31-6.2,11.09-15.45,19.58-15v-.13c-6.56-.47-11.87,4.95-15.86,9.47-5.75,6.5-10.51,14.43-14.23,22.2-7.49,15.65-11.13,32.78-16.34,49.28,4.33-13.06,7.87-26.37,12.75-39.33,3.58-9.51,8.31-18.16,14.09-26.49Z"/><path d="M336.09,150c3-6.35,5.37-12.95,7.49-19.64-2.2,6.64-4.6,13.21-7.49,19.64Z"/><path d="M334.19,153.85l.08.05c.63-1.29,1.23-2.59,1.82-3.9-.61,1.29-1.23,2.58-1.9,3.85Z"/><path d="M324.6,70.35c.57-1.35,1.14-2.7,1.7-4.05l-.09-.03c-.51,1.37-1.06,2.73-1.61,4.08Z"/><path d="M306.09,152.3c6.09-12.43,5.85-25.59,6.12-39.11.27-13.5,5.08-25.62,10.23-37.75-4.35,9.95-9.04,19.65-10.62,30.63-2.27,15.68.75,31-6.3,45.88-.18.39.38.74.57.35Z"/><path d="M153.53,41.8c1.15,1.86,2.2,3.7,3.14,5.56-.9-1.89-1.94-3.75-3.14-5.56Z"/><path d="M152.29,40c.43.6.84,1.2,1.24,1.8-.38-.62-.76-1.23-1.16-1.85l-.08.05Z"/><path d="M167.09,88.06c.22.15.42-.19.21-.34-7.6-5.48-4.87-17.37-5.92-25.46-.72-5.52-2.38-10.28-4.71-14.89,3.2,6.7,4.66,13.86,4.81,21.66.13,6.71-.64,14.73,5.61,19.04Z"/><path d="M128.37,67.87c2.51,2.35,5.15,5.07,8.35,6.45,5.29,2.29,12.33,2.71,16.26,7.29.17.2.46-.08.29-.28-2.53-2.89-5.58-3.74-9.2-4.77-6.27-1.77-10.8-4.37-15.61-8.79l-.1.09Z"/><path d="M200.41,109.03c.24.09.35-.29.11-.39-12.5-5.08-26.42-3.99-39.31-7.69-6.88-1.98-14.81-3.8-20.89-7.65-3.19-2.02-5.63-5.06-7.48-8.29-.83-1.45-1.77-2.57-3.2-3.45l-.07.11c2.64,1.67,3.08,4.42,5,6.59,1.73,1.96,3.5,3.73,5.58,5.31,4.82,3.65,11.88,5.06,17.52,6.89,6.22,2.01,12.35,3.57,18.84,4.33,8.14.96,16.16,1.25,23.9,4.23Z"/><path d="M206.09,123.54c1.53.12,3.06.23,4.59.36.26.02.26-.37,0-.4-1.03-.14-2.05-.27-3.08-.4,2.77-.77,5.6-1.37,8.53-1.54.17-.01.18-.28,0-.27-2.96.2-5.86.9-8.74,1.78-17.05-2.01-33.93-1.59-49-11.41l-.07.12c14.25,9.5,31.07,10.49,47.64,11.74-.62.2-1.24.41-1.86.62.66-.21,1.32-.41,1.99-.61Z"/><path d="M182.43,127.52c.59.11,1.16.19,1.74.26-.57-.09-1.14-.2-1.71-.35l-.03.09Z"/><path d="M184.17,127.77c6.86,1.11,13.37-1.4,19.93-3.63-6.52,2.05-12.91,4.42-19.93,3.63Z"/><path d="M257.35,156.71c.12.24.46.04.36-.2-10.63-23.29-40.13-12.96-58.44-24.17l-.07.11c18.26,11.56,46.62,1.75,58.15,24.25Z"/><path d="M175.07,38.52c9.84,9.7,11.7,24.32,13.07,37.44.91,8.74,2.17,18.63,9.83,24.15.21.15.42-.19.21-.34-9.51-6.79-9.17-20.2-10.52-30.62-1.43-11.01-4.31-22.71-12.49-30.71l-.1.09Z"/><path d="M195.85,98.71c1.82,2.3,3.93,4.37,5.63,6.75.23.32.67,0,.43-.32-1.79-2.35-3.97-4.37-5.87-6.62-.11-.13-.3.05-.2.19Z"/><path d="M228.04,26.88l-.13.03c2.26,6.74,5.09,12.89,9.55,18.48,4.67,5.87,9.75,10.31,12.5,17.04.73,8.87,1,17.87,1.71,26.84,1.04,13.3,3.19,26.52,6.4,39.46,1.6,6.46,3.49,12.95,5.89,19.15,2.46,6.35,6.09,12.15,8.25,18.62.08.25.48.15.39-.1-1.82-5.46-4.57-10.52-6.97-15.73-3.22-6.97-5.21-14.64-7.11-22.06-3.71-14.56-5.73-29.54-6.69-44.51-.42-6.51-.64-13.02-1.09-19.51.17.54.32,1.1.46,1.67.1.43.73.26.65-.17-.3-1.6-.75-3.09-1.33-4.5-.35-4.37-.84-8.72-1.6-13.06-1.13-6.47-3.04-12.53-5.53-18.38,3.72,9.53,5.38,19.51,6.33,29.68-1.95-3.91-4.84-7.23-8.02-10.55-6.42-6.71-10.58-13.67-13.67-22.41Z"/><path d="M282.52,56.84c1.72-7.97,11.77-19.65,4.42-27.25l-.1.09c7.17,7.66-3.19,18.94-4.71,27.04-.05.25.33.37.39.11Z"/><path d="M352,167.73l.05.08c8.24-5.86,16.71-11.44,24.78-17.52,3.56-2.69,6.84-5.75,10.35-8.5,4.67-3.66,9.72-5.64,15.25-7.58,15.29-5.36,31.48-12.82,39.54-27.7.08-.15-.15-.29-.23-.14-8.78,16.05-26.84,23.17-43.3,28.67-7.73,2.59-13.57,7.87-19.76,12.97-8.41,6.93-17.67,13.63-26.69,19.73Z"/><path d="M454.4,224.69c-6.65-5.07-14.51-8.2-22.51-10.41-10.74-2.97-22.12-2.39-32.83-5.88-4.96-1.62-11.01-4.26-16.71-4.46,6,.38,12.9,3.82,17.56,5.48,8.84,3.16,18.18,3.84,27.43,5.04,7.55.98,15.38,4.33,21.9,8.12,3.4,1.98,6.45,4.46,9.01,7.44,3.13,3.65,3.72,7.57,4.67,12.06.08.37.71.42.78.01,1.1-6.77-4.27-13.57-9.3-17.4Z"/><path d="M376.21,205c.39-.21.8-.37,1.22-.52-.43.12-.85.26-1.26.44l.04.08Z"/><path d="M377.43,204.48c1.58-.46,3.24-.61,4.92-.55-1.74-.11-3.41.03-4.92.55Z"/><path d="M84.75,143.59c19.02.84,37.92,3.13,56.54,7.12,18.52,3.97,36.7,10.01,53.42,18.97,8.03,4.31,15.31,9.57,21.8,15.98,2.99,2.96,5.68,6.2,8.23,9.54,2.55,3.36,4.42,7.23,7.2,10.38.31.35.94.01.8-.44-2.21-7.31-8.65-14.19-13.79-19.64-5.89-6.23-12.8-11.33-20.19-15.62-17.07-9.93-36.13-15.95-55.34-20.09-28.6-6.16-58.96-9.08-88.33-5.87,9.88-.83,19.86-.77,29.67-.33Z"/><path d="M30.97,148.15c.83-.24,1.66-.45,2.5-.67-.84.19-1.68.38-2.52.58l.02.09Z"/><path d="M33.47,147.48c7.12-1.59,14.34-2.77,21.62-3.56-7.3.62-14.55,1.73-21.62,3.56Z"/><path d="M5.16,162.9c.77.68,1.55,1.33,2.33,1.97-.77-.66-1.52-1.33-2.26-2.04l-.07.07Z"/><path d="M13.96,169.64c-2.21-1.43-4.35-3.03-6.47-4.77,2.06,1.77,4.22,3.37,6.47,4.77Z"/><path d="M135.02,350.77c6.14-6.51,11.93-13.63,16.34-21.44,4.49-7.95,7.97-16.43,12.39-24.42,4.84-8.74,11.13-16.83,16.94-24.94,12.29-17.18,24.2-34.57,38.05-50.55.17-.2-.11-.49-.28-.29-12.37,14.23-22.99,29.62-34.05,44.84-5.62,7.73-10.96,15.65-16.56,23.38-5.7,7.87-9.53,16.98-13.83,25.64-8.22,16.53-20.95,28.76-33.89,41.56-4.41,4.36-8.09,9.46-12.2,14.11-2.9,3.28-6.32,7.02-10.27,9.52,8.07-4.72,14.07-13.45,20.08-20.17,5.41-6.05,11.7-11.31,17.28-17.22Z"/><path d="M90.85,390.96c.36-.09.71-.2,1.07-.31-.36.08-.72.16-1.09.21l.02.09Z"/><path d="M97.66,388.17c-1.8,1.05-3.71,1.9-5.75,2.48,2.03-.46,3.94-1.34,5.75-2.48Z"/><path d="M176.15,351.48c-1.76,2.95-3.69,5.91-5.74,8.83,2.07-2.87,4-5.82,5.74-8.83Z"/><path d="M192.19,298.66c4.48-19.88,13.34-37.49,22.88-55.34.08-.15-.15-.29-.23-.14-8.1,15.22-15.94,30.21-20.69,46.87-4.81,16.89-6.38,34.56-12.88,50.99-.69,1.76-1.48,3.5-2.32,5.23.21-1.63.46-3.25.81-4.87l-.09-.03c-.37,1.73-.64,3.46-.86,5.19-.82,1.66-1.71,3.31-2.65,4.94.52-.88,1.04-1.75,1.54-2.63.38-.66.73-1.34,1.08-2.01-.67,5.77-.57,11.57-.36,17.41h.1c-.21-5.93-.31-11.8.4-17.65,7.64-14.75,9.69-31.95,13.29-47.94Z"/><path d="M123.57,397.58c-4.49,1.57-9.09,2.77-13.67,3.57,4.62-.55,9.23-1.88,13.67-3.57Z"/><path d="M108.52,401.4c.46-.07.92-.16,1.38-.24-.46.06-.93.11-1.39.15v.09Z"/><path d="M188.61,408.24c4.3-1.81,7.95-4.9,11.05-8.58-3.09,3.51-6.7,6.49-11.05,8.58Z"/><path d="M219.85,342.89c-.76,12.63-3.75,24.86-8.61,36.47-6.97,5.15-16.72,6.38-21.54,14.13-.14.22.19.42.34.21,5.18-7.21,14.28-8.81,21.02-13.94-.52,1.24-1.06,2.48-1.63,3.7-2.48,5.36-5.65,11.29-9.78,16.19,3.01-3.41,5.55-7.32,7.81-11.39,1.64-2.95,3.12-6.03,4.45-9.19.57-.47,1.12-.97,1.64-1.5l-.09-.1c-.45.45-.92.86-1.41,1.26,3.39-8.08,5.79-16.71,7.01-25.2,2.25-15.67.96-31.21-.05-46.92-1.04-16.15-.92-31.72,2.09-47.67l-.13-.04c-7.43,27.4.55,56.17-1.13,83.97Z"/><path d="M186.99,408.97c.55-.23,1.09-.47,1.62-.73-.54.23-1.09.45-1.66.64l.04.09Z"/><path d="M252.32,345.45c-.63-.35-1.27-.72-1.9-1.1l-.05.08c.65.35,1.3.69,1.95,1.02.95,1.68,1.8,3.41,2.51,5.23,2.66,6.83,3.17,14.57,3.05,21.96l-.21-.17-.06.07.27.19c-.02,1.35-.07,2.7-.12,4.02-.4,9.21-2.04,19.77-8.04,27.13l.09.1c6.66-7.94,8.9-19.54,8.85-30.73l.13.08-.13-.09c-.03-5.89-.69-11.67-1.68-16.73-.76-3.88-2.26-7.41-4.13-10.77,3.3,1.79,6.61,3.25,9.73,4.9-3.11-1.75-6.43-3.26-9.74-4.93-2.89-5.18-6.66-9.95-9.99-14.87-7.77-11.49-10.8-24.65-11.4-38.35-.01-.26-.41-.27-.4,0,.42,9.93,2.06,19.61,5.93,28.81,3.72,8.83,10.7,15.87,15.35,24.16Z"/><path d="M203.26,227.63c-15.97,9.5-34.08,13.45-51.81,18.29-16.51,4.51-32.86,9.63-48.16,17.4-.34.17-.67.36-1.01.53-7.02-1.84-14.17-3.75-21.28-3.64,6.83.1,13.69,2.42,20.47,4.06-7.95,4.24-15.3,9.48-21.83,15.6,1.08-2.05,2.84-3.77,5.69-4.97l-.05-.08c-3.02,1.37-5.04,3.24-6.32,5.69-4.24,4.05-8.14,8.47-11.63,13.24-7.98,10.92-15.86,24.98-13.93,39l.13-.03c-1.91-15.09,7.38-29.75,16.21-41.16,2.64-3.41,5.5-6.59,8.54-9.55-.47,1.25-.8,2.63-1,4.15-.48,3.66.11,7.51.05,11.19-.1,5.36-1.64,10.14-4.65,14.56-.1.14.13.28.23.14,3.52-4.99,4.8-10.24,5.02-16.28.17-4.86-.48-10.17,1.06-14.42,6.98-6.66,14.9-12.21,23.42-16.85,1.32.31,2.63.58,3.94.81.25.04.37-.32.11-.39-1.09-.27-2.19-.55-3.28-.84,2.1-1.13,4.24-2.21,6.41-3.23,15.4-7.26,31.93-11.8,48.31-16.27,15.7-4.28,31.4-8.28,45.5-16.72.15-.09.02-.33-.13-.24Z"/><path d="M70.61,196.5c8.35,1.83,16.38,7.35,24.08,10.97,7.73,3.63,15.89,6.72,24.45,7.5.15.01.19-.24.04-.26-11.35-2.12-21.32-6.37-31.64-11.44-7.17-3.52-14.12-7.29-22.18-8-6.63-.58-14.09.38-20.31,3.35,7.99-3.47,18.18-3.74,25.55-2.12Z"/><path d="M45.05,198.62c-5.18,2.25-9.43,5.84-11.39,11.13,2.3-5.14,6.45-8.77,11.39-11.13Z"/><path d="M33.66,209.75c-.18.4-.35.81-.51,1.23l.09.03c.12-.43.26-.85.42-1.25Z"/><path d="M69.34,171.6c-5.51-2.81-11.37-4.33-17.65-3.12,6.4-.95,12.21.48,17.65,3.12Z"/><path d="M51.68,168.47c-.66.1-1.33.21-2.01.37l.02.09c.67-.19,1.33-.33,1.98-.46Z"/><path d="M92.69,187.94c-7.46-5.39-14.98-12.28-23.35-16.34,8.41,4.29,16.03,11.56,23.14,16.69.21.15.42-.19.21-.34Z"/><path d="M220.7,347.52c0,.23.01.46.02.69h.1c0-.23-.02-.46-.02-.69h-.09Z"/><path d="M221.3,364.12c2.2,13.88,14.12,26.56,5.61,40.58l.08.05c8.5-14-3.4-26.76-5.6-40.66l-.09.02Z"/><path d="M255.92,361.49h-.13c.08,3.98-.12,7.81-1,11.71-.91,4.08-3.34,7.62-5.28,11.26-2.37,4.45-3.07,9.02-2.85,14.02,0,.17.27.18.27,0,.04-7.31,2.06-12.51,5.53-18.81,3.12-5.66,3.63-11.84,3.45-18.19Z"/><path d="M275.9,389.82c-.02.43.66.44.67,0,.33-7.29-4.83-10.04-10.34-12.59,5.24,2.7,9.97,5.9,9.66,12.58Z"/><path d="M258.78,373.31c2.21,1.56,4.87,2.72,7.46,3.92-2.54-1.31-5.19-2.5-7.46-3.92Z"/><path d="M274.35,361.61c.13.23.49.03.35-.2-3.13-5.32-7.42-8.28-12.14-10.78,4.66,2.62,8.84,5.8,11.79,10.98Z"/><path d="M176.98,363.61c.26,14.51-2.7,27.73-17.49,33.51-.4.16-.25.8.16.65,15.35-5.34,18.07-19.49,17.46-34.17h-.13Z"/><path d="M152.42,375.3c-4.72,1.88-9.98,1.91-14.29,4.81-.14.09-.02.33.13.24,4.14-2.47,8.94-2.08,13.25-3.99,2.62-1.16,4.95-2.09,7.3-3.78,1.74-1.26,3.33-2.67,5.05-3.94-3.7,4.33-7.62,8.39-11.53,12.06-5.86,5.5-12.59,9.53-19.79,12.99-2.88,1.38-5.88,2.73-8.97,3.9,8.66-3.02,16.94-7.39,24.06-12.82,6.01-4.58,11.68-10.3,16.77-16.51.34-.25.68-.5,1.04-.73l-.05-.08c-.26.18-.51.35-.77.53,2.03-2.49,3.96-5.05,5.79-7.65-1.98,2.75-4.09,5.41-6.27,7.99-3.82,2.63-7.32,5.24-11.72,6.99Z"/><path d="M142.02,367.71c3.47-6.66,2.81-12.49.64-19.49l-.13.03c2.08,6.88,2.73,12.75-.74,19.31-.08.15.15.29.23.14Z"/><path d="M96.49,341.05c.3,4.67,1.53,8.57.46,13.29-.98,4.31-3.92,7.96-5.03,12.28-.04.17.21.24.26.08,1.85-6.86,6.84-12.13,5.73-19.67-.72-4.9-1.31-9.51-.86-14.47.1-1.06,1.09-6.08,2.53-10.14-2.48,5.85-3.52,12.11-3.09,18.65Z"/><path d="M70.55,288.47c-8.17,2.72-18.83,5.76-23.95,13.23-.2.29.27.57.46.28,4.9-7.39,15.58-10.61,23.53-13.38l-.03-.13Z"/><path d="M61.83,238.17c4.02-1.38,8.12-2.5,12.14-3.42-.95.74-1.73,1.64-2.35,2.65.65-.98,1.43-1.87,2.37-2.65,3.9-.89,7.72-1.6,11.31-2.17,4.34-.69,8.7-1.08,13.08-1.28,1.03.44,2.13.79,3.3,1.03.34.07.49-.44.15-.52-.64-.16-1.27-.36-1.89-.58,10.66-.38,21.39.3,32,.53,11.9.25,26.15.73,36.82-5.36.23-.13.04-.46-.2-.35-13.95,6.43-30.16,5.33-45.16,4.83-8.24-.28-16.36-.38-24.47-.02-6.06-2.54-11.03-7.94-16.14-11.89-5.59-4.33-12.2-5.19-19.06-4.97v.13c9.09-.12,15.48,2.49,22.47,8.17,3.79,3.08,7.05,6.57,11.31,8.62-6.03.31-12.06.87-18.13,1.84-4.84.78-10.06,1.99-15.24,3.7,4.32-2.92,9.26-4.85,14.06-4.86v-.13c-5.29-.04-10.2,2.1-14.49,5.14-15.94,5.33-31.47,15.35-34.76,31.96l.13.04c3.39-16.01,17.25-25.03,32.4-30.3-1.51,1.23-2.94,2.55-4.26,3.91-7.39,7.56-8.6,18.87-15.82,26.52-.12.13.06.32.19.2,6.12-6.28,8.17-15.02,12.68-22.34,1.86-3.02,4.5-5.95,7.56-8.41Z"/><path d="M64.26,265.27c2.8-3.99,3.48-8.8,4.08-13.53.56-4.42.77-10.27,3.28-14.34-5.02,7.59-2.14,20.27-7.48,27.8l.11.07Z"/><path d="M49.59,242c-2.25,1.5-4.74,2.79-7.37,3.56,2.74-.69,5.39-1.92,7.37-3.56Z"/><path d="M50.23,241.57l-.06-.08c-.19.17-.38.34-.58.51.21-.14.43-.29.64-.43Z"/><path d="M35.84,246.12v.13c2.16.2,4.31-.09,6.38-.69-2.18.55-4.41.76-6.38.56Z"/><path d="M67.44,200.14l-.06-.12c-4.48,1.96-7.24,5.84-10.63,9.21-4.82,4.81-11.67,5.16-17.84,7.02l.03.13c5.49-1.61,11.25-2.03,16.1-5.31,4.64-3.14,7.31-8.26,12.4-10.94Z"/><path d="M80.41,198.34c.15.09.28-.13.14-.23-10.42-7.22-18.18-16.35-31.78-16.12v.13c6.95-.03,12.68,1.98,18.26,6.03,4.57,3.32,8.56,7.18,13.38,10.18Z"/><path d="M61.62,174.72c.4.5.83.96,1.27,1.39-.43-.45-.83-.92-1.19-1.44l-.08.06Z"/><path d="M65.97,178.47c-1.1-.64-2.13-1.43-3.08-2.36.91.95,1.95,1.74,3.08,2.36Z"/><path d="M65.97,178.47c3.66,2.14,8.06,2.79,12.51,2.74.26,0,.27-.41,0-.4-4.15.14-8.81-.3-12.52-2.33Z"/><path d="M86.18,181.41c-.29-1.1-.74-2.12-1.24-3.11.45,1.03.84,2.08,1.11,3.14l.13-.03Z"/><path d="M81.67,171.89l-.09.04c.12.22.25.45.38.68-.1-.24-.21-.47-.29-.71Z"/><path d="M81.96,172.6c.83,1.98,2.01,3.79,2.98,5.7-.86-1.96-1.95-3.87-2.98-5.7Z"/><path d="M81,260.21c-2.87-.04-5.73.31-8.59,1.28,2.85-.86,5.71-1.23,8.59-1.28Z"/><path d="M70.34,262.29c.69-.31,1.38-.57,2.07-.81-.7.21-1.4.45-2.1.72l.04.09Z"/><path d="M117.21,351.29c4.81-8.23,9.19-16.29,17.38-21.65,7.72-5.06,16.36-7.37,22.97-14.21.3-.31-.16-.8-.46-.49-7.34,7.39-17.24,9.51-25.44,15.42-6.95,5.02-10.71,13.48-14.67,20.79-.08.15.14.29.23.14Z"/><path d="M187.98,306.97c-9.64,9.48-20.04,17.87-25.08,30.83l.13.04c5.24-12.68,15.88-21.03,25.32-30.48.25-.25-.13-.63-.37-.39Z"/><path d="M242.44,239.49c-.11.83-.21,1.65-.3,2.47.13-.82.25-1.64.4-2.46h-.09Z"/><path d="M242.14,241.96c-1.21,7.77-1.48,15.64-.73,23.37-.57-7.66-.21-15.45.73-23.37Z"/><path d="M232.43,481.29c-.21.12-.41.25-.62.38.22-.1.44-.2.67-.3l-.05-.08Z"/><path d="M268.11,408.86c.07-.25-.31-.36-.39-.11-2.77,9.39-8.93,16.96-15.31,24.18-5.65,6.39-11.14,12.97-17.01,19.16-5.29,5.58-10.56,11.1-15.58,16.93-2.2,2.55-4.47,5.35-5.74,8.49,2.07-4.91,7.09-9.26,10.35-12.73,5.7-6.06,11.62-11.96,17.03-18.28,9.78-11.42,22.48-22.71,26.65-37.63Z"/><path d="M213.08,482.72h.1c-.08-.81-.03-1.61.09-2.4-.14.78-.21,1.58-.19,2.4Z"/><path d="M208.21,460.08c.21-.77.44-1.51.69-2.24-.27.73-.54,1.46-.78,2.22l.09.03Z"/><path d="M213.13,449.39c-1.73,2.57-3.18,5.35-4.24,8.44,1.15-3.04,2.57-5.84,4.24-8.44Z"/><path d="M290.14,393.51c6.6,12.78,7.14,29.61,4.24,43.51-1.39,6.66-3.56,13.2-6.48,19.34-2.74,5.75-6.5,12.34-12.96,14.34-.16.05-.1.31.07.26,12.27-3.31,17.16-20.94,19.72-31.6,3.48-14.5,3.28-32.82-4.47-45.91l-.12.07Z"/><path d="M318.31,393.42c1.44,6.71,1.71,13.6,1.17,20.43-.71,8.88-5.01,17.43-9.19,25.11-.16.3.28.58.46.28,7.72-12.6,11.17-25.43,9.58-40.18-1.31-12.18-5.99-23.84-12.47-34.16-7.17-11.42-17.81-20.8-27.52-30.75,7.01,7.58,14.43,14.89,20.83,23.05,8.3,10.58,14.32,23.07,17.14,36.22Z"/><path d="M259.35,303.23l-.09.02c.24.61.48,1.2.73,1.8-.22-.6-.44-1.21-.64-1.82Z"/><path d="M259.99,305.05c4.13,11.3,11.88,20.42,20.35,29.1-8.08-8.75-15.61-17.87-20.35-29.1Z"/></g></svg>