<?xml version="1.0" encoding="UTF-8"?>
<svg id="_圖層_2" xmlns="http://www.w3.org/2000/svg" version="1.1" viewBox="0 0 527.5 490.2">
  <!-- Generator: Adobe Illustrator 29.4.0, SVG Export Plug-In . SVG Version: 2.1.0 Build 152)  -->
  <defs>
    <style>
      .st0 {
        fill: #fff;
        stroke: #fff;
        stroke-miterlimit: 10;
        stroke-width: 2px;
      }
    </style>
  </defs>
  <g id="Layer_1">
    <path class="st0" d="M19.6,175.6c-3.7-1.5-9.5-4.6-10.1-8.9h0c1,4.2,5.4,9.6,10.1,9.7.5,0,.5-.6.1-.8h0Z"/>
    <path class="st0" d="M58.9,362.5h0c4.4,6.7,9.6,12.9,15.3,18.6,0,.7.8,1.6,1.9,2.6h0c0,.5,0,1,0,1.5h0c0-.5,0-.9,0-1.4h0c1.4,1.2,3.3,2.4,4.2,3,2.7,2.4,5.6,4.6,8.4,6.7.1,0,.2.1.3.1.2,0,.3,0,.4,0h0c4.7,3.2,9.5,6.1,14.4,8.9,9.5,5.3,19.7,9.6,30.2,12.4,6.5,1.7,13.1,2.5,19.8,3,4.4.4,8.9.6,13.3,1,1.6.1,3.2.3,4.8.4,6.3.7,12.6,1.7,18.9,2.5.6,0,1.1.1,1.7.2.5,0,1,.1,1.5.2.9.1,1.9.2,2.8.3.2,0,.4,0,.6,0,1.1,0,2.2.2,3.4.2h.1c-1,5.1-.5,11.2-.2,16.2.4,6.5,2.1,12.6,3.9,18.8,1.9,6.3,2.4,12.4,2.6,18.8.1,3.2.9,6.3,3.1,8.6-.5.6-.5,1.7.5,2,2.2.6,4.3,1.1,6.5,1.5h0c0,0,0,.1,0,.1h.2s.2,0,.2,0c16.9,3.2,33.3,1,48.6-6.6,2.7-1.3,5.3-2.8,7.9-4.4,19.4-12.2,36.2-29.3,47-49.5,10.4-19.5,13.6-42.6,5.1-63.4-5.4-13.3-14.7-24-25.1-33.6-7.5-6.8-15.5-13.1-23.3-19.2-3.5-2.8-7.1-5.6-10.6-8.5-4.8-4.1-9.4-8.5-13-13.7-.5-.8-1-1.5-1.5-2.3-1.4-2.2-2.4-4.6-3.2-7.1-1.2-3.6-1.8-7.3-1.9-11.1,0-2,.5-11.8,1.7-15.9,1.6,3.3,3.2,6.5,5,9.7,0,.1.1.2.2.3.2.4.4.8.7,1.1,5.4,9.3,12,17.8,20.1,24.3,2.6,2.7,5.3,5.3,8.1,7.8-2.4-2.3-4.8-4.6-7.1-7.1,1.1.9,2.3,1.7,3.5,2.5,18.3,12.2,44.3,16.3,65.5,11.3,19.7-4.6,34.7-19.3,44.6-36.4,10.6,2.8,20.6,4.5,31.6,2.7,11.6-2,22.1-7.7,31.4-14.7,9.8-7.3,17.8-16.8,22-28.3,3.4-9.1,3.7-19.2,2.6-28.9,3.5-1.3,8.3,2.3,11.4,3.7,5.2,2.4,10,5.6,14.9,8.5,4.1,2.4,7.7,5.8,11,9.2-5.3-3.6-13.5-3.7-20.5-3.5,9.1,0,18.5,1.4,24.3,8.7.2.2.6,0,.4-.3-.2-.4-.4-.8-.6-1.1,2.5,2.5,5.3,5.3,5.9,8.5,0,.4.3.6.6.7-2.2,3.1-4.5,6.2-6.9,9.3-4.5,5.8-9.3,11.5-14.3,16.9-27.1,29.4-60.7,52.2-99.5,63.6-24.9,7.3-51.3,10.4-76.3,2-16.4-5.5-31.4-15.5-44.4-27.4.9.8,1.8,1.6,2.7,2.5,9.4,8.6,19.6,16.2,31.3,22,.7.3,1.3.7,2,1,.2,0,.4.2.6.3,1.5.7,2.9,1.3,4.5,2,7.6,3.1,15.4,5,23.3,5.8,17.4,1.9,35.4-1,52.4-5.5,24.1-6.4,46.9-17.7,67.1-32.2,22-15.8,40.1-36.7,56.6-58.1.6-.8,1.3-1.6,1.9-2.4.2-.1.4-.3.5-.6.3-.4.6-.7.9-1.1.2-.3,0-.6-.1-.6-.2,0-.3,0-.5.1-.1.1-.2.3-.3.4v-.2c-1-3.5-4.2-6.6-6.5-9.1-.4-.4-.8-.8-1.2-1.3-4.1-4.2-8.5-8-13.4-11.2-.1,0-.2-.1-.3-.2-5.2-3.4-11.2-7.1-17.1-9.2h0c-2.8-1-7.2-3.1-10.2-1.5,0-.2,0-.3,0-.5-.3-2.7-.7-5.4-1.2-8,.4-.1.8-.6.5-1.1-3.6-6.5-3.3-14.6-3.2-21.9.1-7.2-.8-14.4-1.9-21.4-1.2-7.6-3.1-15-6.1-22.1-3.1-7.5-7.8-13.7-12.6-20.1-1.8-2.3-3.5-4.6-5.4-6.9-1.1-1.4-2.3-2.9-3.5-4.3-.3-.3-.5-.6-.8-.9-.2-.2-.4-.5-.6-.7-.5-.6-1-1.1-1.4-1.7h0c-5.2-6-11-11.6-17.7-16-3.4-2.2-6.8-4.3-10.2-6.5-.2-.2-.5-.3-.7-.5-.6-.4-1.1-.7-1.7-1.1-.9-.6-1.7-1.1-2.6-1.7-2.8-1.9-6.9-4.5-9.6-7.6-.8-1.8-1.7-3.5-3-5.1-.2-.2-.4-.5-.6-.7-7.4-8.8-19.5-12.9-30.6-14.4-4.5-.6-9-.8-13.5-1-8.8-.3-17.5-.4-26.1-2.1-2-.4-3.9-.9-5.9-1.5-5.4-1.7-10.5-4-15.6-6.4-8.2-4-16.2-8.7-24.6-12.2-.9-.4-1.8-.7-2.7-1.1C251.6.4,224.4-2.1,198.1,1.7c-24.2,3.5-47.9,15.3-66.5,30.9-2.5,2.1-4.7,4.5-6.9,6.8-.3.3-.7.7-1,1h0c-.6.7-1.2,1.4-1.9,2.1h0c.5-.4,1-.9,1.6-1.4l.2-.2.2-.2c17.7-16.3,38.9-27.8,62-34.6,26.3-7.7,57.2-6.1,83.1,2.5,14.2,4.7,26.8,12.6,40.2,19,12.3,5.8,24.7,7.8,38.1,7.9,14.6.2,30.3.7,42.7,9.7,6.8,5,10.1,12.1,11.1,19.9,0,.2,0,.5,0,.8v-.4c.4,3.1.4,6.4,0,9.6h.1c.4-6.4.5-12.9-1.5-18.9,4.6,5.7,12.5,9.7,18.1,13.3,4.3,2.8,9,5.4,12.8,9,6.7,6.5,12.7,13.6,18.4,21,5.5,7.2,11,14.3,14.8,22.6,3.5,7.8,5.5,16.2,7,24.5,1.4,7.8,2,15.6,2.1,23.5,0,5.4,0,11,1.7,16.1,0,.1,0,.2,0,.4,2.6,12.6,3.5,25.9-.3,38.4-3.5,11.5-11.8,20.8-20.9,28.2-18.2,14.7-40.5,19.6-63.1,13.9,1.1-1.8,2.1-3.7,3-5.6,4.4-8.8,7.7-19,7.8-29,0-9-5.5-16.6-12.7-21.4-6.5-4.2-15.2-6.1-22.7-4.3-9.4,2.2-7.1,11.7-3.5,17.9.6,1.1,2.2.2,1.6-.9-1-2-1.8-4-2.2-5.9.4-5.5,7.8-6.9,13.2-5.6,3.3,1.2,6.2,3.6,8.4,7.4,4.4,7.6,4.1,15.5,3.1,23.9,0,.8-.1,1.6-.2,2.4-.9,1.8-2,3.4-3.3,5-1.2-6.2-7.6-11.8-12.3-14.9-5.9-3.9-12.6-6.9-19.6-8.1.1,0,.2-.1.3-.3,7.7-12.5,10.5-28.9,6.4-42.8,11.9-11.4,34.7-2.7,48.2,1,21.6,5.9,45.7,8.6,67.5,2.1.5-.1.3-.9-.2-.8-24,7-49.2,3-72.9-3.3-12.3-3.3-32-9.4-42.6.8-.8-2.7-1.9-5.2-3.2-7.7,16.4-13.8,38.4-15.3,59-15.7,10.2-.2,19.9-1.1,29.7-3.8,5-1.4,14.3-4,15.1-10.2,0-.3-.5-.5-.6-.2-4.1,7.8-14.2,9.3-22,11.2-11.6,2.7-23.7,1.3-35.4,2.5-8.7.9-17.5,1.7-26,4.1-7.6,2.2-14.2,6.4-19.9,11.9-2.3-4.2-5.4-8-9.4-11.1,6.2-6.9,13.8-12.4,20.6-18.7,7.2-6.7,13.8-14.8,18.8-23.2,5.7-9.3,10.4-18.8,13.5-29.3,1.7-5.9,2.6-11.9,3-17.9-.5,6-1.6,12-3.2,17.8-2.9,10.6-8.1,19.8-13.6,29.2-5,8.5-11.8,16.3-18.8,23-6.7,6.4-14.4,11.8-20.7,18.7-1.8-1.3-3.7-2.6-5.8-3.6-19.9-10-52.2-1.4-62.3,19.1-1.9-2.4-5.1-6.2-8.4-6.2h0c.2-.2.5-.3.8-.4h0c-.5-.2-1-.2-1.5,0-.3,0-.6.1-.7.5h0c-2.2,2.4-2.2,9.1-2.1,11.2.2,8.9,2.9,16.9,7,24.7-1.4-1.2-2.8-2.5-3.9-4.1-4.9-6.9-8.2-16-5.8-24.4h-.1c-5.4,10.9-.5,24.1,6.3,33.2,4.2,5.6,9.5,10.5,13.5,16.3,1.9,2.7,2.9,5.8,4.4,8.8.8,1.6,1.3,4.5,3,5.5.2.1.5.3.7.3-.6.4-1,1.1-.8,2,.8,3.9,2.2,7.8,3.3,11.6,1.3,4.4,2.1,9,3.6,13.4.4,1.2,1.8,1.4,2.6.4,1.1-1.3,2.1-2.7,2.9-4.2-.2,1.4-.5,2.8-1,4.1-.4,1.2-1,2.3-1.5,3.4-1.7-2.2-3.8-3.9-5.9-5.9-2.1-2-4.5-3.9-6.2-6.2-2.1-3-3.8-6.2-5.8-9.3-3.9-6.1-7.9-12-10.9-18.6-1.2-2.6-2.1-5.3-2.9-8-1.1-3.7-2.5-7.1-3.8-10.7-1-2.8-2.4-5.8-3.1-8.7-1-3.8-3.3-6.7-4.1-10.5-1.5-7.2,4.3-15.9,8.2-21.4,0-.1-.1-.3-.2-.2-1.7,1.4-3.4,3-4.9,4.6l.8-1.5v-.2c2-1.9,4.1-3.7,6.1-5.4h0c-8.4,7.1-17.1,13.6-22.6,23.1.2-5.8-2.8-11.8-5.3-16.9-3.7-7.5-9.2-14.4-15.8-19.6-.3-.2-.6-.5-.9-.7h0c.6.5,1.2,1,1.8,1.5,5.3,4.6,9,11,12,17.2,2.9,6.1,7.4,14.8,5.3,21.6,0-.1,0-.2-.1-.3h-.2c-.2-.2-.5-.2-.7,0-.8,1-1.5,2-2.3,3v-.2c-6.3-14-13.9-27.5-24.2-38.8-3.4-3.8-7.2-7.4-11.2-10.6-15.6-12.4-34.6-21.3-54.4-23.4h.2c.9-.4,1.8-.7,2.6-1,1.8-.6,4.3-.7,5.6-2,.3-.3.3-.6,0-.8h-.1c9.4,4.6,19.4,8.4,29.1,12.3,17.8,7.1,33.4,16.6,46.7,30.6h.1c-10.3-12.1-22.4-21.7-36.9-28.1-15.1-6.6-30.9-12-45.2-20.2-14-8-25.5-19.3-29.7-35.2-3.4-13.1-1.6-27.6,2.2-40.6.4-1.3.8-2.5,1.2-3.8h0c-5.3,13-7.6,26.8-5.4,40.8,1.2,7.7,4.2,14.5,8.4,20.5,4,5.6,9.1,10.6,14.9,14.8,1,.7,2,1.4,3,2.1-3.7,2-7.5,4.3-10.9,6.7-2.2,1.5-5.2,2-7.2,3.9-.1.1-.2.2-.2.4-8.1.9-16.1,2.3-24.1,3.2-10.9,1.2-21.8,1.3-32.8,1.7-1.5,0-2.9.1-4.4.2-7.1.4-14,1.1-20.7,2.5-3.8.8-7.6,1.8-11.4,3.1-8.6,2.9-16.6,7.2-24.3,11.9h-.1s0,0,0,0c-.6.4-1.2.8-1.8,1.1v-.2c.3-.4.5-.8.7-1.2h0c-.1.2-.2.4-.4.6-.2.3-.4.7-.6,1-.3.2-.6.4-.8.5h0c-1.4-1.7-2.9-3.4-4.4-4.9h-.1c1.4,1.7,2.7,3.5,4,5.2h0c0,0-.2.2-.2.2h0c0,0,0,.1,0,.1h.2c.2.1.3.4.5.6h0c-1.8,6.1.7,12.6,3.2,18.2,4.7,10.6,11.4,20,15.6,30.8l.2.2h.2c0,.7-.1,1.4-.2,2.1-.6,6.5-.9,13-1.1,19.5,0,2,0,4.1,0,6.1M54.9,355.7c1,1.8,2,3.6,3.1,5.3M22.5,235.1c0,8.7.4,17.3.6,26,.1,4.2.2,8.4.4,12.6-.2,0-.3.2-.4.4M23.1,278.9c0-.1,0-.2.1-.3,0,.1,0,.3,0,.5h0c0,.1.2.2.2,0,0-.2,0-.4.1-.5s0-.4.1-.6c.3,5,.8,9.9,1.5,14.9,3.3,20.4,17.9,36.8,26,55.4.8,1.8,1.6,3.6,2.5,5.3-.2,0-.4.1-.6.2M272.6,309.7c20.4,15.7,43.9,31.9,53.1,57.1,8.8,24.3,2.3,49.4-11.5,70.3-13.4,20.2-34.1,38.6-57,47.1-11.2,4.2-22.9,4.8-34.4,3.1,3.2-1.5,6.1-3.8,9.1-5.6-3.3,1.5-6,4-9.1,5.6-3.5-.5-6.9-1.3-10.4-2.2h0c-4-3.4-3.1-9.2-3.2-13.9,0-5.2-1.4-10.3-2.8-15.3-1.8-6.2-3-12-3.3-18.4-.2-4.6.1-10.2-1.4-14.6,3,.1,6,.1,9,0,12.6-.9,24.9-5.3,36.6-9.5,2.2-.8,4.4-1.5,6.5-2.3-6.8,10-17.1,16.2-26.5,23.5-5.7,4.4-10.5,9.2-14.2,14.9,10.3-15.3,30.9-22.7,41.1-38.6,6.6-2.3,13.1-4.8,19.2-8.3-3.9,14.3-6.2,29.5-13.4,42.5-5.8,10.5-10.6,23.4-20.9,30.4h0c10.2-6.4,15.4-18.8,20.9-29,7.6-14,10.2-29.1,13.9-44.3,1-.6,2-1.2,3-1.9,8.2-5.4,14.8-13,19.5-21.6.3-.6,0-1.2-.5-1.4.4-8.2-4.9-15.1-10-21.1-3.1-3.6-7.4-6.2-11.2-9.1v-.2c-1.7-8.6-4.3-17-8.4-24.7-4.3-8-9.6-15.4-14.2-23.1-6.2-10.4-9.7-21.9-10.8-33.7.7,9.7,2.9,19.2,7.4,28.5,4.1,8.5,9.8,16.3,14.7,24.4,5.4,8.8,8.8,18.3,10.8,28.5-1.8-1.4-3.4-2.9-4.7-4.7-.2-.8-.5-1.5-.8-2.3-1.9-5.1-4.5-9.8-7.4-14.5-5.6-9.2-12.6-17.4-18.2-26.5-12.1-19.5-16.2-48.6-2.8-68.5.7,2.2,1.4,4.4,2.2,6.6,1.8,4.9,3.9,9.9,6.1,14.9-2.8,11.4-4.1,21.6.6,32.8,4.5,10.6,14.2,18.3,23.1,25.2h0ZM325.2,244.4c4.2-2.6,8.1-5.2,12.9-5.8-5.2,1.4-10,4-13.2,7.7-.3.3-.5.6-.8.9.3-1,.7-1.9,1.1-2.9h0ZM371.3,266.5c0,.3,0,.6.1.9.7,4-1.5,8.5-4.9,12.3,2.5-3.8,4-8.5,4.8-13.2h0ZM346.3,239.5h0c8.6,0,17.2,3.8,21.2,10.7v.3c1.3,2.5,2,5.4,2.5,8.2,0,.4,0,.8,0,1.2-8.8-5.8-19-10.1-26.2-18.1.6-.9,1.2-1.8,1.7-2.2h.6ZM343.9,241.8c7.4,8.6,17,13.2,26.1,19.7h.1c-.3,10.3-6.1,21.4-15.1,24.1-.5.1-.9.2-1.4.3-.7-1-1.7-2-2.8-2.7-1.5-.9-3.6-2.2-5.6-3.1-.7-5.6,2-13.7,4.5-17.3.7-1-.3-2-1.2-1.9-.2-.1-.4-.1-.6,0-.4.1-.7.3-1.1.5-.9-.7-2.3-.9-3.4.2-2,1.9-3.1,4.5-4.2,7-1.8,2.7-3.3,5.8-5.1,8.5,0-6.7.6-13.2,2.3-19.7.9-3.5,2.3-6.8,3.9-9.9.7-1.4,1.6-2.6,2.4-3.9.2-.3.6-1,1.1-1.7h0ZM355,288.2c0-.1-.1-.2-.1-.3.5,0,1-.2,1.5-.3-.5.2-.9.4-1.4.6h0ZM382.2,276.2c1.2-2,2.3-4,3.4-5.9,2.7-4.8,5-9.9,7.8-14.7.5-.9,1.1-1.7,1.7-2.6-2.9,8.2-7.3,16.1-12.8,23.1h0ZM361.3,215.1c0-1,.4-1.9.9-2.7.6-.2,1.3-.3,1.9-.5-1.4.8-2.3,1.9-2.8,3.2h0ZM385.6,252.9c-.2,1.3-.5,2.6-1.1,3.9-.4.9-.9,1.9-1.3,2.8,0-1.1.1-2.3,0-3.4.9-1.1,1.7-2.2,2.4-3.2h0ZM364.5,234.5c-4.1-1.4-8.3-2.4-12.1-2.9-5.8-.9-11.3-1-16.6,1.8-3.6,1.9-6.5,4.3-8.8,7.3,2.1-3.7,4.8-6.9,8.3-9,.6.5,1.5.7,2.4.2,1-.6,1.8-1.4,2.5-2.3,1.4-.4,3-.6,4.6-.7,6.8-.2,13.7,2.4,19.7,5.6h0ZM273.7,179c-1.2-1.3-2.5-2.5-4-3.6,1.4.7,2.8,2.1,4,3.6ZM269,175.1c-.1,0-.3,0-.4,0,0,0-.2-.2-.3-.2.2,0,.5,0,.7.2h0ZM267.7,198.3c-.5-1.5-1.3-5-1.8-8.9.6,2.8,1.4,5.5,2,8.3.6,3.1,2,6.3,3.4,9.4-1.4-2.8-2.5-5.6-3.5-8.7h0ZM291.5,245.8v.2c-.1,0-.3,0-.3,0,.1,0,.2-.1.3-.2h0ZM302.5,270.4c.2-1.6.3-3.2.3-4.8,1-2.8,1.4-5.7,1-8.8-.5-3.1-2.1-5.6-4.1-7.9-1.3-1.5-3.2-2.1-5.2-2.4-.4-.2-.8-.3-1.2-.5.8-1.8,1.1-3.6,1-5.4.5-1.6.7-3.1.7-3.8-.2-3.9-2.1-7.6-4.6-10.7-2-10.3-3.4-20.6-6.4-30.8-1.5-5.1-4-9.6-7.2-13.8,11-19.5,41.3-27.4,61.1-18.3,2.1,1,4,2.1,5.7,3.3h0c-.2.3.1.7.4.4h.1c4,2.9,7.1,6.7,9.3,11l-.2.2h0c0,.1.2,0,.2,0,1.3,2.5,2.3,5.2,3,8-.1.1-.2.2-.3.3h0c0,0,.2,0,.2-.2,3.5,13.5.5,29.3-6.6,40.9-.2.4,0,.7.2.9-1.4-.2-2.7-.4-4.1-.4-1.6,0-3,0-4.5.3.5-.8,1-1.5,1.6-2.3,2.2-2.7,3.8-5.2,5.1-8.4,2.7-6.6,3.2-14.4,2.6-21.4-.8-11-5.6-22.3-15.8-27.7-.1,0-.3.1-.1.2,9.7,6.7,12.5,18.8,12.3,30-.1,6.2-1.5,12.9-4,18.6-2.1,4.6-9.5,7.8-9,13.2,0,.2,0,.4.1.6-6.3,4.1-10.2,11.6-12.2,19.6-2.3,4.4-2.8,9.6-2.4,14.6.3,4.3,2.2,12.1,8.1,10.7.5-.1.6-.9,0-1-5.8-1.1-5.8-7.9-5.7-12.6.2-5.6,1.3-10.3,5-14.6,4.2-4.8,10.7-7.3,17.4-7.6-9.8,10-11.6,25.1-11.2,38.6-1,1.5-2,2.8-3.2,4-1.8,1.5-4,1.1-6,2.2-1.3.7-2.6,1.5-4,2-2.8.2-5.7,0-8.3-.1-.8,0-1.8-.1-2.9-.2-1.5-.7-3.1-1.4-4.5-2.1-1.1-.5-2.1-1.2-3.1-1.9-.2-.7-.4-1.5-.8-2.1-.3-.6-.6-1.2-1-1.7,1-2.6,2.6-5,3-7.8h0ZM243.2,200.2c3.5-7.2,9.3-13.6,15.4-19.2-6.7,6.9-13.6,12.8-16,22.7-1.1,4.4-1.2,9.2-.2,13.8h0c-.7,9.3,2,17.5,5.7,25.8s8.7,16.6,14.6,23.5c2.5,2.9,5.6,5,8.2,7.7,3,3,5.7,6.2,8.6,9.2,2.6,2.7,6.4,6.8,10.2,7.5,1.2.2,2.4.4,3.6.6.6,0,1,0,1.4-.1,1.7.9,3.5,1.7,5.2,2.6,11.3,6,25.9,6.8,38.3,3,3.1,2.5,7.2,3.7,10.9,2.5,2.4-.8,4.9-2.5,5.9-5,1.4-.3,2.8-.7,3.8-1.1,3.3-1.1,6-2.9,8.4-5.1,2.5-1.2,5-2.6,7.2-4.1-5.1,4.9-10.8,9-16.8,12-22.4,11.4-51.1,7.2-72.7-3.9-11.4-5.8-19.8-16-26.3-26.8-2.8-4.6-5.4-9.3-7.7-14.2.6-.2.6-1.3-.2-1.3h-.4c-2.9-6-5.4-12.2-7.6-18.4-3.7-10.6-4.4-21.6.5-31.9h0ZM240,201.5c0,.5.2.9.6,1.1-3.7,8.5-2.8,17.8-.4,26.5h-.4c-.7-.3-1,.5-.7,1-12.9,17.8-10.3,44.3-1.1,63.2,5.1,10.5,12.8,19.6,19.3,29.2,3.5,5.1,6.7,10.6,9.1,16.3,1.5,3.4,2.5,6.9,3.3,10.5.5,2.4.9,4.7,2.2,6.7.4.7,1.6.3,1.4-.5-1-3.5-1.8-7.1-2.8-10.6,2.3,2.7,5.2,5,8.1,7.2,7.3,5.6,16.2,15.4,16.7,25.1-.2,0-.4.2-.5.5-4.7,9.7-11.6,17.4-20.5,23.3.1-.5.2-.9.4-1.4,0-.2-.3-.4-.4-.1-.2.6-.4,1.3-.5,1.9-.2.1-.4.3-.5.4-5.9,3.8-12.4,6.5-19,8.8h-.2c-4.4,1.6-8.9,3-13.4,4.4-12.8,4.1-25.4,6.6-38.9,5.9-12.9-.7-25.5-3.2-38.4-4.1-13.1-.9-25.7-2-38.2-6.2-10.6-3.5-20.6-8.9-30.1-14.8-1.6-1-3.2-2.1-4.8-3.1,0-.3,0-.6-.4-.8-4.8-3.2-9.3-6.8-13.5-10.8,1.3-22,10.3-41.8,23.4-59v.2c0,0,0-.2,0-.2,1.3-1.8,2.7-3.5,4.1-5.2,0,0,.2,0,.3.1h0c-.1-.1-.2-.2-.3-.2,5.7-6.9,12-13.3,18.7-19.2,12.6-11.3,26.5-21,40.6-30.4,15.2-10.1,31.2-19.6,44.7-32,.2-.2,0-.5-.3-.3-26.1,21.9-56.7,37.6-82.8,59.6h0c-7.3,1.2-14.9,3.6-21.9,5.8-5.8,1.8-10.2,5.4-12.8,10.8h.1c3.3-6.3,8.8-9.3,15.5-11,6.1-1.5,12.2-3.8,18.4-5-1.5,1.2-2.9,2.5-4.4,3.8-6,5.4-11.6,11.2-16.8,17.3h-.2s0,0,0,0c-.2.3-.3.5-.5.8-4.2,5-8,10.3-11.4,15.9,0-.1,0-.2,0-.4h0c0,.2,0,.4,0,.5-.9,1.4-1.7,2.9-2.5,4.3-.4.8-.9,1.6-1.3,2.4-4.5,4.1-11.6,6.6-14.3,11.9-.2.3.3.6.5.3,3.1-5,9.4-7.7,13.6-11.8-6.6,12.8-9.7,26.3-10.5,40.6-6.2-5.9-11.7-12.6-16.3-19.8,0-.3-.2-.6-.5-.8-2.9-4.6-5.5-9.4-7.6-14.3-8.2-18.8-22.2-34.6-25.6-55.4-1.7-10.3-1.6-20.9-1.9-31.4-.3-10.6-.7-21.2-.5-31.8.2-12.8,1.3-25.9,3.7-38.7.5.1.9.3,1.4.4.5.1.7-.6.2-.8-.5-.2-1-.4-1.4-.5.6-3.3,1.4-6.6,2.2-9.8,5.3.6,11.8.2,11.9-4.6,0-.5-.6-.6-.9-.2-1.8,2.5-5.6,3.3-9.5,3.1,0,0,0-.2-.1-.2-.3,0-.6-.1-.9-.2,1.2-4.4,2.7-8.8,4.3-13,0,0,.2-.2.3-.2h.1c0,0,0,0,0,0h0c7.8-5.8,16.5-10.9,26.2-12,10.9-1.2,21.5,3.9,30.3,9.7,9.4,6.2,17.5,14,26,21.3,8.3,7.2,16.6,14.4,25.1,21.4,15.7,12.9,33.6,23.5,54.5,22.1,14.4-.9,29.3-6.4,38.4-17.6.2,0,.4,0,.6,0,.6,0,.6-.8.1-.9,1.2-1.6,2.4-3.4,3.4-5.2h0ZM35,162.5c0-.1.1-.3.2-.4h.2c.3-.3.6-.4.9-.6-.4.4-.8.7-1.2,1.1h0ZM35,162.3h0s0,0,0,0h0s0,0,0,0ZM133.9,128.8c4-2,7.7-4.5,11.5-6.7.2-.1.4-.3.5-.5,2.9,1.8,6,3.6,9.1,5.1h0c-1.8-.2-4,1.1-5.7,1.8-1.5.6-2.8,1.2-4.1,2.1-2.8-.2-5.7-.4-8.5-.3-2.7,0-5.3.2-8,.4,1.8-.6,3.6-1.1,5.3-2h0ZM9.8,153.1c4.7-1.2,9.2-1.2,13.8-.7-4.6-.6-9.2-.6-13.8.7,7.3-3.8,14.8-7.2,22.6-9.9,10.9-3.8,22.1-4.9,33.5-5.4,11.2-.5,22.4-.4,33.6-1.3,11.2-.9,22.4-2.9,33.7-3.5,24.3-1.2,46.2,8.5,65.6,22.4,16.7,12,28.4,31,37.4,49.1-.6.7-1.2,1.4-1.9,2-12.2-1.2-22.7-11.6-33-17.3-12.1-6.7-25.3-11.1-38-16.4-13.7-5.8-27.4-11.7-41.8-15.6-13-3.6-25.6-8.6-39.3-8.3h0c14.8,0,28.4,6.1,42.4,10,14.3,4,28.2,10.6,41.8,16.3,13.8,5.8,27.7,10.7,40.6,18.4,8.4,5.1,16.5,12.3,26.5,13.7-2.3,2.2-4.8,4.3-7.4,6-7.9,1.5-15.8.2-23.6-1.3-4.9-1-9.8-1.6-14.6-2.9-5.6-1.6-11.1-3.6-16.7-5.1-10.6-2.7-20.2-7.2-29.8-12.5-9.3-5.2-19-9.6-27.1-16.8h0c7.6,6.9,16.7,11.5,25.6,16.4,10,5.5,19.9,10.8,31.1,13.6,5.7,1.4,11.1,3.4,16.7,5,5.6,1.6,11.4,2.3,17.2,3.4,6.2,1.2,13.3,2.3,19.8,1.2-11.3,7.1-25,10.1-38.6,8.5-23.1-2.7-41.5-20.7-58.2-35.1-14.8-12.7-29.7-28.2-48-35.7-13.4-5.5-25.8-2.8-36.8,4.3-6.6-1.4-13-3.3-19.5-4.1,6.4.9,12.8,2.9,19,4.4-2.1,1.4-4.1,2.9-6.1,4.5,0-.2-.2-.4-.4-.3-.5.3-1.7,1.1-1.3,1.6v.2c-.3.2-.5.3-.6.5h0c.1,0,.2,0,.3-.1-1.7,4.3-3.3,8.5-4.6,12.8-3.5-.7-6.9-1.8-10.1-3.2-3.6-2.7-6.7-7-9.4-10.2-1.7-2-3.4-4.1-5.2-6.1,0-.4.2-.7.3-1.1,1.4-.8,2.8-1.5,4.2-2.2h0ZM29.2,176.2c-3-.4-5.8-1.3-7.6-2.3-.3-.2-.6-.4-1-.6,2.7,1.2,5.5,2.2,8.6,2.9ZM4.9,156l-.2-.2c.1,0,.2-.1.4-.2h.2c0,0-.2.3-.3.5h0c0,0,0,0,0,0ZM11.6,179.5c-3-5.7-7.7-14.9-6.5-22.1,2.7,3.7,5.3,7.5,8.3,11.1.5.6.9,1.1,1.4,1.7-.3-.2-.6-.3-.8-.5.3.2.6.4.9.5,2.7,3,5.5,5.7,9.5,7,1.1.4,2.9.8,5,1.1-1,3.1-1.8,6.3-2.5,9.6-4.5-1.5-9-2.8-13.2-5.3-.1,0-.3.1-.1.2,4,2.7,8.6,4.5,13.2,6-.4,1.8-.8,3.6-1.1,5.5-.6,3.6-1.1,7.2-1.5,10.8-2.5-9.2-8.1-17.1-12.4-25.5h0Z"/>
    <path class="st0" d="M328.2,170.7c5.4,3.7,9,9.6,10.7,15.8,2.3,8.5-2.1,15-6.3,21.9-3.5,5.8-7.6,10.8-10.5,17-2.9,6.1-4.5,12.9-5.9,19.5-1.3,6-2.7,12.6-2.2,18.8.5,5.7,3,11.6,5.9,16.4.6,1,2.1.4,1.9-.7-.8-3.5-2.1-6.8-3.1-10.2-1.3-4.5-1.2-8.6-.5-13.2,1.2-8.1,3.3-15.9,7.2-23.1,3.7-6.8,8.7-12.7,12.8-19.2,4.1-6.6,4.9-13.4,4.9-21,0-10.8-7.7-21.6-17.6-25.7-12.2-5.1-24.1-.6-35.5,4.6h0c12.5-5.1,26-9.4,38.2-1h0Z"/>
    <path class="st0" d="M387.7,314.4c16.7-2.7,32.9-10.9,47.7-18.7,15.5-8.2,30.2-18,43.9-29.1,6.9-5.6,13.5-11.7,20.3-17.4,7.3-6,15.6-10.6,23.1-16.4.1,0,.2-.2.1-.3.1,0,.2,0,.3,0,.4,0,.3-.7-.2-.6-31.4,4.4-55.1,27.1-80.1,44.6-22.5,15.8-56.4,37.9-84.5,23.2h0c24.3,14.6,55.4-2.9,76.1-16.5,14.1-9.3,27.4-19.8,41.1-29.7,13.4-9.7,28.7-17.6,45.1-20.5-6.4,3.1-12.3,8.1-17.8,12.5-6.5,5.2-12.5,10.9-18.8,16.4-13.2,11.5-27.8,21.5-43,30.2-14.4,8.2-29.9,15.9-45.9,20.4-10.1,2.9-20.6,3.5-30.8,2,7.5,1.3,15.2,1.4,23.3,0h0Z"/>
    <path class="st0" d="M342.4,307.1c7,3.7,14.4,6.1,22,7.2-7.5-1.3-14.8-3.7-22-7.2Z"/>
    <path class="st0" d="M340,305.9h0c.8.5,1.6.9,2.4,1.3-.8-.4-1.6-.8-2.4-1.3Z"/>
    <path class="st0" d="M406.6,275.8c-4.9.1-9.8-.3-14.5-1.3,4.7,1.2,9.6,1.5,14.5,1.3Z"/>
    <path class="st0" d="M390.1,274h0c.7.3,1.4.4,2.1.6-.7-.2-1.4-.4-2-.6h0Z"/>
    <path class="st0" d="M480.8,239.7c10.6-5.7,23.4-11.6,35.6-12.5.3,0,.4-.6,0-.5-10,.5-19.3,5-28.4,8.9-10.6,4.5-20.8,11-29.8,18.2-9.8,7.8-19.2,13.9-31.2,18-6.4,2.2-13.4,3.8-20.5,4.1,15.3-.4,31-5.9,43-14.8,10.2-7.6,19.9-15.3,31.2-21.4h0Z"/>
    <path class="st0" d="M486.6,216.3c.6,0,1.2,0,1.8-.1-.6,0-1.2,0-1.8,0h0Z"/>
    <path class="st0" d="M494.5,215.9c-2.1,0-4.1.1-6.1.2,1.9,0,4-.2,6.1-.2Z"/>
    <path class="st0" d="M401,66c0,3.6,0,7.2-.2,10.7.3-3.6.4-7.1.2-10.7Z"/>
    <path class="st0" d="M294.7,160.9c.1.4.8.2.6-.2-7-18.8-5.5-39.9-4-59.5.4-4.6.8-9.4,1.5-14.3-.6,3.8-1,7.6-1.4,11.4-2,20.7-3.2,42.6,3.2,62.7h0Z"/>
    <path class="st0" d="M310.1,45.6c.3-.3.6-.6.9-.9h0c-.3.2-.6.6-.9.9h0Z"/>
    <path class="st0" d="M310.1,45.6c-10.5,10.7-15,26.2-17.1,41.2,2.4-15,6.9-29.6,17.1-41.2Z"/>
    <path class="st0" d="M137.1,41.2c-.2.8-.3,1.5-.4,2.3.1-.7.2-1.5.4-2.2h0s0,0,0,0Z"/>
    <path class="st0" d="M189.6,102.4c15.9,8.1,32.2,15.5,45.8,27.4,12.8,11.2,24.6,25.5,31.4,41.1.1.3.6,0,.5-.2-4.9-13.9-15.6-25.2-25.5-35.7-11.2-11.9-25.2-20-39.7-27.4-14.6-7.4-29.7-14.2-42.8-24.2-6.9-5.2-11.8-11.9-16.4-19.1-2.3-3.7-4.4-7.7-5.5-11.9,1.9,8.3,7.3,16,12.6,22.6,10,12.4,25.8,20.2,39.7,27.2h0Z"/>
    <path class="st0" d="M137.4,52.5c-.7-3-.9-6-.6-9.1-.5,3.1-.2,6.1.6,9.1Z"/>
    <path class="st0" d="M185.4,16.6h0c19.7,15.2,23.6,40.1,31,62.3,3.8,11.5,9.9,21,17.2,30.5,9.1,12,16.9,25,26.3,36.8.1.2.5,0,.3-.2-8.6-11.8-16.2-24.2-25-35.8-4.6-6.1-9.1-12.2-12.8-18.9-3-5.5-4.8-11.8-6.6-17.8-2-6.5-3.9-13.2-6.1-19.6v-.2c-2.3-5.3.5-10.4,2.4-15.3,1.8-4.6,1.4-9.6,1.4-14.5h-.1c.4,6.6-.4,12.2-3,18.3-1.3,3-2.1,5.9-1.6,8.9-4.8-13.3-11.1-25.8-23.2-34.6h0Z"/>
    <path class="st0" d="M236.6,16.9c.4.5.7,1.1,1,1.6-.3-.5-.6-1.1-.9-1.6h0s0,0,0,0Z"/>
    <path class="st0" d="M243.4,30.2c-1.6-4-3.5-7.9-5.8-11.6,2.2,3.8,4.1,7.7,5.8,11.6Z"/>
    <path class="st0" d="M276.5,100.4c-2.2,21.4-5.6,44.8,3.1,65.3.2.5.9,0,.7-.4-10-22.2-5-47.8-3-71.2,1-12,1.1-24,2-36-.2,1.6-.3,3.1-.5,4.5-1.1,12.6-1.1,25.2-2.3,37.8h0Z"/>
    <path class="st0" d="M279.3,58.1c.8-7.6,1.8-17-2.1-23,3.6,6.8,2.6,15.6,2.1,23h0Z"/>
    <path class="st0" d="M276.6,34.2c.2.3.4.6.6.9-.2-.3-.3-.7-.5-1h0q0,0,0,0Z"/>
    <path class="st0" d="M370.4,64.5c4.3-6.2,11.1-15.5,19.6-15h0c-6.6-.6-11.9,4.8-15.9,9.3-5.8,6.5-10.5,14.4-14.2,22.2-7.5,15.7-11.1,32.8-16.3,49.3,4.3-13.1,7.9-26.4,12.8-39.3,3.6-9.5,8.3-18.2,14.1-26.5h0Z"/>
    <path class="st0" d="M336.1,150c3-6.4,5.4-12.9,7.5-19.6-2.2,6.6-4.6,13.2-7.5,19.6Z"/>
    <path class="st0" d="M334.2,153.9h0c.6-1.2,1.2-2.5,1.8-3.8-.6,1.3-1.2,2.6-1.9,3.9h0Z"/>
    <path class="st0" d="M324.6,70.3c.6-1.3,1.1-2.7,1.7-4.1h0c-.5,1.3-1.1,2.7-1.6,4.1h0Z"/>
    <path class="st0" d="M306.1,152.3c6.1-12.4,5.9-25.6,6.1-39.1.3-13.5,5.1-25.6,10.2-37.8-4.4,9.9-9,19.7-10.6,30.6-2.3,15.7.8,31-6.3,45.9-.2.4.4.7.6.4h0Z"/>
    <path class="st0" d="M153.5,41.8c1.1,1.9,2.2,3.7,3.1,5.6-.9-1.9-1.9-3.8-3.1-5.6Z"/>
    <path class="st0" d="M152.3,40c.4.6.8,1.2,1.2,1.8-.4-.6-.8-1.2-1.2-1.8h0Z"/>
    <path class="st0" d="M167.1,88.1c.2.2.4-.2.2-.3-7.6-5.5-4.9-17.4-5.9-25.5-.7-5.5-2.4-10.3-4.7-14.9,3.2,6.7,4.7,13.9,4.8,21.7.1,6.7-.6,14.7,5.6,19h0Z"/>
    <path class="st0" d="M128.4,67.9c2.5,2.3,5.1,5.1,8.4,6.4,5.3,2.3,12.3,2.7,16.3,7.3.2.2.5,0,.3-.3-2.5-2.9-5.6-3.7-9.2-4.8-6.3-1.8-10.8-4.4-15.6-8.8h-.1c0,0,0,0,0,0Z"/>
    <path class="st0" d="M200.4,109c.2,0,.4-.3.1-.4-12.5-5.1-26.4-4-39.3-7.7-6.9-2-14.8-3.8-20.9-7.7-3.2-2-5.6-5.1-7.5-8.3-.8-1.4-1.8-2.6-3.2-3.4h0c2.6,1.8,3.1,4.5,5,6.7,1.7,2,3.5,3.7,5.6,5.3,4.8,3.7,11.9,5.1,17.5,6.9,6.2,2,12.4,3.6,18.8,4.3,8.1,1,16.2,1.2,23.9,4.2h0Z"/>
    <path class="st0" d="M206.1,123.5c1.5.1,3.1.2,4.6.4.3,0,.3-.4,0-.4-1-.1-2.1-.3-3.1-.4,2.8-.8,5.6-1.4,8.5-1.5.2,0,.2-.3,0-.3-3,.2-5.9.9-8.7,1.8-17.1-2-33.9-1.6-49-11.4h0c14.2,9.6,31.1,10.6,47.6,11.9-.6.2-1.2.4-1.9.6.7-.2,1.3-.4,2-.6h0Z"/>
    <path class="st0" d="M182.4,127.5c.6.1,1.2.2,1.7.3-.6,0-1.1-.2-1.7-.3h0Z"/>
    <path class="st0" d="M184.2,127.8c6.9,1.1,13.4-1.4,19.9-3.6-6.5,2.1-12.9,4.4-19.9,3.6h0Z"/>
    <path class="st0" d="M257.4,156.7c.1.2.5,0,.4-.2-10.6-23.3-40.1-13-58.4-24.2h0c18.3,11.7,46.6,1.9,58.1,24.4h0Z"/>
    <path class="st0" d="M175.1,38.5c9.8,9.7,11.7,24.3,13.1,37.4.9,8.7,2.2,18.6,9.8,24.2.2.2.4-.2.2-.3-9.5-6.8-9.2-20.2-10.5-30.6-1.4-11-4.3-22.7-12.5-30.7h-.1c0,0,0,0,0,0Z"/>
    <path class="st0" d="M195.9,98.7c1.8,2.3,3.9,4.4,5.6,6.8.2.3.7,0,.4-.3-1.8-2.3-4-4.4-5.9-6.6-.1-.1-.3,0-.2.2h0Z"/>
    <path class="st0" d="M228,26.9h-.1c2.3,6.8,5.1,12.9,9.6,18.5,4.7,5.9,9.8,10.3,12.5,17,.7,8.9,1,17.9,1.7,26.8,1,13.3,3.2,26.5,6.4,39.5,1.6,6.5,3.5,12.9,5.9,19.1,2.5,6.4,6.1,12.1,8.2,18.6,0,.2.5.1.4-.1-1.8-5.5-4.6-10.5-7-15.7-3.2-7-5.2-14.6-7.1-22.1-3.7-14.6-5.7-29.5-6.7-44.5-.4-6.5-.6-13-1.1-19.5.2.5.3,1.1.5,1.7.1.4.7.3.6-.2-.3-1.6-.8-3.1-1.3-4.5-.4-4.4-.8-8.7-1.6-13.1-1.1-6.5-3-12.5-5.5-18.4,3.7,9.5,5.4,19.5,6.3,29.7-1.9-3.9-4.8-7.2-8-10.5-6.4-6.7-10.6-13.7-13.7-22.4h0Z"/>
    <path class="st0" d="M282.5,56.8c1.7-8,11.8-19.6,4.4-27.2h-.1c7.2,7.8-3.2,19-4.7,27.1,0,.2.3.4.4.1h0Z"/>
    <path class="st0" d="M352,167.7h0c8.2-5.8,16.7-11.4,24.8-17.4,3.6-2.7,6.8-5.8,10.4-8.5,4.7-3.7,9.7-5.6,15.2-7.6,15.3-5.4,31.5-12.8,39.5-27.7,0-.2-.1-.3-.2-.1-8.8,16.1-26.8,23.2-43.3,28.7-7.7,2.6-13.6,7.9-19.8,13-8.4,6.9-17.7,13.6-26.7,19.7h0Z"/>
    <path class="st0" d="M454.4,224.7c-6.6-5.1-14.5-8.2-22.5-10.4-10.7-3-22.1-2.4-32.8-5.9-5-1.6-11-4.3-16.7-4.5,6,.4,12.9,3.8,17.6,5.5,8.8,3.2,18.2,3.8,27.4,5,7.5,1,15.4,4.3,21.9,8.1,3.4,2,6.5,4.5,9,7.4,3.1,3.6,3.7,7.6,4.7,12.1,0,.4.7.4.8,0,1.1-6.8-4.3-13.6-9.3-17.4h0Z"/>
    <path class="st0" d="M376.2,205c.4-.2.8-.4,1.2-.5-.4.1-.9.3-1.3.4h0Z"/>
    <path class="st0" d="M377.4,204.5c1.6-.5,3.2-.6,4.9-.6-1.7-.1-3.4,0-4.9.6Z"/>
    <path class="st0" d="M84.8,143.6c19,.8,37.9,3.1,56.5,7.1,18.5,4,36.7,10,53.4,19,8,4.3,15.3,9.6,21.8,16,3,3,5.7,6.2,8.2,9.5,2.6,3.4,4.4,7.2,7.2,10.4.3.4.9,0,.8-.4-2.2-7.3-8.6-14.2-13.8-19.6-5.9-6.2-12.8-11.3-20.2-15.6-17.1-9.9-36.1-15.9-55.3-20.1-28.6-6.2-59-9.1-88.3-5.9,9.9-.8,19.9-.8,29.7-.3h0Z"/>
    <path class="st0" d="M31,148.1c.8-.2,1.7-.4,2.5-.7-.8.2-1.7.4-2.5.6,0,0,0,0,0,0Z"/>
    <path class="st0" d="M33.5,147.5c7.1-1.6,14.3-2.8,21.6-3.6-7.3.6-14.5,1.7-21.6,3.6Z"/>
    <path class="st0" d="M5.2,162.9c.8.7,1.6,1.3,2.3,2-.8-.7-1.5-1.3-2.3-2h0q0,0,0,0Z"/>
    <path class="st0" d="M14,169.6c-2.2-1.4-4.3-3-6.5-4.8,2.1,1.8,4.2,3.4,6.5,4.8Z"/>
    <path class="st0" d="M135,350.8c6.1-6.5,11.9-13.6,16.3-21.4,4.5-8,8-16.4,12.4-24.4,4.8-8.7,11.1-16.8,16.9-24.9,12.3-17.2,24.2-34.6,38.1-50.6.2-.2-.1-.5-.3-.3-12.4,14.2-23,29.6-34.1,44.8-5.6,7.7-11,15.6-16.6,23.4-5.7,7.9-9.5,17-13.8,25.6-8.2,16.5-20.9,28.8-33.9,41.6-4.4,4.4-8.1,9.5-12.2,14.1-2.9,3.3-6.3,7-10.3,9.5,8.1-4.7,14.1-13.5,20.1-20.2,5.4-6,11.7-11.3,17.3-17.2h0Z"/>
    <path class="st0" d="M90.8,391c.4,0,.7-.2,1.1-.3-.4,0-.7.2-1.1.2h0Z"/>
    <path class="st0" d="M97.7,388.2c-1.8,1-3.7,1.9-5.8,2.5,2-.5,3.9-1.3,5.8-2.5Z"/>
    <path class="st0" d="M176.1,351.5c-1.8,3-3.7,5.9-5.7,8.8,2.1-2.9,4-5.8,5.7-8.8Z"/>
    <path class="st0" d="M192.2,298.7c4.5-19.9,13.3-37.5,22.9-55.3,0-.1-.1-.3-.2-.1-8.1,15.2-15.9,30.2-20.7,46.9-4.8,16.9-6.4,34.6-12.9,51-.7,1.8-1.5,3.5-2.3,5.2.2-1.6.5-3.2.8-4.9h0c-.4,1.7-.6,3.4-.9,5.2-.8,1.7-1.7,3.3-2.6,4.9.5-.9,1-1.8,1.5-2.6.4-.7.7-1.3,1.1-2-.7,5.8-.6,11.6-.4,17.4h.1c-.2-5.9-.3-11.8.4-17.6,7.6-14.8,9.7-32,13.3-47.9h0Z"/>
    <path class="st0" d="M123.6,397.6c-4.5,1.6-9.1,2.8-13.7,3.6,4.6-.5,9.2-1.9,13.7-3.6Z"/>
    <path class="st0" d="M108.5,401.4c.5,0,.9-.2,1.4-.2-.5,0-.9.1-1.4.1h0c0,0,0,0,0,0Z"/>
    <path class="st0" d="M188.6,408.2c4.3-1.8,7.9-4.9,11.1-8.6-3.1,3.5-6.7,6.5-11.1,8.6Z"/>
    <path class="st0" d="M219.9,342.9c-.8,12.6-3.8,24.9-8.6,36.5-7,5.1-16.7,6.4-21.5,14.1-.1.2.2.4.3.2,5.2-7.2,14.3-8.8,21-13.9-.5,1.2-1.1,2.5-1.6,3.7-2.5,5.4-5.6,11.3-9.8,16.2,3-3.4,5.6-7.3,7.8-11.4,1.6-3,3.1-6,4.4-9.2.6-.5,1.1-1,1.6-1.5h0c-.4.4-.9.8-1.4,1.2,3.4-8.1,5.8-16.7,7-25.2,2.2-15.7,1-31.2,0-46.9-1-16.1-.9-31.7,2.1-47.7h-.1c-7.4,27.4.6,56.1-1.1,83.9h0Z"/>
    <path class="st0" d="M187,409c.6-.2,1.1-.5,1.6-.7-.5.2-1.1.5-1.7.6h0q0,0,0,0Z"/>
    <path class="st0" d="M252.3,345.5c-.6-.4-1.3-.7-1.9-1.1h0c.6.4,1.3.8,1.9,1.1.9,1.7,1.8,3.4,2.5,5.2,2.7,6.8,3.2,14.6,3.1,22l-.2-.2h0c0,0,.3.3.3.3,0,1.4,0,2.7-.1,4-.4,9.2-2,19.8-8,27.1h0c6.7-7.8,8.9-19.4,8.8-30.6h.1c0,0-.1,0-.1,0,0-5.9-.7-11.7-1.7-16.7-.8-3.9-2.3-7.4-4.1-10.8,3.3,1.8,6.6,3.2,9.7,4.9-3.1-1.8-6.4-3.3-9.7-4.9-2.9-5.2-6.7-10-10-14.9-7.8-11.5-10.8-24.6-11.4-38.4,0-.3-.4-.3-.4,0,.4,9.9,2.1,19.6,5.9,28.8,3.7,8.8,10.7,15.9,15.4,24.2h0Z"/>
    <path class="st0" d="M203.3,227.6c-16,9.5-34.1,13.4-51.8,18.3-16.5,4.5-32.9,9.6-48.2,17.4-.3.2-.7.4-1,.5-7-1.8-14.2-3.8-21.3-3.6,6.8.1,13.7,2.4,20.5,4.1-7.9,4.2-15.3,9.5-21.8,15.6,1.1-2,2.8-3.8,5.7-5h0c-3,1.3-5,3.2-6.3,5.6-4.2,4-8.1,8.5-11.6,13.2-8,10.9-15.9,25-13.9,39h.1c-1.9-15.1,7.4-29.8,16.2-41.2,2.6-3.4,5.5-6.6,8.5-9.5-.5,1.2-.8,2.6-1,4.1-.5,3.7.1,7.5,0,11.2,0,5.4-1.6,10.1-4.7,14.6,0,.1.1.3.2.1,3.5-5,4.8-10.2,5-16.3.2-4.9-.5-10.2,1.1-14.4,7-6.7,14.9-12.2,23.4-16.9,1.3.3,2.6.6,3.9.8.2,0,.4-.3.1-.4-1.1-.3-2.2-.5-3.3-.8,2.1-1.1,4.2-2.2,6.4-3.2,15.4-7.3,31.9-11.8,48.3-16.3,15.7-4.3,31.4-8.3,45.5-16.7.1,0,0-.3-.1-.2h0Z"/>
    <path class="st0" d="M70.6,196.5c8.3,1.8,16.4,7.4,24.1,11,7.7,3.6,15.9,6.7,24.4,7.5.2,0,.2-.2,0-.3-11.3-2.1-21.3-6.4-31.6-11.4-7.2-3.5-14.1-7.3-22.2-8-6.6-.6-14.1.4-20.3,3.4,8-3.5,18.2-3.7,25.6-2.1h0Z"/>
    <path class="st0" d="M45,198.6c-5.2,2.2-9.4,5.8-11.4,11.1,2.3-5.1,6.5-8.8,11.4-11.1Z"/>
    <path class="st0" d="M33.7,209.8c-.2.4-.3.8-.5,1.2h0c.1-.4.3-.8.4-1.2h0Z"/>
    <path class="st0" d="M69.3,171.6c-5.5-2.8-11.4-4.3-17.7-3.1,6.4-.9,12.2.5,17.7,3.1Z"/>
    <path class="st0" d="M51.7,168.5c-.7.1-1.3.2-2,.4h0c.7-.1,1.3-.2,2-.4h0Z"/>
    <path class="st0" d="M92.7,187.9c-7.5-5.4-15-12.3-23.3-16.3,8.4,4.3,16,11.6,23.1,16.7.2.1.4-.2.2-.3h0Z"/>
    <path class="st0" d="M220.7,347.5c0,.2,0,.5,0,.7h.1c0-.2,0-.5,0-.7h-.1Z"/>
    <path class="st0" d="M221.3,364.1c2.2,13.9,14.1,26.6,5.6,40.6h0c8.5-14-3.4-26.7-5.6-40.6h0Z"/>
    <path class="st0" d="M255.9,361.5h-.1c0,4-.1,7.8-1,11.7-.9,4.1-3.3,7.6-5.3,11.3-2.4,4.5-3.1,9-2.9,14,0,.2.3.2.3,0,0-7.3,2.1-12.5,5.5-18.8,3.1-5.7,3.6-11.8,3.4-18.2h0Z"/>
    <path class="st0" d="M275.9,389.8c0,.4.7.4.7,0,.3-7.3-4.8-10-10.3-12.6,5.2,2.7,10,5.9,9.7,12.6h0Z"/>
    <path class="st0" d="M258.8,373.3c2.2,1.6,4.9,2.7,7.5,3.9-2.5-1.3-5.2-2.5-7.5-3.9Z"/>
    <path class="st0" d="M274.4,361.6c.1.2.5,0,.4-.2-3.1-5.3-7.4-8.3-12.1-10.8,4.7,2.6,8.8,5.8,11.8,11Z"/>
    <path class="st0" d="M177,363.6c.3,14.5-2.7,27.7-17.5,33.5-.4.2-.2.8.2.6,15.4-5.3,18.1-19.5,17.5-34.2h-.1,0Z"/>
    <path class="st0" d="M152.4,375.3c-4.7,1.9-10,1.9-14.3,4.8-.1,0,0,.3.1.2,4.1-2.5,8.9-2.1,13.2-4,2.6-1.2,4.9-2.1,7.3-3.8,1.7-1.3,3.3-2.7,5.1-3.9-3.7,4.3-7.6,8.4-11.5,12.1-5.9,5.5-12.6,9.5-19.8,13-2.9,1.4-5.9,2.7-9,3.9,8.7-3,16.9-7.4,24.1-12.8,6-4.6,11.7-10.3,16.8-16.5.3-.2.7-.5,1-.7h0c-.3.1-.5.3-.8.5,2-2.5,4-5,5.8-7.6-2,2.8-4.1,5.4-6.3,8-3.8,2.6-7.3,5.2-11.7,7h0Z"/>
    <path class="st0" d="M142,367.7c3.5-6.7,2.8-12.5.6-19.5h-.1c2.1,6.9,2.7,12.8-.7,19.3,0,.1.1.3.2.1h0Z"/>
    <path class="st0" d="M96.5,341c.3,4.7,1.5,8.6.5,13.3-1,4.3-3.9,8-5,12.3,0,.2.2.2.3,0,1.8-6.9,6.8-12.1,5.7-19.7-.7-4.9-1.3-9.5-.9-14.5,0-1.1,1.1-6.1,2.5-10.1-2.5,5.9-3.5,12.1-3.1,18.6h0Z"/>
    <path class="st0" d="M70.6,288.5c-8.2,2.7-18.8,5.8-24,13.2-.2.3.3.6.5.3,4.9-7.4,15.6-10.6,23.5-13.4h0c0-.1,0-.1,0-.1Z"/>
    <path class="st0" d="M61.8,238.2c4-1.4,8.1-2.5,12.1-3.4-.9.7-1.7,1.6-2.3,2.6.7-1,1.4-1.9,2.4-2.6,3.9-.9,7.7-1.6,11.3-2.2,4.3-.7,8.7-1.1,13.1-1.3,1,.4,2.1.8,3.3,1,.3,0,.5-.4.2-.5-.6-.2-1.3-.4-1.9-.6,10.7-.4,21.4.3,32,.5,11.9.2,26.1.7,36.8-5.4.2-.1,0-.5-.2-.4-13.9,6.4-30.2,5.3-45.2,4.8-8.2-.3-16.4-.4-24.5,0-6.1-2.5-11-7.9-16.1-11.9-5.6-4.3-12.2-5.2-19.1-5h0c9.1,0,15.5,2.6,22.5,8.3,3.8,3.1,7.1,6.6,11.3,8.6-6,.3-12.1.9-18.1,1.8-4.8.8-10.1,2-15.2,3.7,4.3-2.9,9.3-4.9,14.1-4.9h0c-5.3-.2-10.2,2-14.5,5-15.9,5.3-31.5,15.4-34.8,32h.1c3.4-16,17.3-25,32.4-30.3-1.5,1.2-2.9,2.6-4.3,3.9-7.4,7.6-8.6,18.9-15.8,26.5-.1.1,0,.3.2.2,6.1-6.3,8.2-15,12.7-22.3,1.9-3,4.5-5.9,7.6-8.4h0Z"/>
    <path class="st0" d="M64.3,265.3c2.8-4,3.5-8.8,4.1-13.5.6-4.4.8-10.3,3.3-14.3-5,7.6-2.1,20.3-7.5,27.8h.1c0,0,0,0,0,0Z"/>
    <path class="st0" d="M49.6,242c-2.2,1.5-4.7,2.8-7.4,3.6,2.7-.7,5.4-1.9,7.4-3.6Z"/>
    <path class="st0" d="M50.2,241.6h0c-.2,0-.4.3-.6.4.2-.1.4-.3.6-.4Z"/>
    <path class="st0" d="M35.8,246.1h0c2.2.3,4.3,0,6.4-.6-2.2.6-4.4.8-6.4.6Z"/>
    <path class="st0" d="M67.4,200.1h0c-4.5,1.8-7.2,5.7-10.6,9.1-4.8,4.8-11.7,5.2-17.8,7h0c5.5-1.5,11.2-1.9,16.1-5.2,4.6-3.1,7.3-8.3,12.4-10.9h0Z"/>
    <path class="st0" d="M80.4,198.3c.2,0,.3-.1.1-.2-10.4-7.2-18.2-16.4-31.8-16.1h0c7,.1,12.7,2.1,18.3,6.2,4.6,3.3,8.6,7.2,13.4,10.2h0Z"/>
    <path class="st0" d="M61.6,174.7c.4.5.8,1,1.3,1.4-.4-.4-.8-.9-1.2-1.4h0c0,0,0,0,0,0Z"/>
    <path class="st0" d="M66,178.5c-1.1-.6-2.1-1.4-3.1-2.4.9.9,1.9,1.7,3.1,2.4Z"/>
    <path class="st0" d="M66,178.5c3.7,2.1,8.1,2.8,12.5,2.7.3,0,.3-.4,0-.4-4.2.1-8.8-.3-12.5-2.3h0Z"/>
    <path class="st0" d="M86.2,181.4c-.3-1.1-.7-2.1-1.2-3.1.4,1,.8,2.1,1.1,3.1h.1Z"/>
    <path class="st0" d="M81.7,171.9h0c.1.3.2.5.4.7,0-.2-.2-.5-.3-.7h0Z"/>
    <path class="st0" d="M82,172.6c.8,2,2,3.8,3,5.7-.9-2-1.9-3.9-3-5.7Z"/>
    <path class="st0" d="M81,260.2c-2.9,0-5.7.3-8.6,1.3,2.8-.9,5.7-1.2,8.6-1.3Z"/>
    <path class="st0" d="M70.3,262.3c.7-.3,1.4-.6,2.1-.8-.7.2-1.4.5-2.1.7h0c0,0,0,0,0,0Z"/>
    <path class="st0" d="M117.2,351.3c4.8-8.2,9.2-16.3,17.4-21.6,7.7-5.1,16.4-7.4,23-14.2.3-.3-.2-.8-.5-.5-7.3,7.4-17.2,9.5-25.4,15.4-6.9,5-10.7,13.5-14.7,20.8,0,.1.1.3.2.1h0Z"/>
    <path class="st0" d="M188,307c-9.6,9.5-20,17.9-25.1,30.8h.1c5.2-12.6,15.9-21,25.3-30.4.2-.2-.1-.6-.4-.4h0Z"/>
    <path class="st0" d="M242.4,239.5c-.1.8-.2,1.6-.3,2.5.1-.8.2-1.6.4-2.5h0Z"/>
    <path class="st0" d="M242.1,242c-1.2,7.8-1.5,15.6-.7,23.4-.6-7.7-.2-15.4.7-23.4h0Z"/>
    <path class="st0" d="M232.4,481.3c-.2.1-.4.2-.6.4.2-.1.4-.2.7-.3h0Z"/>
    <path class="st0" d="M268.1,408.9c0-.2-.3-.4-.4-.1-2.8,9.4-8.9,17-15.3,24.2-5.6,6.4-11.1,13-17,19.2-5.3,5.6-10.6,11.1-15.6,16.9-2.2,2.5-4.5,5.4-5.7,8.5,2.1-4.9,7.1-9.3,10.4-12.7,5.7-6.1,11.6-12,17-18.3,9.8-11.4,22.5-22.7,26.7-37.6h0Z"/>
    <path class="st0" d="M213.1,482.7h.1c0-.8,0-1.6,0-2.4-.1.8-.2,1.6-.2,2.4Z"/>
    <path class="st0" d="M208.2,460.1c.2-.8.4-1.5.7-2.2-.3.7-.5,1.5-.8,2.2h0s0,0,0,0Z"/>
    <path class="st0" d="M213.1,449.4c-1.7,2.6-3.2,5.4-4.2,8.4,1.1-3,2.6-5.8,4.2-8.4Z"/>
    <path class="st0" d="M290.1,393.5c6.6,12.8,7.1,29.6,4.2,43.5-1.4,6.7-3.6,13.2-6.5,19.3-2.7,5.8-6.5,12.3-13,14.3-.2,0-.1.3,0,.3,12.3-3.3,17.2-20.9,19.7-31.6,3.5-14.5,3.3-32.8-4.5-45.9h-.1c0,0,0,0,0,0Z"/>
    <path class="st0" d="M318.3,393.4c1.4,6.7,1.7,13.6,1.2,20.4-.7,8.9-5,17.4-9.2,25.1-.2.3.3.6.5.3,7.7-12.6,11.2-25.4,9.6-40.2-1.3-12.2-6-23.8-12.5-34.2-7.2-11.4-17.8-20.8-27.5-30.8,7,7.6,14.4,14.9,20.8,23,8.3,10.6,14.3,23.1,17.1,36.2Z"/>
    <path class="st0" d="M259.4,303.2h0c.2.6.5,1.2.7,1.8-.2-.6-.4-1.2-.6-1.8h0Z"/>
    <path class="st0" d="M260,305c4.1,11.3,11.9,20.4,20.4,29.1-8.1-8.8-15.6-17.9-20.4-29.1Z"/>
  </g>
</svg>