<?xml version="1.0" encoding="utf-8"?>
<!-- Generator: Adobe Illustrator 21.1.0, SVG Export Plug-In . SVG Version: 6.00 Build 0)  -->
<svg version="1.1" id="圖層_1" xmlns="http://www.w3.org/2000/svg" xmlns:xlink="http://www.w3.org/1999/xlink" x="0px" y="0px"
	 viewBox="0 0 437.5 202" style="enable-background:new 0 0 437.5 202;" xml:space="preserve">
<style type="text/css">
	.st0{fill:#FFFFFF;}
	.st1{fill:none;stroke:#ECECEC;}
	.st2{opacity:0.5;fill:none;stroke:#333333;enable-background:new    ;}
	.st3{fill:#044C3B;}
	.st4{opacity:0;}
	.st5{fill:none;stroke:#000000;}
	.st6{fill:#333333;}
	.st7{font-family:'Verdana-Bold';}
	.st8{font-size:11px;}
	.st9{font-family:'Verdana';}
	.st10{font-size:12px;}
	.st11{fill:#41AD68;}
</style>
<g>
	<g transform="matrix(1,0,0,1,615,891)">
		<path vector-effect="none" class="st0" d="M-576-886.6h395v180h-395V-886.6"/>
	</g>
	<g transform="matrix(1,0,0,1,695,1075)">
		<path vector-effect="none" d="M-656-926.6h395"/>
	</g>
	<g transform="matrix(1,0,0,1,695,1075)">
		<path vector-effect="none" class="st1" d="M-656-926.6h395"/>
	</g>
	<g transform="matrix(1,0,0,1,695,1039)">
		<path vector-effect="none" d="M-656-926.6h395"/>
	</g>
	<g transform="matrix(1,0,0,1,695,1039)">
		<path vector-effect="none" class="st1" d="M-656-926.6h395"/>
	</g>
	<g transform="matrix(1,0,0,1,695,1003)">
		<path vector-effect="none" d="M-656-926.6h395"/>
	</g>
	<g transform="matrix(1,0,0,1,695,1003)">
		<path vector-effect="none" class="st1" d="M-656-926.6h395"/>
	</g>
	<g transform="matrix(1,0,0,1,695,967)">
		<path vector-effect="none" d="M-656-926.6h395"/>
	</g>
	<g transform="matrix(1,0,0,1,695,967)">
		<path vector-effect="none" class="st1" d="M-656-926.6h395"/>
	</g>
	<g transform="matrix(1,0,0,1,695,1111)">
		<path vector-effect="none" d="M-656-926.6h395"/>
	</g>
	<g transform="matrix(1,0,0,1,695,1111)">
		<path vector-effect="none" class="st2" d="M-656-926.6h395"/>
	</g>
	<g transform="matrix(1,0,0,1,695,931)">
		<path vector-effect="none" class="st3" d="M-609.9-746.6v-64.8h39.5v64.8H-609.9"/>
	</g>
	<g transform="matrix(1,0,0,1,695,931)">
		<path vector-effect="none" class="st3" d="M-478.2-746.6v-45h39.5v45H-478.2"/>
	</g>
	<g transform="matrix(1,0,0,1,695,931)">
		<path vector-effect="none" class="st3" d="M-346.6-746.6v-36h39.5v36H-346.6"/>
	</g>
	<g transform="matrix(1,0,0,1,695,931)" class="st4">
		<path vector-effect="none" class="st5" d="M-657-746.1h397"/>
	</g>
	<g transform="matrix(1,0,0,1,695,931)" class="st4">
		<path vector-effect="none" class="st5" d="M-656.5-927.6v181"/>
	</g>
	<g transform="matrix(1,0,0,1,760.83,931)">
		<text transform="matrix(1 0 0 1 -720.9998 -732.6377)" class="st6 st7 st8">Incomplete Sentences</text>
	</g>
	<g transform="matrix(1,0,0,1,892.5,931)">
		<text transform="matrix(1 0 0 1 -701.9998 -732.6377)" class="st6 st7 st8">Text Completion</text>
	</g>
	<g transform="matrix(1,0,0,1,1024.17,931)">
		<text transform="matrix(1 0 0 1 -727.9998 -732.6377)" class="st6 st7 st8">Reading Comprehension</text>
	</g>
	<g transform="matrix(1,0,0,1,695,1111)">
		<text transform="matrix(1 0 0 1 -678.9998 -920.6377)" class="st6 st9 st10">0%</text>
	</g>
	<g transform="matrix(1,0,0,1,695,1075)">
		<text transform="matrix(1 0 0 1 -686.9998 -920.6377)" class="st6 st9 st10">20%</text>
	</g>
	<g transform="matrix(1,0,0,1,695,1039)">
		<text transform="matrix(1 0 0 1 -686.9998 -920.6377)" class="st6 st9 st10">40%</text>
	</g>
	<g transform="matrix(1,0,0,1,695,1003)">
		<text transform="matrix(1 0 0 1 -686.9998 -920.6377)" class="st6 st9 st10">60%</text>
	</g>
	<g transform="matrix(1,0,0,1,695,967)">
		<text transform="matrix(1 0 0 1 -686.9998 -920.6377)" class="st6 st9 st10">80%</text>
	</g>
	<g transform="matrix(1,0,0,1,695,931)">
		<text transform="matrix(1 0 0 1 -694.9998 -920.6377)" class="st6 st9 st10">100%</text>
	</g>
	<g transform="matrix(1,0,0,1,744,1028)" class="st4">
		<path vector-effect="none" d="M-655.5-926.1h32v17h-32V-926.1"/>
	</g>
	<g transform="matrix(1,0,0,1,744,1028)" class="st4">
		<path vector-effect="none" class="st5" d="M-655.5-926.1h32v17h-32V-926.1"/>
	</g>
	<g transform="matrix(1,0,0,1,744,1028)">
		<text transform="matrix(1 0 0 1 -655.5 -915.6377)" class="st11 st7 st10">36%</text>
	</g>
	<g transform="matrix(1,0,0,1,876,1048)" class="st4">
		<path vector-effect="none" d="M-655.5-926.1h32v17h-32V-926.1"/>
	</g>
	<g transform="matrix(1,0,0,1,876,1048)" class="st4">
		<path vector-effect="none" class="st5" d="M-655.5-926.1h32v17h-32V-926.1"/>
	</g>
	<g transform="matrix(1,0,0,1,876,1048)">
		<text transform="matrix(1 0 0 1 -655.5 -915.6377)" class="st11 st7 st10">25%</text>
	</g>
	<g transform="matrix(1,0,0,1,1008,1057)" class="st4">
		<path vector-effect="none" d="M-655.5-926.1h32v17h-32V-926.1"/>
	</g>
	<g transform="matrix(1,0,0,1,1008,1057)" class="st4">
		<path vector-effect="none" class="st5" d="M-655.5-926.1h32v17h-32V-926.1"/>
	</g>
	<g transform="matrix(1,0,0,1,1008,1057)">
		<text transform="matrix(1 0 0 1 -655.5 -915.6377)" class="st11 st7 st10">20%</text>
	</g>
</g>
</svg>
