<?xml version="1.0" encoding="utf-8"?>
<!-- Generator: Adobe Illustrator 19.2.1, SVG Export Plug-In . SVG Version: 6.00 Build 0)  -->
<svg version="1.1" id="圖層_1" xmlns="http://www.w3.org/2000/svg" xmlns:xlink="http://www.w3.org/1999/xlink" x="0px" y="0px"
	 viewBox="0 0 186.1 73.3" style="enable-background:new 0 0 186.1 73.3;" xml:space="preserve">
<style type="text/css">
	.st0{fill:url(#SVGID_1_);}
	.st1{fill:url(#SVGID_2_);}
	.st2{fill:url(#SVGID_3_);}
	.st3{fill:url(#SVGID_4_);}
	.st4{fill:url(#SVGID_5_);}
	.st5{fill:url(#SVGID_6_);}
	.st6{fill:url(#SVGID_7_);}
	.st7{fill:url(#SVGID_8_);}
	.st8{fill:#FFFFFF;}
	.st9{fill:#672E30;stroke:#672E30;stroke-width:2;stroke-linecap:round;stroke-linejoin:round;stroke-miterlimit:10;}
</style>
<g>
	<g>
		<linearGradient id="SVGID_1_" gradientUnits="userSpaceOnUse" x1="27.6132" y1="0.7115" x2="27.6132" y2="0.3928">
			<stop  offset="0" style="stop-color:#FBEAED"/>
			<stop  offset="1" style="stop-color:#DF5772"/>
		</linearGradient>
		<path class="st0" d="M27.9,0.7c0-0.1-0.1-0.2-0.1-0.4c-0.1,0-0.3,0-0.4,0.1c0,0,0.1,0,0.1,0C27.6,0.5,27.8,0.6,27.9,0.7z"/>
		<linearGradient id="SVGID_2_" gradientUnits="userSpaceOnUse" x1="32.4521" y1="64.8933" x2="32.4521" y2="10.8891">
			<stop  offset="0" style="stop-color:#FBEAED"/>
			<stop  offset="1" style="stop-color:#DF5772"/>
		</linearGradient>
		<path class="st1" d="M47.8,3.8l-0.6-0.1l0.1-0.2c-0.2-0.1-0.4-0.2-0.5-0.3l-0.1,0.2l-0.3-0.4c-0.5-0.3-1.1-0.5-1.7-0.7
			c0.2,0.1,0.4,0.2,0.6,0.5l1,1l-1.3,0.6c-0.6,0.3-0.9,0.3-1.4,0.2c-0.9-0.2-1.5-1-1.5-1l0.6-0.5l-0.4-0.7c0,0,0.8-0.6,1.7-0.4
			c0.1,0,0.2,0,0.3,0.1c-0.5-0.2-0.9-0.3-1.4-0.5L42.6,2c0,0-0.3-0.2-0.6-0.6c-1.1-0.3-2.1-0.6-3.3-0.8c0,0.1,0.1,0.3,0.1,0.4
			c0,0.4-0.1,0.6-0.4,1.1L37.7,3L37,2c-0.3-0.5-0.4-0.7-0.3-1.1c0-0.2,0.1-0.5,0.2-0.6c-1.3-0.2-2.6-0.3-4-0.3l-0.1,0.7
			c0,0-0.9,0-1.5-0.6c0,0,0-0.1-0.1-0.1c-0.4,0-0.7,0-1.1,0.1c0,0.1-0.1,0.1-0.1,0.2c-0.4,0.8-1.2,1-1.2,1l-0.3-0.6l-0.7,0.1
			c0.3,0.3,0.3,0.6,0.3,0.6l-0.5,0.2L27.9,2L28,1.8c0,0,0.9,0.2,1.4,1.1c0.2,0.5,0.3,0.7,0.2,1.4l-0.2,1.4L28.1,5
			c-0.6-0.3-0.8-0.5-1-1c-0.4-0.8-0.1-1.8-0.1-1.8l0.8,0.2L27.8,2c-0.1,0-0.6,0.2-1.1-0.1c-0.3-0.1-0.5-0.3-0.7-0.7l-0.3-0.6
			c-0.1,0-0.3,0.1-0.4,0.1l0.4,0.7c0.2,0.4,0.2,0.6,0.2,0.9c-0.1,0.6-0.6,1-0.6,1L24.9,3l-0.4,0.3c0,0-0.4-0.5-0.3-1.1
			c0-0.3,0.1-0.5,0.4-0.8l0.5-0.5c-0.2,0.1-0.5,0.1-0.7,0.2l-0.1,0.1c-0.3,0.3-0.5,0.4-0.8,0.5c-0.3,0.1-0.5,0-0.7-0.1
			C9.6,5.6,0,17.9,0,32.4c0,17.9,14.5,32.5,32.5,32.5c17.9,0,32.5-14.5,32.5-32.5C64.9,20.1,58,9.3,47.8,3.8z M44.2,6
			c0.2-0.5,0.4-0.7,1-1l1.3-0.6l0.2,1.4c0.1,0.7,0,1-0.2,1.4c-0.5,0.8-1.4,1.1-1.4,1.1l-0.3-0.7L44,7.8C44,7.8,43.7,6.9,44.2,6z
			 M48.9,13.6c0,0-0.6,0.5-1.4,0.4c-0.4,0-0.6-0.1-1-0.5l-0.9-0.8l1-0.6c0.5-0.3,0.7-0.3,1.1-0.3c0.8,0.1,1.2,0.7,1.2,0.7L48.5,13
			L48.9,13.6z M43.2,34c0,0-0.6,0.5-1.4,0.4c-0.4,0-0.6-0.1-1-0.5l-0.9-0.8l1-0.6c0.5-0.3,0.7-0.3,1.1-0.3c0.8,0.1,1.2,0.7,1.2,0.7
			l-0.4,0.4L43.2,34z M25.4,14c0,0,0.4-0.7,1.2-0.8c0.4-0.1,0.6-0.1,1.1,0.2l1,0.5L28,14.8c-0.4,0.4-0.6,0.5-1,0.6
			c-0.8,0.1-1.4-0.3-1.4-0.3l0.3-0.6L25.4,14z M32.3,15.9c0,0-0.7,0.3-1.4-0.1c-0.4-0.2-0.6-0.3-0.8-0.8l-0.5-1l1.1-0.2
			c0.5-0.1,0.8,0,1.1,0.1c0.7,0.3,0.9,1.1,0.9,1.1l-0.6,0.3L32.3,15.9z M31.3,23.7c0,0-0.1,0.8-0.7,1.2c-0.3,0.2-0.6,0.3-1.1,0.3
			h-1.2l0.4-1.1c0.2-0.5,0.3-0.7,0.7-0.9c0.6-0.5,1.4-0.3,1.4-0.3l0,0.6L31.3,23.7z M30.7,28.1c0,0-0.8,0.2-1.4-0.3
			c-0.3-0.2-0.5-0.4-0.7-0.9l-0.4-1.1h1.2c0.5,0,0.8,0.1,1.1,0.3c0.6,0.5,0.7,1.2,0.7,1.2l-0.6,0.2L30.7,28.1z M31.6,12.8
			c-0.3,0.3-0.5,0.4-1,0.5l-1.1,0.2l0.2-1.1c0.1-0.5,0.2-0.7,0.5-1.1c0.5-0.6,1.3-0.5,1.3-0.5l0.1,0.6l0.6,0.1
			C32.1,11.5,32.2,12.3,31.6,12.8z M29.7,15.3c0.3,0.5,0.3,0.7,0.2,1.1c-0.1,0.8-0.8,1.2-0.8,1.2l-0.4-0.5l-0.5,0.3
			c0,0-0.5-0.6-0.4-1.4c0.1-0.4,0.1-0.6,0.5-1l0.8-0.8L29.7,15.3z M26.3,22.1l0.6,0.2l0.3-0.5c0,0,0.7,0.3,0.9,1.1
			c0.1,0.4,0.1,0.6,0,1.2l-0.4,1.1l-0.9-0.7c-0.4-0.3-0.6-0.5-0.7-0.9C25.9,22.8,26.3,22.1,26.3,22.1z M28.2,27
			c0.2,0.5,0.2,0.8,0,1.2c-0.2,0.7-0.9,1.1-0.9,1.1l-0.3-0.5l-0.6,0.2c0,0-0.4-0.7-0.1-1.4c0.1-0.4,0.3-0.6,0.7-0.9l0.9-0.7L28.2,27
			z M26.3,35.7l0.5,0.4l0.5-0.4c0,0,0.6,0.5,0.5,1.3c0,0.4-0.1,0.6-0.4,1.1L26.7,39l-0.6-1c-0.3-0.5-0.4-0.7-0.3-1.1
			C25.7,36.2,26.3,35.7,26.3,35.7z M26.9,39.8l1.1,0.4c0.5,0.2,0.7,0.3,0.9,0.7c0.4,0.6,0.3,1.4,0.3,1.4l-0.6-0.1l-0.2,0.6
			c0,0-0.8-0.1-1.2-0.8c-0.2-0.3-0.3-0.6-0.3-1.1L26.9,39.8z M28.2,39.7l-1.1-0.4l0.7-0.9c0.3-0.4,0.5-0.6,0.9-0.7
			c0.7-0.2,1.4,0.2,1.4,0.2l-0.2,0.6l0.5,0.4c0,0-0.3,0.7-1.1,0.9C28.9,39.9,28.7,39.9,28.2,39.7z M30.4,34.7c0,0-0.8-0.3-1-1.1
			c-0.1-0.4-0.2-0.7,0-1.2l0.4-1.2l1,0.7c0.5,0.3,0.6,0.5,0.8,1c0.3,0.8-0.1,1.5-0.1,1.5l-0.6-0.2L30.4,34.7z M31.5,19.3
			c-0.8-0.1-1.3-0.9-1.3-0.9l0.5-0.5l-0.3-0.6c0,0,0.7-0.5,1.5-0.4c0.5,0.1,0.7,0.2,1.1,0.6l0.9,0.9l-1.1,0.6
			C32.3,19.4,32,19.4,31.5,19.3z M32.1,25.8l-0.2-0.5c0,0,0.6-0.3,1.1-0.1c0.3,0.1,0.5,0.2,0.7,0.6l0.5,0.8l-0.9,0.3
			c-0.4,0.1-0.6,0.1-0.9,0c-0.6-0.2-0.8-0.8-0.8-0.8L32.1,25.8z M32.9,22.5l-0.3-0.6L32,22c0,0-0.3-0.8,0.1-1.6
			c0.2-0.4,0.4-0.6,0.9-0.9l1.1-0.6l0.2,1.3c0.1,0.6,0,0.8-0.2,1.3C33.8,22.3,32.9,22.5,32.9,22.5z M34.3,18.2l-0.9-0.9
			c-0.4-0.4-0.5-0.7-0.6-1.1c-0.1-0.8,0.4-1.5,0.4-1.5l0.6,0.4l0.5-0.5c0,0,0.7,0.5,0.8,1.3c0.1,0.5,0,0.7-0.2,1.2L34.3,18.2z
			 M32.9,10.7c0,0,0.6-0.7,1.6-0.7c0.5,0,0.8,0.1,1.3,0.5l1.2,0.8l-1.2,0.8c-0.5,0.4-0.8,0.5-1.3,0.5c-1,0-1.6-0.7-1.6-0.7l0.5-0.6
			L32.9,10.7z M40,21.3l-0.6-1C39,19.9,39,19.7,39,19.2c0-0.8,0.6-1.3,0.6-1.3l0.5,0.4l0.5-0.4c0,0,0.6,0.5,0.5,1.3
			c0,0.4-0.1,0.6-0.4,1.1L40,21.3z M40.2,22.1l1.1,0.4c0.5,0.2,0.7,0.3,0.9,0.7c0.4,0.6,0.3,1.4,0.3,1.4l-0.6-0.1l-0.2,0.6
			c0,0-0.8-0.1-1.2-0.8c-0.2-0.3-0.3-0.6-0.3-1.1L40.2,22.1z M40.9,14.5c0,0-0.9,0.2-1.7-0.4c-0.4-0.3-0.6-0.5-0.8-1.2L38,11.6h1.4
			c0.7,0,0.9,0.1,1.4,0.4c0.8,0.6,0.9,1.5,0.9,1.5l-0.8,0.2L40.9,14.5z M38.3,17.3c0,0-0.2,0.8-1,1.2c-0.4,0.2-0.7,0.3-1.3,0.1
			l-1.3-0.2l0.6-1.1c0.3-0.5,0.5-0.7,0.9-0.9c0.8-0.4,1.6-0.1,1.6-0.1L37.7,17L38.3,17.3z M37.9,14.6c-0.3,0.9-1.2,1.3-1.2,1.3
			l-0.4-0.7l-0.7,0.3c0,0-0.5-0.8-0.2-1.7c0.2-0.5,0.3-0.7,0.9-1.1l1.2-0.8l0.4,1.4C38,13.8,38,14.1,37.9,14.6z M36,19.2
			c0.6,0.1,0.8,0.2,1.1,0.6c0,0,0,0,0.1,0.1c0.2,0,0.5,0,0.9,0.1c0.4,0.1,0.6,0.3,0.9,0.7l0.6,1l-1.1,0.3c-0.5,0.1-0.8,0.1-1.2,0
			c-0.1-0.1-0.3-0.1-0.4-0.2l0,0.3c0,0-0.9,0-1.4-0.6c-0.3-0.3-0.4-0.6-0.5-1.2L34.7,19L36,19.2z M36.3,25.4
			c0.6-0.2,1.1,0.2,1.1,0.2L37.2,26l0.4,0.3c0,0-0.3,0.6-0.9,0.7c-0.3,0.1-0.5,0.1-0.9-0.1L35,26.7l0.6-0.7
			C35.8,25.6,36,25.5,36.3,25.4z M37,30.9l0-0.6c0,0,0.8-0.1,1.4,0.4c0.3,0.3,0.4,0.5,0.6,1l0.2,1.1l-1.2-0.1
			c-0.5-0.1-0.8-0.2-1.1-0.4c-0.6-0.5-0.6-1.3-0.6-1.3L37,30.9z M38,25l-0.1-0.6l-0.6,0c0,0-0.1-0.8,0.3-1.4c0.3-0.3,0.4-0.5,1-0.6
			l1.1-0.3l0,1.2c0,0.5-0.1,0.8-0.4,1.1C38.8,24.9,38,25,38,25z M39.5,30.5c0.3-0.7,1.1-1,1.1-1l0.3,0.6l0.6-0.2c0,0,0.3,0.7,0,1.4
			c-0.2,0.4-0.3,0.6-0.8,0.8l-1,0.6l-0.2-1.1C39.3,31.1,39.4,30.9,39.5,30.5z M42.6,22.1c-0.4,0.1-0.6,0.1-1.2-0.1l-1.1-0.4l0.7-0.9
			c0.3-0.4,0.5-0.6,0.9-0.7c0.7-0.2,1.4,0.2,1.4,0.2l-0.2,0.6l0.5,0.4C43.7,21.2,43.4,21.9,42.6,22.1z M43.6,17.6l0.4-0.2l-0.2-0.4
			c0,0,0.5-0.3,1-0.1c0.3,0.1,0.4,0.2,0.7,0.5l0.5,0.7l-0.8,0.2c-0.4,0.1-0.6,0.1-0.8,0C43.8,18.1,43.6,17.6,43.6,17.6z M44.6,19.1
			c0.2-0.2,0.3-0.3,0.7-0.5l0.8-0.2l0,0.8c0,0.4-0.1,0.6-0.3,0.8c-0.3,0.4-0.9,0.5-0.9,0.5l-0.1-0.4l-0.5,0
			C44.3,20.1,44.2,19.5,44.6,19.1z M45.8,17.2c-0.2-0.3-0.3-0.5-0.3-0.8c0,0,0,0,0,0l-0.1,0.1c0,0-0.7-0.4-0.8-1.2
			c-0.1-0.4-0.1-0.6,0.1-1.1l0.5-1.1l0.9,0.8c0.4,0.4,0.5,0.6,0.6,1c0,0.2,0,0.4,0,0.6c0,0,0.4,0.4,0.4,0.9c0,0.3-0.1,0.5-0.3,0.8
			l-0.5,0.7L45.8,17.2z M47.2,10.9c-0.2,0.4-0.3,0.6-0.8,0.8l-1,0.6l-0.2-1.1c-0.1-0.5-0.1-0.8,0.1-1.1c0.3-0.7,1.1-1,1.1-1l0.3,0.6
			l0.6-0.2C47.2,9.5,47.5,10.2,47.2,10.9z M42.7,10.4l0-0.6c0,0,0.8-0.1,1.4,0.4c0.3,0.3,0.4,0.5,0.6,1l0.2,1.1l-1.2-0.1
			c-0.5-0.1-0.8-0.2-1.1-0.4c-0.6-0.5-0.6-1.3-0.6-1.3L42.7,10.4z M42.6,13c0.4-0.2,0.6-0.3,1.1-0.2l1.2,0.1l-0.5,1.1
			c-0.2,0.5-0.4,0.7-0.8,0.9C43,15.2,42.2,15,42.2,15l0.1-0.6l-0.6-0.2C41.7,14.1,41.9,13.4,42.6,13z M40.8,10.6
			c-0.4,0.3-0.7,0.4-1.4,0.4H38l0.4-1.4c0.2-0.6,0.4-0.9,0.8-1.2c0.8-0.6,1.7-0.4,1.7-0.4l0,0.8l0.8,0.2C41.6,9.1,41.5,10,40.8,10.6
			z M38.8,2.4c0.3-0.4,0.5-0.5,0.9-0.7c0.7-0.2,1.4,0.2,1.4,0.2l-0.2,0.6l0.5,0.4c0,0-0.3,0.7-1.1,0.9c-0.4,0.1-0.6,0.1-1.2-0.1
			l-1.1-0.4L38.8,2.4z M37.9,3.8L39,4.2c0.5,0.2,0.7,0.3,0.9,0.7c0.4,0.6,0.3,1.4,0.3,1.4l-0.6-0.1l-0.2,0.6c0,0-0.8-0.1-1.2-0.8
			c-0.2-0.3-0.3-0.6-0.3-1.1L37.9,3.8z M37.9,8c0.2,0.5,0.2,0.8,0,1.4l-0.4,1.4L36.2,10c-0.5-0.4-0.7-0.6-0.9-1.1
			c-0.3-0.9,0.2-1.7,0.2-1.7l0.7,0.3l0.4-0.7C36.7,6.7,37.6,7.1,37.9,8z M37.4,4.9c0,0.5-0.1,0.8-0.4,1.1c-0.5,0.6-1.3,0.7-1.3,0.7
			l-0.1-0.6l-0.6,0c0,0-0.1-0.8,0.3-1.4c0.3-0.3,0.4-0.5,1-0.6l1.1-0.3L37.4,4.9z M34.3,1.7c0,0,0.7-0.4,1.4-0.1
			c0.4,0.1,0.6,0.3,0.9,0.7l0.6,1l-1.1,0.3c-0.5,0.2-0.8,0.1-1.2,0c-0.7-0.3-1-1-1-1l0.5-0.3L34.3,1.7z M34,7.6l-0.7,0.3l0.2,0.8
			c0,0-0.9,0.4-1.8-0.1c-0.5-0.2-0.7-0.4-1-1l-0.7-1.3l1.4-0.2C32.1,6,32.4,6,32.9,6.3C33.7,6.7,34,7.6,34,7.6z M30.2,4.3
			c0.1-0.7,0.2-0.9,0.6-1.3c0.7-0.7,1.6-0.7,1.6-0.7l0.1,0.8l0.8,0.1c0,0,0.1,1-0.6,1.6c-0.4,0.4-0.6,0.5-1.3,0.6L30,5.8L30.2,4.3z
			 M29.5,6.6l0.7,1.3c0.3,0.6,0.4,0.9,0.3,1.4c-0.1,0.9-0.9,1.5-0.9,1.5L29,10.2l-0.6,0.4c0.2,0.1,0.4,0.3,0.6,0.6
			c0.2,0.4,0.3,0.6,0.2,1.1L29,13.5l-1-0.5c-0.5-0.2-0.7-0.4-0.8-0.8c-0.4-0.7-0.1-1.4-0.1-1.4l0.6,0.1l0.2-0.6c0,0,0.2,0,0.4,0.2
			c-0.2-0.2-0.5-0.8-0.4-1.6c0.1-0.5,0.2-0.8,0.7-1.3L29.5,6.6z M26.4,5.4c0.5-0.1,0.8-0.1,1.4,0.2l1.3,0.6l-1,1
			c-0.5,0.5-0.7,0.6-1.2,0.7c-0.9,0.2-1.7-0.4-1.7-0.4l0.4-0.7l-0.6-0.5C24.9,6.3,25.4,5.5,26.4,5.4z M24.2,25c0,0,0.5-0.6,1.3-0.6
			c0.4,0,0.6,0.1,1.1,0.4l0.9,0.7l-0.9,0.7c-0.4,0.3-0.7,0.4-1.1,0.4c-0.8,0-1.3-0.6-1.3-0.6l0.4-0.5L24.2,25z M23,38.6l0.5-0.3
			l-0.2-0.6c0,0,0.7-0.4,1.4-0.1c0.4,0.1,0.6,0.3,0.9,0.7l0.6,1l-1.1,0.3c-0.5,0.2-0.8,0.1-1.2,0C23.3,39.3,23,38.6,23,38.6z
			 M24.8,42.7l-0.1-0.6l-0.6,0c0,0-0.1-0.8,0.3-1.4c0.3-0.3,0.4-0.5,1-0.6l1.1-0.3l0,1.2c0,0.5-0.1,0.8-0.4,1.1
			C25.5,42.6,24.8,42.7,24.8,42.7z M28.5,48.9c-0.3,0.7-1.1,1-1.1,1l-0.3-0.6l-0.6,0.2c0,0-0.3-0.8,0-1.5c0.2-0.4,0.3-0.6,0.9-0.9
			l1.1-0.6l0.2,1.2C28.7,48.3,28.7,48.5,28.5,48.9z M30.8,56l-0.6-0.3l-0.4,0.5c0,0-0.7-0.4-0.9-1.2c-0.1-0.4-0.1-0.7,0.1-1.2
			l0.5-1.1l0.9,0.8c0.4,0.4,0.6,0.6,0.7,1C31.2,55.3,30.8,56,30.8,56z M32.1,47.3L31.5,47l-0.4,0.5c0,0-0.7-0.4-0.9-1.2
			c-0.1-0.4-0.1-0.7,0.2-1.2l0.5-1.1l0.9,0.8c0.4,0.4,0.5,0.6,0.6,1C32.5,46.6,32.1,47.3,32.1,47.3z M34.4,28c0,0.4-0.1,0.6-0.3,0.9
			c-0.4,0.5-1,0.5-1,0.5L33,28.9l-0.5,0c0,0-0.1-0.6,0.3-1.1c0.2-0.3,0.4-0.4,0.8-0.5l0.9-0.3L34.4,28z M34.1,25.6
			c-0.2-0.4-0.3-0.6-0.3-0.9c0-0.6,0.5-1,0.5-1l0.4,0.3l0.4-0.3c0,0,0.5,0.4,0.4,1.1c0,0.3-0.1,0.5-0.3,0.9l-0.6,0.7L34.1,25.6z
			 M35,28.9c-0.2-0.3-0.3-0.5-0.2-0.9l0-0.9l0.9,0.3c0.4,0.2,0.6,0.3,0.8,0.6c0.4,0.5,0.2,1.1,0.2,1.1l-0.5,0L36,29.5
			C36,29.5,35.4,29.4,35,28.9z M37.9,35.3c-0.7,0.4-1.4,0.2-1.4,0.2l0.1-0.6L36,34.6c0,0,0.2-0.8,0.8-1.1c0.4-0.2,0.6-0.3,1.1-0.2
			l1.2,0.1l-0.5,1.1C38.5,34.9,38.3,35.1,37.9,35.3z M40.8,36.7l-0.6-0.3l-0.4,0.5c0,0-0.7-0.4-0.8-1.2c-0.1-0.4-0.1-0.6,0.1-1.1
			l0.5-1.1l0.9,0.8c0.4,0.4,0.5,0.6,0.6,1C41.2,36.1,40.8,36.7,40.8,36.7z M41.6,47.5l-0.5-0.4l-0.5,0.4c0,0-0.6-0.5-0.7-1.4
			c0-0.4,0-0.7,0.4-1.2l0.7-1l0.7,1c0.4,0.5,0.4,0.7,0.4,1.1C42.2,46.9,41.6,47.5,41.6,47.5z M44.1,41.2l-0.7-0.1l-0.2,0.6
			c0,0-0.8-0.2-1.2-0.9c-0.2-0.4-0.3-0.6-0.3-1.2l0.1-1.2l1.1,0.5c0.5,0.2,0.7,0.4,0.9,0.8C44.3,40.4,44.1,41.2,44.1,41.2z
			 M46.7,25.3l-0.5-0.4l-0.5,0.4c0,0-0.6-0.5-0.6-1.4c0-0.4,0.1-0.7,0.4-1.2l0.7-1l0.7,1c0.3,0.5,0.4,0.7,0.4,1.1
			C47.3,24.7,46.7,25.3,46.7,25.3z M48.1,20.2l-0.5,0l-0.1,0.4c0,0-0.6-0.1-0.9-0.6c-0.2-0.3-0.2-0.4-0.2-0.8l0-0.8l0.8,0.3
			c0.4,0.1,0.5,0.2,0.7,0.5C48.3,19.7,48.1,20.2,48.1,20.2z M48.2,18.4c-0.3,0.1-0.5,0.1-0.8,0l-0.8-0.3l0.5-0.7
			c0.2-0.3,0.4-0.4,0.7-0.5c0.5-0.2,1,0.1,1,0.1l-0.2,0.4l0.4,0.3C49,17.8,48.8,18.3,48.2,18.4z M50.4,6.9l-0.8,0.1l-0.1,0.8
			c0,0-1,0-1.6-0.7c-0.4-0.4-0.5-0.6-0.6-1.3l-0.2-1.4l1.4,0.2c0.7,0.1,0.9,0.3,1.3,0.6C50.4,5.9,50.4,6.9,50.4,6.9z"/>
	</g>
	
		<linearGradient id="SVGID_3_" gradientUnits="userSpaceOnUse" x1="-503.1549" y1="526.397" x2="-503.1549" y2="509.8548" gradientTransform="matrix(0.9119 -0.4105 0.4105 0.9119 323.2363 -624.8392)">
		<stop  offset="0" style="stop-color:#FFFFFF"/>
		<stop  offset="0.193" style="stop-color:#FFFDFD"/>
		<stop  offset="0.3929" style="stop-color:#FEF5F5"/>
		<stop  offset="0.5961" style="stop-color:#FCE6E7"/>
		<stop  offset="0.8002" style="stop-color:#F9D0D3"/>
		<stop  offset="1" style="stop-color:#F4B2BA"/>
	</linearGradient>
	<path class="st2" d="M74.7,49.2l1.6,0.8c0.7,0.4,1,0.7,1.3,1.2c0.5,1.1,0.1,2.2,0.1,2.2l-0.9-0.2l-0.4,0.9c0,0-1.1-0.3-1.7-1.4
		c-0.3-0.6-0.4-0.9-0.2-1.8L74.7,49.2z"/>
	
		<linearGradient id="SVGID_4_" gradientUnits="userSpaceOnUse" x1="-454.591" y1="569.3799" x2="-454.591" y2="552.8404" gradientTransform="matrix(0.9119 -0.4105 0.4105 0.9119 323.2363 -624.8392)">
		<stop  offset="0" style="stop-color:#FFFFFF"/>
		<stop  offset="0.193" style="stop-color:#FFFDFD"/>
		<stop  offset="0.3929" style="stop-color:#FEF5F5"/>
		<stop  offset="0.5961" style="stop-color:#FCE6E7"/>
		<stop  offset="0.8002" style="stop-color:#F9D0D3"/>
		<stop  offset="1" style="stop-color:#F4B2BA"/>
	</linearGradient>
	<path class="st3" d="M136.7,68.4l1.6,0.8c0.7,0.4,1,0.7,1.3,1.2c0.5,1.1,0.1,2.2,0.1,2.2l-0.9-0.2l-0.4,0.9c0,0-1.1-0.3-1.7-1.4
		c-0.3-0.6-0.4-0.9-0.2-1.8L136.7,68.4z"/>
	
		<linearGradient id="SVGID_5_" gradientUnits="userSpaceOnUse" x1="-1894.4865" y1="580.3264" x2="-1894.4865" y2="563.7883" gradientTransform="matrix(0.3361 -0.9418 0.9418 0.3361 149.2962 -1921.4836)">
		<stop  offset="0" style="stop-color:#FFFFFF"/>
		<stop  offset="0.193" style="stop-color:#FFFDFD"/>
		<stop  offset="0.3929" style="stop-color:#FEF5F5"/>
		<stop  offset="0.5961" style="stop-color:#FCE6E7"/>
		<stop  offset="0.8002" style="stop-color:#F9D0D3"/>
		<stop  offset="1" style="stop-color:#F4B2BA"/>
	</linearGradient>
	<path class="st4" d="M46.1,53.2l1.7-0.6c0.8-0.3,1.2-0.2,1.8,0c1.1,0.4,1.6,1.4,1.6,1.4l-0.8,0.5l0.4,0.9c0,0-1,0.6-2.2,0.2
		c-0.6-0.2-0.9-0.4-1.4-1.1L46.1,53.2z"/>
	
		<linearGradient id="SVGID_6_" gradientUnits="userSpaceOnUse" x1="-2082.1018" y1="508.1091" x2="-2082.1018" y2="497.5287" gradientTransform="matrix(0.2167 -0.9762 0.9762 0.2167 41.2871 -2096.3318)">
		<stop  offset="0" style="stop-color:#FFFFFF"/>
		<stop  offset="0.193" style="stop-color:#FFFDFD"/>
		<stop  offset="0.3929" style="stop-color:#FEF5F5"/>
		<stop  offset="0.5961" style="stop-color:#FCE6E7"/>
		<stop  offset="0.8002" style="stop-color:#F9D0D3"/>
		<stop  offset="1" style="stop-color:#F4B2BA"/>
	</linearGradient>
	<path class="st5" d="M77.5,44.5l1-0.5c0.5-0.2,0.7-0.2,1.1-0.2c0.7,0.1,1.1,0.8,1.1,0.8L80.3,45l0.3,0.5c0,0-0.6,0.5-1.4,0.3
		c-0.4-0.1-0.6-0.2-1-0.6L77.5,44.5z"/>
	
		<linearGradient id="SVGID_7_" gradientUnits="userSpaceOnUse" x1="-2080.2383" y1="561.9158" x2="-2080.2383" y2="551.332" gradientTransform="matrix(0.2167 -0.9762 0.9762 0.2167 41.2871 -2096.3318)">
		<stop  offset="0" style="stop-color:#FFFFFF"/>
		<stop  offset="0.193" style="stop-color:#FFFDFD"/>
		<stop  offset="0.3929" style="stop-color:#FEF5F5"/>
		<stop  offset="0.5961" style="stop-color:#FCE6E7"/>
		<stop  offset="0.8002" style="stop-color:#F9D0D3"/>
		<stop  offset="1" style="stop-color:#F4B2BA"/>
	</linearGradient>
	<path class="st6" d="M130.4,54.3l1-0.5c0.5-0.2,0.7-0.2,1.1-0.2c0.7,0.1,1.1,0.8,1.1,0.8l-0.5,0.4l0.3,0.5c0,0-0.6,0.5-1.4,0.3
		c-0.4-0.1-0.6-0.2-1-0.6L130.4,54.3z"/>
	
		<linearGradient id="SVGID_8_" gradientUnits="userSpaceOnUse" x1="-2045.4022" y1="556.8484" x2="-2045.4022" y2="546.2649" gradientTransform="matrix(0.2167 -0.9762 0.9762 0.2167 41.2871 -2096.3318)">
		<stop  offset="0" style="stop-color:#FFFFFF"/>
		<stop  offset="0.193" style="stop-color:#FFFDFD"/>
		<stop  offset="0.3929" style="stop-color:#FEF5F5"/>
		<stop  offset="0.5961" style="stop-color:#FCE6E7"/>
		<stop  offset="0.8002" style="stop-color:#F9D0D3"/>
		<stop  offset="1" style="stop-color:#F4B2BA"/>
	</linearGradient>
	<path class="st7" d="M133,19.2l1-0.5c0.5-0.2,0.7-0.2,1.1-0.2c0.7,0.1,1.1,0.8,1.1,0.8l-0.5,0.4l0.3,0.5c0,0-0.6,0.5-1.4,0.3
		c-0.4-0.1-0.6-0.2-1-0.6L133,19.2z"/>
	<g>
		<path class="st8" d="M105.6,46.1l0.3-0.2c0.2,0.4,0.5,0.7,0.8,0.7c0.1,0,0.3,0,0.4-0.1c0.1-0.1,0.2-0.1,0.3-0.3
			c0.1-0.1,0.1-0.2,0.1-0.3c0-0.1,0-0.3-0.1-0.4c-0.1-0.2-0.4-0.4-0.7-0.6c-0.3-0.3-0.5-0.4-0.6-0.5c-0.1-0.2-0.2-0.4-0.2-0.6
			c0-0.2,0-0.3,0.1-0.5c0.1-0.1,0.2-0.3,0.4-0.3c0.2-0.1,0.3-0.1,0.5-0.1c0.2,0,0.4,0,0.5,0.1c0.2,0.1,0.3,0.3,0.5,0.5l-0.3,0.2
			c-0.1-0.2-0.3-0.3-0.4-0.4c-0.1-0.1-0.2-0.1-0.3-0.1c-0.2,0-0.3,0-0.4,0.1c-0.1,0.1-0.2,0.2-0.2,0.4c0,0.1,0,0.2,0.1,0.3
			c0,0.1,0.1,0.2,0.2,0.3c0.1,0.1,0.2,0.2,0.5,0.4c0.3,0.3,0.6,0.5,0.7,0.7c0.1,0.2,0.2,0.4,0.2,0.6c0,0.3-0.1,0.5-0.3,0.8
			c-0.2,0.2-0.5,0.3-0.8,0.3c-0.2,0-0.5-0.1-0.7-0.2C106,46.7,105.8,46.5,105.6,46.1z"/>
		<path class="st8" d="M108.8,42.8h0.4v1.7c0.2-0.2,0.3-0.4,0.5-0.5c0.2-0.1,0.4-0.2,0.6-0.2c0.2,0,0.4,0.1,0.6,0.2
			c0.2,0.1,0.3,0.3,0.4,0.5c0.1,0.2,0.1,0.5,0.1,0.9v1.5H111v-1.4c0-0.3,0-0.6,0-0.7c0-0.2-0.1-0.3-0.3-0.4
			c-0.1-0.1-0.3-0.1-0.5-0.1c-0.2,0-0.4,0.1-0.6,0.2c-0.2,0.2-0.3,0.3-0.4,0.6c0,0.1-0.1,0.4-0.1,0.8v1.1h-0.4V42.8z"/>
		<path class="st8" d="M112.3,42.7c0.1,0,0.2,0,0.2,0.1c0.1,0.1,0.1,0.1,0.1,0.2c0,0.1,0,0.2-0.1,0.2c-0.1,0.1-0.1,0.1-0.2,0.1
			c-0.1,0-0.2,0-0.2-0.1c-0.1-0.1-0.1-0.1-0.1-0.2c0-0.1,0-0.2,0.1-0.2C112.2,42.7,112.2,42.7,112.3,42.7z M112.1,43.9h0.4v3h-0.4
			V43.9z"/>
		<path class="st8" d="M114.9,42.9l0.4,0v1.5l1.6-1.5l0.5,0l-1.9,1.8l2.1,2.2h-0.6l-1.7-1.8v1.8h-0.4V42.9z"/>
		<path class="st8" d="M118.3,42.7c0.1,0,0.2,0,0.2,0.1c0.1,0.1,0.1,0.1,0.1,0.2c0,0.1,0,0.2-0.1,0.2c-0.1,0.1-0.1,0.1-0.2,0.1
			c-0.1,0-0.2,0-0.2-0.1c-0.1-0.1-0.1-0.1-0.1-0.2c0-0.1,0-0.2,0.1-0.2C118.1,42.7,118.2,42.7,118.3,42.7z M118.1,43.9h0.4v3h-0.4
			V43.9z"/>
		<path class="st8" d="M106.1,52.4v-4l0.1,0l2.7,3v-3l0.4,0v4h-0.1l-2.6-3v3H106.1z"/>
		<path class="st8" d="M110.3,48.2c0.1,0,0.2,0,0.2,0.1c0.1,0.1,0.1,0.1,0.1,0.2c0,0.1,0,0.2-0.1,0.2c-0.1,0.1-0.1,0.1-0.2,0.1
			c-0.1,0-0.2,0-0.2-0.1c-0.1-0.1-0.1-0.1-0.1-0.2c0-0.1,0-0.2,0.1-0.2C110.1,48.3,110.2,48.2,110.3,48.2z M110.1,49.5h0.4v3h-0.4
			V49.5z"/>
		<path class="st8" d="M111.2,48.3h0.4V50c0.2-0.2,0.3-0.4,0.5-0.5c0.2-0.1,0.4-0.2,0.6-0.2c0.2,0,0.4,0.1,0.6,0.2
			c0.2,0.1,0.3,0.3,0.4,0.5c0.1,0.2,0.1,0.5,0.1,0.9v1.5h-0.4V51c0-0.3,0-0.6,0-0.7c0-0.2-0.1-0.3-0.3-0.4c-0.1-0.1-0.3-0.1-0.5-0.1
			c-0.2,0-0.4,0.1-0.6,0.2c-0.2,0.2-0.3,0.3-0.4,0.6c0,0.1-0.1,0.4-0.1,0.8v1.1h-0.4V48.3z"/>
		<path class="st8" d="M116,49.4c0.5,0,0.8,0.2,1.1,0.5c0.3,0.3,0.4,0.7,0.4,1.1c0,0.4-0.1,0.8-0.4,1.1c-0.3,0.3-0.7,0.5-1.1,0.5
			c-0.5,0-0.8-0.2-1.1-0.5c-0.3-0.3-0.4-0.7-0.4-1.1c0-0.4,0.1-0.8,0.4-1.1C115.2,49.5,115.6,49.4,116,49.4z M116,49.8
			c-0.3,0-0.6,0.1-0.8,0.4c-0.2,0.2-0.3,0.5-0.3,0.9c0,0.2,0.1,0.4,0.2,0.6c0.1,0.2,0.2,0.3,0.4,0.4c0.2,0.1,0.4,0.2,0.6,0.2
			c0.2,0,0.4-0.1,0.6-0.2c0.2-0.1,0.3-0.2,0.4-0.4c0.1-0.2,0.2-0.4,0.2-0.6c0-0.3-0.1-0.6-0.3-0.9C116.6,49.9,116.4,49.8,116,49.8z"
			/>
		<path class="st8" d="M118.3,49.5h0.4V50c0.2-0.2,0.3-0.4,0.5-0.5c0.2-0.1,0.4-0.2,0.6-0.2c0.2,0,0.4,0.1,0.6,0.2
			c0.2,0.1,0.3,0.3,0.4,0.5c0.1,0.2,0.1,0.5,0.1,0.9v1.5h-0.4V51c0-0.3,0-0.6,0-0.7c0-0.2-0.1-0.3-0.3-0.4c-0.1-0.1-0.3-0.1-0.5-0.1
			c-0.2,0-0.4,0.1-0.6,0.2c-0.2,0.2-0.3,0.3-0.4,0.6c0,0.1-0.1,0.4-0.1,0.8v1.1h-0.4V49.5z"/>
		<path class="st8" d="M124.3,49.5h0.4v2.4c0,0.4,0,0.7-0.1,0.9c-0.1,0.3-0.3,0.5-0.5,0.6c-0.2,0.1-0.5,0.2-0.9,0.2
			c-0.3,0-0.5,0-0.7-0.1c-0.2-0.1-0.4-0.2-0.5-0.3c-0.1-0.1-0.2-0.3-0.3-0.5h0.4c0.1,0.2,0.3,0.3,0.4,0.4c0.2,0.1,0.4,0.1,0.7,0.1
			c0.3,0,0.5,0,0.7-0.1c0.2-0.1,0.3-0.2,0.4-0.4c0.1-0.1,0.1-0.4,0.1-0.7v-0.2c-0.1,0.2-0.3,0.3-0.5,0.4c-0.2,0.1-0.4,0.1-0.7,0.1
			c-0.3,0-0.5-0.1-0.8-0.2c-0.2-0.1-0.4-0.3-0.6-0.5c-0.1-0.2-0.2-0.5-0.2-0.8c0-0.3,0.1-0.5,0.2-0.8c0.1-0.2,0.3-0.4,0.6-0.6
			c0.2-0.1,0.5-0.2,0.8-0.2c0.2,0,0.4,0,0.6,0.1c0.2,0.1,0.4,0.2,0.6,0.5V49.5z M123.1,49.7c-0.2,0-0.4,0.1-0.6,0.2
			c-0.2,0.1-0.3,0.3-0.4,0.4c-0.1,0.2-0.2,0.4-0.2,0.6c0,0.3,0.1,0.6,0.3,0.8c0.2,0.2,0.5,0.3,0.8,0.3c0.3,0,0.6-0.1,0.8-0.3
			c0.2-0.2,0.3-0.5,0.3-0.8c0-0.2,0-0.4-0.1-0.6c-0.1-0.2-0.2-0.3-0.4-0.4C123.5,49.8,123.3,49.7,123.1,49.7z"/>
		<path class="st8" d="M126.9,49.4c0.5,0,0.8,0.2,1.1,0.5c0.3,0.3,0.4,0.7,0.4,1.1c0,0.4-0.1,0.8-0.4,1.1c-0.3,0.3-0.7,0.5-1.1,0.5
			c-0.5,0-0.8-0.2-1.1-0.5c-0.3-0.3-0.4-0.7-0.4-1.1c0-0.4,0.1-0.8,0.4-1.1C126,49.5,126.4,49.4,126.9,49.4z M126.9,49.8
			c-0.3,0-0.6,0.1-0.8,0.4c-0.2,0.2-0.3,0.5-0.3,0.9c0,0.2,0.1,0.4,0.2,0.6c0.1,0.2,0.2,0.3,0.4,0.4c0.2,0.1,0.4,0.2,0.6,0.2
			c0.2,0,0.4-0.1,0.6-0.2c0.2-0.1,0.3-0.2,0.4-0.4c0.1-0.2,0.2-0.4,0.2-0.6c0-0.3-0.1-0.6-0.3-0.9C127.4,49.9,127.2,49.8,126.9,49.8
			z"/>
	</g>
	<g>
		<path class="st8" d="M91.6,10.6c0.8,0.2,1-0.6,1.8-0.6c0.7-0.1,1.3-0.3,2-0.6c0.6,0.1,1-0.6,1.7-0.4c0.4-0.5,1.2-0.5,1.5-1.2
			C99,7.2,98.4,6.4,98,5.8c-0.3-0.3-0.5-0.1-0.9-0.3c-0.7,0.4-0.9,1.2-1.6,1.6c-0.1,0.3-0.1,0.6-0.3,0.8C95,8,94.9,8,94.8,8.1
			c-0.6,0.1-0.8,0.6-1.4,0.8c-0.4,0.7-1.2,0.6-1.8,1.2c-0.3,0.6-0.9,0.6-1.3,0.9v0.1C90.8,11.2,91.1,10.7,91.6,10.6z"/>
		<path class="st8" d="M98.8,27.2c1.5-0.7,2.1-2.3,3.5-3c0.4-0.2,0.4-0.8,0.9-0.8c0.7-0.6,1.4-1.4,2.2-1.7c0.5-1,1.5-1.6,1.7-2.6
			c-0.1-0.1-0.2-0.3-0.4-0.3c-0.5-0.3-0.8-0.8-1-1.2c-0.5-0.3-0.9-0.1-1.4-0.1l-1.1,0.9c-0.4-0.4-0.7,0.1-1.1,0.2
			c-0.6,0.6-1.5,0.7-2.1,1.4c-0.4,0.4-1.2-0.2-1.5,0.4c-0.4,0.1-0.5-0.3-0.8-0.4c-0.1-1,0.3-1.7,0.9-2.4c0.1-0.8-0.8-1.5-0.4-2.2
			c-0.2-0.4-0.2-1,0.1-1.4c0.4-0.7,1.5-0.1,1.7-1c0.6,0.2,1-0.3,1.5-0.5c0.1,0.1,0.3,0.1,0.4,0.2c0.4,0.2,0.6-0.2,0.8-0.5
			c-0.1-0.4,0.3-0.9-0.2-1.2c-0.8-0.6-2-0.3-2.9-0.1c-0.4,0.6-1.2,0.7-1.8,1c-0.6-0.4-0.8-1.2-1.7-1c-0.4,0.2-0.2,0.6-0.2,1
			c-0.2,0.2-0.3,0.5-0.3,0.8c0,0.1-0.3,0.1-0.1,0.3c-0.1,0.3-0.3,0.6-0.7,0.7c-0.6,0.6-1.2,1-2,1c-0.8,0.7-1.8,0.7-2.6,1.2
			c-0.3,0.1-0.5,0.1-0.7,0.2c-0.5,0.4-1,0.7-1.5,0.9c-0.8,0.5-1.8,0.9-2.8,1c-0.4,0.4-1,0.4-1.4,0.6c-0.4-0.3-0.7,0.3-1,0.4
			c-0.1,0.4,0.4,0.4,0.7,0.7c0.3,0.4,0.9,0.1,1.3,0.4c0.3,0,0.8,0.1,1.1-0.3c0.5,0,0.8-0.6,1.2-0.8c0.4,0.2,0.8-0.2,1-0.5
			c0.2-0.1-0.1-0.3-0.2-0.4c-0.1-1.1,1-0.1,1.4-0.6c0.7,0.1,1.5,0.1,2.2-0.2c0.8-0.3,1.5-1,2.3-1.4c0.4,0.2,0.1,0.6,0.3,1.1
			c-0.5,1-1.7,1.3-2.5,2.2c-0.3-0.1-0.4,0.3-0.6,0.3c-0.5,0.3-1,0.5-1.5,1c-1.1,0.4-2.1,1.4-3.2,1.9c-0.7,0.6-1.3,1-2.2,1.4
			c-0.4,0.1-0.9,0.4-1.2,0.6c-0.2,0.1-0.4,0-0.6,0.2c-0.3,0.4-0.7,0.6-1.1,0.8c-0.5-0.1-0.8,0.4-1.2,0.6c-0.1,0.3,0,0.4-0.1,0.6
			c0.1,0.5-0.3,1.2,0.1,1.5c0.6,0.2,1.1,0.5,1.5,1l1.2,0.2c0.3-0.3,0.1-0.8,0.6-0.9c0.3-0.6,1-0.3,1.5-0.7c0-0.2,0.1-0.4,0.3-0.5
			c0.6-0.1,1-0.6,1.5-0.8c0.8-0.3,1.3-0.9,2.2-1.1c0.8,0.1,1.1-0.7,1.8-0.7c0.3-0.4,0.8-0.4,1.2-0.5c1-0.4,1.8-1.1,2.8-1.2
			c0.1,0.1,0.3,0.1,0.3,0.3c0,0.3,0.1,0.6-0.1,0.8c0,0.4,0.3,0.7,0.5,1c0.5,0.3,0.7-0.3,1.2-0.2c0.4-0.3,0.9-0.5,0.8-1.1
			c-0.2-0.8,0.5-1.3,0.6-2.1c0.2-0.2,0.4,0,0.7,0c0.6-0.3,1.2-0.8,1.9-0.7c0.1-0.3,0.4-0.2,0.6-0.3c0.2-0.2,0.5-0.1,0.7,0.1
			c0,0.5-0.3,0.9-0.6,1.2c-0.2,0.8-1,1.2-1.7,1.5c-0.2,0.1,0,0.3-0.2,0.3c-0.3,0.2-0.5,0.6-0.9,0.8c-0.5,0.2-0.6,0.5-1,0.8
			c-0.7,0.4-1,1.3-1.8,1.4c-0.4,0.6-1.4,0.8-1.5,1.5c-0.6,0.4-0.4,1-0.4,1.5c0.1,0.5,0.6,0.3,0.9,0.5c0.2,0.2,0.1,0.4,0.1,0.6
			c0.1,0.5-0.6,0.9-0.2,1.3c0.4,0.4,0.4,1.2,0.1,1.7c-0.2,0.3-0.5,0.4-0.8,0.5c-0.7-0.2-1.2,0.3-1.7,0.6c-0.3,0.1-0.5,0-0.7,0.2
			c-0.3,0.7-0.6,1.3-1,2c-0.6,0.5-0.4,1.3-0.8,2.1c-0.1,0.6,0.1,1.2-0.3,1.7c0.8,0.8-0.2,1.9,0.5,2.7c0.2,0.3-0.2,0.6,0,0.9
			c0.6,0.3,0.7,1.3,1.5,1.3c0.4,0.1,0.6,0.6,0.9,0.8c0.3-0.2,0.6,0.2,0.8-0.1c0.3,0.5,0.9,0.3,1.3,0.6c0.6-0.3,1.1,0.1,1.7-0.1
			c0.1-0.7,0.9-1,1.4-1.2c0.3-0.5,1.2-0.6,1.1-1.3c0.8-0.7,0.8-1.9,1.1-2.7c-0.2-0.8,0.4-1.8,0-2.7c0.1-0.7-0.2-1.3-0.3-2
			c0.3-0.5-0.3-0.7,0-1.1c0.7-0.3,1.3-0.6,2-0.9c0.6-0.4,1,0.3,1.5,0.4c0.1,0.7-0.4,1-0.6,1.6c-0.1,0.1-0.4,0.2-0.4,0.4
			c0.3-0.1,0.4-0.4,0.7-0.4c0.6-0.8,1-1.5,1.8-2c0.3,0,0.5-0.1,0.8-0.3c0.1-0.2,0.3-0.3,0.3-0.6c-0.3-0.6-0.9-0.8-1.3-1.3
			c-0.2-0.7-0.9-0.2-1.3-0.6c-0.3-0.1-0.6-0.1-0.9-0.1c-0.6-0.2-1.2,0.1-1.7,0.2c-0.4-0.1-1,0.5-1.3-0.1c-0.1-0.5-0.1-1.2-0.4-1.7
			c0.2-0.4-0.1-0.6-0.2-1c-0.5-0.3-0.9-0.8-1-1.3C97.7,28.1,98.2,27.7,98.8,27.2z M94.8,16.4c-0.3,0.1-0.5,0-0.5-0.3
			c0.1-0.1,0.1-0.4,0.3-0.4c0.2-0.1,0.3,0.1,0.4,0.2C94.8,16.1,95,16.3,94.8,16.4z M97.5,37.4c0.5,0.7,0.3,1.7,0.2,2.4
			c0.3,0.8-0.4,1.3-0.6,2.1c0,0.5-0.6,0.7-0.8,1c-0.6,0-1.1,0.2-1.3,0.8c-0.4,0.1-0.2,0.5-0.4,0.7c-0.7,0.5-1.7,0.3-2.4,0.1
			c-0.2-0.3-0.5-0.6-0.8-0.8c-0.7-0.6-0.7-1.5-1-2.4c0.4-0.7,0.1-1.7,1-2.1c0.6-0.4,1.3-1.1,2.3-0.9c0.9-0.8,1.9-0.8,3-1.2
			C97,37.1,97.2,37.2,97.5,37.4z"/>
	</g>
	<g>
		<path class="st8" d="M124.6,19.5c0.2-0.2,0.5-0.2,0.9-0.2c0.3,0.4,0.7,0.9,1.3,0.7c0.7,0.2,1.8,0.1,2.1,1c0.5,0.9,0.2,2,0.8,2.8
			c0.2,1,0.3,2.1,0.5,3c-0.1,1-1.2,1.5-1.2,2.5c-0.4,0.3-0.5,0.7-0.8,1c-0.2-0.1-0.2-0.4-0.5-0.4c-0.6,0.3-0.6,1-0.6,1.5
			c-0.2,0.7-0.9,1.2-0.6,2c-0.5,0.9-1.4,1.4-2,2.2c-0.5,0.2-0.6,1.1-1.3,1.1c-0.3,0.6-1.1,0.5-1.2,1.2c-0.8,0.5-1.6-0.3-2.4,0.2
			c-0.6-0.2-1.1-0.5-1.7-0.7c-0.2-0.2-0.6-0.3-0.9-0.3c-0.5-0.4-0.8-1.1-1.4-0.9c-0.5,0.6-0.3,1.4,0,2c-0.2,0.5-0.8,0.9-1.3,1.2
			c-0.2,0.1-0.4,0-0.4,0.2c-0.3-0.1-0.6,0.4-0.7-0.1c0.5-0.8-0.3-1.3-0.4-2c-0.2-0.2-0.1-0.4-0.1-0.7c0.2-1.4-1.5-1.8-1.4-3.1
			c-0.2-0.5,0-1.2-0.2-1.8c-0.2-0.5-0.4-0.9-0.9-1.2c-0.2-0.8-0.5-1.5-0.9-2.2c-0.2-0.3-0.8-0.3-1.1-0.6c0.7-0.8,0.2-1.7,0.5-2.6
			c0.4-0.2,0.5-0.9,1.1-0.6c0.1,0.5,0.8,0.9,0.8,1.6c0.5,0.7,1.3,1.1,1.6,1.8c0.1,0.5,0.5,0.9,0.9,0.9c0.4,0.2,0.5,0.5,0.8,0.8
			c-0.5,0.7,0.2,1.3,0.1,2c0.2,0.5,0.6,0.8,0.9,1.2c0.2,0.5-0.4,1,0.2,1.4c0.5,0.3,1,0.8,1.7,0.5c0.3-0.3,0.8-0.4,1.2-0.4
			c0.5,0.2,1.1,0.8,1.8,0.5c0.5-0.5,1.3-0.1,1.8-0.2c0.5-0.3,1.4-0.2,1.5-1c0.1-0.2,0.5-0.5,0.5-0.8c0.9-0.6,0.7-1.9,1.6-2.7
			c0-0.9,0.9-0.9,1.3-1.7c0.1-0.5,0.2-1.1,0.7-1.5c-0.2-0.7,0.8-0.9,0.3-1.6c-0.1-0.3,0.2-0.5,0.2-0.8c-0.2-0.5,0.2-1.1-0.1-1.7
			c-0.8,0.2-1.6-0.2-2.2,0.3c-0.8,0.3-1.9-0.5-2.2,0.6c-0.2,0.6-0.9,0.2-1.3,0.2c-0.5-0.3-0.9-0.4-1.4-0.6c-1.4-0.4-2.7,0.4-4.1,0.1
			c-0.2,0.1-0.2,0.1-0.4-0.1c-0.1-0.3,0.4-0.6,0.6-0.8c1.3-0.3,2.4-1.1,3.4-1.9c0.9-0.7,2.2-0.9,3.2-1.5c0.3,0.2,0.5-0.2,0.8-0.2
			C124,19.2,124.4,19.2,124.6,19.5z"/>
		<path class="st8" d="M120.7,28.6c-0.4,0.5-0.5,1.2-1.3,1.2c-0.7,0.6-1.6,1.2-2.5,0.7c-0.2-0.4-0.2-0.9-0.6-1.1l-0.5-0.2
			c-0.1-0.2,0.2-0.1,0.2-0.2c0.2-0.4,0.3-1,0.9-0.9c0.6-0.1,1.1-0.9,1.9-0.7c0.5-0.3,0.9,0.2,1.3,0.4L120.7,28.6z"/>
	</g>
	<g>
		<path class="st8" d="M143.3,20.8c0.5,0.3,1,0.4,1.4,0.8c0.1,0.2,0,0.5,0.2,0.6c0.1,0,0.4,0,0.4,0.2c-0.2,0.5,0.3,0.7,0.3,1.2
			c-0.1,0.3,0,0.5,0.4,0.6c0.8,0.6,1.5-0.2,2.4-0.2c0.6,0.2,1.2,0.3,1.6,0.8c0.1,0.5-0.4,0.3-0.6,0.5c-0.4,0.6-1.1,0.1-1.6,0.4
			c-0.3-0.1-0.6,0.3-0.9,0c-0.1,0-0.3,0-0.3,0.2c-0.8-0.1-1.2,0.7-1.5,1.3c-0.3,1-0.4,2-0.6,3c-0.3,0.3,0.1,0.5,0,0.8
			c-0.3,0.5,0.2,1,0.1,1.6c-0.1,0.3-0.3,0.6,0,0.8c-0.5,0.2-0.1,0.6-0.3,0.9c0,0.4,0.4,0.8,0,1.1c0.1,0.5,0.2,0.9,0.1,1.4
			c0.2,0.3,0,0.5,0,0.7c-0.3,0.2-0.4,0.4-0.2,0.6c0.1,0.1,0,0.4,0,0.5c0,0.2-0.1,0.3,0,0.4c0.2,0.1,0.3,0.4,0.1,0.6
			c0,0.1-0.1,0.3-0.1,0.5c0.3,0.1,0.3,0.5,0.1,0.6c-0.1,0.2-0.1,0.4,0,0.5c0.3,0.4,0.8,0.2,1.2,0.2c0.8-0.2,1.7-0.2,2.5-0.6
			c0.3-0.3,0.1-0.8,0-1.2c-0.1-0.1-0.2-0.2-0.2-0.3c0.4,0.1,0.6,0.5,0.8,0.8c0.3,0.3,0.7,0,1,0.3c0.1,0,0.3-0.1,0.3-0.2
			c0.1-0.4-0.1-0.6-0.3-0.8c-0.2-0.8-0.8-1.3-1-2.1c-0.2-0.3-0.5-0.7-0.9-0.9c-0.3-0.1-0.4,0.2-0.7,0c-0.5-0.5,0.3-0.6,0.4-0.9
			c0.5-0.4,1.2-0.2,1.7-0.4c0.3-0.1,0.5,0.4,0.8,0c0.3,0.1,0.5,0.3,0.8,0.5c0.5-0.1,0.7,0.6,1.2,0.6c0.2,0.7,1.1,0.7,1.4,1.4
			c0.7,0.4,1.3,1.1,1.9,1.6c0.1,0.4,0.8,0.2,0.6,0.7c0.1,0.4,0.7,0.4,0.6,0.9c0.2,0.4,0.9,0.5,0.7,1.1c0.1,0.4,0,1,0.4,1.2
			c0.1,0.2,0,0.3-0.1,0.4c-0.3,0.3-0.8,0.2-0.9,0.6c-0.3,0.4-0.8,0.4-1.2,0.6c-0.2,0.5-0.8,0.3-1.1,0.3c-0.4-0.2-0.6-0.7-1.1-0.7
			c-0.4-0.4-0.9-0.6-1.1-1.1c-0.5-0.2-0.9-0.6-1.2-1c-0.1-0.2-0.4-0.3-0.6-0.2c-0.5,0.2-1,0.7-1.5,0.3c-0.2-0.3-0.4-0.4-0.7-0.4
			c-0.3,0.1-0.5,0.3-0.7,0.5c0,0.4,0.1,0.9-0.4,1c-0.3,0.3-0.6,0.3-0.7,0.7c-0.5,0.1-0.7,0.7-1.2,0.8c-0.1,0.5-1.1,0.8-0.5,1.4
			c-0.1,0.6,0.3,1.1,0.1,1.7c0.6,0.5-0.3,1.2,0.4,1.6c0.1,0.4-0.1,0.7,0.3,0.9c0,0.8-0.8,1-1.1,1.5c-0.5,0-0.6,0.6-1,0.6
			c-0.4-0.3-1-0.2-1.3-0.6c-0.2-0.1-0.4,0-0.5,0c-0.5-0.6-1-1.4-1-2.3c0-0.4-0.6-0.9-0.1-1.3c0-0.3,0.2-0.6,0-0.8
			c-0.7-0.1-1.1-1-1.9-0.9c-0.5-0.1-0.8-0.7-1.3-0.8c-0.1-0.1-0.3-0.4-0.6-0.3c-0.2,0.3-0.5,0.4-0.7,0.5c-0.5,0.4-1,0.7-1.4,1.1
			c-0.4,0.4-1.1,0-1.5,0.4c-0.5,0-0.7,0.6-1.2,0.6c-0.3,0.1-0.5-0.1-0.6-0.3c-0.3-0.5,0-1,0.3-1.5c-0.1-0.4,0.3-0.7,0.4-1
			c0.1-0.9,0.5-1.6,1-2.3c0-0.7,0.7-1,0.8-1.7c0.4-0.4,0.7-0.7,0.7-1.2c0.5-0.5,0.6-1.2,1.1-1.7c0.3-0.7,0.9-1.1,1.1-1.8
			c0.5-0.4,0.9-0.9,1.3-1.4c0.2-0.4,0.4-0.7,0.5-1.2c0.2-0.1,0.4-0.6,0.8-0.6c0.2-0.3,0.9,0.2,0.8-0.5c-0.2-0.5,0.2-1.3-0.3-1.8
			c0.1-0.4,0.2-1-0.3-1.2c-0.6,0.3-1.4,0-1.9,0.5c-0.6,0.2-1.1,0.3-1.7,0.4c-0.5,0.1-1,0-1.3,0.3c-0.4,0-0.8,0.1-1.1,0
			c-0.3,0.2-0.6,0.2-0.9,0.3c-0.5,0.1-0.8,0.8-1.3,0.5c-0.4-0.3-0.7-0.6-0.9-1.1c0.1,0,0.1,0,0.2-0.2c0.4,0.2,0.9,0.1,1.2-0.1
			c0.9,0,1.5-0.7,2.2-0.9c0.4-0.5,1-0.4,1.4-0.8c0.6-0.1,1.2-0.8,1.8-1c0.9-0.2,1.6-0.8,2.4-1.1c0.2-0.4,0.4-0.9,0.3-1.3
			c0.3-0.4,0.1-0.8,0-1.1c0.2-0.5-0.2-0.9,0.1-1.4c-0.2-0.5,0.1-0.9,0.1-1.3c0.1-0.1-0.1-0.5,0.4-0.5c0.1-0.5,0.7-0.3,1-0.3
			c0.5-0.1,1-0.6,1.5-0.2C143,20.8,143.1,20.7,143.3,20.8z"/>
	</g>
	<g>
		<path class="st8" d="M177.1,50.4C177.1,50.4,177.1,50.4,177.1,50.4C177.1,50.3,177.1,50.4,177.1,50.4L177.1,50.4z"/>
		<path class="st8" d="M186.1,39.7c0-0.1-0.1-0.3-0.1-0.4c-0.2-0.2-0.3-0.4-0.5-0.6c-0.1-0.4-0.6-0.4-0.8-0.8
			c-0.4-0.4-0.9-0.4-1.4-0.5c-0.4-0.3-0.8-0.4-1.2-0.4c-0.4-0.1-1,0-1.4,0.2c-0.3,0.3-0.8,0.3-1.2,0.3c-0.3,0-0.3,0.3-0.4,0.4
			c-0.1,0-0.2,0.1-0.3-0.1c0-0.1,0-0.1,0.1-0.2c0.1-0.2,0.3-0.4,0.4-0.7c0.2-0.4,0.6-0.6,0.7-1c0.5-0.3,0.5-0.9,1-1.2
			c0-0.3,0.4-0.3,0.3-0.6c0.3-0.3,0.6-0.7,0.9-1.1c0.3-0.1,0.3-0.5,0.5-0.6c0.1-0.2,0.3-0.2,0.4-0.4c0.3-0.2,0.5-0.5,0.6-0.8
			c0.2-0.1,0.2-0.4,0.2-0.6c-0.1-0.4-0.3-0.6-0.6-0.8c-0.2,0-0.3-0.1-0.4-0.3c-0.3-0.2-0.7-0.1-1-0.1c-0.2,0.1-0.3,0-0.4,0.1
			c-0.2-0.1-0.4,0.1-0.4-0.1c0.2-0.2,0.2-0.5,0.4-0.6c0-0.2,0.2-0.3,0.2-0.5c0.3-0.3,0.4-0.7,0.7-0.9c0-0.3,0.3-0.4,0.3-0.7
			c0.3-0.3,0.4-0.7,0.5-1.1c-0.2-0.2,0.1-0.5-0.2-0.7c-0.1-0.4-0.5-0.6-0.6-0.9c-0.3-0.5-1-0.5-1.3-0.9c-0.3-0.1-0.7-0.1-1.1-0.2
			c-0.4,0-0.8,0.2-1.1,0c-0.1-0.1-0.1-0.1-0.1-0.2c0.3-0.2,0.2-0.6,0.5-0.8c0-0.4,0.4-0.6,0.4-0.9c0.1-0.1,0.2-0.2,0.3-0.3
			c0.1-0.2,0.3-0.4,0.3-0.5c0.3-0.3,0.5-0.6,0.8-0.9c0.1-0.3,0.4-0.5,0.4-0.9c0-0.4-0.3-0.5-0.5-0.8c-0.2,0-0.3-0.3-0.5-0.2
			c-0.4-0.3-0.8-0.4-1.2-0.7c-0.3,0-0.4-0.2-0.5-0.3c-0.2,0.1-0.5,0-0.6,0.2c-0.4,0.3-0.9,0.5-1.2,0.9c-0.5,0.2-1,0.5-1.5,0.7
			c-0.4,0-0.5,0.4-0.9,0.4c-0.1,0.3-0.4,0.1-0.5,0.3c-0.4,0.3-0.9,0.5-1.4,0.8c-0.2,0.1-0.3,0.3-0.5,0.3c-0.4,0.3,0.2,0.5,0.2,0.9
			c0.4,0.1,0.5,0.4,0.9,0.4c0.2,0.2,0.5,0.2,0.7,0.4c0.2,0.2,0.4,0,0.6,0.2c0.2,0.2,0.6,0.1,0.9,0.3c0.1,0.2,0,0.4-0.1,0.6
			c0,0.2,0,0.4-0.1,0.5c-0.3,0.4-0.1,0.8-0.3,1.2c-0.2,0.1-0.1,0.4-0.2,0.5c0.1,0.3-0.2,0.4-0.3,0.5c-0.1,0.1-0.3,0.2-0.4,0.3
			c-0.5,0.4-1.1,0.8-1.6,1.2c-0.2,0.4-0.5,0.6-0.9,0.8c-0.3,0.4-0.6,0.6-0.9,1c-0.1,0.1-0.2,0-0.3,0.2c-0.3,0.4-0.8,0.7-1,1.1
			c0,0.3,0.3,0.4,0.4,0.7c0.3,0.1,0.5,0.3,0.7,0.5c0.3,0.1,0.6,0.4,1,0.4c0.5,0.4,0.9-0.3,1.4,0.1c0.2,0.1,0,0.3,0,0.4
			c-0.1,0.1-0.1,0.2-0.3,0.2c-0.2,0.3-0.5,0.3-0.8,0.5c0.1,0.2,0.4,0.3,0.4,0.5c-0.1,0.3-0.1,0.6-0.2,0.8c-0.1,0.4-0.6,0.3-0.6,0.7
			c-0.5,0.3-0.8,0.8-1.3,1.2c-0.1,0.3-0.4,0.4-0.5,0.6c-0.4,0.4-0.7,0.8-1.2,1.2c-0.2,0.1-0.2,0.4-0.4,0.3c-0.1,0.1-0.2,0.2-0.3,0.3
			c0,0.1-0.2,0.2-0.3,0.2c-0.1,0-0.1,0.1-0.1,0.2c-0.2,0.1-0.5,0.2-0.7,0.2c-0.2,0-0.3,0-0.4-0.1c-0.1-0.1-0.3,0-0.3,0.1
			c0,0.3,0.2,0.5,0.2,0.8c0.2,0.3,0.4,0.6,0.6,0.7c0.3,0.4,0.7,0.6,1.1,0.8c0.3,0.3,0.6-0.1,0.9-0.1c0.3-0.3,0.7-0.4,0.9-0.8
			c0.3-0.1,0.4-0.5,0.7-0.6c0.3-0.3,0.6-0.5,0.8-0.9c0.3-0.1,0.4-0.5,0.7-0.6c0.3-0.3,0.6-0.6,0.9-0.9c0.3-0.2,0.6-0.4,0.8-0.7
			c0.1-0.2-0.3-0.1-0.2-0.4c0.1-0.2,0.3-0.2,0.4-0.3c0.2-0.4,0.8-0.2,1-0.7c0.2,0,0.2-0.3,0.4-0.2c0.2-0.3,0.6-0.2,0.8-0.4
			c0.2,0,0.3-0.3,0.4-0.4c0.3,0,0.6-0.4,0.9-0.3c0.3,0.3-0.2,0.2-0.2,0.5c0,0.2-0.2,0.5-0.4,0.5c-0.3,0.3-0.4,0.6-0.6,1
			c0.2,0.2,0.4-0.1,0.7,0.1c0,0.1,0,0.1,0,0.2c0.1,0.3-0.2,0.5-0.2,0.8c0.1-0.1,0.2-0.1,0.3-0.1c0.1,0.1,0.2,0.2,0.3,0.2
			c0,0-0.1,0.1-0.1,0.1c0,0.1,0,0.1,0,0.2c-0.1,0.3-0.2,0.5-0.4,0.7c0,0.2-0.1,0.3-0.1,0.4c-0.4,0.3-0.2,0.9-0.8,0.9
			c-0.3,0.1-0.5,0.4-0.8,0.4c-0.3-0.2,0.1-0.5,0-0.8h0c-0.1,0.2-0.2,0.4-0.4,0.7c-0.1,0.2-0.3,0.2-0.3,0.4c-0.1,0.2-0.3,0.1-0.4,0.1
			c-0.1,0.2-0.3,0.3-0.5,0.4c-0.1,0.3-0.4,0.4-0.5,0.5c-0.2,0.1-0.3,0.3-0.5,0.3c-0.4,0.2-0.9,0.4-1.2,0.8l0.1,0.7
			c0.2,0.1,0.1,0.5,0.4,0.6c-0.1,0.2,0.2,0.3,0.3,0.5c0.1,0.2,0,0.4,0.2,0.5c0,0.3,0.4,0.4,0.5,0.6c0.1,0,0.3,0.1,0.4,0
			c0.3,0.2,0.6,0.1,0.9,0.2c0,0,0-0.2,0-0.2c0,0.1,0.1,0.1,0.1,0.1c0.1-0.2,0.3-0.2,0.5-0.3c0.3,0,0.3-0.3,0.5-0.4
			c0.2-0.1,0.2-0.3,0.4-0.4c0.2-0.3,0.4-0.5,0.7-0.7c0.4-0.3,0.7-0.8,1.1-1.1c0.6-0.2,0.9-0.9,1.5-1.3c0.2,0,0.2-0.3,0.4-0.2
			c0.5,0.6-0.2,1.3-0.1,2c-0.1,0.2-0.2,0.4-0.2,0.6c0,0.7-0.4,1.3-0.5,2c-0.1,0.2-0.1,0.4-0.3,0.6c0,0.4-0.3,0.6-0.2,1
			c-0.2,0.4-0.2,0.8-0.4,1.1c-0.1,0.5-0.4,0.9-0.5,1.3c0,0.3-0.1,0.6-0.1,0.9c0.2-0.2,0.3-0.5,0.4-0.8c0.2-0.2,0.2-0.5,0.3-0.6
			c-0.1-0.3,0.1-0.5,0.1-0.8c0.2-0.1,0.2-0.2,0.2-0.4c0.3-0.5,0.5-1,0.6-1.5c0.1-0.6,0.4-1.2,0.6-1.8c0.2-0.2,0.1-0.6,0.4-0.5
			c0.1,0.1,0.2,0.1,0.2,0.2c-0.1,0.2-0.1,0.5-0.3,0.7c-0.2,0.5-0.4,0.9-0.3,1.4c-0.2,0.4-0.3,0.8-0.4,1.2c0.2-0.1,0.3,0.2,0.3,0.2
			c0.1-0.1,0.1-0.2,0.1-0.3c0.3-0.2,0.3-0.5,0.4-0.8c0.3-0.3,0.3-0.7,0.5-1.1c0.2,0,0.3-0.1,0.5,0c0.1,0.1,0.2,0.3,0.2,0.4l0.2-0.2
			c0-0.1,0.1-0.2,0.3-0.2c0.1,0.1,0.1,0.2,0.2,0.3c0.2-0.1,0.2-0.4,0.4-0.5c0.2-0.1,0.3,0,0.4,0c0-0.1,0-0.3,0.2-0.3
			c0.2-0.1,0.2,0.2,0.4,0.3c0.1-0.2,0.2-0.4,0.3-0.5c0-0.2,0.3-0.4,0.3-0.5c0.3-0.3,0.4-0.8,0.7-1.1c0.1-0.4,0.4-0.7,0.5-1
			c0.4-0.4,0.5-0.9,0.8-1.4C186,40.4,186.2,40.1,186.1,39.7z M177.5,28.3c0,0.2-0.3,0.4-0.2,0.6c-0.2,0.2-0.2,0.4-0.4,0.6
			c-0.2,0.3-0.3,0.5-0.4,0.8c-0.4,0.2-0.6,0.6-1,0.6c-0.1,0-0.1,0.1-0.2,0.1c-0.3-0.4,0.1-0.9,0.3-1.3c0.2-0.1,0-0.3,0-0.4
			c0.1-0.3,0.4-0.6,0.4-1c0.3-0.3,0.2-0.7,0.5-1c0.3-0.3,0.8-0.5,1.2-0.5l0.1,0.2C177.9,27.5,177.5,27.9,177.5,28.3z"/>
		<path class="st8" d="M159.1,22.4l0.5,0.5l0.5-0.5c0,0,0.1-0.1,0.3-0.1c0.2-0.1,0.5-0.2,0.8-0.5c0.3-0.2,0.5-0.4,0.8-0.6
			c0.2-0.2,0.4-0.4,0.5-0.4l0.2-0.1l0.1-0.2c0-0.1,0.1-0.1,0.4-0.2c0.4-0.1,1-0.3,1.3-1c0.1-0.3,0.1-0.5,0-0.7
			c-0.1-0.1-0.1-0.2-0.2-0.3c0-0.1,0-0.3-0.1-0.5l-0.1-0.3l-0.3-0.1c-0.2-0.1-0.4-0.2-0.6-0.3c-0.3-0.1-0.5-0.2-0.8-0.3l-0.1-0.1
			l-0.2,0.1c0,0-0.1-0.1-0.2-0.1c-0.2-0.1-0.6-0.4-1.1-0.2l-0.4,0.1l-0.1,0.4c-0.1,0.3-0.1,0.6-0.1,0.9c0,0.1,0,0.2,0,0.3
			c0,0.1-0.1,0.1-0.1,0.2c-0.3,0.3-0.7,0.8-0.6,1.4c0,0.1-0.1,0.2-0.1,0.3c-0.1,0.4-0.3,0.7-0.5,0.9l-0.2,0.1l-0.1,0.2
			C158.6,21.2,158.4,21.9,159.1,22.4z"/>
		<path class="st8" d="M165.7,36.7l0.4-0.8l-0.8-0.2c0,0,0,0,0,0c-0.1-0.1-0.1-0.3-0.3-0.5l-0.2-0.2l-0.2,0c-0.1,0-0.2-0.2-0.3-0.3
			l-0.2-0.3l-0.1,0c-0.2-0.2-0.4-0.3-0.6-0.3c-0.1-0.1-0.2-0.1-0.3-0.2l0,0c-0.1-0.3-0.4-0.5-0.6-0.6c0,0,0-0.1,0-0.1
			c0.1-0.4,0.2-0.7,0.4-0.8l0.2-0.1l0.1-0.2c0.2-0.1,0.6-0.3,0.6-0.8l0.2,0l0.2-0.3c0.1-0.1,0.2-0.2,0.4-0.3
			c0.2-0.1,0.4-0.3,0.6-0.5l0.1-0.2c0.3-0.7-0.3-1.2-0.5-1.3c0,0-0.1-0.1-0.1,0c-0.3-0.9-1.1-0.9-1.5-0.9c-0.1,0-0.3,0-0.4-0.1
			l-0.5-0.3l-0.4,0.4c-0.2,0.2-0.4,0.2-0.7,0.3c-0.2,0.1-0.4,0.1-0.6,0.2c0,0-0.1,0-0.1,0l0,0l0-0.1c0-0.1,0.1-0.1,0.1-0.2
			c0.1-0.2,0.2-0.3,0.3-0.5c0.3-0.4,0.7-0.6,1.1-0.9c0.4-0.3,0.9-0.6,1.3-1c0.2,0,0.6-0.1,0.8-0.4l0.1-0.3c0,0,0.2,0,0.3,0
			c0.2,0,0.6-0.1,0.9-0.3c0.7,0,1.1-0.5,1.5-0.9l0.4-0.4v-0.1l0.2-0.1v-1.4L167,22c0,0,0,0,0,0l-0.2-0.4l-0.4,0
			c-0.2-0.1-0.5-0.2-0.9,0c-0.5,0.1-0.8,0.4-1.2,0.6c-0.1,0.1-0.3,0.2-0.4,0.3c-0.4,0-0.8,0.2-1,0.4c-0.2,0.1-0.4,0.2-0.5,0.2
			l-0.3,0l-0.1,0.2c-0.2,0-0.7,0-1,0.4c-0.2,0.1-0.3,0.2-0.5,0.3c-0.2,0.1-0.3,0.2-0.4,0.2l-0.5,0.1l-0.1,0.2c-0.1,0-0.2,0-0.3,0.1
			c-0.7-0.1-1.2,0.3-1.6,0.5c-0.1,0.1-0.3,0.2-0.4,0.2c-0.7-0.3-1.3,0.2-1.7,0.4c-0.1,0.1-0.3,0.2-0.4,0.3l-0.5,0.2l0.1,0.5
			c0.1,0.5,0.4,0.8,0.6,1c0.1,0.1,0.2,0.1,0.2,0.1l0,0.3l0.3,0.2c0.4,0.4,0.9,0.3,1.2,0.1c0.3,0.1,0.7,0,1.1-0.5l0.2,0l0.2-0.3
			c0-0.1,0.1-0.1,0.3-0.2c0.2-0.1,0.3-0.1,0.5-0.3l0.2-0.1l0.1-0.3c0,0,0.2-0.1,0.3-0.1l0,0.1c0,0.1-0.1,0.2-0.1,0.2
			c-0.1,0.2-0.3,0.5-0.3,0.8c-0.1,0.1-0.2,0.3-0.3,0.6c0,0.4,0.2,0.7,0.4,0.9l0.1,0.2l0.1,0.1c0.1,0.2,0.3,0.4,0.7,0.5
			c0.2,0.1,0.3,0.2,0.5,0.2c0,0,0,0.1,0.1,0.1c0.1,0.1,0.2,0.2,0.2,0.2c0,0,0,0.1,0,0.1c0,0.2-0.1,0.3-0.1,0.5
			c-0.1,0.3-0.1,0.4-0.2,0.5l-0.1,0.1l0,0.2c-0.1,0.7-0.1,1.5-0.1,2.1l0,0.7l0.2,0.2c0.2,0.2,0.3,0.4,0.4,0.6
			c0.1,0.1,0.1,0.2,0.2,0.3c0,0,0,0,0,0l0,0c0,0,0,0,0,0c-0.2,0.4-0.2,0.8-0.2,1.1c0,0.2,0,0.3,0,0.3l-0.2,0.3l0.1,0.3
			c0.1,0.2,0,0.5,0,0.8c0,0.4,0,0.8,0.1,1.1c0,0.1-0.1,0.2-0.2,0.3c-0.2,0.3-0.5,0.8-0.3,1.4c-0.1,0.4,0.1,0.8,0.2,1
			c0.1,0.3,0.1,0.3,0.1,0.4l-0.2,0.3l0.2,0.3c0,0,0,0.1,0.1,0.1l0,0.1l0.2,0.2c0,0,0,0.1,0,0.2c0,0.2,0,0.4,0.2,0.7
			c0,0.2,0.1,0.5,0.4,0.7c0,0.1,0,0.2,0.1,0.4l0.1,0.2c0.1,0.2,0.3,0.6,0.8,0.7c0.1,0,0.1,0.1,0.3,0.3c0.1,0.2,0.2,0.3,0.4,0.5
			l0.2,0.1c0.1,0.1,0.3,0.1,0.4,0.1c0.3,0,0.6-0.2,0.7-0.3l0.1-0.1c0.5-0.4,0.6-0.9,0.6-1.2c0-0.1,0-0.2,0.1-0.3l0.1-0.1l0-0.2
			c0.1-0.5-0.1-1-0.3-1.2c0-0.1-0.1-0.2-0.1-0.2l0-0.2l-0.1-0.2c-0.3-0.5-0.8-0.6-1.1-0.6c-0.1,0-0.1,0-0.2,0
			c-0.1-0.2-0.3-0.4-0.5-0.6c-0.2-0.2-0.3-0.3-0.4-0.5l0-0.2c0.3-0.4,0.3-0.8,0.3-1c0,0,0-0.1,0-0.1c0.3-0.3,0.5-0.6,0.7-0.9
			c0.1-0.1,0.1-0.2,0.2-0.3c0.5-0.3,0.7-0.9,0.7-1.2c0-0.2,0.1-0.4,0.2-0.4l0.1-0.1l0,0c0.2-0.1,0.4-0.3,0.5-0.7l0.1-0.2l-0.2-0.2
			C165.6,36.9,165.6,36.8,165.7,36.7z"/>
	</g>
	<g>
		<path class="st9" d="M76.1,37.7C76.1,37.8,76.1,37.8,76.1,37.7C76,37.8,76.1,37.8,76.1,37.7z"/>
		<path class="st9" d="M78.6,27.8c0.1-0.1-0.1-0.1-0.1-0.1c0-0.2-0.3,0-0.3-0.2c0-0.1-0.2-0.1-0.4-0.1c-0.1,0-0.1-0.2-0.2-0.3
			c-0.1,0-0.2,0.1-0.3,0c0-0.1,0-0.1,0-0.2c-0.3-0.2,0.1-0.2,0.1-0.4c-0.1-0.2-0.3-0.1-0.5-0.2c-0.2-0.3-0.3,0.1-0.5,0.1
			c-0.1-0.1-0.2,0.1-0.3,0c-0.1,0-0.2-0.2-0.1-0.3c-0.1-0.1,0-0.3,0-0.4c0,0-0.1-0.1-0.2,0v0.1c-0.2,0.1-0.1,0.4-0.3,0.4
			c-0.1,0-0.1-0.2-0.2-0.3c0.1-0.1-0.1-0.1-0.1-0.2c-0.2,0-0.2-0.3-0.4-0.2c-0.1-0.2-0.3-0.2-0.5-0.3C74,25.4,74,24.9,73.6,25
			c-0.2,0.1-0.4,0-0.6-0.1c-0.1-0.1-0.3,0-0.4-0.1c-0.2,0.1-0.3-0.1-0.5-0.1c-0.1,0-0.1-0.2-0.2-0.2c-0.1,0.1-0.3-0.1-0.4-0.1
			c-0.1,0-0.1,0.1-0.1,0.1c-0.3,0-0.5,0.1-0.8,0c-0.1,0-0.2-0.1-0.1-0.2c0-0.1-0.1-0.1-0.2-0.1c-0.1,0-0.1,0.1-0.2,0.2
			c-0.2,0-0.4,0.2-0.6,0c0-0.1,0-0.2-0.1-0.3c-0.1,0.1-0.1,0.2,0,0.3c0,0.2-0.3,0.1-0.3,0.4c-0.1,0.1-0.3,0.1-0.4,0.1
			c-0.1,0.1-0.1,0.3-0.3,0.3c-0.1,0-0.2-0.2-0.3-0.3c-0.1,0-0.2,0.1-0.3,0.2c-0.1,0.1-0.3-0.1-0.4,0.1c-0.2,0-0.4,0.1-0.5,0.1
			c-0.1-0.1-0.2,0-0.4,0c-0.1-0.1-0.3-0.1-0.5-0.1c-0.1,0.1-0.2,0.3-0.3,0.4c0,0.1-0.1,0.2,0,0.3c0.1,0,0.2,0,0.3,0
			c0.1,0.2,0.3,0.2,0.4,0.4c0,0.1-0.1,0.1-0.2,0.1c-0.2-0.1-0.5-0.2-0.7-0.4c-0.1-0.1,0-0.4-0.2-0.4c-0.1,0-0.1,0-0.2,0
			c-0.2,0.3-0.6,0-0.9,0.3c-0.2,0-0.3,0-0.5,0c-0.2,0-0.2,0.2-0.3,0.3c-0.2,0.1,0.1,0.1,0.1,0.2c0,0-0.1,0.1-0.1,0.1
			c-0.1-0.1-0.4,0-0.5,0c-0.3,0.2-0.6,0.2-0.8,0.4c-0.1,0-0.1-0.1-0.1-0.1c0.1-0.2,0-0.4-0.1-0.6c-0.1,0-0.1-0.3-0.3-0.2
			c0,0.2-0.2,0.4-0.2,0.6c0.1,0.1,0.2,0.2,0.2,0.3c-0.2,0.1-0.2,0.3-0.4,0.4c-0.2,0-0.4,0.1-0.6,0.2c-0.2-0.1-0.4-0.3-0.7-0.2
			l-0.1,0.2c0,0-0.1,0-0.1,0c-0.1-0.1,0-0.2,0-0.3c-0.2,0-0.1-0.2-0.2-0.2c-0.1,0-0.1,0.2-0.1,0.3c0,0.2-0.2,0.1-0.4,0.1
			c-0.1,0-0.1-0.1-0.1-0.2c-0.1,0.3-0.3-0.1-0.5,0.1c-0.1-0.1-0.1,0.1-0.2,0.2c0,0-0.1,0-0.1,0c-0.1-0.1-0.3,0-0.3,0.1
			c-0.1,0-0.2,0-0.2,0c-0.1,0-0.3,0-0.3,0.1c0,0.1,0,0.2,0.1,0.3c0,0.1,0,0.1,0,0.1c-0.1,0-0.1,0-0.2,0v0.2c-0.1,0.1-0.3,0-0.4,0.2
			c0,0.2-0.2,0.3-0.1,0.4c0,0.1-0.2,0-0.3,0.1c-0.2,0-0.3,0.1-0.5,0c-0.2,0.1-0.4-0.1-0.5-0.1c-0.2,0.1-0.4,0-0.7,0
			c-0.2,0-0.4,0-0.7,0c-0.1-0.1-0.2-0.1-0.3-0.1c-0.1,0.1-0.2,0-0.3-0.1c-0.1,0-0.2,0.2-0.2,0.3c0,0.3-0.2-0.1-0.3,0.2
			c0,0.3-0.3,0.4-0.5,0.5c0,0.1-0.2,0.2-0.2,0.3H52c0.2,0,0.3,0.2,0.5,0.2c0.2,0,0.4,0,0.6,0c0.2,0.2,0.5,0.2,0.9,0.3
			c0.2,0.1,0.4,0,0.5,0v0c0,0,0,0,0,0.1c0.1,0.1,0,0.2,0,0.3c-0.1,0.1-0.2,0-0.2-0.1c-0.1,0-0.2,0.1-0.3,0.1c-0.1,0-0.2,0.2-0.3,0.3
			c0,0,0,0.1,0.1,0.1c0.1,0,0.3,0,0.4,0c0.1,0.1,0,0.2,0.1,0.3c0.1,0,0.1-0.1,0.2-0.1c0.1-0.1,0-0.3,0-0.4c0.1-0.2,0.4-0.1,0.5-0.1
			c0.2-0.2,0.4,0.1,0.6,0c0.1-0.1,0-0.1-0.1-0.2c0,0,0-0.1,0-0.1c0.1-0.1,0.2,0,0.3,0.1c0.2,0,0.3-0.2,0.5-0.1
			c0.1,0,0.1-0.1,0.1-0.2c-0.2,0.1-0.4,0.1-0.6-0.1c0-0.3,0.3-0.1,0.5-0.2c0.1,0,0.1,0.2,0.1,0.3c0.1,0,0.3,0,0.4,0
			c0.1,0,0-0.1,0.1-0.2c0.2,0,0.3,0.3,0.6,0.2c0.1-0.2,0.4-0.1,0.4-0.2c0-0.1,0.1,0,0.1,0c0.1,0,0,0.1,0,0.1c0.2,0.1,0,0.4,0.1,0.5
			c0.1-0.1,0.3-0.1,0.5-0.1c0.1,0,0.2,0,0.2-0.1c-0.1-0.2-0.4-0.4-0.3-0.7c0-0.2-0.3-0.3-0.1-0.5c0.2,0,0.3-0.2,0.4,0
			c0,0.1,0,0.1,0,0.2c-0.2,0.4,0.4,0,0.4,0.3c0.2,0.2,0.2,0,0.4-0.1c0-0.1,0.1-0.2,0.2-0.3c0-0.2-0.2-0.1-0.3-0.3
			c-0.2-0.3,0.2-0.2,0.3-0.4c0-0.1,0-0.2,0-0.3c0.1-0.2,0.5-0.1,0.7-0.2c0-0.1,0-0.2,0-0.2c0-0.1,0.1-0.1,0.1-0.2
			c0.2,0,0.4-0.2,0.6,0c0,0.2-0.3,0.2-0.3,0.4c-0.2,0.1-0.3,0.3-0.5,0.5c-0.1,0.1-0.3,0.1-0.4,0.3c0,0.1,0.1,0,0.2,0.1
			c0.2,0,0,0.2,0.1,0.3c0.3,0.1,0.4-0.1,0.6-0.3c0-0.2,0.3-0.2,0.4-0.4c0.2-0.2,0.3-0.4,0.4-0.6c0.1-0.1,0.2,0,0.3,0.1
			c0.3,0.1,0.6,0.1,0.9,0c0.2,0,0.4-0.1,0.6,0c0.2,0,0-0.2,0.1-0.3c0.1,0,0.1,0,0.2,0.1c0.1,0.1,0,0.2,0,0.3
			c0.2,0.1,0.1-0.2,0.3-0.2c0.1,0,0.1,0,0.2,0.1l0-0.4c0-0.1,0.1-0.1,0.2-0.1c0,0,0.1,0.1,0.1,0.1c0.1,0.1,0.2,0.3,0.3,0.4l0,0
			c0.1-0.1,0-0.2-0.1-0.3c0-0.1,0-0.2,0.1-0.2c0.2,0,0.3-0.2,0.5-0.2c0.2,0.2,0.4-0.2,0.6,0c0.2,0,0.1-0.2,0.2-0.3
			c0.1,0,0.1,0,0.2,0.1c0.1,0,0.1,0.2,0.2,0.2c0.1-0.1,0.2-0.1,0.2-0.2c0.3-0.2,0.7-0.3,1.1-0.3c0.1,0.2,0.3,0.3,0.4,0.4
			c0.1,0.1,0.2,0.2,0.4,0.2c0.2-0.3-0.2-0.2-0.3-0.4c0-0.1,0-0.3,0-0.4c0.1-0.1,0.2,0,0.3,0c0.2-0.1,0-0.3,0.1-0.5c0,0,0,0,0.1,0
			c0.1,0.1,0.1,0.3,0.2,0.4c0.1,0.1,0.3,0,0.4,0.2c0,0,0.1,0,0.2,0c0.1-0.4,0.5-0.1,0.7-0.2c0.2,0.1,0.4,0,0.6,0.2
			c0.2-0.1,0.4,0.1,0.6,0c0.1,0.1,0.3,0,0.5,0c0.1,0.1,0.3,0,0.4,0.1c0.1,0,0.2-0.1,0.3-0.1c0.1,0,0.2,0.1,0.2,0.2
			c0.2,0.1,0.3,0.4,0.6,0.3c0.1,0.1,0.2-0.1,0.4-0.1c0.2,0.2,0.3,0.5,0.5,0.7h0.1c0.1,0,0.1,0.1,0.1,0.2c0.2,0.1,0.1-0.2,0.2-0.3
			c0.1-0.1,0.3,0.1,0.4,0.1c0,0.1,0.1,0.2,0.2,0.2c0,0.1,0,0.1,0,0.2c0.1,0.1,0.3-0.1,0.4,0.1c-0.1,0.3,0.4,0.4,0.4,0.7
			c0,0.1-0.1,0.1-0.2,0.2c-0.1,0.2,0.1,0.2,0.1,0.4c-0.1,0.1-0.1,0.3-0.2,0.4c-0.3,0.2-0.2,0.5-0.2,0.8c0.1,0.1,0.2,0.1,0.2,0.2
			c0,0.1-0.2,0.1-0.3,0.2c0,0.1,0,0.3,0,0.4c0,0.3-0.1,0.6-0.1,1c0.1,0,0.3-0.2,0.4-0.1c0,0.1,0,0.1,0,0.2c0.1,0.1,0,0.2,0,0.3
			c0,0-0.1,0-0.2,0c-0.1-0.1-0.2,0.1-0.3,0.1c0,0.1,0,0.1,0,0.2c-0.2,0,0,0.2-0.2,0.3c-0.1,0-0.3,0.1-0.4,0c0,0.1,0,0.2,0,0.3
			c0,0.2-0.2,0-0.3,0c0,0.2,0.3,0.2,0.3,0.4c0,0.1,0,0.1,0,0.2c-0.1,0.1,0,0.3-0.1,0.5c0.1,0.1,0.3-0.1,0.4,0c0.1,0.1,0,0.3,0,0.4
			c0,0.1-0.1,0.2-0.2,0.2c-0.2,0,0,0.2-0.1,0.3c-0.1,0-0.1,0-0.2,0c0-0.1,0-0.2,0.1-0.3c0.2-0.3-0.4-0.3-0.3-0.6
			c-0.1,0-0.2,0-0.3-0.1c-0.2,0.1,0.1,0.2,0,0.4c0,0.1,0.1,0.1,0.2,0.1c0.1,0,0.2,0.1,0.2,0.2c0,0.2-0.2,0.2-0.4,0.3
			c-0.4-0.2,0,0.3-0.3,0.3c0,0-0.1-0.1-0.1-0.1c-0.1,0.1-0.2,0.2-0.2,0.3c0.1,0.1-0.1,0.2,0,0.3c0,0.1-0.1,0.1-0.2,0.1
			c-0.1,0,0,0.1,0,0.1c0.1,0.2,0.2,0,0.4,0c0.3-0.2,0.7,0.1,1,0c0.2,0,0.2,0.2,0.2,0.4c0,0.3-0.4,0.1-0.5,0.3c-0.1,0-0.2,0-0.3,0.1
			c-0.1,0-0.2-0.1-0.3-0.1c-0.1,0.2,0,0.4-0.2,0.6c-0.1,0.1-0.3,0-0.4,0c-0.3,0-0.1-0.3-0.3-0.4c-0.1-0.1,0.1-0.2,0-0.4
			c-0.2-0.2-0.4,0.1-0.6,0c-0.1,0.2,0.2,0.2,0.3,0.3c0,0.2,0.1,0.3,0,0.5c-0.1,0-0.2,0-0.3-0.1c-0.1,0-0.1,0.1-0.2,0
			c-0.2-0.1-0.1-0.3-0.1-0.5c-0.2-0.1-0.4-0.2-0.5-0.1c0,0.1,0,0.1,0,0.2c0,0.2-0.2,0.1-0.3,0.1c-0.1,0-0.2,0.2-0.4,0.1
			c-0.1,0-0.1,0-0.1,0.1c-0.2,0-0.2,0.2-0.4,0.1c0-0.1-0.1,0-0.2-0.1c-0.2,0,0-0.2-0.2-0.3c0,0.1-0.1,0.2-0.2,0.2
			c-0.1,0-0.3,0-0.4,0c-0.2,0.1-0.5,0-0.6,0.2c-0.2,0.1-0.3-0.1-0.5-0.1c-0.1,0,0-0.1-0.1-0.2c-0.1,0-0.2,0-0.2,0
			c-0.1,0.2-0.4,0-0.5,0.1c-0.2,0-0.2-0.2-0.3-0.3c-0.1-0.1-0.2,0.1-0.3,0.1c-0.3,0.1-0.2-0.3-0.4-0.4c-0.1,0-0.2,0-0.3,0.1
			c0.1,0.2-0.1,0.4-0.3,0.5c-0.1,0-0.2,0-0.2,0c-0.1,0-0.2-0.1-0.4-0.1c-0.1,0-0.1,0.1-0.1,0.2c-0.1,0-0.1-0.1-0.2-0.1
			c-0.3,0,0,0.4-0.2,0.5c-0.1,0.1-0.2,0-0.3,0.1c-0.1,0-0.1-0.1-0.1-0.2c0.1-0.1,0.2-0.3,0.2-0.4c-0.2-0.1-0.1-0.3-0.2-0.4
			c-0.1,0.1-0.2,0.1-0.2,0.2c0,0.1-0.1,0.1-0.2,0.1c-0.1,0-0.1-0.1-0.1-0.2c-0.1,0-0.1,0.1-0.2,0.2c-0.1,0-0.3,0-0.4-0.1
			c-0.3,0,0,0.4-0.2,0.5c-0.1,0.1-0.2,0-0.2,0c-0.1,0,0,0.1-0.1,0.1c-0.1,0-0.3-0.1-0.4-0.2c-0.1,0-0.3,0-0.4,0
			c0,0.1,0.2,0.1,0.2,0.2c0,0.1,0.2,0.3,0,0.4c-0.1,0-0.2,0-0.3,0c-0.2,0.1-0.3,0-0.4,0c-0.1,0.2-0.3,0.1-0.4,0.3
			c-0.1,0-0.3,0.1-0.3,0c0-0.1,0-0.2,0.1-0.3c0.1-0.3-0.3-0.2-0.3-0.4c-0.1,0-0.1,0.1-0.1,0.1c0,0.2,0.1,0.2,0.2,0.3
			c-0.1,0.1,0.2,0.3,0,0.4c-0.1,0.1-0.3,0.1-0.4,0.2c-0.3-0.2,0.2-0.3,0.1-0.6c0,0,0,0-0.1-0.1c-0.1,0-0.1,0.1-0.1,0.1
			c-0.1,0-0.1-0.1-0.2-0.1c0,0.1,0.1,0.2,0.1,0.3c0,0.1,0,0.1-0.1,0.1c-0.2,0.2-0.4,0.4-0.7,0.5c-0.2,0-0.1,0.3-0.3,0.3
			c-0.3,0-0.5,0.1-0.7,0.1c-0.1,0-0.2-0.2-0.3-0.1c-0.2-0.2-0.3,0-0.5,0c-0.1,0.1-0.1,0.2-0.2,0.2c-0.1-0.2-0.4-0.3-0.5-0.4
			c-0.2-0.1-0.3-0.1-0.5-0.2c0-0.2-0.3-0.3-0.4-0.3c0,0,0,0.1-0.1,0.1c-0.1,0-0.1-0.2-0.1-0.3c0,0-0.1,0-0.1,0c0-0.1,0-0.2,0.1-0.2
			c0.1-0.1-0.1-0.2-0.1-0.3c-0.3,0,0,0.3-0.3,0.4c0,0.1,0.2,0.1,0.2,0.2c0,0.2-0.2,0-0.4,0.1c-0.2-0.1-0.4-0.2-0.4-0.4
			c0-0.1-0.2-0.1-0.3-0.1c-0.2,0-0.2-0.3-0.4-0.3c-0.2,0-0.1-0.3-0.3-0.4c-0.1,0-0.2,0.1-0.1,0.2c0,0.1-0.1,0.2-0.2,0.2
			c-0.2-0.1-0.3-0.3-0.3-0.4c0.1-0.1,0-0.2,0-0.4c0,0,0-0.1,0.1-0.1l-0.1-0.2c-0.1-0.1,0-0.3-0.1-0.4c-0.1-0.2,0.1-0.4,0.2-0.5
			c0-0.1-0.2,0-0.2-0.2c0-0.1-0.1,0-0.1,0.1c-0.1,0-0.1,0-0.1-0.1c0-0.1,0-0.3,0.1-0.4c0.1-0.1,0.2,0,0.2,0c0.1,0,0-0.1,0.1-0.2
			c0-0.1,0.2-0.1,0.2-0.2c-0.1-0.2-0.4-0.3-0.4-0.5c-0.1,0-0.1,0-0.2-0.1c0-0.1,0-0.4-0.1-0.4c-0.1-0.1,0-0.2,0-0.3
			c0-0.1-0.1-0.1-0.2-0.1c-0.1-0.1,0-0.2,0-0.3c-0.1-0.1-0.3-0.3-0.2-0.5c0-0.2,0.3,0,0.3-0.2c0.1-0.1,0-0.2-0.1-0.3
			c0,0-0.1,0-0.1,0c-0.2,0.1-0.2-0.2-0.3-0.3c0-0.3-0.4-0.3-0.3-0.5c0,0-0.1-0.1-0.1,0c-0.1-0.1-0.2-0.1-0.2-0.2c0,0-0.1,0-0.1,0
			c-0.2,0.3-0.7,0.2-0.7,0.6c0,0.3-0.4,0.2-0.6,0.3c0.1,0.3-0.3,0.1-0.4,0.3c0,0,0,0.1,0,0.1c0,0.1,0,0.2,0,0.2
			c0,0.1,0.1,0.2,0.2,0.3c0.1,0.1-0.1,0.3-0.1,0.4c0,0.1,0,0.3-0.1,0.4c0,0.1,0,0.2,0.1,0.2c-0.1,0.1-0.1,0.3-0.1,0.5
			c0.1,0,0.2,0.1,0.3,0.2c0.1,0.1-0.1,0.2-0.1,0.4c0,0.1-0.1,0.3,0.1,0.3c0,0.2-0.1,0.3-0.2,0.4c0,0.1,0,0.2,0,0.3
			c0.1,0.1,0.1,0.3,0.1,0.4c-0.1,0.1-0.2,0.3-0.2,0.5c0,0.2,0.1,0.2,0.2,0.4c0.1,0.2-0.2,0.3,0,0.5c-0.1,0.1-0.2,0.1-0.3,0.1
			c-0.1,0,0,0.2,0,0.3c0,0.1-0.1,0.1-0.1,0.1c-0.1-0.1-0.3-0.2-0.2-0.4c0-0.1-0.1,0-0.1,0c0,0.2,0,0.4,0,0.5c0.2,0,0.3,0.1,0.4,0.1
			c0.2,0.1,0.2,0.4,0.3,0.6c0.1,0.3,0.5,0.3,0.4,0.6c0,0.2,0.3,0.1,0.4,0.2c0.1,0.2-0.2,0-0.2,0.2c0.1,0.1,0.2,0.1,0.4,0.1
			c0.1,0.1,0,0.2,0,0.3c0,0,0.1,0,0.1,0l0-0.2c0-0.1,0.1,0,0.1-0.1c0.1,0,0.1,0.2,0.2,0.3c0.2,0,0.1,0.3,0.3,0.2
			c0.1-0.1,0.2,0.2,0.3,0.1c0,0,0-0.1,0-0.1c0-0.2-0.1-0.4,0.1-0.5c0.1,0,0.1-0.2,0.3-0.1c0.1,0.2,0.4,0.1,0.5,0.3
			c0.1,0.3-0.3,0.1-0.4,0.4l0.1,0.1c0.1,0.1,0,0.2,0.1,0.4c-0.2,0.2-0.4,0-0.6,0.2l0.1,0.1c0.1,0.1,0.2,0,0.3,0
			c0.2,0,0.3-0.3,0.4-0.5c0.1,0,0.2,0,0.2,0c0.3,0.1,0.4-0.2,0.5-0.3c0.1,0,0.2-0.1,0.3,0c0.1,0.2,0.3,0.1,0.4,0.3
			c0.1,0.2,0.3,0.3,0.3,0.6c0,0.1,0.1,0.2,0.2,0.2c0.1,0,0.2-0.1,0.1-0.3c0.1-0.1,0.3-0.1,0.5-0.1c0.1,0.1,0.2,0.3,0.3,0.4
			c0.2,0.1,0.3,0.3,0.6,0.2c0.1,0.2,0.4,0.1,0.5,0c0.1,0,0,0.1,0.1,0.2c0.1,0.1,0.3,0,0.4,0.1c0.3,0,0.1,0.3,0.3,0.4
			c0.2,0,0.2-0.2,0.3-0.4c0.1-0.1,0.2,0.1,0.2,0.1c0.2,0,0.2-0.1,0.3-0.2c0.2,0,0.3,0,0.5,0c0.2,0.1,0.4-0.1,0.6-0.1
			c0.2,0,0-0.3,0.2-0.4c0.1-0.1,0.2,0,0.3,0.1l0-0.2c0-0.1,0.1-0.1,0.2-0.1c0.1,0.1,0,0.2,0,0.3c0,0,0,0,0.1,0c0,0,0.1,0.1,0.1,0.2
			c0.1,0.2,0.3-0.1,0.4,0c0.4-0.2,0.2,0.4,0.5,0.4c0.2,0,0.4,0.1,0.6,0.1c0.2,0,0.2,0.2,0.2,0.4c0.1,0,0.1,0,0.2-0.1
			c0.1-0.1,0.3,0.1,0.4,0.2c0.1,0,0.2,0,0.2,0c0,0,0.1,0,0.2,0c0.1-0.1,0.2-0.2,0.4-0.1c0,0,0.1,0.1,0.1,0.1c0.2-0.1,0.3,0.1,0.5,0
			c-0.1-0.3,0.2-0.4,0.3-0.6c0.1,0,0.2,0,0.3,0l0-0.1c0-0.3,0.4-0.2,0.5-0.4c0.1-0.1,0.2-0.1,0.4-0.2c0.2-0.1,0.4-0.1,0.5-0.4
			c0.1,0,0.1-0.1,0.2-0.1c0.1,0,0.2-0.1,0.1-0.2c0-0.2,0.2-0.1,0.3-0.1c0.3-0.1,0.7-0.2,1.1-0.1c0.1,0,0.1,0.1,0.2,0.1
			c0.1,0,0.1-0.1,0.1-0.2c0.2-0.2,0.5-0.1,0.8,0c0.2,0,0.4-0.1,0.6-0.3c0.1,0,0.2,0,0.2,0.1c0.2,0.1,0.3-0.2,0.5-0.3
			c0.1-0.1,0.2,0,0.3,0.1c0.1,0,0.2-0.1,0.3-0.2l0.5,0.2l0.1,0c0-0.1,0.1-0.1,0.2-0.2c0,0,0.1,0,0.1,0c0.1,0.1,0.2,0,0.3,0
			c0.1-0.2,0.4-0.1,0.5-0.1c0-0.1,0-0.2,0.1-0.2c0.1,0,0.1,0,0.2,0.1c0.1,0.1,0.1-0.1,0.3-0.1c0.2,0.1,0.4,0.1,0.6,0.2
			c0.2,0,0,0.2,0.2,0.2c0.2,0,0.4,0.1,0.6,0.1c0-0.1,0-0.1-0.1-0.2c0-0.1-0.1-0.2,0-0.3c0.2-0.1,0.4-0.3,0.7-0.2
			c0.1,0.3-0.3,0.1-0.4,0.3c0,0.1,0.1,0.2,0.2,0.2c0,0,0,0.1,0.1,0.1v-0.2c0-0.2,0.2,0,0.3-0.1c0,0,0-0.1,0-0.1
			c-0.1-0.1,0.1-0.2,0.1-0.3c-0.1-0.2-0.3,0-0.5,0c-0.1-0.1-0.3-0.1-0.4-0.3c0,0,0,0,0,0c0,0,0,0,0,0c0,0.1-0.2,0.2-0.3,0.1
			c-0.1,0-0.2-0.2-0.3-0.3c0.1-0.3,0.5,0,0.6-0.4c0.1,0,0.2,0,0.3-0.1c0.1,0,0.2,0,0.3,0.1c0.2,0.1,0.1-0.2,0.2-0.3
			c0.2-0.1,0.5-0.2,0.7-0.2c0-0.1-0.1-0.1-0.1-0.2c0.1-0.2,0-0.5,0-0.8c-0.1-0.1-0.2,0-0.3,0c-0.2,0,0-0.2,0-0.3
			c0.1-0.3,0.4,0,0.5,0c0.1,0.2-0.2,0.3,0,0.4c0.1,0,0.3,0.1,0.4,0.2c-0.1,0.2-0.3-0.1-0.4,0.1c-0.1,0.2,0.2,0.2,0.2,0.4
			c0,0.1,0,0.1-0.1,0.1c0.1,0,0.3,0,0.4-0.1c0-0.2,0.2-0.1,0.3-0.2l-0.1-0.3c-0.1-0.1,0.1-0.2,0.1-0.4c0.2-0.1,0.1-0.3,0.3-0.5
			c0-0.1-0.2,0-0.3-0.1c0,0,0-0.1,0-0.1c0.3,0,0.2-0.4,0.4-0.4c0,0,0-0.1,0-0.2c0-0.2,0.2-0.2,0.3-0.3c0-0.1,0-0.1-0.1-0.1
			c0,0,0-0.1,0-0.2c0,0,0.1-0.1,0.1,0c0.1-0.1,0-0.2,0-0.3l0,0.1c0,0-0.1,0.1-0.1,0c0,0-0.1,0-0.1-0.1c0,0,0.1-0.1,0.1-0.1
			c-0.1-0.1,0.1-0.1,0-0.2c0-0.1,0.1-0.1,0.1-0.2c-0.2-0.1,0-0.4-0.3-0.4c0-0.2,0.3-0.2,0.3-0.4c0-0.1,0-0.1-0.1-0.2
			c-0.1-0.2,0.1-0.3,0.1-0.4c0-0.2-0.3-0.3-0.2-0.5c-0.1-0.1,0.1-0.2,0.1-0.4c0-0.3-0.3-0.1-0.5-0.2c0-0.1-0.1-0.2,0-0.3
			c0.1,0,0.1,0,0.2,0.1c0.2,0,0.3-0.2,0.4-0.3c0-0.3-0.2-0.1-0.3-0.2c-0.2,0-0.2-0.1-0.3-0.2c0-0.1,0-0.1,0.1-0.2
			c0-0.1,0.1-0.2,0.1-0.4c0.2-0.1,0-0.3,0.1-0.5c0-0.1,0.2,0,0.2,0c0-0.1-0.1-0.1-0.1-0.3c0,0,0.1,0,0.1,0c0-0.1,0.2-0.1,0.2-0.2
			c-0.1-0.1,0-0.3,0-0.4c0-0.1,0.2-0.2,0.2-0.4c0-0.1,0.1-0.2,0.2-0.2c0.1,0,0.1,0.1,0.1,0.2c0,0,0.1,0.1,0.2,0c0,0-0.1-0.1,0-0.1
			c-0.2-0.1,0-0.4-0.3-0.4c0,0,0-0.1,0-0.1C78.4,27.7,78.5,27.8,78.6,27.8z M56.6,29c-0.1,0-0.2,0-0.2-0.1c0-0.2,0.2-0.1,0.3-0.2
			c0,0,0.1,0,0.2,0.1C56.8,28.9,56.6,28.9,56.6,29z M57.9,28.2c-0.1,0-0.2,0-0.3-0.1c0-0.1,0-0.1,0.1-0.1c0.1,0,0.3,0,0.3,0.2
			C58.1,28.2,58,28.2,57.9,28.2z M62.8,27.7c-0.2,0-0.4,0.3-0.5,0.1c0.1-0.2-0.3-0.3-0.1-0.4c0.2,0.1,0.5-0.1,0.7,0.2
			C62.8,27.7,62.8,27.7,62.8,27.7z M58.5,41c-0.1,0-0.2-0.1-0.3-0.2c0-0.2,0.3-0.2,0.4-0.2c0.1,0,0.2,0.1,0.2,0.2
			C58.7,40.9,58.6,41,58.5,41z M59.6,40.5c-0.1,0-0.1,0-0.2,0c0-0.1,0-0.2,0.1-0.2c0.1,0,0.1,0.1,0.2,0.1
			C59.8,40.4,59.7,40.5,59.6,40.5z M64.2,38.8c-0.1,0-0.2,0-0.2-0.1c0,0-0.1-0.1,0-0.1c0,0,0.1-0.1,0.2,0c0,0,0.1,0.1,0.1,0
			c0,0,0.1,0,0.1,0C64.4,38.7,64.3,38.8,64.2,38.8z M72.5,39.1c-0.1,0-0.2-0.1-0.3,0c0,0.1,0,0.1,0.1,0.1c0.1,0,0.1,0.1,0.1,0.1
			c0,0.1-0.1,0.1-0.1,0.1c-0.1,0-0.2-0.1-0.3-0.1c-0.1-0.1,0-0.2,0-0.3c0.2-0.1,0.4-0.3,0.6-0.3l0,0C72.4,38.9,72.8,39.1,72.5,39.1z
			 M76.3,34.4c0.1,0,0.1,0,0.1,0.1c0,0.1-0.1,0.2-0.2,0.3c0,0-0.1,0-0.1-0.1C76.1,34.6,76.2,34.5,76.3,34.4z M76.4,36.7
			c-0.1,0-0.1,0-0.2,0c-0.2-0.2-0.2-0.4-0.3-0.6c0-0.1,0-0.3,0.1-0.3c0-0.1-0.2-0.3,0.1-0.3c0.3,0.2,0,0.8,0.4,0.8
			C76.5,36.5,76.5,36.6,76.4,36.7z M76.9,33.4c-0.1,0-0.1,0-0.1-0.1c0-0.1,0.1-0.2,0.2-0.3c0.1,0,0.1,0,0.1,0.1
			C77,33.2,77,33.4,76.9,33.4z M77.1,31.8c0,0,0.1,0.1,0.1,0.1c0,0.1-0.1,0.1-0.2,0.2c-0.2,0-0.3-0.1-0.4-0.2c0-0.1-0.1-0.3,0-0.3
			c0.1,0,0.2-0.1,0.3,0C77,31.7,77,31.8,77.1,31.8z M77.8,27.9c-0.1,0-0.1-0.1-0.2,0c-0.2,0-0.2-0.2-0.4-0.2c-0.1,0,0-0.1,0-0.1
			c0,0,0.1-0.1,0.2-0.1c0.1,0.1,0.2,0.2,0.3,0.1c0,0,0.1,0,0.1,0c0,0.1,0,0.1,0,0.1C77.8,27.7,77.8,27.8,77.8,27.9
			C77.9,27.9,77.9,27.9,77.8,27.9z"/>
		<path class="st9" d="M66.2,30.6c-0.1,0-0.2,0-0.3,0c0,0,0,0.1,0,0.1c0,0.2-0.1,0-0.2,0c-0.2,0.2,0.1,0.4,0.2,0.6c0,0,0.1,0,0.1,0
			c0-0.1-0.2-0.2-0.1-0.3c0-0.1,0.1-0.1,0.1-0.1c0.1,0,0.2,0.2,0.3,0.2c0,0.3,0.4,0.3,0.5,0.5c0.1,0.1,0,0.1-0.1,0.2
			c-0.1,0-0.2,0.1-0.3,0.1c0,0.2-0.3,0.2-0.3,0.4c0,0.2,0.2,0.2,0.3,0.3c0.1,0,0.2,0,0.3-0.1c0.1,0,0.3,0,0.3,0.2
			c0,0.2,0,0.5,0.2,0.7h0.1c0.1,0.2,0.4,0.3,0.4,0.5c0,0.2,0,0.3-0.1,0.4c-0.3,0-0.2,0.4-0.3,0.6c0,0.2,0.2,0.2,0.4,0.3
			c0.2,0,0.1-0.3,0.3-0.4c0.2,0,0.3-0.1,0.5,0c0.1,0,0.1,0.2,0.2,0.2c0.1,0,0.1,0,0.1-0.1c0.2-0.3,0.4,0.1,0.6,0.1
			c0.2,0,0.4-0.1,0.5-0.3c0.2-0.2,0.7,0,0.8-0.3c0.1-0.1,0.4-0.2,0.4-0.3c0.2-0.1,0.2-0.4,0.4-0.5c0.1-0.2,0.4,0,0.5-0.3
			c0-0.1,0.1-0.2,0-0.3c-0.1-0.1-0.2-0.2-0.1-0.3c0,0,0-0.1,0-0.1c-0.1-0.1,0-0.2,0-0.3c0-0.1,0-0.2,0-0.3c0,0-0.1,0-0.1,0
			c-0.1,0-0.3,0-0.3-0.1c-0.1,0.1-0.3,0.1-0.4,0.1c-0.2,0-0.4-0.1-0.6,0c-0.1,0-0.2-0.1-0.3-0.2c-0.2-0.1-0.4-0.1-0.6-0.2
			c0-0.2-0.3-0.1-0.3-0.3c0,0,0-0.1,0-0.2c0,0-0.1,0-0.1-0.1c0-0.1-0.1-0.2,0-0.3c0,0,0.1-0.1,0.1-0.1l-0.3-0.3v-0.3
			c-0.1-0.1-0.2-0.1-0.2-0.2c0,0-0.1,0-0.1,0c-0.1,0-0.1-0.2-0.1-0.2l-0.1,0c-0.2-0.1,0-0.3-0.3-0.3c0-0.1,0-0.2,0-0.3
			c0-0.1-0.1,0-0.1-0.1c-0.1,0-0.2-0.2-0.3-0.2c-0.1,0.2-0.4,0.2-0.3,0.5c0,0.2-0.2,0.2-0.3,0.2c-0.1,0.1-0.3-0.1-0.4-0.1l0,0
			c0,0.2,0.2,0.3,0.1,0.5c0,0.1-0.1,0.1-0.1,0.2c-0.2,0,0,0.2-0.1,0.4C66.2,30.3,66.2,30.5,66.2,30.6z"/>
		<path class="st9" d="M58.5,37.9c0.1,0.1,0.1,0,0.2-0.1c0.1,0,0.2,0.1,0.4,0.1c0.4,0.2,0.3-0.3,0.5-0.4c0.1,0,0.1,0.1,0.1,0.1
			c0.2,0,0.4,0.1,0.6,0c0-0.1-0.2-0.2-0.3-0.3c0-0.1-0.1-0.2,0-0.3c0.1,0,0.2,0,0.2,0.1c0.3,0,0.2,0.3,0.3,0.4
			c0.1,0,0.2,0.1,0.4,0.1c0.1-0.1,0.3-0.1,0.3-0.3c-0.1-0.1-0.1-0.4-0.1-0.6c0.1-0.1,0.4-0.1,0.4-0.3c0-0.2,0.1-0.4-0.1-0.6
			c0,0-0.1,0.1-0.2,0c0,0,0-0.1,0-0.1c0,0,0.1,0,0.1,0c0-0.1,0-0.2,0.1-0.1c0.1,0,0.1,0.2,0.1,0.2c0.1,0,0.1,0,0.2-0.1
			c0-0.1-0.1-0.1-0.1-0.1c0-0.1,0-0.2,0.1-0.2c0.2-0.3-0.1-0.7,0.3-0.9c0-0.3,0.2-0.5,0-0.8c0.1-0.1,0.2-0.2,0.4-0.2
			c0.1,0,0.1-0.1,0.1-0.2l0,0c0-0.2-0.2-0.1-0.3-0.1c0,0-0.1-0.1-0.1-0.1c0-0.1-0.1-0.3,0-0.4c0.1-0.2-0.2-0.2-0.3-0.3
			c0,0,0-0.2,0.1-0.2c0.2-0.1,0-0.2,0-0.3c0-0.1,0.1-0.1,0.1-0.1c0,0,0-0.1,0-0.1c-0.2-0.1-0.2-0.3-0.3-0.4c0-0.1,0-0.3,0.1-0.4
			c-0.2,0-0.2-0.3-0.4-0.3c-0.2-0.2-0.5,0-0.6-0.3c-0.2,0.1-0.4,0-0.6,0c0,0-0.1,0.1-0.1,0.2c-0.1,0-0.1,0-0.2,0
			c-0.3,0.2-0.4,0.5-0.4,0.9c0.2,0,0.3,0.2,0.4,0.4c0.1,0,0.2,0,0.2,0.1c0,0.2,0.1,0.3,0.2,0.4c-0.2,0.1,0,0.4-0.3,0.5
			c0,0.1,0,0.2,0,0.3c-0.1,0.1-0.2,0-0.2,0c0,0,0,0,0,0.1c0,0.1,0.1,0,0.1,0c0.1,0,0.1,0.1,0.1,0.1c0,0-0.1,0.1-0.1,0
			c0,0-0.1,0.1-0.1,0.2c0.1,0.2-0.3,0.3-0.1,0.4c0,0,0,0.1,0,0.2c-0.1,0-0.2,0-0.3,0c-0.1,0-0.1,0.1-0.1,0.2c0,0,0.1,0.1,0.1,0.2
			c0,0.1,0,0.2-0.2,0.3c0,0.1,0,0.2,0.1,0.4c0,0.1-0.1,0.1-0.2,0.1c-0.1,0.2-0.1,0.5-0.4,0.6c0,0.1,0.1,0.1,0.1,0.2
			c0.2,0.2-0.1,0.4-0.1,0.6c0.1,0.2,0.2,0,0.3,0.2c-0.1,0.2,0.1,0.4,0,0.5c0,0.1-0.1,0-0.1,0c-0.1,0-0.2,0-0.3,0
			c-0.2,0.1-0.1,0.3-0.1,0.4C58.7,37.8,58.5,37.8,58.5,37.9z"/>
	</g>
	<g>
		<path class="st9" d="M76.6,38.5C76.6,38.5,76.5,38.5,76.6,38.5C76.5,38.5,76.6,38.5,76.6,38.5z"/>
		<path class="st9" d="M79.1,28.6c0.1-0.1-0.1-0.1-0.1-0.1c0-0.2-0.3,0-0.3-0.2c0-0.1-0.2-0.1-0.4-0.1c-0.1,0-0.1-0.2-0.2-0.3
			c-0.1,0-0.2,0.1-0.3,0c0-0.1,0-0.1,0-0.2c-0.3-0.2,0.1-0.2,0.1-0.4c-0.1-0.2-0.3-0.1-0.5-0.2c-0.2-0.3-0.3,0.1-0.5,0.1
			c-0.1-0.1-0.2,0.1-0.3,0c-0.1,0-0.2-0.2-0.1-0.3c-0.1-0.1,0-0.3,0-0.4c0,0-0.1-0.1-0.2,0v0.1c-0.2,0.1-0.1,0.4-0.3,0.4
			c-0.1,0-0.1-0.2-0.2-0.3c0.1-0.1-0.1-0.1-0.1-0.2c-0.2,0-0.2-0.3-0.4-0.2c-0.1-0.2-0.3-0.2-0.5-0.3c-0.3,0.1-0.4-0.4-0.7-0.3
			c-0.2,0.1-0.4,0-0.6-0.1c-0.1-0.1-0.3,0-0.4-0.1c-0.2,0.1-0.3-0.1-0.5-0.1c-0.1,0-0.1-0.2-0.2-0.2c-0.1,0.1-0.3-0.1-0.4-0.1
			c-0.1,0-0.1,0.1-0.1,0.1c-0.3,0-0.5,0.1-0.8,0c-0.1,0-0.2-0.1-0.1-0.2c0-0.1-0.1-0.1-0.2-0.1c-0.1,0-0.1,0.1-0.2,0.2
			c-0.2,0-0.4,0.2-0.6,0c0-0.1,0-0.2-0.1-0.3c-0.1,0.1-0.1,0.2,0,0.3c0,0.2-0.3,0.1-0.3,0.4c-0.1,0.1-0.3,0.1-0.4,0.1
			c-0.1,0.1-0.1,0.3-0.3,0.3c-0.1,0-0.2-0.2-0.3-0.3c-0.1,0-0.2,0.1-0.3,0.2c-0.1,0.1-0.3-0.1-0.4,0.1c-0.2,0-0.4,0.1-0.5,0.1
			c-0.1-0.1-0.2,0-0.4,0c-0.1-0.1-0.3-0.1-0.5-0.1c-0.1,0.1-0.2,0.3-0.3,0.4c0,0.1-0.1,0.2,0,0.3c0.1,0,0.2,0,0.3,0
			c0.1,0.2,0.3,0.2,0.4,0.4c0,0.1-0.1,0.1-0.2,0.1c-0.2-0.1-0.5-0.2-0.7-0.4c-0.1-0.1,0-0.4-0.2-0.4c-0.1,0-0.1,0-0.2,0
			c-0.2,0.3-0.6,0-0.9,0.3c-0.2,0-0.3,0-0.5,0c-0.2,0-0.2,0.2-0.3,0.3c-0.2,0.1,0.1,0.1,0.1,0.2c0,0-0.1,0.1-0.1,0.1
			c-0.1-0.1-0.4,0-0.5,0c-0.3,0.2-0.6,0.2-0.8,0.4c-0.1,0-0.1-0.1-0.1-0.1c0.1-0.2,0-0.4-0.1-0.6c-0.1,0-0.1-0.3-0.3-0.2
			c0,0.2-0.2,0.4-0.2,0.6c0.1,0.1,0.2,0.2,0.2,0.3c-0.2,0.1-0.2,0.3-0.4,0.4c-0.2,0-0.4,0.1-0.6,0.2c-0.2-0.1-0.4-0.3-0.7-0.2
			L60,28.1c0,0-0.1,0-0.1,0c-0.1-0.1,0-0.2,0-0.3c-0.2,0-0.1-0.2-0.2-0.2c-0.1,0-0.1,0.2-0.1,0.3c0,0.2-0.2,0.1-0.4,0.1
			c-0.1,0-0.1-0.1-0.1-0.2c-0.1,0.3-0.3-0.1-0.5,0.1c-0.1-0.1-0.1,0.1-0.2,0.2c0,0-0.1,0-0.1,0c-0.1-0.1-0.3,0-0.3,0.1
			c-0.1,0-0.2,0-0.2,0c-0.1,0-0.3,0-0.3,0.1c0,0.1,0,0.2,0.1,0.3c0,0.1,0,0.1,0,0.1c-0.1,0-0.1,0-0.2,0v0.2c-0.1,0.1-0.3,0-0.4,0.2
			c0,0.2-0.2,0.3-0.1,0.4c0,0.1-0.2,0-0.3,0.1c-0.2,0-0.3,0.1-0.5,0c-0.2,0.1-0.4-0.1-0.5-0.1c-0.2,0.1-0.4,0-0.7,0
			c-0.2,0-0.4,0-0.7,0c-0.1-0.1-0.2-0.1-0.3-0.1c-0.1,0.1-0.2,0-0.3-0.1c-0.1,0-0.2,0.2-0.2,0.3c0,0.3-0.2-0.1-0.3,0.2
			c0,0.3-0.3,0.4-0.5,0.5c0,0.1-0.2,0.2-0.2,0.3h0.1c0.2,0,0.3,0.2,0.5,0.2c0.2,0,0.4,0,0.6,0c0.2,0.2,0.5,0.2,0.9,0.3
			c0.2,0.1,0.4,0,0.5,0v0c0,0,0,0,0,0.1c0.1,0.1,0,0.2,0,0.3c-0.1,0.1-0.2,0-0.2-0.1c-0.1,0-0.2,0.1-0.3,0.1c-0.1,0-0.2,0.2-0.3,0.3
			c0,0,0,0.1,0.1,0.1c0.1,0,0.3,0,0.4,0c0.1,0.1,0,0.2,0.1,0.3c0.1,0,0.1-0.1,0.2-0.1c0.1-0.1,0-0.3,0-0.4c0.1-0.2,0.4-0.1,0.5-0.1
			c0.2-0.2,0.4,0.1,0.6,0c0.1-0.1,0-0.1-0.1-0.2c0,0,0-0.1,0-0.1c0.1-0.1,0.2,0,0.3,0.1c0.2,0,0.3-0.2,0.5-0.1
			c0.1,0,0.1-0.1,0.1-0.2c-0.2,0.1-0.4,0.1-0.6-0.1c0-0.3,0.3-0.1,0.5-0.2c0.1,0,0.1,0.2,0.1,0.3c0.1,0,0.3,0,0.4,0
			c0.1,0,0-0.1,0.1-0.2c0.2,0,0.3,0.3,0.6,0.2c0.1-0.2,0.4-0.1,0.4-0.2c0-0.1,0.1,0,0.1,0c0.1,0,0,0.1,0,0.1c0.2,0.1,0,0.4,0.1,0.5
			c0.1-0.1,0.3-0.1,0.5-0.1c0.1,0,0.2,0,0.2-0.1c-0.1-0.2-0.4-0.4-0.3-0.7c0-0.2-0.3-0.3-0.1-0.5c0.2,0,0.3-0.2,0.4,0
			c0,0.1,0,0.1,0,0.2c-0.2,0.4,0.4,0,0.4,0.3c0.2,0.2,0.2,0,0.4-0.1c0-0.1,0.1-0.2,0.2-0.3c0-0.2-0.2-0.1-0.3-0.3
			c-0.2-0.3,0.2-0.2,0.3-0.4c0-0.1,0-0.2,0-0.3c0.1-0.2,0.5-0.1,0.7-0.2c0-0.1,0-0.2,0-0.2c0-0.1,0.1-0.1,0.1-0.2
			c0.2,0,0.4-0.2,0.6,0c0,0.2-0.3,0.2-0.3,0.4c-0.2,0.1-0.3,0.3-0.5,0.5c-0.1,0.1-0.3,0.1-0.4,0.3c0,0.1,0.1,0,0.2,0.1
			c0.2,0,0,0.2,0.1,0.3c0.3,0.1,0.4-0.1,0.6-0.3c0-0.2,0.3-0.2,0.4-0.4c0.2-0.2,0.3-0.4,0.4-0.6c0.1-0.1,0.2,0,0.3,0.1
			c0.3,0.1,0.6,0.1,0.9,0c0.2,0,0.4-0.1,0.6,0c0.2,0,0-0.2,0.1-0.3c0.1,0,0.1,0,0.2,0.1c0.1,0.1,0,0.2,0,0.3
			c0.2,0.1,0.1-0.2,0.3-0.2c0.1,0,0.1,0,0.2,0.1l0-0.4c0-0.1,0.1-0.1,0.2-0.1c0,0,0.1,0.1,0.1,0.1c0.1,0.1,0.2,0.3,0.3,0.4l0,0
			c0.1-0.1,0-0.2-0.1-0.3c0-0.1,0-0.2,0.1-0.2c0.2,0,0.3-0.2,0.5-0.2c0.2,0.2,0.4-0.2,0.6,0c0.2,0,0.1-0.2,0.2-0.3
			c0.1,0,0.1,0,0.2,0.1c0.1,0,0.1,0.2,0.2,0.2c0.1-0.1,0.2-0.1,0.2-0.2c0.3-0.2,0.7-0.3,1.1-0.3c0.1,0.2,0.3,0.3,0.4,0.4
			c0.1,0.1,0.2,0.2,0.4,0.2c0.2-0.3-0.2-0.2-0.3-0.4c0-0.1,0-0.3,0-0.4c0.1-0.1,0.2,0,0.3,0c0.2-0.1,0-0.3,0.1-0.5c0,0,0,0,0.1,0
			c0.1,0.1,0.1,0.3,0.2,0.4c0.1,0.1,0.3,0,0.4,0.2c0,0,0.1,0,0.2,0c0.1-0.4,0.5-0.1,0.7-0.2c0.2,0.1,0.4,0,0.6,0.2
			c0.2-0.1,0.4,0.1,0.6,0c0.1,0.1,0.3,0,0.5,0c0.1,0.1,0.3,0,0.4,0.1c0.1,0,0.2-0.1,0.3-0.1c0.1,0,0.2,0.1,0.2,0.2
			c0.2,0.1,0.3,0.4,0.6,0.3c0.1,0.1,0.2-0.1,0.4-0.1c0.2,0.2,0.3,0.5,0.5,0.7h0.1c0.1,0,0.1,0.1,0.1,0.2c0.2,0.1,0.1-0.2,0.2-0.3
			c0.1-0.1,0.3,0.1,0.4,0.1c0,0.1,0.1,0.2,0.2,0.2c0,0.1,0,0.1,0,0.2c0.1,0.1,0.3-0.1,0.4,0.1c-0.1,0.3,0.4,0.4,0.4,0.7
			c0,0.1-0.1,0.1-0.2,0.2c-0.1,0.2,0.1,0.2,0.1,0.4c-0.1,0.1-0.1,0.3-0.2,0.4c-0.3,0.2-0.2,0.5-0.2,0.8c0.1,0.1,0.2,0.1,0.2,0.2
			c0,0.1-0.2,0.1-0.3,0.2c0,0.1,0,0.3,0,0.4c0,0.3-0.1,0.6-0.1,1c0.1,0,0.3-0.2,0.4-0.1c0,0.1,0,0.1,0,0.2c0.1,0.1,0,0.2,0,0.3
			c0,0-0.1,0-0.2,0c-0.1-0.1-0.2,0.1-0.3,0.1c0,0.1,0,0.1,0,0.2c-0.2,0,0,0.2-0.2,0.3c-0.1,0-0.3,0.1-0.4,0c0,0.1,0,0.2,0,0.3
			c0,0.2-0.2,0-0.3,0c0,0.2,0.3,0.2,0.3,0.4c0,0.1,0,0.1,0,0.2c-0.1,0.1,0,0.3-0.1,0.5c0.1,0.1,0.3-0.1,0.4,0c0.1,0.1,0,0.3,0,0.4
			c0,0.1-0.1,0.2-0.2,0.2c-0.2,0,0,0.2-0.1,0.3c-0.1,0-0.1,0-0.2,0c0-0.1,0-0.2,0.1-0.3c0.2-0.3-0.4-0.3-0.3-0.6
			c-0.1,0-0.2,0-0.3-0.1c-0.2,0.1,0.1,0.2,0,0.4c0,0.1,0.1,0.1,0.2,0.1c0.1,0,0.2,0.1,0.2,0.2c0,0.2-0.2,0.2-0.4,0.3
			c-0.4-0.2,0,0.3-0.3,0.3c0,0-0.1-0.1-0.1-0.1c-0.1,0.1-0.2,0.2-0.2,0.3c0.1,0.1-0.1,0.2,0,0.3c0,0.1-0.1,0.1-0.2,0.1
			c-0.1,0,0,0.1,0,0.1c0.1,0.2,0.2,0,0.4,0c0.3-0.2,0.7,0.1,1,0c0.2,0,0.2,0.2,0.2,0.4c0,0.3-0.4,0.1-0.5,0.3c-0.1,0-0.2,0-0.3,0.1
			c-0.1,0-0.2-0.1-0.3-0.1c-0.1,0.2,0,0.4-0.2,0.6c-0.1,0.1-0.3,0-0.4,0c-0.3,0-0.1-0.3-0.3-0.4c-0.1-0.1,0.1-0.2,0-0.4
			c-0.2-0.2-0.4,0.1-0.6,0c-0.1,0.2,0.2,0.2,0.3,0.3c0,0.2,0.1,0.3,0,0.5c-0.1,0-0.2,0-0.3-0.1c-0.1,0-0.1,0.1-0.2,0
			c-0.2-0.1-0.1-0.3-0.1-0.5c-0.2-0.1-0.4-0.2-0.5-0.1c0,0.1,0,0.1,0,0.2c0,0.2-0.2,0.1-0.3,0.1c-0.1,0-0.2,0.2-0.4,0.1
			c-0.1,0-0.1,0-0.1,0.1c-0.2,0-0.2,0.2-0.4,0.1c0-0.1-0.1,0-0.2-0.1c-0.2,0,0-0.2-0.2-0.3c0,0.1-0.1,0.2-0.2,0.2
			c-0.1,0-0.3,0-0.4,0c-0.2,0.1-0.5,0-0.6,0.2c-0.2,0.1-0.3-0.1-0.5-0.1c-0.1,0,0-0.1-0.1-0.2c-0.1,0-0.2,0-0.2,0
			c-0.1,0.2-0.4,0-0.5,0.1c-0.2,0-0.2-0.2-0.3-0.3c-0.1-0.1-0.2,0.1-0.3,0.1c-0.3,0.1-0.2-0.3-0.4-0.4c-0.1,0-0.2,0-0.3,0.1
			c0.1,0.2-0.1,0.4-0.3,0.5c-0.1,0-0.2,0-0.2,0c-0.1,0-0.2-0.1-0.4-0.1c-0.1,0-0.1,0.1-0.1,0.2c-0.1,0-0.1-0.1-0.2-0.1
			c-0.3,0,0,0.4-0.2,0.5c-0.1,0.1-0.2,0-0.3,0.1c-0.1,0-0.1-0.1-0.1-0.2c0.1-0.1,0.2-0.3,0.2-0.4c-0.2-0.1-0.1-0.3-0.2-0.4
			c-0.1,0.1-0.2,0.1-0.2,0.2c0,0.1-0.1,0.1-0.2,0.1c-0.1,0-0.1-0.1-0.1-0.2c-0.1,0-0.1,0.1-0.2,0.2c-0.1,0-0.3,0-0.4-0.1
			c-0.3,0,0,0.4-0.2,0.5c-0.1,0.1-0.2,0-0.2,0c-0.1,0,0,0.1-0.1,0.1c-0.1,0-0.3-0.1-0.4-0.2c-0.1,0-0.3,0-0.4,0
			c0,0.1,0.2,0.1,0.2,0.2c0,0.1,0.2,0.3,0,0.4c-0.1,0-0.2,0-0.3,0c-0.2,0.1-0.3,0-0.4,0c-0.1,0.2-0.3,0.1-0.4,0.3
			c-0.1,0-0.3,0.1-0.3,0c0-0.1,0-0.2,0.1-0.3c0.1-0.3-0.3-0.2-0.3-0.4c-0.1,0-0.1,0.1-0.1,0.1c0,0.2,0.1,0.2,0.2,0.3
			c-0.1,0.1,0.2,0.3,0,0.4c-0.1,0.1-0.3,0.1-0.4,0.2c-0.3-0.2,0.2-0.3,0.1-0.6c0,0,0,0-0.1-0.1c-0.1,0-0.1,0.1-0.1,0.1
			c-0.1,0-0.1-0.1-0.2-0.1c0,0.1,0.1,0.2,0.1,0.3c0,0.1,0,0.1-0.1,0.1c-0.2,0.2-0.4,0.4-0.7,0.5c-0.2,0-0.1,0.3-0.3,0.3
			c-0.3,0-0.5,0.1-0.7,0.1c-0.1,0-0.2-0.2-0.3-0.1c-0.2-0.2-0.3,0-0.5,0c-0.1,0.1-0.1,0.2-0.2,0.2c-0.1-0.2-0.4-0.3-0.5-0.4
			c-0.2-0.1-0.3-0.1-0.5-0.2c0-0.2-0.3-0.3-0.4-0.3c0,0,0,0.1-0.1,0.1c-0.1,0-0.1-0.2-0.1-0.3c0,0-0.1,0-0.1,0c0-0.1,0-0.2,0.1-0.2
			c0.1-0.1-0.1-0.2-0.1-0.3c-0.3,0,0,0.3-0.3,0.4c0,0.1,0.2,0.1,0.2,0.2c0,0.2-0.2,0-0.4,0.1c-0.2-0.1-0.4-0.2-0.4-0.4
			c0-0.1-0.2-0.1-0.3-0.1c-0.2,0-0.2-0.3-0.4-0.3c-0.2,0-0.1-0.3-0.3-0.4c-0.1,0-0.2,0.1-0.1,0.2c0,0.1-0.1,0.2-0.2,0.2
			c-0.2-0.1-0.3-0.3-0.3-0.4c0.1-0.1,0-0.2,0-0.4c0,0,0-0.1,0.1-0.1l-0.1-0.2c-0.1-0.1,0-0.3-0.1-0.4c-0.1-0.2,0.1-0.4,0.2-0.5
			c0-0.1-0.2,0-0.2-0.2c0-0.1-0.1,0-0.1,0.1c-0.1,0-0.1,0-0.1-0.1c0-0.1,0-0.3,0.1-0.4c0.1-0.1,0.2,0,0.2,0c0.1,0,0-0.1,0.1-0.2
			c0-0.1,0.2-0.1,0.2-0.2c-0.1-0.2-0.4-0.3-0.4-0.5c-0.1,0-0.1,0-0.2-0.1c0-0.1,0-0.4-0.1-0.4c-0.1-0.1,0-0.2,0-0.3
			c0-0.1-0.1-0.1-0.2-0.1c-0.1-0.1,0-0.2,0-0.3c-0.1-0.1-0.3-0.3-0.2-0.5c0-0.2,0.3,0,0.3-0.2c0.1-0.1,0-0.2-0.1-0.3
			c0,0-0.1,0-0.1,0c-0.2,0.1-0.2-0.2-0.3-0.3c0-0.3-0.4-0.3-0.3-0.5c0,0-0.1-0.1-0.1,0c-0.1-0.1-0.2-0.1-0.2-0.2c0,0-0.1,0-0.1,0
			c-0.2,0.3-0.7,0.2-0.7,0.6c0,0.3-0.4,0.2-0.6,0.3c0.1,0.3-0.3,0.1-0.4,0.3c0,0,0,0.1,0,0.1c0,0.1,0,0.2,0,0.2
			c0,0.1,0.1,0.2,0.2,0.3c0.1,0.1-0.1,0.3-0.1,0.4c0,0.1,0,0.3-0.1,0.4c0,0.1,0,0.2,0.1,0.2c-0.1,0.1-0.1,0.3-0.1,0.5
			c0.1,0,0.2,0.1,0.3,0.2c0.1,0.1-0.1,0.2-0.1,0.4c0,0.1-0.1,0.3,0.1,0.3c0,0.2-0.1,0.3-0.2,0.4c0,0.1,0,0.2,0,0.3
			c0.1,0.1,0.1,0.3,0.1,0.4c-0.1,0.1-0.2,0.3-0.2,0.5c0,0.2,0.1,0.2,0.2,0.4c0.1,0.2-0.2,0.3,0,0.5c-0.1,0.1-0.2,0.1-0.3,0.1
			c-0.1,0,0,0.2,0,0.3c0,0.1-0.1,0.1-0.1,0.1c-0.1-0.1-0.3-0.2-0.2-0.4c0-0.1-0.1,0-0.1,0c0,0.2,0,0.4,0,0.5c0.2,0,0.3,0.1,0.4,0.1
			c0.2,0.1,0.2,0.4,0.3,0.6c0.1,0.3,0.5,0.3,0.4,0.6c0,0.2,0.3,0.1,0.4,0.2c0.1,0.2-0.2,0-0.2,0.2c0.1,0.1,0.2,0.1,0.4,0.1
			c0.1,0.1,0,0.2,0,0.3c0,0,0.1,0,0.1,0l0-0.2c0-0.1,0.1,0,0.1-0.1c0.1,0,0.1,0.2,0.2,0.3c0.2,0,0.1,0.3,0.3,0.2
			c0.1-0.1,0.2,0.2,0.3,0.1c0,0,0-0.1,0-0.1c0-0.2-0.1-0.4,0.1-0.5c0.1,0,0.1-0.2,0.3-0.1c0.1,0.2,0.4,0.1,0.5,0.3
			c0.1,0.3-0.3,0.1-0.4,0.4l0.1,0.1c0.1,0.1,0,0.2,0.1,0.4c-0.2,0.2-0.4,0-0.6,0.2l0.1,0.1c0.1,0.1,0.2,0,0.3,0
			c0.2,0,0.3-0.3,0.4-0.5c0.1,0,0.2,0,0.2,0c0.3,0.1,0.4-0.2,0.5-0.3c0.1,0,0.2-0.1,0.3,0c0.1,0.2,0.3,0.1,0.4,0.3
			c0.1,0.2,0.3,0.3,0.3,0.6c0,0.1,0.1,0.2,0.2,0.2c0.1,0,0.2-0.1,0.1-0.3c0.1-0.1,0.3-0.1,0.5-0.1c0.1,0.1,0.2,0.3,0.3,0.4
			c0.2,0.1,0.3,0.3,0.6,0.2c0.1,0.2,0.4,0.1,0.5,0c0.1,0,0,0.1,0.1,0.2c0.1,0.1,0.3,0,0.4,0.1c0.3,0,0.1,0.3,0.3,0.4
			c0.2,0,0.2-0.2,0.3-0.4c0.1-0.1,0.2,0.1,0.2,0.1c0.2,0,0.2-0.1,0.3-0.2c0.2,0,0.3,0,0.5,0c0.2,0.1,0.4-0.1,0.6-0.1
			c0.2,0,0-0.3,0.2-0.4c0.1-0.1,0.2,0,0.3,0.1l0-0.2c0-0.1,0.1-0.1,0.2-0.1c0.1,0.1,0,0.2,0,0.3c0,0,0,0,0.1,0c0,0,0.1,0.1,0.1,0.2
			c0.1,0.2,0.3-0.1,0.4,0c0.4-0.2,0.2,0.4,0.5,0.4c0.2,0,0.4,0.1,0.6,0.1c0.2,0,0.2,0.2,0.2,0.4c0.1,0,0.1,0,0.2-0.1
			c0.1-0.1,0.3,0.1,0.4,0.2c0.1,0,0.2,0,0.2,0c0,0,0.1,0,0.2,0c0.1-0.1,0.2-0.2,0.4-0.1c0,0,0.1,0.1,0.1,0.1c0.2-0.1,0.3,0.1,0.5,0
			c-0.1-0.3,0.2-0.4,0.3-0.6c0.1,0,0.2,0,0.3,0l0-0.1c0-0.3,0.4-0.2,0.5-0.4c0.1-0.1,0.2-0.1,0.4-0.2c0.2-0.1,0.4-0.1,0.5-0.4
			c0.1,0,0.1-0.1,0.2-0.1c0.1,0,0.2-0.1,0.1-0.2c0-0.2,0.2-0.1,0.3-0.1c0.3-0.1,0.7-0.2,1.1-0.1c0.1,0,0.1,0.1,0.2,0.1
			c0.1,0,0.1-0.1,0.1-0.2c0.2-0.2,0.5-0.1,0.8,0c0.2,0,0.4-0.1,0.6-0.3c0.1,0,0.2,0,0.2,0.1c0.2,0.1,0.3-0.2,0.5-0.3
			c0.1-0.1,0.2,0,0.3,0.1c0.1,0,0.2-0.1,0.3-0.2l0.5,0.2l0.1,0c0-0.1,0.1-0.1,0.2-0.2c0,0,0.1,0,0.1,0c0.1,0.1,0.2,0,0.3,0
			c0.1-0.2,0.4-0.1,0.5-0.1c0-0.1,0-0.2,0.1-0.2c0.1,0,0.1,0,0.2,0.1c0.1,0.1,0.1-0.1,0.3-0.1c0.2,0.1,0.4,0.1,0.6,0.2
			c0.2,0,0,0.2,0.2,0.2c0.2,0,0.4,0.1,0.6,0.1c0-0.1,0-0.1-0.1-0.2c0-0.1-0.1-0.2,0-0.3c0.2-0.1,0.4-0.3,0.7-0.2
			c0.1,0.3-0.3,0.1-0.4,0.3c0,0.1,0.1,0.2,0.2,0.2c0,0,0,0.1,0.1,0.1v-0.2c0-0.2,0.2,0,0.3-0.1c0,0,0-0.1,0-0.1
			c-0.1-0.1,0.1-0.2,0.1-0.3c-0.1-0.2-0.3,0-0.5,0c-0.1-0.1-0.3-0.1-0.4-0.3c0,0,0,0,0,0c0,0,0,0,0,0c0,0.1-0.2,0.2-0.3,0.1
			c-0.1,0-0.2-0.2-0.3-0.3c0.1-0.3,0.5,0,0.6-0.4c0.1,0,0.2,0,0.3-0.1c0.1,0,0.2,0,0.3,0.1c0.2,0.1,0.1-0.2,0.2-0.3
			c0.2-0.1,0.5-0.2,0.7-0.2c0-0.1-0.1-0.1-0.1-0.2c0.1-0.2,0-0.5,0-0.8c-0.1-0.1-0.2,0-0.3,0c-0.2,0,0-0.2,0-0.3
			c0.1-0.3,0.4,0,0.5,0c0.1,0.2-0.2,0.3,0,0.4c0.1,0,0.3,0.1,0.4,0.2c-0.1,0.2-0.3-0.1-0.4,0.1c-0.1,0.2,0.2,0.2,0.2,0.4
			c0,0.1,0,0.1-0.1,0.1c0.1,0,0.3,0,0.4-0.1c0-0.2,0.2-0.1,0.3-0.2l-0.1-0.3c-0.1-0.1,0.1-0.2,0.1-0.4c0.2-0.1,0.1-0.3,0.3-0.5
			c0-0.1-0.2,0-0.3-0.1c0,0,0-0.1,0-0.1c0.3,0,0.2-0.4,0.4-0.4c0,0,0-0.1,0-0.2c0-0.2,0.2-0.2,0.3-0.3c0-0.1,0-0.1-0.1-0.1
			c0,0,0-0.1,0-0.2c0,0,0.1-0.1,0.1,0c0.1-0.1,0-0.2,0-0.3l0,0.1c0,0-0.1,0.1-0.1,0c0,0-0.1,0-0.1-0.1c0,0,0.1-0.1,0.1-0.1
			c-0.1-0.1,0.1-0.1,0-0.2c0-0.1,0.1-0.1,0.1-0.2c-0.2-0.1,0-0.4-0.3-0.4c0-0.2,0.3-0.2,0.3-0.4c0-0.1,0-0.1-0.1-0.2
			c-0.1-0.2,0.1-0.3,0.1-0.4c0-0.2-0.3-0.3-0.2-0.5c-0.1-0.1,0.1-0.2,0.1-0.4c0-0.3-0.3-0.1-0.5-0.2c0-0.1-0.1-0.2,0-0.3
			c0.1,0,0.1,0,0.2,0.1c0.2,0,0.3-0.2,0.4-0.3c0-0.3-0.2-0.1-0.3-0.2c-0.2,0-0.2-0.1-0.3-0.2c0-0.1,0-0.1,0.1-0.2
			c0-0.1,0.1-0.2,0.1-0.4c0.2-0.1,0-0.3,0.1-0.5c0-0.1,0.2,0,0.2,0c0-0.1-0.1-0.1-0.1-0.3c0,0,0.1,0,0.1,0c0-0.1,0.2-0.1,0.2-0.2
			c-0.1-0.1,0-0.3,0-0.4c0-0.1,0.2-0.2,0.2-0.4c0-0.1,0.1-0.2,0.2-0.2c0.1,0,0.1,0.1,0.1,0.2c0,0,0.1,0.1,0.2,0c0,0-0.1-0.1,0-0.1
			c-0.2-0.1,0-0.4-0.3-0.4c0,0,0-0.1,0-0.1C78.9,28.5,79,28.5,79.1,28.6z M57.1,29.7c-0.1,0-0.2,0-0.2-0.1c0-0.2,0.2-0.1,0.3-0.2
			c0,0,0.1,0,0.2,0.1C57.3,29.6,57.1,29.6,57.1,29.7z M58.4,29c-0.1,0-0.2,0-0.3-0.1c0-0.1,0-0.1,0.1-0.1c0.1,0,0.3,0,0.3,0.2
			C58.5,28.9,58.5,28.9,58.4,29z M63.3,28.5c-0.2,0-0.4,0.3-0.5,0.1c0.1-0.2-0.3-0.3-0.1-0.4c0.2,0.1,0.5-0.1,0.7,0.2
			C63.3,28.4,63.3,28.4,63.3,28.5z M59,41.7c-0.1,0-0.2-0.1-0.3-0.2c0-0.2,0.3-0.2,0.4-0.2c0.1,0,0.2,0.1,0.2,0.2
			C59.2,41.6,59.1,41.7,59,41.7z M60.1,41.2c-0.1,0-0.1,0-0.2,0c0-0.1,0-0.2,0.1-0.2c0.1,0,0.1,0.1,0.2,0.1
			C60.3,41.2,60.2,41.2,60.1,41.2z M64.7,39.6c-0.1,0-0.2,0-0.2-0.1c0,0-0.1-0.1,0-0.1c0,0,0.1-0.1,0.2,0c0,0,0.1,0.1,0.1,0
			c0,0,0.1,0,0.1,0C64.9,39.4,64.8,39.5,64.7,39.6z M73,39.9c-0.1,0-0.2-0.1-0.3,0c0,0.1,0,0.1,0.1,0.1c0.1,0,0.1,0.1,0.1,0.1
			c0,0.1-0.1,0.1-0.1,0.1c-0.1,0-0.2-0.1-0.3-0.1c-0.1-0.1,0-0.2,0-0.3c0.2-0.1,0.4-0.3,0.6-0.3l0,0C72.9,39.6,73.3,39.8,73,39.9z
			 M76.7,35.1c0.1,0,0.1,0,0.1,0.1c0,0.1-0.1,0.2-0.2,0.3c0,0-0.1,0-0.1-0.1C76.6,35.3,76.7,35.2,76.7,35.1z M76.9,37.4
			c-0.1,0-0.1,0-0.2,0c-0.2-0.2-0.2-0.4-0.3-0.6c0-0.1,0-0.3,0.1-0.3c0-0.1-0.2-0.3,0.1-0.3c0.3,0.2,0,0.8,0.4,0.8
			C77,37.2,77,37.4,76.9,37.4z M77.4,34.1c-0.1,0-0.1,0-0.1-0.1c0-0.1,0.1-0.2,0.2-0.3c0.1,0,0.1,0,0.1,0.1
			C77.5,34,77.5,34.1,77.4,34.1z M77.6,32.6c0,0,0.1,0.1,0.1,0.1c0,0.1-0.1,0.1-0.2,0.2c-0.2,0-0.3-0.1-0.4-0.2c0-0.1-0.1-0.3,0-0.3
			c0.1,0,0.2-0.1,0.3,0C77.5,32.4,77.5,32.5,77.6,32.6z M78.3,28.6c-0.1,0-0.1-0.1-0.2,0c-0.2,0-0.2-0.2-0.4-0.2c-0.1,0,0-0.1,0-0.1
			c0,0,0.1-0.1,0.2-0.1c0.1,0.1,0.2,0.2,0.3,0.1c0,0,0.1,0,0.1,0c0,0.1,0,0.1,0,0.1C78.3,28.4,78.3,28.5,78.3,28.6
			C78.4,28.6,78.4,28.6,78.3,28.6z"/>
		<path class="st9" d="M66.6,31.3c-0.1,0-0.2,0-0.3,0c0,0,0,0.1,0,0.1c0,0.2-0.1,0-0.2,0c-0.2,0.2,0.1,0.4,0.2,0.6c0,0,0.1,0,0.1,0
			c0-0.1-0.2-0.2-0.1-0.3c0-0.1,0.1-0.1,0.1-0.1c0.1,0,0.2,0.2,0.3,0.2c0,0.3,0.4,0.3,0.5,0.5c0.1,0.1,0,0.1-0.1,0.2
			c-0.1,0-0.2,0.1-0.3,0.1c0,0.2-0.3,0.2-0.3,0.4c0,0.2,0.2,0.2,0.3,0.3c0.1,0,0.2,0,0.3-0.1c0.1,0,0.3,0,0.3,0.2
			c0,0.2,0,0.5,0.2,0.7h0.1c0.1,0.2,0.4,0.3,0.4,0.5c0,0.2,0,0.3-0.1,0.4c-0.3,0-0.2,0.4-0.3,0.6c0,0.2,0.2,0.2,0.4,0.3
			c0.2,0,0.1-0.3,0.3-0.4c0.2,0,0.3-0.1,0.5,0c0.1,0,0.1,0.2,0.2,0.2c0.1,0,0.1,0,0.1-0.1c0.2-0.3,0.4,0.1,0.6,0.1
			c0.2,0,0.4-0.1,0.5-0.3c0.2-0.2,0.7,0,0.8-0.3c0.1-0.1,0.4-0.2,0.4-0.3c0.2-0.1,0.2-0.4,0.4-0.5c0.1-0.2,0.4,0,0.5-0.3
			c0-0.1,0.1-0.2,0-0.3c-0.1-0.1-0.2-0.2-0.1-0.3c0,0,0-0.1,0-0.1c-0.1-0.1,0-0.2,0-0.3c0-0.1,0-0.2,0-0.3c0,0-0.1,0-0.1,0
			c-0.1,0-0.3,0-0.3-0.1c-0.1,0.1-0.3,0.1-0.4,0.1c-0.2,0-0.4-0.1-0.6,0c-0.1,0-0.2-0.1-0.3-0.2c-0.2-0.1-0.4-0.1-0.6-0.2
			c0-0.2-0.3-0.1-0.3-0.3c0,0,0-0.1,0-0.2c0,0-0.1,0-0.1-0.1c0-0.1-0.1-0.2,0-0.3c0,0,0.1-0.1,0.1-0.1l-0.3-0.3v-0.3
			c-0.1-0.1-0.2-0.1-0.2-0.2c0,0-0.1,0-0.1,0c-0.1,0-0.1-0.2-0.1-0.2l-0.1,0c-0.2-0.1,0-0.3-0.3-0.3c0-0.1,0-0.2,0-0.3
			c0-0.1-0.1,0-0.1-0.1c-0.1,0-0.2-0.2-0.3-0.2c-0.1,0.2-0.4,0.2-0.3,0.5c0,0.2-0.2,0.2-0.3,0.2c-0.1,0.1-0.3-0.1-0.4-0.1l0,0
			c0,0.2,0.2,0.3,0.1,0.5c0,0.1-0.1,0.1-0.1,0.2c-0.2,0,0,0.2-0.1,0.4C66.6,31.1,66.7,31.2,66.6,31.3z"/>
		<path class="st9" d="M59,38.7c0.1,0.1,0.1,0,0.2-0.1c0.1,0,0.2,0.1,0.4,0.1c0.4,0.2,0.3-0.3,0.5-0.4c0.1,0,0.1,0.1,0.1,0.1
			c0.2,0,0.4,0.1,0.6,0c0-0.1-0.2-0.2-0.3-0.3c0-0.1-0.1-0.2,0-0.3c0.1,0,0.2,0,0.2,0.1c0.3,0,0.2,0.3,0.3,0.4
			c0.1,0,0.2,0.1,0.4,0.1c0.1-0.1,0.3-0.1,0.3-0.3c-0.1-0.1-0.1-0.4-0.1-0.6c0.1-0.1,0.4-0.1,0.4-0.3c0-0.2,0.1-0.4-0.1-0.6
			c0,0-0.1,0.1-0.2,0c0,0,0-0.1,0-0.1c0,0,0.1,0,0.1,0c0-0.1,0-0.2,0.1-0.1c0.1,0,0.1,0.2,0.1,0.2c0.1,0,0.1,0,0.2-0.1
			c0-0.1-0.1-0.1-0.1-0.1c0-0.1,0-0.2,0.1-0.2c0.2-0.3-0.1-0.7,0.3-0.9c0-0.3,0.2-0.5,0-0.8c0.1-0.1,0.2-0.2,0.4-0.2
			c0.1,0,0.1-0.1,0.1-0.2l0,0c0-0.2-0.2-0.1-0.3-0.1c0,0-0.1-0.1-0.1-0.1c0-0.1-0.1-0.3,0-0.4c0.1-0.2-0.2-0.2-0.3-0.3
			c0,0,0-0.2,0.1-0.2c0.2-0.1,0-0.2,0-0.3c0-0.1,0.1-0.1,0.1-0.1c0,0,0-0.1,0-0.1c-0.2-0.1-0.2-0.3-0.3-0.4c0-0.1,0-0.3,0.1-0.4
			c-0.2,0-0.2-0.3-0.4-0.3c-0.2-0.2-0.5,0-0.6-0.3c-0.2,0.1-0.4,0-0.6,0c0,0-0.1,0.1-0.1,0.2c-0.1,0-0.1,0-0.2,0
			c-0.3,0.2-0.4,0.5-0.4,0.9c0.2,0,0.3,0.2,0.4,0.4c0.1,0,0.2,0,0.2,0.1c0,0.2,0.1,0.3,0.2,0.4c-0.2,0.1,0,0.4-0.3,0.5
			c0,0.1,0,0.2,0,0.3c-0.1,0.1-0.2,0-0.2,0c0,0,0,0,0,0.1c0,0.1,0.1,0,0.1,0c0.1,0,0.1,0.1,0.1,0.1c0,0-0.1,0.1-0.1,0
			c0,0-0.1,0.1-0.1,0.2c0.1,0.2-0.3,0.3-0.1,0.4c0,0,0,0.1,0,0.2c-0.1,0-0.2,0-0.3,0c-0.1,0-0.1,0.1-0.1,0.2c0,0,0.1,0.1,0.1,0.2
			c0,0.1,0,0.2-0.2,0.3c0,0.1,0,0.2,0.1,0.4c0,0.1-0.1,0.1-0.2,0.1c-0.1,0.2-0.1,0.5-0.4,0.6c0,0.1,0.1,0.1,0.1,0.2
			c0.2,0.2-0.1,0.4-0.1,0.6c0.1,0.2,0.2,0,0.3,0.2c-0.1,0.2,0.1,0.4,0,0.5c0,0.1-0.1,0-0.1,0c-0.1,0-0.2,0-0.3,0
			c-0.2,0.1-0.1,0.3-0.1,0.4C59.1,38.5,58.9,38.6,59,38.7z"/>
	</g>
	<g>
		<path class="st8" d="M76.1,37.7C76.1,37.8,76.1,37.8,76.1,37.7C76,37.8,76.1,37.8,76.1,37.7z"/>
		<path class="st8" d="M78.6,27.8c0.1-0.1-0.1-0.1-0.1-0.1c0-0.2-0.3,0-0.3-0.2c0-0.1-0.2-0.1-0.4-0.1c-0.1,0-0.1-0.2-0.2-0.3
			c-0.1,0-0.2,0.1-0.3,0c0-0.1,0-0.1,0-0.2c-0.3-0.2,0.1-0.2,0.1-0.4c-0.1-0.2-0.3-0.1-0.5-0.2c-0.2-0.3-0.3,0.1-0.5,0.1
			c-0.1-0.1-0.2,0.1-0.3,0c-0.1,0-0.2-0.2-0.1-0.3c-0.1-0.1,0-0.3,0-0.4c0,0-0.1-0.1-0.2,0v0.1c-0.2,0.1-0.1,0.4-0.3,0.4
			c-0.1,0-0.1-0.2-0.2-0.3c0.1-0.1-0.1-0.1-0.1-0.2c-0.2,0-0.2-0.3-0.4-0.2c-0.1-0.2-0.3-0.2-0.5-0.3C74,25.4,74,24.9,73.6,25
			c-0.2,0.1-0.4,0-0.6-0.1c-0.1-0.1-0.3,0-0.4-0.1c-0.2,0.1-0.3-0.1-0.5-0.1c-0.1,0-0.1-0.2-0.2-0.2c-0.1,0.1-0.3-0.1-0.4-0.1
			c-0.1,0-0.1,0.1-0.1,0.1c-0.3,0-0.5,0.1-0.8,0c-0.1,0-0.2-0.1-0.1-0.2c0-0.1-0.1-0.1-0.2-0.1c-0.1,0-0.1,0.1-0.2,0.2
			c-0.2,0-0.4,0.2-0.6,0c0-0.1,0-0.2-0.1-0.3c-0.1,0.1-0.1,0.2,0,0.3c0,0.2-0.3,0.1-0.3,0.4c-0.1,0.1-0.3,0.1-0.4,0.1
			c-0.1,0.1-0.1,0.3-0.3,0.3c-0.1,0-0.2-0.2-0.3-0.3c-0.1,0-0.2,0.1-0.3,0.2c-0.1,0.1-0.3-0.1-0.4,0.1c-0.2,0-0.4,0.1-0.5,0.1
			c-0.1-0.1-0.2,0-0.4,0c-0.1-0.1-0.3-0.1-0.5-0.1c-0.1,0.1-0.2,0.3-0.3,0.4c0,0.1-0.1,0.2,0,0.3c0.1,0,0.2,0,0.3,0
			c0.1,0.2,0.3,0.2,0.4,0.4c0,0.1-0.1,0.1-0.2,0.1c-0.2-0.1-0.5-0.2-0.7-0.4c-0.1-0.1,0-0.4-0.2-0.4c-0.1,0-0.1,0-0.2,0
			c-0.2,0.3-0.6,0-0.9,0.3c-0.2,0-0.3,0-0.5,0c-0.2,0-0.2,0.2-0.3,0.3c-0.2,0.1,0.1,0.1,0.1,0.2c0,0-0.1,0.1-0.1,0.1
			c-0.1-0.1-0.4,0-0.5,0c-0.3,0.2-0.6,0.2-0.8,0.4c-0.1,0-0.1-0.1-0.1-0.1c0.1-0.2,0-0.4-0.1-0.6c-0.1,0-0.1-0.3-0.3-0.2
			c0,0.2-0.2,0.4-0.2,0.6c0.1,0.1,0.2,0.2,0.2,0.3c-0.2,0.1-0.2,0.3-0.4,0.4c-0.2,0-0.4,0.1-0.6,0.2c-0.2-0.1-0.4-0.3-0.7-0.2
			l-0.1,0.2c0,0-0.1,0-0.1,0c-0.1-0.1,0-0.2,0-0.3c-0.2,0-0.1-0.2-0.2-0.2c-0.1,0-0.1,0.2-0.1,0.3c0,0.2-0.2,0.1-0.4,0.1
			c-0.1,0-0.1-0.1-0.1-0.2c-0.1,0.3-0.3-0.1-0.5,0.1c-0.1-0.1-0.1,0.1-0.2,0.2c0,0-0.1,0-0.1,0c-0.1-0.1-0.3,0-0.3,0.1
			c-0.1,0-0.2,0-0.2,0c-0.1,0-0.3,0-0.3,0.1c0,0.1,0,0.2,0.1,0.3c0,0.1,0,0.1,0,0.1c-0.1,0-0.1,0-0.2,0v0.2c-0.1,0.1-0.3,0-0.4,0.2
			c0,0.2-0.2,0.3-0.1,0.4c0,0.1-0.2,0-0.3,0.1c-0.2,0-0.3,0.1-0.5,0c-0.2,0.1-0.4-0.1-0.5-0.1c-0.2,0.1-0.4,0-0.7,0
			c-0.2,0-0.4,0-0.7,0c-0.1-0.1-0.2-0.1-0.3-0.1c-0.1,0.1-0.2,0-0.3-0.1c-0.1,0-0.2,0.2-0.2,0.3c0,0.3-0.2-0.1-0.3,0.2
			c0,0.3-0.3,0.4-0.5,0.5c0,0.1-0.2,0.2-0.2,0.3H52c0.2,0,0.3,0.2,0.5,0.2c0.2,0,0.4,0,0.6,0c0.2,0.2,0.5,0.2,0.9,0.3
			c0.2,0.1,0.4,0,0.5,0v0c0,0,0,0,0,0.1c0.1,0.1,0,0.2,0,0.3c-0.1,0.1-0.2,0-0.2-0.1c-0.1,0-0.2,0.1-0.3,0.1c-0.1,0-0.2,0.2-0.3,0.3
			c0,0,0,0.1,0.1,0.1c0.1,0,0.3,0,0.4,0c0.1,0.1,0,0.2,0.1,0.3c0.1,0,0.1-0.1,0.2-0.1c0.1-0.1,0-0.3,0-0.4c0.1-0.2,0.4-0.1,0.5-0.1
			c0.2-0.2,0.4,0.1,0.6,0c0.1-0.1,0-0.1-0.1-0.2c0,0,0-0.1,0-0.1c0.1-0.1,0.2,0,0.3,0.1c0.2,0,0.3-0.2,0.5-0.1
			c0.1,0,0.1-0.1,0.1-0.2c-0.2,0.1-0.4,0.1-0.6-0.1c0-0.3,0.3-0.1,0.5-0.2c0.1,0,0.1,0.2,0.1,0.3c0.1,0,0.3,0,0.4,0
			c0.1,0,0-0.1,0.1-0.2c0.2,0,0.3,0.3,0.6,0.2c0.1-0.2,0.4-0.1,0.4-0.2c0-0.1,0.1,0,0.1,0c0.1,0,0,0.1,0,0.1c0.2,0.1,0,0.4,0.1,0.5
			c0.1-0.1,0.3-0.1,0.5-0.1c0.1,0,0.2,0,0.2-0.1c-0.1-0.2-0.4-0.4-0.3-0.7c0-0.2-0.3-0.3-0.1-0.5c0.2,0,0.3-0.2,0.4,0
			c0,0.1,0,0.1,0,0.2c-0.2,0.4,0.4,0,0.4,0.3c0.2,0.2,0.2,0,0.4-0.1c0-0.1,0.1-0.2,0.2-0.3c0-0.2-0.2-0.1-0.3-0.3
			c-0.2-0.3,0.2-0.2,0.3-0.4c0-0.1,0-0.2,0-0.3c0.1-0.2,0.5-0.1,0.7-0.2c0-0.1,0-0.2,0-0.2c0-0.1,0.1-0.1,0.1-0.2
			c0.2,0,0.4-0.2,0.6,0c0,0.2-0.3,0.2-0.3,0.4c-0.2,0.1-0.3,0.3-0.5,0.5c-0.1,0.1-0.3,0.1-0.4,0.3c0,0.1,0.1,0,0.2,0.1
			c0.2,0,0,0.2,0.1,0.3c0.3,0.1,0.4-0.1,0.6-0.3c0-0.2,0.3-0.2,0.4-0.4c0.2-0.2,0.3-0.4,0.4-0.6c0.1-0.1,0.2,0,0.3,0.1
			c0.3,0.1,0.6,0.1,0.9,0c0.2,0,0.4-0.1,0.6,0c0.2,0,0-0.2,0.1-0.3c0.1,0,0.1,0,0.2,0.1c0.1,0.1,0,0.2,0,0.3
			c0.2,0.1,0.1-0.2,0.3-0.2c0.1,0,0.1,0,0.2,0.1l0-0.4c0-0.1,0.1-0.1,0.2-0.1c0,0,0.1,0.1,0.1,0.1c0.1,0.1,0.2,0.3,0.3,0.4l0,0
			c0.1-0.1,0-0.2-0.1-0.3c0-0.1,0-0.2,0.1-0.2c0.2,0,0.3-0.2,0.5-0.2c0.2,0.2,0.4-0.2,0.6,0c0.2,0,0.1-0.2,0.2-0.3
			c0.1,0,0.1,0,0.2,0.1c0.1,0,0.1,0.2,0.2,0.2c0.1-0.1,0.2-0.1,0.2-0.2c0.3-0.2,0.7-0.3,1.1-0.3c0.1,0.2,0.3,0.3,0.4,0.4
			c0.1,0.1,0.2,0.2,0.4,0.2c0.2-0.3-0.2-0.2-0.3-0.4c0-0.1,0-0.3,0-0.4c0.1-0.1,0.2,0,0.3,0c0.2-0.1,0-0.3,0.1-0.5c0,0,0,0,0.1,0
			c0.1,0.1,0.1,0.3,0.2,0.4c0.1,0.1,0.3,0,0.4,0.2c0,0,0.1,0,0.2,0c0.1-0.4,0.5-0.1,0.7-0.2c0.2,0.1,0.4,0,0.6,0.2
			c0.2-0.1,0.4,0.1,0.6,0c0.1,0.1,0.3,0,0.5,0c0.1,0.1,0.3,0,0.4,0.1c0.1,0,0.2-0.1,0.3-0.1c0.1,0,0.2,0.1,0.2,0.2
			c0.2,0.1,0.3,0.4,0.6,0.3c0.1,0.1,0.2-0.1,0.4-0.1c0.2,0.2,0.3,0.5,0.5,0.7h0.1c0.1,0,0.1,0.1,0.1,0.2c0.2,0.1,0.1-0.2,0.2-0.3
			c0.1-0.1,0.3,0.1,0.4,0.1c0,0.1,0.1,0.2,0.2,0.2c0,0.1,0,0.1,0,0.2c0.1,0.1,0.3-0.1,0.4,0.1c-0.1,0.3,0.4,0.4,0.4,0.7
			c0,0.1-0.1,0.1-0.2,0.2c-0.1,0.2,0.1,0.2,0.1,0.4c-0.1,0.1-0.1,0.3-0.2,0.4c-0.3,0.2-0.2,0.5-0.2,0.8c0.1,0.1,0.2,0.1,0.2,0.2
			c0,0.1-0.2,0.1-0.3,0.2c0,0.1,0,0.3,0,0.4c0,0.3-0.1,0.6-0.1,1c0.1,0,0.3-0.2,0.4-0.1c0,0.1,0,0.1,0,0.2c0.1,0.1,0,0.2,0,0.3
			c0,0-0.1,0-0.2,0c-0.1-0.1-0.2,0.1-0.3,0.1c0,0.1,0,0.1,0,0.2c-0.2,0,0,0.2-0.2,0.3c-0.1,0-0.3,0.1-0.4,0c0,0.1,0,0.2,0,0.3
			c0,0.2-0.2,0-0.3,0c0,0.2,0.3,0.2,0.3,0.4c0,0.1,0,0.1,0,0.2c-0.1,0.1,0,0.3-0.1,0.5c0.1,0.1,0.3-0.1,0.4,0c0.1,0.1,0,0.3,0,0.4
			c0,0.1-0.1,0.2-0.2,0.2c-0.2,0,0,0.2-0.1,0.3c-0.1,0-0.1,0-0.2,0c0-0.1,0-0.2,0.1-0.3c0.2-0.3-0.4-0.3-0.3-0.6
			c-0.1,0-0.2,0-0.3-0.1c-0.2,0.1,0.1,0.2,0,0.4c0,0.1,0.1,0.1,0.2,0.1c0.1,0,0.2,0.1,0.2,0.2c0,0.2-0.2,0.2-0.4,0.3
			c-0.4-0.2,0,0.3-0.3,0.3c0,0-0.1-0.1-0.1-0.1c-0.1,0.1-0.2,0.2-0.2,0.3c0.1,0.1-0.1,0.2,0,0.3c0,0.1-0.1,0.1-0.2,0.1
			c-0.1,0,0,0.1,0,0.1c0.1,0.2,0.2,0,0.4,0c0.3-0.2,0.7,0.1,1,0c0.2,0,0.2,0.2,0.2,0.4c0,0.3-0.4,0.1-0.5,0.3c-0.1,0-0.2,0-0.3,0.1
			c-0.1,0-0.2-0.1-0.3-0.1c-0.1,0.2,0,0.4-0.2,0.6c-0.1,0.1-0.3,0-0.4,0c-0.3,0-0.1-0.3-0.3-0.4c-0.1-0.1,0.1-0.2,0-0.4
			c-0.2-0.2-0.4,0.1-0.6,0c-0.1,0.2,0.2,0.2,0.3,0.3c0,0.2,0.1,0.3,0,0.5c-0.1,0-0.2,0-0.3-0.1c-0.1,0-0.1,0.1-0.2,0
			c-0.2-0.1-0.1-0.3-0.1-0.5c-0.2-0.1-0.4-0.2-0.5-0.1c0,0.1,0,0.1,0,0.2c0,0.2-0.2,0.1-0.3,0.1c-0.1,0-0.2,0.2-0.4,0.1
			c-0.1,0-0.1,0-0.1,0.1c-0.2,0-0.2,0.2-0.4,0.1c0-0.1-0.1,0-0.2-0.1c-0.2,0,0-0.2-0.2-0.3c0,0.1-0.1,0.2-0.2,0.2
			c-0.1,0-0.3,0-0.4,0c-0.2,0.1-0.5,0-0.6,0.2c-0.2,0.1-0.3-0.1-0.5-0.1c-0.1,0,0-0.1-0.1-0.2c-0.1,0-0.2,0-0.2,0
			c-0.1,0.2-0.4,0-0.5,0.1c-0.2,0-0.2-0.2-0.3-0.3c-0.1-0.1-0.2,0.1-0.3,0.1c-0.3,0.1-0.2-0.3-0.4-0.4c-0.1,0-0.2,0-0.3,0.1
			c0.1,0.2-0.1,0.4-0.3,0.5c-0.1,0-0.2,0-0.2,0c-0.1,0-0.2-0.1-0.4-0.1c-0.1,0-0.1,0.1-0.1,0.2c-0.1,0-0.1-0.1-0.2-0.1
			c-0.3,0,0,0.4-0.2,0.5c-0.1,0.1-0.2,0-0.3,0.1c-0.1,0-0.1-0.1-0.1-0.2c0.1-0.1,0.2-0.3,0.2-0.4c-0.2-0.1-0.1-0.3-0.2-0.4
			c-0.1,0.1-0.2,0.1-0.2,0.2c0,0.1-0.1,0.1-0.2,0.1c-0.1,0-0.1-0.1-0.1-0.2c-0.1,0-0.1,0.1-0.2,0.2c-0.1,0-0.3,0-0.4-0.1
			c-0.3,0,0,0.4-0.2,0.5c-0.1,0.1-0.2,0-0.2,0c-0.1,0,0,0.1-0.1,0.1c-0.1,0-0.3-0.1-0.4-0.2c-0.1,0-0.3,0-0.4,0
			c0,0.1,0.2,0.1,0.2,0.2c0,0.1,0.2,0.3,0,0.4c-0.1,0-0.2,0-0.3,0c-0.2,0.1-0.3,0-0.4,0c-0.1,0.2-0.3,0.1-0.4,0.3
			c-0.1,0-0.3,0.1-0.3,0c0-0.1,0-0.2,0.1-0.3c0.1-0.3-0.3-0.2-0.3-0.4c-0.1,0-0.1,0.1-0.1,0.1c0,0.2,0.1,0.2,0.2,0.3
			c-0.1,0.1,0.2,0.3,0,0.4c-0.1,0.1-0.3,0.1-0.4,0.2c-0.3-0.2,0.2-0.3,0.1-0.6c0,0,0,0-0.1-0.1c-0.1,0-0.1,0.1-0.1,0.1
			c-0.1,0-0.1-0.1-0.2-0.1c0,0.1,0.1,0.2,0.1,0.3c0,0.1,0,0.1-0.1,0.1c-0.2,0.2-0.4,0.4-0.7,0.5c-0.2,0-0.1,0.3-0.3,0.3
			c-0.3,0-0.5,0.1-0.7,0.1c-0.1,0-0.2-0.2-0.3-0.1c-0.2-0.2-0.3,0-0.5,0c-0.1,0.1-0.1,0.2-0.2,0.2c-0.1-0.2-0.4-0.3-0.5-0.4
			c-0.2-0.1-0.3-0.1-0.5-0.2c0-0.2-0.3-0.3-0.4-0.3c0,0,0,0.1-0.1,0.1c-0.1,0-0.1-0.2-0.1-0.3c0,0-0.1,0-0.1,0c0-0.1,0-0.2,0.1-0.2
			c0.1-0.1-0.1-0.2-0.1-0.3c-0.3,0,0,0.3-0.3,0.4c0,0.1,0.2,0.1,0.2,0.2c0,0.2-0.2,0-0.4,0.1c-0.2-0.1-0.4-0.2-0.4-0.4
			c0-0.1-0.2-0.1-0.3-0.1c-0.2,0-0.2-0.3-0.4-0.3c-0.2,0-0.1-0.3-0.3-0.4c-0.1,0-0.2,0.1-0.1,0.2c0,0.1-0.1,0.2-0.2,0.2
			c-0.2-0.1-0.3-0.3-0.3-0.4c0.1-0.1,0-0.2,0-0.4c0,0,0-0.1,0.1-0.1l-0.1-0.2c-0.1-0.1,0-0.3-0.1-0.4c-0.1-0.2,0.1-0.4,0.2-0.5
			c0-0.1-0.2,0-0.2-0.2c0-0.1-0.1,0-0.1,0.1c-0.1,0-0.1,0-0.1-0.1c0-0.1,0-0.3,0.1-0.4c0.1-0.1,0.2,0,0.2,0c0.1,0,0-0.1,0.1-0.2
			c0-0.1,0.2-0.1,0.2-0.2c-0.1-0.2-0.4-0.3-0.4-0.5c-0.1,0-0.1,0-0.2-0.1c0-0.1,0-0.4-0.1-0.4c-0.1-0.1,0-0.2,0-0.3
			c0-0.1-0.1-0.1-0.2-0.1c-0.1-0.1,0-0.2,0-0.3c-0.1-0.1-0.3-0.3-0.2-0.5c0-0.2,0.3,0,0.3-0.2c0.1-0.1,0-0.2-0.1-0.3
			c0,0-0.1,0-0.1,0c-0.2,0.1-0.2-0.2-0.3-0.3c0-0.3-0.4-0.3-0.3-0.5c0,0-0.1-0.1-0.1,0c-0.1-0.1-0.2-0.1-0.2-0.2c0,0-0.1,0-0.1,0
			c-0.2,0.3-0.7,0.2-0.7,0.6c0,0.3-0.4,0.2-0.6,0.3c0.1,0.3-0.3,0.1-0.4,0.3c0,0,0,0.1,0,0.1c0,0.1,0,0.2,0,0.2
			c0,0.1,0.1,0.2,0.2,0.3c0.1,0.1-0.1,0.3-0.1,0.4c0,0.1,0,0.3-0.1,0.4c0,0.1,0,0.2,0.1,0.2c-0.1,0.1-0.1,0.3-0.1,0.5
			c0.1,0,0.2,0.1,0.3,0.2c0.1,0.1-0.1,0.2-0.1,0.4c0,0.1-0.1,0.3,0.1,0.3c0,0.2-0.1,0.3-0.2,0.4c0,0.1,0,0.2,0,0.3
			c0.1,0.1,0.1,0.3,0.1,0.4c-0.1,0.1-0.2,0.3-0.2,0.5c0,0.2,0.1,0.2,0.2,0.4c0.1,0.2-0.2,0.3,0,0.5c-0.1,0.1-0.2,0.1-0.3,0.1
			c-0.1,0,0,0.2,0,0.3c0,0.1-0.1,0.1-0.1,0.1c-0.1-0.1-0.3-0.2-0.2-0.4c0-0.1-0.1,0-0.1,0c0,0.2,0,0.4,0,0.5c0.2,0,0.3,0.1,0.4,0.1
			c0.2,0.1,0.2,0.4,0.3,0.6c0.1,0.3,0.5,0.3,0.4,0.6c0,0.2,0.3,0.1,0.4,0.2c0.1,0.2-0.2,0-0.2,0.2c0.1,0.1,0.2,0.1,0.4,0.1
			c0.1,0.1,0,0.2,0,0.3c0,0,0.1,0,0.1,0l0-0.2c0-0.1,0.1,0,0.1-0.1c0.1,0,0.1,0.2,0.2,0.3c0.2,0,0.1,0.3,0.3,0.2
			c0.1-0.1,0.2,0.2,0.3,0.1c0,0,0-0.1,0-0.1c0-0.2-0.1-0.4,0.1-0.5c0.1,0,0.1-0.2,0.3-0.1c0.1,0.2,0.4,0.1,0.5,0.3
			c0.1,0.3-0.3,0.1-0.4,0.4l0.1,0.1c0.1,0.1,0,0.2,0.1,0.4c-0.2,0.2-0.4,0-0.6,0.2l0.1,0.1c0.1,0.1,0.2,0,0.3,0
			c0.2,0,0.3-0.3,0.4-0.5c0.1,0,0.2,0,0.2,0c0.3,0.1,0.4-0.2,0.5-0.3c0.1,0,0.2-0.1,0.3,0c0.1,0.2,0.3,0.1,0.4,0.3
			c0.1,0.2,0.3,0.3,0.3,0.6c0,0.1,0.1,0.2,0.2,0.2c0.1,0,0.2-0.1,0.1-0.3c0.1-0.1,0.3-0.1,0.5-0.1c0.1,0.1,0.2,0.3,0.3,0.4
			c0.2,0.1,0.3,0.3,0.6,0.2c0.1,0.2,0.4,0.1,0.5,0c0.1,0,0,0.1,0.1,0.2c0.1,0.1,0.3,0,0.4,0.1c0.3,0,0.1,0.3,0.3,0.4
			c0.2,0,0.2-0.2,0.3-0.4c0.1-0.1,0.2,0.1,0.2,0.1c0.2,0,0.2-0.1,0.3-0.2c0.2,0,0.3,0,0.5,0c0.2,0.1,0.4-0.1,0.6-0.1
			c0.2,0,0-0.3,0.2-0.4c0.1-0.1,0.2,0,0.3,0.1l0-0.2c0-0.1,0.1-0.1,0.2-0.1c0.1,0.1,0,0.2,0,0.3c0,0,0,0,0.1,0c0,0,0.1,0.1,0.1,0.2
			c0.1,0.2,0.3-0.1,0.4,0c0.4-0.2,0.2,0.4,0.5,0.4c0.2,0,0.4,0.1,0.6,0.1c0.2,0,0.2,0.2,0.2,0.4c0.1,0,0.1,0,0.2-0.1
			c0.1-0.1,0.3,0.1,0.4,0.2c0.1,0,0.2,0,0.2,0c0,0,0.1,0,0.2,0c0.1-0.1,0.2-0.2,0.4-0.1c0,0,0.1,0.1,0.1,0.1c0.2-0.1,0.3,0.1,0.5,0
			c-0.1-0.3,0.2-0.4,0.3-0.6c0.1,0,0.2,0,0.3,0l0-0.1c0-0.3,0.4-0.2,0.5-0.4c0.1-0.1,0.2-0.1,0.4-0.2c0.2-0.1,0.4-0.1,0.5-0.4
			c0.1,0,0.1-0.1,0.2-0.1c0.1,0,0.2-0.1,0.1-0.2c0-0.2,0.2-0.1,0.3-0.1c0.3-0.1,0.7-0.2,1.1-0.1c0.1,0,0.1,0.1,0.2,0.1
			c0.1,0,0.1-0.1,0.1-0.2c0.2-0.2,0.5-0.1,0.8,0c0.2,0,0.4-0.1,0.6-0.3c0.1,0,0.2,0,0.2,0.1c0.2,0.1,0.3-0.2,0.5-0.3
			c0.1-0.1,0.2,0,0.3,0.1c0.1,0,0.2-0.1,0.3-0.2l0.5,0.2l0.1,0c0-0.1,0.1-0.1,0.2-0.2c0,0,0.1,0,0.1,0c0.1,0.1,0.2,0,0.3,0
			c0.1-0.2,0.4-0.1,0.5-0.1c0-0.1,0-0.2,0.1-0.2c0.1,0,0.1,0,0.2,0.1c0.1,0.1,0.1-0.1,0.3-0.1c0.2,0.1,0.4,0.1,0.6,0.2
			c0.2,0,0,0.2,0.2,0.2c0.2,0,0.4,0.1,0.6,0.1c0-0.1,0-0.1-0.1-0.2c0-0.1-0.1-0.2,0-0.3c0.2-0.1,0.4-0.3,0.7-0.2
			c0.1,0.3-0.3,0.1-0.4,0.3c0,0.1,0.1,0.2,0.2,0.2c0,0,0,0.1,0.1,0.1v-0.2c0-0.2,0.2,0,0.3-0.1c0,0,0-0.1,0-0.1
			c-0.1-0.1,0.1-0.2,0.1-0.3c-0.1-0.2-0.3,0-0.5,0c-0.1-0.1-0.3-0.1-0.4-0.3c0,0,0,0,0,0c0,0,0,0,0,0c0,0.1-0.2,0.2-0.3,0.1
			c-0.1,0-0.2-0.2-0.3-0.3c0.1-0.3,0.5,0,0.6-0.4c0.1,0,0.2,0,0.3-0.1c0.1,0,0.2,0,0.3,0.1c0.2,0.1,0.1-0.2,0.2-0.3
			c0.2-0.1,0.5-0.2,0.7-0.2c0-0.1-0.1-0.1-0.1-0.2c0.1-0.2,0-0.5,0-0.8c-0.1-0.1-0.2,0-0.3,0c-0.2,0,0-0.2,0-0.3
			c0.1-0.3,0.4,0,0.5,0c0.1,0.2-0.2,0.3,0,0.4c0.1,0,0.3,0.1,0.4,0.2c-0.1,0.2-0.3-0.1-0.4,0.1c-0.1,0.2,0.2,0.2,0.2,0.4
			c0,0.1,0,0.1-0.1,0.1c0.1,0,0.3,0,0.4-0.1c0-0.2,0.2-0.1,0.3-0.2l-0.1-0.3c-0.1-0.1,0.1-0.2,0.1-0.4c0.2-0.1,0.1-0.3,0.3-0.5
			c0-0.1-0.2,0-0.3-0.1c0,0,0-0.1,0-0.1c0.3,0,0.2-0.4,0.4-0.4c0,0,0-0.1,0-0.2c0-0.2,0.2-0.2,0.3-0.3c0-0.1,0-0.1-0.1-0.1
			c0,0,0-0.1,0-0.2c0,0,0.1-0.1,0.1,0c0.1-0.1,0-0.2,0-0.3l0,0.1c0,0-0.1,0.1-0.1,0c0,0-0.1,0-0.1-0.1c0,0,0.1-0.1,0.1-0.1
			c-0.1-0.1,0.1-0.1,0-0.2c0-0.1,0.1-0.1,0.1-0.2c-0.2-0.1,0-0.4-0.3-0.4c0-0.2,0.3-0.2,0.3-0.4c0-0.1,0-0.1-0.1-0.2
			c-0.1-0.2,0.1-0.3,0.1-0.4c0-0.2-0.3-0.3-0.2-0.5c-0.1-0.1,0.1-0.2,0.1-0.4c0-0.3-0.3-0.1-0.5-0.2c0-0.1-0.1-0.2,0-0.3
			c0.1,0,0.1,0,0.2,0.1c0.2,0,0.3-0.2,0.4-0.3c0-0.3-0.2-0.1-0.3-0.2c-0.2,0-0.2-0.1-0.3-0.2c0-0.1,0-0.1,0.1-0.2
			c0-0.1,0.1-0.2,0.1-0.4c0.2-0.1,0-0.3,0.1-0.5c0-0.1,0.2,0,0.2,0c0-0.1-0.1-0.1-0.1-0.3c0,0,0.1,0,0.1,0c0-0.1,0.2-0.1,0.2-0.2
			c-0.1-0.1,0-0.3,0-0.4c0-0.1,0.2-0.2,0.2-0.4c0-0.1,0.1-0.2,0.2-0.2c0.1,0,0.1,0.1,0.1,0.2c0,0,0.1,0.1,0.2,0c0,0-0.1-0.1,0-0.1
			c-0.2-0.1,0-0.4-0.3-0.4c0,0,0-0.1,0-0.1C78.4,27.7,78.5,27.8,78.6,27.8z M56.6,29c-0.1,0-0.2,0-0.2-0.1c0-0.2,0.2-0.1,0.3-0.2
			c0,0,0.1,0,0.2,0.1C56.8,28.9,56.6,28.9,56.6,29z M57.9,28.2c-0.1,0-0.2,0-0.3-0.1c0-0.1,0-0.1,0.1-0.1c0.1,0,0.3,0,0.3,0.2
			C58.1,28.2,58,28.2,57.9,28.2z M62.8,27.7c-0.2,0-0.4,0.3-0.5,0.1c0.1-0.2-0.3-0.3-0.1-0.4c0.2,0.1,0.5-0.1,0.7,0.2
			C62.8,27.7,62.8,27.7,62.8,27.7z M58.5,41c-0.1,0-0.2-0.1-0.3-0.2c0-0.2,0.3-0.2,0.4-0.2c0.1,0,0.2,0.1,0.2,0.2
			C58.7,40.9,58.6,41,58.5,41z M59.6,40.5c-0.1,0-0.1,0-0.2,0c0-0.1,0-0.2,0.1-0.2c0.1,0,0.1,0.1,0.2,0.1
			C59.8,40.4,59.7,40.5,59.6,40.5z M64.2,38.8c-0.1,0-0.2,0-0.2-0.1c0,0-0.1-0.1,0-0.1c0,0,0.1-0.1,0.2,0c0,0,0.1,0.1,0.1,0
			c0,0,0.1,0,0.1,0C64.4,38.7,64.3,38.8,64.2,38.8z M72.5,39.1c-0.1,0-0.2-0.1-0.3,0c0,0.1,0,0.1,0.1,0.1c0.1,0,0.1,0.1,0.1,0.1
			c0,0.1-0.1,0.1-0.1,0.1c-0.1,0-0.2-0.1-0.3-0.1c-0.1-0.1,0-0.2,0-0.3c0.2-0.1,0.4-0.3,0.6-0.3l0,0C72.4,38.9,72.8,39.1,72.5,39.1z
			 M76.3,34.4c0.1,0,0.1,0,0.1,0.1c0,0.1-0.1,0.2-0.2,0.3c0,0-0.1,0-0.1-0.1C76.1,34.6,76.2,34.5,76.3,34.4z M76.4,36.7
			c-0.1,0-0.1,0-0.2,0c-0.2-0.2-0.2-0.4-0.3-0.6c0-0.1,0-0.3,0.1-0.3c0-0.1-0.2-0.3,0.1-0.3c0.3,0.2,0,0.8,0.4,0.8
			C76.5,36.5,76.5,36.6,76.4,36.7z M76.9,33.4c-0.1,0-0.1,0-0.1-0.1c0-0.1,0.1-0.2,0.2-0.3c0.1,0,0.1,0,0.1,0.1
			C77,33.2,77,33.4,76.9,33.4z M77.1,31.8c0,0,0.1,0.1,0.1,0.1c0,0.1-0.1,0.1-0.2,0.2c-0.2,0-0.3-0.1-0.4-0.2c0-0.1-0.1-0.3,0-0.3
			c0.1,0,0.2-0.1,0.3,0C77,31.7,77,31.8,77.1,31.8z M77.8,27.9c-0.1,0-0.1-0.1-0.2,0c-0.2,0-0.2-0.2-0.4-0.2c-0.1,0,0-0.1,0-0.1
			c0,0,0.1-0.1,0.2-0.1c0.1,0.1,0.2,0.2,0.3,0.1c0,0,0.1,0,0.1,0c0,0.1,0,0.1,0,0.1C77.8,27.7,77.8,27.8,77.8,27.9
			C77.9,27.9,77.9,27.9,77.8,27.9z"/>
		<path class="st8" d="M66.2,30.6c-0.1,0-0.2,0-0.3,0c0,0,0,0.1,0,0.1c0,0.2-0.1,0-0.2,0c-0.2,0.2,0.1,0.4,0.2,0.6c0,0,0.1,0,0.1,0
			c0-0.1-0.2-0.2-0.1-0.3c0-0.1,0.1-0.1,0.1-0.1c0.1,0,0.2,0.2,0.3,0.2c0,0.3,0.4,0.3,0.5,0.5c0.1,0.1,0,0.1-0.1,0.2
			c-0.1,0-0.2,0.1-0.3,0.1c0,0.2-0.3,0.2-0.3,0.4c0,0.2,0.2,0.2,0.3,0.3c0.1,0,0.2,0,0.3-0.1c0.1,0,0.3,0,0.3,0.2
			c0,0.2,0,0.5,0.2,0.7h0.1c0.1,0.2,0.4,0.3,0.4,0.5c0,0.2,0,0.3-0.1,0.4c-0.3,0-0.2,0.4-0.3,0.6c0,0.2,0.2,0.2,0.4,0.3
			c0.2,0,0.1-0.3,0.3-0.4c0.2,0,0.3-0.1,0.5,0c0.1,0,0.1,0.2,0.2,0.2c0.1,0,0.1,0,0.1-0.1c0.2-0.3,0.4,0.1,0.6,0.1
			c0.2,0,0.4-0.1,0.5-0.3c0.2-0.2,0.7,0,0.8-0.3c0.1-0.1,0.4-0.2,0.4-0.3c0.2-0.1,0.2-0.4,0.4-0.5c0.1-0.2,0.4,0,0.5-0.3
			c0-0.1,0.1-0.2,0-0.3c-0.1-0.1-0.2-0.2-0.1-0.3c0,0,0-0.1,0-0.1c-0.1-0.1,0-0.2,0-0.3c0-0.1,0-0.2,0-0.3c0,0-0.1,0-0.1,0
			c-0.1,0-0.3,0-0.3-0.1c-0.1,0.1-0.3,0.1-0.4,0.1c-0.2,0-0.4-0.1-0.6,0c-0.1,0-0.2-0.1-0.3-0.2c-0.2-0.1-0.4-0.1-0.6-0.2
			c0-0.2-0.3-0.1-0.3-0.3c0,0,0-0.1,0-0.2c0,0-0.1,0-0.1-0.1c0-0.1-0.1-0.2,0-0.3c0,0,0.1-0.1,0.1-0.1l-0.3-0.3v-0.3
			c-0.1-0.1-0.2-0.1-0.2-0.2c0,0-0.1,0-0.1,0c-0.1,0-0.1-0.2-0.1-0.2l-0.1,0c-0.2-0.1,0-0.3-0.3-0.3c0-0.1,0-0.2,0-0.3
			c0-0.1-0.1,0-0.1-0.1c-0.1,0-0.2-0.2-0.3-0.2c-0.1,0.2-0.4,0.2-0.3,0.5c0,0.2-0.2,0.2-0.3,0.2c-0.1,0.1-0.3-0.1-0.4-0.1l0,0
			c0,0.2,0.2,0.3,0.1,0.5c0,0.1-0.1,0.1-0.1,0.2c-0.2,0,0,0.2-0.1,0.4C66.2,30.3,66.2,30.5,66.2,30.6z"/>
		<path class="st8" d="M58.5,37.9c0.1,0.1,0.1,0,0.2-0.1c0.1,0,0.2,0.1,0.4,0.1c0.4,0.2,0.3-0.3,0.5-0.4c0.1,0,0.1,0.1,0.1,0.1
			c0.2,0,0.4,0.1,0.6,0c0-0.1-0.2-0.2-0.3-0.3c0-0.1-0.1-0.2,0-0.3c0.1,0,0.2,0,0.2,0.1c0.3,0,0.2,0.3,0.3,0.4
			c0.1,0,0.2,0.1,0.4,0.1c0.1-0.1,0.3-0.1,0.3-0.3c-0.1-0.1-0.1-0.4-0.1-0.6c0.1-0.1,0.4-0.1,0.4-0.3c0-0.2,0.1-0.4-0.1-0.6
			c0,0-0.1,0.1-0.2,0c0,0,0-0.1,0-0.1c0,0,0.1,0,0.1,0c0-0.1,0-0.2,0.1-0.1c0.1,0,0.1,0.2,0.1,0.2c0.1,0,0.1,0,0.2-0.1
			c0-0.1-0.1-0.1-0.1-0.1c0-0.1,0-0.2,0.1-0.2c0.2-0.3-0.1-0.7,0.3-0.9c0-0.3,0.2-0.5,0-0.8c0.1-0.1,0.2-0.2,0.4-0.2
			c0.1,0,0.1-0.1,0.1-0.2l0,0c0-0.2-0.2-0.1-0.3-0.1c0,0-0.1-0.1-0.1-0.1c0-0.1-0.1-0.3,0-0.4c0.1-0.2-0.2-0.2-0.3-0.3
			c0,0,0-0.2,0.1-0.2c0.2-0.1,0-0.2,0-0.3c0-0.1,0.1-0.1,0.1-0.1c0,0,0-0.1,0-0.1c-0.2-0.1-0.2-0.3-0.3-0.4c0-0.1,0-0.3,0.1-0.4
			c-0.2,0-0.2-0.3-0.4-0.3c-0.2-0.2-0.5,0-0.6-0.3c-0.2,0.1-0.4,0-0.6,0c0,0-0.1,0.1-0.1,0.2c-0.1,0-0.1,0-0.2,0
			c-0.3,0.2-0.4,0.5-0.4,0.9c0.2,0,0.3,0.2,0.4,0.4c0.1,0,0.2,0,0.2,0.1c0,0.2,0.1,0.3,0.2,0.4c-0.2,0.1,0,0.4-0.3,0.5
			c0,0.1,0,0.2,0,0.3c-0.1,0.1-0.2,0-0.2,0c0,0,0,0,0,0.1c0,0.1,0.1,0,0.1,0c0.1,0,0.1,0.1,0.1,0.1c0,0-0.1,0.1-0.1,0
			c0,0-0.1,0.1-0.1,0.2c0.1,0.2-0.3,0.3-0.1,0.4c0,0,0,0.1,0,0.2c-0.1,0-0.2,0-0.3,0c-0.1,0-0.1,0.1-0.1,0.2c0,0,0.1,0.1,0.1,0.2
			c0,0.1,0,0.2-0.2,0.3c0,0.1,0,0.2,0.1,0.4c0,0.1-0.1,0.1-0.2,0.1c-0.1,0.2-0.1,0.5-0.4,0.6c0,0.1,0.1,0.1,0.1,0.2
			c0.2,0.2-0.1,0.4-0.1,0.6c0.1,0.2,0.2,0,0.3,0.2c-0.1,0.2,0.1,0.4,0,0.5c0,0.1-0.1,0-0.1,0c-0.1,0-0.2,0-0.3,0
			c-0.2,0.1-0.1,0.3-0.1,0.4C58.7,37.8,58.5,37.8,58.5,37.9z"/>
	</g>
</g>
</svg>
