<?xml version="1.0" encoding="utf-8"?>
<!-- Generator: Adobe Illustrator 22.0.1, SVG Export Plug-In . SVG Version: 6.00 Build 0)  -->
<svg version="1.1" id="圖層_1" xmlns="http://www.w3.org/2000/svg" xmlns:xlink="http://www.w3.org/1999/xlink" x="0px" y="0px"
	 viewBox="0 0 112.2 162.5" style="enable-background:new 0 0 112.2 162.5;" xml:space="preserve">
<style type="text/css">
	.st0{fill:#7F0073;}
	.st1{fill:#B55DB5;}
	.st2{fill:#D19BD3;}
	.st3{fill:#FFFFFF;}
	.st4{fill:#CCCCCC;}
	.st5{filter:url(#Adobe_OpacityMaskFilter);}
	.st6{fill:url(#SVGID_2_);}
	.st7{opacity:0.37;mask:url(#SVGID_1_);}
</style>
<g>
	<g>
		<g>
			<path class="st0" d="M20.8,42.3c0,2.1-1.7,3.9-3.9,3.9c-2.1,0-3.9-1.7-3.9-3.9c0-2.1,1.7-3.9,3.9-3.9
				C19.1,38.4,20.8,40.2,20.8,42.3z"/>
		</g>
		<g>
			<path class="st1" d="M20.3,42.3c0,1.9-1.5,3.4-3.4,3.4c-1.9,0-3.4-1.5-3.4-3.4c0-1.9,1.5-3.4,3.4-3.4
				C18.8,38.9,20.3,40.4,20.3,42.3z"/>
		</g>
		<g>
			<path class="st2" d="M19.5,43.7c0,1-1.2,1.8-2.6,1.8c-1.4,0-2.6-0.8-2.6-1.8c0-1,1.2-1.8,2.6-1.8C18.3,41.9,19.5,42.7,19.5,43.7z
				"/>
		</g>
		<g>
			<path class="st2" d="M18.4,40c0,0.5-0.7,1-1.5,1c-0.8,0-1.5-0.4-1.5-1c0-0.5,0.7-1,1.5-1C17.7,39,18.4,39.4,18.4,40z"/>
		</g>
		<g>
			<path class="st3" d="M14.9,41.2c-0.2,0.3-0.5,0.4-0.7,0.3c-0.2-0.1-0.3-0.5-0.1-0.8c0.2-0.3,0.5-0.4,0.7-0.3
				C15.1,40.6,15.1,40.9,14.9,41.2z"/>
		</g>
		<g>
			<path class="st3" d="M15.5,40.1c-0.3,0.2-0.6,0.2-0.7,0.1c-0.1-0.1,0.1-0.4,0.4-0.6c0.3-0.2,0.6-0.2,0.7-0.1
				C15.9,39.6,15.8,39.9,15.5,40.1z"/>
		</g>
	</g>
	<g>
		<g>
			<path class="st0" d="M7.7,98.4c0,2.1-1.7,3.9-3.9,3.9c-2.1,0-3.9-1.7-3.9-3.9c0-2.1,1.7-3.9,3.9-3.9C6,94.5,7.7,96.2,7.7,98.4z"
				/>
		</g>
		<g>
			<path class="st1" d="M7.3,98.4c0,1.9-1.5,3.4-3.4,3.4c-1.9,0-3.4-1.5-3.4-3.4C0.5,96.5,2,95,3.9,95C5.7,95,7.3,96.5,7.3,98.4z"/>
		</g>
		<g>
			<path class="st2" d="M6.4,99.7c0,1-1.2,1.8-2.6,1.8c-1.4,0-2.6-0.8-2.6-1.8c0-1,1.2-1.8,2.6-1.8C5.3,98,6.4,98.8,6.4,99.7z"/>
		</g>
		<g>
			<path class="st2" d="M5.3,96.1c0,0.5-0.7,1-1.5,1c-0.8,0-1.5-0.4-1.5-1c0-0.5,0.7-1,1.5-1C4.7,95.1,5.3,95.5,5.3,96.1z"/>
		</g>
		<g>
			<path class="st3" d="M1.9,97.3c-0.2,0.3-0.5,0.4-0.7,0.3c-0.2-0.1-0.3-0.5-0.1-0.8c0.2-0.3,0.5-0.4,0.7-0.3C2,96.7,2,97,1.9,97.3
				z"/>
		</g>
		<g>
			<path class="st3" d="M2.4,96.1c-0.3,0.2-0.6,0.2-0.7,0.1c-0.1-0.1,0.1-0.4,0.4-0.6c0.3-0.2,0.6-0.2,0.7-0.1
				C2.9,95.7,2.7,96,2.4,96.1z"/>
		</g>
	</g>
	<g>
		<path class="st3" d="M24.7,51.8c-0.3,0-0.6-0.1-0.8-0.3l-6.7-6.6c-0.4-0.4-0.5-1.2,0-1.6c0.4-0.4,1.2-0.5,1.6,0l6.7,6.6
			c0.4,0.4,0.5,1.2,0,1.6C25.3,51.7,25,51.8,24.7,51.8z"/>
	</g>
	<g>
		<path class="st3" d="M6.1,97.2c-0.3,0-0.6-0.1-0.8-0.3c-0.5-0.4-0.5-1.2,0-1.6l13.3-14c0.4-0.5,1.2-0.5,1.6,0
			c0.5,0.4,0.5,1.2,0,1.6l-13.3,14C6.7,97.1,6.4,97.2,6.1,97.2z"/>
	</g>
	<g>
		<path class="st3" d="M22.4,77.5c-0.1,0-0.1,0-0.2,0c-0.6-0.1-1-0.7-0.9-1.3l4.2-21.7c0.1-0.6,0.7-1,1.3-0.9c0.6,0.1,1,0.7,0.9,1.3
			l-4.2,21.7C23.4,77.1,22.9,77.5,22.4,77.5z"/>
	</g>
	<g>
		<g>
			<path class="st0" d="M29,80.3c0,4.2-3.4,7.6-7.6,7.6c-4.2,0-7.6-3.4-7.6-7.6c0-4.2,3.4-7.6,7.6-7.6C25.6,72.7,29,76.1,29,80.3z"
				/>
		</g>
		<g>
			<path class="st1" d="M28.1,80.3c0,3.7-3,6.7-6.7,6.7c-3.7,0-6.7-3-6.7-6.7c0-3.7,3-6.7,6.7-6.7C25.1,73.6,28.1,76.6,28.1,80.3z"
				/>
		</g>
		<g>
			<path class="st2" d="M26.5,83c0,1.9-2.3,3.5-5.1,3.5c-2.8,0-5.1-1.6-5.1-3.5c0-1.9,2.3-3.5,5.1-3.5C24.2,79.5,26.5,81.1,26.5,83z
				"/>
		</g>
		<g>
			<path class="st2" d="M24.3,75.8c0,1.1-1.3,2-2.9,2c-1.6,0-2.9-0.9-2.9-2c0-1.1,1.3-2,2.9-2C23,73.8,24.3,74.7,24.3,75.8z"/>
		</g>
		<g>
			<path class="st3" d="M17.4,78.2c-0.3,0.6-1,0.9-1.4,0.6c-0.4-0.3-0.5-0.9-0.2-1.5c0.3-0.6,1-0.9,1.4-0.6
				C17.7,76.9,17.8,77.6,17.4,78.2z"/>
		</g>
		<g>
			<path class="st3" d="M18.6,75.9c-0.6,0.4-1.2,0.4-1.4,0.2s0.1-0.8,0.7-1.2c0.6-0.4,1.2-0.4,1.4-0.2C19.5,75,19.1,75.5,18.6,75.9z
				"/>
		</g>
	</g>
	<g>
		<path class="st3" d="M23.2,81.3L34,100.6c0.5,0.9,0.2,2.1-0.7,2.6c-0.9,0.5-2.1,0.2-2.6-0.7c0,0-0.1-0.1-0.1-0.2l-9-20.2
			c-0.2-0.5,0-1,0.5-1.2C22.4,80.7,22.9,80.9,23.2,81.3z"/>
	</g>
	<g>
		<g>
			<path class="st0" d="M33,52.1c0,3.1-2.6,5.7-5.7,5.7c-3.1,0-5.7-2.6-5.7-5.7c0-3.1,2.6-5.7,5.7-5.7C30.5,46.4,33,48.9,33,52.1z"
				/>
		</g>
		<g>
			<path class="st1" d="M32.3,52.1c0,2.8-2.2,5-5,5c-2.8,0-5-2.2-5-5c0-2.8,2.2-5,5-5C30.1,47,32.3,49.3,32.3,52.1z"/>
		</g>
		<g>
			<path class="st2" d="M31.1,54.1c0,1.4-1.7,2.6-3.8,2.6c-2.1,0-3.8-1.2-3.8-2.6c0-1.4,1.7-2.6,3.8-2.6
				C29.4,51.5,31.1,52.6,31.1,54.1z"/>
		</g>
		<g>
			<path class="st2" d="M29.5,48.7c0,0.8-1,1.5-2.2,1.5c-1.2,0-2.2-0.7-2.2-1.5c0-0.8,1-1.5,2.2-1.5C28.5,47.2,29.5,47.9,29.5,48.7z
				"/>
		</g>
		<g>
			<path class="st3" d="M24.4,50.5c-0.3,0.4-0.7,0.6-1.1,0.4c-0.3-0.2-0.4-0.7-0.1-1.1c0.3-0.4,0.7-0.6,1.1-0.4
				C24.6,49.5,24.6,50,24.4,50.5z"/>
		</g>
		<g>
			<path class="st3" d="M25.2,48.8c-0.4,0.3-0.9,0.3-1,0.1c-0.1-0.2,0.1-0.6,0.5-0.9c0.4-0.3,0.9-0.3,1-0.1
				C25.9,48.1,25.6,48.5,25.2,48.8z"/>
		</g>
	</g>
	<g>
		<g>
			<path class="st0" d="M68.3,5.6c0,3.1-2.5,5.6-5.6,5.6c-3.1,0-5.6-2.5-5.6-5.6c0-3.1,2.5-5.6,5.6-5.6C65.7,0,68.3,2.5,68.3,5.6z"
				/>
		</g>
		<g>
			<path class="st1" d="M67.6,5.6c0,2.7-2.2,4.9-4.9,4.9c-2.7,0-4.9-2.2-4.9-4.9c0-2.7,2.2-4.9,4.9-4.9C65.4,0.7,67.6,2.9,67.6,5.6z
				"/>
		</g>
		<g>
			<path class="st2" d="M66.4,7.6c0,1.4-1.7,2.5-3.7,2.5c-2.1,0-3.7-1.1-3.7-2.5c0-1.4,1.7-2.5,3.7-2.5C64.7,5,66.4,6.2,66.4,7.6z"
				/>
		</g>
		<g>
			<path class="st2" d="M64.8,2.3c0,0.8-0.9,1.4-2.1,1.4c-1.2,0-2.1-0.6-2.1-1.4c0-0.8,0.9-1.4,2.1-1.4C63.8,0.8,64.8,1.5,64.8,2.3z
				"/>
		</g>
		<g>
			<path class="st3" d="M59.8,4.1c-0.2,0.4-0.7,0.6-1,0.4c-0.3-0.2-0.4-0.7-0.1-1.1c0.2-0.4,0.7-0.6,1-0.4C59.9,3.1,60,3.6,59.8,4.1
				z"/>
		</g>
		<g>
			<path class="st3" d="M60.6,2.4c-0.4,0.3-0.9,0.3-1,0.1c-0.1-0.2,0.1-0.6,0.5-0.9c0.4-0.3,0.9-0.3,1-0.1C61.2,1.7,61,2.1,60.6,2.4
				z"/>
		</g>
	</g>
	<g>
		<path class="st3" d="M55.2,24.3l5.2-16.4c0.1-0.5,0.6-0.7,1.1-0.6c0.4,0.1,0.7,0.6,0.6,1l-3.2,16.9c-0.2,1-1.2,1.7-2.2,1.5
			c-1-0.2-1.7-1.2-1.5-2.2C55.2,24.4,55.2,24.4,55.2,24.3z"/>
	</g>
	<g>
		<path class="st3" d="M28.9,49.4L50.7,31c0.8-0.7,2-0.6,2.7,0.2c0.7,0.8,0.6,2-0.2,2.7c0,0,0,0-0.1,0.1L30.5,51.4
			c-0.6,0.4-1.4,0.3-1.8-0.2C28.3,50.6,28.3,49.8,28.9,49.4z"/>
	</g>
	<g>
		<g>
			<path class="st0" d="M63.8,29.4c0,4.5-3.7,8.2-8.2,8.2c-4.5,0-8.2-3.7-8.2-8.2c0-4.5,3.7-8.2,8.2-8.2
				C60.2,21.2,63.8,24.9,63.8,29.4z"/>
		</g>
		<g>
			<path class="st1" d="M62.9,29.4c0,4-3.2,7.2-7.2,7.2c-4,0-7.2-3.2-7.2-7.2c0-4,3.2-7.2,7.2-7.2C59.6,22.2,62.9,25.4,62.9,29.4z"
				/>
		</g>
		<g>
			<path class="st2" d="M61.1,32.3c0,2.1-2.5,3.7-5.5,3.7c-3,0-5.5-1.7-5.5-3.7c0-2.1,2.5-3.7,5.5-3.7
				C58.7,28.5,61.1,30.2,61.1,32.3z"/>
		</g>
		<g>
			<path class="st2" d="M58.7,24.5c0,1.2-1.4,2.1-3.1,2.1c-1.7,0-3.1-0.9-3.1-2.1c0-1.2,1.4-2.1,3.1-2.1
				C57.3,22.4,58.7,23.4,58.7,24.5z"/>
		</g>
		<g>
			<path class="st3" d="M51.4,27.1c-0.4,0.6-1,0.9-1.5,0.6c-0.5-0.3-0.6-1-0.2-1.6c0.4-0.6,1-0.9,1.5-0.6
				C51.7,25.8,51.8,26.5,51.4,27.1z"/>
		</g>
		<g>
			<path class="st3" d="M52.6,24.7c-0.6,0.4-1.3,0.5-1.5,0.2c-0.2-0.3,0.1-0.9,0.7-1.3c0.6-0.4,1.3-0.5,1.5-0.2
				C53.6,23.7,53.2,24.3,52.6,24.7z"/>
		</g>
	</g>
	<g>
		<g>
			<path class="st0" d="M44.1,104.7c0,5.1-4.1,9.2-9.2,9.2c-5.1,0-9.2-4.1-9.2-9.2c0-5.1,4.1-9.2,9.2-9.2
				C40,95.5,44.1,99.6,44.1,104.7z"/>
		</g>
		<g>
			<path class="st1" d="M43,104.7c0,4.5-3.6,8.1-8.1,8.1c-4.5,0-8.1-3.6-8.1-8.1c0-4.5,3.6-8.1,8.1-8.1C39.4,96.6,43,100.2,43,104.7
				z"/>
		</g>
		<g>
			<path class="st2" d="M41.1,108c0,2.3-2.8,4.2-6.2,4.2c-3.4,0-6.2-1.9-6.2-4.2c0-2.3,2.8-4.2,6.2-4.2
				C38.3,103.8,41.1,105.6,41.1,108z"/>
		</g>
		<g>
			<path class="st2" d="M38.4,99.2c0,1.3-1.6,2.4-3.5,2.4c-1.9,0-3.5-1.1-3.5-2.4c0-1.3,1.6-2.4,3.5-2.4
				C36.8,96.9,38.4,97.9,38.4,99.2z"/>
		</g>
		<g>
			<path class="st3" d="M30.1,102.2c-0.4,0.7-1.2,1-1.7,0.7c-0.5-0.3-0.6-1.1-0.2-1.8c0.4-0.7,1.2-1,1.7-0.7
				C30.4,100.6,30.5,101.5,30.1,102.2z"/>
		</g>
		<g>
			<path class="st3" d="M31.5,99.4c-0.7,0.4-1.4,0.5-1.6,0.2c-0.2-0.3,0.2-1,0.8-1.4c0.7-0.4,1.4-0.5,1.6-0.2
				C32.6,98.3,32.2,98.9,31.5,99.4z"/>
		</g>
	</g>
	<g>
		<path class="st3" d="M58.7,30.8l14.8,16c1.5,1.7,1.4,4.3-0.2,5.8c-1.7,1.5-4.3,1.4-5.8-0.2c-0.2-0.2-0.4-0.4-0.5-0.7L55.6,33.1
			c-0.5-0.9-0.3-2.1,0.7-2.6C57.1,30,58.1,30.1,58.7,30.8z"/>
	</g>
	<g>
		<path class="st3" d="M36.7,101.3l23.8-15.3c1.8-1.1,4.1-0.6,5.3,1.2c1.1,1.8,0.6,4.1-1.2,5.3c-0.1,0.1-0.3,0.2-0.5,0.2l-25.7,11.9
			c-1,0.4-2.1,0-2.5-0.9C35.6,102.8,35.9,101.8,36.7,101.3z"/>
	</g>
	<g>
		<g>
			<path class="st0" d="M81.5,50.2c0,6.3-5.1,11.4-11.4,11.4c-6.3,0-11.4-5.1-11.4-11.4c0-6.3,5.1-11.4,11.4-11.4
				C76.4,38.8,81.5,43.9,81.5,50.2z"/>
		</g>
		<g>
			<path class="st1" d="M80.2,50.2c0,5.6-4.5,10-10,10c-5.6,0-10-4.5-10-10c0-5.6,4.5-10,10-10C75.7,40.1,80.2,44.6,80.2,50.2z"/>
		</g>
		<g>
			<path class="st2" d="M77.8,54.2c0,2.9-3.4,5.2-7.6,5.2c-4.2,0-7.6-2.3-7.6-5.2c0-2.9,3.4-5.2,7.6-5.2
				C74.3,49,77.8,51.4,77.8,54.2z"/>
		</g>
		<g>
			<path class="st2" d="M74.4,43.4c0,1.6-1.9,2.9-4.3,2.9c-2.4,0-4.3-1.3-4.3-2.9c0-1.6,1.9-2.9,4.3-2.9
				C72.5,40.5,74.4,41.8,74.4,43.4z"/>
		</g>
		<g>
			<path class="st3" d="M64.2,47c-0.5,0.9-1.4,1.3-2.1,0.9c-0.7-0.4-0.8-1.4-0.3-2.3c0.5-0.9,1.4-1.3,2.1-0.9
				C64.6,45.2,64.7,46.2,64.2,47z"/>
		</g>
		<g>
			<path class="st3" d="M65.9,43.6c-0.8,0.6-1.8,0.7-2,0.2c-0.3-0.4,0.2-1.2,1-1.8c0.8-0.6,1.8-0.7,2-0.2
				C67.3,42.3,66.8,43.1,65.9,43.6z"/>
		</g>
	</g>
	<g>
		<path class="st3" d="M27.9,133.7c-0.1,0-0.3,0-0.4,0c-1-0.2-1.7-1.1-1.5-2l5.1-21.6c0.2-0.9,1.2-1.5,2.3-1.3c1,0.2,1.7,1.1,1.5,2
			l-5.1,21.6C29.6,133.2,28.8,133.7,27.9,133.7z"/>
	</g>
	<g>
		<g>
			<path class="st0" d="M33.1,135.1c0,3.1-2.5,5.6-5.6,5.6c-3.1,0-5.6-2.5-5.6-5.6c0-3.1,2.5-5.6,5.6-5.6
				C30.6,129.5,33.1,132,33.1,135.1z"/>
		</g>
		<g>
			<path class="st1" d="M32.4,135.1c0,2.7-2.2,4.9-4.9,4.9c-2.7,0-4.9-2.2-4.9-4.9c0-2.7,2.2-4.9,4.9-4.9
				C30.2,130.2,32.4,132.4,32.4,135.1z"/>
		</g>
		<g>
			<path class="st2" d="M31.2,137.1c0,1.4-1.7,2.5-3.7,2.5c-2.1,0-3.7-1.1-3.7-2.5c0-1.4,1.7-2.5,3.7-2.5
				C29.5,134.6,31.2,135.7,31.2,137.1z"/>
		</g>
		<g>
			<path class="st2" d="M29.6,131.8c0,0.8-0.9,1.4-2.1,1.4c-1.2,0-2.1-0.6-2.1-1.4c0-0.8,0.9-1.4,2.1-1.4
				C28.6,130.4,29.6,131,29.6,131.8z"/>
		</g>
		<g>
			<path class="st3" d="M24.6,133.6c-0.2,0.4-0.7,0.6-1,0.4c-0.3-0.2-0.4-0.7-0.1-1.1c0.2-0.4,0.7-0.6,1-0.4
				C24.8,132.7,24.8,133.2,24.6,133.6z"/>
		</g>
		<g>
			<path class="st3" d="M25.4,131.9c-0.4,0.3-0.9,0.3-1,0.1c-0.1-0.2,0.1-0.6,0.5-0.9c0.4-0.3,0.9-0.3,1-0.1
				C26,131.2,25.8,131.6,25.4,131.9z"/>
		</g>
	</g>
	<g>
		<path class="st3" d="M77.1,49.3c-1.5,0-3-0.9-3.7-2.3c-1-2-0.1-4.5,1.9-5.5l20.1-9.7c2-1,4.5-0.1,5.5,1.9c1,2,0.1,4.5-1.9,5.5
			l-20.1,9.7C78.3,49.2,77.7,49.3,77.1,49.3z"/>
	</g>
	<g>
		<g>
			<path class="st0" d="M112.2,31.4c0,4.8-3.9,8.7-8.7,8.7c-4.8,0-8.7-3.9-8.7-8.7c0-4.8,3.9-8.7,8.7-8.7
				C108.3,22.7,112.2,26.6,112.2,31.4z"/>
		</g>
		<g>
			<path class="st1" d="M111.2,31.4c0,4.2-3.4,7.7-7.7,7.7c-4.2,0-7.7-3.4-7.7-7.7c0-4.2,3.4-7.7,7.7-7.7
				C107.7,23.7,111.2,27.2,111.2,31.4z"/>
		</g>
		<g>
			<path class="st2" d="M109.3,34.5c0,2.2-2.6,4-5.8,4c-3.2,0-5.8-1.8-5.8-4c0-2.2,2.6-4,5.8-4C106.7,30.5,109.3,32.3,109.3,34.5z"
				/>
		</g>
		<g>
			<path class="st2" d="M106.8,26.2c0,1.2-1.5,2.2-3.3,2.2c-1.8,0-3.3-1-3.3-2.2c0-1.2,1.5-2.2,3.3-2.2
				C105.3,24,106.8,25,106.8,26.2z"/>
		</g>
		<g>
			<path class="st3" d="M99,29c-0.4,0.7-1.1,1-1.6,0.7c-0.5-0.3-0.6-1.1-0.2-1.7c0.4-0.7,1.1-1,1.6-0.7C99.3,27.6,99.4,28.3,99,29z"
				/>
		</g>
		<g>
			<path class="st3" d="M100.3,26.4c-0.6,0.4-1.3,0.5-1.6,0.2c-0.2-0.3,0.1-0.9,0.8-1.3c0.6-0.4,1.3-0.5,1.6-0.2
				C101.3,25.4,101,26,100.3,26.4z"/>
		</g>
	</g>
	<g>
		<path class="st4" d="M67.5,85.4c-0.1,0-0.3,0-0.4,0c-2.3-0.2-3.9-2-3.7-4L66,57.5c0.2-2,2.2-3.5,4.5-3.3c2.3,0.2,3.9,2,3.7,4
			l-2.7,23.8C71.3,84,69.6,85.4,67.5,85.4z"/>
	</g>
	<g>
		<g>
			<path class="st0" d="M81.2,87.3c0,8.1-6.6,14.7-14.7,14.7c-8.1,0-14.7-6.6-14.7-14.7c0-8.1,6.6-14.7,14.7-14.7
				C74.7,72.7,81.2,79.2,81.2,87.3z"/>
		</g>
		<g>
			<path class="st1" d="M79.5,87.3c0,7.2-5.8,13-13,13c-7.2,0-13-5.8-13-13c0-7.2,5.8-13,13-13C73.7,74.4,79.5,80.2,79.5,87.3z"/>
		</g>
		<g>
			<path class="st2" d="M76.4,92.5c0,3.7-4.4,6.7-9.8,6.7c-5.4,0-9.8-3-9.8-6.7c0-3.7,4.4-6.7,9.8-6.7C72,85.9,76.4,88.9,76.4,92.5z
				"/>
		</g>
		<g>
			<path class="st2" d="M72.1,78.6c0,2.1-2.5,3.8-5.6,3.8c-3.1,0-5.6-1.7-5.6-3.8c0-2.1,2.5-3.8,5.6-3.8
				C69.6,74.8,72.1,76.5,72.1,78.6z"/>
		</g>
		<g>
			<path class="st3" d="M58.9,83.3c-0.7,1.1-1.9,1.6-2.7,1.2c-0.8-0.5-1-1.8-0.4-2.9c0.7-1.1,1.9-1.6,2.7-1.2
				C59.4,80.9,59.6,82.2,58.9,83.3z"/>
		</g>
		<g>
			<path class="st3" d="M61.1,78.9c-1.1,0.7-2.3,0.8-2.6,0.3s0.2-1.6,1.3-2.3c1.1-0.7,2.3-0.8,2.6-0.3
				C62.8,77.2,62.2,78.2,61.1,78.9z"/>
		</g>
	</g>
	<g>
		<path class="st3" d="M91.7,119.8c-1,0-2-0.4-2.8-1.2L68,96.2c-1.4-1.5-1.4-4,0.2-5.4c1.5-1.4,4-1.4,5.4,0.2l20.9,22.4
			c1.4,1.5,1.4,4-0.2,5.4C93.6,119.5,92.6,119.8,91.7,119.8z"/>
	</g>
	<g>
		<g>
			<path class="st0" d="M104.4,117.3c0,6.1-5,11.1-11.1,11.1c-6.1,0-11.1-5-11.1-11.1c0-6.1,5-11.1,11.1-11.1
				C99.4,106.3,104.4,111.2,104.4,117.3z"/>
		</g>
		<g>
			<path class="st1" d="M103.1,117.3c0,5.4-4.4,9.8-9.8,9.8c-5.4,0-9.8-4.4-9.8-9.8c0-5.4,4.4-9.8,9.8-9.8
				C98.7,107.6,103.1,111.9,103.1,117.3z"/>
		</g>
		<g>
			<path class="st2" d="M100.7,121.2c0,2.8-3.3,5-7.4,5c-4.1,0-7.4-2.3-7.4-5c0-2.8,3.3-5,7.4-5C97.4,116.2,100.7,118.5,100.7,121.2
				z"/>
		</g>
		<g>
			<path class="st2" d="M97.5,110.8c0,1.6-1.9,2.9-4.2,2.9c-2.3,0-4.2-1.3-4.2-2.9c0-1.6,1.9-2.9,4.2-2.9
				C95.6,107.9,97.5,109.2,97.5,110.8z"/>
		</g>
		<g>
			<path class="st3" d="M87.6,114.3c-0.5,0.9-1.4,1.2-2,0.9c-0.6-0.4-0.8-1.4-0.3-2.2c0.5-0.9,1.4-1.2,2-0.9
				C87.9,112.4,88.1,113.4,87.6,114.3z"/>
		</g>
		<g>
			<path class="st3" d="M89.2,110.9c-0.8,0.5-1.7,0.6-2,0.2c-0.3-0.4,0.2-1.2,1-1.7c0.8-0.5,1.7-0.6,2-0.2
				C90.5,109.6,90,110.4,89.2,110.9z"/>
		</g>
	</g>
</g>
<defs>
	<filter id="Adobe_OpacityMaskFilter" filterUnits="userSpaceOnUse" x="22.1" y="149.1" width="82.6" height="11.9">
		<feColorMatrix  type="matrix" values="1 0 0 0 0  0 1 0 0 0  0 0 1 0 0  0 0 0 1 0"/>
	</filter>
</defs>
<mask maskUnits="userSpaceOnUse" x="22.1" y="149.1" width="82.6" height="11.9" id="SVGID_1_">
	<g class="st5">
		
			<radialGradient id="SVGID_2_" cx="663.754" cy="1347.4032" r="24.993" gradientTransform="matrix(-1.6526 2.900000e-03 1.240000e-02 -0.2389 1143.5972 475.0665)" gradientUnits="userSpaceOnUse">
			<stop  offset="0" style="stop-color:#FFFFFF"/>
			<stop  offset="0.1213" style="stop-color:#D1D1D1"/>
			<stop  offset="0.3023" style="stop-color:#929292"/>
			<stop  offset="0.4757" style="stop-color:#5E5E5E"/>
			<stop  offset="0.6368" style="stop-color:#353535"/>
			<stop  offset="0.7828" style="stop-color:#181818"/>
			<stop  offset="0.9086" style="stop-color:#060606"/>
			<stop  offset="1" style="stop-color:#000000"/>
		</radialGradient>
		<path class="st6" d="M22.1,155.2c0.2-3.3,18.8-6,41.6-6.1c22.8,0,41.1,2.6,40.9,5.9c-0.1,3.3-18.7,6-41.6,6
			C40.3,161.1,21.9,158.5,22.1,155.2z"/>
	</g>
</mask>
<path class="st7" d="M22.1,155.2c0.2-3.3,18.8-6,41.6-6.1c22.8,0,41.1,2.6,40.9,5.9c-0.1,3.3-18.7,6-41.6,6
	C40.3,161.1,21.9,158.5,22.1,155.2z"/>
</svg>
