<?xml version="1.0" encoding="UTF-8"?><svg id="svg1" xmlns="http://www.w3.org/2000/svg" width="300" height="90" viewBox="0 0 300 90"><rect y="16" width="300" height="61" style="fill:#004280;"/><path d="M67.75,36v32h7c11,0,17.5-6.75,17.5-15.75s-6-16.25-19-16.25c0,0-5.5,0-5.5,0ZM74.75,61.5v-19.25c7-.5,10.25,4.5,10.25,10.25,0,5.25-3.25,9.5-10.25,9Z" style="fill:#fff;"/><polygon points="165 36 157.75 36 157.75 53.75 138 35.5 138 68 145.25 68 145.25 51.25 165 69.5 165 36" style="fill:#fff;"/><polygon points="168.25 42.25 177 42.25 177 68 184.75 68 184.75 42.25 193.5 42.25 193.5 36 168.25 36 168.25 42.25" style="fill:#fff;"/><polygon points="196.25 68 196.25 36 215.25 36 215.25 42 203.5 42 203.5 49 214 49 214 55 203.5 55 203.5 62 215.25 62 215.25 68 196.25 68" style="fill:#fff;"/><polygon points="265.5 36 265.5 49 253 49 253 36 245.75 36 245.75 68 253 68 253 55 265.5 55 265.5 68 272.75 68 272.75 36 265.5 36" style="fill:#fff;"/><polygon points="88.75 36 105 69 109 60.5 97 36 88.75 36" style="fill:#fff;"/><polygon points="121.5 35 117.5 43.25 120.75 51.75 113.25 51.75 110.75 57 122.75 57 127.5 68 135.75 68 121.5 35" style="fill:#fff;"/><path d="M216.75,52c0,10.5,8,16.25,17.75,16.25,3.75,0,6-1,7.5-2v-7.5c-1.5,2-4.5,3.25-7.5,3.25-5.75,0-10.5-4-10.5-10.25s5.25-10,10.5-10c3,0,6,1.25,7.5,3.25v-7c-1.25-1.25-3.75-2.25-7.75-2.25-9.75,0-17.5,7-17.5,16.25Z" style="fill:#fff;"/><path d="M42.75,55.5l4.5-11.25,4.5,11.25h-9ZM66,68l-18.5-40-18.5,40h9l2.5-6.75h13.25l2.75,6.75h9.5Z" style="fill:#fff;"/></svg>