<?xml version="1.0" encoding="UTF-8"?><svg id="svg1" xmlns="http://www.w3.org/2000/svg" width="300" height="90" viewBox="0 0 300 90"><path d="M25.63,27.26c1.6-2,2.68-4.68,2.39-7.42-2.34.12-5.19,1.54-6.84,3.54-1.48,1.71-2.79,4.5-2.45,7.13,2.62.23,5.24-1.31,6.9-3.25M27.99,31.03c-3.81-.23-7.05,2.16-8.87,2.16s-4.61-2.05-7.62-1.99c-3.92.06-7.56,2.28-9.55,5.8-4.09,7.06-1.08,17.52,2.9,23.27,1.93,2.84,4.26,5.97,7.33,5.86,2.9-.11,4.04-1.88,7.56-1.88s4.55,1.88,7.62,1.82c3.18-.06,5.17-2.84,7.11-5.69,2.22-3.24,3.13-6.37,3.18-6.54-.06-.06-6.14-2.39-6.2-9.39-.06-5.86,4.78-8.65,5-8.82-2.73-4.04-6.99-4.49-8.47-4.61M78.23,65.77v-18.9h-21.77v18.9h-6.62V23.1h6.62v18.04h21.77v-18.04h6.62v42.67h-6.62ZM89.51,50.22c0-9.79,5.77-15.94,14.76-15.94s14.76,6.15,14.76,15.94-5.71,15.94-14.76,15.94-14.76-6.12-14.76-15.94h0ZM112.52,50.22c0-6.71-3.08-10.68-8.25-10.68s-8.25,3.99-8.25,10.68,3.08,10.68,8.25,10.68,8.25-3.93,8.25-10.68h0ZM123.36,34.66h6.09v5.32h.15c1.39-3.52,4.76-5.68,8.84-5.68,4.32,0,7.45,2.22,8.69,6.09h.15c1.6-3.79,5.26-6.09,9.7-6.09,6.15,0,10.17,4.08,10.17,10.29v21.17h-6.42v-19.67c0-3.99-2.16-6.3-5.94-6.3s-6.42,2.78-6.42,6.71v19.25h-6.27v-20.11c0-3.58-2.28-5.86-5.89-5.86-3.79,0-6.48,2.93-6.48,6.95v19.02h-6.39v-31.11ZM199.87,56.63c-.86,5.65-6.36,9.52-13.4,9.52-9.05,0-14.67-6.06-14.67-15.79s5.65-16.09,14.4-16.09,14.02,5.91,14.02,15.35v2.19h-21.97v.38c0,5.32,3.34,8.81,8.37,8.81,3.55,0,6.33-1.69,7.19-4.38h6.06ZM178.28,47.35h15.56c-.15-4.76-3.19-7.9-7.63-7.9s-7.6,3.19-7.93,7.9ZM221.63,23.1c8.28,0,14.05,5.71,14.05,14.02s-5.88,14.08-14.25,14.08h-9.17v14.58h-6.62V23.1h16ZM212.26,45.63h7.6c5.77,0,9.05-3.11,9.05-8.49s-3.28-8.46-9.02-8.46h-7.63v16.95ZM237.32,50.22c0-9.79,5.77-15.94,14.76-15.94s14.76,6.15,14.76,15.94-5.71,15.94-14.76,15.94-14.76-6.12-14.76-15.94h0ZM260.33,50.22c0-6.71-3.08-10.68-8.25-10.68s-8.25,3.99-8.25,10.68,3.08,10.68,8.25,10.68,8.25-3.93,8.25-10.68h0ZM270.69,50.22c0-9.61,5.29-15.88,13.01-15.88,4.47,0,7.98,2.07,9.76,5.5h.12v-16.74h6.42v42.67h-6.21v-5.29h-.12c-1.83,3.55-5.38,5.62-9.91,5.62-7.78,0-13.07-6.27-13.07-15.88h0ZM277.23,50.22c0,6.39,3.25,10.47,8.22,10.47s8.19-4.14,8.19-10.47-3.28-10.44-8.19-10.44-8.22,4.11-8.22,10.44h0Z"/></svg>