<?xml version="1.0" encoding="UTF-8"?><svg id="svg1" xmlns="http://www.w3.org/2000/svg" width="300" height="90" viewBox="0 0 300 90"><g id="BUSINESS"><g id="Desktop_BusinessNav"><g id="Navigation"><g id="Group-2"><g id="Group-9"><g id="Nav-Logo"><path id="Fill-1" d="M76.7,40.97h16.62c1.16,0,1.39,1.19.51,2.63l-3.35,5.5c-.89,1.43-2.57,2.61-3.73,2.61h-16.62c-1.17,0-1.39-1.19-.5-2.61l3.35-5.5c.89-1.45,2.57-2.63,3.73-2.63" style="fill:#0087a9; fill-rule:evenodd;"/><path id="Fill-3" d="M156.17,15.29c6.13-.56,13.36,4.23,9.77,10.45-3.39,5.68-15.79,7.11-19.53,6.79-1.2-.13-3.14-.86-3.06-2.73.04-1.35.79-6.01,3.35-9.67,2.67-3.6,6.61-4.64,9.47-4.84" style="fill:#0087a9; fill-rule:evenodd;"/><path id="Fill-5" d="M194.24,27.39c1.91-.82,2.08,1.24,2.02,1.84v4.8c0,.92.79.5,1.2.34,5.71-2.43,11.51-5.99,18.9-5.82,6.52.16,8.49,5.29,8.46,11.22v25.19c0,2.22.16,2.75,1.2,3.61.35.17,2.06.33,2.75.33s.7.51.53,1.05l-1.57,3.94c-.34.68-1.02.86-1.55.86h-14.86c-5.17-.17-6.75-4.02-6.67-6v-23.98c0-4.93-8.06-5.29-8.06,1.32v20.25c.07.94-.22,2.24,2.35,2.41,1.73,0,2.95-.17,2.08,1.88l-1.26,3.18c-.29.59-1,.94-1.66.94h-24.6c-.51,0-.94-.6-.83-1.04l1.74-4.46c.07-.2.24-.49.49-.5.8-.04,1.36-.43,1.54-2.75v-26.29c0-2.15-1.99-1.89-3.45-1.89-.68,0-1.04-.17-.87-1.02l1.38-2.92c.18-.7.52-.94,1.04-1.03,8.08-1.28,12.81-1.84,19.69-5.45" style="fill:#0087a9; fill-rule:evenodd;"/><path id="Fill-6" d="M292.06,19.05v2.39h.88c.97,0,1.61-.05,1.94-.16.22-.05.41-.19.55-.4.16-.2.23-.42.23-.63,0-.34-.14-.63-.37-.86-.25-.24-.88-.35-1.91-.35h-1.31ZM291.16,18.31h2.7c.97,0,1.67.18,2.08.54.42.36.64.8.64,1.34s-.22,1.01-.66,1.39c-.31.28-.78.46-1.39.55.27.14.47.25.58.35.12.11.3.32.53.65.25.33.42.6.55.83l.72,1.27h-1.11l-.67-1.14c-.52-.89-.91-1.41-1.18-1.59-.29-.18-.72-.26-1.33-.26h-.57v2.99h-.9v-6.91h0ZM299.3,21.98c0-1.56-.58-2.91-1.69-4.02-1.11-1.12-2.46-1.68-4.05-1.68s-2.93.56-4.04,1.68c-1.13,1.11-1.69,2.46-1.69,4.02s.56,2.93,1.69,4.02c1.11,1.12,2.45,1.68,4.04,1.68s2.93-.56,4.05-1.68c1.12-1.1,1.69-2.45,1.69-4.02h0ZM300,21.98c0,1.78-.63,3.29-1.9,4.53-1.26,1.27-2.76,1.89-4.54,1.89s-3.31-.62-4.56-1.89c-1.28-1.24-1.89-2.75-1.89-4.53s.62-3.28,1.89-4.53c1.25-1.25,2.77-1.88,4.56-1.88s3.28.63,4.54,1.88c1.27,1.25,1.9,2.78,1.9,4.53h0Z" style="fill:#0087a9; fill-rule:evenodd;"/><path id="Fill-7" d="M254.25,16.3c1.42-.22,2.23.63,2.23,2.19v25.18c.16,1.38,1.18.43,1.48.05l8.74-11.02c.91-1.17,3.16-1.37,4.55-1.4h19.05c.35,0,.52.4.18.86l-2.42,3.27c-.22.29-.41.69-1.57.69h-.91c-.87.03-1.05.33-1.39.52l-9.76,10.92c-2.08,2.46-1.57,3.49.27,5.24l13.41,13.71c2.98,2.07,5.68,2.24,8.78,2.39.84.06.65.71.34,1.05l-3.45,3.94c-.34.51-1.86.86-2.72.86h-13.3c-1.72,0-4.82-.53-7.23-2.06-4.82-3.94-7.9-8.96-12.59-13.39-.84-.77-1.48-.42-1.48.27v5.74c0,2.59,1.06,3.27,4.87,3.44,1.42.08,1.04.85.69,1.71l-1.24,3.26c-.34.79-.84,1.03-1.52,1.04h-27.58c-.87,0-1.41-.26-1.25-.78l1.55-4.02c.32-.79.54-.97,1.71-1.03,1.9-.11,2.6-.72,2.62-3.55V28.37c0-1.27-.28-1.77-1.19-1.65l-3.5.49c-1.04.15-1.24-.62-.81-1.37l2.14-3.56c.42-.71,1.18-.79,2-.93,7.02-1.11,14.12-3.14,18.49-4.82.25-.09.48-.17.8-.24" style="fill:#0087a9; fill-rule:evenodd;"/><path id="Fill-8" d="M165.46,31.16c.87-.33,1.89.35,1.73,2.24v32.59c.47,2.31,1.19,2.85,3.22,3.08,0,0,1.43.05,1.04,1.03l-1.32,3.44c-.52,1.03-.86,1.2-2.07,1.2h-25.63c-.66-.04-.93-.49-.71-1.2l1.26-3.26c.21-.46.32-.89,1.17-1.04,2.58-.67,2.76-1.01,2.76-4.46v-19.54c0-3.25-.53-3.09-4.31-2.75-.69-.17-.64-.81-.53-1.03l1.92-3.6c.5-1.03,1.18-1.03,1.18-1.03,7.27-.56,14.54-2.32,20.31-5.67" style="fill:#0087a9; fill-rule:evenodd;"/><path id="Fill-10" d="M36.13,74.73c5.57.08,12.31.35,18.54-4.49,4.46-2.95,9.81-14.79,11.75-19.66.94-2.54,1.2-5.92,0-8.45-3.41-7.6-8.32-16.16-11.53-19.58-4.65-4.28-8.99-4.63-16.24-4.63H7.69c-1.3,0-2.77.33-3.29,1.21l-2.23,4.11c-.35,1.73,1.72,1.9,1.72,1.9h3.15c.86,0,1.03.67,1.03,1.37v38.11c0,1.72-1.94,2.74-3.5,3.09-.68.18-1.72.38-2.24,1.19L.08,73.22c-.33.84.37,1.55,1.06,1.53,12.21,0,22.76.02,34.99-.02M28.27,67.64V26.67c0-1.03.15-1.53,1.18-1.7h3.02c1.07,0,2.65-.21,3.61,1.46l10.37,18.05c.86,1.88.61,2.66,0,3.95l-10.52,17.69c-1.27,1.75-1.86,1.41-3.46,1.53-.02,0,.03,0,0,0h-4.21" style="fill:#0087a9; fill-rule:evenodd;"/><path id="Fill-12" d="M124.47,18.3c1.31.03,1.8.8,1.53,1.31l-2.75,5s-.33,1.03-2.76,1.03h-.25c-1.56,0-2.79,0-2.96,3.1v36.2c0,1.55.66,2.88,2.56,2.94h3.76c6.13-.08,5.99-6.36,7.36-11.86.35-.84.52-1.37,1.56-1.86l5.45-1.9c.69,0,1.38,0,1.55,1.2v18.2c.17,1.72-1.39,3.25-3.46,3.08h-46.68c-1.74,0-2.07-.52-1.74-1.53l1.74-3.8s.51-1.01,2.06-1.01c3.45-.17,5.61-.22,5.57-5.5V29.06c0-2.24-.52-3.62-2.76-3.62h-2.64c-1.73,0-2.64-.57-2.25-1.53l2.41-4.47c.57-1.01,1.04-1.14,1.91-1.14h30.78" style="fill:#0087a9; fill-rule:evenodd;"/></g></g></g></g></g></g></svg>