<?xml version="1.0" encoding="UTF-8"?><svg id="svg1" xmlns="http://www.w3.org/2000/svg" width="300" height="90" xmlns:xlink="http://www.w3.org/1999/xlink" viewBox="0 0 300 90"><defs><clipPath id="clippath"><rect x="0" y=".72" width="300" height="88.56" style="fill:none;"/></clipPath><clipPath id="clippath-1"><rect x="0" y=".72" width="300" height="88.56" style="fill:none;"/></clipPath></defs><g id="g11"><g id="g2510"><path id="path53" d="M34.12,13.62c-6.86-3.04-10.95-4.23-15.01-4.23-4.26,0-6.99,1.53-6.99,3.89,0,7.12,24.15,5.12,24.15,21.58,0,9.08-7.62,14.35-18.2,14.35-8.3,0-12.39-2.15-17.1-4.58v-10.19c6.79,4.5,10.95,6.09,16.19,6.09,4.54,0,6.99-1.59,6.99-4.36C24.15,28.42,0,31.26,0,14.31,0,6.13,7.07.72,18.07.72c5.31,0,10.1,1.11,16.06,3.68v9.22" style="fill:#009e4d;"/><path id="path55" d="M67.93,47.05c-4.03,1.46-7.43,2.16-10.83,2.16-11.25,0-18.52-6.55-18.52-16.52s7.55-16.7,18.1-16.7c3.26,0,7.42.83,10.75,2.07v7.49c-2.64-1.4-5.69-2.17-8.19-2.17-6.04,0-9.92,3.63-9.92,9.23s3.82,9.41,9.57,9.41c2.43,0,4.59-.56,9.03-2.22v7.24" style="fill:#009e4d;"/><path id="path57" d="M155.62,29.02c.41-4.45,2.99-7.02,6.95-7.02s6.52,2.64,6.94,7.02h-13.89ZM161.88,16c-9.87,0-16.89,6.97-16.89,16.78s7.31,16.42,18.56,16.42c2.49,0,8.53,0,14.27-4.25v-6.25c-4.71,3.35-7.82,4.51-11.84,4.51-6.34,0-10.22-3.28-10.57-8.88h22.98c.48-11.69-7.2-18.32-16.51-18.32" style="fill:#009e4d;"/><path id="path59" d="M182.27,48.62h10.05V16.59h-10.05v32.03Z" style="fill:#009e4d;"/><path id="path61" d="M220.28,39.87c-2.09,1.88-3.83,2.64-5.98,2.64-4.73,0-7.73-3.89-7.73-9.73,0-6.39,2.99-10.08,8.06-10.08,1.81,0,4.18.83,5.64,1.88v15.29ZM220.28,1.31v16.69c-2.71-1.31-5.42-2.01-8.34-2.01-9.16,0-15.51,6.77-15.51,16.58s6.34,16.64,14.94,16.64c3.41,0,6.04-.89,8.91-3.18v2.58h10.05V1.31h-10.05" style="fill:#009e4d;"/><path id="path63" d="M245.2,29.02c.42-4.45,2.99-7.02,6.93-7.02s6.55,2.64,6.97,7.02h-13.9ZM251.45,16c-9.87,0-16.88,6.97-16.88,16.78s7.31,16.42,18.55,16.42c2.49,0,8.54,0,14.3-4.25v-6.25c-4.71,3.35-7.83,4.51-11.87,4.51-6.31,0-10.2-3.28-10.55-8.88h22.97c.48-11.69-7.21-18.32-16.51-18.32" style="fill:#009e4d;"/><g id="g65"><g style="clip-path:url(#clippath);"><g id="g67"><path id="path73" d="M283,25.76h.15c2.98-6.67,6.32-9.79,10.2-9.79,2.01,0,3.74.77,6.65,2.92l-2.76,8.88c-2.64-1.66-4.37-2.36-5.97-2.36-3.69,0-6.04,3.48-8.27,9.35v13.82h-10.06V16.56h10.06v9.21" style="fill:#009e4d;"/><path id="path75" d="M192.79,3.12c.94,2.49-.76,5.96-3.78,7.75-3.04,1.78-6.25,1.22-7.19-1.27-.95-2.49.74-5.97,3.77-7.74,3.03-1.79,6.24-1.23,7.2,1.27" style="fill:#009e4d;"/></g></g></g><path id="path77" d="M104.12,28.24c0-8.68-5.9-12.23-11.72-12.23-3.96,0-7.21,1.67-10.12,5.35h-.14V1.31h-10.06v47.22h10.06v-20.29c2.35-3.4,4.36-4.86,6.72-4.86,3.13,0,5.21,2.22,5.21,7.01v11.25c3.37-1.73,6.8-2.8,10.06-3.19v-10.21" style="fill:#009e4d;"/><path id="path79" d="M129.35,15.99c-4.1,0-7.22,1.52-10.43,5.18v-4.58h-10.05v21.77c3.48.35,7.93,1.94,10.05,4.58v-14.96c2.64-3.97,4.52-5.29,7.02-5.29,2.85,0,5.01,1.88,5.01,6.4v19.45h10.06v-20.28c0-9.43-6.66-12.27-11.66-12.27" style="fill:#009e4d;"/><path id="path81" d="M146.57,57.74h-11.68v8.3h11.27v3.56h-11.27v8.56h12.03v3.56h-15.95v-27.54h15.6v3.55" style="fill:#009e4d;"/><path id="path83" d="M156.11,81.74h3.58v-27.57h-3.58v27.57Z" style="fill:#009e4d;"/><path id="path85" d="M177.4,66.3c2.54,0,4.11,1.75,4.23,4.49h-9.11c.49-2.87,2.14-4.49,4.89-4.49ZM172.45,73.18h12.75c0-6.72-3.07-9.96-7.88-9.96s-8.45,3.69-8.45,9.19c0,5.03,3.13,9.67,8.76,9.67,3.07,0,5.06-.68,7.25-2.14v-3.48c-2.12,1.39-4.18,2.19-6.35,2.19-3.47,0-5.53-1.86-6.08-5.46" style="fill:#009e4d;"/><path id="path87" d="M208.57,68.33c-2.06-1.41-3.43-1.82-5-1.82-3.28,0-5.55,2.51-5.55,6.19s2.42,6.01,6.14,6.01c1.53,0,3-.4,4.8-1.21v3.53c-1.21.57-3.5,1.04-5.4,1.04-5.42,0-9.18-3.73-9.18-9.05,0-6.01,3.44-9.81,8.94-9.81,2.1,0,3.51.49,5.25,1.25v3.86" style="fill:#009e4d;"/><path id="path89" d="M224.88,63.56h5.74v3.23h-5.74v9.32c0,2.13,1.54,2.75,2.59,2.75,1.3,0,2.63-.45,4.08-1.35v3.36c-1.26.69-3.18,1.21-4.37,1.21-3.9,0-5.87-2.42-5.87-5.7v-9.59h-3.16v-.4l6.72-6.58v3.75" style="fill:#009e4d;"/><path id="path91" d="M244.31,63.56v4.2h.07c1.82-3.22,3.56-4.55,5.25-4.55,1.46,0,2.82.68,4.32,2.1l-1.9,3.15c-1.09-1.08-2.5-1.82-3.35-1.82-2.46,0-4.4,2.5-4.4,5.61v9.48h-3.57v-18.17h3.57" style="fill:#009e4d;"/><path id="path93" d="M290.62,68.33c-2.07-1.41-3.44-1.82-5.02-1.82-3.27,0-5.52,2.51-5.52,6.19s2.42,6.01,6.12,6.01c1.54,0,2.99-.4,4.82-1.21v3.53c-1.23.57-3.53,1.04-5.42,1.04-5.41,0-9.19-3.73-9.19-9.05,0-6.01,3.45-9.81,8.95-9.81,2.1,0,3.5.49,5.26,1.25v3.86" style="fill:#009e4d;"/><path id="path95" d="M263.44,81.74h3.58v-18.17h-3.58v18.17Z" style="fill:#009e4d;"/><g id="g97"><g style="clip-path:url(#clippath-1);"><g id="g99"><path id="path105" d="M267.14,57.04c.35.88-.26,2.12-1.34,2.75-1.08.63-2.23.43-2.56-.45-.33-.89.27-2.12,1.35-2.75,1.07-.64,2.21-.44,2.54.45" style="fill:#009e4d;"/><path id="path107" d="M106.95,58.51c-.63,0-.9.1-1.15.39-.1.11-.14.23-.18.45l-3.21,12.17c-.75,4.27-6,8.53-12.83,8.53h-9.5l1.65-6.25h6.1c.62,0,1.11-.23,1.52-.69.15-.18.35-.45.37-.74l2.53-10.63c.75-4.27,5.26-8.99,12.09-8.99h9.73l-1.24,5.75h-5.88ZM109.14,65.92l1.09-3.94h9.89c1.22-5.71.26-11-3.21-14.46-7.01-7.01-21.68-4.63-32.62,5.83-1.71,1.62-3.15,3.38-4.46,5.17h5.95l-1.38,3.95h-7.11c-.68,1.24-1.32,2.48-1.8,3.73h8.43l-1.35,3.95h-8.29c-1.42,6.03-.51,11.65,3.05,15.22,6.93,6.92,21.55,4.49,32.48-5.97,1.91-1.82,3.49-3.78,4.92-5.8h-7.65l1.17-3.94h8.94c.66-1.25,1.26-2.49,1.73-3.74h-9.77" style="fill:#009e4d;"/></g></g></g></g></g></svg>