<?xml version="1.0" encoding="UTF-8"?><svg id="svg1" xmlns="http://www.w3.org/2000/svg" width="300" height="90" viewBox="0 0 300 90"><g id="Layer_2"><g id="g4"><path id="path1" d="M106.88,71.43c-10.88,0-20.96-3.24-27.68-9.28-4.86-4.37-7.61-10.62-7.53-17.15-.02-6.51,2.72-12.71,7.53-17.09,6.24-5.67,17.28-9.27,27.68-9.27,11.5,0,20.71,2.9,27.75,9.28,4.79,4.38,7.49,10.59,7.43,17.08-.03,6.49-2.72,12.69-7.43,17.15-6.56,6.08-16.85,9.28-27.75,9.28v-6.95c5.77,0,11.12-1.99,14.86-5.71,3.74-3.72,5.44-8.23,5.44-13.8s-1.87-10.28-5.44-13.8c-3.69-3.63-9.17-5.68-14.86-5.68s-11.19,2.03-14.88,5.68c-3.56,3.52-5.4,8.51-5.4,13.8-.11,5.14,1.84,10.1,5.4,13.8,3.69,3.68,9.16,5.71,14.88,5.71v6.95ZM27.45,18.63c-5.81,0-12.42,1.09-18,3.6C4.24,24.56,0,28.3,0,34.49c0,3.25,1.23,6.37,3.45,8.74,1.51,1.39,3.94,3.76,10.28,5.15,2.84.6,8.9,1.57,14.95,2.2,6.04.64,11.9,1.2,14.3,1.84,1.91.49,5.12,1.15,5.12,4.75s-3.38,4.68-3.97,4.91c-.59.23-4.64,2.09-11.93,2.09-4.83-.13-9.61-.96-14.2-2.44-2.72-.97-5.57-2.25-8.23-5.5-1.07-1.53-1.67-3.34-1.71-5.21H1.46v18.48h7.33v-2.5c0-.58.46-1.05,1.04-1.05.19,0,.38.05.55.15,3.45,1.5,7.05,2.66,10.73,3.47,3.85.8,6.34,1.39,11.13,1.39,5.05.1,10.09-.61,14.92-2.11,3.21-.88,6.21-2.36,8.86-4.37,3.02-2.32,4.78-5.92,4.75-9.73.03-3.57-1.35-7-3.83-9.56-1.38-1.34-2.98-2.43-4.73-3.23-1.88-.85-3.83-1.53-5.83-2.03-3.8-.93-12.35-2.09-16.43-2.5-4.28-.44-11.72-1.06-14.69-1.98-.9-.28-2.74-1.15-2.74-3.28,0-1.52.84-2.8,2.5-3.84,2.63-1.65,7.95-2.68,13.49-2.68,5.37-.06,10.69.97,15.64,3.05,1.33.58,2.58,1.33,3.72,2.22,1.86,1.59,3.15,3.74,3.67,6.13h5.92v-16.09h-6.6v1.87c0,.6-.6,1.39-1.8.74-2.98-1.55-11.34-4.9-21.59-4.94ZM172.34,21.58l32.26,29.11-.33-19.6c-.04-2.57-.5-3.65-3.29-3.65h-6.06v-5.86h27.6v5.86h-5.92c-2.83,0-3,.91-3.05,3.65l.5,37.45h-9.45l-37.16-33.16v23.53c.03,2.56.15,3.77,2.78,3.77h6.6v5.86h-27.05v-5.86h6.34c2.36,0,2.27-2.26,2.27-3.9v-27.46c0-1.8-.25-3.86-3.96-3.86h-5.14v-5.87h23.06ZM254.01,62.66c.55,0,1.09-.03,1.63-.1.57-.17,1.03-.58,1.27-1.13.08-.42.13-.84.13-1.27v-9.27c0-.31,0-.32-.4-.81s-16.9-19.2-17.65-20.04c-.94-1.02-2.58-2.6-5.08-2.6h-5.73v-5.87h32.34v5.86h-3.9c-.9,0-1.5.86-.73,1.8,0,0,10.88,13.02,10.99,13.16.1.14.19.17.33.04s11.15-13.08,11.24-13.2c.38-.49.28-1.2-.21-1.57-.21-.16-.48-.24-.75-.23h-4v-5.86h26.51v5.87h-5.92c-2.15,0-3,.4-4.64,2.22l-17.85,20.36c-.17.25-.25.56-.22.86v9.26c0,.43.05.85.13,1.27.23.55.7.96,1.27,1.13.54.07,1.08.11,1.62.1h6.05v5.87h-32.17v-5.87h5.74Z" style="fill:#cf4044;"/></g></g></svg>