<?xml version="1.0" encoding="UTF-8"?><svg id="svg1" xmlns="http://www.w3.org/2000/svg" width="300" height="90" viewBox="0 0 300 90"><g id="layer1"><g id="g53028"><path id="path53030" d="M68.33,15.48H0v63.04L68.33,15.48" style="fill:#44c8f5;"/></g><g id="g53032"><path id="path53034" d="M34.16,15.48H0v31.53L34.16,15.48" style="fill:#231f20;"/></g><g id="g53036"><path id="path53038" d="M163.74,29.16l-8.92,35.66h15.76l8.91-35.66h-15.75" style="fill:#00a0e4;"/></g><g id="g53040"><path id="path53042" d="M127.75,49.83h-3.61l5.83-10.29,1.89,10.29h-4.1ZM125.51,29.16l-20.27,35.66h10.42l3.36-5.94h14.47l1.08,5.94h15.38l-6.54-35.66h-17.91" style="fill:#00a0e4;"/></g><g id="g53044"><path id="path53046" d="M235.7,29.16l-8.9,35.66h15.75l8.9-35.66h-15.76" style="fill:#00a0e4;"/></g><g id="g53048"><path id="path53050" d="M228.66,29.16h-16.15l-13.52,11.66,2.95-11.66h-15.1l-8.9,35.66h15.06l3.08-12.31,8.05,12.31h18.22l-13.5-18.68,19.8-16.98" style="fill:#00a0e4;"/></g><g id="g53052"><path id="path53054" d="M92.87,45.37s-1.02,11.58-10.89,11.58h-5.58l4.92-19.23h5.07c1.81.01,7.06.48,6.49,7.65ZM92.07,29.18h-4.08s-19.72-.01-19.72-.01l-8.9,35.65h27.32c10.91.01,21.64-8.11,21.64-20.54,0-14.63-16.27-15.09-16.27-15.09" style="fill:#00a0e4;"/></g><g id="g53056"><path id="path53058" d="M289.09,29.16l-5.26,21-7-21h-17.52l-8.9,35.67h10.9l5.31-21.18,7.02,21.18h17.45l8.92-35.67h-10.91" style="fill:#00a0e4;"/></g></g></svg>