<?xml version="1.0" encoding="UTF-8"?>
<svg id="_圖層_2" data-name="圖層 2" xmlns="http://www.w3.org/2000/svg" version="1.1" viewBox="0 0 1600 900">
  <defs>
    <style>
      .cls-1 {
        fill: #000;
      }

      .cls-1, .cls-2, .cls-3 {
        stroke-width: 0px;
      }

      .cls-2 {
        fill: #0b68b5;
      }

      .cls-3 {
        fill: #fff;
      }
    </style>
  </defs>
  <polygon class="cls-2" points="334.4 274.16 235.41 373.15 201.35 339.1 167.9 305.64 201.95 271.59 235.41 305.04 300.35 240.1 235.48 175.24 104.49 306.23 235.48 437.22 366.47 306.23 334.4 274.16"/>
  <rect class="cls-2" x="310.75" y="217.05" width="45.24" height="48.16" transform="translate(-72.87 306.36) rotate(-45)"/>
  <polygon class="cls-3" points="201.95 271.59 167.9 305.64 201.35 339.1 235.41 373.15 334.4 274.16 300.35 240.1 235.41 305.04 201.95 271.59"/>
  <rect class="cls-1" x="417.75" y="205.41" width="19.42" height="69.19"/>
  <rect class="cls-1" x="638.8" y="173.78" width="19.42" height="100.82"/>
  <rect class="cls-1" x="417.75" y="173.78" width="19.42" height="19.42"/>
  <line class="cls-1" x1="618.6" y1="254.71" x2="618.6" y2="254.71"/>
  <path class="cls-1" d="M628.92,233.6h0c-3.14-16.16-17.4-28.4-34.46-28.4-19.36,0-35.11,15.75-35.11,35.11s15.75,35.11,35.11,35.11c12.47,0,24.11-6.71,30.38-17.5l-12.11-7.03c-3.77,6.5-10.77,10.53-18.27,10.53-9.29,0-17.19-6.04-20-14.4h54.47v-13.42ZM574.45,233.6c2.81-8.36,10.71-14.4,20-14.4s17.19,6.04,20,14.4h-40Z"/>
  <path class="cls-1" d="M555.53,220.26v-14.85h-12.88v-26.74h-19.42v75.75c0,2.11.27,9.15,5.54,14.43,3.78,3.79,8.27,4.79,11.73,5.57,6.32,1.41,11.63.57,14.57-.12v-17.04c-3.3,0-6.6,0-9.89-.01-.3-.08-1.1-.34-1.75-1.11-.57-.68-.72-1.41-.77-1.72v-34.15h12.88Z"/>
  <path class="cls-1" d="M512.02,220.04c-4.23-10.67-17.45-17.05-29.3-16.05-8.17.69-14.25,4.76-18.1,8.29v-6.86h-19.42v69.19h19.42v-46.82c2.53-3.34,7.94-9.11,15.71-9.69,2.06-.15,6-.44,9.41,2.26,3.86,3.06,4.31,7.77,4.38,8.77h-.04v45.47h19.42v-45.47c.03-2.1-.24-5.94-1.49-9.09Z"/>
  <circle class="cls-1" cx="673.87" cy="267.05" r="8.03"/>
  <g>
    <path class="cls-2" d="M509.7,456.89c22.54-30.8,43.07-61.6,65.61-92.4v121.47h24.63v-164.39h-26.06l-64.25,93.06-66.25-93.06h-25.63v164.39h24.63v-120.84"/>
    <path class="cls-2" d="M771.78,485.96h24.63l-73.45-164.19.09-.19h-24.8l.09.19-73.45,164.19h24.63l18.11-40.48h86.05l18.11,40.48ZM676.62,425.36l34.02-76.06,34.02,76.06h-68.05Z"/>
    <polygon class="cls-2" points="1474.96 321.57 1413.34 321.57 1388.71 321.57 1327.09 321.57 1327.09 346.2 1388.71 346.2 1388.71 485.96 1413.34 485.96 1413.34 346.2 1474.96 346.2 1474.96 321.57"/>
    <polygon class="cls-2" points="1120.03 485.96 1151.01 485.96 1066.22 392.49 1145.39 321.57 1112.58 321.57 1018.57 405.78 1018.57 321.57 993.94 321.57 993.94 427.85 993.94 457.24 993.94 485.96 1018.57 485.96 1018.57 435.17 1049.12 407.8 1120.03 485.96"/>
    <path class="cls-2" d="M962.65,485.96l-38.49-67.49c19.76-6.58,34.12-25.28,34.12-47.18h0c0-26.66-21.27-48.58-47.67-49.66v-.05h-84.78s-4.3,0-4.3,0v164.39h24.63v-64.96h50.3l37.05,64.96h29.15ZM846.16,341.7h55.79c16.27,0,29.59,13.32,29.59,29.59h0c0,16.27-13.32,29.59-29.59,29.59h-55.79v-59.18Z"/>
    <path class="cls-2" d="M1323.63,395.06c-2.15-21.16-12.04-40.83-27.84-55.19-15.91-14.46-36.53-22.43-58.05-22.43-47.6,0-86.33,38.73-86.33,86.33s38.73,86.33,86.33,86.33c30.17,0,58.31-12.14,74.17-37.84l-19.57-12.08c-11.64,18.86-32.46,26.92-54.6,26.92-31.02,0-56.89-22.43-62.28-51.91h148.16v-20.12ZM1237.74,340.44c31.88,0,58.45,23.33,62.72,54.62h-125.44c4.26-30.81,30.75-54.62,62.72-54.62Z"/>
  </g>
  <g>
    <path class="cls-2" d="M909.29,692.09h24.63l-73.45-164.19.09-.19h-24.8l.09.19-73.45,164.19h24.63l18.11-40.48h86.05l18.11,40.48ZM814.13,631.49l34.02-76.06,34.02,76.06h-68.05Z"/>
    <polygon class="cls-2" points="1251.42 526.93 1194.09 603.45 1136.75 526.93 1109.32 526.93 1179.6 621.21 1179.6 692.87 1207.6 692.87 1207.6 621.37 1278.68 526.93 1251.42 526.93"/>
    <path class="cls-2" d="M558.87,692.09l-38.49-67.49c19.76-6.58,34.12-25.28,34.12-47.18h0c0-26.66-21.27-48.58-47.67-49.66v-.05h-84.78s-4.3,0-4.3,0v164.39h24.63v-64.96h50.3l37.05,64.96h29.15ZM442.38,547.83h55.79c16.27,0,29.59,13.32,29.59,29.59h0c0,16.27-13.32,29.59-29.59,29.59h-55.79v-59.18Z"/>
    <path class="cls-2" d="M752.95,601.19c-2.15-21.16-12.04-40.83-27.84-55.19-15.91-14.46-36.53-22.43-58.05-22.43-47.6,0-86.33,38.73-86.33,86.33s38.73,86.33,86.33,86.33c30.17,0,58.31-12.14,74.17-37.84l-19.57-12.08c-11.64,18.86-32.46,26.92-54.6,26.92-31.02,0-56.89-22.43-62.28-51.91h148.16v-20.12ZM667.06,546.57c31.88,0,58.45,23.33,62.72,54.62h-125.44c4.26-30.81,30.75-54.62,62.72-54.62Z"/>
    <path class="cls-2" d="M1028.68,526.45h-68.03v166.89h68.03c46.01,0,83.44-37.43,83.44-83.44s-37.43-83.44-83.44-83.44ZM1028.68,671.34h-43.4v-122.89h43.4c33.88,0,61.44,27.56,61.44,61.44s-27.56,61.44-61.44,61.44Z"/>
  </g>
</svg>