<?xml version="1.0" encoding="utf-8"?>
<!-- Generator: Adobe Illustrator 22.0.1, SVG Export Plug-In . SVG Version: 6.00 Build 0)  -->
<svg version="1.1" id="圖層_1" xmlns="http://www.w3.org/2000/svg" xmlns:xlink="http://www.w3.org/1999/xlink" x="0px" y="0px"
	 viewBox="0 0 506 217.7" style="enable-background:new 0 0 506 217.7;" xml:space="preserve">
<style type="text/css">
	.st0{fill:#FFFFFF;}
</style>
<g>
	<g>
		<path class="st0" d="M271.3,39.4l-4,8.3c-3.7-2.1-9-4.1-12.1-4.1c-1.8,0-3,0.6-3,2c0,5.4,19,2.2,19,15.3c0,7.7-6.9,11.4-15,11.4
			c-6.2,0-12.9-2.2-17.5-5.8l4.1-8.2c3.7,3.2,9.8,5.6,13.6,5.6c2.3,0,3.7-0.8,3.7-2.4c0-5.5-19-2-19-14.9c0-7,6-11.5,15.1-11.5
			C261.7,35.2,267.4,36.9,271.3,39.4z"/>
		<path class="st0" d="M284.5,66.3l-2.2,5.8h-11.1l15.5-36.4h11.1l15,36.4h-11.5l-2.1-5.8H284.5z M292,46.5l-4.5,11.9h8.8L292,46.5z
			"/>
		<path class="st0" d="M331.6,44.3v27.8h-10.9V44.3h-10.6v-8.6h32v8.6H331.6z"/>
		<path class="st0" d="M257.7,92.2c9.4,0,14.8,4.7,14.8,12.9c0,8.7-5.4,13.7-14.8,13.7h-5.7v9.8h-10.8V92.2H257.7z M251.9,110.5h5.2
			c3.2,0,5.1-1.8,5.1-5c0-3.2-1.9-4.9-5.1-4.9h-5.2V110.5z"/>
		<path class="st0" d="M292.6,118.8h-5.7v9.8h-10.8V92.2h17c9.8,0,15.4,4.7,15.4,12.9c0,5.4-2.2,9.4-6.1,11.6l7.4,11.9h-12.3
			L292.6,118.8z M293.1,110.5c3.2,0,5.1-1.8,5.1-5c0-3.2-1.9-4.9-5.1-4.9h-6.2v10H293.1z"/>
		<path class="st0" d="M323.1,122.8l-2.2,5.8h-11.1l15.5-36.4h11.1l15,36.4h-11.5l-2.1-5.8H323.1z M330.6,103l-4.5,11.9h8.8
			L330.6,103z"/>
		<path class="st0" d="M385.4,98.3l-6.2,7.4c-2.3-2.9-5.7-4.8-8.7-4.8c-4.9,0-8.7,4-8.7,9.4c0,5.4,3.7,9.4,8.7,9.4
			c2.8,0,6.2-1.7,8.7-4.2l6.2,6.7c-3.9,4.3-9.9,7-15.4,7c-11.1,0-19.2-8-19.2-18.8c0-10.6,8.3-18.5,19.6-18.5
			C375.9,91.8,381.7,94.3,385.4,98.3z"/>
		<path class="st0" d="M408.7,100.8v27.8h-10.9v-27.8h-10.6v-8.6h32v8.6H408.7z"/>
		<path class="st0" d="M424,128.6V92.2h10.8v36.4H424z"/>
		<path class="st0" d="M473,98.3l-6.2,7.4c-2.3-2.9-5.7-4.8-8.7-4.8c-4.9,0-8.7,4-8.7,9.4c0,5.4,3.7,9.4,8.7,9.4
			c2.8,0,6.2-1.7,8.7-4.2l6.2,6.7c-3.9,4.3-9.9,7-15.4,7c-11.1,0-19.2-8-19.2-18.8c0-10.6,8.3-18.5,19.6-18.5
			C463.4,91.8,469.3,94.3,473,98.3z"/>
		<path class="st0" d="M486.5,100.5v5.7h17.2v8.3h-17.2v5.8H506v8.3h-30.3V92.2h29.8v8.3H486.5z"/>
		<path class="st0" d="M278.8,166.8c0,10.7-8.4,18.7-19.9,18.7s-19.9-8-19.9-18.7c0-10.7,8.4-18.5,19.9-18.5
			S278.8,156.2,278.8,166.8z M250.1,166.9c0,5.5,4.2,9.6,8.9,9.6s8.6-4.1,8.6-9.6c0-5.5-3.8-9.5-8.6-9.5
			C254.2,157.3,250.1,161.3,250.1,166.9z"/>
		<path class="st0" d="M307.7,185l-15.4-20.3V185h-9.9v-36.4h9.3L307,169v-20.4h9.9V185H307.7z"/>
		<path class="st0" d="M348.6,176v9h-26.1v-36.4h10.8V176H348.6z"/>
		<path class="st0" d="M351.8,185v-36.4h10.8V185H351.8z"/>
		<path class="st0" d="M393.6,185l-15.4-20.3V185h-9.9v-36.4h9.3l15.4,20.4v-20.4h9.9V185H393.6z"/>
		<path class="st0" d="M419.2,156.9v5.7h17.2v8.3h-17.2v5.8h19.5v8.3h-30.3v-36.4h29.8v8.3H419.2z"/>
	</g>
	<g>
		<path class="st0" d="M108.7,217.7v-1.9v-1.9h0.1c57.9,0,105-46.9,105-104.9v-0.1c0-57.9-47-105-105-105h0
			c-58,0-104.9,46.9-105,105c0,57.9,46.9,104.9,104.9,105v1.9V217.7C48.6,217.6,0,168.9,0,108.8c0-0.2,0-0.3,0-0.1
			C0.1,48.6,48.7,0,108.8,0c0.1,0,0.2,0,0.1,0C169,0,217.7,48.8,217.7,108.8v0.1C217.6,169,168.9,217.7,108.7,217.7L108.7,217.7z"/>
		<g>
			<polygon class="st0" points="91.3,193.5 99.5,194.8 99.2,196 95.9,195.4 94.4,204.2 93,204 94.5,195.2 91.1,194.6 			"/>
			<path class="st0" d="M99.4,199.8c0.2-1.7,1.4-2.3,3.2-2.2c0.6,0.1,2.7,0.4,2.6,2.3l-0.4,4.2l0.4,0.5l0.4,0l-0.1,0.9l-0.7,0.1
				c-1.1-0.1-1.2-0.7-1.2-1.2c-0.5,0.5-1.3,1.1-2.7,1c-1.4-0.1-2.2-1-2.1-2.3c0-0.6,0.4-2.1,2.4-2.1l2-0.1l0.7-0.8
				c0.1-0.7-0.5-1.2-1.6-1.3c-1.4-0.1-1.7,0.7-1.8,1.3L99.4,199.8z M103.8,201.5c-0.2,0.1-0.5,0.2-2.1,0.3c-0.6,0-1.6,0.1-1.7,1
				c-0.1,0.8,0.3,1.3,1.2,1.4c1.1,0.1,2.3-0.6,2.4-1.6L103.8,201.5z"/>
			<path class="st0" d="M108,205.5h-1.3l0.2-7.4l1.3,0L108,205.5z M107,196.7l0.1-1.4l1.2,0l-0.1,1.4L107,196.7z"/>
			<path class="st0" d="M109.4,198.2h1.2l0,1h0c0.3-0.4,0.8-1.3,2.2-1.3c2,0,3.1,1.5,3.1,3.6c0.1,1.8-0.6,4.2-3.1,4.2
				c-1,0-1.6-0.4-2-0.9h0l0.1,3.7l-1.3,0L109.4,198.2z M112.7,204.6c1.4-0.1,2-1.3,1.9-2.9c0-0.9-0.2-2.7-2.1-2.7
				c-1.8,0.1-1.9,2-1.9,3.2C110.7,204.1,111.9,204.6,112.7,204.6"/>
			<path class="st0" d="M123.6,202.4c0,0.3-0.3,1.4-1.1,2.2c-0.3,0.2-0.8,0.6-2,0.7c-2,0.2-3.4-1.2-3.6-3.3
				c-0.2-2.3,0.7-4.2,3.1-4.5c2.1-0.2,3.4,1.4,3.6,4l-5.4,0.6c0.2,1.5,1,2.3,2.4,2.2c1.1-0.1,1.7-1.1,1.7-1.7L123.6,202.4z
				 M122.2,200.5c-0.2-1.1-0.8-2.1-2.3-2c-1.1,0.1-1.9,1.3-1.8,2.4L122.2,200.5z"/>
			<path class="st0" d="M125.2,195.6l-0.2-1.4l-1.2,0.2l0.2,1.4L125.2,195.6z M125.4,196.9l-1.3,0.2l1.2,7.2l1.2-0.2L125.4,196.9z"
				/>
		</g>
		<path class="st0" d="M108.7,189.3v-1v-1h0.1c43.4,0,78.5-35.1,78.6-78.5v-0.1c0-43.4-35.2-78.5-78.6-78.6h0
			c-43.4,0-78.5,35.1-78.6,78.6c0,43.4,35.1,78.5,78.5,78.6v1V189.3c-44.5-0.1-80.4-36.1-80.4-80.5c0-0.1,0-0.2,0-0.1
			c0-44.4,36-80.4,80.5-80.4h0.1c44.4,0,80.4,36.1,80.4,80.5l0,0.1C189.3,153.3,153.2,189.3,108.7,189.3L108.7,189.3z M108.9,28.3
			L108.9,28.3L108.9,28.3z"/>
		<g>
			<polygon class="st0" points="46.5,189.4 39.4,183.4 40.8,181.8 46.1,186.4 48.5,183.6 43.5,179.4 44.8,177.9 49.8,182.1 
				52.4,179 47,174.3 48.3,172.7 55.5,178.8 			"/>
			<path class="st0" d="M39.7,178.3l-1.3-1.4l1.1-1l0-0.1c-1.2,0.3-2.5,0-3.3-0.9c-1.4-1.5-1.4-3.2,0.3-4.7l5.1-4.7L43,167l-4.7,4.2
				c-1.1,1.1-1.3,2-0.4,2.9c0.9,1,2.4,0.9,3.5-0.1l4.4-4l1.4,1.5L39.7,178.3z"/>
			<path class="st0" d="M34.7,156.9c2.5-1.7,4.6-1.3,6.3,1.1c1.1,1.5,1.7,3.7-0.1,5.2l-1.2-1.7c0.9-0.9,0.5-1.8-0.1-2.7
				c-1-1.4-2.1-1.4-3.5-0.5l-1.2,0.9l0,0c1.2-0.2,2.4,0.3,3.1,1.3c1.7,2.4,0.5,4.8-1.9,6.5c-2.2,1.6-5,1.6-6.5-0.5
				c-0.7-1-0.9-2.1-0.3-3.2l0,0l-1.1,0.8l-1.2-1.7L34.7,156.9z M32.1,161.3c-1.4,1-2.3,2.5-1.3,4c1.1,1.5,2.9,1,4.3,0
				c1.4-1,2.3-2.5,1.3-3.9C35.3,159.8,33.5,160.3,32.1,161.3"/>
			<polygon class="st0" points="22.1,161.6 21,159.9 33,152.9 34.1,154.6 			"/>
			<path class="st0" d="M19.6,157.3l-1-1.8l1.9-1l1,1.8L19.6,157.3z M23,155.5l-0.9-1.8L31,149l1,1.8L23,155.5z"/>
			<path class="st0" d="M26.3,146.7c1.1-0.6,1.2-1.6,0.8-2.6c-0.3-0.7-1-1.9-2-1.4c-1,0.5-0.6,1.9-0.4,3.5c0.3,1.5,0.3,3.1-1.6,3.9
				c-2,0.9-3.5-0.9-4.2-2.5c-0.7-1.8-0.6-3.7,1.3-4.8l0.8,2c-0.9,0.6-0.8,1.4-0.5,2.3c0.2,0.6,0.8,1.5,1.6,1.2
				c1-0.4,0.6-1.9,0.3-3.4c-0.2-1.5-0.3-3.1,1.5-3.9c2.2-0.9,3.9,0.8,4.6,2.6c0.9,2.2,0.5,4.2-1.6,5.2L26.3,146.7z"/>
			<path class="st0" d="M13,142.1l-0.6-2l4.9-1.4l0,0c-1-0.2-2-1.1-2.3-2.2c-0.6-1.9,0.2-3.5,2.3-4.1l6.6-1.9l0.6,2l-6.1,1.8
				c-1.5,0.5-2,1.2-1.6,2.4c0.4,1.3,1.8,1.8,3.2,1.4l5.7-1.7l0.6,2L13,142.1z"/>
			<polygon class="st0" points="8.7,124.2 8.5,122 20.2,120.7 19.5,114.2 21.6,114 22.5,122.8 			"/>
			<path class="st0" d="M19.5,104.9c0.5,0,0.8-0.1,0.8-0.5c0-0.1,0-0.3,0-0.5l1.5,0c0.1,0.3,0.2,0.9,0.2,1.3c0,0.8-0.3,1.4-1.2,1.6
				c0.8,0.8,1.2,2.1,1.2,3.2c0,1.7-1,3.2-3,3.1c-2.5-0.1-2.9-1.9-3.1-3.6c-0.3-1.5-0.1-2.8-1.4-2.8c-1.1,0-1.4,1.1-1.4,1.9
				c0,1.2,0.5,2,1.6,2.1l0,2.1c-2.6-0.2-3.3-2.2-3.3-4.3c0-1.8,0.9-3.7,3-3.7L19.5,104.9z M16.7,106.9c0.4,0.6,0.4,1.6,0.5,2.5
				c0.1,0.9,0.5,1.7,1.6,1.7c1,0,1.3-1.1,1.3-1.9c0-0.9-0.5-2.3-1.9-2.3L16.7,106.9z"/>
			<path class="st0" d="M11.9,101.3l0.2-1.9l1.5,0.2l0,0c-1-0.8-1.6-1.9-1.4-3.1c0.3-2,1.6-3.1,3.8-2.8l6.8,0.9l-0.2,2l-6.3-0.8
				c-1.6-0.2-2.3,0.3-2.5,1.5c-0.2,1.4,0.9,2.4,2.3,2.6l5.9,0.8l-0.3,2L11.9,101.3z"/>
			<path class="st0" d="M24.9,83.8c2.9,0.7,4,2.7,3.2,5.6c-0.5,1.8-1.7,3.7-4.1,3.3l0.5-2c1.3,0.1,1.7-0.8,2-1.8
				c0.4-1.6-0.3-2.6-1.9-3l-1.5-0.4l0,0c0.9,0.8,1.3,2,1,3.1c-0.7,2.9-3.4,3.5-6.2,2.7c-2.6-0.7-4.5-2.8-3.8-5.3
				c0.3-1.1,1.1-2.1,2.3-2.3l0,0l-1.3-0.3l0.5-2L24.9,83.8z M19.8,84.6c-1.7-0.4-3.4-0.1-3.8,1.6c-0.4,1.8,1.2,2.8,2.8,3.2
				c1.6,0.4,3.4,0.1,3.8-1.6C23.1,86.1,21.5,85,19.8,84.6"/>
			<path class="st0" d="M29.1,74.1L28.4,76l-1.3-0.5l0,0c0.8,0.8,1,2.1,0.6,3.1c-0.9,2.3-2.5,2.8-5,1.8l-5.9-2.3l0.8-1.9l5.7,2.2
				c1.6,0.6,2.5,0.2,2.9-0.8c0.6-1.6-0.3-2.6-1.7-3.1L19,72.4l0.8-1.9L29.1,74.1z"/>
			<path class="st0" d="M31.8,64.2c0.5,0.3,0.7,0.3,0.9-0.1c0.1-0.1,0.1-0.3,0.2-0.5l1.3,0.7c0,0.3-0.2,1-0.4,1.3
				c-0.4,0.7-1,1.1-1.8,0.8c0.4,1.1,0.1,2.5-0.4,3.4c-0.8,1.5-2.4,2.4-4.1,1.4c-2.2-1.2-1.7-3-1.1-4.7c0.4-1.4,1.2-2.5,0.1-3.1
				c-1-0.6-1.7,0.3-2.1,1.1c-0.6,1-0.5,2,0.4,2.6l-1,1.8c-2.2-1.3-1.9-3.5-1-5.3c0.9-1.6,2.5-2.9,4.3-1.9L31.8,64.2z M28.3,64.7
				c0.1,0.8-0.4,1.6-0.7,2.5c-0.3,0.8-0.3,1.7,0.7,2.3c0.9,0.5,1.7-0.4,2-1.1c0.4-0.8,0.7-2.3-0.6-2.9L28.3,64.7z"/>
			<path class="st0" d="M39.5,55.8c2.5,1.7,2.8,3.9,1.1,6.4c-1.1,1.5-2.9,2.8-4.9,1.6l1.2-1.7c1.2,0.5,1.9-0.1,2.5-1
				c0.9-1.4,0.6-2.5-0.7-3.4l-1.3-0.9l0,0c0.6,1.1,0.5,2.4-0.2,3.3c-1.7,2.4-4.4,2-6.7,0.4c-2.2-1.6-3.2-4.2-1.7-6.4
				c0.7-1,1.7-1.5,2.9-1.3l0,0l-1.1-0.8l1.2-1.7L39.5,55.8z M34.4,54.8c-1.4-1-3.1-1.3-4.2,0.1c-1,1.5,0.1,3.1,1.4,4
				c1.4,0.9,3.1,1.3,4.1-0.1C36.9,57.4,35.8,55.8,34.4,54.8"/>
			<path class="st0" d="M39.1,50.3c1.2,1,2.7,1.4,3.9,0.1c0.8-0.9,0.9-1.8,0.3-2.8l1.3-1.4c1.3,1.8,1.1,3.9-0.3,5.4
				c-2,2.2-4.7,1.9-7-0.1c-2.1-1.9-2.8-4.8-0.9-6.9c2-2.2,5.3-1.6,7.3,0.6L39.1,50.3z M41.2,45.8c-1.1-0.9-2.6-1.1-3.5,0
				c-1,1.1-0.7,2.6,0.3,3.6L41.2,45.8z"/>
			<polygon class="st0" points="43.3,32.8 45,31.3 53.9,42 52.2,43.5 			"/>
			<path class="st0" d="M50.2,32.1l1.6-1.1l0.8,1.2l0,0c-0.1-1.3,0.4-2.4,1.4-3.1c1.7-1.1,3.4-0.9,4.7,0.9l3.9,5.7L61,36.8l-3.6-5.2
				c-0.9-1.3-1.8-1.5-2.8-0.8c-1.1,0.8-1.2,2.2-0.4,3.5l3.4,4.9l-1.7,1.2L50.2,32.1z"/>
			<path class="st0" d="M64.4,31c0.7,1.1,1.7,1.1,2.7,0.5c0.7-0.4,1.8-1.1,1.2-2.1c-0.6-1-2-0.4-3.5,0c-1.5,0.4-3.1,0.6-4-1.2
				c-1-1.9,0.6-3.6,2.1-4.4c1.7-0.9,3.6-1,4.9,0.9l-1.9,1c-0.7-0.8-1.5-0.7-2.3-0.3c-0.5,0.3-1.4,0.9-1,1.7c0.5,1,1.9,0.4,3.4,0
				c1.5-0.4,3.1-0.6,4,1.2c1.1,2.1-0.4,3.9-2.1,4.8c-2.1,1.1-4.1,0.9-5.3-1.1L64.4,31z"/>
			<path class="st0" d="M68.2,21.4l1.4-0.6L68.4,18l1.9-0.8l1.2,2.8l1.7-0.7l0.6,1.5l-1.7,0.7l2.1,4.9c0.4,0.8,0.6,1.2,1.5,0.9
				c0.3-0.1,0.5-0.2,0.8-0.4l0.7,1.6c-0.4,0.2-0.8,0.5-1.2,0.6c-2,0.8-2.7,0.2-3.4-1.3l-2.3-5.4l-1.4,0.6L68.2,21.4z"/>
			<path class="st0" d="M74.1,14.8l1.9-0.7l0.7,2l-1.9,0.7L74.1,14.8z M75.3,18.4l1.9-0.7l3.4,9.5l-1.9,0.7L75.3,18.4z"/>
			<path class="st0" d="M79.1,17.1l1.5-0.4l-0.8-2.9l2-0.6l0.8,2.9l1.8-0.5l0.5,1.6l-1.8,0.5l1.5,5.2c0.2,0.9,0.5,1.3,1.3,1.1
				c0.3-0.1,0.6-0.2,0.8-0.3l0.5,1.6c-0.4,0.2-0.8,0.4-1.3,0.5c-2.1,0.6-2.7-0.2-3.2-1.8l-1.6-5.7l-1.5,0.4L79.1,17.1z"/>
			<path class="st0" d="M96.7,23.3l-2,0.4l-0.3-1.4h0c-0.3,1.1-1.3,1.9-2.3,2.1c-2.4,0.4-3.7-0.7-4.1-3.2l-1.2-6.3l2-0.4l1.1,6.1
				c0.3,1.8,1.1,2.3,2.2,2c1.7-0.3,2-1.6,1.7-3.1l-1.1-5.7l2-0.4L96.7,23.3z"/>
			<path class="st0" d="M97.2,13.2l1.5-0.1l-0.3-3l2-0.2l0.3,3l1.8-0.1l0.1,1.6l-1.8,0.2l0.5,5.3c0.1,0.9,0.2,1.4,1.1,1.3
				c0.3,0,0.6-0.1,0.9-0.2l0.2,1.7c-0.4,0.1-0.9,0.2-1.3,0.2c-2.1,0.2-2.6-0.7-2.8-2.3l-0.5-5.9l-1.5,0.1L97.2,13.2z"/>
			<path class="st0" d="M106.8,18.1c0,1.6,0.8,3,2.5,3c1.2,0,1.9-0.5,2.3-1.6l1.9,0c-0.5,2.2-2.2,3.4-4.3,3.3
				c-2.9,0-4.5-2.3-4.5-5.4c0-2.9,1.8-5.3,4.6-5.2c2.9,0.1,4.7,3,4.3,6L106.8,18.1z M111.6,16.7c0-1.4-0.9-2.7-2.3-2.7
				c-1.4,0-2.4,1.1-2.5,2.6L111.6,16.7z"/>
			<path class="st0" d="M120.8,18.2c0.6-3,2.6-4.9,5.6-4.4c3,0.5,4.2,3,3.7,6c-0.6,3-2.6,4.9-5.6,4.4
				C121.5,23.7,120.2,21.2,120.8,18.2 M128,19.5c0.3-1.7-0.2-3.6-2-3.9c-1.8-0.3-2.9,1.3-3.3,3c-0.3,1.7,0.2,3.7,2,4
				C126.6,22.8,127.7,21.2,128,19.5"/>
			<path class="st0" d="M132.7,15.4l1.5,0.4l0.2-0.8c0.7-2.5,2-2.5,3.3-2.2c0.6,0.2,1.1,0.3,1.4,0.5l-0.5,1.7
				c-0.2-0.1-0.5-0.3-0.9-0.4c-0.5-0.2-1-0.1-1.3,0.7l-0.3,1l1.7,0.5l-0.4,1.6l-1.7-0.5l-2.3,8.1l-2-0.5l2.3-8.1l-1.5-0.4
				L132.7,15.4z"/>
			<polygon class="st0" points="146.1,15.6 155.6,19.9 154.7,21.8 151,20.2 146.1,30.9 144,29.9 148.9,19.2 145.2,17.5 			"/>
			<path class="st0" d="M152.9,29.3c-0.8,1.4-0.8,3,0.7,3.8c1,0.6,1.9,0.5,2.8-0.3l1.7,1c-1.5,1.7-3.6,1.9-5.4,0.8
				c-2.5-1.5-2.8-4.2-1.3-6.9c1.4-2.5,4.2-3.7,6.6-2.3c2.6,1.5,2.7,4.8,0.9,7.3L152.9,29.3z M157.8,30.5c0.6-1.2,0.5-2.8-0.7-3.5
				c-1.2-0.7-2.7-0.2-3.5,1.1L157.8,30.5z"/>
			<path class="st0" d="M161,35.9c-0.7,1.1-0.2,2,0.6,2.7c0.6,0.5,1.8,1.1,2.5,0.2c0.7-1-0.5-2-1.4-3.2c-1-1.2-1.8-2.5-0.6-4.2
				c1.3-1.8,3.5-1,4.8,0c1.5,1.1,2.4,2.9,1.3,4.8l-1.7-1.3c0.5-1,0-1.7-0.7-2.2c-0.5-0.4-1.5-0.9-2-0.2c-0.6,0.9,0.5,1.9,1.5,3.1
				c1,1.2,1.8,2.6,0.7,4.2c-1.4,1.9-3.7,1.3-5.3,0.1c-1.9-1.4-2.6-3.4-1.2-5.3L161,35.9z"/>
			<path class="st0" d="M171.3,35.2l1.2,1l2-2.2l1.5,1.4l-2,2.2l1.4,1.2l-1.1,1.2l-1.4-1.2l-3.6,4c-0.6,0.7-0.9,1.1-0.2,1.7
				c0.2,0.2,0.4,0.4,0.7,0.5l-1.1,1.3c-0.4-0.3-0.7-0.5-1.1-0.8c-1.6-1.4-1.3-2.4-0.2-3.6l3.9-4.4l-1.2-1L171.3,35.2z"/>
			<path class="st0" d="M177,40.4l1.4,1.4l-7.1,7.1l-1.5-1.5L177,40.4z M179.7,37.7l1.4,1.5l-1.5,1.5l-1.5-1.5L179.7,37.7z"/>
			<path class="st0" d="M180.7,44.2l1.2,1.5l-1.1,0.9l0,0.1c1.2-0.2,2.4,0.1,3.2,1.1c1.3,1.5,1.2,3.3-0.5,4.7l-5.3,4.4l-1.3-1.6
				l4.8-4c1.2-1,1.3-1.9,0.6-2.9c-0.9-1-2.4-1-3.5,0l-4.5,3.8l-1.3-1.6L180.7,44.2z"/>
			<path class="st0" d="M184.8,65.6c-2.5,1.7-4.7,1.1-6.3-1.4c-1-1.6-1.5-3.8,0.3-5.2l1.1,1.7c-0.9,0.9-0.6,1.8,0,2.7
				c0.9,1.4,2.1,1.5,3.5,0.6l1.3-0.8l0,0c-1.2,0.1-2.4-0.4-3-1.4c-1.6-2.5-0.3-4.8,2.1-6.4c2.3-1.5,5.1-1.4,6.5,0.8
				c0.6,1,0.8,2.2,0.1,3.2l0,0l1.2-0.7l1.1,1.7L184.8,65.6z M187.6,61.3c1.5-0.9,2.4-2.4,1.4-3.9c-1-1.5-2.9-1.1-4.3-0.1
				c-1.4,0.9-2.4,2.4-1.4,3.9C184.3,62.7,186.2,62.3,187.6,61.3"/>
			<path class="st0" d="M192.8,78.7c-0.5,0.2-0.7,0.4-0.5,0.7c0.1,0.1,0.1,0.3,0.2,0.5l-1.4,0.6c-0.2-0.2-0.6-0.8-0.7-1.1
				c-0.3-0.8-0.3-1.4,0.5-1.9c-1.1-0.4-2-1.5-2.4-2.5c-0.6-1.5-0.3-3.3,1.5-4.1c2.3-1,3.4,0.6,4.3,2.1c0.8,1.2,1.2,2.5,2.4,2
				c1.1-0.4,0.8-1.5,0.5-2.3c-0.4-1.1-1.2-1.6-2.3-1.3l-0.8-1.9c2.4-0.9,3.9,0.7,4.7,2.6c0.7,1.7,0.7,3.7-1.2,4.6L192.8,78.7z
				 M194.6,75.7c-0.6-0.4-1-1.3-1.5-2.1c-0.5-0.8-1.1-1.3-2.2-0.9c-0.9,0.4-0.7,1.6-0.5,2.2c0.3,0.8,1.4,1.9,2.6,1.4L194.6,75.7z"/>
			<path class="st0" d="M201.2,79l0.5,1.9l-1.4,0.4l0,0.1c1.2,0.3,2.2,1.1,2.5,2.3c0.6,1.9-0.2,3.5-2.4,4.1l-6.6,1.9l-0.6-2l6.1-1.7
				c1.5-0.5,2-1.2,1.7-2.4c-0.4-1.3-1.7-1.8-3.2-1.4l-5.7,1.6l-0.6-2L201.2,79z"/>
			<path class="st0" d="M195.7,100.4l-0.3-1.9l1.3-0.2v0c-1.2-0.4-1.9-1.4-2.1-2.6c-0.5-2.9,1.6-4.7,4.6-5.1
				c3.6-0.6,5.5,1.2,5.8,3.2c0.2,1.2-0.1,2.5-1.1,3.3l0,0l5.1-0.8l0.3,2L195.7,100.4z M196.4,95.7c0.3,1.8,2.2,2.3,3.9,2
				c2.2-0.3,3.3-1.5,3.1-3.1c-0.3-1.9-2.2-2.3-4-2C197.7,92.8,196.1,93.9,196.4,95.7"/>
			<polygon class="st0" points="210,108.6 209.7,117.9 207.6,117.8 207.8,110.8 204.2,110.7 204,117.2 202,117.1 202.2,110.6 
				198.2,110.5 197.9,117.6 195.8,117.6 196.1,108.2 			"/>
			<path class="st0" d="M194.2,128.1l0.3-1.9l1.3,0.2v0c-1-0.7-1.3-2-1.1-3.1c0.5-2.9,3-3.9,6-3.4c3.6,0.6,4.8,2.8,4.5,4.8
				c-0.2,1.2-0.9,2.4-2.1,2.8l0,0l5.1,0.8l-0.3,2L194.2,128.1z M196.4,123.8c-0.3,1.8,1.4,2.9,3.1,3.1c2.2,0.4,3.6-0.4,3.9-2
				c0.3-1.9-1.4-2.9-3.2-3.2C198.5,121.5,196.7,122,196.4,123.8"/>
			<path class="st0" d="M191.4,138.2l0.6-1.9l1.3,0.4l0,0c-0.8-0.8-1.1-2-0.9-3c0.7-2.3,2.2-3,4.8-2.2l6.1,1.8l-0.6,2l-5.9-1.7
				c-1.7-0.5-2.5,0-2.8,1.1c-0.5,1.6,0.5,2.5,2,3l5.6,1.6l-0.6,2L191.4,138.2z"/>
			<path class="st0" d="M194.3,148.7c1.2,0.3,2.1-0.2,2.6-1.2c0.4-1,0.5-2.6-2.4-3.8c-1.5-0.7-3.4-0.7-4.1,0.9
				c-0.5,1.1,0,2.2,1.2,2.9l-0.8,1.9c-2.2-1.4-3-3.3-2-5.5c1.1-2.7,3.8-3.3,6.5-2.1c2.8,1.2,4.4,3.5,3.2,6.3c-0.8,2-2.6,3.2-5,2.5
				L194.3,148.7z"/>
			<path class="st0" d="M184.6,157.5c-0.5-0.3-0.7-0.3-0.9,0c-0.1,0.1-0.1,0.2-0.2,0.5l-1.3-0.8c0-0.3,0.3-1,0.4-1.3
				c0.4-0.7,1-1.1,1.9-0.8c-0.3-1.1,0-2.5,0.5-3.4c0.8-1.5,2.4-2.3,4.1-1.3c2.2,1.3,1.6,3.1,0.9,4.7c-0.5,1.4-1.3,2.5-0.2,3.1
				c1,0.6,1.7-0.3,2.2-1c0.6-1,0.5-2-0.4-2.6l1-1.8c2.2,1.4,1.8,3.6,0.8,5.3c-0.9,1.6-2.6,2.9-4.4,1.8L184.6,157.5z M188,157.1
				c-0.1-0.8,0.4-1.6,0.7-2.5c0.3-0.8,0.4-1.7-0.6-2.3c-0.9-0.5-1.7,0.4-2,1c-0.4,0.8-0.7,2.3,0.5,2.9L188,157.1z"/>
			<path class="st0" d="M190,163.3l-0.9,1.3l2.5,1.7l-1.2,1.7l-2.5-1.7l-1.1,1.5l-1.4-1l1.1-1.5l-4.4-3.1c-0.7-0.5-1.2-0.7-1.7,0
				c-0.2,0.2-0.3,0.5-0.4,0.7l-1.4-1c0.2-0.4,0.4-0.8,0.7-1.2c1.2-1.8,2.2-1.6,3.6-0.6l4.9,3.4l0.9-1.3L190,163.3z"/>
			<path class="st0" d="M185.5,169.5l-1.3,1.6l-7.9-6.3l1.3-1.6L185.5,169.5z M188.6,171.9l-1.3,1.6l-1.6-1.3l1.3-1.6L188.6,171.9z"
				/>
			<path class="st0" d="M179,169.8c2.2,2.1,2.6,4.9,0.6,7.1c-2.1,2.2-4.8,1.9-7.1-0.2c-2.2-2.1-2.7-4.9-0.6-7.1
				C173.9,167.4,176.7,167.7,179,169.8 M173.9,175.2c1.3,1.2,3.1,1.9,4.4,0.5c1.3-1.3,0.5-3.2-0.7-4.3c-1.3-1.2-3.1-1.9-4.4-0.5
				C171.9,172.1,172.6,174,173.9,175.2"/>
			<path class="st0" d="M173.9,182.2l-1.5,1.2l-0.9-1.1l-0.1,0c0.2,1.2-0.1,2.5-1.1,3.2c-1.6,1.3-3.3,1.2-4.7-0.5l-4.4-5.3l1.6-1.3
				l4,4.9c1,1.2,1.9,1.3,2.8,0.6c1.1-0.8,1-2.3,0.1-3.5l-3.8-4.6l1.6-1.3L173.9,182.2z"/>
		</g>
		<path class="st0" d="M175.6,115.1c-2.1,0-5,2.3-8.5,7.1c-3.5,4.7-7,10.8-10.4,18.3c5.9-2.3,10.8-5.7,14.9-10
			c4.1-4.3,6.1-8.4,6.1-12.3C177.8,116.2,177,115.1,175.6,115.1 M156.2,141.8c-2.8,6.6-4.2,12.1-4.2,16.5c0,3.8,0.9,6.2,2.6,7.4
			c11.8-9.5,20.5-22.7,24.6-37.7c-0.9,1.7-2.2,3.3-3.9,4.7C171.6,136,165.2,139,156.2,141.8 M57.4,94.9c4.9-2.6,10.6-4.4,16.9-5.6
			c-4.5-3-6.8-7.8-6.8-14.3c0-8.4,3.3-15.5,9.9-21.1c-4.4-1.7-8.5-2.9-12.2-3.8c-18,13.3-29.7,34.6-29.7,58.7c0,2.7,0.2,5.3,0.4,8
			c0.6-1.1,1.1-2.3,1.8-3.4C42.7,105.2,49.2,99,57.4,94.9 M117.3,58.1c0-2.5-1.7-4.7-5-6.6c-3.4-1.9-7.2-2.9-11.6-2.9
			c-6,0-11.5,2-16.4,6.1c10.8,5.5,19.9,8.3,27.2,8.3C115.4,63,117.3,61.3,117.3,58.1 M108.8,35.6c-15.5,0-29.8,4.8-41.7,13
			c3.7,1.1,7.6,2.4,11.8,4c5.6-4.3,12.2-6.4,19.6-6.4c5.5,0,10.3,1.1,14.2,3.5c3.9,2.3,5.9,5.2,5.8,8.5c0,4.3-2.5,6.5-7.5,6.5
			c-4,0-13.4-2.9-28.2-8.7C76,62.2,72.5,70,72.5,79.5c0,4.6,1,7.7,3,9.4c2.9-0.4,5.1-0.6,6.5-0.6c4.2,0,6.4,0.8,6.4,2.4
			c0,1.1-1.1,1.6-3.4,1.6c-2.8,0-5.9-0.7-9.3-1.9c-4.5,1-9.8,3.8-15.8,8.3c-11.3,8.5-18.4,18.8-21.3,31.1c2,6.8,5,13.2,8.8,19
			c0.8-11.1,4.8-21.3,12.2-30.9c8.2-10.6,17.1-15.9,26.9-15.9c4.5,0,8.1,1.7,10.7,5.2c2.6,3.5,3.9,8.1,3.9,14
			c0,12.5-4.4,23.8-13.1,33.8c-6.4,7.4-13.4,12-21.1,14c11.8,8.3,26.2,13.1,41.7,13.1c16.8,0,32.2-5.7,44.5-15.2
			c-1.1-0.8-2.1-1.9-3-3.4c-1.6-2.7-2.5-6-2.8-9.8c-5.2,9.7-9.2,14.7-12.2,14.7c-1.9,0-3.5-1.1-4.8-3.3c-1.3-2.2-1.9-4.9-1.9-8.1
			c-4.3,7.5-7.9,11.3-10.6,11.3c-1.9,0-3.5-1.1-4.8-3.2c-1.2-2.1-1.9-4.7-1.9-7.8c-4.2,7.3-7.5,11.1-10,11.1c-1.8,0-3.2-1.1-4.3-3.1
			c-1.1-2.1-1.7-4.7-1.7-7.9c0-3.5,0.6-7,1.6-10.2c1-3.3,4.6-12.9,10.6-28.6c7.4-19.3,13.6-36,18.7-50.2c1.2,0.5,2.3,0.8,3.2,0.8
			c1.5,0,3-0.4,4.3-1.2c-17.2,44.8-27.1,71.2-30,79.1c-2.8,7.9-4.2,13.1-4.2,15.7c0,2.9,0.8,4.3,2.3,4.3c2.1,0,5.3-3.9,9.6-11.7
			c0.4-3.7,1.7-8.6,4.1-15.1l9.5-25.5c1.3,0.4,2.3,0.7,3,0.7c1.1,0,2.7-0.2,4.7-0.7l-13.9,35.9c-2,5.2-3,9.2-3,12
			c0,2.9,1,4.3,2.9,4.3c2.3,0,5.6-4,10-11.8c0.3-3.5,1.3-7.7,3.1-12.6l10.3-27.1l-6.2,0l0.6-1.4l6.1,0l7.2-18.7
			c1.2,0.5,2.4,0.8,3.5,0.8c1.2,0,2.3-0.3,3.5-0.8l-7,18.7h8l-0.5,1.5l-8,0l-13.7,36.6c-1.7,4.4-2.5,7.9-2.5,10.6
			c0,2.9,0.9,4.3,2.9,4.3c2.6,0,6.4-5,11.5-14.8c0-0.3,0-0.5,0-0.8c0-11.5,5.2-21.7,15.4-30.5c5.4-4.6,9.7-6.9,13.1-6.9
			c1.5,0,2.7,0.7,3.7,2.1c0.8,1.1,1.2,2.4,1.4,3.9c0.5-3.6,0.9-7.2,0.9-11C182,68.5,149.3,35.7,108.8,35.6 M136.2,102.4
			c-1.2,2-2.5,2.9-3.9,2.9c-1.8,0-2.7-1.4-2.7-4.3c0-2.1,0.6-4.2,1.9-6.1c1.3-1.9,2.6-2.9,4-2.9c1.8,0,2.7,1.4,2.7,4.1
			C138,98.3,137.4,100.4,136.2,102.4 M86.3,152.5c9.2-10.5,13.8-21.2,13.8-32.2c0-4.6-1.2-8.4-3.5-11.5c-2.3-3-5.3-4.5-8.8-4.5
			c-8.8,0-17.4,5.7-25.7,17.1c-7.3,10-11.4,20.2-12.4,30.5c4.3,5.8,9.4,11,15.1,15.3C72.1,165.4,79.3,160.5,86.3,152.5"/>
	</g>
</g>
</svg>
