<?xml version="1.0" encoding="utf-8"?>
<!-- Generator: Adobe Illustrator 22.0.1, SVG Export Plug-In . SVG Version: 6.00 Build 0)  -->
<svg version="1.1" id="圖層_1" xmlns="http://www.w3.org/2000/svg" xmlns:xlink="http://www.w3.org/1999/xlink" x="0px" y="0px"
	 viewBox="0 0 506 217.7" style="enable-background:new 0 0 506 217.7;" xml:space="preserve">
<style type="text/css">
	.st0{fill:#FFFFFF;}
	.st1{fill:#492B80;}
	.st2{fill:#040000;}
</style>
<g>
	<g>
		<path class="st0" d="M217.7,108.8c0,60-48.6,108.8-108.8,108.8S0,168.8,0,108.8C0,48.6,48.6,0,108.8,0S217.7,48.6,217.7,108.8"/>
		<path class="st1" d="M108.6,217.5v-1.9v-1.9l0,0c57.9,0,104.8-46.9,105-104.8l0,0c0-57.9-46.9-104.8-105-105l0,0
			C50.7,3.8,3.8,50.7,3.8,108.8c0,57.9,46.9,104.8,104.8,104.8v1.9V217.5C48.6,217.5,0,168.8,0,108.8c0-0.2,0-0.2,0-0.2
			C0,48.6,48.6,0,108.8,0h0.2c60,0,108.6,48.8,108.6,108.8l0,0C217.5,168.8,168.8,217.5,108.6,217.5L108.6,217.5z"/>
		<polygon class="st2" points="91.4,193.5 99.4,194.7 99.2,196 95.8,195.4 94.3,204.2 93,204 94.5,195.1 91.2,194.5 		"/>
		<path class="st2" d="M99.4,199.8c0.2-1.7,1.5-2.3,3.2-2.1c0.6,0,2.7,0.4,2.5,2.3l-0.4,4.2l0.4,0.4h0.4v0.8h-0.6
			c-1.1,0-1.3-0.6-1.3-1.3c-0.4,0.4-1.3,1.1-2.7,1.1c-1.3-0.2-2.3-1.1-2.1-2.3c0-0.6,0.4-2.1,2.3-2.1h2.1l0.6-0.8
			c0-0.8-0.4-1.3-1.7-1.3c-1.5,0-1.7,0.8-1.9,1.3L99.4,199.8z M103.8,201.5c-0.2,0.2-0.4,0.2-2.1,0.2c-0.6,0-1.7,0.2-1.7,1.1
			c0,0.8,0.2,1.3,1.3,1.5c1.1,0,2.3-0.6,2.3-1.5L103.8,201.5z"/>
		<path class="st2" d="M108,205.5h-1.3l0.2-7.4h1.3L108,205.5z M106.9,196.6v-1.5h1.3v1.5H106.9z"/>
		<path class="st2" d="M109.3,198.1h1.3v1.1l0,0c0.2-0.4,0.8-1.3,2.1-1.3c1.9,0,3.2,1.5,3.2,3.6c0,1.7-0.6,4.2-3.2,4.2
			c-1.1,0-1.7-0.4-1.9-0.8l0,0v3.6l-1.3,0L109.3,198.1z M112.6,204.6c1.3,0,1.9-1.3,1.9-2.9c0-0.8-0.2-2.7-2.1-2.7
			c-1.7,0-1.9,1.9-1.9,3.2C110.7,204,112,204.6,112.6,204.6"/>
		<path class="st2" d="M123.6,202.3c0,0.4-0.2,1.5-1.1,2.1c-0.4,0.2-0.8,0.6-1.9,0.6c-2.1,0.2-3.4-1.3-3.6-3.4
			c-0.2-2.3,0.6-4.2,3.2-4.4c2.1-0.2,3.4,1.5,3.6,4l-5.3,0.6c0.2,1.5,1.1,2.3,2.3,2.3c1.1-0.2,1.7-1.1,1.7-1.7L123.6,202.3z
			 M122.1,200.4c-0.2-1.1-0.8-2.1-2.3-1.9c-1.1,0.2-1.9,1.3-1.9,2.3L122.1,200.4z"/>
		<path class="st2" d="M125,195.6l-0.2-1.5l-1.3,0.2l0.2,1.5L125,195.6z M125.3,196.8l-1.1,0.2l1.3,7.2l1.3-0.2L125.3,196.8z"/>
		<path class="st1" d="M108.6,189.2v-1.1v-0.8l0,0c43.6,0,78.7-35.2,78.7-78.5l0,0c0-43.4-35.2-78.5-78.5-78.5l0,0
			c-43.4,0-78.5,35.2-78.5,78.5c0,43.4,34.9,78.5,78.3,78.5v1.1V189.2c-44.4,0-80.4-36-80.4-80.4c0-0.2,0-0.2,0-0.2
			c0-44.4,36-80.4,80.4-80.4l0,0c44.4,0,80.4,36,80.4,80.4l0,0C189.2,153.3,153.3,189.2,108.6,189.2L108.6,189.2z M108.8,28.2
			L108.8,28.2L108.8,28.2z"/>
		<polygon class="st1" points="46.5,189.2 39.4,183.4 40.8,181.7 46.1,186.3 48.4,183.6 43.6,179.4 44.8,177.9 49.7,182.1 
			52.4,178.9 46.9,174.3 48.4,172.6 55.4,178.7 		"/>
		<path class="st1" d="M39.8,178.3l-1.5-1.5l1.1-1.1l0,0c-1.3,0.2-2.5,0-3.4-0.8c-1.5-1.5-1.5-3.2,0.2-4.8l5.1-4.6l1.5,1.5l-4.6,4.2
			c-1.1,1.1-1.3,1.9-0.4,2.9c0.8,1.1,2.3,0.8,3.4-0.2l4.4-4l1.5,1.5L39.8,178.3z"/>
		<path class="st1" d="M34.7,156.8c2.5-1.7,4.6-1.3,6.3,1.1c1.1,1.5,1.7,3.8-0.2,5.3l-1.3-1.7c0.8-0.8,0.6-1.9,0-2.7
			c-1.1-1.3-2.1-1.5-3.6-0.4l-1.3,0.8l0,0c1.3-0.2,2.3,0.2,2.9,1.3c1.7,2.3,0.4,4.8-1.9,6.5c-2.1,1.5-5.1,1.7-6.5-0.6
			c-0.6-1.1-0.8-2.1-0.2-3.2l0,0L28,164l-1.3-1.7L34.7,156.8z M32,161.3c-1.5,1.1-2.3,2.5-1.3,4s2.9,1.1,4.2,0
			c1.3-1.1,2.3-2.5,1.3-4C35.4,159.8,33.5,160.2,32,161.3"/>
		
			<rect x="20.6" y="156.2" transform="matrix(0.8628 -0.5055 0.5055 0.8628 -75.7127 35.4776)" class="st1" width="13.9" height="2.1"/>
		<path class="st1" d="M19.6,157.3l-1.1-1.9l1.9-1.1l1.1,1.9L19.6,157.3z M22.9,155.4l-0.8-1.7l8.8-4.6l1.1,1.9L22.9,155.4z"/>
		<path class="st1" d="M26.3,146.7c1.1-0.6,1.3-1.7,0.8-2.7c-0.2-0.6-1.1-1.9-2.1-1.5c-1.1,0.4-0.6,1.9-0.4,3.4
			c0.2,1.5,0.2,3.2-1.5,4c-2.1,0.8-3.6-0.8-4.2-2.5c-0.8-1.7-0.6-3.8,1.3-4.8l0.8,1.9c-0.8,0.6-0.8,1.5-0.4,2.3
			c0.2,0.6,0.8,1.5,1.7,1.3c1.1-0.4,0.6-1.9,0.2-3.4c-0.2-1.5-0.2-3.2,1.5-4c2.1-0.8,3.8,0.8,4.6,2.5c0.8,2.1,0.6,4.2-1.7,5.3
			L26.3,146.7z"/>
		<path class="st1" d="M13.1,142.1l-0.6-1.9l4.8-1.5l0,0c-1.1-0.2-1.9-1.1-2.3-2.3c-0.6-1.9,0.2-3.6,2.3-4.2l6.5-1.9l0.6,1.9
			l-6.1,1.7c-1.5,0.4-1.9,1.3-1.7,2.3c0.4,1.3,1.7,1.9,3.2,1.5l5.7-1.7l0.6,1.9L13.1,142.1z"/>
		<polygon class="st1" points="8.8,124.2 8.4,121.9 20.2,120.6 19.6,114.1 21.7,113.9 22.5,122.7 		"/>
		<path class="st1" d="M19.6,104.8c0.6,0,0.8,0,0.8-0.4c0-0.2,0-0.2,0-0.4h1.5c0.2,0.2,0.2,0.8,0.2,1.3c0,0.8-0.4,1.5-1.3,1.5
			c0.8,0.8,1.3,2.1,1.3,3.2c0,1.7-1.1,3.2-2.9,3.2c-2.5,0-2.9-1.9-3.2-3.6c-0.2-1.5,0-2.7-1.3-2.7c-1.1,0-1.5,1.1-1.5,1.9
			c0,1.1,0.4,1.9,1.5,2.1v2.1c-2.5-0.2-3.4-2.3-3.4-4.2s0.8-3.8,2.9-3.6L19.6,104.8z M16.6,106.9c0.4,0.6,0.4,1.7,0.6,2.5
			c0.2,0.8,0.4,1.7,1.7,1.7c1.1,0,1.3-1.1,1.3-1.9c0-0.8-0.4-2.3-1.9-2.3H16.6z"/>
		<path class="st1" d="M11.8,101.3l0.2-1.9l1.5,0.2l0,0c-1.1-0.8-1.5-1.9-1.5-3.2c0.2-1.9,1.5-3.2,3.8-2.7l6.7,0.8l-0.2,2.1L16,95.8
			c-1.5-0.2-2.3,0.4-2.5,1.5c-0.2,1.5,0.8,2.3,2.3,2.5l5.9,0.8l-0.2,2.1L11.8,101.3z"/>
		<path class="st1" d="M24.8,83.8c2.9,0.8,4,2.7,3.2,5.5c-0.4,1.9-1.7,3.6-4,3.2l0.4-1.9c1.3,0,1.7-0.8,1.9-1.7
			c0.4-1.7-0.2-2.5-1.9-2.9l-1.3-0.4l0,0c0.8,0.8,1.3,2.1,1.1,3.2c-0.6,2.9-3.4,3.4-6.1,2.7c-2.5-0.6-4.4-2.7-3.8-5.3
			c0.2-1.1,1.1-2.1,2.3-2.3l0,0l-1.3-0.4l0.4-2.1L24.8,83.8z M19.8,84.6c-1.7-0.4-3.4-0.2-3.8,1.7c-0.4,1.7,1.3,2.7,2.7,3.2
			c1.7,0.4,3.4,0,3.8-1.5C23.2,86.1,21.5,85,19.8,84.6"/>
		<path class="st1" d="M29.1,74.1L28.4,76l-1.3-0.4l0,0c0.8,0.8,1.1,2.1,0.6,3.2c-0.8,2.3-2.5,2.7-5.1,1.9l-5.9-2.5l0.8-1.9l5.7,2.3
			c1.7,0.6,2.5,0.2,2.9-0.8c0.6-1.7-0.2-2.5-1.7-3.2l-5.5-2.1l0.8-1.9L29.1,74.1z"/>
		<path class="st1" d="M31.8,64.2c0.4,0.2,0.6,0.2,0.8,0c0-0.2,0.2-0.2,0.2-0.4l1.3,0.6c0,0.4-0.2,1.1-0.4,1.3
			c-0.4,0.8-1.1,1.1-1.9,0.8c0.4,1.1,0,2.5-0.4,3.4c-0.8,1.5-2.3,2.3-4,1.5c-2.3-1.3-1.7-2.9-1.1-4.6c0.4-1.5,1.3-2.5,0-3.2
			c-1.1-0.6-1.7,0.4-2.1,1.1c-0.6,1.1-0.4,1.9,0.4,2.5L23.6,69c-2.3-1.3-1.9-3.6-1.1-5.3c0.8-1.7,2.5-2.9,4.4-1.9L31.8,64.2z
			 M28.4,64.6c0,0.8-0.4,1.7-0.6,2.5c-0.4,0.8-0.4,1.7,0.6,2.3c0.8,0.4,1.7-0.4,2.1-1.1c0.4-0.8,0.6-2.3-0.6-2.9L28.4,64.6z"/>
		<path class="st1" d="M39.4,55.8c2.5,1.7,2.7,4,1.1,6.3c-1.1,1.5-2.9,2.7-4.8,1.7l1.3-1.7c1.3,0.4,1.9-0.2,2.5-1.1
			c0.8-1.3,0.6-2.5-0.6-3.4l-1.5-0.8l0,0c0.6,1.1,0.4,2.3-0.2,3.4c-1.7,2.3-4.4,2.1-6.7,0.4c-2.1-1.5-3.2-4.2-1.7-6.3
			c0.6-1.1,1.7-1.5,2.9-1.3l0,0l-1.1-0.8l1.3-1.7L39.4,55.8z M34.5,54.7c-1.5-1.1-3.2-1.3-4.2,0.2c-1.1,1.5,0,3.2,1.5,4
			c1.3,0.8,3.2,1.3,4.2,0C36.8,57.3,35.8,55.8,34.5,54.7"/>
		<path class="st1" d="M38.9,50.3c1.3,1.1,2.7,1.5,3.8,0.2c0.8-0.8,0.8-1.9,0.2-2.7l1.3-1.5c1.3,1.9,1.1,4-0.2,5.5
			c-1.9,2.1-4.6,1.9-6.9-0.2c-2.1-1.9-2.7-4.8-0.8-6.9c1.9-2.1,5.3-1.7,7.4,0.6L38.9,50.3z M41.3,45.7c-1.1-0.8-2.5-1.1-3.6,0
			c-1.1,1.1-0.8,2.5,0.4,3.6L41.3,45.7z"/>
		<polygon class="st1" points="43.2,32.8 45,31.4 53.9,41.9 52.2,43.4 		"/>
		<path class="st1" d="M50.1,32l1.7-1.1l0.8,1.3l0,0c-0.2-1.3,0.4-2.3,1.5-3.2c1.7-1.1,3.4-0.8,4.6,0.8l4,5.7L61,36.8l-3.6-5.3
			c-0.8-1.3-1.7-1.5-2.7-0.8c-1.1,0.8-1.3,2.3-0.4,3.4l3.4,4.8L56,40.2L50.1,32z"/>
		<path class="st1" d="M64.4,30.9c0.6,1.1,1.7,1.1,2.7,0.6c0.6-0.4,1.9-1.1,1.3-2.1c-0.6-1.1-1.9-0.4-3.4,0c-1.5,0.4-3.2,0.6-4-1.3
			c-1.1-1.9,0.6-3.6,2.1-4.4c1.7-0.8,3.6-1.1,4.8,0.8l-1.9,1.1c-0.6-0.8-1.5-0.6-2.3-0.2c-0.4,0.2-1.5,0.8-1.1,1.7
			c0.4,1.1,1.9,0.4,3.4,0c1.5-0.4,3.2-0.6,4,1.3c1.1,2.1-0.4,4-2.1,4.8c-2.1,1.1-4.2,0.8-5.3-1.1L64.4,30.9z"/>
		<path class="st1" d="M68.2,21.3l1.3-0.6l-1.3-2.7l1.9-0.8l1.3,2.7l1.7-0.6l0.6,1.5L72,21.3l2.1,4.8c0.4,0.8,0.6,1.3,1.5,0.8
			c0.2-0.2,0.6-0.2,0.8-0.4L77,28c-0.4,0.2-0.8,0.4-1.3,0.6c-1.9,0.8-2.7,0.2-3.4-1.3l-2.3-5.5l-1.5,0.6L68.2,21.3z"/>
		<path class="st1" d="M74.1,14.7l1.9-0.6l0.6,1.9l-1.9,0.8L74.1,14.7z M75.4,18.5l1.9-0.6l3.4,9.5L78.7,28L75.4,18.5z"/>
		<path class="st1" d="M79.2,17.1l1.5-0.4l-0.8-2.9l1.9-0.6l0.8,2.9l1.9-0.4l0.4,1.7l-1.7,0.4l1.5,5.1c0.2,0.8,0.4,1.3,1.3,1.1
			c0.2,0,0.6-0.2,0.8-0.4l0.4,1.7c-0.4,0.2-0.8,0.4-1.3,0.4c-2.1,0.6-2.7-0.2-3.2-1.7L81,18.1l-1.5,0.4L79.2,17.1z"/>
		<path class="st1" d="M96.6,23.4l-1.9,0.2l-0.2-1.5l0,0c-0.2,1.1-1.3,1.9-2.3,2.1c-2.3,0.4-3.6-0.6-4.2-3.2l-1.3-6.3l2.1-0.4
			l1.1,6.1c0.4,1.7,1.1,2.3,2.1,2.1c1.7-0.4,2.1-1.7,1.7-3.2l-1.1-5.7l2.1-0.4L96.6,23.4z"/>
		<path class="st1" d="M97.3,13.3l1.5-0.2l-0.2-2.9l2.1-0.2l0.2,2.9l1.9-0.2l0.2,1.7l-1.9,0.2l0.4,5.3c0,0.8,0.2,1.3,1.1,1.3
			c0.2,0,0.6,0,0.8-0.2l0.2,1.7c-0.4,0-0.8,0.2-1.3,0.2c-2.1,0.2-2.5-0.6-2.7-2.3l-0.6-5.7h-1.7V13.3z"/>
		<path class="st1" d="M106.7,18.1c0,1.5,0.8,2.9,2.5,2.9c1.3,0,1.9-0.6,2.3-1.7h1.9c-0.4,2.1-2.3,3.4-4.2,3.4
			c-2.9,0-4.4-2.3-4.4-5.5c0-2.9,1.9-5.3,4.6-5.3c2.9,0,4.6,2.9,4.2,5.9L106.7,18.1z M111.6,16.6c0-1.5-0.8-2.7-2.3-2.7
			c-1.5,0-2.3,1.1-2.5,2.5L111.6,16.6z"/>
		<path class="st1" d="M120.6,18.1c0.6-2.9,2.7-4.8,5.5-4.4c2.9,0.4,4.2,2.9,3.6,6.1c-0.6,2.9-2.7,4.8-5.5,4.4
			C121.5,23.8,120.2,21.3,120.6,18.1 M128,19.6c0.2-1.7-0.2-3.6-1.9-4c-1.9-0.4-3.2,1.3-3.4,2.9c-0.2,1.7,0.2,3.6,1.9,4
			C126.5,22.7,127.6,21.3,128,19.6"/>
		<path class="st1" d="M132.6,15.4l1.5,0.4l0.2-0.8c0.6-2.5,2.1-2.5,3.4-2.1c0.6,0.2,1.1,0.4,1.3,0.4l-0.4,1.7
			c-0.2,0-0.4-0.2-0.8-0.2c-0.6-0.2-1.1,0-1.3,0.6l-0.2,1.1l1.5,0.4l-0.4,1.7l-1.7-0.4l-2.3,8l-1.9-0.6l2.3-8l-1.5-0.4L132.6,15.4z"
			/>
		<polygon class="st1" points="146.1,15.6 155.6,20 154.7,21.9 150.9,20.2 146.1,30.9 144,29.9 148.8,19.2 145,17.5 		"/>
		<path class="st1" d="M152.8,29.3c-0.8,1.5-0.8,2.9,0.6,3.8c1.1,0.6,1.9,0.4,2.7-0.2l1.7,1.1c-1.5,1.7-3.6,1.9-5.5,0.8
			c-2.5-1.5-2.9-4.2-1.3-6.9c1.5-2.5,4.2-3.8,6.5-2.3c2.5,1.5,2.7,4.8,0.8,7.4L152.8,29.3z M157.7,30.5c0.6-1.3,0.4-2.7-0.6-3.6
			c-1.3-0.6-2.7-0.2-3.6,1.1L157.7,30.5z"/>
		<path class="st1" d="M161,35.8c-0.6,1.1-0.2,2.1,0.6,2.7c0.6,0.4,1.9,1.1,2.5,0.2c0.6-1.1-0.4-1.9-1.5-3.2s-1.9-2.5-0.6-4.2
			c1.3-1.7,3.4-1.1,4.8,0c1.5,1.1,2.3,2.9,1.3,4.8l-1.9-1.3c0.4-1.1,0-1.7-0.6-2.1c-0.4-0.4-1.5-0.8-1.9-0.2
			c-0.6,0.8,0.4,1.9,1.5,3.2s1.9,2.5,0.6,4.2c-1.5,1.9-3.8,1.3-5.3,0.2c-1.9-1.5-2.5-3.4-1.3-5.3L161,35.8z"/>
		<path class="st1" d="M171.1,35.2l1.1,1.1l2.1-2.3l1.5,1.5l-1.9,2.3l1.5,1.3l-1.3,1.1l-1.5-1.3l-3.6,4c-0.6,0.6-0.8,1.1-0.2,1.7
			c0.2,0.2,0.4,0.4,0.6,0.4l-0.8,1.5c-0.4-0.2-0.6-0.4-1.1-0.8c-1.7-1.5-1.3-2.3-0.2-3.6l4-4.4l-1.1-1.1L171.1,35.2z"/>
		<path class="st1" d="M177,40.4l1.5,1.5l-7.2,7.2l-1.5-1.5L177,40.4z M179.8,37.7l1.5,1.5l-1.5,1.5l-1.5-1.5L179.8,37.7z"/>
		<path class="st1" d="M180.6,44.2l1.3,1.5l-1.1,0.8l0,0c1.3-0.2,2.5,0.2,3.2,1.1c1.3,1.5,1.3,3.4-0.4,4.6l-5.3,4.6l-1.5-1.5l4.8-4
			c1.3-1.1,1.3-1.9,0.6-2.9c-0.8-1.1-2.3-1.1-3.6,0l-4.4,3.8l-1.3-1.7L180.6,44.2z"/>
		<path class="st1" d="M184.8,65.7c-2.5,1.7-4.6,1.1-6.3-1.5c-1.1-1.5-1.5-3.8,0.4-5.3l1.1,1.7c-0.8,0.8-0.6,1.9,0,2.7
			c0.8,1.5,2.1,1.5,3.4,0.6l1.3-0.8l0,0c-1.3,0.2-2.3-0.4-2.9-1.5c-1.7-2.5-0.2-4.8,2.1-6.3c2.3-1.5,5.1-1.5,6.5,0.8
			c0.6,1.1,0.8,2.1,0.2,3.2l0,0l1.3-0.8l1.1,1.7L184.8,65.7z M187.6,61.3c1.5-0.8,2.3-2.3,1.5-4c-1.1-1.5-2.9-1.1-4.2-0.2
			c-1.5,0.8-2.3,2.5-1.5,3.8C184.2,62.7,186.1,62.3,187.6,61.3"/>
		<path class="st1" d="M192.8,78.7c-0.4,0.2-0.6,0.4-0.4,0.8c0,0.2,0.2,0.2,0.2,0.4l-1.5,0.6c-0.2-0.2-0.6-0.8-0.6-1.1
			c-0.4-0.8-0.2-1.5,0.4-1.9c-1.1-0.4-1.9-1.5-2.3-2.5c-0.6-1.5-0.4-3.4,1.5-4c2.3-1.1,3.4,0.6,4.2,2.1c0.8,1.3,1.3,2.5,2.3,2.1
			s0.8-1.5,0.4-2.3c-0.4-1.1-1.3-1.7-2.3-1.3l-0.6-2.3c2.5-0.8,4,0.6,4.6,2.5c0.6,1.7,0.6,3.8-1.3,4.6L192.8,78.7z M194.5,75.8
			c-0.6-0.4-1.1-1.3-1.5-2.1c-0.4-0.8-1.1-1.3-2.1-0.8c-0.8,0.4-0.6,1.7-0.4,2.3c0.4,0.8,1.3,1.9,2.7,1.5L194.5,75.8z"/>
		<path class="st1" d="M201.2,78.9l0.6,1.9l-1.5,0.4l0,0c1.3,0.2,2.1,1.1,2.5,2.3c0.6,1.9-0.2,3.6-2.3,4.2l-6.9,1.9l-0.6-1.9
			l6.1-1.7c1.5-0.4,1.9-1.3,1.7-2.3c-0.4-1.3-1.7-1.9-3.2-1.5L192,84l-0.4-2.3L201.2,78.9z"/>
		<path class="st1" d="M195.6,100.4l-0.2-1.9l1.3-0.2l0,0c-1.3-0.4-1.9-1.5-2.1-2.5c-0.4-2.9,1.7-4.6,4.6-5.1
			c3.6-0.6,5.5,1.3,5.9,3.2c0.2,1.1,0,2.5-1.1,3.4l0,0l5.1-0.8l0.4,2.1L195.6,100.4z M196.4,95.6c0.2,1.9,2.1,2.3,4,2.1
			c2.1-0.4,3.4-1.5,3.2-3.2c-0.2-1.9-2.3-2.3-4-2.1C197.7,92.8,196,93.9,196.4,95.6"/>
		<polygon class="st1" points="209.9,108.6 209.7,117.9 207.6,117.7 207.8,110.7 204.2,110.7 204,117 201.9,117 202.1,110.5 
			198.1,110.5 197.9,117.7 195.8,117.5 196,108.2 		"/>
		<path class="st1" d="M194.1,128l0.2-1.9l1.5,0.2l0,0c-1.1-0.6-1.3-1.9-1.1-3.2c0.4-2.9,2.9-4,5.9-3.4c3.6,0.6,4.8,2.7,4.4,4.8
			c-0.2,1.3-0.8,2.3-2.1,2.7l0,0l5.1,0.8l-0.4,2.1L194.1,128z M196.4,123.8c-0.2,1.9,1.5,2.9,3.2,3.2c2.1,0.4,3.6-0.4,4-1.9
			c0.2-1.9-1.5-2.9-3.2-3.2C198.5,121.5,196.6,121.9,196.4,123.8"/>
		<path class="st1" d="M191.4,138.1l0.6-1.9l1.3,0.4l0,0c-0.8-0.8-1.1-2.1-0.8-2.9c0.6-2.3,2.3-2.9,4.8-2.3l6.1,1.7l-0.6,1.9
			l-5.9-1.7c-1.7-0.4-2.5,0-2.7,1.1c-0.4,1.7,0.4,2.5,1.9,2.9l5.7,1.7l-0.6,1.9L191.4,138.1z"/>
		<path class="st1" d="M194.3,148.6c1.3,0.4,2.1-0.2,2.5-1.3c0.4-1.1,0.4-2.5-2.3-3.8c-1.5-0.6-3.4-0.6-4.2,0.8
			c-0.4,1.1,0,2.1,1.3,2.9l-0.8,2.1c-2.3-1.5-2.9-3.4-2.1-5.5c1.1-2.7,3.8-3.4,6.5-2.1c2.7,1.3,4.4,3.6,3.2,6.3
			c-0.8,1.9-2.5,3.2-5.1,2.5L194.3,148.6z"/>
		<path class="st1" d="M184.4,157.5c-0.4-0.2-0.6-0.2-0.8,0c0,0-0.2,0.2-0.2,0.4l-1.3-0.8c0-0.4,0.2-1.1,0.4-1.3
			c0.4-0.6,1.1-1.1,1.9-0.8c-0.4-1.1,0-2.5,0.6-3.4c0.8-1.5,2.5-2.3,4.2-1.3c2.1,1.3,1.7,3.2,0.8,4.6c-0.4,1.5-1.3,2.5-0.2,3.2
			c1.1,0.6,1.7-0.2,2.1-1.1c0.6-1.1,0.6-1.9-0.4-2.5l1.1-1.7c2.1,1.5,1.9,3.6,0.8,5.3c-0.8,1.7-2.5,2.9-4.4,1.9L184.4,157.5z
			 M188,157c0-0.8,0.4-1.7,0.6-2.5c0.2-0.8,0.4-1.7-0.6-2.3c-0.8-0.4-1.7,0.4-2.1,1.1c-0.4,0.8-0.6,2.3,0.4,2.9L188,157z"/>
		<path class="st1" d="M189.9,163.1l-0.8,1.3l2.5,1.9l-1.3,1.7l-2.5-1.7l-1.1,1.5l-1.3-1.1l1.1-1.5l-4.4-3.2c-0.8-0.4-1.3-0.6-1.7,0
			c-0.2,0.2-0.4,0.4-0.4,0.8l-1.5-1.1c0.2-0.4,0.4-0.8,0.6-1.3c1.3-1.7,2.1-1.5,3.6-0.6l4.8,3.4l0.8-1.3L189.9,163.1z"/>
		<path class="st1" d="M185.5,169.5l-1.3,1.7l-7.8-6.3l1.3-1.7L185.5,169.5z M188.4,171.8l-1.3,1.7l-1.7-1.3l1.3-1.7L188.4,171.8z"
			/>
		<path class="st1" d="M178.9,169.7c2.3,2.1,2.7,4.8,0.6,7.2c-2.1,2.1-4.8,1.9-7.2-0.2c-2.3-2.1-2.7-4.8-0.6-7.2
			C173.9,167.4,176.6,167.6,178.9,169.7 M173.9,175.1c1.3,1.3,3.2,1.9,4.4,0.4c1.3-1.3,0.4-3.2-0.8-4.4c-1.3-1.3-3.2-1.9-4.4-0.6
			C171.8,172,172.6,173.9,173.9,175.1"/>
		<path class="st1" d="M173.9,182.1l-1.5,1.3l-0.8-1.1l0,0c0.2,1.3-0.2,2.5-1.1,3.2c-1.5,1.3-3.4,1.3-4.6-0.4l-4.4-5.3l1.7-1.3
			l4,4.8c1.1,1.3,1.9,1.3,2.9,0.6c1.1-0.8,1.1-2.3,0-3.4l-3.8-4.6l1.5-1.3L173.9,182.1z"/>
		<path class="st1" d="M175.6,114.9c-2.1,0-5.1,2.3-8.6,7.2c-3.6,4.6-6.9,10.7-10.3,18.3c5.9-2.3,10.7-5.7,14.9-10.1
			c4-4.4,6.1-8.4,6.1-12.2C177.7,116.2,177,114.9,175.6,114.9 M156.2,141.7c-2.7,6.7-4.2,12.2-4.2,16.6c0,3.8,0.8,6.1,2.7,7.4
			c11.8-9.5,20.4-22.7,24.6-37.7c-0.8,1.7-2.1,3.4-3.8,4.6C171.6,136,165,138.9,156.2,141.7 M57.3,94.9c4.8-2.5,10.5-4.4,16.8-5.7
			c-4.4-2.9-6.7-7.8-6.7-14.3c0-8.4,3.4-15.4,9.9-21.1c-4.4-1.7-8.4-2.9-12.2-3.8c-17.9,13.3-29.7,34.5-29.7,58.7
			c0,2.7,0.2,5.3,0.4,8c0.6-1.1,1.1-2.3,1.7-3.4C42.7,105,49.3,98.9,57.3,94.9 M117.3,58.1c0-2.5-1.7-4.6-5.1-6.7
			c-3.4-1.9-7.2-2.9-11.6-2.9c-5.9,0-11.4,2.1-16.4,6.1c10.7,5.5,19.8,8.2,27.2,8.2C115.4,62.9,117.3,61.3,117.3,58.1 M108.8,35.6
			c-15.6,0-29.9,4.8-41.7,13.1c3.8,1.1,7.6,2.3,11.8,4c5.7-4.2,12.2-6.3,19.6-6.3c5.5,0,10.3,1.1,14.1,3.6c3.8,2.3,5.9,5.3,5.9,8.4
			c0,4.2-2.5,6.5-7.6,6.5c-4,0-13.3-2.9-28.2-8.6c-6.9,6.1-10.3,14.1-10.3,23.4c0,4.6,1.1,7.8,2.9,9.5c2.9-0.6,5.3-0.6,6.7-0.6
			c4.2,0,6.3,0.8,6.3,2.3c0,1.1-1.1,1.5-3.4,1.5c-2.7,0-5.9-0.6-9.3-1.9c-4.6,1.1-9.7,3.8-15.8,8.2c-11.4,8.4-18.3,18.7-21.3,31.2
			c2.1,6.7,5.1,13.3,8.8,18.9c0.8-11.2,4.8-21.3,12.2-30.7c8.2-10.5,17.1-16,26.9-16c4.4,0,8,1.7,10.7,5.3c2.5,3.6,4,8.2,4,13.9
			c0,12.4-4.4,23.8-13.1,33.7c-6.3,7.4-13.5,12-21.1,13.9c11.8,8.2,26.1,13.1,41.7,13.1c16.8,0,32.2-5.7,44.6-15.2
			c-1.1-0.8-2.1-1.9-2.9-3.4c-1.7-2.7-2.5-5.9-2.7-9.7c-5.3,9.7-9.3,14.7-12.2,14.7c-1.9,0-3.6-1.1-4.8-3.2c-1.3-2.1-1.9-4.8-1.9-8
			c-4.4,7.6-7.8,11.4-10.5,11.4c-1.9,0-3.6-1.1-4.8-3.2c-1.3-2.1-1.9-4.6-1.9-7.8c-4.2,7.4-7.6,11.2-9.9,11.2
			c-1.7,0-3.2-1.1-4.2-3.2s-1.7-4.6-1.7-8c0-3.6,0.6-6.9,1.7-10.3c1.1-3.4,4.6-12.8,10.7-28.6c7.4-19.4,13.7-36,18.7-50.1
			c1.3,0.4,2.3,0.8,3.2,0.8c1.5,0,2.9-0.4,4.2-1.3c-17.9,44.4-28,70.9-30.7,78.7c-2.7,7.8-4.2,13.1-4.2,15.6c0,2.9,0.8,4.4,2.3,4.4
			c2.1,0,5.3-4,9.7-11.6c0.4-3.6,1.7-8.6,4-15.2l9.5-25.5c1.3,0.4,2.3,0.6,2.9,0.6c1.1,0,2.7-0.2,4.6-0.6l-13.9,35.8
			c-1.9,5.3-2.9,9.3-2.9,12c0,2.9,1.1,4.4,2.9,4.4c2.3,0,5.7-4,9.9-11.8c0.2-3.6,1.3-7.6,3.2-12.6l10.3-27.2h-6.3l0.6-1.5h6.1
			l7.2-18.7c1.3,0.4,2.3,0.8,3.4,0.8c1.3,0,2.3-0.2,3.6-0.8l-6.9,18.7h8l-0.4,1.5h-8l-13.7,36.6c-1.7,4.4-2.5,8-2.5,10.5
			c0,2.9,0.8,4.4,2.9,4.4c2.5,0,6.3-5.1,11.4-14.7c0-0.2,0-0.4,0-0.8c0-11.6,5.1-21.7,15.4-30.5c5.5-4.6,9.7-6.9,13.1-6.9
			c1.5,0,2.7,0.6,3.8,2.1c0.8,1.1,1.3,2.3,1.5,4c0.6-3.6,0.8-7.2,0.8-10.9C181.9,68.4,149.3,35.6,108.8,35.6 M136.2,102.3
			c-1.3,1.9-2.5,2.9-4,2.9c-1.9,0-2.7-1.5-2.7-4.4c0-2.1,0.6-4.2,1.9-6.1s2.5-2.9,4-2.9c1.7,0,2.7,1.5,2.7,4.2
			C137.9,98.3,137.3,100.4,136.2,102.3 M86.3,152.4c9.3-10.5,13.7-21.3,13.7-32.2c0-4.6-1.1-8.4-3.4-11.4c-2.3-2.9-5.3-4.6-8.8-4.6
			c-8.8,0-17.3,5.7-25.7,17.1c-7.4,10.1-11.4,20.2-12.4,30.5c4.2,5.9,9.5,10.9,15.2,15.4C72,165.3,79.2,160.4,86.3,152.4"/>
	</g>
	<g>
		<path class="st1" d="M271.3,39.4l-4,8.3c-3.7-2.1-9-4.1-12.1-4.1c-1.8,0-3,0.6-3,2c0,5.4,19,2.2,19,15.3c0,7.7-6.9,11.4-15,11.4
			c-6.2,0-12.9-2.2-17.5-5.8l4.1-8.2c3.7,3.2,9.8,5.6,13.6,5.6c2.3,0,3.7-0.8,3.7-2.4c0-5.5-19-2-19-14.9c0-7,6-11.5,15.1-11.5
			C261.7,35.2,267.4,36.9,271.3,39.4z"/>
		<path class="st1" d="M284.5,66.3l-2.2,5.8h-11.1l15.5-36.4h11.1l15,36.4h-11.5l-2.1-5.8H284.5z M292,46.5l-4.5,11.9h8.8L292,46.5z
			"/>
		<path class="st1" d="M331.6,44.3v27.8h-10.9V44.3h-10.6v-8.6h32v8.6H331.6z"/>
		<path class="st1" d="M257.7,92.2c9.4,0,14.8,4.7,14.8,12.9c0,8.7-5.4,13.7-14.8,13.7h-5.7v9.8h-10.8V92.2H257.7z M251.9,110.5h5.2
			c3.2,0,5.1-1.8,5.1-5c0-3.2-1.9-4.9-5.1-4.9h-5.2V110.5z"/>
		<path class="st1" d="M292.6,118.8h-5.7v9.8h-10.8V92.2h17c9.8,0,15.4,4.7,15.4,12.9c0,5.4-2.2,9.4-6.1,11.6l7.4,11.9h-12.3
			L292.6,118.8z M293.1,110.5c3.2,0,5.1-1.8,5.1-5c0-3.2-1.9-4.9-5.1-4.9h-6.2v10H293.1z"/>
		<path class="st1" d="M323.1,122.8l-2.2,5.8h-11.1l15.5-36.4h11.1l15,36.4h-11.5l-2.1-5.8H323.1z M330.6,103l-4.5,11.9h8.8
			L330.6,103z"/>
		<path class="st1" d="M385.4,98.3l-6.2,7.4c-2.3-2.9-5.7-4.8-8.7-4.8c-4.9,0-8.7,4-8.7,9.4s3.7,9.4,8.7,9.4c2.8,0,6.2-1.7,8.7-4.2
			l6.2,6.7c-3.9,4.3-9.9,7-15.4,7c-11.1,0-19.2-8-19.2-18.8c0-10.6,8.3-18.5,19.6-18.5C375.9,91.8,381.7,94.3,385.4,98.3z"/>
		<path class="st1" d="M408.7,100.8v27.8h-10.9v-27.8h-10.6v-8.6h32v8.6H408.7z"/>
		<path class="st1" d="M424,128.6V92.2h10.8v36.4H424z"/>
		<path class="st1" d="M473,98.3l-6.2,7.4c-2.3-2.9-5.7-4.8-8.7-4.8c-4.9,0-8.7,4-8.7,9.4s3.7,9.4,8.7,9.4c2.8,0,6.2-1.7,8.7-4.2
			l6.2,6.7c-3.9,4.3-9.9,7-15.4,7c-11.1,0-19.2-8-19.2-18.8c0-10.6,8.3-18.5,19.6-18.5C463.4,91.8,469.3,94.3,473,98.3z"/>
		<path class="st1" d="M486.5,100.5v5.7h17.2v8.3h-17.2v5.8H506v8.3h-30.3V92.2h29.8v8.3H486.5z"/>
		<path class="st1" d="M278.8,166.8c0,10.7-8.4,18.7-19.9,18.7s-19.9-8-19.9-18.7c0-10.7,8.4-18.5,19.9-18.5
			S278.8,156.2,278.8,166.8z M250.1,166.9c0,5.5,4.2,9.6,8.9,9.6c4.8,0,8.6-4.1,8.6-9.6c0-5.5-3.8-9.5-8.6-9.5
			C254.2,157.3,250.1,161.3,250.1,166.9z"/>
		<path class="st1" d="M307.7,185l-15.4-20.3V185h-9.9v-36.4h9.3L307,169v-20.4h9.9V185H307.7z"/>
		<path class="st1" d="M348.6,176v9h-26.1v-36.4h10.8V176H348.6z"/>
		<path class="st1" d="M351.8,185v-36.4h10.8V185H351.8z"/>
		<path class="st1" d="M393.6,185l-15.4-20.3V185h-9.9v-36.4h9.3l15.4,20.4v-20.4h9.9V185H393.6z"/>
		<path class="st1" d="M419.2,156.9v5.7h17.2v8.3h-17.2v5.8h19.5v8.3h-30.3v-36.4h29.8v8.3H419.2z"/>
	</g>
</g>
</svg>
