<?xml version="1.0" encoding="utf-8"?>
<!-- Generator: Adobe Illustrator 19.1.0, SVG Export Plug-In . SVG Version: 6.00 Build 0)  -->
<svg version="1.1" id="圖層_1" xmlns="http://www.w3.org/2000/svg" xmlns:xlink="http://www.w3.org/1999/xlink" x="0px" y="0px"
	 viewBox="-674.5 351.7 103.4 103.3" enable-background="new -674.5 351.7 103.4 103.3" xml:space="preserve">
<g opacity="0.3">
	<g>
		<polygon fill="#FFFFFF" points="-631.1,443.6 -627.3,444.2 -627.4,444.8 -629,444.5 -629.7,448.7 -630.3,448.6 -629.6,444.4 
			-631.2,444.1 		"/>
		<path fill="#FFFFFF" d="M-627.3,446.6c0.1-0.8,0.7-1.1,1.5-1c0.3,0,1.3,0.2,1.2,1.1l-0.2,2l0.2,0.2h0.2v0.4h-0.3
			c-0.5,0-0.6-0.3-0.6-0.6c-0.2,0.2-0.6,0.5-1.3,0.5c-0.6-0.1-1.1-0.5-1-1.1c0-0.3,0.2-1,1.1-1h1l0.3-0.4c0-0.4-0.2-0.6-0.8-0.6
			c-0.7,0-0.8,0.4-0.9,0.6L-627.3,446.6z M-625.2,447.4c-0.1,0.1-0.2,0.1-1,0.1c-0.3,0-0.8,0.1-0.8,0.5c0,0.4,0.1,0.6,0.6,0.7
			c0.5,0,1.1-0.3,1.1-0.7L-625.2,447.4z"/>
		<path fill="#FFFFFF" d="M-623.2,449.3h-0.6l0.1-3.5h0.6L-623.2,449.3z M-623.7,445.1v-0.7h0.6v0.7H-623.7z"/>
		<path fill="#FFFFFF" d="M-622.6,445.8h0.6v0.5l0,0c0.1-0.2,0.4-0.6,1-0.6c0.9,0,1.5,0.7,1.5,1.7c0,0.8-0.3,2-1.5,2
			c-0.5,0-0.8-0.2-0.9-0.4l0,0v1.7h-0.6L-622.6,445.8z M-621,448.9c0.6,0,0.9-0.6,0.9-1.4c0-0.4-0.1-1.3-1-1.3
			c-0.8,0-0.9,0.9-0.9,1.5C-621.9,448.6-621.3,448.9-621,448.9"/>
		<path fill="#FFFFFF" d="M-615.8,447.8c0,0.2-0.1,0.7-0.5,1c-0.2,0.1-0.4,0.3-0.9,0.3c-1,0.1-1.6-0.6-1.7-1.6
			c-0.1-1.1,0.3-2,1.5-2.1c1-0.1,1.6,0.7,1.7,1.9l-2.5,0.3c0.1,0.7,0.5,1.1,1.1,1.1c0.5-0.1,0.8-0.5,0.8-0.8L-615.8,447.8z
			 M-616.5,446.9c-0.1-0.5-0.4-1-1.1-0.9c-0.5,0.1-0.9,0.6-0.9,1.1L-616.5,446.9z"/>
		<path fill="#FFFFFF" d="M-615.1,444.6l-0.1-0.7l-0.6,0.1l0.1,0.7L-615.1,444.6z M-615,445.2l-0.5,0.1l0.6,3.4l0.6-0.1L-615,445.2z
			"/>
	</g>
	<g>
		<path fill="#FFFFFF" d="M-622.9,455v-0.9v-0.9l0,0c27.5,0,49.8-22.3,49.9-49.8l0,0c0-27.5-22.3-49.8-49.9-49.9l0,0
			c-27.5,0-49.8,22.3-49.8,49.9c0,27.5,22.3,49.8,49.8,49.8v0.9V455c-28.5,0-51.6-23.1-51.6-51.6c0-0.1,0-0.1,0-0.1
			c0-28.5,23.1-51.6,51.7-51.6h0.1c28.5,0,51.6,23.2,51.6,51.7l0,0C-571.2,431.9-594.3,455-622.9,455L-622.9,455z"/>
		<path fill="#FFFFFF" d="M-622.9,441.6v-0.5v-0.4l0,0c20.7,0,37.4-16.7,37.4-37.3l0,0c0-20.6-16.7-37.3-37.3-37.3l0,0
			c-20.6,0-37.3,16.7-37.3,37.3c0,20.6,16.6,37.3,37.2,37.3v0.5V441.6c-21.1,0-38.2-17.1-38.2-38.2c0-0.1,0-0.1,0-0.1
			c0-21.1,17.1-38.2,38.2-38.2l0,0c21.1,0,38.2,17.1,38.2,38.2l0,0C-584.6,424.5-601.7,441.6-622.9,441.6L-622.9,441.6z
			 M-622.8,365.1L-622.8,365.1L-622.8,365.1z"/>
		<polygon fill="#FFFFFF" points="-652.4,441.6 -655.8,438.8 -655.1,438 -652.6,440.2 -651.5,438.9 -653.8,436.9 -653.2,436.2 
			-650.9,438.2 -649.6,436.7 -652.2,434.5 -651.5,433.7 -648.2,436.6 		"/>
		<path fill="#FFFFFF" d="M-655.6,436.4l-0.7-0.7l0.5-0.5l0,0c-0.6,0.1-1.2,0-1.6-0.4c-0.7-0.7-0.7-1.5,0.1-2.3l2.4-2.2l0.7,0.7
			l-2.2,2c-0.5,0.5-0.6,0.9-0.2,1.4c0.4,0.5,1.1,0.4,1.6-0.1l2.1-1.9l0.7,0.7L-655.6,436.4z"/>
		<path fill="#FFFFFF" d="M-658,426.2c1.2-0.8,2.2-0.6,3,0.5c0.5,0.7,0.8,1.8-0.1,2.5l-0.6-0.8c0.4-0.4,0.3-0.9,0-1.3
			c-0.5-0.6-1-0.7-1.7-0.2l-0.6,0.4l0,0c0.6-0.1,1.1,0.1,1.4,0.6c0.8,1.1,0.2,2.3-0.9,3.1c-1,0.7-2.4,0.8-3.1-0.3
			c-0.3-0.5-0.4-1-0.1-1.5l0,0l-0.5,0.4l-0.6-0.8L-658,426.2z M-659.3,428.3c-0.7,0.5-1.1,1.2-0.6,1.9s1.4,0.5,2,0
			c0.6-0.5,1.1-1.2,0.6-1.9C-657.7,427.6-658.6,427.8-659.3,428.3"/>
		
			<rect x="-662" y="423.1" transform="matrix(0.5055 0.8628 -0.8628 0.5055 40.7848 781.5688)" fill="#FFFFFF" width="1" height="6.6"/>
		<path fill="#FFFFFF" d="M-665.2,426.4l-0.5-0.9l0.9-0.5l0.5,0.9L-665.2,426.4z M-663.6,425.5l-0.4-0.8l4.2-2.2l0.5,0.9
			L-663.6,425.5z"/>
		<path fill="#FFFFFF" d="M-662,421.4c0.5-0.3,0.6-0.8,0.4-1.3c-0.1-0.3-0.5-0.9-1-0.7c-0.5,0.2-0.3,0.9-0.2,1.6
			c0.1,0.7,0.1,1.5-0.7,1.9c-1,0.4-1.7-0.4-2-1.2c-0.4-0.8-0.3-1.8,0.6-2.3l0.4,0.9c-0.4,0.3-0.4,0.7-0.2,1.1
			c0.1,0.3,0.4,0.7,0.8,0.6c0.5-0.2,0.3-0.9,0.1-1.6c-0.1-0.7-0.1-1.5,0.7-1.9c1-0.4,1.8,0.4,2.2,1.2c0.4,1,0.3,2-0.8,2.5
			L-662,421.4z"/>
		<path fill="#FFFFFF" d="M-668.3,419.2l-0.3-0.9l2.3-0.7l0,0c-0.5-0.1-0.9-0.5-1.1-1.1c-0.3-0.9,0.1-1.7,1.1-2l3.1-0.9l0.3,0.9
			l-2.9,0.8c-0.7,0.2-0.9,0.6-0.8,1.1c0.2,0.6,0.8,0.9,1.5,0.7l2.7-0.8l0.3,0.9L-668.3,419.2z"/>
		<polygon fill="#FFFFFF" points="-670.3,410.7 -670.5,409.6 -664.9,409 -665.2,405.9 -664.2,405.8 -663.8,410 		"/>
		<path fill="#FFFFFF" d="M-665.2,401.5c0.3,0,0.4,0,0.4-0.2c0-0.1,0-0.1,0-0.2h0.7c0.1,0.1,0.1,0.4,0.1,0.6c0,0.4-0.2,0.7-0.6,0.7
			c0.4,0.4,0.6,1,0.6,1.5c0,0.8-0.5,1.5-1.4,1.5c-1.2,0-1.4-0.9-1.5-1.7c-0.1-0.7,0-1.3-0.6-1.3c-0.5,0-0.7,0.5-0.7,0.9
			c0,0.5,0.2,0.9,0.7,1v1c-1.2-0.1-1.6-1.1-1.6-2s0.4-1.8,1.4-1.7L-665.2,401.5z M-666.6,402.5c0.2,0.3,0.2,0.8,0.3,1.2
			c0.1,0.4,0.2,0.8,0.8,0.8c0.5,0,0.6-0.5,0.6-0.9s-0.2-1.1-0.9-1.1H-666.6z"/>
		<path fill="#FFFFFF" d="M-668.9,399.8l0.1-0.9l0.7,0.1l0,0c-0.5-0.4-0.7-0.9-0.7-1.5c0.1-0.9,0.7-1.5,1.8-1.3l3.2,0.4l-0.1,1
			l-3-0.4c-0.7-0.1-1.1,0.2-1.2,0.7c-0.1,0.7,0.4,1.1,1.1,1.2l2.8,0.4l-0.1,1L-668.9,399.8z"/>
		<path fill="#FFFFFF" d="M-662.7,391.5c1.4,0.4,1.9,1.3,1.5,2.6c-0.2,0.9-0.8,1.7-1.9,1.5l0.2-0.9c0.6,0,0.8-0.4,0.9-0.8
			c0.2-0.8-0.1-1.2-0.9-1.4l-0.6-0.2l0,0c0.4,0.4,0.6,1,0.5,1.5c-0.3,1.4-1.6,1.6-2.9,1.3c-1.2-0.3-2.1-1.3-1.8-2.5
			c0.1-0.5,0.5-1,1.1-1.1l0,0l-0.6-0.2l0.2-1L-662.7,391.5z M-665.1,391.9c-0.8-0.2-1.6-0.1-1.8,0.8c-0.2,0.8,0.6,1.3,1.3,1.5
			c0.8,0.2,1.6,0,1.8-0.7C-663.5,392.6-664.3,392.1-665.1,391.9"/>
		<path fill="#FFFFFF" d="M-660.7,386.9l-0.3,0.9l-0.6-0.2l0,0c0.4,0.4,0.5,1,0.3,1.5c-0.4,1.1-1.2,1.3-2.4,0.9l-2.8-1.2l0.4-0.9
			l2.7,1.1c0.8,0.3,1.2,0.1,1.4-0.4c0.3-0.8-0.1-1.2-0.8-1.5l-2.6-1l0.4-0.9L-660.7,386.9z"/>
		<path fill="#FFFFFF" d="M-659.4,382.2c0.2,0.1,0.3,0.1,0.4,0c0-0.1,0.1-0.1,0.1-0.2l0.6,0.3c0,0.2-0.1,0.5-0.2,0.6
			c-0.2,0.4-0.5,0.5-0.9,0.4c0.2,0.5,0,1.2-0.2,1.6c-0.4,0.7-1.1,1.1-1.9,0.7c-1.1-0.6-0.8-1.4-0.5-2.2c0.2-0.7,0.6-1.2,0-1.5
			c-0.5-0.3-0.8,0.2-1,0.5c-0.3,0.5-0.2,0.9,0.2,1.2l-0.5,0.9c-1.1-0.6-0.9-1.7-0.5-2.5c0.4-0.8,1.2-1.4,2.1-0.9L-659.4,382.2z
			 M-661,382.4c0,0.4-0.2,0.8-0.3,1.2c-0.2,0.4-0.2,0.8,0.3,1.1c0.4,0.2,0.8-0.2,1-0.5c0.2-0.4,0.3-1.1-0.3-1.4L-661,382.4z"/>
		<path fill="#FFFFFF" d="M-655.8,378.2c1.2,0.8,1.3,1.9,0.5,3c-0.5,0.7-1.4,1.3-2.3,0.8l0.6-0.8c0.6,0.2,0.9-0.1,1.2-0.5
			c0.4-0.6,0.3-1.2-0.3-1.6l-0.7-0.4l0,0c0.3,0.5,0.2,1.1-0.1,1.6c-0.8,1.1-2.1,1-3.2,0.2c-1-0.7-1.5-2-0.8-3
			c0.3-0.5,0.8-0.7,1.4-0.6l0,0l-0.5-0.4l0.6-0.8L-655.8,378.2z M-658.1,377.7c-0.7-0.5-1.5-0.6-2,0.1c-0.5,0.7,0,1.5,0.7,1.9
			c0.6,0.4,1.5,0.6,2,0C-657,378.9-657.5,378.2-658.1,377.7"/>
		<path fill="#FFFFFF" d="M-656,375.6c0.6,0.5,1.3,0.7,1.8,0.1c0.4-0.4,0.4-0.9,0.1-1.3l0.6-0.7c0.6,0.9,0.5,1.9-0.1,2.6
			c-0.9,1-2.2,0.9-3.3-0.1c-1-0.9-1.3-2.3-0.4-3.3c0.9-1,2.5-0.8,3.5,0.3L-656,375.6z M-654.9,373.4c-0.5-0.4-1.2-0.5-1.7,0
			s-0.4,1.2,0.2,1.7L-654.9,373.4z"/>
		<polygon fill="#FFFFFF" points="-654,367.3 -653.1,366.6 -648.9,371.6 -649.7,372.3 		"/>
		<path fill="#FFFFFF" d="M-650.7,366.9l0.8-0.5l0.4,0.6l0,0c-0.1-0.6,0.2-1.1,0.7-1.5c0.8-0.5,1.6-0.4,2.2,0.4l1.9,2.7l-0.8,0.6
			l-1.7-2.5c-0.4-0.6-0.8-0.7-1.3-0.4c-0.5,0.4-0.6,1.1-0.2,1.6l1.6,2.3l-0.8,0.6L-650.7,366.9z"/>
		<path fill="#FFFFFF" d="M-643.9,366.4c0.3,0.5,0.8,0.5,1.3,0.3c0.3-0.2,0.9-0.5,0.6-1s-0.9-0.2-1.6,0c-0.7,0.2-1.5,0.3-1.9-0.6
			c-0.5-0.9,0.3-1.7,1-2.1c0.8-0.4,1.7-0.5,2.3,0.4l-0.9,0.5c-0.3-0.4-0.7-0.3-1.1-0.1c-0.2,0.1-0.7,0.4-0.5,0.8
			c0.2,0.5,0.9,0.2,1.6,0c0.7-0.2,1.5-0.3,1.9,0.6c0.5,1-0.2,1.9-1,2.3c-1,0.5-2,0.4-2.5-0.5L-643.9,366.4z"/>
		<path fill="#FFFFFF" d="M-642.1,361.8l0.6-0.3l-0.6-1.3l0.9-0.4l0.6,1.3l0.8-0.3l0.3,0.7l-0.8,0.3l1,2.3c0.2,0.4,0.3,0.6,0.7,0.4
			c0.1-0.1,0.3-0.1,0.4-0.2l0.3,0.7c-0.2,0.1-0.4,0.2-0.6,0.3c-0.9,0.4-1.3,0.1-1.6-0.6l-1.1-2.6l-0.7,0.3L-642.1,361.8z"/>
		<path fill="#FFFFFF" d="M-639.3,358.7l0.9-0.3l0.3,0.9l-0.9,0.4L-639.3,358.7z M-638.7,360.5l0.9-0.3l1.6,4.5l-0.9,0.3
			L-638.7,360.5z"/>
		<path fill="#FFFFFF" d="M-636.9,359.8l0.7-0.2l-0.4-1.4l0.9-0.3l0.4,1.4l0.9-0.2l0.2,0.8l-0.8,0.2l0.7,2.4
			c0.1,0.4,0.2,0.6,0.6,0.5c0.1,0,0.3-0.1,0.4-0.2l0.2,0.8c-0.2,0.1-0.4,0.2-0.6,0.2c-1,0.3-1.3-0.1-1.5-0.8l-0.8-2.7l-0.7,0.2
			L-636.9,359.8z"/>
		<path fill="#FFFFFF" d="M-628.6,362.8l-0.9,0.1l-0.1-0.7l0,0c-0.1,0.5-0.6,0.9-1.1,1c-1.1,0.2-1.7-0.3-2-1.5l-0.6-3l1-0.2l0.5,2.9
			c0.2,0.8,0.5,1.1,1,1c0.8-0.2,1-0.8,0.8-1.5l-0.5-2.7l1-0.2L-628.6,362.8z"/>
		<path fill="#FFFFFF" d="M-628.3,358l0.7-0.1l-0.1-1.4l1-0.1l0.1,1.4l0.9-0.1l0.1,0.8l-0.9,0.1l0.2,2.5c0,0.4,0.1,0.6,0.5,0.6
			c0.1,0,0.3,0,0.4-0.1l0.1,0.8c-0.2,0-0.4,0.1-0.6,0.1c-1,0.1-1.2-0.3-1.3-1.1l-0.3-2.7h-0.8V358z"/>
		<path fill="#FFFFFF" d="M-623.8,360.3c0,0.7,0.4,1.4,1.2,1.4c0.6,0,0.9-0.3,1.1-0.8h0.9c-0.2,1-1.1,1.6-2,1.6
			c-1.4,0-2.1-1.1-2.1-2.6c0-1.4,0.9-2.5,2.2-2.5c1.4,0,2.2,1.4,2,2.8L-623.8,360.3z M-621.5,359.6c0-0.7-0.4-1.3-1.1-1.3
			c-0.7,0-1.1,0.5-1.2,1.2L-621.5,359.6z"/>
		<path fill="#FFFFFF" d="M-617.2,360.3c0.3-1.4,1.3-2.3,2.6-2.1c1.4,0.2,2,1.4,1.7,2.9c-0.3,1.4-1.3,2.3-2.6,2.1
			S-617.4,361.8-617.2,360.3 M-613.7,361c0.1-0.8-0.1-1.7-0.9-1.9c-0.9-0.2-1.5,0.6-1.6,1.4c-0.1,0.8,0.1,1.7,0.9,1.9
			C-614.4,362.5-613.9,361.8-613.7,361"/>
		<path fill="#FFFFFF" d="M-611.5,359l0.7,0.2l0.1-0.4c0.3-1.2,1-1.2,1.6-1c0.3,0.1,0.5,0.2,0.6,0.2l-0.2,0.8
			c-0.1,0-0.2-0.1-0.4-0.1c-0.3-0.1-0.5,0-0.6,0.3l-0.1,0.5l0.7,0.2l-0.2,0.8l-0.8-0.2l-1.1,3.8l-0.9-0.3l1.1-3.8l-0.7-0.2
			L-611.5,359z"/>
		<polygon fill="#FFFFFF" points="-605.1,359.1 -600.6,361.2 -601,362.1 -602.8,361.3 -605.1,366.4 -606.1,365.9 -603.8,360.8 
			-605.6,360 		"/>
		<path fill="#FFFFFF" d="M-601.9,365.6c-0.4,0.7-0.4,1.4,0.3,1.8c0.5,0.3,0.9,0.2,1.3-0.1l0.8,0.5c-0.7,0.8-1.7,0.9-2.6,0.4
			c-1.2-0.7-1.4-2-0.6-3.3c0.7-1.2,2-1.8,3.1-1.1c1.2,0.7,1.3,2.3,0.4,3.5L-601.9,365.6z M-599.6,366.2c0.3-0.6,0.2-1.3-0.3-1.7
			c-0.6-0.3-1.3-0.1-1.7,0.5L-599.6,366.2z"/>
		<path fill="#FFFFFF" d="M-598,368.7c-0.3,0.5-0.1,1,0.3,1.3c0.3,0.2,0.9,0.5,1.2,0.1c0.3-0.5-0.2-0.9-0.7-1.5s-0.9-1.2-0.3-2
			c0.6-0.8,1.6-0.5,2.3,0s1.1,1.4,0.6,2.3l-0.9-0.6c0.2-0.5,0-0.8-0.3-1c-0.2-0.2-0.7-0.4-0.9-0.1c-0.3,0.4,0.2,0.9,0.7,1.5
			s0.9,1.2,0.3,2c-0.7,0.9-1.8,0.6-2.5,0.1c-0.9-0.7-1.2-1.6-0.6-2.5L-598,368.7z"/>
		<path fill="#FFFFFF" d="M-593.2,368.4l0.5,0.5l1-1.1l0.7,0.7l-0.9,1.1l0.7,0.6l-0.6,0.5l-0.7-0.6l-1.7,1.9
			c-0.3,0.3-0.4,0.5-0.1,0.8c0.1,0.1,0.2,0.2,0.3,0.2l-0.4,0.7c-0.2-0.1-0.3-0.2-0.5-0.4c-0.8-0.7-0.6-1.1-0.1-1.7l1.9-2.1l-0.5-0.5
			L-593.2,368.4z"/>
		<path fill="#FFFFFF" d="M-590.4,370.9l0.7,0.7l-3.4,3.4l-0.7-0.7L-590.4,370.9z M-589.1,369.6l0.7,0.7l-0.7,0.7l-0.7-0.7
			L-589.1,369.6z"/>
		<path fill="#FFFFFF" d="M-588.7,372.7l0.6,0.7l-0.5,0.4l0,0c0.6-0.1,1.2,0.1,1.5,0.5c0.6,0.7,0.6,1.6-0.2,2.2l-2.5,2.2l-0.7-0.7
			l2.3-1.9c0.6-0.5,0.6-0.9,0.3-1.4c-0.4-0.5-1.1-0.5-1.7,0l-2.1,1.8l-0.6-0.8L-588.7,372.7z"/>
		<path fill="#FFFFFF" d="M-586.7,382.9c-1.2,0.8-2.2,0.5-3-0.7c-0.5-0.7-0.7-1.8,0.2-2.5l0.5,0.8c-0.4,0.4-0.3,0.9,0,1.3
			c0.4,0.7,1,0.7,1.6,0.3l0.6-0.4l0,0c-0.6,0.1-1.1-0.2-1.4-0.7c-0.8-1.2-0.1-2.3,1-3c1.1-0.7,2.4-0.7,3.1,0.4
			c0.3,0.5,0.4,1,0.1,1.5l0,0l0.6-0.4l0.5,0.8L-586.7,382.9z M-585.4,380.8c0.7-0.4,1.1-1.1,0.7-1.9c-0.5-0.7-1.4-0.5-2-0.1
			c-0.7,0.4-1.1,1.2-0.7,1.8C-587,381.5-586.1,381.3-585.4,380.8"/>
		<path fill="#FFFFFF" d="M-582.9,389.1c-0.2,0.1-0.3,0.2-0.2,0.4c0,0.1,0.1,0.1,0.1,0.2l-0.7,0.3c-0.1-0.1-0.3-0.4-0.3-0.5
			c-0.2-0.4-0.1-0.7,0.2-0.9c-0.5-0.2-0.9-0.7-1.1-1.2c-0.3-0.7-0.2-1.6,0.7-1.9c1.1-0.5,1.6,0.3,2,1c0.4,0.6,0.6,1.2,1.1,1
			c0.5-0.2,0.4-0.7,0.2-1.1c-0.2-0.5-0.6-0.8-1.1-0.6l-0.3-1.1c1.2-0.4,1.9,0.3,2.2,1.2c0.3,0.8,0.3,1.8-0.6,2.2L-582.9,389.1z
			 M-582.1,387.7c-0.3-0.2-0.5-0.6-0.7-1s-0.5-0.6-1-0.4c-0.4,0.2-0.3,0.8-0.2,1.1c0.2,0.4,0.6,0.9,1.3,0.7L-582.1,387.7z"/>
		<path fill="#FFFFFF" d="M-578.9,389.2l0.3,0.9l-0.7,0.2l0,0c0.6,0.1,1,0.5,1.2,1.1c0.3,0.9-0.1,1.7-1.1,2l-3.3,0.9l-0.3-0.9
			l2.9-0.8c0.7-0.2,0.9-0.6,0.8-1.1c-0.2-0.6-0.8-0.9-1.5-0.7l-2.7,0.8l-0.2-1.1L-578.9,389.2z"/>
		<path fill="#FFFFFF" d="M-581.6,399.4l-0.1-0.9l0.6-0.1l0,0c-0.6-0.2-0.9-0.7-1-1.2c-0.2-1.4,0.8-2.2,2.2-2.4
			c1.7-0.3,2.6,0.6,2.8,1.5c0.1,0.5,0,1.2-0.5,1.6l0,0l2.4-0.4l0.2,1L-581.6,399.4z M-581.2,397.1c0.1,0.9,1,1.1,1.9,1
			c1-0.2,1.6-0.7,1.5-1.5c-0.1-0.9-1.1-1.1-1.9-1C-580.6,395.8-581.4,396.3-581.2,397.1"/>
		<polygon fill="#FFFFFF" points="-574.8,403.3 -574.9,407.7 -575.9,407.6 -575.8,404.3 -577.5,404.3 -577.6,407.3 -578.6,407.3 
			-578.5,404.2 -580.4,404.2 -580.5,407.6 -581.5,407.5 -581.4,403.1 		"/>
		<path fill="#FFFFFF" d="M-582.3,412.5l0.1-0.9l0.7,0.1l0,0c-0.5-0.3-0.6-0.9-0.5-1.5c0.2-1.4,1.4-1.9,2.8-1.6
			c1.7,0.3,2.3,1.3,2.1,2.3c-0.1,0.6-0.4,1.1-1,1.3l0,0l2.4,0.4l-0.2,1L-582.3,412.5z M-581.2,410.5c-0.1,0.9,0.7,1.4,1.5,1.5
			c1,0.2,1.7-0.2,1.9-0.9c0.1-0.9-0.7-1.4-1.5-1.5C-580.2,409.4-581.1,409.6-581.2,410.5"/>
		<path fill="#FFFFFF" d="M-583.6,417.3l0.3-0.9l0.6,0.2l0,0c-0.4-0.4-0.5-1-0.4-1.4c0.3-1.1,1.1-1.4,2.3-1.1l2.9,0.8l-0.3,0.9
			l-2.8-0.8c-0.8-0.2-1.2,0-1.3,0.5c-0.2,0.8,0.2,1.2,0.9,1.4l2.7,0.8l-0.3,0.9L-583.6,417.3z"/>
		<path fill="#FFFFFF" d="M-582.2,422.3c0.6,0.2,1-0.1,1.2-0.6s0.2-1.2-1.1-1.8c-0.7-0.3-1.6-0.3-2,0.4c-0.2,0.5,0,1,0.6,1.4l-0.4,1
			c-1.1-0.7-1.4-1.6-1-2.6c0.5-1.3,1.8-1.6,3.1-1s2.1,1.7,1.5,3c-0.4,0.9-1.2,1.5-2.4,1.2L-582.2,422.3z"/>
		<path fill="#FFFFFF" d="M-586.9,426.5c-0.2-0.1-0.3-0.1-0.4,0c0,0-0.1,0.1-0.1,0.2l-0.6-0.4c0-0.2,0.1-0.5,0.2-0.6
			c0.2-0.3,0.5-0.5,0.9-0.4c-0.2-0.5,0-1.2,0.3-1.6c0.4-0.7,1.2-1.1,2-0.6c1,0.6,0.8,1.5,0.4,2.2c-0.2,0.7-0.6,1.2-0.1,1.5
			c0.5,0.3,0.8-0.1,1-0.5c0.3-0.5,0.3-0.9-0.2-1.2l0.5-0.8c1,0.7,0.9,1.7,0.4,2.5c-0.4,0.8-1.2,1.4-2.1,0.9L-586.9,426.5z
			 M-585.2,426.3c0-0.4,0.2-0.8,0.3-1.2c0.1-0.4,0.2-0.8-0.3-1.1c-0.4-0.2-0.8,0.2-1,0.5c-0.2,0.4-0.3,1.1,0.2,1.4L-585.2,426.3z"/>
		<path fill="#FFFFFF" d="M-584.3,429.2l-0.4,0.6l1.2,0.9l-0.6,0.8l-1.2-0.8l-0.5,0.7l-0.6-0.5l0.5-0.7l-2.1-1.5
			c-0.4-0.2-0.6-0.3-0.8,0c-0.1,0.1-0.2,0.2-0.2,0.4l-0.7-0.5c0.1-0.2,0.2-0.4,0.3-0.6c0.6-0.8,1-0.7,1.7-0.3l2.3,1.6l0.4-0.6
			L-584.3,429.2z"/>
		<path fill="#FFFFFF" d="M-586.4,432.2l-0.6,0.8l-3.7-3l0.6-0.8L-586.4,432.2z M-585,433.3l-0.6,0.8l-0.8-0.6l0.6-0.8L-585,433.3z"
			/>
		<path fill="#FFFFFF" d="M-589.5,432.3c1.1,1,1.3,2.3,0.3,3.4c-1,1-2.3,0.9-3.4-0.1c-1.1-1-1.3-2.3-0.3-3.4
			C-591.9,431.2-590.6,431.3-589.5,432.3 M-591.9,434.9c0.6,0.6,1.5,0.9,2.1,0.2c0.6-0.6,0.2-1.5-0.4-2.1c-0.6-0.6-1.5-0.9-2.1-0.3
			C-592.9,433.4-592.5,434.3-591.9,434.9"/>
		<path fill="#FFFFFF" d="M-591.9,438.2l-0.7,0.6l-0.4-0.5l0,0c0.1,0.6-0.1,1.2-0.5,1.5c-0.7,0.6-1.6,0.6-2.2-0.2l-2.1-2.5l0.8-0.6
			l1.9,2.3c0.5,0.6,0.9,0.6,1.4,0.3c0.5-0.4,0.5-1.1,0-1.6l-1.8-2.2l0.7-0.6L-591.9,438.2z"/>
		<path fill="#FFFFFF" d="M-591.1,406.3c-1,0-2.4,1.1-4.1,3.4c-1.7,2.2-3.3,5.1-4.9,8.7c2.8-1.1,5.1-2.7,7.1-4.8
			c1.9-2.1,2.9-4,2.9-5.8C-590.1,406.9-590.4,406.3-591.1,406.3 M-600.3,419c-1.3,3.2-2,5.8-2,7.9c0,1.8,0.4,2.9,1.3,3.5
			c5.6-4.5,9.7-10.8,11.7-17.9c-0.4,0.8-1,1.6-1.8,2.2C-593,416.3-596.1,417.7-600.3,419 M-647.3,396.8c2.3-1.2,5-2.1,8-2.7
			c-2.1-1.4-3.2-3.7-3.2-6.8c0-4,1.6-7.3,4.7-10c-2.1-0.8-4-1.4-5.8-1.8c-8.5,6.3-14.1,16.4-14.1,27.9c0,1.3,0.1,2.5,0.2,3.8
			c0.3-0.5,0.5-1.1,0.8-1.6C-654.2,401.6-651.1,398.7-647.3,396.8 M-618.8,379.3c0-1.2-0.8-2.2-2.4-3.2c-1.6-0.9-3.4-1.4-5.5-1.4
			c-2.8,0-5.4,1-7.8,2.9c5.1,2.6,9.4,3.9,12.9,3.9C-619.7,381.6-618.8,380.8-618.8,379.3 M-622.8,368.6c-7.4,0-14.2,2.3-19.8,6.2
			c1.8,0.5,3.6,1.1,5.6,1.9c2.7-2,5.8-3,9.3-3c2.6,0,4.9,0.5,6.7,1.7c1.8,1.1,2.8,2.5,2.8,4c0,2-1.2,3.1-3.6,3.1
			c-1.9,0-6.3-1.4-13.4-4.1c-3.3,2.9-4.9,6.7-4.9,11.1c0,2.2,0.5,3.7,1.4,4.5c1.4-0.3,2.5-0.3,3.2-0.3c2,0,3,0.4,3,1.1
			c0,0.5-0.5,0.7-1.6,0.7c-1.3,0-2.8-0.3-4.4-0.9c-2.2,0.5-4.6,1.8-7.5,3.9c-5.4,4-8.7,8.9-10.1,14.8c1,3.2,2.4,6.3,4.2,9
			c0.4-5.3,2.3-10.1,5.8-14.6c3.9-5,8.1-7.6,12.8-7.6c2.1,0,3.8,0.8,5.1,2.5c1.2,1.7,1.9,3.9,1.9,6.6c0,5.9-2.1,11.3-6.2,16
			c-3,3.5-6.4,5.7-10,6.6c5.6,3.9,12.4,6.2,19.8,6.2c8,0,15.3-2.7,21.2-7.2c-0.5-0.4-1-0.9-1.4-1.6c-0.8-1.3-1.2-2.8-1.3-4.6
			c-2.5,4.6-4.4,7-5.8,7c-0.9,0-1.7-0.5-2.3-1.5c-0.6-1-0.9-2.3-0.9-3.8c-2.1,3.6-3.7,5.4-5,5.4c-0.9,0-1.7-0.5-2.3-1.5
			c-0.6-1-0.9-2.2-0.9-3.7c-2,3.5-3.6,5.3-4.7,5.3c-0.8,0-1.5-0.5-2-1.5s-0.8-2.2-0.8-3.8c0-1.7,0.3-3.3,0.8-4.9s2.2-6.1,5.1-13.6
			c3.5-9.2,6.5-17.1,8.9-23.8c0.6,0.2,1.1,0.4,1.5,0.4c0.7,0,1.4-0.2,2-0.6c-8.5,21.1-13.3,33.7-14.6,37.4c-1.3,3.7-2,6.2-2,7.4
			c0,1.4,0.4,2.1,1.1,2.1c1,0,2.5-1.9,4.6-5.5c0.2-1.7,0.8-4.1,1.9-7.2l4.5-12.1c0.6,0.2,1.1,0.3,1.4,0.3c0.5,0,1.3-0.1,2.2-0.3
			l-6.6,17c-0.9,2.5-1.4,4.4-1.4,5.7c0,1.4,0.5,2.1,1.4,2.1c1.1,0,2.7-1.9,4.7-5.6c0.1-1.7,0.6-3.6,1.5-6l4.9-12.9h-3l0.3-0.7h2.9
			l3.4-8.9c0.6,0.2,1.1,0.4,1.6,0.4c0.6,0,1.1-0.1,1.7-0.4l-3.3,8.9h3.8l-0.2,0.7h-3.8l-6.5,17.4c-0.8,2.1-1.2,3.8-1.2,5
			c0,1.4,0.4,2.1,1.4,2.1c1.2,0,3-2.4,5.4-7c0-0.1,0-0.2,0-0.4c0-5.5,2.4-10.3,7.3-14.5c2.6-2.2,4.6-3.3,6.2-3.3
			c0.7,0,1.3,0.3,1.8,1c0.4,0.5,0.6,1.1,0.7,1.9c0.3-1.7,0.4-3.4,0.4-5.2C-588.1,384.2-603.6,368.6-622.8,368.6 M-609.8,400.3
			c-0.6,0.9-1.2,1.4-1.9,1.4c-0.9,0-1.3-0.7-1.3-2.1c0-1,0.3-2,0.9-2.9c0.6-0.9,1.2-1.4,1.9-1.4c0.8,0,1.3,0.7,1.3,2
			C-609,398.4-609.3,399.4-609.8,400.3 M-633.5,424.1c4.4-5,6.5-10.1,6.5-15.3c0-2.2-0.5-4-1.6-5.4c-1.1-1.4-2.5-2.2-4.2-2.2
			c-4.2,0-8.2,2.7-12.2,8.1c-3.5,4.8-5.4,9.6-5.9,14.5c2,2.8,4.5,5.2,7.2,7.3C-640.3,430.2-636.9,427.9-633.5,424.1"/>
	</g>
</g>
</svg>
