<?xml version="1.0" encoding="utf-8"?>
<!-- Generator: Adobe Illustrator 22.0.0, SVG Export Plug-In . SVG Version: 6.00 Build 0)  -->
<svg version="1.1" id="圖層_1" xmlns="http://www.w3.org/2000/svg" xmlns:xlink="http://www.w3.org/1999/xlink" x="0px" y="0px"
	 viewBox="0 0 577 249.4" style="enable-background:new 0 0 577 249.4;" xml:space="preserve">
<style type="text/css">
	.st0{fill:#EA5514;}
	.st1{fill:#FFFFFF;}
	.st2{fill:#040000;}
</style>
<g>
	<g>
		<path d="M239.5,81.4c0-6.3,0-6.8-0.1-8c-0.1-1.4-0.4-2.1-1.5-2.3c-0.4-0.1-0.9-0.1-1.3-0.2c-0.4,0-0.8-0.1-0.8-0.4
			c0-0.3,0.3-0.4,0.9-0.4c2.3,0,4.2,0.1,5.9,0.1c0.9,0,10.8,0,11.4,0c0.8,0,1.5-0.1,2-0.2c0.3-0.1,0.5-0.1,0.7-0.1
			c0.2,0,0.3,0.2,0.2,0.4c0,0.3-0.2,1-0.3,2c-0.1,0.9-0.2,2.2-0.3,3.7c0,0.5-0.2,0.7-0.4,0.7c-0.3,0-0.4-0.2-0.4-0.6
			c0-0.5,0-0.7-0.2-1.2c-0.2-0.9-0.8-1.5-2.6-1.6c-1.4-0.1-5-0.2-6.3-0.2c-0.2,0-0.3,0.1-0.3,0.4v8.8c0,0.3,0,0.5,0.3,0.5
			c1.1,0,3.8,0,5.4,0c2.1-0.1,2.6-0.1,3.2-0.9c0.2-0.4,0.3-0.5,0.5-0.5c0.2,0,0.3,0.3,0.3,0.5c0,0.4-0.2,1.8-0.3,3.1
			c0,0.9-0.1,2.8-0.1,3.3c0,0.4,0,0.8-0.3,0.8c-0.2,0-0.4-0.2-0.4-0.7c0-0.3-0.1-0.5-0.1-0.9c-0.2-1.1-0.7-1.7-2.6-1.9
			c-1.1-0.1-4.5-0.1-5.6-0.1c-0.2,0-0.2,0.2-0.2,0.5v2.7c0,3.7,0,6.2,0.2,7.8c0.1,1.1,0.3,1.9,1.8,2.1c0.5,0.1,0.9,0.1,1.3,0.2
			c0.6,0,0.9,0.1,0.9,0.4c0,0.2-0.1,0.4-0.9,0.4c-2.2,0-2.5-0.1-6.6-0.1c-2.8,0-5.1,0.1-6,0.1c-0.6,0-0.8-0.2-0.8-0.4
			s0.1-0.4,0.7-0.4c0.4,0,0.6-0.1,1-0.2c1-0.2,1.2-1.2,1.4-2.8c0.2-2.1,0.2-3.8,0.2-7.6L239.5,81.4L239.5,81.4z"/>
		<path d="M274.1,87.2c0,5.4,0.8,7.6,3,9.1c1.6,1.1,2.9,1.1,3.9,1.1c1.2,0,2.9-0.3,4.3-1.4c2.2-1.9,2.2-5.9,2.2-10v-4.7
			c0-5.7,0-6.7-0.1-8c-0.1-1.5-0.4-2.1-1.7-2.4c-0.4-0.1-0.7-0.1-1.4-0.2c-0.5,0-0.7-0.2-0.7-0.4c0-0.2,0.2-0.4,0.9-0.4
			c2.2,0,4.6,0.1,5.2,0.1c0.7,0,3.2-0.1,5.1-0.1c0.6,0,0.8,0.1,0.8,0.4c0,0.2-0.2,0.4-0.7,0.4c-0.4,0-0.7,0-1.2,0.2
			c-1.1,0.2-1.4,0.8-1.5,2.4c-0.1,1.2-0.1,2.3-0.1,8v3.8c0,4.4-0.2,9.2-4,12.3c-2.4,2-5.4,2.6-8.1,2.6c-3.4,0-6.8-0.5-9.3-2.6
			c-2.1-1.7-3.6-4.6-3.6-10.1v-5.9c0-6,0-7.1-0.1-8.4c-0.1-1.1-0.3-1.6-1.2-1.9c-0.4-0.2-1.3-0.2-1.7-0.3c-0.6,0-0.8-0.2-0.8-0.4
			c0-0.2,0.3-0.4,1-0.4c1.7,0,5.6,0.1,5.9,0.1s4.9-0.1,6.3-0.1c0.7,0,0.9,0.1,0.9,0.4c0,0.3-0.2,0.4-0.7,0.4c-0.4,0-0.9,0.1-1.3,0.2
			c-1.1,0.2-1.3,1.1-1.4,2.3c-0.1,1.2-0.1,3.1-0.1,8v5.9H274.1z"/>
		<path d="M312.6,88.2c0,3.9-0.1,6.7,0.5,7.5c0.5,0.7,1.3,0.9,4.5,0.9c2.1,0,3.4,0,4.5-0.6c0.9-0.4,1.6-1.4,2-3.3
			c0.1-0.4,0.2-0.7,0.5-0.7s0.3,0.2,0.3,0.7c0,0.9-0.4,4.6-0.8,5.7c-0.3,1-0.6,1.1-2.2,1.1c-5.4,0-9-0.2-13.1-0.2
			c-1.8,0-3.9,0.1-6.1,0.1c-0.5,0-0.9-0.1-0.9-0.4c0-0.2,0.2-0.4,0.8-0.4c0.5,0,0.9-0.1,1.3-0.2c1.4-0.2,1.4-0.9,1.6-4
			c0.1-1.6,0.1-3.9,0.1-6.3v-6.8c0-6.3,0-7-0.1-8.3c-0.1-1.1-0.3-1.7-1.3-2c-0.4-0.1-0.9-0.2-1.5-0.2c-0.4,0-0.8-0.1-0.8-0.4
			c0-0.3,0.4-0.4,1.2-0.4c2.2,0,4.2,0.1,5.8,0.1c0.4,0,5.2-0.1,6.6-0.1c0.7,0,0.9,0.1,0.9,0.4c0,0.4-0.4,0.4-0.9,0.4
			c-0.4,0-0.8,0-1.3,0.2c-1.1,0.2-1.3,0.9-1.4,2.3c-0.1,1.2-0.1,2-0.1,8.4v6.5H312.6z"/>
		<path d="M335,81.4c0-6,0-7.2-0.1-8.4c-0.1-1.1-0.5-1.8-1.4-1.9c-0.3-0.1-0.7-0.1-1.2-0.2c-0.5,0-0.7-0.2-0.7-0.4
			c0-0.2,0.2-0.4,0.9-0.4c1.6,0,5.4,0.1,5.7,0.1c0.4,0,4.9-0.1,6.3-0.1c0.7,0,0.9,0.2,0.9,0.4c0,0.3-0.4,0.4-0.7,0.4
			c-0.4,0-0.6,0-1.1,0.1c-1,0.2-1.4,0.7-1.5,2.1c-0.1,1.2-0.1,2.3-0.1,8.3v6.8c0,3.1,0,6.7,0.2,8.3c0.1,1,0.3,1.7,1.5,2
			c0.5,0.1,1.2,0.2,1.7,0.2c0.7,0,0.8,0.2,0.8,0.4c0,0.2-0.2,0.4-0.8,0.4c-2.6,0-6.8-0.1-7.2-0.1c-0.2,0-4.3,0.1-5.6,0.1
			c-0.6,0-0.9-0.1-0.9-0.4c0-0.3,0.3-0.4,0.8-0.4c0.4,0,0.8-0.1,1.2-0.2c0.8-0.1,1.1-1,1.2-2.1c0.2-1.6,0.2-4.4,0.2-8.2L335,81.4
			L335,81.4z"/>
		<path d="M387.4,81.4c0-6.3,0-6.8-0.1-8c-0.1-1.4-0.4-2.1-1.5-2.3c-0.4-0.1-0.9-0.1-1.3-0.2c-0.4,0-0.8-0.1-0.8-0.4
			c0-0.3,0.3-0.4,0.9-0.4c2.3,0,4.2,0.1,5.9,0.1c0.9,0,10.8,0,11.4,0c0.8,0,1.5-0.1,2-0.2c0.3-0.1,0.5-0.1,0.7-0.1
			c0.2,0,0.3,0.2,0.2,0.4c0,0.3-0.2,1-0.3,2c-0.1,0.9-0.2,2.2-0.3,3.7c0,0.5-0.2,0.7-0.4,0.7c-0.3,0-0.4-0.2-0.4-0.6
			c0-0.5,0-0.7-0.2-1.2c-0.2-0.9-0.8-1.5-2.6-1.6c-1.4-0.1-5-0.2-6.3-0.2c-0.2,0-0.3,0.1-0.3,0.4v8.8c0,0.3,0,0.5,0.3,0.5
			c1.1,0,3.8,0,5.4,0c2.1-0.1,2.6-0.1,3.2-0.9c0.2-0.4,0.3-0.5,0.5-0.5s0.3,0.3,0.3,0.5c0,0.4-0.2,1.8-0.3,3.1
			c0,0.9-0.1,2.8-0.1,3.3c0,0.4,0,0.8-0.4,0.8c-0.2,0-0.4-0.2-0.4-0.7c0-0.3-0.1-0.5-0.1-0.9c-0.2-1.1-0.7-1.7-2.6-1.9
			c-1.1-0.1-4.5-0.1-5.6-0.1c-0.2,0-0.2,0.2-0.2,0.5v2.7c0,3.7,0,6.2,0.2,7.8c0.1,1.1,0.3,1.9,1.8,2.1c0.5,0.1,0.9,0.1,1.3,0.2
			c0.6,0,0.9,0.1,0.9,0.4c0,0.2-0.1,0.4-0.9,0.4c-2.2,0-2.5-0.1-6.6-0.1c-2.8,0-5.1,0.1-6,0.1c-0.6,0-0.8-0.2-0.8-0.4
			s0.1-0.4,0.7-0.4c0.4,0,0.6-0.1,1-0.2c1.1-0.2,1.2-1.2,1.4-2.8c0.2-2.1,0.2-3.8,0.2-7.6v-6.8H387.4z"/>
		<path d="M413.1,84.9c0-7.8,5.2-15.4,16.6-15.4c9.9,0,16.1,6.6,16.1,14.5c0,9.1-6.1,16-16.3,16C418,100,413.1,91.8,413.1,84.9z
			 M438,85.8c0-6.5-2.7-13.8-9.6-13.8c-3.6,0-7.6,2-7.6,11.2c0,7.3,3.1,14.4,9.8,14.4C433.1,97.5,438,96.5,438,85.8z"/>
		<path d="M457.3,81.4c0-6-0.1-6.8-0.1-8c-0.1-1.6-0.5-2.1-1.5-2.3c-0.6-0.1-1.2-0.1-1.6-0.2c-0.5,0-0.7-0.2-0.7-0.4
			c0-0.2,0.3-0.4,0.9-0.4c1.7,0,5.4,0.1,5.9,0.1c0.7,0,4.5-0.1,6.3-0.1c3.7,0,6.2,0.4,7.9,1.3c1.9,1,3.5,3,3.5,5.9
			c0,3.3-1.9,5.8-5.2,7.8c2.4,3.4,5.2,7.6,7.6,10.3c2.1,2.3,3,3,4.1,3.1c0.4,0.1,0.7,0.1,1,0.1c0.4,0,0.7,0.2,0.7,0.4
			c0,0.4-0.4,0.4-0.8,0.4h-3.5c-4,0-5.7-0.4-7.1-1.3c-1.2-0.7-2.5-2.4-4-4.9c-1.8-3-2.7-4.5-3.4-5.6c-0.1-0.1-0.3-0.2-0.5-0.2h-2.6
			c-0.2,0-0.3,0.1-0.3,0.3v2c0,3.1,0,4.9,0.2,6.5c0.1,1,0.4,1.9,1.5,2.1c0.5,0.2,1,0.2,1.7,0.2c0.6,0,0.7,0.2,0.7,0.4
			s-0.3,0.4-0.8,0.4c-2.6,0-6.8-0.1-7.1-0.1c-0.5,0-4.2,0.1-5.6,0.1c-0.6,0-0.8-0.1-0.8-0.4c0-0.3,0.3-0.4,0.7-0.4
			c0.4,0,0.9-0.1,1.3-0.2c0.8-0.2,1.1-0.9,1.2-2.2c0.2-1.6,0.2-4.4,0.2-8.1v-6.6H457.3z M464,84c0,0.3,0.1,0.5,0.4,0.6
			c0.7,0.4,1.9,0.5,3,0.5c1,0,1.8-0.2,2.4-0.6c0.8-0.6,1.5-2.3,1.5-4.9c0-5.5-3.5-7-5.5-7c-0.6,0-1.3,0-1.6,0.2
			c-0.2,0.1-0.2,0.1-0.2,0.4L464,84L464,84z"/>
		<path d="M497.7,87.2c0,5.4,0.8,7.6,3,9.1c1.6,1.1,2.9,1.1,3.9,1.1c1.2,0,2.9-0.3,4.3-1.4c2.2-1.9,2.2-5.9,2.2-10v-4.7
			c0-5.7,0-6.7-0.1-8c-0.1-1.5-0.4-2.1-1.7-2.4c-0.4-0.1-0.7-0.1-1.4-0.2c-0.5,0-0.7-0.2-0.7-0.4c0-0.2,0.2-0.4,0.9-0.4
			c2.2,0,4.6,0.1,5.2,0.1c0.7,0,3.2-0.1,5.1-0.1c0.6,0,0.8,0.1,0.8,0.4c0,0.2-0.2,0.4-0.7,0.4c-0.4,0-0.7,0-1.2,0.2
			c-1,0.2-1.4,0.8-1.5,2.4c-0.1,1.2-0.1,2.3-0.1,8v3.8c0,4.4-0.2,9.2-4,12.3c-2.4,2-5.4,2.6-8.1,2.6c-3.4,0-6.8-0.5-9.3-2.6
			c-2.1-1.7-3.6-4.6-3.6-10.1v-5.9c0-6,0-7.1-0.1-8.4c-0.1-1.1-0.3-1.6-1.2-1.9c-0.4-0.2-1.3-0.2-1.7-0.3c-0.6,0-0.8-0.2-0.8-0.4
			c0-0.2,0.3-0.4,1.1-0.4c1.7,0,5.6,0.1,5.9,0.1s4.9-0.1,6.3-0.1c0.7,0,0.9,0.1,0.9,0.4c0,0.3-0.2,0.4-0.7,0.4
			c-0.4,0-0.9,0.1-1.3,0.2c-1.1,0.2-1.3,1.1-1.4,2.3s-0.1,3.1-0.1,8v5.9H497.7z"/>
		<path d="M560.2,94.5c0.3,2.5,0.7,3.5,2,3.9c0.8,0.2,1.7,0.3,2.2,0.4c0.5,0,0.7,0.1,0.7,0.4c0,0.3-0.3,0.4-0.9,0.4
			c-3.2,0-6.4,0-10.8-0.2c-0.7,0-0.9-0.3-0.9-0.5c0-0.2,0.2-0.3,0.4-0.4c0.6-0.2,0.7-0.5,0.5-2.2L552,82.4l-8,15
			c-1,2-1.3,2.2-1.6,2.2c-0.4,0-0.7-0.4-1.7-2.1c-1.4-2.2-3.7-6.6-5.2-9.1c-0.7-1.1-2.4-4.3-3.1-5.6l-1.1,11
			c-0.2,1.7-0.2,2.5-0.2,3.1c0,1.1,0.4,1.6,1.4,1.8c0.6,0.1,0.9,0.2,1.4,0.2c0.6,0,0.7,0.1,0.7,0.4c0,0.3-0.2,0.4-0.8,0.4
			c-1.7,0-3.8-0.1-5-0.1c-1.2,0-3,0.1-4.5,0.1c-0.4,0-0.9,0-0.9-0.4c0-0.2,0.2-0.4,0.8-0.4c0.3,0,0.7,0,1.2-0.1
			c1.1-0.2,1.5-1.1,1.9-3.7l3.5-23.9c0.2-1.2,0.4-1.5,0.8-1.5c0.4,0,0.7,0.4,1.5,1.6l11.1,18.6l10.7-18.8c0.6-1,0.9-1.4,1.3-1.4
			s0.6,0.5,0.7,1.5L560.2,94.5z"/>
	</g>
	<path d="M441.9,138.2c0.3-3.5,0.7-7.1,1-10.6c0.1-1,0.6-1.1,1.3-0.9c0.8,0.2,1.7,0.4,2.4,0.9c2.4,1.5,4.7,3.1,7,4.7
		c1.3,0.9,1.5,2.8,0.5,4c-0.7,0.8-1.5,1.5-2.2,2.2c-1.5,1.4-2,3.1-1.9,5.1c0,1.3,1,0.8,1.4,1.3c0.7,1,1.1,0.1,1.4-0.3
		c0.7-0.9,1.5-1.6,2.1-2.6c0.8-1.4,2.6-2.3,4-3.4c0.1-0.1,0.7,0.2,0.8,0.4c0.7,1.1,1.5,2.3,1.9,3.5c0.4,1.1,0.5,2.1,1.4,3
		c0.8,0.8,0.7,2.1-0.1,3.1c-0.7,0.9-1.5,0.8-2.4,0.6c-0.2,0-6.2,0.3-6.3,0.4c-0.2,0.1-0.4,0.5-0.6,0.5c-1.1,0.2-2.5-0.5-3.1,0.9
		c-0.4,1-0.3,2.2-0.4,3.3c-0.2,1.7-0.5,3.4-0.7,5.2c0,0.2,0.3,0.7,0.6,0.8c0.3,0.1,0.9-0.2,0.9-0.4c0.3-1.9,2.6-2.4,2.9-4.3
		c0-0.2,0.7-0.2,1-0.3c1.6-0.8,1.8-0.7,2.7,1c0.6,1.2,1.4,2.2,1.4,3.8c0,0.7,1.1,1.4,1.3,2.1c0.2,0.7,0.8,1.7-0.7,2.1
		c-0.9,0.3-1.7,0.8-2.8,0.8c-1.7-0.1-3.4-0.1-5.1,0c-1.5,0-2.1,0.7-2.2,2c-0.1,2.1,0.1,4.3-0.8,6.3c-0.2,0.5-0.2,1.3,0,1.9
		c0.2,0.6,0.7,1.3,1.2,1.4c1.5,0.2,3.3,0.5,4.6-0.1c1-0.4,2.4-0.8,2.9-2.5c0.5-1.5,2.4-2.7,3.7-3.9c0.8-0.8,2-0.7,2.6,0.2
		c1.1,1.7,2,3.6,2.9,5.5c0.5,1-0.5,2.3-1.7,2.4c-3.4,0.3-6.8,0.5-10.2,0.8c-1.2,0.1-2.5,0.3-3.7,0.4c-0.9,0.1-2-1.3-2.8,0.3
		c-0.1,0.1-1.4-0.6-1.8-0.3c-0.9,0.7-1-0.4-1.5-0.4c-1.3-0.1-1.7,0.1-1.7,1.3c0.1,2.9-0.2,5.8,0.7,8.7c0.8,2.6,2.4,3.4,4.4,1.7
		c0.5-0.4,1.1-1.7,1.1-1.8c-1-0.7-0.4-1.2,0.2-1.7c0.7-0.6,1,0,1.6,0.2c1.8,0.7,3.6,1.4,5.5,1.8c2.9,0.7,3.8,1.5,2.8,4
		c-0.9,2.2-0.6,4.3-0.6,6.4c-0.1,3.9,0,7.8,0,11.7c0,0.7-0.2,1.4,0,1.9c0.2,0.7,0.7,1.5,1.2,1.7c0.6,0.2,1.6-0.1,2-0.5
		c1.6-1.6,2.9-3.5,4.5-5.1c0.8-0.8,1.8-1.9,2.7-1.9c1.2,0.1,1.2,1.6,1.5,2.7c0.2,0.9,1.1,1.6,1.6,2.5c0.5,0.8,1,1.7,1.3,2.6
		c0.2,0.7,0.3,1.5-1,1.5c-4.2,0.2-8.4,0.5-12.6,0.7c-0.7,0-1.2,0-1.2,1c-0.1,3.7-1.2,7.3-0.8,11c0.1,1.1-0.2,2.2,0.6,3.3
		c0.7,0.9-0.5,3.3-1.7,4.2c-0.9,0.7-1.9,1.2-2.7,2c-2.2,2-4.7,1.8-6.4-0.8c-1.5-2.3-2.4-4.9-4.5-6.8c-0.2-0.2-0.1-1,0.2-1.3
		c0.4-0.4,1-0.7,1.6-0.8c1.1-0.2,2.3-0.2,3.4-0.3c0.3-1.7,0.6-3.4,0.9-5.1c0.2-1.6-0.5-3.3,0.5-4.9c0.1-0.1-0.2-0.6-0.3-0.6
		c-2.2,0.3-4.6-0.8-6.8,0.6c-0.5,0.3-1.3,0.1-1.9,0.1c-2.1,0.2-4.3-0.6-6.4,0.7c-0.2,0.1-0.8-0.5-1.2-0.7c-0.5,1-1.7,0.5-2.3,0.9
		c-0.4,0.3-0.4,1.4-0.4,2.1c0,2.5-0.1,4.9,0,7.4c0,1.1-0.6,1.9-1.4,2c-2.9,0.3-4.9,2.6-7.7,3.3c-0.6,0.1-1.1,0.6-1.7,0.7
		c-1.6,0.2-2.5-0.7-1.7-1.9c1.4-2.2,1.4-4.4,1.6-6.8c0.1-1.7,0.9-3.3,0.8-5.2c-0.2-1.8-0.1-1.8-2-1.7c-0.6,0-1.2,0.2-1.8,0.3
		c-1,0.2-2,0.5-2.9,0.4c-1.1,0-1.7-0.7-1.9-1.9c-0.2-1.2,0.7-1.1,1.4-1.3c0.7-0.2,1.4-0.5,2.1-0.6c1.4-0.1,2.9,0,4.3-0.1
		c0.3,0,0.8-0.6,0.8-0.9c0.1-1.7,0-3.4,0.1-5.1c0.1-1.2-0.6-2.6,0.6-3.7c0.1-0.1,0.2-0.5,0.1-0.7c-1.7-3.6-0.3-7.4-0.8-11
		c-0.2-1.3,0.4-2.7-0.7-4c-0.6-0.8,1-2.3,2-1.7c1.7,1,3.7,0.9,5.4,2.1c2.4,1.7,5,0.6,7.5,0c0.2-0.1,0.6-0.5,0.6-0.8
		c0-3.1,0.1-6.3,0-9.4c0-0.8-0.4-1.9-2-0.9c-0.9,0.6-2.5,0-3.8,0.1c-1.3,0.1-2.6,0.1-4,0.6c-2,0.7-4.5,0.4-6.3-1.5
		c-0.2-0.2-0.2-0.7-0.2-1c0-0.1,0.4-0.4,0.6-0.4c1.7,0,3.4,0,5.1,0c1.4,0,2-0.7,2.1-2.1c0.1-1.4,0-2.9,0-4.3c0-1.4,0.5-3.3-0.3-4.1
		c-0.7-0.7-2.6-0.4-4-0.4c-0.8,0-1.2-0.1-1.2-1c0-0.9,0.1-1.6,1.2-1.3c1.5,0.3,2.7-0.3,3.9-0.9c0.8-0.4,1.8-1.2,0.6-2.4
		c-0.4-0.4-0.2-1.5-0.3-2.2c0-1.1,0.6-2.1,0.1-3.3c-0.4-1.1,0-2.6-0.1-3.9c-0.1-0.7-0.5-1.4-1-1.9c-0.2-0.2-1,0.4-1.6,0.4
		c-1.5,0-3,0-4.4-0.3c-0.6-0.1-1.9-0.1-1.6-1.6c0.3-1.1,0.7-1.9,2-1.9c1.4,0,2.9,0,4.3,0c2.2,0,2.9-0.8,3.1-3s-0.1-4.3-1.1-6.2
		c-0.5-0.9-0.5-1.7-0.4-2.6c0.1-1.1,1.3-1.5,2.4-1c2.6,1.1,5.1,2.3,7.9,2.6c1.4,0.2,1.9,1.2,2.7,1.9c0.2,0.2,0,0.9-0.2,1.3
		c-0.7,1.3-1.5,2.5-2.2,3.8c-1.1,2.1-0.8,2.5,1.3,2.5c0.4,0,0.8,0.1,1.2,0c1-0.3,2.3-0.4,3-1.1c0.5-0.4,0.2-1.7,0.2-2.6
		c0-1.4,0-2.9,0-4.3C442.1,138.2,442,138.2,441.9,138.2z M434.3,158.5L434.3,158.5c0.1,1.8,0.1,3.6,0.1,5.4c1.9,0.1,3.8,0.2,5.7,0.3
		c0.4,0,1.1-0.2,1.2-0.5c0.5-1.1,1.5-2.4,0.8-3.5c-1.3-1.9-0.6-4-0.7-5.9c-0.1-3.3,0-3.3-3.5-3.3c-0.5,0-1,0-1.6,0
		c-0.7,0-1.2,0.1-1.2,1c-0.1,0.8-0.6,1.6-0.7,2.4C434.3,155.6,434.3,157.1,434.3,158.5z M436.5,177.4c1.3,0,1.9-0.1,2.4,0
		c1.4,0.2,1.8-0.2,1.7-1.7c-0.1-2.2-0.2-4.4,0.1-6.6c0.4-2.8,0.6-2.8-2.1-2.6c-1.2,0.1-2.4,0.5-3.6,0.8c-0.3,0.1-0.7,0.4-0.7,0.7
		c-0.3,1.8-0.5,3.7-0.8,5.5c-0.3,1.4,0.5,2.5,1,3.5C434.8,177.5,436.3,177.4,436.5,177.4z M449.2,210.5c0-1.2,0-2.3,0-3.5
		c-0.1-1.6-0.7-2.1-2.4-2.2c-2-0.1-2.3-0.1-2.2,1.8c0.1,0.9-1.4,1.2-0.5,2.3c0.5,0.5,0.3,1.7,0.3,2.6c0,0.9,0,1.8,0,2.7
		c0,0.2,0.1,0.6,0.3,0.6c0.4,0.2,0.4,1.2,1.4,0.5c0.7-0.5,2.4-0.1,2.7-0.7c0.5-0.9,0.2-2.2,0.3-3.4
		C449.2,211,449.2,210.8,449.2,210.5z M435.1,210.1c0-1.2,0-2.3,0-3.3c0-0.4-0.1-0.8-0.3-1c-0.7-0.7-3.4,0.1-3.6,1.1
		c-0.7,3-1.1,6-0.7,9c0.1,1.3,1.5,0.6,2.3,0.6c1.5,0.1,3.4-1.8,2.8-2.9C434.8,212.3,435.4,211.1,435.1,210.1z M443.7,198
		c0,0.6,0,1.3,0,1.9c0,0.3,0.3,1,0.4,0.9c1.5-0.2,3,0.6,4.4-0.5c1.2-0.9-0.5-1.6-0.2-2.5c0.3-0.8,0-1.8,0.1-2.7
		c0.2-1.3-0.6-1.4-1.6-1.4c-2.7,0-3.1,0.3-3.1,3C443.7,197.2,443.7,197.6,443.7,198z M431.2,198.6c0,0.9,0.1,1.8,0,2.7
		c-0.1,1.2,0.6,1.2,1.4,1.2c0.8-0.1,1.8,0.4,1.8-1.2c-0.1-1.6,0-3.3,0.3-4.9c0.3-1.7,0.5-1.7-1-1.7c-2.9,0-2.5-0.4-2.5,2.4
		C431.2,197.6,431.2,198.1,431.2,198.6z"/>
	<path class="st0" d="M204.9,215.8c0.2-2.6,0.5-5.2,0.4-7.7c-0.2-4.1-0.6-8.1-0.1-12.2c-1.4-2.3-0.4-4.7-0.4-7c0-1.3,0.2-2.5-1-3.5
		c-0.7-0.5-0.7-1.2,0-1.8c0.6-0.5,1-1.1,2.1-0.5c3.1,1.7,6.9,2.3,9.4,5.2c0.3,0.3,1,0.3,1.6,0.4c3.9,0.3,7.7,0.6,11.6,0.6
		c2.3,0,4.6-0.5,7-0.6c2.3-0.1,4.3-1.7,5.9-3.5c1-1.2,1.7-1.3,3.1,0c2.1,2,4.6,3.9,7.1,5.3c2.1,1.2,2.9,2.7,2.8,4.9
		c-0.1,3-0.3,6-0.6,9c-0.1,1.3-0.9,2.6-1,3.9c-0.1,1.2,0.6,2.4,0.6,3.6c-0.1,3.3-0.3,6.6-0.6,9.9c-0.2,1.6-0.3,3.5-1.2,4.7
		c-0.9,1.1-2.7,1.5-4.2,2c-1.4,0.5-3.1,0.3-4.3,1c-1.3,0.8-1.9,0.2-2.4-0.6c-0.5-0.8-0.8-1.7-1.1-2.6c-0.7-2.5-0.7-2.6-2.8-2.7
		c-3-0.2-6-0.4-9-0.5c-1.3,0-2.7,0.5-4,0.6c-1.3,0.1-2.6-0.3-3.9-0.2c-3,0.4-5.3,2.1-7.2,4.4c-0.6,0.7-1.1,1.6-1.8,2.2
		c-2.3,1.7-2.7,1.6-4.7-0.5c-1.5-1.5-2.3-3-2-5.3C204.7,221.5,204.7,218.6,204.9,215.8z M238,204.7c-1.8,0.1-3.8,0.3-5.8,0.5
		c-1.3,0.2-1,1.5-0.8,2c1.1,2.9,0.3,5.8,0.3,8.7c0,0.6-0.1,1.1-0.1,1.7c0,1.6,1.4,2.9,2.7,2.2c1.4-0.8,2.7-0.7,4-0.5
		c1.7,0.3,1.7-0.5,1.9-1.8c0.6-3.8-0.3-7.5-0.2-11.3C240.1,204.7,239.4,204.6,238,204.7z M222.3,213.8c0.1-1.7,0.3-3.4,0.3-5.2
		c0-1.7-0.1-1.7-2.3-1.6c-1.1,0-2.3-0.2-3.4-0.1c-0.4,0-1.1,0.5-1.1,0.8c-0.3,3.4-0.6,6.9-0.6,10.3c0,1.9,1.4,3,3.2,2.7
		c1.2-0.2,2.5-0.3,3.4-1c0.5-0.5,0.3-1.9,0.4-2.8C222.2,215.8,222.2,214.8,222.3,213.8z M231.9,197.1
		C231.8,197.1,231.8,197.1,231.9,197.1c0,1.5,0.1,3,0.2,4.5c1.2-0.2,2.3-0.5,3.5-0.6c1.5-0.1,3.6,0.6,4.4-0.2
		c0.8-0.8,0.5-2.9,0.6-4.4c0.1-0.8,0.1-1.7,0.1-2.6c0-0.8-1.5-2.1-2.3-1.9c-0.6,0.1-1.3,0.4-1.9,0.5c-1.4,0.1-3.3-0.5-4,0.2
		c-0.8,0.7-0.4,2.6-0.6,4C231.9,196.8,231.9,196.9,231.9,197.1z M216.3,197.5c0,0.4-0.1,0.9-0.1,1.3c-0.2,3.7-0.2,3.7,3.6,3.9
		c0.6,0,1.2,0,1.7,0.1c1.2,0.3,1.5-0.5,1.4-1.4c-0.4-2.5-0.9-4.9-0.5-7.4c0-0.2-0.5-0.6-0.8-0.7
		C216.9,192.4,216.6,192.6,216.3,197.5z"/>
	<path class="st0" d="M274.1,192.7c0.1,0,0.3,0,0.4,0c4.6,0.8,8.5-1.2,12.2-3.3c1.4-0.8,2.5-2.1,3.6-3.3c0.4-0.4,0.4-1.2,0.5-1.8
		c0.1-0.9-0.2-2.2,0.2-2.8c1-1.2-0.7-1.7-0.3-2.8c0.3-0.9,0-1.9,0.1-2.9c0.1-1.2-0.5-1.3-1.4-1.3c-2.4-0.2-4.7,0.5-7.1,0.8
		c-2.2,0.2-2.3,0.5-2.2-2.1c0-0.5,0-1.1,0-1.6c-0.1-0.9,0.3-1.2,1.1-1.2c2.3,0,4.7-0.1,7,0.1c1.5,0.1,2.2-0.9,3-1.7
		c0.1-0.1,0-0.6-0.1-0.9c-0.4-2-0.8-3.9,0.2-5.8c0.2-0.4,0.3-1,0.3-1.5c0.2-3.6-0.1-3.8-3.6-4.2c-2.7-0.3-5.3-1-8-1.6
		c-1.4-0.4-2.2-2.3-1.6-3.6c0.2-0.3,1.1-0.6,1.3-0.4c1.7,1,3.6,0.6,5.5,0.8c4.3,0.4,8.1-1.5,12.2-2.5c0.6-0.1,1.1-0.7,1.6-1.2
		c2.6-2.6,5.4-5.1,7-8.6c0.4-0.9,1.3-0.9,1.7,0c1,2.5,1.9,5,2.9,7.5c0.2,0.6,0.6,1.2,0.6,1.8c0.1,1.5,0.6,3.4-0.1,4.3
		c-0.9,1.1-2.9,1.5-4.4,2c-1.2,0.4-2.7-0.6-3.8,0.7c-1.2,1.3-0.4,2.9-0.5,4.3c-0.2,2.2,0.4,4.5-0.8,6.7c-0.3,0.5-0.2,1.5,0.1,2
		c0.5,0.6,0.8,1.6,2.3,1c2.5-1,4.6-2.4,5.9-4.9c0.6-1.2,1.7-2.2,2.8-2.9c0.5-0.4,1.7-0.8,2.2,0.7c0.5,1.5,1.6,2.9,2.3,4.4
		c0.3,0.5,0,1.2,1,1.4c1.5,0.2,0.6,1.5,0.7,2.4c0.2,1.1-0.8,0.8-1.4,0.9c-1.2,0.3-2.5,1.4-3.8,0.8c-1.3-0.6-2.3,1.5-3.5,0.1
		c-1.6,1-3.6,0.6-5.3,1.1c-0.7,0.2-1.5,0.5-2.3,0.5c-0.9,0-1.2,0.3-1.1,1.2c0,2.2,0.1,4.4,0,6.6c-0.1,1.4,0.4,2.8-0.7,4.3
		c-0.5,0.8-0.7,2.6,0.4,3.8c0.2,0.2,0.3,0.6,0.2,0.7c-1.8,2,0,4,0,5.9c0.1,2.2-0.1,4.4,0.1,6.6c0.1,1,0.6,2,0.8,3
		c0.3,1.4-1.2,2.6-0.1,4.3c0.7,1.1,0.1,2.9,0.1,4.5c0.1,1.6-0.6,2.9-1.5,3.9c-1.8,2-3.9,3.9-5.8,5.9c-0.8,0.8-1.3,0.6-2-0.1
		c-1.8-1.8-4.1-2.9-5.9-4.5c-2.3-2-4.2-4.5-6.2-6.9c-0.3-0.3-0.2-1.2,0-1.6c0.2-0.3,1.1-0.6,1.4-0.4c2.1,1.2,4.4,0.7,6.7,0.8
		c2,0,1.4-0.2,2.1-2.7c0.6-2.1-0.7-3.6-0.4-5.5c0.4-2,0.1-4.1,0.1-6.2c0-1-1-1.8-1.8-1.2c-4.9,3.1-10.3,1.2-15.4,1.5
		c-1.6,0.1-3.3-1.2-4.9-1.9c-0.4-0.2-0.8-0.8-0.9-1.3c-0.1-0.7-0.4-1.7,1-1.7C270.6,192.7,272.3,192.7,274.1,192.7z"/>
	<path d="M527.7,150.4c-0.1,2-0.2,4-0.3,6c-0.1,2,1.6,3.2,3.7,2.7c0.9-0.2,1.9-0.2,2.9-0.1c7.5,0.2,15.1-0.5,22.6,0.3
		c0.4,0,0.8,0.2,1.1,0c2.4-1.5,4.1-0.2,5.6,1.5c1.6,1.7,3.2,3.5,4.8,5.3c1.3,1.4,1.2,2.8-0.2,4.1c-4.3,4-9.1,7.2-13.9,10.5
		c-0.7,0.5-1.2,0.3-1.5-0.3c-0.3-0.5-0.6-1.3-0.4-1.5c3.1-3.1,3.9-7.1,4.9-11.1c0.4-1.4,0.8-2.7,0.8-4.2c0-1.3-0.6-1.9-2-2
		c-0.7-0.1-1.7-0.3-2.2,0.1c-0.9,0.7-1.3,0.3-2.2-0.1c-0.6-0.3-1.7,0.4-2.7,0.5c-2.1,0-4.3-0.2-6.4-0.2c-1.2,0-2.3-0.4-3.6,0.2
		c-0.7,0.3-1.8-0.9-3.1,0c-0.7,0.5-2.2,0.1-3.3,0.1c-1.2,0-2.5-0.2-3.8-0.1c-0.7,0-1.3,0.5-2,0.6c-2.4,0.5-4.8,0.6-7.2,0.5
		c-1.6-0.1-3.3,0.4-5,0.4c-1.6,0.1-3.4-0.5-4.8-0.1c-1.6,0.5-3.1,0.4-4.6,0.5c-1.8,0.1-3.6-0.7-5.4,0.2c-1.5,0.8-3.4-0.6-4.9,0.7
		c-0.1,0.1-0.5,0-0.7,0c-1,0-2.5-0.4-2.8,0.1c-0.6,0.8-0.4,2.1-0.5,3.2c-0.1,2-0.1,4-0.3,6c-0.2,1.7-0.5,3.3-1,4.9
		c-0.5,1.5-2,2.2-3.3,2.5c-1.1,0.2-2.2,1.5-3.6,0.5c-1.5-1-3.6-1.4-4-3.6c-0.1-0.7-0.4-1.5-0.2-2.1c0.4-1.1,0.6-2.3,1-3.4
		c0.4-1.3,1.8-2.2,2.6-3.4c2.3-3.1,4.4-6.3,5.4-10.1c0.1-0.4,0.5-0.8,0.8-0.9c0.5,0,1.3-0.3,1.5,0.6c0.1,0.4,0.6,0.9,0.6,1.2
		c-0.1,1.5,1,1.4,1.7,1.2c2.5-0.8,5.1-0.3,7.6-0.4c1.5-0.1,3-0.7,4.6-0.5c1.4,0.1,2.8-0.4,4.2-0.5c1.6-0.1,3.3,0.2,4.9,0.2
		c1.9,0,2.9-0.9,2.8-2.7c0-0.9-0.8-2-0.5-2.7c0.4-0.8,0.8-1.4,0.8-2.3c0-0.4,0.1-0.8,0-1.1c0-1.5,0.2-2.8,0.9-4.1
		c-1.2-1.1-0.5-2.6-0.5-3.9c0-1.5,0.1-3,0.2-4.5c0-0.7,0-1.5,0.2-2.2c0.3-0.9,1.6-1.1,2.4-0.4c1,0.8,1.4,2.6,3,2.6
		c1.6,0,1.8,1.7,3.4,1.9c1.7,0.1,2,2.1,2.1,3.7C528,146.4,527.8,148.4,527.7,150.4z"/>
	<path class="st0" d="M347.1,207.4c-0.3-1.9-0.8-3.9-0.9-5.8c-0.2-2,0.6-4.4-0.2-6.1c-1.2-2.4,0.3-4.3,0.2-6.4
		c-0.2-3.8,0.1-7.7-0.1-11.5c-0.5-10.9,1.4-21.7,0.9-32.6c0-0.8,0-1.6,0.8-2.2c0.6-0.5,1.4-0.7,1.6,0c0.2,0.7,0.5,0.9,1.1,1.3
		c2.4,1.5,4.7,3.3,7,5.1c1.5,1.2,1.6,2.6,0.4,4.2c-1.8,2.4-2.6,5-2.6,8c0,7-0.6,14.1,0.2,21c0.7,6.4,0.5,12.7,0.6,19
		c0.1,6.5,0,12.9,0,19.4c0,0.7-0.1,1.4,0,2.1c0.1,1.4-0.3,2.2-1.6,2.9c-2.5,1.2-4.9,2.8-7.3,4.3c-1.6,1.1-2.5,1.1-3.7,0
		c-1.9-1.8-3.7-3.7-5.6-5.5c-0.9-0.8-1.4-1.9-2.8-2.2c-0.8-0.1-1.7-1.2-1.2-2.2c0.3-0.7,1.1-1.4,1.8-1.8c1.5-0.7,3.1-1.4,4.7-1.6
		c2-0.2,3.7-1.1,4.6-2.7C346,212,347.6,210,347.1,207.4z"/>
	<path d="M534,211.7c-2-0.1-4-0.2-6-0.3c-1.8,0-2.3,0.4-2.5,2.3c-0.1,1-0.1,2-0.1,3c-0.1,1.4,0,2.8-0.2,4.1
		c-0.2,1.3-0.6,2.5-0.9,3.8c-0.1,0.7-0.3,1.6-0.1,2.2c0.3,0.7,0.9,1.4,1.6,1.7c0.6,0.3,1.7,0.4,2.2,0.1c1.8-1.1,3.6-0.4,5.4-0.4
		c1.6,0,3-0.4,4.5-0.9c1.5-0.6,2.5-1.2,3.5-2.5c1.5-1.7,3.1-3.4,5.3-4.5c1.4-0.7,1.8,0.5,1.7,0.7c-0.2,2.1,0.8,3.9,1.3,5.8
		c0.4,1.2,1,2.4,1.3,3.6c0.1,0.6,0.3,1.7-1,1.5c-1.8-0.3-3.7,0.6-5.3-0.9c-0.2-0.2-0.8-0.2-1.1-0.1c-3.5,1.3-7.1,0.1-10.6,0.2
		c-1.7,0-3.3-0.1-5,0.5c-1.4,0.5-3-0.1-4.6,0.4c-2.2,0.8-4.8,0.6-7.2,0.5c-2.9-0.1-5.7,0.7-8.5,0.9c-2.5,0.1-4.5,1.4-6.9,1.5
		c-2,0.1-3.2-0.6-3.7-2.6c-0.2-0.7,0.2-2.1,0.9-2c1.7,0.2,3.3-0.4,5-0.6c1.5-0.1,3.2,0.4,4.3-0.2c1.3-0.6,2.7,0.5,3.8-0.9
		c0.3-0.3,1.4,0,2.2,0.1c0.8,0.1,1.1-0.3,1.1-1c0.1-2.9,0.5-5.8,0.3-8.6c-0.1-1.9-0.6-3.8-0.5-5.7c0-0.1-0.4-1.6-1.5-0.7
		c-0.2,0.2-0.7,0.3-1,0.2c-2.3-0.6-4.5,0.7-6.9,0.5c-0.8-0.1-1.1-0.3-1-1.1c0.1-0.5,0.1-1,0.1-1.5c-0.3-2.3,0.4-3.4,2.2-2.6
		c1.9,0.9,3.8,0.8,5.7,0.9c2.4,0.1,2.7-0.2,2.8-2.7c0.1-2,0.2-4,0.3-6c0-0.3,0.5-0.8,0.8-0.8c2.4-0.1,4.7,0.6,6.9,1.6
		c0.8,0.4,1.7,0.7,2.6,1c1.5,0.6,2.2,1.7,2.2,3.3c0,0.3-0.1,0.5,0,0.8c0.1,0.9-0.1,2.4,0.4,2.7c1.1,0.6,2.5-0.2,3.2-0.9
		c1.7-1.6,3.9-2.7,4.9-5c0.2-0.5,0.9-0.9,1.3-1.3c2-1.8,2.2-1.8,3.4,0.9c0.8,1.9,1.3,6.7,0.9,8.5c-0.1,0.3-0.7,0.6-1,0.6
		C538.3,211.9,536.2,211.8,534,211.7z"/>
	<path d="M538,195.3c-1.7-0.3-3.7,0.5-4.9-1.6c-1.7,0-3.4,0-5,0c-0.5,0-0.9,0.4-1.4,0.3c-4.3-0.7-8.6,0.6-12.9,0.2
		c-0.8-0.1-1.4-0.1-1.8,1.1c-0.7,1.7-2.7,1.1-4,0.8c-0.6-0.1-1-0.3-1.6-0.1c-0.5,0.1-1.3-0.5-1.9-0.7c-1.7-0.4-2.8-1.6-2.6-3.3
		c0.1-1.7-0.3-3.4,0.9-5c0.5-0.7,0.5-2.1,0.1-2.9c-1-2.4-0.4-4.8-0.3-7.3c0-2.3,0.3-4.6-1-6.7c-0.5-0.8-0.4-1.6,0.4-2.3
		c0.8-0.7,1.7-0.8,2.3-0.2c1,1,2.1,0.4,3.2,0.6c1.4,0.3,3.3,0.2,4,1.1c1.5,1.7,3.3,1.5,5.1,1.6c3.4,0.2,6.8,0.2,10.1,0.5
		c2.8,0.2,5.1-0.8,7.2-2.5c1.6-1.3,2.7-1.2,4.1,0.1c1.8,1.7,3.6,3.4,6.2,4c0.8,0.2,1.5,0.9,1.3,1.9c-0.4,2,0.7,4.3-1,6
		c-0.1,0.1,0,0.2,0,0.4c-0.4,3.3-0.8,6.5-1.2,9.8c-0.1,0.7,0,1.5-0.1,2.2c-0.3,1.5-1.1,2.1-2.7,2C539.6,195.4,538.8,195.3,538,195.3
		z M520.2,190.8L520.2,190.8c2,0,4,0.2,6,0.1c2,0,4.1-0.3,6.1-0.4c0.8,0,1.1-0.2,1.1-1c0.2-4.3,0.4-8.5,0.6-12.8
		c0.1-2.3,0.2-1.9-1.9-2.1c-5.4-0.5-10.8,0.8-16.2,0c-0.1,0-0.2,0-0.4,0c-3-0.1-3.4,0.2-3.3,3.3c0,1.5,0.5,3.1,0.5,4.6
		c0,2.5-0.1,5-0.2,7.5C515.1,190.3,517.6,190.6,520.2,190.8z"/>
	<path class="st0" d="M176.8,226.9c-5-0.1-5.4-0.2-5.1-4.9c0.8-11.2,1.4-22.4,2-33.5c0-0.4-0.1-0.8-0.1-1.2
		c-0.4,0.2-0.8,0.5-1.3,0.7c-2.9,1.6-5.5,3.6-8.2,5.5c-2.3,1.6-5,3.3-8.2,2.9c-0.5-0.1-1.1-0.2-1.5-0.5c-0.4-0.3-1.4-0.8-0.2-1.5
		s2.2-1.7,3.5-2.1c3.9-1.5,7.5-3.3,9.7-7.1c3.4-2,4.4-5.9,6.8-8.7c1.6-1.8,2.3-4.5,3.3-6.8c0.4-1-0.2-1.6-1.3-1.3
		c-3.3,0.7-6.4,1.9-9.9,2c-2.1,0-4.1,0.9-6.1,1.7c-1,0.4-1.8,0.6-2.6-0.2c-1.1-1.1-1.8-2.5-1.4-4.1c0.2-0.9,1.1-1.6,2.2-1.5
		c2.4,0.4,4.6-0.2,6.8-1.1c0.7-0.3,1.7,0,2.5-0.1c2.3-0.1,4.8,0.1,7-0.5c2.5-0.7,4.6-2.4,6.1-4.7c0.1-0.2,0.2-0.5,0.4-0.7
		c0.6-0.6,1.3-1.2,1.9-1.7c0.5,0.9,1.4,0.7,2.1,1c2.5,1.1,5,2.5,7.4,3.8c1.7,0.9,1.4,0.9,0.9,3c-1.1,4.1-3.7,7.2-6.7,10
		c-2.3,2.2-4.6,4.6-6.8,6.9c-0.3,0.3-0.6,0.7-0.6,1c0.2,2.6-1.1,5.2,0.2,7.9c0.8,1.7,0,3.7,0.6,5.7c1,3.3,0.7,6.9,2,10.3
		c0.5,1.4,0.5,3.3,0.5,4.8c0.1,3.7,1.4,7.2,1.6,10.9c0.1,1.5-0.6,2.4-1.3,2.7C180.8,226.4,178.7,227.9,176.8,226.9z"/>
	<path class="st0" d="M209.5,152.7c0.1-0.9,0.1-1.7,0.2-2.6c0.1-1.6,0.1-1.5,2-0.9c1.8,0.6,3.6,1.2,4.9,2.7c0.2,0.3,0.7,0.5,1.1,0.5
		c2.9-0.2,5.8,1.1,8.8-0.2c1.2-0.5,2.8,0,4.2,0.1c2.6,0.1,4.8-0.8,6.7-2.6c0.7-0.6,1.1-1.3,1-2.2c-0.3-1.9,0.9-1.9,2.1-1.6
		c1,0.2,2.2,0.4,3,1.1c2.1,1.7,4.7,2.7,6.6,4.8c1.1,1.3,1,2.5,0.7,3.9c-0.2,0.8-0.7,1.5-0.8,2.2c-0.7,5.1-2,10.2-1.8,15.5
		c0,1-0.3,1.3-1.5,1.4c-2.6,0.2-4.8-1.3-7.3-1.4c-0.3,0-0.8-0.4-0.9-0.7c-0.9-3.2-3.8-2.5-5.5-2c-3.8,1-7.6,1.3-11.5,0.9
		c-1,1.2-2.8,0.2-4,2c-1.1,1.7-3.8,1-5.9,0.8c-0.2,0-0.6-0.6-0.6-0.9c0-2.6-0.9-5.2-0.5-7.9c0.4-3-0.4-5.9-0.9-8.9
		C209.2,155.6,209.4,154.1,209.5,152.7C209.4,152.7,209.4,152.7,209.5,152.7z M237.4,161.5c0.1-1,0.1-2,0.2-3c0-1,0.4-2.3-0.1-2.8
		c-0.8-1-2-0.2-2.9,0.4c-0.2,0.1-0.6,0-0.8,0c-4.5,0-8.9,0.1-13.4,0c-1.4,0-1.7,0.5-1.6,1.7c0.1,0.9-0.9,2-0.8,2.1
		c1.4,2.3,0,4.7,0.3,7c0.1,1.2,0.7,2.1,2,2.2c0.7,0,1.5,0.3,2.1,0.1c3.7-1.3,7.8-0.5,11.5-1.8c1-0.4,2.6,0.2,3.1-0.3
		c0.6-0.7,0.3-2.2,0.4-3.3C237.4,163,237.4,162.3,237.4,161.5z"/>
	<path d="M382.3,215.4c0-2.3,0-4.2,0-6c0.1-2.1,2.1-3.4,3.6-2.1c1.4,1.3,2.7,1.4,4.2,1.2c1.5-0.1,2.9,0.5,4.4-0.7
		c1-0.7,2.6-0.6,3.9-0.9c0.4-0.1,0.8-0.4,1-0.7c1.3-1.6,1.3-1.6,3.1-0.8c0.9,0.4,1.7,0.8,2.8,0.8c3.1,0.1,3.6,0.6,3.5,3.8
		c-0.1,1.3-0.5,2.6-0.7,4c-0.2,1.2-0.1,2.4-0.6,3.6c-0.7,1.5-0.2,3.6-0.1,5.4c0.1,2.7-0.8,5-2.3,7.3c-0.6,0.9-1.1,0.9-1.7,0.9
		c-2.4,0-4.6-1.3-7.1-0.8c-0.2,0-0.5-1.2-0.9-1.3c-1.5-0.3-3-0.8-4.2,0.7c-1.6,2-4,1.6-6.1,2.1c-0.3,0.1-0.9-0.3-1.1-0.6
		c-0.4-0.6-0.8-1.4-0.8-2C383.6,224.5,381.7,219.8,382.3,215.4z M398.7,216.7c0-2.1,0-3.9,0-5.8c0-0.3-0.8-0.8-0.9-0.7
		c-1.8,1-3.9,1.3-5.9,1.8c-0.8,0.2-2,0.6-1.8,2.3c0.3,3.1,0,6.3,0.8,9.4c0.5,2,0.2,2.1,2.1,2.1c0.9,0,2,0.3,2.7-0.1
		c0.9-0.5,2-0.6,2.5-2.2C398.9,221.1,398.4,218.8,398.7,216.7z"/>
	<path class="st0" d="M327.4,191.2c1.2-3.2,0.4-7.7,0.5-12.2c0.1-4.4,0-8.8,0-13.2c0-1.5,0.5-1.7,2.4-1.2c1.2,0.3,2.6,0.4,3.8,0.9
		c2.6,0.9,3.7,2.5,3.7,5.4c0,3.3,0.1,6.6,0,9.9c-0.1,2.6,0.7,5.4-0.8,7.9c-0.8,1.4,0.7,2.7,0.2,4.3c-0.4,1.3-0.6,2.8,0.5,4.2
		c0.3,0.4-0.6,2.5-1.3,2.7c-2.2,0.7-4.4,1.3-6.4,2.6c-1,0.6-1.9-0.2-2-1.5C327.8,198.1,327.6,195.2,327.4,191.2z"/>
	<path d="M535,154.8c-0.2-0.5-0.5-1-0.6-1.4c-0.1-0.4-0.4-1-0.3-1c2.3-1.9,3.1-4.7,5.1-6.8c2.8-3.1,4.2-7,5.9-10.6
		c0.8-1.7,1.1-1.9,2.8-0.8c0.9,0.6,1.8,1.3,2.5,2.1c1.1,1.3,2.1,2.7,3,4.1c0.4,0.6,1.2,1.6,1,2.1c-0.3,0.9-1.1,2.1-1.9,2.4
		c-2.7,0.9-4.6,2.9-6.9,4.3c-0.4,0.2-0.8,0.4-1.2,0.6c-2.6,1.3-5.4,2.4-7.6,4.5C536.3,154.5,535.7,154.5,535,154.8z"/>
	<path class="st0" d="M238.8,137.4c-3.2-0.3-7.2-0.7-11,1.1c-2.5-0.7-4.9,0.7-7.4,0.4c-1.6-0.2-3.1-0.9-4.7-1.1
		c-1.7-0.2-3.4-0.1-5.1-0.4c-0.6-0.1-1.2-0.6-1.6-1.2c-0.2-0.3,0-1.3,0.2-1.4c1.4-0.3,2.9-0.7,4.4-0.7c2.3,0,4.6,0.2,6.9,0.4
		c2,0.1,4,0.2,6,0.4c1.4-1.9,3.8,0.3,5.5-1.3c0.6-0.5,2.2,0.1,3.3,0.1c2.5,0.1,4.5-0.9,5.8-3.2c0.6-1,1.2-2.1,1.9-3
		c0.5-0.8,1.1-1.6,1.8-2.2c1.3-1,3-0.4,3.7,1.3c1,2.6,1.1,5.5,2.7,7.9c0.2,0.3,0,0.8,0,1.3c0,1-0.1,1.5-1.4,1.5
		c-1.6,0-3.2,0.4-4.8,0.5C243.1,137.7,241.4,137.5,238.8,137.4z"/>
	<path d="M406.2,168.1c-2.4-1.7-4.6,0.3-6.9,0c-1.8-0.2-3.9,0-5.5,0.8c-1.7,0.8-3.2,0.5-4.8,0.7c-1.6,0.1-3.2,0-4.8,0.7
		c-1.4,0.6-3.2-0.5-4.8,0.8c-0.9,0.7-2.9-0.1-3.4-1c-0.5-0.9,0.1-2,1.2-2c3.4,0,6.7-1.4,10.2-0.8c1.6-1,3.4-0.7,5.1-0.8
		c1.6-0.1,3.2-0.6,4.8-0.7c1.9-0.2,2.7-1.8,3.6-3c1.2-1.6,2.3-3.2,3.5-4.8c0.7-0.9,2.3-0.7,2.7,0.3c0.9,2.4,1.7,4.8,2.4,7.2
		c0.3,1,0.3,2.1-1.5,1.9C407.5,167.2,406.8,167.8,406.2,168.1z"/>
	<path class="st0" d="M315.3,202c-1.1-0.6-2.3-0.9-3.1-1.6c-2.5-1.9-3.7-4.6-4-7.7c-0.1-1.2-0.1-2.3-1.1-3.3c-0.8-0.7-1-2-1.4-3.1
		c-0.3-0.9,1-2.2,2.1-1.9c2.9,0.8,6,1.5,8.6,2.9c3.2,1.8,4,5.7,3,9.4c-0.5,1.7-1.3,3.1-2.6,4.2C316.2,201.4,315.8,201.6,315.3,202z"
		/>
	<path d="M506.7,148c-0.5,1-0.9,2.3-1.7,3.2c-0.7,0.8-2,1.2-3,1.7c-0.3,0.1-0.9-0.2-1.3-0.3c-2.5-1.1-4-3.2-4.2-5.8
		c-0.4-3.1-1-5.8-3.3-8.1c-0.2-0.2-0.1-0.7,0-1c0-0.1,0.4-0.3,0.6-0.2c4.1,0.7,8.2,1.3,11.2,4.7c0.9,1,1.4,1.9,1.3,3.3
		C506.1,146.3,506.5,147.1,506.7,148z"/>
	<path d="M392.6,185.1c-3.4,0.3-6.8,0.6-10.2,0.8c-0.5,0-1,0.1-1.6,0c-0.3,0-0.8-0.2-0.9-0.4c-0.1-0.3,0.1-0.8,0.3-1
		c1.5-1.2,3.3-2.5,5.2-2.4c2.6,0.2,4.9-0.9,7.5-0.9c0.5,0,1.2-0.4,1.6-0.9c1.2-1.3,2.2-2.7,3.3-4.1c1.5-1.8,2.9-1.8,4,0
		c1.2,1.9,3.3,3.5,3.2,6.1c0,0.6,0.1,1.2-0.9,1.3C400.2,184,396.6,185.7,392.6,185.1z"/>
	<path class="st0" d="M182.4,144.1c-0.3,1.9,0.3,3.5-1.2,4.1c-2,0.7-3.8,2.3-6.1,1.8c-1.3-0.3-3.1-3.2-3.1-5c0-1.1,0.1-2.3,0.2-3.4
		c0.2-2,0.2-3.8-0.9-5.6c-0.1-0.2-0.4-0.5-0.4-0.7c0.2-1.2,0-2.9,0.7-3.6c1-0.9,2.4,0.5,3.3,1.1c1.8,1.2,3.3,2.9,4.9,4.5
		C181.9,139.4,183.1,141.8,182.4,144.1z"/>
	<path d="M396.3,149.5c0.4,2.4-0.9,4-2.4,5.7c-1.2,1.4-2.5,1.1-3.9,1c-1.1-0.1-1.4-1.2-1.8-2.1c-0.5-1.5-1.4-2.8-1.4-4.5
		c0-2.4-0.5-4.7-2.5-6.4c-0.3-0.3-0.6-0.8-0.6-1.3c-0.1-0.6-0.2-1.4,0.8-1.3c0.8,0.1,1.6-0.1,2.5,0.5c1.7,1.1,3.7,1.7,5.5,2.6
		C395.2,144.9,396.7,146.6,396.3,149.5z"/>
	<path d="M395.4,200c-2.8-0.5-6,0.5-9.1,1.2c-1,0.2-1.1-0.3-1.4-0.6c-0.2-0.3-0.2-1,0-1.3c1.3-1.4,2.7-2.6,4.8-2.5
		c0.8,0,1.6-0.1,2.3,0c1.8,0.2,2.9-0.4,3.6-2.2c0.6-1.5,1.2-3.3,2.9-4.1c0.9-0.4,1.6-1,2.4,0.3c1,1.6,2.1,3.4,3.6,4.2
		c1.1,0.6,1.1,1.1,1.1,1.9s-0.2,1.1-1.1,1.5c-1.8,0.9-3.6,1.5-5.6,1.5C398,200,397,200,395.4,200z"/>
	<path class="st0" d="M189.2,187.9c2-0.6,3.5,0.9,5.3,2c2,1.1,2,3.2,2.8,4.8c0.8,1.6-0.3,2.9-0.9,4.2c-0.4,0.8-1,2.1-1.5,2.2
		c-1.8,0.1-3.6-0.3-5.4-0.7c-0.4-0.1-0.8-1.1-0.8-1.7c-0.1-1.3,0.1-2.6,0.2-3.9c0.1-2.9-0.1-3.3-3.1-4.5c-1-0.4-0.8-0.9-0.8-1.6
		c0-1,0.5-1.1,1.4-1C187.1,187.9,188,187.9,189.2,187.9z"/>
	<g>
		<g>
			<path class="st1" d="M78.1,220.8l1.3,1.7l4.8-2l0.3-1.5l-0.8-0.7L78.1,220.8z"/>
		</g>
		<g>
			<path d="M103.8,44.6l-0.7-6.8l-20.9,3.5l0.7,6.9C89.4,47.8,97.5,46.2,103.8,44.6z"/>
		</g>
		<g>
			<path d="M84,54.5l0.7,7c6.2-0.8,15.7-2.8,21.8-4.7l-0.8-6.8L84,54.5z"/>
		</g>
		<g>
			<path d="M108,68.6l-1-7.2c-6.2,2.3-15.7,5.1-21.9,6l1.2,6.5C93.5,73.4,107.8,68.7,108,68.6z"/>
		</g>
		<g>
			<path d="M91,104.1l0.6,5.8c6.2-1.3,15.2-4.1,20.6-6.8c0.8-0.6-0.9-6.8-0.9-6.8C106.4,99,97.3,102.8,91,104.1z"/>
		</g>
		<g>
			<path d="M91.9,115.9l0.9,5.7c7.1-1.6,15.9-4.2,20.9-7.8c1-0.8-1.1-5.6-1.1-5.6C107.3,111.2,98.3,114.5,91.9,115.9z"/>
		</g>
		<g>
			<path d="M114.4,119.9c-0.5,0.4-14.4,5.8-20.7,7.8l1.1,5.6c6.2-1.6,15-3.7,20.4-7.6C115.8,125.1,114.4,119.9,114.4,119.9z"/>
		</g>
		<g>
			<path d="M46.3,167.1c-0.6,1.7-0.9,3.7-0.6,6.2c0.4,5.7,2.7,10.1,6.7,13c4.1,2.1,17-0.6,21.4-4.2c-6.9,1.7-18.5,1.6-18.5,1.6
				c0.3-3.3-0.2-3.9-1.3-7C50.5,168.7,48,165.4,46.3,167.1z M47.8,174.9c0.1-1,0.4-1.5,1-1.7c0.5-0.1,1,0.1,1.7,0.9
				c0.6,0.8,1.1,1.8,1.4,3s0.4,2.3,0.2,3.3c-0.1,1-0.4,1.5-1,1.6c-0.4,0.1-1-0.2-1.7-0.9c-0.6-0.8-1-1.8-1.3-3
				C47.8,176.9,47.7,175.8,47.8,174.9z"/>
		</g>
		<g>
			<path d="M48.9,173.3c-0.6,0.1-0.9,0.7-1,1.7c-0.1,0.9,0,2,0.3,3.3c0.3,1.2,0.8,2.2,1.3,3c0.6,0.7,1.2,1,1.7,0.9
				c0.6-0.1,0.9-0.6,1-1.6c0.2-1,0.1-2.1-0.2-3.3s-0.8-2.2-1.4-3C49.9,173.4,49.4,173.1,48.9,173.3z"/>
		</g>
		<g>
			<path d="M108.6,139.3c-0.1-1.6-0.7-2.2-1.9-2.1c-1.8,0.3-2.8,1.5-2.9,3.6l0.1,11.7c1.9-1.5,3.5-3,4.7-4.5
				C108.6,148,108.6,139.3,108.6,139.3z"/>
		</g>
		<g>
			<path d="M99.8,142.8c-0.4-1.3-1.5-1.8-3.1-1.6c-1.6,0.3-2.5,1.5-2.6,3.8v10c-0.4,1.9-1.7,3.6-3.7,5c2.6-1.1,5-2.2,7.1-3.3
				c1.4-1.5,2.2-3,2.2-4.6L99.8,142.8L99.8,142.8z"/>
		</g>
		<g>
			<path d="M90.5,148.6c-0.1-2.7-0.8-3.9-2.1-3.8c-2.6-0.3-4.1,0.7-4.4,3.1v8.5c0.1,0.6-0.1,1.3-0.4,2c-0.3,0.8-0.3,1.5,0.4,2.2
				c0.9,0.6,2,1,3.4,0.8c1.3-1.3,2.2-2.8,2.6-4.3C90.5,154.4,90.7,151.6,90.5,148.6z"/>
		</g>
		<g>
			<path d="M90.4,13.2c-1.9-1.1-4-2-6.2-2.8c5.4,3,8.9,7.1,10.5,12.4c1.5,5.3,3.3,7.5,5.1,6.7c0.7-1.2,0.4-3.5-0.8-6.8
				C97.7,19.3,94.8,16.2,90.4,13.2z"/>
		</g>
		<g>
			<path d="M85.5,124.3l-0.9-6l-29.7,6.5c-2.1,0.4-4.2,0.4-6.3,0.1L30.4,122l0.6,3.6l17.5,5.4c2.1,0.4,4.2,0.5,6.2,0.1L85.5,124.3z"
				/>
		</g>
		<g>
			<path d="M83.7,112.4l-0.9-6.5l-31,6.7c-2,0.4-3.9,0.4-5.8,0.3l-17.8-1.8l1,4.8l17.8,3.3c1.9,0.3,3.9,0.2,6.1-0.3L83.7,112.4z"/>
		</g>
		<g>
			<path d="M36.1,57.5l5.9-0.8l32.9-6.5l-1-6.9L38,50l-21.5,2.4l1.3,6.5L36.1,57.5z"/>
		</g>
		<g>
			<path d="M43.6,62.5c-1.2,0.3-2.5,0.4-3.7,0.4l-21.1,0.8l1.3,7h19.6c1.7,0,3.3-0.2,4.9-0.6l32-7.3l-1-7.1L43.6,62.5z"/>
		</g>
		<g>
			<path d="M21.1,75.6l1.5,7.1h19.8c1.2,0.1,2.3,0.1,3.6-0.2l32.5-6.4l-1-6.9l-33.7,6.2c-1.1,0.2-2.2,0.3-3.3,0.2
				C40.5,75.6,21.1,75.6,21.1,75.6z"/>
		</g>
		<g>
			<path d="M66.3,153.7c-0.2-2.7-1.5-3.8-3.9-3.4c-3.3,0.3-5.1,1.7-5.2,4.3v4.5c0.3,1.3-0.1,2.5-1,3.7l7.7,0.4
				c1.4-0.2,2.3-1,2.4-2.4V153.7z"/>
		</g>
		<g>
			<path d="M76.2,147.8c-2.6-0.1-4,1.5-4.2,4.6v7.4c0.1,1.2-0.5,2.4-1.9,3.6h4.2c3.5-1.2,5.1-2.6,4.9-4.1v-9.1
				C79.2,148.5,78.1,147.7,76.2,147.8z"/>
		</g>
		<g>
			<path d="M50.2,136.8l-17.5-3.3l0.8,4.5l17.2,4.9c1.9,0.4,3.8,0.3,5.6-0.1l30.7-6.9l-0.7-5.2l-30.4,6.2
				C54.1,137.2,52.1,137.2,50.2,136.8z"/>
		</g>
		<g>
			<path d="M89.6,29.5c0.6,1,1.5,1.3,2.6,0.8c0.9-0.4,1.3-1,1.2-1.7c-0.3-3.9-1.5-7.6-3.4-11c-4.2-5.9-10.3-8.9-18.5-8.8
				C81.7,10.9,87.6,17.9,89.6,29.5z"/>
		</g>
		<g>
			<path d="M72.7,31.2c-0.4-4-1.5-7.9-3.1-11.6c-1.2-3.2-3-5.4-5.6-6.4c-2.5-1.1-6.3-1.7-11.3-1.9c4.8,1.7,8.4,4.3,10.8,7.7
				c2.3,3.5,3.6,7,3.7,10.4c0.2,3.4,1.1,5.1,2.8,4.8C72,34,72.9,33.1,72.7,31.2z"/>
		</g>
		<g>
			<path d="M59.7,31.8c-0.1-5.6-1.7-10.2-4.8-13.7s-8.7-4.9-16.9-4.4c3.8,0.8,6.9,2.4,9.5,4.8c2.6,2.4,4.1,5.3,4.4,8.8
				c0.4,3.5,0.9,5.8,1.7,6.9c1.3,2,2.8,2.5,4.2,1.8C59.7,35.1,60.2,33.7,59.7,31.8z"/>
		</g>
		<g>
			<path d="M81.7,32.5c1.7-0.4,2.4-1.9,2.2-4.6C82.7,22.1,81,17.8,78.7,15c-2.4-2.8-7.5-4.6-15.5-5.2c3.5,1,6.5,2.4,9.3,4.3
				c2.8,2,4.8,6.9,5.9,15C79,31.2,80.1,32.4,81.7,32.5z"/>
		</g>
		<g>
			<path d="M30.2,19.9c3.1,0.8,5.6,2.7,7.4,5.5c1.9,2.8,2.6,5.5,2.2,8c-0.4,2.6-0.1,4.2,1,4.7c1.1,0.6,1.9,0.9,2.2,0.9
				c1.1-0.2,1.9-1,2.6-2.3c0.5-3.9,0.1-7.4-1.2-10.3c-2.7-5.4-5.7-8.5-9.1-9.2c-3.4-0.8-5.8-0.8-7.4,0.1
				C26.4,18.2,27.1,19,30.2,19.9z"/>
		</g>
		<g>
			<g>
				<path class="st2" d="M71.2,245h-1.7c-0.2,0-0.4,0-0.6-0.1c-2.7-1-4.3-2.7-5.9-4.5c-0.5-0.5-1-1.1-1.5-1.6
					c-0.7-0.7-1.5-1.5-2.4-2.3s-1.8-1.7-2.7-2.7c-0.7-0.7-1.5-1.4-2.3-2.1c-3-2.7-6.4-5.8-7.3-9.7c-0.6-2.6-0.3-6.8,0-9.9l0.1-1.2
					c0.2-2.2,0.2-4.5,0.3-6.9c0.1-6.2,0.3-12.7,2.9-17.3c-4.2-3.7-7.1-12.4-5.7-18.5c0.5-2.2,1.5-3.9,3-5.1
					c-2.2-0.5-4.2-1.2-6.2-2.2c-11.6-5.5-16.4-16.2-19.3-24.9C16,118.8,4.7,53.4,5,39c0.3-15.4,11.9-22,23.2-26.4
					c10.1-3.9,21.8-6.3,34-6.9h7.9c8.5,0.5,15.8,2.5,21.7,6c5.7,3.3,12.3,8.1,12.9,15.8c0.2,2.1,5.3,42.9,8.7,69.9
					c1.9,15.3,3.4,27.2,3.5,28.2v3.5c0.1,2.5,0.3,6.2-1.5,12.5c-1.7,6-7.4,10.7-12.3,14c-4,2.8-8.4,4.8-13.2,6.8
					c1.4,4.4,1,9.1-1.1,13c-1.7,3-4.2,5.1-7.2,6.1c0.2,0.6,0.5,1.1,0.9,1.6c0.1,0.2,0.6,0.4,0.9,0.6c1.1,0.7,2.5,1.6,2.8,3.4
					c0.3,2.4,0.2,5.4,0,8.6l-0.1,2.5c-0.1,1.7,0,3.4,0,5.2c0,1.7,0.1,3.4,0,5L86,210c-0.2,3-0.4,7,0.3,8.4c0.2,0.3,0.2,0.6,0.2,1
					c-0.1,0.9-0.2,1.8-0.4,2.6c-0.1,0.6-0.2,1.1-0.3,1.7c0.5,0.3,1.1,0.7,1.6,1.5c1.3,2.7,0.2,5-0.8,7c-0.6,1.2-1.2,2.4-1,3.4
					c0.1,0.7-0.2,1.3-0.8,1.7c-2.7,1.9-5.7,3.5-8.6,5.1c-1.4,0.8-2.8,1.5-4.2,2.3C71.9,244.9,71.5,245,71.2,245z M69.9,241.3h0.9
					c1.3-0.7,2.5-1.4,3.8-2.1c2.5-1.4,5.1-2.8,7.5-4.4c0.1-1.6,0.8-3,1.4-4.2c0.8-1.7,1.3-2.7,0.8-3.7c-0.5-0.2-0.9-0.4-1.4-0.8
					c-0.4-0.4-0.7-0.9-0.7-1.5c0-1.3,0.2-2.3,0.4-3.3c0.1-0.6,0.2-1.1,0.3-1.7c-0.9-2.3-0.7-5.9-0.5-9.7l0.1-1.6
					c0.1-1.5,0-3.1,0-4.8c0-1.8-0.1-3.6,0-5.4l0.1-2.6c0.2-3,0.3-5.8,0-7.8c-0.1-0.2-0.8-0.6-1.1-0.8c-0.6-0.4-1.2-0.7-1.6-1.3
					c-1.3-1.5-1.7-2.9-2.1-4.4l-0.1-0.5c-0.1-0.5-0.1-1.1,0.2-1.5c0.3-0.4,0.8-0.7,1.3-0.8c2.8-0.4,5.1-2.1,6.6-4.7
					c1.9-3.4,2-7.7,0.3-11.5c-0.2-0.5-0.2-1,0-1.4c0.2-0.5,0.6-0.8,1-1c5.4-2.2,10-4.2,14.1-7c4.3-3,9.5-7.1,10.8-11.9
					c1.6-5.8,1.5-9,1.4-11.4V126c-0.1-0.8-1.6-12.7-3.5-27.9c-3.6-28.7-8.5-67.9-8.7-70.1c-0.5-5.9-5.9-9.8-11.1-12.9
					c-5.4-3.2-12.1-5-20-5.5h-7.7c-11.7,0.6-23,2.9-32.8,6.7C18.9,20.4,9,26.1,8.7,39.3c-0.3,13.8,11.1,79.2,16.7,95.8
					c2.7,8,7.1,17.9,17.4,22.8c2.9,1.4,5.9,2.2,9.3,2.6c0.2,0,0.3,0,0.5,0c1,0,3.1,0,4.1,2.1c0.3,0.6,0.2,1.3-0.2,1.9
					c-0.4,0.5-1,0.8-1.7,0.7c-3.8-0.5-5.9,0.9-6.7,4.1c-1.3,5.6,2.1,13.8,5.4,15.5c0.5,0.2,0.9,0.7,1,1.2c0.1,0.5,0,1.1-0.3,1.6
					c-2.9,3.7-3,10.3-3.2,16.7c-0.1,2.4-0.1,4.8-0.3,7.1l-0.1,1.2c-0.2,2.6-0.6,6.6-0.1,8.7c0.7,2.7,3.6,5.4,6.2,7.8
					c0.8,0.8,1.7,1.5,2.4,2.3c0.9,0.9,1.8,1.8,2.7,2.6c0.8,0.8,1.6,1.6,2.4,2.3c0.6,0.6,1.1,1.2,1.6,1.7
					C67.1,239.4,68.2,240.6,69.9,241.3z"/>
			</g>
		</g>
		<g>
			<g>
				<path d="M135.3,84.2c-0.8,0-1.6-0.5-1.8-1.4c-0.3-1,0.3-2,1.3-2.3l31.4-8.4c1-0.3,2,0.3,2.3,1.3c0.3,1-0.3,2-1.3,2.3l-31.4,8.4
					C135.6,84.2,135.5,84.2,135.3,84.2z"/>
			</g>
			<g>
				<path d="M131.8,72.5c-0.5,0-1-0.2-1.3-0.6c-0.7-0.7-0.7-1.9,0.1-2.6L154,46.8c0.7-0.7,1.9-0.7,2.6,0.1c0.7,0.7,0.7,1.9-0.1,2.6
					L133.1,72C132.7,72.4,132.2,72.5,131.8,72.5z"/>
			</g>
			<g>
				<path d="M166.2,106.7c-0.2,0-0.5,0-0.7-0.1l-30.1-12.1c-0.9-0.4-1.4-1.5-1-2.4c0.4-0.9,1.5-1.4,2.4-1l30.1,12.1
					c0.9,0.4,1.4,1.5,1,2.4C167.6,106.2,166.9,106.7,166.2,106.7z"/>
			</g>
		</g>
		<g>
			<path d="M89.9,84.8c-1.4-1.5-3-2.3-4.9-2.3s-3.5,0.8-4.9,2.3c-1.3,1.5-2,3.5-2,5.6s0.7,4,2,5.6c1.3,1.5,3,2.3,4.9,2.3
				s3.5-0.8,4.9-2.3c1.3-1.5,2-3.5,2-5.6S91.2,86.4,89.9,84.8z"/>
		</g>
		<g>
			<path d="M109.6,85.6c-3.3,1.5-9.4,3.7-12.9,4.5c-0.4,0.2-0.8,0.5-1.2,0.8c-0.1,2.4-0.8,4.5-2.1,6.4c5.2-1.2,12.9-3.8,17.4-5.7
				C111.2,91.4,109.6,85.6,109.6,85.6z"/>
		</g>
		<g>
			<path d="M94.1,84.5c4.6-0.5,10.5-2,14.5-3.6c1-0.5-0.6-7-0.6-7c-4,2-12.1,4.4-18.9,5.5c0,0.1,0.1,0.2,0.1,0.4
				c1.2,0.6,2.4,1.4,3.5,2.6C93.2,83,93.7,83.8,94.1,84.5z"/>
		</g>
		<g>
			<path d="M77.6,82.1l-32.9,5.6c-1.3,0.2-2.6,0.2-3.8,0.2H23.6l1.3,6.6l17.5,0.8c1.3,0.2,2.7,0.2,4-0.1l22.5-3.9
				c3.1-1,4.8-1.9,4.9-2.9c0.6-1.6,1.4-3.1,2.6-4.4c0.3-0.5,0.7-1,1.1-1.5C77.4,82.2,77.5,82.2,77.6,82.1z"/>
		</g>
		<g>
			<path d="M76.2,96.8c-1.9-0.7-3.8-0.8-5.9-0.2l-23.7,4.2c-1.1,0.2-2.1,0.2-3.2,0.1l-17.3-1l1.1,5.4l18.9,1.7
				c1.2,0.3,2.4,0.3,3.6,0l28.8-5.1c1-0.3,1.6-0.7,1.8-1.2c-1.1-0.6-2.1-1.3-3-2.3C76.8,97.9,76.5,97.4,76.2,96.8z"/>
		</g>
		<g>
			<path class="st1" d="M78.1,82l-0.5,0.1c-0.1,0.1-0.2,0.2-0.3,0.3c-0.4,0.5-0.7,1-1.1,1.5C76.8,83.2,77.4,82.6,78.1,82z"/>
		</g>
		<g>
			<path class="st2" d="M66,165.5c-7,0-12.5-0.5-13-0.5c-1-0.1-1.8-1-1.7-2c0.1-1,1-1.8,2-1.7c0.2,0,23.2,2,35.1-2.2
				c1-0.3,2,0.2,2.4,1.1c0.3,1-0.2,2-1.1,2.4C83.1,164.9,73.6,165.5,66,165.5z"/>
		</g>
		<g>
			<g>
				<polygon points="81.2,198.5 76.6,200.4 78.2,202.2 82.8,200.2 				"/>
				<polygon points="75.5,209.2 74.5,211.3 79.8,208.7 83.1,201 78.3,203.2 				"/>
				<polygon points="72.1,209.5 73.3,211.4 74.5,208.9 77.4,202.7 75.7,200.9 				"/>
			</g>
		</g>
	</g>
</g>
</svg>
