<?xml version="1.0" encoding="utf-8"?>
<!-- Generator: Adobe Illustrator 21.1.0, SVG Export Plug-In . SVG Version: 6.00 Build 0)  -->
<svg version="1.2" baseProfile="tiny" id="圖層_1"
	 xmlns="http://www.w3.org/2000/svg" xmlns:xlink="http://www.w3.org/1999/xlink" x="0px" y="0px" viewBox="0 0 577 250"
	 overflow="hidden" xml:space="preserve">
<g>
	<g>
		<path fill="#FFFFFF" d="M240.3,81.4c0-6.3,0-6.8-0.1-8c-0.1-1.4-0.4-2.1-1.5-2.3c-0.4-0.1-0.9-0.1-1.3-0.2c-0.4,0-0.8-0.1-0.8-0.4
			c0-0.3,0.3-0.4,0.9-0.4c2.3,0,4.2,0.1,5.9,0.1c0.9,0,10.8,0,11.4,0c0.8,0,1.5-0.1,2-0.2c0.3-0.1,0.5-0.1,0.7-0.1
			c0.2,0,0.3,0.2,0.2,0.4c0,0.3-0.2,1-0.3,2c-0.1,0.9-0.2,2.2-0.3,3.7c0,0.5-0.2,0.7-0.4,0.7c-0.3,0-0.4-0.2-0.4-0.6
			c0-0.5,0-0.7-0.2-1.2c-0.2-0.9-0.8-1.5-2.6-1.6c-1.4-0.1-5-0.2-6.3-0.2c-0.2,0-0.3,0.1-0.3,0.4v8.8c0,0.3,0,0.5,0.3,0.5
			c1.1,0,3.8,0,5.4,0c2.1-0.1,2.6-0.1,3.2-0.9c0.2-0.4,0.3-0.5,0.5-0.5c0.2,0,0.3,0.3,0.3,0.5c0,0.4-0.2,1.8-0.3,3.1
			c0,0.9-0.1,2.8-0.1,3.3c0,0.4,0,0.8-0.3,0.8c-0.2,0-0.4-0.2-0.4-0.7c0-0.3-0.1-0.5-0.1-0.9c-0.2-1.1-0.7-1.7-2.6-1.9
			c-1.1-0.1-4.5-0.1-5.6-0.1c-0.2,0-0.2,0.2-0.2,0.5v2.7c0,3.7,0,6.2,0.2,7.8c0.1,1.1,0.3,1.9,1.8,2.1c0.5,0.1,0.9,0.1,1.3,0.2
			c0.6,0,0.9,0.1,0.9,0.4c0,0.2-0.1,0.4-0.9,0.4c-2.2,0-2.5-0.1-6.6-0.1c-2.8,0-5.1,0.1-6,0.1c-0.6,0-0.8-0.2-0.8-0.4
			c0-0.2,0.1-0.4,0.7-0.4c0.4,0,0.6-0.1,1-0.2c1-0.2,1.2-1.2,1.4-2.8c0.2-2.1,0.2-3.8,0.2-7.6V81.4z"/>
		<path fill="#FFFFFF" d="M275,87.2c0,5.4,0.8,7.6,3,9.1c1.6,1.1,2.9,1.1,3.9,1.1c1.2,0,2.9-0.3,4.3-1.4c2.2-1.9,2.2-5.9,2.2-10
			v-4.7c0-5.7,0-6.7-0.1-8c-0.1-1.5-0.4-2.1-1.7-2.4c-0.4-0.1-0.7-0.1-1.4-0.2c-0.5,0-0.7-0.2-0.7-0.4c0-0.2,0.2-0.4,0.9-0.4
			c2.2,0,4.6,0.1,5.2,0.1c0.7,0,3.2-0.1,5.1-0.1c0.6,0,0.8,0.1,0.8,0.4c0,0.2-0.2,0.4-0.7,0.4c-0.4,0-0.7,0-1.2,0.2
			c-1.1,0.2-1.4,0.8-1.5,2.4c-0.1,1.2-0.1,2.3-0.1,8v3.8c0,4.4-0.2,9.2-4,12.3c-2.4,2-5.4,2.6-8.1,2.6c-3.4,0-6.8-0.5-9.3-2.6
			c-2.1-1.7-3.6-4.6-3.6-10.1v-5.9c0-6,0-7.1-0.1-8.4c-0.1-1.1-0.3-1.6-1.2-1.9c-0.4-0.2-1.3-0.2-1.7-0.3c-0.6,0-0.8-0.2-0.8-0.4
			c0-0.2,0.3-0.4,1-0.4c1.7,0,5.6,0.1,5.9,0.1c0.3,0,4.9-0.1,6.3-0.1c0.7,0,0.9,0.1,0.9,0.4c0,0.3-0.2,0.4-0.7,0.4
			c-0.4,0-0.9,0.1-1.3,0.2c-1.1,0.2-1.3,1.1-1.4,2.3c-0.1,1.2-0.1,3.1-0.1,8V87.2z"/>
		<path fill="#FFFFFF" d="M313.5,88.2c0,3.9-0.1,6.7,0.5,7.5c0.5,0.7,1.3,0.9,4.5,0.9c2.1,0,3.4,0,4.5-0.6c0.9-0.4,1.6-1.4,2-3.3
			c0.1-0.4,0.2-0.7,0.5-0.7c0.3,0,0.3,0.2,0.3,0.7c0,0.9-0.4,4.6-0.8,5.7c-0.3,1-0.6,1.1-2.2,1.1c-5.4,0-9-0.2-13.1-0.2
			c-1.8,0-3.9,0.1-6.1,0.1c-0.5,0-0.9-0.1-0.9-0.4c0-0.2,0.2-0.4,0.8-0.4c0.5,0,0.9-0.1,1.3-0.2c1.4-0.2,1.4-0.9,1.6-4
			c0.1-1.6,0.1-3.9,0.1-6.3v-6.8c0-6.3,0-7-0.1-8.3c-0.1-1.1-0.3-1.7-1.3-2c-0.4-0.1-0.9-0.2-1.5-0.2c-0.4,0-0.8-0.1-0.8-0.4
			c0-0.3,0.4-0.4,1.2-0.4c2.2,0,4.2,0.1,5.8,0.1c0.4,0,5.2-0.1,6.6-0.1c0.7,0,0.9,0.1,0.9,0.4c0,0.4-0.4,0.4-0.9,0.4
			c-0.4,0-0.8,0-1.3,0.2c-1.1,0.2-1.3,0.9-1.4,2.3c-0.1,1.2-0.1,2-0.1,8.4V88.2z"/>
		<path fill="#FFFFFF" d="M335.9,81.4c0-6,0-7.2-0.1-8.4c-0.1-1.1-0.5-1.8-1.4-1.9c-0.3-0.1-0.7-0.1-1.2-0.2c-0.5,0-0.7-0.2-0.7-0.4
			c0-0.2,0.2-0.4,0.9-0.4c1.6,0,5.4,0.1,5.7,0.1c0.4,0,4.9-0.1,6.3-0.1c0.7,0,0.9,0.2,0.9,0.4c0,0.3-0.4,0.4-0.7,0.4
			c-0.4,0-0.6,0-1.1,0.1c-1,0.2-1.4,0.7-1.5,2.1c-0.1,1.2-0.1,2.3-0.1,8.3v6.8c0,3.1,0,6.7,0.2,8.3c0.1,1,0.3,1.7,1.5,2
			c0.5,0.1,1.2,0.2,1.7,0.2c0.7,0,0.8,0.2,0.8,0.4c0,0.2-0.2,0.4-0.8,0.4c-2.6,0-6.8-0.1-7.2-0.1c-0.2,0-4.3,0.1-5.6,0.1
			c-0.6,0-0.9-0.1-0.9-0.4c0-0.3,0.3-0.4,0.8-0.4c0.4,0,0.8-0.1,1.2-0.2c0.8-0.1,1.1-1,1.2-2.1c0.2-1.6,0.2-4.4,0.2-8.2V81.4z"/>
		<path fill="#FFFFFF" d="M388.3,81.4c0-6.3,0-6.8-0.1-8c-0.1-1.4-0.4-2.1-1.5-2.3c-0.4-0.1-0.9-0.1-1.3-0.2c-0.4,0-0.8-0.1-0.8-0.4
			c0-0.3,0.3-0.4,0.9-0.4c2.3,0,4.2,0.1,5.9,0.1c0.9,0,10.8,0,11.4,0c0.8,0,1.5-0.1,2-0.2c0.3-0.1,0.5-0.1,0.7-0.1
			c0.2,0,0.3,0.2,0.2,0.4c0,0.3-0.2,1-0.3,2c-0.1,0.9-0.2,2.2-0.3,3.7c0,0.5-0.2,0.7-0.4,0.7c-0.3,0-0.4-0.2-0.4-0.6
			c0-0.5,0-0.7-0.2-1.2c-0.2-0.9-0.8-1.5-2.6-1.6c-1.4-0.1-5-0.2-6.3-0.2c-0.2,0-0.3,0.1-0.3,0.4v8.8c0,0.3,0,0.5,0.3,0.5
			c1.1,0,3.8,0,5.4,0c2.1-0.1,2.6-0.1,3.2-0.9c0.2-0.4,0.3-0.5,0.5-0.5c0.2,0,0.3,0.3,0.3,0.5c0,0.4-0.2,1.8-0.3,3.1
			c0,0.9-0.1,2.8-0.1,3.3c0,0.4,0,0.8-0.4,0.8c-0.2,0-0.4-0.2-0.4-0.7c0-0.3-0.1-0.5-0.1-0.9c-0.2-1.1-0.7-1.7-2.6-1.9
			c-1.1-0.1-4.5-0.1-5.6-0.1c-0.2,0-0.2,0.2-0.2,0.5v2.7c0,3.7,0,6.2,0.2,7.8c0.1,1.1,0.3,1.9,1.8,2.1c0.5,0.1,0.9,0.1,1.3,0.2
			c0.6,0,0.9,0.1,0.9,0.4c0,0.2-0.1,0.4-0.9,0.4c-2.2,0-2.5-0.1-6.6-0.1c-2.8,0-5.1,0.1-6,0.1c-0.6,0-0.8-0.2-0.8-0.4
			c0-0.2,0.1-0.4,0.7-0.4c0.4,0,0.6-0.1,1-0.2c1.1-0.2,1.2-1.2,1.4-2.8c0.2-2.1,0.2-3.8,0.2-7.6V81.4z"/>
		<path fill="#FFFFFF" d="M414,84.9c0-7.8,5.2-15.4,16.6-15.4c9.9,0,16.1,6.6,16.1,14.5c0,9.1-6.1,16-16.3,16
			C418.9,100,414,91.8,414,84.9z M438.9,85.8c0-6.5-2.7-13.8-9.6-13.8c-3.6,0-7.6,2-7.6,11.2c0,7.3,3.1,14.4,9.8,14.4
			C434,97.5,438.9,96.5,438.9,85.8z"/>
		<path fill="#FFFFFF" d="M458.2,81.4c0-6-0.1-6.8-0.1-8c-0.1-1.6-0.5-2.1-1.5-2.3c-0.6-0.1-1.2-0.1-1.6-0.2c-0.5,0-0.7-0.2-0.7-0.4
			c0-0.2,0.3-0.4,0.9-0.4c1.7,0,5.4,0.1,5.9,0.1c0.7,0,4.5-0.1,6.3-0.1c3.7,0,6.2,0.4,7.9,1.3c1.9,1,3.5,3,3.5,5.9
			c0,3.3-1.9,5.8-5.2,7.8c2.4,3.4,5.2,7.6,7.6,10.3c2.1,2.3,3,3,4.1,3.1c0.4,0.1,0.7,0.1,1,0.1c0.4,0,0.7,0.2,0.7,0.4
			c0,0.4-0.4,0.4-0.8,0.4h-3.5c-4,0-5.7-0.4-7.1-1.3c-1.2-0.7-2.5-2.4-4-4.9c-1.8-3-2.7-4.5-3.4-5.6c-0.1-0.1-0.3-0.2-0.5-0.2h-2.6
			c-0.2,0-0.3,0.1-0.3,0.3v2c0,3.1,0,4.9,0.2,6.5c0.1,1,0.4,1.9,1.5,2.1c0.5,0.2,1,0.2,1.7,0.2c0.6,0,0.7,0.2,0.7,0.4
			c0,0.2-0.3,0.4-0.8,0.4c-2.6,0-6.8-0.1-7.1-0.1c-0.5,0-4.2,0.1-5.6,0.1c-0.6,0-0.8-0.1-0.8-0.4c0-0.3,0.3-0.4,0.7-0.4
			c0.4,0,0.9-0.1,1.3-0.2c0.8-0.2,1.1-0.9,1.2-2.2c0.2-1.6,0.2-4.4,0.2-8.1V81.4z M464.9,84c0,0.3,0.1,0.5,0.4,0.6
			c0.7,0.4,1.9,0.5,3,0.5c1,0,1.8-0.2,2.4-0.6c0.8-0.6,1.5-2.3,1.5-4.9c0-5.5-3.5-7-5.5-7c-0.6,0-1.3,0-1.6,0.2
			c-0.2,0.1-0.2,0.1-0.2,0.4V84z"/>
		<path fill="#FFFFFF" d="M498.6,87.2c0,5.4,0.8,7.6,3,9.1c1.6,1.1,2.9,1.1,3.9,1.1c1.2,0,2.9-0.3,4.3-1.4c2.2-1.9,2.2-5.9,2.2-10
			v-4.7c0-5.7,0-6.7-0.1-8c-0.1-1.5-0.4-2.1-1.7-2.4c-0.4-0.1-0.7-0.1-1.4-0.2c-0.5,0-0.7-0.2-0.7-0.4c0-0.2,0.2-0.4,0.9-0.4
			c2.2,0,4.6,0.1,5.2,0.1c0.7,0,3.2-0.1,5.1-0.1c0.6,0,0.8,0.1,0.8,0.4c0,0.2-0.2,0.4-0.7,0.4c-0.4,0-0.7,0-1.2,0.2
			c-1,0.2-1.4,0.8-1.5,2.4c-0.1,1.2-0.1,2.3-0.1,8v3.8c0,4.4-0.2,9.2-4,12.3c-2.4,2-5.4,2.6-8.1,2.6c-3.4,0-6.8-0.5-9.3-2.6
			c-2.1-1.7-3.6-4.6-3.6-10.1v-5.9c0-6,0-7.1-0.1-8.4c-0.1-1.1-0.3-1.6-1.2-1.9c-0.4-0.2-1.3-0.2-1.7-0.3c-0.6,0-0.8-0.2-0.8-0.4
			c0-0.2,0.3-0.4,1.1-0.4c1.7,0,5.6,0.1,5.9,0.1c0.3,0,4.9-0.1,6.3-0.1c0.7,0,0.9,0.1,0.9,0.4c0,0.3-0.2,0.4-0.7,0.4
			c-0.4,0-0.9,0.1-1.3,0.2c-1.1,0.2-1.3,1.1-1.4,2.3c-0.1,1.2-0.1,3.1-0.1,8V87.2z"/>
		<path fill="#FFFFFF" d="M561.1,94.5c0.3,2.5,0.7,3.5,2,3.9c0.8,0.2,1.7,0.3,2.2,0.4c0.5,0,0.7,0.1,0.7,0.4c0,0.3-0.3,0.4-0.9,0.4
			c-3.2,0-6.4,0-10.8-0.2c-0.7,0-0.9-0.3-0.9-0.5c0-0.2,0.2-0.3,0.4-0.4c0.6-0.2,0.7-0.5,0.5-2.2l-1.4-13.9l-8,15
			c-1,2-1.3,2.2-1.6,2.2c-0.4,0-0.7-0.4-1.7-2.1c-1.4-2.2-3.7-6.6-5.2-9.1c-0.7-1.1-2.4-4.3-3.1-5.6l-1.1,11
			c-0.2,1.7-0.2,2.5-0.2,3.1c0,1.1,0.4,1.6,1.4,1.8c0.6,0.1,0.9,0.2,1.4,0.2c0.6,0,0.7,0.1,0.7,0.4c0,0.3-0.2,0.4-0.8,0.4
			c-1.7,0-3.8-0.1-5-0.1c-1.2,0-3,0.1-4.5,0.1c-0.4,0-0.9,0-0.9-0.4c0-0.2,0.2-0.4,0.8-0.4c0.3,0,0.7,0,1.2-0.1
			c1.1-0.2,1.5-1.1,1.9-3.7l3.5-23.9c0.2-1.2,0.4-1.5,0.8-1.5c0.4,0,0.7,0.4,1.5,1.6l11.1,18.6l10.7-18.8c0.6-1,0.9-1.4,1.3-1.4
			c0.4,0,0.6,0.5,0.7,1.5L561.1,94.5z"/>
	</g>
	<path fill="#FFFFFF" d="M442.8,138.2c0.3-3.5,0.7-7.1,1-10.6c0.1-1,0.6-1.1,1.3-0.9c0.8,0.2,1.7,0.4,2.4,0.9c2.4,1.5,4.7,3.1,7,4.7
		c1.3,0.9,1.5,2.8,0.5,4c-0.7,0.8-1.5,1.5-2.2,2.2c-1.5,1.4-2,3.1-1.9,5.1c0,1.3,1,0.8,1.4,1.3c0.7,1,1.1,0.1,1.4-0.3
		c0.7-0.9,1.5-1.6,2.1-2.6c0.8-1.4,2.6-2.3,4-3.4c0.1-0.1,0.7,0.2,0.8,0.4c0.7,1.1,1.5,2.3,1.9,3.5c0.4,1.1,0.5,2.1,1.4,3
		c0.8,0.8,0.7,2.1-0.1,3.1c-0.7,0.9-1.5,0.8-2.4,0.6c-0.2,0-6.2,0.3-6.3,0.4c-0.2,0.1-0.4,0.5-0.6,0.5c-1.1,0.2-2.5-0.5-3.1,0.9
		c-0.4,1-0.3,2.2-0.4,3.3c-0.2,1.7-0.5,3.4-0.7,5.2c0,0.2,0.3,0.7,0.6,0.8c0.3,0.1,0.9-0.2,0.9-0.4c0.3-1.9,2.6-2.4,2.9-4.3
		c0-0.2,0.7-0.2,1-0.3c1.6-0.8,1.8-0.7,2.7,1c0.6,1.2,1.4,2.2,1.4,3.8c0,0.7,1.1,1.4,1.3,2.1c0.2,0.7,0.8,1.7-0.7,2.1
		c-0.9,0.3-1.7,0.8-2.8,0.8c-1.7-0.1-3.4-0.1-5.1,0c-1.5,0-2.1,0.7-2.2,2c-0.1,2.1,0.1,4.3-0.8,6.3c-0.2,0.5-0.2,1.3,0,1.9
		c0.2,0.6,0.7,1.3,1.2,1.4c1.5,0.2,3.3,0.5,4.6-0.1c1-0.4,2.4-0.8,2.9-2.5c0.5-1.5,2.4-2.7,3.7-3.9c0.8-0.8,2-0.7,2.6,0.2
		c1.1,1.7,2,3.6,2.9,5.5c0.5,1-0.5,2.3-1.7,2.4c-3.4,0.3-6.8,0.5-10.2,0.8c-1.2,0.1-2.5,0.3-3.7,0.4c-0.9,0.1-2-1.3-2.8,0.3
		c-0.1,0.1-1.4-0.6-1.8-0.3c-0.9,0.7-1-0.4-1.5-0.4c-1.3-0.1-1.7,0.1-1.7,1.3c0.1,2.9-0.2,5.8,0.7,8.7c0.8,2.6,2.4,3.4,4.4,1.7
		c0.5-0.4,1.1-1.7,1.1-1.8c-1-0.7-0.4-1.2,0.2-1.7c0.7-0.6,1,0,1.6,0.2c1.8,0.7,3.6,1.4,5.5,1.8c2.9,0.7,3.8,1.5,2.8,4
		c-0.9,2.2-0.6,4.3-0.6,6.4c-0.1,3.9,0,7.8,0,11.7c0,0.7-0.2,1.4,0,1.9c0.2,0.7,0.7,1.5,1.2,1.7c0.6,0.2,1.6-0.1,2-0.5
		c1.6-1.6,2.9-3.5,4.5-5.1c0.8-0.8,1.8-1.9,2.7-1.9c1.2,0.1,1.2,1.6,1.5,2.7c0.2,0.9,1.1,1.6,1.6,2.5c0.5,0.8,1,1.7,1.3,2.6
		c0.2,0.7,0.3,1.5-1,1.5c-4.2,0.2-8.4,0.5-12.6,0.7c-0.7,0-1.2,0-1.2,1c-0.1,3.7-1.2,7.3-0.8,11c0.1,1.1-0.2,2.2,0.6,3.3
		c0.7,0.9-0.5,3.3-1.7,4.2c-0.9,0.7-1.9,1.2-2.7,2c-2.2,2-4.7,1.8-6.4-0.8c-1.5-2.3-2.4-4.9-4.5-6.8c-0.2-0.2-0.1-1,0.2-1.3
		c0.4-0.4,1-0.7,1.6-0.8c1.1-0.2,2.3-0.2,3.4-0.3c0.3-1.7,0.6-3.4,0.9-5.1c0.2-1.6-0.5-3.3,0.5-4.9c0.1-0.1-0.2-0.6-0.3-0.6
		c-2.2,0.3-4.6-0.8-6.8,0.6c-0.5,0.3-1.3,0.1-1.9,0.1c-2.1,0.2-4.3-0.6-6.4,0.7c-0.2,0.1-0.8-0.5-1.2-0.7c-0.5,1-1.7,0.5-2.3,0.9
		c-0.4,0.3-0.4,1.4-0.4,2.1c0,2.5-0.1,4.9,0,7.4c0,1.1-0.6,1.9-1.4,2c-2.9,0.3-4.9,2.6-7.7,3.3c-0.6,0.1-1.1,0.6-1.7,0.7
		c-1.6,0.2-2.5-0.7-1.7-1.9c1.4-2.2,1.4-4.4,1.6-6.8c0.1-1.7,0.9-3.3,0.8-5.2c-0.2-1.8-0.1-1.8-2-1.7c-0.6,0-1.2,0.2-1.8,0.3
		c-1,0.2-2,0.5-2.9,0.4c-1.1,0-1.7-0.7-1.9-1.9c-0.2-1.2,0.7-1.1,1.4-1.3c0.7-0.2,1.4-0.5,2.1-0.6c1.4-0.1,2.9,0,4.3-0.1
		c0.3,0,0.8-0.6,0.8-0.9c0.1-1.7,0-3.4,0.1-5.1c0.1-1.2-0.6-2.6,0.6-3.7c0.1-0.1,0.2-0.5,0.1-0.7c-1.7-3.6-0.3-7.4-0.8-11
		c-0.2-1.3,0.4-2.7-0.7-4c-0.6-0.8,1-2.3,2-1.7c1.7,1,3.7,0.9,5.4,2.1c2.4,1.7,5,0.6,7.5,0c0.2-0.1,0.6-0.5,0.6-0.8
		c0-3.1,0.1-6.3,0-9.4c0-0.8-0.4-1.9-2-0.9c-0.9,0.6-2.5,0-3.8,0.1c-1.3,0.1-2.6,0.1-4,0.6c-2,0.7-4.5,0.4-6.3-1.5
		c-0.2-0.2-0.2-0.7-0.2-1c0-0.1,0.4-0.4,0.6-0.4c1.7,0,3.4,0,5.1,0c1.4,0,2-0.7,2.1-2.1c0.1-1.4,0-2.9,0-4.3c0-1.4,0.5-3.3-0.3-4.1
		c-0.7-0.7-2.6-0.4-4-0.4c-0.8,0-1.2-0.1-1.2-1c0-0.9,0.1-1.6,1.2-1.3c1.5,0.3,2.7-0.3,3.9-0.9c0.8-0.4,1.8-1.2,0.6-2.4
		c-0.4-0.4-0.2-1.5-0.3-2.2c0-1.1,0.6-2.1,0.1-3.3c-0.4-1.1,0-2.6-0.1-3.9c-0.1-0.7-0.5-1.4-1-1.9c-0.2-0.2-1,0.4-1.6,0.4
		c-1.5,0-3,0-4.4-0.3c-0.6-0.1-1.9-0.1-1.6-1.6c0.3-1.1,0.7-1.9,2-1.9c1.4,0,2.9,0,4.3,0c2.2,0,2.9-0.8,3.1-3
		c0.2-2.2-0.1-4.3-1.1-6.2c-0.5-0.9-0.5-1.7-0.4-2.6c0.1-1.1,1.3-1.5,2.4-1c2.6,1.1,5.1,2.3,7.9,2.6c1.4,0.2,1.9,1.2,2.7,1.9
		c0.2,0.2,0,0.9-0.2,1.3c-0.7,1.3-1.5,2.5-2.2,3.8c-1.1,2.1-0.8,2.5,1.3,2.5c0.4,0,0.8,0.1,1.2,0c1-0.3,2.3-0.4,3-1.1
		c0.5-0.4,0.2-1.7,0.2-2.6c0-1.4,0-2.9,0-4.3C443,138.2,442.9,138.2,442.8,138.2z M435.2,158.5c0,0,0.1,0,0.1,0c0,1.8,0,3.6,0,5.4
		c1.9,0.1,3.8,0.2,5.7,0.3c0.4,0,1.1-0.2,1.2-0.5c0.5-1.1,1.5-2.4,0.8-3.5c-1.3-1.9-0.6-4-0.7-5.9c-0.1-3.3,0-3.3-3.5-3.3
		c-0.5,0-1,0-1.6,0c-0.7,0-1.2,0.1-1.2,1c-0.1,0.8-0.6,1.6-0.7,2.4C435.2,155.6,435.2,157.1,435.2,158.5z M437.4,177.4
		c1.3,0,1.9-0.1,2.4,0c1.4,0.2,1.8-0.2,1.7-1.7c-0.1-2.2-0.2-4.4,0.1-6.6c0.4-2.8,0.6-2.8-2.1-2.6c-1.2,0.1-2.4,0.5-3.6,0.8
		c-0.3,0.1-0.7,0.4-0.7,0.7c-0.3,1.8-0.5,3.7-0.8,5.5c-0.3,1.4,0.5,2.5,1,3.5C435.7,177.5,437.2,177.4,437.4,177.4z M450.1,210.5
		c0-1.2,0-2.3,0-3.5c-0.1-1.6-0.7-2.1-2.4-2.2c-2-0.1-2.3-0.1-2.2,1.8c0.1,0.9-1.4,1.2-0.5,2.3c0.5,0.5,0.3,1.7,0.3,2.6
		c0,0.9,0,1.8,0,2.7c0,0.2,0.1,0.6,0.3,0.6c0.4,0.2,0.4,1.2,1.4,0.5c0.7-0.5,2.4-0.1,2.7-0.7c0.5-0.9,0.2-2.2,0.3-3.4
		C450.1,211,450.1,210.8,450.1,210.5z M436,210.1c0-1.2,0-2.3,0-3.3c0-0.4-0.1-0.8-0.3-1c-0.7-0.7-3.4,0.1-3.6,1.1
		c-0.7,3-1.1,6-0.7,9c0.1,1.3,1.5,0.6,2.3,0.6c1.5,0.1,3.4-1.8,2.8-2.9C435.7,212.3,436.3,211.1,436,210.1z M444.6,198
		c0,0.6,0,1.3,0,1.9c0,0.3,0.3,1,0.4,0.9c1.5-0.2,3,0.6,4.4-0.5c1.2-0.9-0.5-1.6-0.2-2.5c0.3-0.8,0-1.8,0.1-2.7
		c0.2-1.3-0.6-1.4-1.6-1.4c-2.7,0-3.1,0.3-3.1,3C444.6,197.2,444.6,197.6,444.6,198z M432.1,198.6c0,0.9,0.1,1.8,0,2.7
		c-0.1,1.2,0.6,1.2,1.4,1.2c0.8-0.1,1.8,0.4,1.8-1.2c-0.1-1.6,0-3.3,0.3-4.9c0.3-1.7,0.5-1.7-1-1.7c-2.9,0-2.5-0.4-2.5,2.4
		C432.1,197.6,432.1,198.1,432.1,198.6z"/>
	<path fill="#FFFFFF" d="M205.7,215.8c0.2-2.6,0.5-5.2,0.4-7.7c-0.2-4.1-0.6-8.1-0.1-12.2c-1.4-2.3-0.4-4.7-0.4-7
		c0-1.3,0.2-2.5-1-3.5c-0.7-0.5-0.7-1.2,0-1.8c0.6-0.5,1-1.1,2.1-0.5c3.1,1.7,6.9,2.3,9.4,5.2c0.3,0.3,1,0.3,1.6,0.4
		c3.9,0.3,7.7,0.6,11.6,0.6c2.3,0,4.6-0.5,7-0.6c2.3-0.1,4.3-1.7,5.9-3.5c1-1.2,1.7-1.3,3.1,0c2.1,2,4.6,3.9,7.1,5.3
		c2.1,1.2,2.9,2.7,2.8,4.9c-0.1,3-0.3,6-0.6,9c-0.1,1.3-0.9,2.6-1,3.9c-0.1,1.2,0.6,2.4,0.6,3.6c-0.1,3.3-0.3,6.6-0.6,9.9
		c-0.2,1.6-0.3,3.5-1.2,4.7c-0.9,1.1-2.7,1.5-4.2,2c-1.4,0.5-3.1,0.3-4.3,1c-1.3,0.8-1.9,0.2-2.4-0.6c-0.5-0.8-0.8-1.7-1.1-2.6
		c-0.7-2.5-0.7-2.6-2.8-2.7c-3-0.2-6-0.4-9-0.5c-1.3,0-2.7,0.5-4,0.6c-1.3,0.1-2.6-0.3-3.9-0.2c-3,0.4-5.3,2.1-7.2,4.4
		c-0.6,0.7-1.1,1.6-1.8,2.2c-2.3,1.7-2.7,1.6-4.7-0.5c-1.5-1.5-2.3-3-2-5.3C205.5,221.5,205.5,218.6,205.7,215.8z M238.8,204.7
		c-1.8,0.1-3.8,0.3-5.8,0.5c-1.3,0.2-1,1.5-0.8,2c1.1,2.9,0.3,5.8,0.3,8.7c0,0.6-0.1,1.1-0.1,1.7c0,1.6,1.4,2.9,2.7,2.2
		c1.4-0.8,2.7-0.7,4-0.5c1.7,0.3,1.7-0.5,1.9-1.8c0.6-3.8-0.3-7.5-0.2-11.3C240.9,204.7,240.2,204.6,238.8,204.7z M223.1,213.8
		c0.1-1.7,0.3-3.4,0.3-5.2c0-1.7-0.1-1.7-2.3-1.6c-1.1,0-2.3-0.2-3.4-0.1c-0.4,0-1.1,0.5-1.1,0.8c-0.3,3.4-0.6,6.9-0.6,10.3
		c0,1.9,1.4,3,3.2,2.7c1.2-0.2,2.5-0.3,3.4-1c0.5-0.5,0.3-1.9,0.4-2.8C223,215.8,223,214.8,223.1,213.8z M232.7,197.1
		c-0.1,0-0.1,0-0.1,0c0.1,1.5,0.2,3,0.3,4.5c1.2-0.2,2.3-0.5,3.5-0.6c1.5-0.1,3.6,0.6,4.4-0.2c0.8-0.8,0.5-2.9,0.6-4.4
		c0.1-0.8,0.1-1.7,0.1-2.6c0-0.8-1.5-2.1-2.3-1.9c-0.6,0.1-1.3,0.4-1.9,0.5c-1.4,0.1-3.3-0.5-4,0.2c-0.8,0.7-0.4,2.6-0.6,4
		C232.7,196.8,232.7,196.9,232.7,197.1z M217.1,197.5c0,0.4-0.1,0.9-0.1,1.3c-0.2,3.7-0.2,3.7,3.6,3.9c0.6,0,1.2,0,1.7,0.1
		c1.2,0.3,1.5-0.5,1.4-1.4c-0.4-2.5-0.9-4.9-0.5-7.4c0-0.2-0.5-0.6-0.8-0.7C217.7,192.4,217.4,192.6,217.1,197.5z"/>
	<path fill="#FFFFFF" d="M275,192.7c0.1,0,0.3,0,0.4,0c4.6,0.8,8.5-1.2,12.2-3.3c1.4-0.8,2.5-2.1,3.6-3.3c0.4-0.4,0.4-1.2,0.5-1.8
		c0.1-0.9-0.2-2.2,0.2-2.8c1-1.2-0.7-1.7-0.3-2.8c0.3-0.9,0-1.9,0.1-2.9c0.1-1.2-0.5-1.3-1.4-1.3c-2.4-0.2-4.7,0.5-7.1,0.8
		c-2.2,0.2-2.3,0.5-2.2-2.1c0-0.5,0-1.1,0-1.6c-0.1-0.9,0.3-1.2,1.1-1.2c2.3,0,4.7-0.1,7,0.1c1.5,0.1,2.2-0.9,3-1.7
		c0.1-0.1,0-0.6-0.1-0.9c-0.4-2-0.8-3.9,0.2-5.8c0.2-0.4,0.3-1,0.3-1.5c0.2-3.6-0.1-3.8-3.6-4.2c-2.7-0.3-5.3-1-8-1.6
		c-1.4-0.4-2.2-2.3-1.6-3.6c0.2-0.3,1.1-0.6,1.3-0.4c1.7,1,3.6,0.6,5.5,0.8c4.3,0.4,8.1-1.5,12.2-2.5c0.6-0.1,1.1-0.7,1.6-1.2
		c2.6-2.6,5.4-5.1,7-8.6c0.4-0.9,1.3-0.9,1.7,0c1,2.5,1.9,5,2.9,7.5c0.2,0.6,0.6,1.2,0.6,1.8c0.1,1.5,0.6,3.4-0.1,4.3
		c-0.9,1.1-2.9,1.5-4.4,2c-1.2,0.4-2.7-0.6-3.8,0.7c-1.2,1.3-0.4,2.9-0.5,4.3c-0.2,2.2,0.4,4.5-0.8,6.7c-0.3,0.5-0.2,1.5,0.1,2
		c0.5,0.6,0.8,1.6,2.3,1c2.5-1,4.6-2.4,5.9-4.9c0.6-1.2,1.7-2.2,2.8-2.9c0.5-0.4,1.7-0.8,2.2,0.7c0.5,1.5,1.6,2.9,2.3,4.4
		c0.3,0.5,0,1.2,1,1.4c1.5,0.2,0.6,1.5,0.7,2.4c0.2,1.1-0.8,0.8-1.4,0.9c-1.2,0.3-2.5,1.4-3.8,0.8c-1.3-0.6-2.3,1.5-3.5,0.1
		c-1.6,1-3.6,0.6-5.3,1.1c-0.7,0.2-1.5,0.5-2.3,0.5c-0.9,0-1.2,0.3-1.1,1.2c0,2.2,0.1,4.4,0,6.6c-0.1,1.4,0.4,2.8-0.7,4.3
		c-0.5,0.8-0.7,2.6,0.4,3.8c0.2,0.2,0.3,0.6,0.2,0.7c-1.8,2,0,4,0,5.9c0.1,2.2-0.1,4.4,0.1,6.6c0.1,1,0.6,2,0.8,3
		c0.3,1.4-1.2,2.6-0.1,4.3c0.7,1.1,0.1,2.9,0.1,4.5c0.1,1.6-0.6,2.9-1.5,3.9c-1.8,2-3.9,3.9-5.8,5.9c-0.8,0.8-1.3,0.6-2-0.1
		c-1.8-1.8-4.1-2.9-5.9-4.5c-2.3-2-4.2-4.5-6.2-6.9c-0.3-0.3-0.2-1.2,0-1.6c0.2-0.3,1.1-0.6,1.4-0.4c2.1,1.2,4.4,0.7,6.7,0.8
		c2,0,1.4-0.2,2.1-2.7c0.6-2.1-0.7-3.6-0.4-5.5c0.4-2,0.1-4.1,0.1-6.2c0-1-1-1.8-1.8-1.2c-4.9,3.1-10.3,1.2-15.4,1.5
		c-1.6,0.1-3.3-1.2-4.9-1.9c-0.4-0.2-0.8-0.8-0.9-1.3c-0.1-0.7-0.4-1.7,1-1.7C271.5,192.7,273.2,192.7,275,192.7z"/>
	<path fill="#FFFFFF" d="M528.6,150.4c-0.1,2-0.2,4-0.3,6c-0.1,2,1.6,3.2,3.7,2.7c0.9-0.2,1.9-0.2,2.9-0.1
		c7.5,0.2,15.1-0.5,22.6,0.3c0.4,0,0.8,0.2,1.1,0c2.4-1.5,4.1-0.2,5.6,1.5c1.6,1.7,3.2,3.5,4.8,5.3c1.3,1.4,1.2,2.8-0.2,4.1
		c-4.3,4-9.1,7.2-13.9,10.5c-0.7,0.5-1.2,0.3-1.5-0.3c-0.3-0.5-0.6-1.3-0.4-1.5c3.1-3.1,3.9-7.1,4.9-11.1c0.4-1.4,0.8-2.7,0.8-4.2
		c0-1.3-0.6-1.9-2-2c-0.7-0.1-1.7-0.3-2.2,0.1c-0.9,0.7-1.3,0.3-2.2-0.1c-0.6-0.3-1.7,0.4-2.7,0.5c-2.1,0-4.3-0.2-6.4-0.2
		c-1.2,0-2.3-0.4-3.6,0.2c-0.7,0.3-1.8-0.9-3.1,0c-0.7,0.5-2.2,0.1-3.3,0.1c-1.2,0-2.5-0.2-3.8-0.1c-0.7,0-1.3,0.5-2,0.6
		c-2.4,0.5-4.8,0.6-7.2,0.5c-1.6-0.1-3.3,0.4-5,0.4c-1.6,0.1-3.4-0.5-4.8-0.1c-1.6,0.5-3.1,0.4-4.6,0.5c-1.8,0.1-3.6-0.7-5.4,0.2
		c-1.5,0.8-3.4-0.6-4.9,0.7c-0.1,0.1-0.5,0-0.7,0c-1,0-2.5-0.4-2.8,0.1c-0.6,0.8-0.4,2.1-0.5,3.2c-0.1,2-0.1,4-0.3,6
		c-0.2,1.7-0.5,3.3-1,4.9c-0.5,1.5-2,2.2-3.3,2.5c-1.1,0.2-2.2,1.5-3.6,0.5c-1.5-1-3.6-1.4-4-3.6c-0.1-0.7-0.4-1.5-0.2-2.1
		c0.4-1.1,0.6-2.3,1-3.4c0.4-1.3,1.8-2.2,2.6-3.4c2.3-3.1,4.4-6.3,5.4-10.1c0.1-0.4,0.5-0.8,0.8-0.9c0.5,0,1.3-0.3,1.5,0.6
		c0.1,0.4,0.6,0.9,0.6,1.2c-0.1,1.5,1,1.4,1.7,1.2c2.5-0.8,5.1-0.3,7.6-0.4c1.5-0.1,3-0.7,4.6-0.5c1.4,0.1,2.8-0.4,4.2-0.5
		c1.6-0.1,3.3,0.2,4.9,0.2c1.9,0,2.9-0.9,2.8-2.7c0-0.9-0.8-2-0.5-2.7c0.4-0.8,0.8-1.4,0.8-2.3c0-0.4,0.1-0.8,0-1.1
		c0-1.5,0.2-2.8,0.9-4.1c-1.2-1.1-0.5-2.6-0.5-3.9c0-1.5,0.1-3,0.2-4.5c0-0.7,0-1.5,0.2-2.2c0.3-0.9,1.6-1.1,2.4-0.4
		c1,0.8,1.4,2.6,3,2.6c1.6,0,1.8,1.7,3.4,1.9c1.7,0.1,2,2.1,2.1,3.7C528.9,146.4,528.7,148.4,528.6,150.4z"/>
	<path fill="#FFFFFF" d="M348,207.4c-0.3-1.9-0.8-3.9-0.9-5.8c-0.2-2,0.6-4.4-0.2-6.1c-1.2-2.4,0.3-4.3,0.2-6.4
		c-0.2-3.8,0.1-7.7-0.1-11.5c-0.5-10.9,1.4-21.7,0.9-32.6c0-0.8,0-1.6,0.8-2.2c0.6-0.5,1.4-0.7,1.6,0c0.2,0.7,0.5,0.9,1.1,1.3
		c2.4,1.5,4.7,3.3,7,5.1c1.5,1.2,1.6,2.6,0.4,4.2c-1.8,2.4-2.6,5-2.6,8c0,7-0.6,14.1,0.2,21c0.7,6.4,0.5,12.7,0.6,19
		c0.1,6.5,0,12.9,0,19.4c0,0.7-0.1,1.4,0,2.1c0.1,1.4-0.3,2.2-1.6,2.9c-2.5,1.2-4.9,2.8-7.3,4.3c-1.6,1.1-2.5,1.1-3.7,0
		c-1.9-1.8-3.7-3.7-5.6-5.5c-0.9-0.8-1.4-1.9-2.8-2.2c-0.8-0.1-1.7-1.2-1.2-2.2c0.3-0.7,1.1-1.4,1.8-1.8c1.5-0.7,3.1-1.4,4.7-1.6
		c2-0.2,3.7-1.1,4.6-2.7C346.9,212,348.5,210,348,207.4z"/>
	<path fill="#FFFFFF" d="M534.9,211.7c-2-0.1-4-0.2-6-0.3c-1.8,0-2.3,0.4-2.5,2.3c-0.1,1-0.1,2-0.1,3c-0.1,1.4,0,2.8-0.2,4.1
		c-0.2,1.3-0.6,2.5-0.9,3.8c-0.1,0.7-0.3,1.6-0.1,2.2c0.3,0.7,0.9,1.4,1.6,1.7c0.6,0.3,1.7,0.4,2.2,0.1c1.8-1.1,3.6-0.4,5.4-0.4
		c1.6,0,3-0.4,4.5-0.9c1.5-0.6,2.5-1.2,3.5-2.5c1.5-1.7,3.1-3.4,5.3-4.5c1.4-0.7,1.8,0.5,1.7,0.7c-0.2,2.1,0.8,3.9,1.3,5.8
		c0.4,1.2,1,2.4,1.3,3.6c0.1,0.6,0.3,1.7-1,1.5c-1.8-0.3-3.7,0.6-5.3-0.9c-0.2-0.2-0.8-0.2-1.1-0.1c-3.5,1.3-7.1,0.1-10.6,0.2
		c-1.7,0-3.3-0.1-5,0.5c-1.4,0.5-3-0.1-4.6,0.4c-2.2,0.8-4.8,0.6-7.2,0.5c-2.9-0.1-5.7,0.7-8.5,0.9c-2.5,0.1-4.5,1.4-6.9,1.5
		c-2,0.1-3.2-0.6-3.7-2.6c-0.2-0.7,0.2-2.1,0.9-2c1.7,0.2,3.3-0.4,5-0.6c1.5-0.1,3.2,0.4,4.3-0.2c1.3-0.6,2.7,0.5,3.8-0.9
		c0.3-0.3,1.4,0,2.2,0.1c0.8,0.1,1.1-0.3,1.1-1c0.1-2.9,0.5-5.8,0.3-8.6c-0.1-1.9-0.6-3.8-0.5-5.7c0-0.1-0.4-1.6-1.5-0.7
		c-0.2,0.2-0.7,0.3-1,0.2c-2.3-0.6-4.5,0.7-6.9,0.5c-0.8-0.1-1.1-0.3-1-1.1c0.1-0.5,0.1-1,0.1-1.5c-0.3-2.3,0.4-3.4,2.2-2.6
		c1.9,0.9,3.8,0.8,5.7,0.9c2.4,0.1,2.7-0.2,2.8-2.7c0.1-2,0.2-4,0.3-6c0-0.3,0.5-0.8,0.8-0.8c2.4-0.1,4.7,0.6,6.9,1.6
		c0.8,0.4,1.7,0.7,2.6,1c1.5,0.6,2.2,1.7,2.2,3.3c0,0.3-0.1,0.5,0,0.8c0.1,0.9-0.1,2.4,0.4,2.7c1.1,0.6,2.5-0.2,3.2-0.9
		c1.7-1.6,3.9-2.7,4.9-5c0.2-0.5,0.9-0.9,1.3-1.3c2-1.8,2.2-1.8,3.4,0.9c0.8,1.9,1.3,6.7,0.9,8.5c-0.1,0.3-0.7,0.6-1,0.6
		C539.2,211.9,537.1,211.8,534.9,211.7z"/>
	<path fill="#FFFFFF" d="M538.9,195.3c-1.7-0.3-3.7,0.5-4.9-1.6c-1.7,0-3.4,0-5,0c-0.5,0-0.9,0.4-1.4,0.3c-4.3-0.7-8.6,0.6-12.9,0.2
		c-0.8-0.1-1.4-0.1-1.8,1.1c-0.7,1.7-2.7,1.1-4,0.8c-0.6-0.1-1-0.3-1.6-0.1c-0.5,0.1-1.3-0.5-1.9-0.7c-1.7-0.4-2.8-1.6-2.6-3.3
		c0.1-1.7-0.3-3.4,0.9-5c0.5-0.7,0.5-2.1,0.1-2.9c-1-2.4-0.4-4.8-0.3-7.3c0-2.3,0.3-4.6-1-6.7c-0.5-0.8-0.4-1.6,0.4-2.3
		c0.8-0.7,1.7-0.8,2.3-0.2c1,1,2.1,0.4,3.2,0.6c1.4,0.3,3.3,0.2,4,1.1c1.5,1.7,3.3,1.5,5.1,1.6c3.4,0.2,6.8,0.2,10.1,0.5
		c2.8,0.2,5.1-0.8,7.2-2.5c1.6-1.3,2.7-1.2,4.1,0.1c1.8,1.7,3.6,3.4,6.2,4c0.8,0.2,1.5,0.9,1.3,1.9c-0.4,2,0.7,4.3-1,6
		c-0.1,0.1,0,0.2,0,0.4c-0.4,3.3-0.8,6.5-1.2,9.8c-0.1,0.7,0,1.5-0.1,2.2c-0.3,1.5-1.1,2.1-2.7,2
		C540.5,195.4,539.7,195.3,538.9,195.3z M521.1,190.8c0,0,0-0.1,0-0.1c2,0.1,4,0.3,6,0.2c2,0,4.1-0.3,6.1-0.4c0.8,0,1.1-0.2,1.1-1
		c0.2-4.3,0.4-8.5,0.6-12.8c0.1-2.3,0.2-1.9-1.9-2.1c-5.4-0.5-10.8,0.8-16.2,0c-0.1,0-0.2,0-0.4,0c-3-0.1-3.4,0.2-3.3,3.3
		c0,1.5,0.5,3.1,0.5,4.6c0,2.5-0.1,5-0.2,7.5C516,190.3,518.5,190.6,521.1,190.8z"/>
	<path fill="#FFFFFF" d="M177.6,226.9c-5-0.1-5.4-0.2-5.1-4.9c0.8-11.2,1.4-22.4,2-33.5c0-0.4-0.1-0.8-0.1-1.2
		c-0.4,0.2-0.8,0.5-1.3,0.7c-2.9,1.6-5.5,3.6-8.2,5.5c-2.3,1.6-5,3.3-8.2,2.9c-0.5-0.1-1.1-0.2-1.5-0.5c-0.4-0.3-1.4-0.8-0.2-1.5
		c1.2-0.7,2.2-1.7,3.5-2.1c3.9-1.5,7.5-3.3,9.7-7.1c3.4-2,4.4-5.9,6.8-8.7c1.6-1.8,2.3-4.5,3.3-6.8c0.4-1-0.2-1.6-1.3-1.3
		c-3.3,0.7-6.4,1.9-9.9,2c-2.1,0-4.1,0.9-6.1,1.7c-1,0.4-1.8,0.6-2.6-0.2c-1.1-1.1-1.8-2.5-1.4-4.1c0.2-0.9,1.1-1.6,2.2-1.5
		c2.4,0.4,4.6-0.2,6.8-1.1c0.7-0.3,1.7,0,2.5-0.1c2.3-0.1,4.8,0.1,7-0.5c2.5-0.7,4.6-2.4,6.1-4.7c0.1-0.2,0.2-0.5,0.4-0.7
		c0.6-0.6,1.3-1.2,1.9-1.7c0.5,0.9,1.4,0.7,2.1,1c2.5,1.1,5,2.5,7.4,3.8c1.7,0.9,1.4,0.9,0.9,3c-1.1,4.1-3.7,7.2-6.7,10
		c-2.3,2.2-4.6,4.6-6.8,6.9c-0.3,0.3-0.6,0.7-0.6,1c0.2,2.6-1.1,5.2,0.2,7.9c0.8,1.7,0,3.7,0.6,5.7c1,3.3,0.7,6.9,2,10.3
		c0.5,1.4,0.5,3.3,0.5,4.8c0.1,3.7,1.4,7.2,1.6,10.9c0.1,1.5-0.6,2.4-1.3,2.7C181.6,226.4,179.5,227.9,177.6,226.9z"/>
	<path fill="#FFFFFF" d="M210.3,152.7c0.1-0.9,0.1-1.7,0.2-2.6c0.1-1.6,0.1-1.5,2-0.9c1.8,0.6,3.6,1.2,4.9,2.7
		c0.2,0.3,0.7,0.5,1.1,0.5c2.9-0.2,5.8,1.1,8.8-0.2c1.2-0.5,2.8,0,4.2,0.1c2.6,0.1,4.8-0.8,6.7-2.6c0.7-0.6,1.1-1.3,1-2.2
		c-0.3-1.9,0.9-1.9,2.1-1.6c1,0.2,2.2,0.4,3,1.1c2.1,1.7,4.7,2.7,6.6,4.8c1.1,1.3,1,2.5,0.7,3.9c-0.2,0.8-0.7,1.5-0.8,2.2
		c-0.7,5.1-2,10.2-1.8,15.5c0,1-0.3,1.3-1.5,1.4c-2.6,0.2-4.8-1.3-7.3-1.4c-0.3,0-0.8-0.4-0.9-0.7c-0.9-3.2-3.8-2.5-5.5-2
		c-3.8,1-7.6,1.3-11.5,0.9c-1,1.2-2.8,0.2-4,2c-1.1,1.7-3.8,1-5.9,0.8c-0.2,0-0.6-0.6-0.6-0.9c0-2.6-0.9-5.2-0.5-7.9
		c0.4-3-0.4-5.9-0.9-8.9C210,155.6,210.2,154.1,210.3,152.7C210.2,152.7,210.2,152.7,210.3,152.7z M238.2,161.5c0.1-1,0.1-2,0.2-3
		c0-1,0.4-2.3-0.1-2.8c-0.8-1-2-0.2-2.9,0.4c-0.2,0.1-0.6,0-0.8,0c-4.5,0-8.9,0.1-13.4,0c-1.4,0-1.7,0.5-1.6,1.7
		c0.1,0.9-0.9,2-0.8,2.1c1.4,2.3,0,4.7,0.3,7c0.1,1.2,0.7,2.1,2,2.2c0.7,0,1.5,0.3,2.1,0.1c3.7-1.3,7.8-0.5,11.5-1.8
		c1-0.4,2.6,0.2,3.1-0.3c0.6-0.7,0.3-2.2,0.4-3.3C238.2,163,238.2,162.3,238.2,161.5z"/>
	<path fill="#FFFFFF" d="M383.2,215.4c0-2.3,0-4.2,0-6c0.1-2.1,2.1-3.4,3.6-2.1c1.4,1.3,2.7,1.4,4.2,1.2c1.5-0.1,2.9,0.5,4.4-0.7
		c1-0.7,2.6-0.6,3.9-0.9c0.4-0.1,0.8-0.4,1-0.7c1.3-1.6,1.3-1.6,3.1-0.8c0.9,0.4,1.7,0.8,2.8,0.8c3.1,0.1,3.6,0.6,3.5,3.8
		c-0.1,1.3-0.5,2.6-0.7,4c-0.2,1.2-0.1,2.4-0.6,3.6c-0.7,1.5-0.2,3.6-0.1,5.4c0.1,2.7-0.8,5-2.3,7.3c-0.6,0.9-1.1,0.9-1.7,0.9
		c-2.4,0-4.6-1.3-7.1-0.8c-0.2,0-0.5-1.2-0.9-1.3c-1.5-0.3-3-0.8-4.2,0.7c-1.6,2-4,1.6-6.1,2.1c-0.3,0.1-0.9-0.3-1.1-0.6
		c-0.4-0.6-0.8-1.4-0.8-2C384.5,224.5,382.6,219.8,383.2,215.4z M399.6,216.7c0-2.1,0-3.9,0-5.8c0-0.3-0.8-0.8-0.9-0.7
		c-1.8,1-3.9,1.3-5.9,1.8c-0.8,0.2-2,0.6-1.8,2.3c0.3,3.1,0,6.3,0.8,9.4c0.5,2,0.2,2.1,2.1,2.1c0.9,0,2,0.3,2.7-0.1
		c0.9-0.5,2-0.6,2.5-2.2C399.8,221.1,399.3,218.8,399.6,216.7z"/>
	<path fill="#FFFFFF" d="M328.3,191.2c1.2-3.2,0.4-7.7,0.5-12.2c0.1-4.4,0-8.8,0-13.2c0-1.5,0.5-1.7,2.4-1.2
		c1.2,0.3,2.6,0.4,3.8,0.9c2.6,0.9,3.7,2.5,3.7,5.4c0,3.3,0.1,6.6,0,9.9c-0.1,2.6,0.7,5.4-0.8,7.9c-0.8,1.4,0.7,2.7,0.2,4.3
		c-0.4,1.3-0.6,2.8,0.5,4.2c0.3,0.4-0.6,2.5-1.3,2.7c-2.2,0.7-4.4,1.3-6.4,2.6c-1,0.6-1.9-0.2-2-1.5
		C328.7,198.1,328.5,195.2,328.3,191.2z"/>
	<path fill="#FFFFFF" d="M535.9,154.8c-0.2-0.5-0.5-1-0.6-1.4c-0.1-0.4-0.4-1-0.3-1c2.3-1.9,3.1-4.7,5.1-6.8c2.8-3.1,4.2-7,5.9-10.6
		c0.8-1.7,1.1-1.9,2.8-0.8c0.9,0.6,1.8,1.3,2.5,2.1c1.1,1.3,2.1,2.7,3,4.1c0.4,0.6,1.2,1.6,1,2.1c-0.3,0.9-1.1,2.1-1.9,2.4
		c-2.7,0.9-4.6,2.9-6.9,4.3c-0.4,0.2-0.8,0.4-1.2,0.6c-2.6,1.3-5.4,2.4-7.6,4.5C537.2,154.5,536.6,154.5,535.9,154.8z"/>
	<path fill="#FFFFFF" d="M239.6,137.4c-3.2-0.3-7.2-0.7-11,1.1c-2.5-0.7-4.9,0.7-7.4,0.4c-1.6-0.2-3.1-0.9-4.7-1.1
		c-1.7-0.2-3.4-0.1-5.1-0.4c-0.6-0.1-1.2-0.6-1.6-1.2c-0.2-0.3,0-1.3,0.2-1.4c1.4-0.3,2.9-0.7,4.4-0.7c2.3,0,4.6,0.2,6.9,0.4
		c2,0.1,4,0.2,6,0.4c1.4-1.9,3.8,0.3,5.5-1.3c0.6-0.5,2.2,0.1,3.3,0.1c2.5,0.1,4.5-0.9,5.8-3.2c0.6-1,1.2-2.1,1.9-3
		c0.5-0.8,1.1-1.6,1.8-2.2c1.3-1,3-0.4,3.7,1.3c1,2.6,1.1,5.5,2.7,7.9c0.2,0.3,0,0.8,0,1.3c0,1-0.1,1.5-1.4,1.5
		c-1.6,0-3.2,0.4-4.8,0.5C243.9,137.7,242.2,137.5,239.6,137.4z"/>
	<path fill="#FFFFFF" d="M407.1,168.1c-2.4-1.7-4.6,0.3-6.9,0c-1.8-0.2-3.9,0-5.5,0.8c-1.7,0.8-3.2,0.5-4.8,0.7
		c-1.6,0.1-3.2,0-4.8,0.7c-1.4,0.6-3.2-0.5-4.8,0.8c-0.9,0.7-2.9-0.1-3.4-1c-0.5-0.9,0.1-2,1.2-2c3.4,0,6.7-1.4,10.2-0.8
		c1.6-1,3.4-0.7,5.1-0.8c1.6-0.1,3.2-0.6,4.8-0.7c1.9-0.2,2.7-1.8,3.6-3c1.2-1.6,2.3-3.2,3.5-4.8c0.7-0.9,2.3-0.7,2.7,0.3
		c0.9,2.4,1.7,4.8,2.4,7.2c0.3,1,0.3,2.1-1.5,1.9C408.4,167.2,407.7,167.8,407.1,168.1z"/>
	<path fill="#FFFFFF" d="M316.2,202c-1.1-0.6-2.3-0.9-3.1-1.6c-2.5-1.9-3.7-4.6-4-7.7c-0.1-1.2-0.1-2.3-1.1-3.3
		c-0.8-0.7-1-2-1.4-3.1c-0.3-0.9,1-2.2,2.1-1.9c2.9,0.8,6,1.5,8.6,2.9c3.2,1.8,4,5.7,3,9.4c-0.5,1.7-1.3,3.1-2.6,4.2
		C317.1,201.4,316.7,201.6,316.2,202z"/>
	<path fill="#FFFFFF" d="M507.6,148c-0.5,1-0.9,2.3-1.7,3.2c-0.7,0.8-2,1.2-3,1.7c-0.3,0.1-0.9-0.2-1.3-0.3c-2.5-1.1-4-3.2-4.2-5.8
		c-0.4-3.1-1-5.8-3.3-8.1c-0.2-0.2-0.1-0.7,0-1c0-0.1,0.4-0.3,0.6-0.2c4.1,0.7,8.2,1.3,11.2,4.7c0.9,1,1.4,1.9,1.3,3.3
		C507,146.3,507.4,147.1,507.6,148z"/>
	<path fill="#FFFFFF" d="M393.5,185.1c-3.4,0.3-6.8,0.6-10.2,0.8c-0.5,0-1,0.1-1.6,0c-0.3,0-0.8-0.2-0.9-0.4c-0.1-0.3,0.1-0.8,0.3-1
		c1.5-1.2,3.3-2.5,5.2-2.4c2.6,0.2,4.9-0.9,7.5-0.9c0.5,0,1.2-0.4,1.6-0.9c1.2-1.3,2.2-2.7,3.3-4.1c1.5-1.8,2.9-1.8,4,0
		c1.2,1.9,3.3,3.5,3.2,6.1c0,0.6,0.1,1.2-0.9,1.3C401.1,184,397.5,185.7,393.5,185.1z"/>
	<path fill="#FFFFFF" d="M183.2,144.1c-0.3,1.9,0.3,3.5-1.2,4.1c-2,0.7-3.8,2.3-6.1,1.8c-1.3-0.3-3.1-3.2-3.1-5
		c0-1.1,0.1-2.3,0.2-3.4c0.2-2,0.2-3.8-0.9-5.6c-0.1-0.2-0.4-0.5-0.4-0.7c0.2-1.2,0-2.9,0.7-3.6c1-0.9,2.4,0.5,3.3,1.1
		c1.8,1.2,3.3,2.9,4.9,4.5C182.7,139.4,183.9,141.8,183.2,144.1z"/>
	<path fill="#FFFFFF" d="M397.2,149.5c0.4,2.4-0.9,4-2.4,5.7c-1.2,1.4-2.5,1.1-3.9,1c-1.1-0.1-1.4-1.2-1.8-2.1
		c-0.5-1.5-1.4-2.8-1.4-4.5c0-2.4-0.5-4.7-2.5-6.4c-0.3-0.3-0.6-0.8-0.6-1.3c-0.1-0.6-0.2-1.4,0.8-1.3c0.8,0.1,1.6-0.1,2.5,0.5
		c1.7,1.1,3.7,1.7,5.5,2.6C396.1,144.9,397.6,146.6,397.2,149.5z"/>
	<path fill="#FFFFFF" d="M396.3,200c-2.8-0.5-6,0.5-9.1,1.2c-1,0.2-1.1-0.3-1.4-0.6c-0.2-0.3-0.2-1,0-1.3c1.3-1.4,2.7-2.6,4.8-2.5
		c0.8,0,1.6-0.1,2.3,0c1.8,0.2,2.9-0.4,3.6-2.2c0.6-1.5,1.2-3.3,2.9-4.1c0.9-0.4,1.6-1,2.4,0.3c1,1.6,2.1,3.4,3.6,4.2
		c1.1,0.6,1.1,1.1,1.1,1.9c0,0.8-0.2,1.1-1.1,1.5c-1.8,0.9-3.6,1.5-5.6,1.5C398.9,200,397.9,200,396.3,200z"/>
	<path fill="#FFFFFF" d="M190,187.9c2-0.6,3.5,0.9,5.3,2c2,1.1,2,3.2,2.8,4.8c0.8,1.6-0.3,2.9-0.9,4.2c-0.4,0.8-1,2.1-1.5,2.2
		c-1.8,0.1-3.6-0.3-5.4-0.7c-0.4-0.1-0.8-1.1-0.8-1.7c-0.1-1.3,0.1-2.6,0.2-3.9c0.1-2.9-0.1-3.3-3.1-4.5c-1-0.4-0.8-0.9-0.8-1.6
		c0-1,0.5-1.1,1.4-1C187.9,187.9,188.8,187.9,190,187.9z"/>
	<g>
		<g>
			<path fill="#FFFFFF" d="M78.9,220.8l1.3,1.7l4.8-2l0.3-1.5l-0.8-0.7L78.9,220.8z"/>
		</g>
		<g>
			<path fill="#FFFFFF" d="M104.6,44.6l-0.7-6.8L83,41.3l0.7,6.9C90.2,47.8,98.3,46.2,104.6,44.6z"/>
		</g>
		<g>
			<path fill="#FFFFFF" d="M84.8,54.5l0.7,7c6.2-0.8,15.7-2.8,21.8-4.7l-0.8-6.8L84.8,54.5z"/>
		</g>
		<g>
			<path fill="#FFFFFF" d="M108.8,68.6l-1-7.2c-6.2,2.3-15.7,5.1-21.9,6l1.2,6.5C94.3,73.4,108.6,68.7,108.8,68.6z"/>
		</g>
		<g>
			<path fill="#FFFFFF" d="M91.8,104.1l0.6,5.8c6.2-1.3,15.2-4.1,20.6-6.8c0.8-0.6-0.9-6.8-0.9-6.8C107.2,99,98.1,102.8,91.8,104.1z
				"/>
		</g>
		<g>
			<path fill="#FFFFFF" d="M92.7,115.9l0.9,5.7c7.1-1.6,15.9-4.2,20.9-7.8c1-0.8-1.1-5.6-1.1-5.6C108.1,111.2,99.1,114.5,92.7,115.9
				z"/>
		</g>
		<g>
			<path fill="#FFFFFF" d="M115.2,119.9c-0.5,0.4-14.4,5.8-20.7,7.8l1.1,5.6c6.2-1.6,15-3.7,20.4-7.6
				C116.6,125.1,115.2,119.9,115.2,119.9z"/>
		</g>
		<g>
			<path fill="#FFFFFF" d="M47.1,167.1c-0.6,1.7-0.9,3.7-0.6,6.2c0.4,5.7,2.7,10.1,6.7,13c4.1,2.1,17-0.6,21.4-4.2
				c-6.9,1.7-18.5,1.6-18.5,1.6c0.3-3.3-0.2-3.9-1.3-7C51.3,168.7,48.8,165.4,47.1,167.1z M48.6,174.9c0.1-1,0.4-1.5,1-1.7
				c0.5-0.1,1,0.1,1.7,0.9c0.6,0.8,1.1,1.8,1.4,3c0.3,1.2,0.4,2.3,0.2,3.3c-0.1,1-0.4,1.5-1,1.6c-0.4,0.1-1-0.2-1.7-0.9
				c-0.6-0.8-1-1.8-1.3-3C48.6,176.9,48.5,175.8,48.6,174.9z"/>
		</g>
		<g>
			<path fill="#FFFFFF" d="M49.7,173.3c-0.6,0.1-0.9,0.7-1,1.7c-0.1,0.9,0,2,0.3,3.3c0.3,1.2,0.8,2.2,1.3,3c0.6,0.7,1.2,1,1.7,0.9
				c0.6-0.1,0.9-0.6,1-1.6c0.2-1,0.1-2.1-0.2-3.3c-0.3-1.2-0.8-2.2-1.4-3C50.7,173.4,50.2,173.1,49.7,173.3z"/>
		</g>
		<g>
			<path fill="#FFFFFF" d="M109.4,139.3c-0.1-1.6-0.7-2.2-1.9-2.1c-1.8,0.3-2.8,1.5-2.9,3.6l0.1,11.7c1.9-1.5,3.5-3,4.7-4.5V139.3z"
				/>
		</g>
		<g>
			<path fill="#FFFFFF" d="M100.6,142.8c-0.4-1.3-1.5-1.8-3.1-1.6c-1.6,0.3-2.5,1.5-2.6,3.8V155c-0.4,1.9-1.7,3.6-3.7,5
				c2.6-1.1,5-2.2,7.1-3.3c1.4-1.5,2.2-3,2.2-4.6V142.8z"/>
		</g>
		<g>
			<path fill="#FFFFFF" d="M91.3,148.6c-0.1-2.7-0.8-3.9-2.1-3.8c-2.6-0.3-4.1,0.7-4.4,3.1v8.5c0.1,0.6-0.1,1.3-0.4,2
				c-0.3,0.8-0.3,1.5,0.4,2.2c0.9,0.6,2,1,3.4,0.8c1.3-1.3,2.2-2.8,2.6-4.3C91.3,154.4,91.5,151.6,91.3,148.6z"/>
		</g>
		<g>
			<path fill="#FFFFFF" d="M91.2,13.2c-1.9-1.1-4-2-6.2-2.8c5.4,3,8.9,7.1,10.5,12.4c1.5,5.3,3.3,7.5,5.1,6.7
				c0.7-1.2,0.4-3.5-0.8-6.8C98.5,19.3,95.6,16.2,91.2,13.2z"/>
		</g>
		<g>
			<path fill="#FFFFFF" d="M86.3,124.3l-0.9-6l-29.7,6.5c-2.1,0.4-4.2,0.4-6.3,0.1L31.2,122l0.6,3.6l17.5,5.4
				c2.1,0.4,4.2,0.5,6.2,0.1L86.3,124.3z"/>
		</g>
		<g>
			<path fill="#FFFFFF" d="M84.5,112.4l-0.9-6.5l-31,6.7c-2,0.4-3.9,0.4-5.8,0.3L29,111.1l1,4.8l17.8,3.3c1.9,0.3,3.9,0.2,6.1-0.3
				L84.5,112.4z"/>
		</g>
		<g>
			<path fill="#FFFFFF" d="M36.9,57.5l5.9-0.8l32.9-6.5l-1-6.9L38.8,50l-21.5,2.4l1.3,6.5L36.9,57.5z"/>
		</g>
		<g>
			<path fill="#FFFFFF" d="M44.4,62.5c-1.2,0.3-2.5,0.4-3.7,0.4l-21.1,0.8l1.3,7h19.6c1.7,0,3.3-0.2,4.9-0.6l32-7.3l-1-7.1
				L44.4,62.5z"/>
		</g>
		<g>
			<path fill="#FFFFFF" d="M21.9,75.6l1.5,7.1h19.8c1.2,0.1,2.3,0.1,3.6-0.2l32.5-6.4l-1-6.9l-33.7,6.2c-1.1,0.2-2.2,0.3-3.3,0.2
				H21.9z"/>
		</g>
		<g>
			<path fill="#FFFFFF" d="M67.1,153.7c-0.2-2.7-1.5-3.8-3.9-3.4c-3.3,0.3-5.1,1.7-5.2,4.3v4.5c0.3,1.3-0.1,2.5-1,3.7l7.7,0.4
				c1.4-0.2,2.3-1,2.4-2.4V153.7z"/>
		</g>
		<g>
			<path fill="#FFFFFF" d="M77,147.8c-2.6-0.1-4,1.5-4.2,4.6v7.4c0.1,1.2-0.5,2.4-1.9,3.6h4.2c3.5-1.2,5.1-2.6,4.9-4.1v-9.1
				C80,148.5,78.9,147.7,77,147.8z"/>
		</g>
		<g>
			<path fill="#FFFFFF" d="M51,136.8l-17.5-3.3l0.8,4.5l17.2,4.9c1.9,0.4,3.8,0.3,5.6-0.1l30.7-6.9l-0.7-5.2l-30.4,6.2
				C54.9,137.2,52.9,137.2,51,136.8z"/>
		</g>
		<g>
			<path fill="#FFFFFF" d="M90.4,29.5c0.6,1,1.5,1.3,2.6,0.8c0.9-0.4,1.3-1,1.2-1.7c-0.3-3.9-1.5-7.6-3.4-11
				c-4.2-5.9-10.3-8.9-18.5-8.8C82.5,10.9,88.4,17.9,90.4,29.5z"/>
		</g>
		<g>
			<path fill="#FFFFFF" d="M73.5,31.2c-0.4-4-1.5-7.9-3.1-11.6c-1.2-3.2-3-5.4-5.6-6.4c-2.5-1.1-6.3-1.7-11.3-1.9
				c4.8,1.7,8.4,4.3,10.8,7.7c2.3,3.5,3.6,7,3.7,10.4c0.2,3.4,1.1,5.1,2.8,4.8C72.8,34,73.7,33.1,73.5,31.2z"/>
		</g>
		<g>
			<path fill="#FFFFFF" d="M60.5,31.8c-0.1-5.6-1.7-10.2-4.8-13.7c-3.1-3.5-8.7-4.9-16.9-4.4c3.8,0.8,6.9,2.4,9.5,4.8
				c2.6,2.4,4.1,5.3,4.4,8.8c0.4,3.5,0.9,5.8,1.7,6.9c1.3,2,2.8,2.5,4.2,1.8C60.5,35.1,61,33.7,60.5,31.8z"/>
		</g>
		<g>
			<path fill="#FFFFFF" d="M82.5,32.5c1.7-0.4,2.4-1.9,2.2-4.6c-1.2-5.8-2.9-10.1-5.2-12.9c-2.4-2.8-7.5-4.6-15.5-5.2
				c3.5,1,6.5,2.4,9.3,4.3c2.8,2,4.8,6.9,5.9,15C79.8,31.2,80.9,32.4,82.5,32.5z"/>
		</g>
		<g>
			<path fill="#FFFFFF" d="M31,19.9c3.1,0.8,5.6,2.7,7.4,5.5c1.9,2.8,2.6,5.5,2.2,8c-0.4,2.6-0.1,4.2,1,4.7c1.1,0.6,1.9,0.9,2.2,0.9
				c1.1-0.2,1.9-1,2.6-2.3c0.5-3.9,0.1-7.4-1.2-10.3c-2.7-5.4-5.7-8.5-9.1-9.2c-3.4-0.8-5.8-0.8-7.4,0.1C27.2,18.2,27.9,19,31,19.9z
				"/>
		</g>
		<g>
			<g>
				<path fill="#FFFFFF" d="M72,245h-1.7c-0.2,0-0.4,0-0.6-0.1c-2.7-1-4.3-2.7-5.9-4.5c-0.5-0.5-1-1.1-1.5-1.6
					c-0.7-0.7-1.5-1.5-2.4-2.3c-0.9-0.8-1.8-1.7-2.7-2.7c-0.7-0.7-1.5-1.4-2.3-2.1c-3-2.7-6.4-5.8-7.3-9.7c-0.6-2.6-0.3-6.8,0-9.9
					l0.1-1.2c0.2-2.2,0.2-4.5,0.3-6.9c0.1-6.2,0.3-12.7,2.9-17.3c-4.2-3.7-7.1-12.4-5.7-18.5c0.5-2.2,1.5-3.9,3-5.1
					c-2.2-0.5-4.2-1.2-6.2-2.2c-11.6-5.5-16.4-16.2-19.3-24.9C16.8,118.8,5.5,53.4,5.8,39C6.1,23.6,17.7,17,29,12.6
					c10.1-3.9,21.8-6.3,34-6.9l7.9,0c8.5,0.5,15.8,2.5,21.7,6c5.7,3.3,12.3,8.1,12.9,15.8c0.2,2.1,5.3,42.9,8.7,69.9
					c1.9,15.3,3.4,27.2,3.5,28.2l0,3.5c0.1,2.5,0.3,6.2-1.5,12.5c-1.7,6-7.4,10.7-12.3,14c-4,2.8-8.4,4.8-13.2,6.8
					c1.4,4.4,1,9.1-1.1,13c-1.7,3-4.2,5.1-7.2,6.1c0.2,0.6,0.5,1.1,0.9,1.6c0.1,0.2,0.6,0.4,0.9,0.6c1.1,0.7,2.5,1.6,2.8,3.4
					c0.3,2.4,0.2,5.4,0,8.6l-0.1,2.5c-0.1,1.7,0,3.4,0,5.2c0,1.7,0.1,3.4,0,5l-0.1,1.6c-0.2,3-0.4,7,0.3,8.4c0.2,0.3,0.2,0.6,0.2,1
					c-0.1,0.9-0.2,1.8-0.4,2.6c-0.1,0.6-0.2,1.1-0.3,1.7c0.5,0.3,1.1,0.7,1.6,1.5c1.3,2.7,0.2,5-0.8,7c-0.6,1.2-1.2,2.4-1,3.4
					c0.1,0.7-0.2,1.3-0.8,1.7c-2.7,1.9-5.7,3.5-8.6,5.1c-1.4,0.8-2.8,1.5-4.2,2.3C72.7,244.9,72.3,245,72,245z M70.7,241.3h0.9
					c1.3-0.7,2.5-1.4,3.8-2.1c2.5-1.4,5.1-2.8,7.5-4.4c0.1-1.6,0.8-3,1.4-4.2c0.8-1.7,1.3-2.7,0.8-3.7c-0.5-0.2-0.9-0.4-1.4-0.8
					c-0.4-0.4-0.7-0.9-0.7-1.5c0-1.3,0.2-2.3,0.4-3.3c0.1-0.6,0.2-1.1,0.3-1.7c-0.9-2.3-0.7-5.9-0.5-9.7l0.1-1.6
					c0.1-1.5,0-3.1,0-4.8c0-1.8-0.1-3.6,0-5.4l0.1-2.6c0.2-3,0.3-5.8,0-7.8c-0.1-0.2-0.8-0.6-1.1-0.8c-0.6-0.4-1.2-0.7-1.6-1.3
					c-1.3-1.5-1.7-2.9-2.1-4.4l-0.1-0.5c-0.1-0.5-0.1-1.1,0.2-1.5c0.3-0.4,0.8-0.7,1.3-0.8c2.8-0.4,5.1-2.1,6.6-4.7
					c1.9-3.4,2-7.7,0.3-11.5c-0.2-0.5-0.2-1,0-1.4c0.2-0.5,0.6-0.8,1-1c5.4-2.2,10-4.2,14.1-7c4.3-3,9.5-7.1,10.8-11.9
					c1.6-5.8,1.5-9,1.4-11.4l0-3.5c-0.1-0.8-1.6-12.7-3.5-27.9c-3.6-28.7-8.5-67.9-8.7-70.1c-0.5-5.9-5.9-9.8-11.1-12.9
					c-5.4-3.2-12.1-5-20-5.5l-7.7,0c-11.7,0.6-23,2.9-32.8,6.7c-10.7,4.1-20.6,9.8-20.9,23c-0.3,13.8,11.1,79.2,16.7,95.8
					c2.7,8,7.1,17.9,17.4,22.8c2.9,1.4,5.9,2.2,9.3,2.6c0.2,0,0.3,0,0.5,0c1,0,3.1,0,4.1,2.1c0.3,0.6,0.2,1.3-0.2,1.9
					c-0.4,0.5-1,0.8-1.7,0.7c-3.8-0.5-5.9,0.9-6.7,4.1c-1.3,5.6,2.1,13.8,5.4,15.5c0.5,0.2,0.9,0.7,1,1.2c0.1,0.5,0,1.1-0.3,1.6
					c-2.9,3.7-3,10.3-3.2,16.7c-0.1,2.4-0.1,4.8-0.3,7.1l-0.1,1.2c-0.2,2.6-0.6,6.6-0.1,8.7c0.7,2.7,3.6,5.4,6.2,7.8
					c0.8,0.8,1.7,1.5,2.4,2.3c0.9,0.9,1.8,1.8,2.7,2.6c0.8,0.8,1.6,1.6,2.4,2.3c0.6,0.6,1.1,1.2,1.6,1.7
					C67.9,239.4,69,240.6,70.7,241.3z"/>
			</g>
		</g>
		<g>
			<g>
				<path fill="#FFFFFF" d="M136.1,84.2c-0.8,0-1.6-0.5-1.8-1.4c-0.3-1,0.3-2,1.3-2.3l31.4-8.4c1-0.3,2,0.3,2.3,1.3
					c0.3,1-0.3,2-1.3,2.3l-31.4,8.4C136.4,84.2,136.3,84.2,136.1,84.2z"/>
			</g>
			<g>
				<path fill="#FFFFFF" d="M132.6,72.5c-0.5,0-1-0.2-1.3-0.6c-0.7-0.7-0.7-1.9,0.1-2.6l23.4-22.5c0.7-0.7,1.9-0.7,2.6,0.1
					c0.7,0.7,0.7,1.9-0.1,2.6L133.9,72C133.5,72.4,133,72.5,132.6,72.5z"/>
			</g>
			<g>
				<path fill="#FFFFFF" d="M167,106.7c-0.2,0-0.5,0-0.7-0.1l-30.1-12.1c-0.9-0.4-1.4-1.5-1-2.4c0.4-0.9,1.5-1.4,2.4-1l30.1,12.1
					c0.9,0.4,1.4,1.5,1,2.4C168.4,106.2,167.7,106.7,167,106.7z"/>
			</g>
		</g>
		<g>
			<path fill="#FFFFFF" d="M90.7,84.8c-1.4-1.5-3-2.3-4.9-2.3c-1.9,0-3.5,0.8-4.9,2.3c-1.3,1.5-2,3.5-2,5.6c0,2.1,0.7,4,2,5.6
				c1.3,1.5,3,2.3,4.9,2.3c1.9,0,3.5-0.8,4.9-2.3c1.3-1.5,2-3.5,2-5.6C92.7,88.3,92,86.4,90.7,84.8z"/>
		</g>
		<g>
			<path fill="#FFFFFF" d="M110.4,85.6c-3.3,1.5-9.4,3.7-12.9,4.5c-0.4,0.2-0.8,0.5-1.2,0.8c-0.1,2.4-0.8,4.5-2.1,6.4
				c5.2-1.2,12.9-3.8,17.4-5.7C112,91.4,110.4,85.6,110.4,85.6z"/>
		</g>
		<g>
			<path fill="#FFFFFF" d="M94.9,84.5c4.6-0.5,10.5-2,14.5-3.6c1-0.5-0.6-7-0.6-7c-4,2-12.1,4.4-18.9,5.5c0,0.1,0.1,0.2,0.1,0.4
				c1.2,0.6,2.4,1.4,3.5,2.6C94,83,94.5,83.8,94.9,84.5z"/>
		</g>
		<g>
			<path fill="#FFFFFF" d="M78.4,82.1l-32.9,5.6c-1.3,0.2-2.6,0.2-3.8,0.2H24.4l1.3,6.6l17.5,0.8c1.3,0.2,2.7,0.2,4-0.1l22.5-3.9
				c3.1-1,4.8-1.9,4.9-2.9c0.6-1.6,1.4-3.1,2.6-4.4c0.3-0.5,0.7-1,1.1-1.5C78.2,82.2,78.3,82.2,78.4,82.1z"/>
		</g>
		<g>
			<path fill="#FFFFFF" d="M77,96.8c-1.9-0.7-3.8-0.8-5.9-0.2l-23.7,4.2c-1.1,0.2-2.1,0.2-3.2,0.1l-17.3-1l1.1,5.4l18.9,1.7
				c1.2,0.3,2.4,0.3,3.6,0l28.8-5.1c1-0.3,1.6-0.7,1.8-1.2c-1.1-0.6-2.1-1.3-3-2.3C77.6,97.9,77.3,97.4,77,96.8z"/>
		</g>
		<g>
			<path fill="#FFFFFF" d="M78.9,82l-0.5,0.1c-0.1,0.1-0.2,0.2-0.3,0.3c-0.4,0.5-0.7,1-1.1,1.5C77.6,83.2,78.2,82.6,78.9,82z"/>
		</g>
		<g>
			<path fill="#FFFFFF" d="M66.8,165.5c-7,0-12.5-0.5-13-0.5c-1-0.1-1.8-1-1.7-2c0.1-1,1-1.8,2-1.7c0.2,0,23.2,2,35.1-2.2
				c1-0.3,2,0.2,2.4,1.1c0.3,1-0.2,2-1.1,2.4C83.9,164.9,74.4,165.5,66.8,165.5z"/>
		</g>
		<g>
			<g>
				<polygon fill="#FFFFFF" points="82,198.5 77.4,200.4 79,202.2 83.6,200.2 				"/>
				<polygon fill="#FFFFFF" points="76.3,209.2 75.3,211.3 80.6,208.7 83.9,201 79.1,203.2 				"/>
				<polygon fill="#FFFFFF" points="72.9,209.5 74.1,211.4 75.3,208.9 78.2,202.7 76.5,200.9 				"/>
			</g>
		</g>
	</g>
</g>
</svg>
