<?xml version="1.0" encoding="utf-8"?>
<!-- Generator: Adobe Illustrator 24.1.0, SVG Export Plug-In . SVG Version: 6.00 Build 0)  -->
<svg version="1.1" id="圖層_1" xmlns="http://www.w3.org/2000/svg" xmlns:xlink="http://www.w3.org/1999/xlink" x="0px" y="0px"
	 viewBox="0 0 512.2 158.5" style="enable-background:new 0 0 512.2 158.5;" xml:space="preserve">
<style type="text/css">
	.st0{fill:#C4E4E0;}
	.st1{fill:#C8D900;}
	.st2{fill:#B4A896;}
	.st3{fill:#FFF8D1;}
	.st4{fill:#938472;}
	.st5{fill:#C8D800;}
</style>
<g>
	<g>
		<g>
			<circle class="st0" cx="79.2" cy="79.2" r="67.7"/>
			<path class="st1" d="M79.2,5.9c40.5,0,73.3,32.8,73.3,73.3c0,40.5-32.8,73.3-73.3,73.3c-40.5,0-73.3-32.8-73.3-73.3
				C5.9,38.7,38.7,5.9,79.2,5.9 M79.2,0C35.5,0,0,35.5,0,79.2c0,43.7,35.5,79.2,79.2,79.2c43.7,0,79.2-35.5,79.2-79.2
				C158.5,35.5,122.9,0,79.2,0L79.2,0z"/>
			<path class="st2" d="M125.6,64.5c-1.8-1.7-4.4-2.2-7-1.4c-1.8,0.5-2.9,2.6-3.7,4.1c-0.1,0.1-0.1,0.3-0.2,0.4
				c-1.9,3.5-6.5,5.2-9.1,5.8c-2.4,0.6-4.3,0.7-5.5,0.1c-0.3-0.1-0.5-0.4-0.5-0.6c0-0.1,0-0.2,0.1-0.4c0.5-0.5,1.3-1,2.2-1.4
				c0.5-0.2,0.9-0.5,1.4-0.8c5.3-3.4,8.3-8.9,8.1-14.9c-0.1-3.5-0.7-7.9-4-11.6c-0.9-1-1.9-0.9-2.6-0.9c-0.1,0-0.2,0-0.3,0
				c-0.8,0-1.7-0.1-2.6-0.4c-1.8-0.5-3.1-1.6-3.7-2.9c-0.4-0.9-1.4-1.7-2.3-2.3c-0.2-0.1-0.4-0.3-0.5-0.4c-0.2-0.2-0.5-0.4-0.9-0.6
				c-0.3-0.2-0.9-0.5-1.2-0.8c0-0.1,0.1-0.1,0.1-0.2c0.1-0.3,0.3-0.5,0.3-0.8c0.2-0.8,0.3-1.5,0.3-2.2c0-4.5-3.7-8.2-8.2-8.2
				c-3.8,0-7.1,2.6-7.9,6.2c-0.1,0-0.3,0-0.4,0c-6.1,0-13.5,2-18.4,6.1c-2.3-1.9-4.8-2.4-6.1-2.5c-3.7-0.3-7.1,1.5-8.7,5
				c-1.6,3.4-1,8.2,1.6,10.8c0.9,0.9,2.5,2.2,4.2,2.8c0,0.5,0,1.1-0.1,1.9c0,1.3,0,2.7,0,2.9c0.1,2.5,0.3,5.5,1.5,8.4
				c1,2.4,2.8,4.2,4.3,5.8c0.2,0.2,0.5,0.4,0.7,0.7c1.3,1.2,2.4,2.3,2.7,3.8c0.3,1.6-0.9,2.8-2.1,3.2c-3.8,1.2-9.4,0.6-13.7-1.6
				c-0.6-0.3-1.2-0.7-1.9-1.1c-1.9-1.2-4-2.5-6.4-2.4c-2.4,0.1-4.3,1.5-5.3,3.9c-1.2,2.9,0.1,6,1.6,8.3c2,3,5.4,5.9,9.8,7.2
				c0,0,0.5,0.2,0.9,0.2c0,1.2,0.2,4.2,0.2,4.2s0.5,7.2,4.2,14.3c3.4,6.6,10.9,16,23.6,19.6c0.3,0.1,4.9,1.6,11,1.6
				c5.8,0,11.1-1.2,16.5-3.6c0.8-0.3,12.3-5,18.6-18.1c0.3-0.6,2.9-5.6,3.8-12.7c0.5-3.8,0.2-8.2-0.6-13c-0.1-0.6,0.9-1.6,1.2-2
				c1.4-1.6,3.1-3.5,4.2-5.3c1.5-2.4,2.7-4.7,3.2-7.3C128.2,68.7,127.4,66.2,125.6,64.5z"/>
			<path class="st1" d="M114.5,95.6c0-3-2-1.9-3-0.8c-1.1,1.2-3.5,3.6-4.2,4.3c-1.9,1.9-3.8,2.5-5,1.6c-1.3-0.8-1-3-0.2-3.9
				c1.7-1.9-0.8-3.3-2.1-1.7c0,0-6.1,6.3-6.1,6.3c0,0,0,0,0,0c-1,1-3.5,3.3-4.5,4.3c-1.5,1.4-4.5,4.2-6.3,5.3
				c-4.9,3.1-9.2,4.9-16.6,3.9c-2.5-0.3-5.4-1.3-7.3-2.4c-2.7-1.5-4.4-2.8-5.8-4.5c-1.5-1.9-3.6,0-2.4,1.7c0,0,1.4,2.4,1.8,3
				c0.5,0.8,1,1.5,1.6,2.2c1.4,1.8,3,3.4,4.8,4.8c3.4,2.8,7.3,5.1,12.1,6.5c0,0,3.5,1.4,8.8,1.4c4.6,0,8-0.4,12.4-2.1
				c0,0,6.5-2,12.2-7.8c1.5-1.6,3.1-3.2,4.3-5.2c0,0,1.7-2.7,2.1-3.6c0.7-1.7,1.8-3.7,2.1-5.4c0.2-0.9,0.6-2.5,0.9-4
				C114.5,97.6,114.5,96.1,114.5,95.6z"/>
			<path class="st3" d="M105.1,62.8c1.5-2.2,2.3-4.8,2.2-7.5c-0.1-2.5-0.4-4.4-1.1-6c-0.2,0-0.4,0-0.6,0c-2.4,0-4.4-1.3-4.7-3.1
				c-1-0.3-1.8-0.8-2.5-1.4c-0.6,1.6-0.9,3.4-0.9,5.2C97.6,55.6,100.5,60.5,105.1,62.8z"/>
			<path class="st3" d="M123.5,67.2c-0.7-0.7-1.6-0.8-2.2-0.8c-0.3,0-0.6,0-0.8,0.1c-0.3,0.1-0.4,0.1-0.7,0.4
				c-0.4,0.5-0.7,1-0.9,1.5c-0.7,1.2-1.4,2.5-2.6,3.6c-1,0.9-2.1,1.8-3.5,2.5c-2.1,1.2-4.6,2.1-7.2,2.6c-0.7,0.1-1.8,0.3-3,0.3
				c-4.4,0-5.7-2.2-6.1-3.6c-0.5-1.5-0.3-3.8,3.1-5.7c0.3-0.2,0.6-0.3,0.9-0.5c0.5-0.3,1-0.5,1.4-0.8c0.2-0.2,0.5-0.3,0.7-0.5
				C98.2,63.6,95,59,93.8,54c-0.8-3.2-0.7-6.6,0.1-9.9c0.2-0.9,0.5-1.7,0.8-2.5c0.1-0.1,0.1-0.3,0.2-0.4c-0.6-0.7-1.5-1.2-2.3-1.8
				c-0.2-0.1-0.4-0.2-0.6-0.4c-0.7-0.5-1.5-1-2-2c-0.7-1.4-0.1-2.7,0.3-3.4c0.3-0.7,0.3-1.8-0.1-2.8C89.5,29.1,87.9,28,86,28
				c-0.1,0-0.3,0-0.4,0c-2,0.2-3.6,1.7-4,3.6c-0.1,0.7-0.4,2.2-2,2.6c-0.2,0.1-0.5,0.1-0.7,0.1c-0.2,0-0.4,0-0.5,0
				c-0.1,0-0.2,0-0.3,0c-0.1,0-0.3,0-0.4,0c-0.2,0-0.5,0-0.7,0c-1.3,0-2.7,0.2-4,0.4c-2.9,0.5-5.5,1.4-7.9,2.7
				c-1.2,0.7-2.4,1.4-3.3,2.2c-0.1,0.1-0.2,0.1-0.2,0.2c-0.5,0.4-1.1,1-2.2,1c-0.1,0-0.3,0-0.4,0c-0.8-0.1-1.3-0.6-1.6-0.9
				c-0.3-0.3-0.5-0.5-0.7-0.6c-1.2-0.9-2.7-1.4-4.1-1.4c-0.6,0-1.1,0.1-1.6,0.2c-1.8,0.5-3.2,2.2-3.5,4.2c-0.2,1.1-0.1,2.2,0.2,3.1
				c0.3,1,0.8,1.8,1.7,2.5c0.5,0.4,1,0.8,1.5,1c0.3,0.1,0.5,0.3,0.7,0.3c0.1,0,0.2,0,0.2,0.1c0.2,0,0.4,0.1,0.6,0.2
				c1.9,0.7,1.7,2.7,1.6,3.7c0,0.2,0,0.3,0,0.5c-0.1,2.2-0.1,4.6,0.2,6.8c0.2,1.8,0.6,3.2,1.2,4.4c0.7,1.4,1.7,2.5,2.6,3.4
				c0.3,0.3,0.7,0.7,1.1,1c1.9,1.8,4,3.8,4.2,6.9c0.1,1.6-0.5,3.3-1.5,4.5c-1.3,1.5-3.1,2.1-4.3,2.4c-1.4,0.3-2.8,0.5-4.4,0.5
				c-1.7,0-3.6-0.2-5.5-0.6c-1.5-0.4-3-0.8-4.4-1.4c-1.2-0.5-2.4-1.2-3.4-1.9c-0.3-0.2-0.7-0.4-1-0.6c-1.1-0.6-2.2-1.2-3.2-1.2
				c-0.2,0-0.3,0-0.4,0c-0.8,0.2-1.3,0.9-1.5,1.3c-0.6,1.1-0.4,2.2-0.1,3c0.4,1.1,1.1,2.1,2.1,3.3c0.8,1,1.5,1.7,2.3,2.3
				c0.9,0.7,1.9,1.2,2.7,1.6c1.7,0.9,3.9,1.3,6.5,1.3c0.3,0,0.7,0,1,0c1.1,0,2-0.2,2.9-0.4c0.3-0.1,0.6-0.2,0.9-0.2
				c0.4-0.1,0.7-0.2,1.1-0.3c1.6-0.3,4.9-1.1,6.7-1.1c1.4,0,2.4,0,3.9,0.2c5.9,0.8,10.1,3.8,13.8,7.6c0.5,0.6,1.3,1.7,1.8,2.3
				c1.4,1.7,2.4,3.2,4.2,3.5c0.1,0,0.3,0,0.5,0c1,0,2.1-0.5,2.9-1.3c0.8-0.8,1.5-1.6,2.3-2.4c0.4-0.4,0.8-0.8,1.1-1.2l7.4-7.9
				l2.7-2.9l2.9-3.1c0.8-0.8,1.5-1.6,2.1-2.3c0.6-0.6,1.3-1,2-1c0.7,0,1.3,0.3,1.8,0.9c0.6,0.8,0.6,1.6,0.7,2.2c0,0.2,0,0.4,0.1,0.6
				c0.1,0.3,0.3,0.7,0.7,0.9c0.1,0.1,0.2,0.1,0.5,0.1c0.2,0,0.4,0,0.7-0.1c2.8-0.5,4.9-2.5,7.2-5c1.7-1.8,3.7-4,4.7-6.6
				C124.5,71.3,125.1,68.7,123.5,67.2z M77.1,44.1c1.1-2,2.9-2.5,3.4-2.7c1-0.3,2.9-0.3,4.2,0.5c1,0.6,1.7,1.3,2.2,2.1
				c0.3,0.5,0.6,1.3,0.6,1.3s-0.8-0.7-2-1.1c-0.9-0.3-2-0.5-3.2-0.3c-0.2,0-0.9,0.1-1.8,0.6c-0.5,0.3-1,0.6-1.5,1
				c-0.7,0.6-1.2,1.3-1.5,2c-0.5,1-0.6,1.9-0.6,1.9s-0.6-1.2-0.6-2.6C76.3,46,76.7,44.9,77.1,44.1z"/>
		</g>
		<g>
			<g>
				<path class="st4" d="M305.6,38.2h-6.3c-0.7,0-1.2,0.5-1.2,1.2v2.3c0,0.6-0.6,1.2-1.2,1.2h-10.3c-0.8,0-1.4-0.7-1.2-1.5l2-6.4
					c0.2-0.7-0.4-1.5-1.2-1.5h-7.1c-0.6,0-1.1,0.4-1.2,0.9l-2.6,10.8c-0.2,0.7,0.4,1.4,1.2,1.4h29.1c0.7,0,1.2-0.5,1.2-1.2v-6.2
					C306.8,38.8,306.3,38.2,305.6,38.2z"/>
				<path class="st4" d="M305.6,50.8h-29.4c-0.7,0-1.2,0.5-1.2,1.2v23.8c0,0.6,0.6,1.2,1.2,1.2h7.1c0.7,0,1.2-0.5,1.2-1.2v-6.3h13
					v2.7c0,0.6-0.6,1.2-1.2,1.2h-3.2c-0.7,0-1.2,0.5-1.2,1.2v1.3c0,0.6,0.6,1.2,1.2,1.2h12.5c0.7,0,1.2-0.5,1.2-1.2V51.9
					C306.8,51.3,306.3,50.8,305.6,50.8z M285.7,54.4h10.6c0.7,0,1.2,0.5,1.2,1.2v3h-13v-3C284.5,54.9,285,54.4,285.7,54.4z
					 M284.5,66.3v-4.6h13v4.6H284.5z"/>
				<path class="st4" d="M286.7,79.8h-7.1c-0.5,0-0.9,0.3-1.1,0.7l-4.1,8.1c-0.4,0.8,0.2,1.7,1.1,1.7h7.4c0.5,0,0.9-0.3,1.1-0.7
					l3.8-8.1C288.2,80.7,287.6,79.8,286.7,79.8z"/>
				<path class="st4" d="M302.9,79.8h-6.5c-0.7,0-1.3,0.6-1.2,1.3l1.1,8.1c0.1,0.6,0.6,1,1.2,1h7.1c0.8,0,1.4-0.7,1.2-1.4l-1.7-8.1
					C304,80.2,303.5,79.8,302.9,79.8z"/>
				<path class="st4" d="M319.1,79.8h-6.9c-0.8,0-1.3,0.6-1.2,1.3l1.4,8.1c0.1,0.6,0.6,1,1.2,1h7.3c0.8,0,1.4-0.7,1.2-1.4l-1.8-8.1
					C320.2,80.2,319.6,79.8,319.1,79.8z"/>
				<path class="st4" d="M336.4,80.7c-0.1-0.5-0.6-0.9-1.2-0.9h-6.8c-0.8,0-1.4,0.7-1.2,1.4l2,8.1c0.1,0.5,0.6,0.9,1.2,0.9h7
					c0.8,0,1.4-0.7,1.2-1.4L336.4,80.7z"/>
				<path class="st4" d="M337.7,50.8h-15.6c-0.7,0-1.2-0.5-1.2-1.2v-3.5c0-0.5,0.3-1,0.9-1.1l16.1-4.9l-0.9-1.7
					c-0.3-0.5-0.9-0.8-1.4-0.6l-12.8,3.4c-0.8,0.2-1.6-0.4-1.6-1.1v-5.3c0-0.6-0.6-1.2-1.2-1.2H312c-0.7,0-1.2,0.5-1.2,1.2v18.5
					c0,0.6,0.6,1.2,1.2,1.2h25.7c0.7,0,1.2-0.5,1.2-1.2v-1.3C338.9,51.3,338.4,50.8,337.7,50.8z"/>
				<path class="st4" d="M337.7,73.1h-15.6c-0.7,0-1.2-0.5-1.2-1.2v-3.5c0-0.5,0.3-1,0.9-1.1l16.1-4.9l-0.9-1.7
					c-0.3-0.5-0.9-0.8-1.4-0.6l-12.8,3.4c-0.8,0.2-1.6-0.4-1.6-1.1v-5.3c0-0.6-0.6-1.2-1.2-1.2H312c-0.7,0-1.2,0.5-1.2,1.2v18.5
					c0,0.6,0.6,1.2,1.2,1.2h25.7c0.7,0,1.2-0.5,1.2-1.2v-1.3C338.9,73.6,338.4,73.1,337.7,73.1z"/>
				<path class="st4" d="M217.2,34.8v48.5c0,0.6-0.6,1.2-1.2,1.2h-2.8c-0.7,0-1.2,0.5-1.2,1.2v2.7c0,0.6,0.6,1.2,1.2,1.2h4h6.7h1.9
					c0.7,0,1.2-0.5,1.2-1.2V34.8c0-0.6-0.6-1.2-1.2-1.2h-7.4C217.7,33.6,217.2,34.2,217.2,34.8z"/>
				<path class="st4" d="M199.2,46.1h7c0.7,0,1.2,0.5,1.2,1.1c0.4,5.9-1.1,27.9-9.3,38.8c-0.2,0.3-0.6,0.5-1,0.5h-6.5
					c-0.9,0-1.5-0.9-1.1-1.6c1.6-3.2,4.9-10.7,6.8-20.2c2.1-10.5,1.9-13.5,1.7-17.3C197.9,46.7,198.5,46.1,199.2,46.1z"/>
				<path class="st4" d="M237.4,46.7h7.3c0.6,0,1,0.4,1.1,0.9l6.1,37.4c0.1,0.7-0.5,1.4-1.3,1.4h-8.7c-0.6,0-1.1-0.4-1.1-0.9
					L236,48.1C235.9,47.4,236.6,46.7,237.4,46.7z"/>
			</g>
			<g>
				<g>
					<path class="st4" d="M512.2,80l-10.3-31.6h9v-4.2h-11v-9.6c0-0.6-0.5-1.2-1.2-1.2h-8.9c-0.7,0-1.2,0.5-1.2,1.2v9.6h-7.5v4.2
						h6.6c-2.5,8-8.3,25.4-11.3,31.5c-0.3,0.6,0,1.3,0.6,1.5l1.6,0.6c0.6,0.3,1.4,0,1.6-0.6c1.4-3.3,5.7-13.4,8.3-20.2v27.9
						c0,0.6,0.5,1.2,1.2,1.2h8.9c0.7,0,1.2-0.5,1.2-1.2V61.4l4.9,19.2c0.1,0.5,0.6,0.9,1.2,0.9h5.1C511.8,81.5,512.4,80.7,512.2,80z
						"/>
					<path class="st4" d="M480.2,62.4l-10.4-10v-4h7.9v-4.2h-7.9v-9.5c0,0,0,0,0,0v-0.1c0-0.6-0.5-1.1-1.2-1.1c0,0,0,0,0,0h0h-8.9
						h-0.1c0,0,0,0,0,0c-0.6,0-1.2,0.5-1.2,1.1v9.6h-10.6v4.2h10.3c-2.4,7.5-7.8,24-10.6,29.9c-0.3,0.6,0,1.3,0.6,1.5l1.4,0.6
						c0.6,0.3,1.4,0,1.6-0.6c1.3-3,4.8-11.3,7.3-17.6v27.1c0,0.6,0.5,1.2,1.2,1.2h0h8.9h0.1c0,0,0,0,0,0c0.6,0,1.1-0.5,1.1-1.1
						c0,0,0,0,0,0V63.9l5.3,5.1c0.5,0.5,1.5,0.4,1.9-0.2l3.4-5C480.7,63.4,480.6,62.8,480.2,62.4z"/>
				</g>
				<g>
					<path class="st4" d="M393.4,72.1l-10.6-6v-2.6h8.5v-2.7h-8.5v-5.7c0-0.6-0.5-1.1-1.2-1.1h-9.8c-0.7,0-1.2,0.5-1.2,1.1v5.7
						h-11.4v2.7h10.8c-0.1,0.1-0.3,0.2-0.4,0.4c-2.3,4.4-7.8,14.5-11.1,18.8c-0.5,0.7-0.1,1.6,0.7,1.8l1.4,0.3
						c0.5,0.1,1-0.1,1.3-0.5c1.5-2.1,6-8.4,8.7-12.6v17.4c0,0.6,0.5,1.1,1.2,1.1h9.8c0.7,0,1.2-0.5,1.2-1.1V73.4l6,3.5
						c0.5,0.3,1.1,0.2,1.5-0.1l3.3-2.8C394.2,73.4,394.1,72.5,393.4,72.1z"/>
					<path class="st4" d="M428.3,83.1l-10.7-19.6h9.3v-2.7H415v-5.7c0-0.6-0.5-1.1-1.2-1.1H404c-0.7,0-1.2,0.5-1.2,1.1v5.7h-8.1v2.7
						h8.1v0.2c0,0-0.1,0-0.1,0.1c-2.4,4.6-8.4,15.5-11.8,20c-0.5,0.7-0.1,1.6,0.7,1.8l1.6,0.4c0.5,0.1,1-0.1,1.3-0.5
						c1.4-1.9,5.5-7.7,8.4-12v15.7c0,0.6,0.5,1.1,1.2,1.1h9.8c0.7,0,1.2-0.5,1.2-1.1V70.9l5.6,13.1c0.2,0.4,0.6,0.7,1.1,0.7h5.4
						C428.1,84.8,428.7,83.9,428.3,83.1z"/>
					<path class="st4" d="M368.9,48.3c-0.9,0.7-0.4,2.1,0.7,2.1h6.9c0.3,0,0.5-0.1,0.8-0.2l8.3-6.2v7c0,0.6,0.5,1.1,1.2,1.1h11.6
						c0.7,0,1.2-0.5,1.2-1.1v-6.6l7.9,5.7c0.2,0.2,0.5,0.2,0.7,0.2h7.6c1.2,0,1.7-1.4,0.7-2.1l-13.4-9h14.8v-1.8h-18.4v-2.9
						c0-0.6-0.5-1.1-1.2-1.1h-11.6c-0.7,0-1.2,0.5-1.2,1.1v2.9h-18.4v1.8h14.7L368.9,48.3z"/>
				</g>
			</g>
		</g>
	</g>
	<g>
		<path class="st5" d="M191.4,111.8h10.3c5,0,7.2,2.5,7.2,5.4c0,2.2-1.2,3.8-2.8,4.5c1.6,0.6,3.4,2,3.4,4.7c0,3.4-2.5,6.2-7.7,6.2
			h-10.4V111.8z M200.7,119.8c1.7,0,2.4-0.9,2.4-2c0-1.3-0.9-1.9-2.4-1.9h-3.4v3.9H200.7z M197.3,128.5h3.1c2,0,2.9-0.9,2.9-2.4
			c0-1.3-0.8-2.2-2.7-2.2h-3.2V128.5z"/>
		<path class="st5" d="M213.7,111.8H224c5,0,7.2,2.5,7.2,5.4c0,2.2-1.2,3.8-2.8,4.5c1.6,0.6,3.4,2,3.4,4.7c0,3.4-2.5,6.2-7.7,6.2
			h-10.4V111.8z M223,119.8c1.7,0,2.4-0.9,2.4-2c0-1.3-0.9-1.9-2.4-1.9h-3.4v3.9H223z M219.6,128.5h3.1c2,0,2.9-0.9,2.9-2.4
			c0-1.3-0.8-2.2-2.7-2.2h-3.2V128.5z"/>
		<path class="st5" d="M235.8,132.6v-6.3h5.9v6.3H235.8z"/>
		<path class="st5" d="M250,132.6l-5-20.8h6.4c1.4,7.9,1.9,11.4,2.1,14.7h0.1c0.9-4.5,2.1-9.8,3.2-14.7h5.4c0.9,4.2,2.3,10,3,14.4
			h0.1c0.5-4.3,1.9-11.2,2.4-14.4h5.9l-5.3,20.8h-6.2c-0.9-4.3-2.1-9.2-2.9-13.3h-0.1c-0.7,3.9-2,9.2-2.9,13.3H250z"/>
		<path class="st5" d="M280.7,125.9c0,1.6,0.6,3.2,2.3,3.2c1.4,0,1.8-0.6,2.1-1.4h5.8c-0.6,2.1-2.4,5.4-8,5.4c-6,0-8.2-4-8.2-8.2
			c0-4.8,2.5-8.4,8.3-8.4c6.1,0,8,4.1,8,8.1c0,0.5,0,0.9-0.1,1.4H280.7z M285.2,122.8c0-1.5-0.4-2.7-2.1-2.7c-1.6,0-2.2,1.2-2.3,2.7
			H285.2z"/>
		<path class="st5" d="M295.2,111.8h6v8.4c1.4-1.9,4.4-5.7,6.5-8.4h7.2l-7.6,8.5l7.9,12.3h-7.1l-5-8.3l-1.8,1.9v6.4h-6V111.8z"/>
		<path class="st5" d="M324.3,111.8v20.8h-6.1v-20.8H324.3z"/>
		<path class="st5" d="M329.8,111.8h8.9c6.6,0,10.5,4.2,10.5,10.2c0,6-3.7,10.6-10.5,10.6h-8.8V111.8z M335.9,128.2h2.3
			c3.3,0,4.7-2.3,4.7-6.2c0-3.4-1.3-5.8-4.6-5.8h-2.4V128.2z"/>
		<path class="st5" d="M358.4,126.3c0.3,1.8,1.6,2.6,3.6,2.6c1.8,0,2.7-0.6,2.7-1.9c0-1.4-0.9-1.9-4.2-2.7c-6.1-1.5-7.4-3.7-7.4-6.5
			c0-3.5,2.6-6.4,8.3-6.4c6,0,8.5,3.1,8.8,6.3h-5.9c-0.2-1.1-0.7-2.3-2.9-2.3c-1.4,0-2.3,0.5-2.3,1.7c0,1.1,0.8,1.6,4,2.4
			c6.4,1.6,7.7,3.9,7.7,6.9c0,3.9-3,6.6-9.1,6.6c-5.7,0-8.8-2.7-9.3-6.7H358.4z"/>
		<path class="st5" d="M398.5,124.2H389v3.9h10.6l-0.7,4.5h-15.8v-20.8h15.7v4.5H389v3.3h9.5V124.2z"/>
		<path class="st5" d="M419,110.7v17.1c0,1.6,0,3.4,0,4.8h-5.7c-0.1-0.5-0.2-1.1-0.2-1.5c-0.8,1.2-2,1.9-4.3,1.9
			c-4.2,0-6.4-3.6-6.4-8.2c0-4.8,2.6-8.4,7-8.4c1.9,0,3.2,0.6,3.6,1.3v-7H419z M408.5,124.7c0,2.8,0.8,4.2,2.5,4.2
			c2.2,0,2.4-2,2.4-4.2c0-2.7-0.2-4.2-2.4-4.2C409.3,120.5,408.5,121.8,408.5,124.7z"/>
		<path class="st5" d="M438.9,127.5c0,1.4,0,3.5,0,5.1h-5.8c-0.1-0.4-0.1-1.2-0.1-1.7c-1,1.5-2.4,2.1-4.4,2.1
			c-3.4,0-5.2-2.1-5.2-5.8v-10.4h5.9v9.4c0,1.4,0.4,2.4,1.7,2.4c1.4,0,1.9-0.8,1.9-3.1v-8.8h5.9V127.5z"/>
		<path class="st5" d="M458.6,127.1c-0.5,2.9-2.3,5.9-7.8,5.9c-5.6,0-8-3.7-8-8.2c0-4.8,3-8.4,8.2-8.4c6,0,7.5,4,7.6,5.9H453
			c-0.2-1.1-0.6-2-1.9-2c-1.5,0-2.2,1.4-2.2,4.3c0,3.3,0.8,4.5,2.2,4.5c1.2,0,1.7-0.9,2-2H458.6z"/>
		<path class="st5" d="M476.9,127.9c0,1.8,0.1,4.2,0.2,4.7h-5.4c-0.1-0.3-0.2-1.1-0.2-1.5c-0.8,1-1.9,1.8-4.5,1.8
			c-3.5,0-5.5-2.2-5.5-5c0-3.7,3-5.3,7.8-5.3c0.5,0,1.4,0,1.9,0v-0.9c0-1-0.4-1.8-1.8-1.8c-1.3,0-1.7,0.6-1.8,1.6h-5.4
			c0.2-2.6,1.8-5.2,7.4-5.2c5.2,0,7.3,2,7.3,5.8V127.9z M471.2,125.6c-0.3,0-0.8,0-1.3,0c-2,0-2.7,0.7-2.7,1.9
			c0,0.9,0.6,1.7,1.7,1.7c2,0,2.3-1.4,2.3-3.1V125.6z"/>
		<path class="st5" d="M481.5,121.3c0-1.5,0-3.1,0-4.5h5.8c0.1,0.5,0.1,1.9,0.1,2.6c0.6-1.5,2.1-2.9,4.9-3v5.4
			c-3.3-0.1-4.8,0.6-4.8,4.3v6.5h-5.9V121.3z"/>
		<path class="st5" d="M500.7,125.9c0,1.6,0.6,3.2,2.3,3.2c1.4,0,1.8-0.6,2.1-1.4h5.8c-0.6,2.1-2.4,5.4-8,5.4c-6,0-8.2-4-8.2-8.2
			c0-4.8,2.5-8.4,8.3-8.4c6.1,0,8,4.1,8,8.1c0,0.5,0,0.9-0.1,1.4H500.7z M505.2,122.8c0-1.5-0.4-2.7-2.1-2.7c-1.6,0-2.2,1.2-2.3,2.7
			H505.2z"/>
	</g>
</g>
</svg>
