<?xml version="1.0" encoding="utf-8"?>
<!-- Generator: Adobe Illustrator 24.3.0, SVG Export Plug-In . SVG Version: 6.00 Build 0)  -->
<svg version="1.1" id="圖層_1" focusable="false" xmlns="http://www.w3.org/2000/svg" xmlns:xlink="http://www.w3.org/1999/xlink"
	 x="0px" y="0px" viewBox="0 0 512 512" style="enable-background:new 0 0 512 512;" xml:space="preserve">
<style type="text/css">
	.st0{fill:#FFA4B0;}
</style>
<path class="st0" d="M486,154.9v259.9c0,23.9-19.4,43.3-43.3,43.3H67.3c-23.9,0-43.3-19.4-43.3-43.3V154.9
	c0-23.9,19.4-43.3,43.3-43.3h79.4l11.1-29.7c6.3-16.9,22.5-28.1,40.5-28.1h113.3c18,0,34.2,11.2,40.5,28.1l11.2,29.7h79.4
	C466.6,111.6,486,131,486,154.9z M363.3,284.9c0-59.7-48.6-108.3-108.3-108.3s-108.3,48.6-108.3,108.3S195.3,393.2,255,393.2
	S363.3,344.6,363.3,284.9z M334.4,284.9c0,43.8-35.6,79.4-79.4,79.4s-79.4-35.6-79.4-79.4s35.6-79.4,79.4-79.4
	S334.4,241.1,334.4,284.9z"/>
</svg>
