<?xml version="1.0" encoding="utf-8"?>
<!-- Generator: Adobe Illustrator 24.3.0, SVG Export Plug-In . SVG Version: 6.00 Build 0)  -->
<svg version="1.1" id="圖層_1" focusable="false" xmlns="http://www.w3.org/2000/svg" xmlns:xlink="http://www.w3.org/1999/xlink"
	 x="0px" y="0px" viewBox="0 0 496 512" style="enable-background:new 0 0 496 512;" xml:space="preserve">
<style type="text/css">
	.st0{fill:#FFA4B0;}
</style>
<path class="st0" d="M248,32.8C124.7,32.8,24.8,132.7,24.8,256S124.7,479.2,248,479.2S471.2,379.3,471.2,256S371.3,32.8,248,32.8z
	 M248,436c-99.3,0-180-80.7-180-180S148.7,76,248,76s180,80.7,180,180S347.3,436,248,436z M176,241.6c15.9,0,28.8-12.9,28.8-28.8
	S191.9,184,176,184s-28.8,12.9-28.8,28.8S160.1,241.6,176,241.6z M320,241.6c15.9,0,28.8-12.9,28.8-28.8S335.9,184,320,184
	s-28.8,12.9-28.8,28.8S304.1,241.6,320,241.6z M323.6,306.9c-18.7,22.5-46.4,35.5-75.6,35.5s-56.9-12.9-75.6-35.5
	c-7.6-9.2-21.3-10.4-30.4-2.8c-9.2,7.6-10.3,21.2-2.8,30.4c27,32.4,66.7,50.9,108.8,50.9s81.8-18.5,108.8-50.9
	c7.6-9.2,6.4-22.8-2.8-30.4C344.9,296.6,331.2,297.8,323.6,306.9z"/>
</svg>
