<?xml version="1.0" encoding="utf-8"?>
<!-- Generator: Adobe Illustrator 20.1.0, SVG Export Plug-In . SVG Version: 6.00 Build 0)  -->
<svg version="1.1" id="圖層_1" xmlns="http://www.w3.org/2000/svg" xmlns:xlink="http://www.w3.org/1999/xlink" x="0px" y="0px"
	 viewBox="0 0 248.8 103.4" style="enable-background:new 0 0 248.8 103.4;" xml:space="preserve">
<style type="text/css">
	.st0{fill:#FFFFFF;}
	.st1{fill:#492B80;}
	.st2{fill:#040000;}
</style>
<g>
	<g>
		<path class="st0" d="M103.4,51.7c0,28.5-23.1,51.7-51.7,51.7S0,80.2,0,51.7C0,23.1,23.1,0,51.7,0S103.4,23.1,103.4,51.7"/>
		<path class="st1" d="M51.6,103.3v-0.9v-0.9l0,0c27.5,0,49.8-22.3,49.9-49.8l0,0c0-27.5-22.3-49.8-49.9-49.9l0,0
			C24.1,1.8,1.8,24.1,1.8,51.7c0,27.5,22.3,49.8,49.8,49.8v0.9V103.3C23.1,103.3,0,80.2,0,51.7c0-0.1,0-0.1,0-0.1
			C0,23.1,23.1,0,51.7,0h0.1c28.5,0,51.6,23.2,51.6,51.7l0,0C103.3,80.2,80.2,103.3,51.6,103.3L51.6,103.3z"/>
		<polygon class="st2" points="43.4,91.9 47.2,92.5 47.1,93.1 45.5,92.8 44.8,97 44.2,96.9 44.9,92.7 43.3,92.4 		"/>
		<path class="st2" d="M47.2,94.9c0.1-0.8,0.7-1.1,1.5-1c0.3,0,1.3,0.2,1.2,1.1l-0.2,2l0.2,0.2h0.2v0.4h-0.3c-0.5,0-0.6-0.3-0.6-0.6
			c-0.2,0.2-0.6,0.5-1.3,0.5c-0.6-0.1-1.1-0.5-1-1.1c0-0.3,0.2-1,1.1-1h1l0.3-0.4c0-0.4-0.2-0.6-0.8-0.6c-0.7,0-0.8,0.4-0.9,0.6
			L47.2,94.9z M49.3,95.7c-0.1,0.1-0.2,0.1-1,0.1c-0.3,0-0.8,0.1-0.8,0.5s0.1,0.6,0.6,0.7c0.5,0,1.1-0.3,1.1-0.7L49.3,95.7z"/>
		<path class="st2" d="M51.3,97.6h-0.6l0.1-3.5h0.6L51.3,97.6z M50.8,93.4v-0.7h0.6v0.7H50.8z"/>
		<path class="st2" d="M51.9,94.1h0.6v0.5l0,0c0.1-0.2,0.4-0.6,1-0.6c0.9,0,1.5,0.7,1.5,1.7c0,0.8-0.3,2-1.5,2
			c-0.5,0-0.8-0.2-0.9-0.4l0,0V99L52,99L51.9,94.1z M53.5,97.2c0.6,0,0.9-0.6,0.9-1.4c0-0.4-0.1-1.3-1-1.3c-0.8,0-0.9,0.9-0.9,1.5
			C52.6,96.9,53.2,97.2,53.5,97.2"/>
		<path class="st2" d="M58.7,96.1c0,0.2-0.1,0.7-0.5,1c-0.2,0.1-0.4,0.3-0.9,0.3c-1,0.1-1.6-0.6-1.7-1.6c-0.1-1.1,0.3-2,1.5-2.1
			c1-0.1,1.6,0.7,1.7,1.9l-2.5,0.3c0.1,0.7,0.5,1.1,1.1,1.1c0.5-0.1,0.8-0.5,0.8-0.8L58.7,96.1z M58,95.2c-0.1-0.5-0.4-1-1.1-0.9
			c-0.5,0.1-0.9,0.6-0.9,1.1L58,95.2z"/>
		<path class="st2" d="M59.4,92.9l-0.1-0.7l-0.6,0.1l0.1,0.7L59.4,92.9z M59.5,93.5L59,93.6l0.6,3.4l0.6-0.1L59.5,93.5z"/>
		<path class="st1" d="M51.6,89.9v-0.5V89l0,0C72.3,89,89,72.3,89,51.7l0,0c0-20.6-16.7-37.3-37.3-37.3l0,0
			c-20.6,0-37.3,16.7-37.3,37.3C14.4,72.3,31,89,51.6,89v0.5V89.9c-21.1,0-38.2-17.1-38.2-38.2c0-0.1,0-0.1,0-0.1
			c0-21.1,17.1-38.2,38.2-38.2l0,0c21.1,0,38.2,17.1,38.2,38.2l0,0C89.9,72.8,72.8,89.9,51.6,89.9L51.6,89.9z M51.7,13.4L51.7,13.4
			L51.7,13.4z"/>
		<polygon class="st1" points="22.1,89.9 18.7,87.1 19.4,86.3 21.9,88.5 23,87.2 20.7,85.2 21.3,84.5 23.6,86.5 24.9,85 22.3,82.8 
			23,82 26.3,84.9 		"/>
		<path class="st1" d="M18.9,84.7L18.2,84l0.5-0.5l0,0c-0.6,0.1-1.2,0-1.6-0.4c-0.7-0.7-0.7-1.5,0.1-2.3l2.4-2.2l0.7,0.7l-2.2,2
			c-0.5,0.5-0.6,0.9-0.2,1.4s1.1,0.4,1.6-0.1l2.1-1.9l0.7,0.7L18.9,84.7z"/>
		<path class="st1" d="M16.5,74.5c1.2-0.8,2.2-0.6,3,0.5c0.5,0.7,0.8,1.8-0.1,2.5l-0.6-0.8c0.4-0.4,0.3-0.9,0-1.3
			c-0.5-0.6-1-0.7-1.7-0.2l-0.6,0.4l0,0c0.6-0.1,1.1,0.1,1.4,0.6c0.8,1.1,0.2,2.3-0.9,3.1c-1,0.7-2.4,0.8-3.1-0.3
			c-0.3-0.5-0.4-1-0.1-1.5l0,0l-0.5,0.4l-0.6-0.8L16.5,74.5z M15.2,76.6c-0.7,0.5-1.1,1.2-0.6,1.9c0.5,0.7,1.4,0.5,2,0
			c0.6-0.5,1.1-1.2,0.6-1.9C16.8,75.9,15.9,76.1,15.2,76.6"/>
		<rect x="9.8" y="74.2" transform="matrix(0.8628 -0.5055 0.5055 0.8628 -35.9663 16.8532)" class="st1" width="6.6" height="1"/>
		<path class="st1" d="M9.3,74.7l-0.5-0.9l0.9-0.5l0.5,0.9L9.3,74.7z M10.9,73.8L10.5,73l4.2-2.2l0.5,0.9L10.9,73.8z"/>
		<path class="st1" d="M12.5,69.7c0.5-0.3,0.6-0.8,0.4-1.3c-0.1-0.3-0.5-0.9-1-0.7c-0.5,0.2-0.3,0.9-0.2,1.6s0.1,1.5-0.7,1.9
			c-1,0.4-1.7-0.4-2-1.2c-0.4-0.8-0.3-1.8,0.6-2.3l0.4,0.9c-0.4,0.3-0.4,0.7-0.2,1.1c0.1,0.3,0.4,0.7,0.8,0.6
			c0.5-0.2,0.3-0.9,0.1-1.6c-0.1-0.7-0.1-1.5,0.7-1.9c1-0.4,1.8,0.4,2.2,1.2c0.4,1,0.3,2-0.8,2.5L12.5,69.7z"/>
		<path class="st1" d="M6.2,67.5l-0.3-0.9l2.3-0.7l0,0c-0.5-0.1-0.9-0.5-1.1-1.1c-0.3-0.9,0.1-1.7,1.1-2l3.1-0.9l0.3,0.9l-2.9,0.8
			c-0.7,0.2-0.9,0.6-0.8,1.1c0.2,0.6,0.8,0.9,1.5,0.7l2.7-0.8l0.3,0.9L6.2,67.5z"/>
		<polygon class="st1" points="4.2,59 4,57.9 9.6,57.3 9.3,54.2 10.3,54.1 10.7,58.3 		"/>
		<path class="st1" d="M9.3,49.8c0.3,0,0.4,0,0.4-0.2c0-0.1,0-0.1,0-0.2h0.7c0.1,0.1,0.1,0.4,0.1,0.6c0,0.4-0.2,0.7-0.6,0.7
			c0.4,0.4,0.6,1,0.6,1.5c0,0.8-0.5,1.5-1.4,1.5c-1.2,0-1.4-0.9-1.5-1.7c-0.1-0.7,0-1.3-0.6-1.3c-0.5,0-0.7,0.5-0.7,0.9
			c0,0.5,0.2,0.9,0.7,1v1c-1.2-0.1-1.6-1.1-1.6-2s0.4-1.8,1.4-1.7L9.3,49.8z M7.9,50.8c0.2,0.3,0.2,0.8,0.3,1.2
			c0.1,0.4,0.2,0.8,0.8,0.8c0.5,0,0.6-0.5,0.6-0.9s-0.2-1.1-0.9-1.1H7.9z"/>
		<path class="st1" d="M5.6,48.1l0.1-0.9l0.7,0.1l0,0c-0.5-0.4-0.7-0.9-0.7-1.5c0.1-0.9,0.7-1.5,1.8-1.3l3.2,0.4l-0.1,1l-3-0.4
			c-0.7-0.1-1.1,0.2-1.2,0.7c-0.1,0.7,0.4,1.1,1.1,1.2l2.8,0.4l-0.1,1L5.6,48.1z"/>
		<path class="st1" d="M11.8,39.8c1.4,0.4,1.9,1.3,1.5,2.6c-0.2,0.9-0.8,1.7-1.9,1.5l0.2-0.9c0.6,0,0.8-0.4,0.9-0.8
			c0.2-0.8-0.1-1.2-0.9-1.4L11,40.6l0,0c0.4,0.4,0.6,1,0.5,1.5c-0.3,1.4-1.6,1.6-2.9,1.3c-1.2-0.3-2.1-1.3-1.8-2.5
			c0.1-0.5,0.5-1,1.1-1.1l0,0l-0.6-0.2l0.2-1L11.8,39.8z M9.4,40.2C8.6,40,7.8,40.1,7.6,41c-0.2,0.8,0.6,1.3,1.3,1.5
			c0.8,0.2,1.6,0,1.8-0.7C11,40.9,10.2,40.4,9.4,40.2"/>
		<path class="st1" d="M13.8,35.2l-0.3,0.9l-0.6-0.2l0,0c0.4,0.4,0.5,1,0.3,1.5c-0.4,1.1-1.2,1.3-2.4,0.9L8,37.1l0.4-0.9l2.7,1.1
			c0.8,0.3,1.2,0.1,1.4-0.4c0.3-0.8-0.1-1.2-0.8-1.5l-2.6-1l0.4-0.9L13.8,35.2z"/>
		<path class="st1" d="M15.1,30.5c0.2,0.1,0.3,0.1,0.4,0c0-0.1,0.1-0.1,0.1-0.2l0.6,0.3c0,0.2-0.1,0.5-0.2,0.6
			c-0.2,0.4-0.5,0.5-0.9,0.4c0.2,0.5,0,1.2-0.2,1.6c-0.4,0.7-1.1,1.1-1.9,0.7c-1.1-0.6-0.8-1.4-0.5-2.2c0.2-0.7,0.6-1.2,0-1.5
			c-0.5-0.3-0.8,0.2-1,0.5c-0.3,0.5-0.2,0.9,0.2,1.2l-0.5,0.9c-1.1-0.6-0.9-1.7-0.5-2.5s1.2-1.4,2.1-0.9L15.1,30.5z M13.5,30.7
			c0,0.4-0.2,0.8-0.3,1.2C13,32.3,13,32.7,13.5,33c0.4,0.2,0.8-0.2,1-0.5c0.2-0.4,0.3-1.1-0.3-1.4L13.5,30.7z"/>
		<path class="st1" d="M18.7,26.5c1.2,0.8,1.3,1.9,0.5,3c-0.5,0.7-1.4,1.3-2.3,0.8l0.6-0.8c0.6,0.2,0.9-0.1,1.2-0.5
			c0.4-0.6,0.3-1.2-0.3-1.6L17.7,27l0,0c0.3,0.5,0.2,1.1-0.1,1.6c-0.8,1.1-2.1,1-3.2,0.2c-1-0.7-1.5-2-0.8-3
			c0.3-0.5,0.8-0.7,1.4-0.6l0,0l-0.5-0.4l0.6-0.8L18.7,26.5z M16.4,26c-0.7-0.5-1.5-0.6-2,0.1s0,1.5,0.7,1.9c0.6,0.4,1.5,0.6,2,0
			C17.5,27.2,17,26.5,16.4,26"/>
		<path class="st1" d="M18.5,23.9c0.6,0.5,1.3,0.7,1.8,0.1c0.4-0.4,0.4-0.9,0.1-1.3L21,22c0.6,0.9,0.5,1.9-0.1,2.6
			c-0.9,1-2.2,0.9-3.3-0.1c-1-0.9-1.3-2.3-0.4-3.3s2.5-0.8,3.5,0.3L18.5,23.9z M19.6,21.7c-0.5-0.4-1.2-0.5-1.7,0s-0.4,1.2,0.2,1.7
			L19.6,21.7z"/>
		<polygon class="st1" points="20.5,15.6 21.4,14.9 25.6,19.9 24.8,20.6 		"/>
		<path class="st1" d="M23.8,15.2l0.8-0.5l0.4,0.6l0,0c-0.1-0.6,0.2-1.1,0.7-1.5c0.8-0.5,1.6-0.4,2.2,0.4l1.9,2.7L29,17.5L27.3,15
			c-0.4-0.6-0.8-0.7-1.3-0.4c-0.5,0.4-0.6,1.1-0.2,1.6l1.6,2.3l-0.8,0.6L23.8,15.2z"/>
		<path class="st1" d="M30.6,14.7c0.3,0.5,0.8,0.5,1.3,0.3c0.3-0.2,0.9-0.5,0.6-1s-0.9-0.2-1.6,0s-1.5,0.3-1.9-0.6
			c-0.5-0.9,0.3-1.7,1-2.1c0.8-0.4,1.7-0.5,2.3,0.4l-0.9,0.5c-0.3-0.4-0.7-0.3-1.1-0.1c-0.2,0.1-0.7,0.4-0.5,0.8
			c0.2,0.5,0.9,0.2,1.6,0c0.7-0.2,1.5-0.3,1.9,0.6c0.5,1-0.2,1.9-1,2.3c-1,0.5-2,0.4-2.5-0.5L30.6,14.7z"/>
		<path class="st1" d="M32.4,10.1L33,9.8l-0.6-1.3l0.9-0.4l0.6,1.3l0.8-0.3L35,9.8l-0.8,0.3l1,2.3c0.2,0.4,0.3,0.6,0.7,0.4
			c0.1-0.1,0.3-0.1,0.4-0.2l0.3,0.7c-0.2,0.1-0.4,0.2-0.6,0.3c-0.9,0.4-1.3,0.1-1.6-0.6l-1.1-2.6l-0.7,0.3L32.4,10.1z"/>
		<path class="st1" d="M35.2,7l0.9-0.3l0.3,0.9L35.5,8L35.2,7z M35.8,8.8l0.9-0.3l1.6,4.5l-0.9,0.3L35.8,8.8z"/>
		<path class="st1" d="M37.6,8.1l0.7-0.2l-0.4-1.4l0.9-0.3l0.4,1.4l0.9-0.2l0.2,0.8l-0.8,0.2l0.7,2.4c0.1,0.4,0.2,0.6,0.6,0.5
			c0.1,0,0.3-0.1,0.4-0.2l0.2,0.8c-0.2,0.1-0.4,0.2-0.6,0.2c-1,0.3-1.3-0.1-1.5-0.8l-0.8-2.7l-0.7,0.2L37.6,8.1z"/>
		<path class="st1" d="M45.9,11.1L45,11.2l-0.1-0.7l0,0c-0.1,0.5-0.6,0.9-1.1,1c-1.1,0.2-1.7-0.3-2-1.5l-0.6-3l1-0.2l0.5,2.9
			c0.2,0.8,0.5,1.1,1,1c0.8-0.2,1-0.8,0.8-1.5L44,6.5l1-0.2L45.9,11.1z"/>
		<path class="st1" d="M46.2,6.3l0.7-0.1l-0.1-1.4l1-0.1l0.1,1.4L48.8,6l0.1,0.8L48,6.9l0.2,2.5c0,0.4,0.1,0.6,0.5,0.6
			c0.1,0,0.3,0,0.4-0.1l0.1,0.8c-0.2,0-0.4,0.1-0.6,0.1c-1,0.1-1.2-0.3-1.3-1.1L47,7h-0.8V6.3z"/>
		<path class="st1" d="M50.7,8.6c0,0.7,0.4,1.4,1.2,1.4c0.6,0,0.9-0.3,1.1-0.8h0.9c-0.2,1-1.1,1.6-2,1.6c-1.4,0-2.1-1.1-2.1-2.6
			c0-1.4,0.9-2.5,2.2-2.5c1.4,0,2.2,1.4,2,2.8L50.7,8.6z M53,7.9c0-0.7-0.4-1.3-1.1-1.3c-0.7,0-1.1,0.5-1.2,1.2L53,7.9z"/>
		<path class="st1" d="M57.3,8.6c0.3-1.4,1.3-2.3,2.6-2.1c1.4,0.2,2,1.4,1.7,2.9c-0.3,1.4-1.3,2.3-2.6,2.1
			C57.7,11.3,57.1,10.1,57.3,8.6 M60.8,9.3c0.1-0.8-0.1-1.7-0.9-1.9C59,7.2,58.4,8,58.3,8.8c-0.1,0.8,0.1,1.7,0.9,1.9
			C60.1,10.8,60.6,10.1,60.8,9.3"/>
		<path class="st1" d="M63,7.3l0.7,0.2l0.1-0.4c0.3-1.2,1-1.2,1.6-1c0.3,0.1,0.5,0.2,0.6,0.2l-0.2,0.8c-0.1,0-0.2-0.1-0.4-0.1
			c-0.3-0.1-0.5,0-0.6,0.3l-0.1,0.5L65.4,8l-0.2,0.8l-0.8-0.2l-1.1,3.8l-0.9-0.3l1.1-3.8l-0.7-0.2L63,7.3z"/>
		<polygon class="st1" points="69.4,7.4 73.9,9.5 73.5,10.4 71.7,9.6 69.4,14.7 68.4,14.2 70.7,9.1 68.9,8.3 		"/>
		<path class="st1" d="M72.6,13.9c-0.4,0.7-0.4,1.4,0.3,1.8c0.5,0.3,0.9,0.2,1.3-0.1l0.8,0.5c-0.7,0.8-1.7,0.9-2.6,0.4
			c-1.2-0.7-1.4-2-0.6-3.3c0.7-1.2,2-1.8,3.1-1.1c1.2,0.7,1.3,2.3,0.4,3.5L72.6,13.9z M74.9,14.5c0.3-0.6,0.2-1.3-0.3-1.7
			c-0.6-0.3-1.3-0.1-1.7,0.5L74.9,14.5z"/>
		<path class="st1" d="M76.5,17c-0.3,0.5-0.1,1,0.3,1.3c0.3,0.2,0.9,0.5,1.2,0.1c0.3-0.5-0.2-0.9-0.7-1.5s-0.9-1.2-0.3-2
			s1.6-0.5,2.3,0c0.7,0.5,1.1,1.4,0.6,2.3L79,16.6c0.2-0.5,0-0.8-0.3-1c-0.2-0.2-0.7-0.4-0.9-0.1c-0.3,0.4,0.2,0.9,0.7,1.5
			s0.9,1.2,0.3,2c-0.7,0.9-1.8,0.6-2.5,0.1c-0.9-0.7-1.2-1.6-0.6-2.5L76.5,17z"/>
		<path class="st1" d="M81.3,16.7l0.5,0.5l1-1.1l0.7,0.7l-0.9,1.1l0.7,0.6L82.7,19L82,18.4l-1.7,1.9c-0.3,0.3-0.4,0.5-0.1,0.8
			c0.1,0.1,0.2,0.2,0.3,0.2L80.1,22c-0.2-0.1-0.3-0.2-0.5-0.4c-0.8-0.7-0.6-1.1-0.1-1.7l1.9-2.1l-0.5-0.5L81.3,16.7z"/>
		<path class="st1" d="M84.1,19.2l0.7,0.7l-3.4,3.4l-0.7-0.7L84.1,19.2z M85.4,17.9l0.7,0.7l-0.7,0.7l-0.7-0.7L85.4,17.9z"/>
		<path class="st1" d="M85.8,21l0.6,0.7l-0.5,0.4l0,0c0.6-0.1,1.2,0.1,1.5,0.5c0.6,0.7,0.6,1.6-0.2,2.2L84.7,27L84,26.3l2.3-1.9
			c0.6-0.5,0.6-0.9,0.3-1.4c-0.4-0.5-1.1-0.5-1.7,0l-2.1,1.8L82.2,24L85.8,21z"/>
		<path class="st1" d="M87.8,31.2c-1.2,0.8-2.2,0.5-3-0.7c-0.5-0.7-0.7-1.8,0.2-2.5l0.5,0.8c-0.4,0.4-0.3,0.9,0,1.3
			c0.4,0.7,1,0.7,1.6,0.3l0.6-0.4l0,0c-0.6,0.1-1.1-0.2-1.4-0.7c-0.8-1.2-0.1-2.3,1-3s2.4-0.7,3.1,0.4c0.3,0.5,0.4,1,0.1,1.5l0,0
			l0.6-0.4l0.5,0.8L87.8,31.2z M89.1,29.1c0.7-0.4,1.1-1.1,0.7-1.9c-0.5-0.7-1.4-0.5-2-0.1c-0.7,0.4-1.1,1.2-0.7,1.8
			C87.5,29.8,88.4,29.6,89.1,29.1"/>
		<path class="st1" d="M91.6,37.4c-0.2,0.1-0.3,0.2-0.2,0.4c0,0.1,0.1,0.1,0.1,0.2l-0.7,0.3c-0.1-0.1-0.3-0.4-0.3-0.5
			c-0.2-0.4-0.1-0.7,0.2-0.9c-0.5-0.2-0.9-0.7-1.1-1.2c-0.3-0.7-0.2-1.6,0.7-1.9c1.1-0.5,1.6,0.3,2,1c0.4,0.6,0.6,1.2,1.1,1
			s0.4-0.7,0.2-1.1c-0.2-0.5-0.6-0.8-1.1-0.6L92.2,33c1.2-0.4,1.9,0.3,2.2,1.2c0.3,0.8,0.3,1.8-0.6,2.2L91.6,37.4z M92.4,36
			c-0.3-0.2-0.5-0.6-0.7-1s-0.5-0.6-1-0.4c-0.4,0.2-0.3,0.8-0.2,1.1c0.2,0.4,0.6,0.9,1.3,0.7L92.4,36z"/>
		<path class="st1" d="M95.6,37.5l0.3,0.9l-0.7,0.2l0,0c0.6,0.1,1,0.5,1.2,1.1c0.3,0.9-0.1,1.7-1.1,2L92,42.6l-0.3-0.9l2.9-0.8
			c0.7-0.2,0.9-0.6,0.8-1.1c-0.2-0.6-0.8-0.9-1.5-0.7l-2.7,0.8L91,38.8L95.6,37.5z"/>
		<path class="st1" d="M92.9,47.7l-0.1-0.9l0.6-0.1l0,0c-0.6-0.2-0.9-0.7-1-1.2c-0.2-1.4,0.8-2.2,2.2-2.4c1.7-0.3,2.6,0.6,2.8,1.5
			c0.1,0.5,0,1.2-0.5,1.6l0,0l2.4-0.4l0.2,1L92.9,47.7z M93.3,45.4c0.1,0.9,1,1.1,1.9,1c1-0.2,1.6-0.7,1.5-1.5
			c-0.1-0.9-1.1-1.1-1.9-1C93.9,44.1,93.1,44.6,93.3,45.4"/>
		<polygon class="st1" points="99.7,51.6 99.6,56 98.6,55.9 98.7,52.6 97,52.6 96.9,55.6 95.9,55.6 96,52.5 94.1,52.5 94,55.9 
			93,55.8 93.1,51.4 		"/>
		<path class="st1" d="M92.2,60.8l0.1-0.9L93,60l0,0c-0.5-0.3-0.6-0.9-0.5-1.5c0.2-1.4,1.4-1.9,2.8-1.6c1.7,0.3,2.3,1.3,2.1,2.3
			c-0.1,0.6-0.4,1.1-1,1.3l0,0l2.4,0.4l-0.2,1L92.2,60.8z M93.3,58.8c-0.1,0.9,0.7,1.4,1.5,1.5c1,0.2,1.7-0.2,1.9-0.9
			c0.1-0.9-0.7-1.4-1.5-1.5C94.3,57.7,93.4,57.9,93.3,58.8"/>
		<path class="st1" d="M90.9,65.6l0.3-0.9l0.6,0.2l0,0c-0.4-0.4-0.5-1-0.4-1.4c0.3-1.1,1.1-1.4,2.3-1.1l2.9,0.8l-0.3,0.9l-2.8-0.8
			c-0.8-0.2-1.2,0-1.3,0.5c-0.2,0.8,0.2,1.2,0.9,1.4l2.7,0.8l-0.3,0.9L90.9,65.6z"/>
		<path class="st1" d="M92.3,70.6c0.6,0.2,1-0.1,1.2-0.6s0.2-1.2-1.1-1.8c-0.7-0.3-1.6-0.3-2,0.4c-0.2,0.5,0,1,0.6,1.4l-0.4,1
			c-1.1-0.7-1.4-1.6-1-2.6c0.5-1.3,1.8-1.6,3.1-1c1.3,0.6,2.1,1.7,1.5,3c-0.4,0.9-1.2,1.5-2.4,1.2L92.3,70.6z"/>
		<path class="st1" d="M87.6,74.8c-0.2-0.1-0.3-0.1-0.4,0c0,0-0.1,0.1-0.1,0.2l-0.6-0.4c0-0.2,0.1-0.5,0.2-0.6
			c0.2-0.3,0.5-0.5,0.9-0.4c-0.2-0.5,0-1.2,0.3-1.6c0.4-0.7,1.2-1.1,2-0.6c1,0.6,0.8,1.5,0.4,2.2c-0.2,0.7-0.6,1.2-0.1,1.5
			s0.8-0.1,1-0.5c0.3-0.5,0.3-0.9-0.2-1.2l0.5-0.8c1,0.7,0.9,1.7,0.4,2.5c-0.4,0.8-1.2,1.4-2.1,0.9L87.6,74.8z M89.3,74.6
			c0-0.4,0.2-0.8,0.3-1.2c0.1-0.4,0.2-0.8-0.3-1.1c-0.4-0.2-0.8,0.2-1,0.5c-0.2,0.4-0.3,1.1,0.2,1.4L89.3,74.6z"/>
		<path class="st1" d="M90.2,77.5l-0.4,0.6L91,79l-0.6,0.8L89.2,79l-0.5,0.7l-0.6-0.5l0.5-0.7L86.5,77c-0.4-0.2-0.6-0.3-0.8,0
			c-0.1,0.1-0.2,0.2-0.2,0.4l-0.7-0.5c0.1-0.2,0.2-0.4,0.3-0.6c0.6-0.8,1-0.7,1.7-0.3l2.3,1.6l0.4-0.6L90.2,77.5z"/>
		<path class="st1" d="M88.1,80.5l-0.6,0.8l-3.7-3l0.6-0.8L88.1,80.5z M89.5,81.6l-0.6,0.8l-0.8-0.6l0.6-0.8L89.5,81.6z"/>
		<path class="st1" d="M85,80.6c1.1,1,1.3,2.3,0.3,3.4c-1,1-2.3,0.9-3.4-0.1s-1.3-2.3-0.3-3.4C82.6,79.5,83.9,79.6,85,80.6
			 M82.6,83.2c0.6,0.6,1.5,0.9,2.1,0.2c0.6-0.6,0.2-1.5-0.4-2.1s-1.5-0.9-2.1-0.3C81.6,81.7,82,82.6,82.6,83.2"/>
		<path class="st1" d="M82.6,86.5l-0.7,0.6l-0.4-0.5l0,0c0.1,0.6-0.1,1.2-0.5,1.5c-0.7,0.6-1.6,0.6-2.2-0.2l-2.1-2.5l0.8-0.6
			l1.9,2.3c0.5,0.6,0.9,0.6,1.4,0.3c0.5-0.4,0.5-1.1,0-1.6L79,83.6l0.7-0.6L82.6,86.5z"/>
		<path class="st1" d="M83.4,54.6c-1,0-2.4,1.1-4.1,3.4c-1.7,2.2-3.3,5.1-4.9,8.7c2.8-1.1,5.1-2.7,7.1-4.8c1.9-2.1,2.9-4,2.9-5.8
			C84.4,55.2,84.1,54.6,83.4,54.6 M74.2,67.3c-1.3,3.2-2,5.8-2,7.9c0,1.8,0.4,2.9,1.3,3.5c5.6-4.5,9.7-10.8,11.7-17.9
			c-0.4,0.8-1,1.6-1.8,2.2C81.5,64.6,78.4,66,74.2,67.3 M27.2,45.1c2.3-1.2,5-2.1,8-2.7C33.1,41,32,38.7,32,35.6c0-4,1.6-7.3,4.7-10
			c-2.1-0.8-4-1.4-5.8-1.8c-8.5,6.3-14.1,16.4-14.1,27.9c0,1.3,0.1,2.5,0.2,3.8c0.3-0.5,0.5-1.1,0.8-1.6
			C20.3,49.9,23.4,47,27.2,45.1 M55.7,27.6c0-1.2-0.8-2.2-2.4-3.2c-1.6-0.9-3.4-1.4-5.5-1.4c-2.8,0-5.4,1-7.8,2.9
			c5.1,2.6,9.4,3.9,12.9,3.9C54.8,29.9,55.7,29.1,55.7,27.6 M51.7,16.9c-7.4,0-14.2,2.3-19.8,6.2c1.8,0.5,3.6,1.1,5.6,1.9
			c2.7-2,5.8-3,9.3-3c2.6,0,4.9,0.5,6.7,1.7c1.8,1.1,2.8,2.5,2.8,4c0,2-1.2,3.1-3.6,3.1c-1.9,0-6.3-1.4-13.4-4.1
			c-3.3,2.9-4.9,6.7-4.9,11.1c0,2.2,0.5,3.7,1.4,4.5C37.2,42,38.3,42,39,42c2,0,3,0.4,3,1.1c0,0.5-0.5,0.7-1.6,0.7
			c-1.3,0-2.8-0.3-4.4-0.9c-2.2,0.5-4.6,1.8-7.5,3.9c-5.4,4-8.7,8.9-10.1,14.8c1,3.2,2.4,6.3,4.2,9c0.4-5.3,2.3-10.1,5.8-14.6
			c3.9-5,8.1-7.6,12.8-7.6c2.1,0,3.8,0.8,5.1,2.5c1.2,1.7,1.9,3.9,1.9,6.6c0,5.9-2.1,11.3-6.2,16c-3,3.5-6.4,5.7-10,6.6
			c5.6,3.9,12.4,6.2,19.8,6.2c8,0,15.3-2.7,21.2-7.2c-0.5-0.4-1-0.9-1.4-1.6c-0.8-1.3-1.2-2.8-1.3-4.6c-2.5,4.6-4.4,7-5.8,7
			c-0.9,0-1.7-0.5-2.3-1.5s-0.9-2.3-0.9-3.8c-2.1,3.6-3.7,5.4-5,5.4c-0.9,0-1.7-0.5-2.3-1.5s-0.9-2.2-0.9-3.7
			c-2,3.5-3.6,5.3-4.7,5.3c-0.8,0-1.5-0.5-2-1.5s-0.8-2.2-0.8-3.8c0-1.7,0.3-3.3,0.8-4.9s2.2-6.1,5.1-13.6
			c3.5-9.2,6.5-17.1,8.9-23.8c0.6,0.2,1.1,0.4,1.5,0.4c0.7,0,1.4-0.2,2-0.6C55.4,53.4,50.6,66,49.3,69.7s-2,6.2-2,7.4
			c0,1.4,0.4,2.1,1.1,2.1c1,0,2.5-1.9,4.6-5.5c0.2-1.7,0.8-4.1,1.9-7.2l4.5-12.1c0.6,0.2,1.1,0.3,1.4,0.3c0.5,0,1.3-0.1,2.2-0.3
			l-6.6,17c-0.9,2.5-1.4,4.4-1.4,5.7c0,1.4,0.5,2.1,1.4,2.1c1.1,0,2.7-1.9,4.7-5.6c0.1-1.7,0.6-3.6,1.5-6l4.9-12.9h-3l0.3-0.7h2.9
			l3.4-8.9c0.6,0.2,1.1,0.4,1.6,0.4c0.6,0,1.1-0.1,1.7-0.4L71.1,54h3.8l-0.2,0.7h-3.8l-6.5,17.4c-0.8,2.1-1.2,3.8-1.2,5
			c0,1.4,0.4,2.1,1.4,2.1c1.2,0,3-2.4,5.4-7c0-0.1,0-0.2,0-0.4c0-5.5,2.4-10.3,7.3-14.5c2.6-2.2,4.6-3.3,6.2-3.3
			c0.7,0,1.3,0.3,1.8,1c0.4,0.5,0.6,1.1,0.7,1.9c0.3-1.7,0.4-3.4,0.4-5.2C86.4,32.5,70.9,16.9,51.7,16.9 M64.7,48.6
			c-0.6,0.9-1.2,1.4-1.9,1.4c-0.9,0-1.3-0.7-1.3-2.1c0-1,0.3-2,0.9-2.9c0.6-0.9,1.2-1.4,1.9-1.4c0.8,0,1.3,0.7,1.3,2
			C65.5,46.7,65.2,47.7,64.7,48.6 M41,72.4c4.4-5,6.5-10.1,6.5-15.3c0-2.2-0.5-4-1.6-5.4s-2.5-2.2-4.2-2.2c-4.2,0-8.2,2.7-12.2,8.1
			c-3.5,4.8-5.4,9.6-5.9,14.5c2,2.8,4.5,5.2,7.2,7.3C34.2,78.5,37.6,76.2,41,72.4"/>
	</g>
	<g>
		<path class="st1" d="M128.9,18.7l-1.9,4c-1.8-1-4.3-1.9-5.8-1.9c-0.9,0-1.4,0.3-1.4,0.9c0,2.5,9,1,9,7.3c0,3.7-3.3,5.4-7.1,5.4
			c-2.9,0-6.1-1-8.3-2.7l1.9-3.9c1.8,1.5,4.7,2.6,6.4,2.6c1.1,0,1.8-0.4,1.8-1.2c0-2.6-9-1-9-7.1c0-3.3,2.8-5.5,7.2-5.5
			C124.3,16.7,127,17.5,128.9,18.7z"/>
		<path class="st1" d="M135.1,31.5l-1,2.8h-5.3l7.4-17.3h5.3l7.1,17.3h-5.5l-1-2.8H135.1z M138.7,22.1l-2.1,5.7h4.2L138.7,22.1z"/>
		<path class="st1" d="M158.5,21.1v13.2h-5.2V21.1h-5V17h15.2v4.1H158.5z"/>
		<path class="st1" d="M114.5,61.1V43.8h5.1v17.3H114.5z"/>
		<path class="st1" d="M134.4,61.1l-7.3-9.6v9.6h-4.7V43.8h4.4l7.3,9.7v-9.7h4.7v17.3H134.4z"/>
		<path class="st1" d="M150.3,47.9v13.2h-5.2V47.9h-5v-4.1h15.2v4.1H150.3z"/>
		<path class="st1" d="M161.8,47.7v2.7h8.2v4h-8.2v2.7h9.3v4h-14.4V43.8h14.1v4H161.8z"/>
		<path class="st1" d="M185.4,61.1l-7.3-9.6v9.6h-4.7V43.8h4.4l7.3,9.7v-9.7h4.7v17.3H185.4z"/>
		<path class="st1" d="M206.7,45.6l-1.9,4c-1.8-1-4.3-1.9-5.8-1.9c-0.9,0-1.4,0.3-1.4,0.9c0,2.5,9,1,9,7.3c0,3.7-3.3,5.4-7.1,5.4
			c-2.9,0-6.1-1-8.3-2.7l1.9-3.9c1.8,1.5,4.7,2.6,6.4,2.6c1.1,0,1.8-0.4,1.8-1.2c0-2.6-9-1-9-7.1c0-3.3,2.8-5.5,7.2-5.5
			C202.2,43.6,204.9,44.3,206.7,45.6z"/>
		<path class="st1" d="M208.3,61.1V43.8h5.1v17.3H208.3z"/>
		<path class="st1" d="M221.2,61.1l-6.6-17.3h5.5l4,12l4-12h5.3l-6.7,17.3H221.2z"/>
		<path class="st1" d="M239.5,47.7v2.7h8.2v4h-8.2v2.7h9.3v4h-14.4V43.8h14.1v4H239.5z"/>
		<path class="st1" d="M122.4,70.6c4.5,0,7,2.2,7,6.1c0,4.1-2.6,6.5-7,6.5h-2.7v4.7h-5.1V70.6H122.4z M119.7,79.3h2.5
			c1.5,0,2.4-0.8,2.4-2.4c0-1.5-0.9-2.3-2.4-2.3h-2.5V79.3z"/>
		<path class="st1" d="M139,83.2h-2.7v4.7h-5.1V70.6h8.1c4.6,0,7.3,2.2,7.3,6.1c0,2.6-1,4.4-2.9,5.5l3.5,5.7h-5.8L139,83.2z
			 M139.2,79.3c1.5,0,2.4-0.8,2.4-2.4c0-1.5-0.9-2.3-2.4-2.3h-2.9v4.7H139.2z"/>
		<path class="st1" d="M166.7,79.2c0,5.1-4,8.9-9.4,8.9s-9.4-3.8-9.4-8.9c0-5.1,4-8.8,9.4-8.8S166.7,74.2,166.7,79.2z M153.1,79.3
			c0,2.6,2,4.6,4.2,4.6s4.1-2,4.1-4.6c0-2.6-1.8-4.5-4.1-4.5C155,74.7,153.1,76.6,153.1,79.3z"/>
		<path class="st1" d="M184.1,78.9v7c-1.9,1.3-4.9,2.2-7.4,2.2c-5.4,0-9.3-3.8-9.3-8.9c0-5.1,4.1-8.8,9.7-8.8c2.6,0,5.5,1,7.3,2.6
			l-2.9,3.5c-1.2-1.1-2.9-1.9-4.4-1.9c-2.5,0-4.4,2-4.4,4.5c0,2.6,1.9,4.6,4.4,4.6c0.7,0,1.7-0.2,2.6-0.7v-4.2H184.1z"/>
		<path class="st1" d="M194.3,83.2h-2.7v4.7h-5.1V70.6h8.1c4.6,0,7.3,2.2,7.3,6.1c0,2.6-1,4.4-2.9,5.5l3.5,5.7h-5.8L194.3,83.2z
			 M194.5,79.3c1.5,0,2.4-0.8,2.4-2.4c0-1.5-0.9-2.3-2.4-2.3h-2.9v4.7H194.5z"/>
		<path class="st1" d="M208.7,85.1l-1,2.8h-5.3l7.4-17.3h5.3l7.1,17.3h-5.5l-1-2.8H208.7z M212.3,75.7l-2.1,5.7h4.2L212.3,75.7z"/>
		<path class="st1" d="M238.1,87.9l0-10.2l-3.5,8.5h-3.4l-3.5-8.5v10.2h-4.5V70.6h5.5l4.2,9.6l4.2-9.6h5.5v17.3H238.1z"/>
	</g>
</g>
</svg>
