<?xml version="1.0" encoding="UTF-8"?><svg id="_圖層_2" xmlns="http://www.w3.org/2000/svg" width="14.62mm" height="16mm" viewBox="0 0 41.45 45.37"><g id="_圖層_1-2"><path d="M33.66,31.04c0,.69-3.6,1.25-8.05,1.25s-8.05-.56-8.05-1.25,3.6-1.26,8.05-1.26,8.05.56,8.05,1.26ZM26.09,15.54l3.85,5.57v19.03" style="fill:none; stroke:#fff; stroke-linecap:round; stroke-linejoin:round; stroke-width:.5px;"/><line x1="27.02" y1="17.39" x2="10.55" y2="17.39" style="fill:none; stroke:#fff; stroke-dasharray:.88 .88; stroke-linecap:round; stroke-linejoin:round; stroke-width:.25px;"/><rect x=".35" y="11.86" width="10.21" height="10.21" style="fill:none; stroke:#fff; stroke-linecap:round; stroke-linejoin:round; stroke-width:.5px;"/><rect x="4.08" y="13.97" width=".7" height="5.31" style="fill:#fff;"/><path d="M8.78,19.28h-3.26l1.71-3.77,1.55,3.77ZM8.14,19.06l-1.09-2.63-1.2,2.63h2.28Z" style="fill:#fff;"/><line x1="2.96" y1="22.3" x2="2.95" y2="34.22" style="fill:none; stroke:#fff; stroke-linecap:round; stroke-linejoin:round; stroke-width:.5px;"/><polyline points="22.34 39.9 22.36 24.62 12.29 24.62 12.29 35.54" style="fill:none; stroke:#fff; stroke-linecap:round; stroke-linejoin:round; stroke-width:.5px;"/><path d="M17.57,31.03h-8.71M8.85,31.03v-8.97" style="fill:none; stroke:#fff; stroke-linecap:round; stroke-linejoin:round; stroke-width:.25px;"/><line x1="27.87" y1="13.31" x2="31.8" y2="13.31" style="fill:none; stroke:#fff; stroke-linecap:round; stroke-linejoin:round; stroke-width:.5px;"/><line x1="29.83" y1="5.27" x2="29.83" y2="13.31" style="fill:none; stroke:#fff; stroke-linecap:round; stroke-linejoin:round; stroke-width:.5px;"/><line x1="28.03" y1="7.27" x2="31.63" y2="10.57" style="fill:none; stroke:#fff; stroke-linecap:round; stroke-linejoin:round; stroke-width:.5px;"/><line x1="31.63" y1="7.27" x2="28.03" y2="10.57" style="fill:none; stroke:#fff; stroke-linecap:round; stroke-linejoin:round; stroke-width:.5px;"/><path d="M26.7.26h.63v3.16h1.7v.48h-2.33V.26Z" style="fill:#fff;"/><path d="M29.64.34c0-.2.16-.34.39-.34s.39.13.39.34-.16.34-.39.34-.39-.13-.39-.34ZM29.72,1.19h.63v2.72h-.63V1.19Z" style="fill:#fff;"/><path d="M31.3,1.19h.51l.05.38h.02c.28-.24.58-.44.99-.44.64,0,.92.39.92,1.08v1.71h-.63v-1.64c0-.47-.15-.66-.51-.66-.28,0-.47.13-.73.37v1.93h-.63V1.19Z" style="fill:#fff;"/><path d="M30.05,41.66h.63v3.16h1.7v.48h-2.33v-3.64Z" style="fill:#fff;"/><path d="M32.84,43.94c0-.9.67-1.43,1.41-1.43s1.41.52,1.41,1.43-.67,1.42-1.41,1.42-1.41-.52-1.41-1.42ZM35.02,43.94c0-.57-.29-.96-.77-.96s-.76.39-.76.96.29.96.76.96.77-.38.77-.96Z" style="fill:#fff;"/><path d="M36.4,44.29v-1.71h.63v1.64c0,.46.15.65.5.65.28,0,.47-.12.72-.41v-1.89h.63v2.72h-.51l-.05-.41h-.02c-.27.29-.57.47-.97.47-.64,0-.92-.38-.92-1.07Z" style="fill:#fff;"/><path d="M39.96,44.41v-1.37h-.44v-.43l.47-.03.07-.75h.52v.75h.78v.46h-.78v1.38c0,.33.12.49.44.49.1,0,.23-.03.32-.06l.11.42c-.17.05-.37.1-.59.1-.67,0-.91-.38-.91-.95Z" style="fill:#fff;"/><path d="M16.68,41.66h.65l1.33,2.14.42.77h.03c-.03-.38-.08-.82-.08-1.21v-1.7h.6v3.64h-.65l-1.33-2.15-.42-.76h-.03c.03.38.08.8.08,1.19v1.72h-.6v-3.64Z" style="fill:#fff;"/><path d="M20.51,43.94c0-.9.67-1.43,1.41-1.43s1.41.52,1.41,1.43-.67,1.42-1.41,1.42-1.41-.52-1.41-1.42ZM22.69,43.94c0-.57-.29-.96-.77-.96s-.76.39-.76.96.29.96.76.96.77-.38.77-.96Z" style="fill:#fff;"/><path d="M24.07,44.29v-1.71h.63v1.64c0,.46.15.65.5.65.28,0,.47-.12.72-.41v-1.89h.63v2.72h-.51l-.05-.41h-.02c-.27.29-.57.47-.97.47-.64,0-.92-.38-.92-1.07Z" style="fill:#fff;"/><path d="M27.63,44.41v-1.37h-.44v-.43l.47-.03.07-.75h.52v.75h.78v.46h-.78v1.38c0,.33.12.49.44.49.1,0,.23-.03.32-.06l.11.42c-.17.05-.37.1-.59.1-.67,0-.91-.38-.91-.95Z" style="fill:#fff;"/><path d="M8.4,37.05h.65l1.33,2.14.42.77h.03c-.03-.38-.08-.82-.08-1.21v-1.7h.6v3.64h-.65l-1.33-2.15-.42-.76h-.03c.03.38.08.8.08,1.19v1.72h-.6v-3.64Z" style="fill:#fff;"/><path d="M12.34,37.12c0-.2.16-.34.39-.34s.39.13.39.34-.16.34-.39.34-.39-.13-.39-.34ZM12.41,37.98h.63v2.72h-.63v-2.72Z" style="fill:#fff;"/><path d="M14,37.98h.51l.05.38h.02c.28-.24.58-.45.99-.45.64,0,.92.39.92,1.08v1.71h-.63v-1.64c0-.47-.15-.66-.51-.66-.28,0-.47.13-.73.37v1.93h-.63v-2.72Z" style="fill:#fff;"/><path d="M0,35.75h2.38v.48H.63v1.11h1.48v.48H.63v1.57h-.63v-3.64Z" style="fill:#fff;"/><path d="M3.08,35.75h2.37v.48h-1.74v1.01h1.47v.48h-1.47v1.18h1.8v.48h-2.43v-3.64Z" style="fill:#fff;"/></g></svg>