<?xml version="1.0" encoding="UTF-8"?><svg id="_圖層_2" xmlns="http://www.w3.org/2000/svg" width="19.04mm" height="19.59mm" viewBox="0 0 53.98 55.54"><g id="_圖層_1-2"><line x1="28.41" y1="13.35" x2="32.34" y2="13.35" style="fill:none; stroke:#fff; stroke-linecap:round; stroke-linejoin:round; stroke-width:.5px;"/><line x1="30.38" y1="5.31" x2="30.38" y2="13.35" style="fill:none; stroke:#fff; stroke-linecap:round; stroke-linejoin:round; stroke-width:.5px;"/><line x1="28.58" y1="7.31" x2="32.17" y2="10.62" style="fill:none; stroke:#fff; stroke-linecap:round; stroke-linejoin:round; stroke-width:.5px;"/><line x1="32.17" y1="7.31" x2="28.58" y2="10.62" style="fill:none; stroke:#fff; stroke-linecap:round; stroke-linejoin:round; stroke-width:.5px;"/><path d="M29.3.31h.63v3.16h1.7v.48h-2.33V.31Z" style="fill:#fff;"/><path d="M32.17,3.68c.9-.8,1.45-1.32,1.45-1.76,0-.31-.18-.52-.55-.52-.25,0-.47.15-.64.33l-.29-.26c.28-.27.56-.44.98-.44.59,0,.98.34.98.86s-.52,1.05-1.2,1.69c.16-.02.37-.03.53-.03h.82v.39h-2.09v-.27Z" style="fill:#fff;"/><path d="M34.81,1.06c0-.16.13-.27.31-.27s.32.11.32.27-.13.28-.32.28-.31-.11-.31-.28ZM34.87,1.75h.5v2.2h-.5V1.75Z" style="fill:#fff;"/><path d="M36.16,1.75h.41l.04.3h.01c.22-.2.47-.36.8-.36.51,0,.74.31.74.87v1.38h-.51v-1.33c0-.38-.12-.53-.41-.53-.22,0-.38.1-.59.3v1.56h-.5V1.75Z" style="fill:#fff;"/><line x1="20.13" y1="13.35" x2="24.07" y2="13.35" style="fill:none; stroke:#fff; stroke-linecap:round; stroke-linejoin:round; stroke-width:.5px;"/><line x1="22.1" y1="5.31" x2="22.1" y2="13.35" style="fill:none; stroke:#fff; stroke-linecap:round; stroke-linejoin:round; stroke-width:.5px;"/><line x1="20.3" y1="7.31" x2="23.9" y2="10.62" style="fill:none; stroke:#fff; stroke-linecap:round; stroke-linejoin:round; stroke-width:.5px;"/><line x1="23.9" y1="7.31" x2="20.3" y2="10.62" style="fill:none; stroke:#fff; stroke-linecap:round; stroke-linejoin:round; stroke-width:.5px;"/><path d="M9.78.31h.65l1.33,2.14.42.77h.03c-.03-.38-.08-.82-.08-1.21V.31h.6v3.64h-.65l-1.33-2.15-.42-.76h-.03c.03.38.08.8.08,1.19v1.72h-.6V.31Z" style="fill:#fff;"/><path d="M14.95,0h.44l-1.51,4.84h-.44l1.51-4.84Z" style="fill:#fff;"/><path d="M16.15.31h.63v3.16h1.7v.48h-2.33V.31Z" style="fill:#fff;"/><path d="M18.01,3.57h.71v-1.97h-.58v-.29c.3-.05.52-.12.7-.22h.38v2.48h.63v.38h-1.85v-.38Z" style="fill:#fff;"/><path d="M20.32,1.06c0-.16.13-.27.31-.27s.32.11.32.27-.13.28-.32.28-.31-.11-.31-.28ZM20.38,1.75h.51v2.2h-.51V1.75Z" style="fill:#fff;"/><path d="M21.66,1.75h.41l.04.3h.01c.22-.2.47-.36.8-.36.51,0,.74.31.74.87v1.38h-.51v-1.33c0-.38-.12-.53-.41-.53-.22,0-.38.1-.59.3v1.56h-.5V1.75Z" style="fill:#fff;"/><path d="M30.3,41.61h.63v3.16h1.7v.48h-2.33v-3.64Z" style="fill:#fff;"/><path d="M33.18,44.99c.9-.8,1.45-1.32,1.45-1.76,0-.31-.19-.52-.55-.52-.25,0-.47.15-.64.33l-.29-.26c.28-.27.56-.44.98-.44.59,0,.98.34.98.86s-.52,1.05-1.2,1.69c.16-.02.37-.03.53-.03h.82v.39h-2.09v-.27Z" style="fill:#fff;"/><path d="M35.68,44.16c0-.73.54-1.16,1.14-1.16s1.14.42,1.14,1.16-.54,1.15-1.14,1.15-1.14-.42-1.14-1.15ZM37.44,44.16c0-.46-.24-.78-.62-.78s-.62.31-.62.78.24.78.62.78.62-.31.62-.78Z" style="fill:#fff;"/><path d="M38.56,44.44v-1.38h.5v1.33c0,.38.12.53.4.53.22,0,.38-.1.58-.33v-1.53h.51v2.2h-.41l-.04-.33h-.01c-.22.23-.46.38-.79.38-.52,0-.74-.31-.74-.87Z" style="fill:#fff;"/><path d="M41.43,44.54v-1.11h-.35v-.34l.38-.02.06-.61h.42v.61h.63v.37h-.63v1.12c0,.26.1.4.35.4.08,0,.19-.02.26-.05l.09.34c-.14.04-.3.08-.47.08-.54,0-.73-.31-.73-.77Z" style="fill:#fff;"/><path d="M9.63,41.61h.65l1.33,2.14.42.77h.03c-.03-.38-.08-.82-.08-1.21v-1.7h.6v3.64h-.65l-1.33-2.15-.42-.76h-.03c.03.38.08.8.08,1.19v1.72h-.6v-3.64Z" style="fill:#fff;"/><path d="M14.81,41.3h.44l-1.51,4.84h-.44l1.51-4.84Z" style="fill:#fff;"/><path d="M16,41.61h.63v3.16h1.7v.48h-2.33v-3.64Z" style="fill:#fff;"/><path d="M17.86,44.88h.71v-1.97h-.58v-.29c.3-.05.52-.12.7-.22h.38v2.48h.63v.38h-1.85v-.38Z" style="fill:#fff;"/><path d="M20.08,44.16c0-.73.54-1.16,1.14-1.16s1.14.42,1.14,1.16-.54,1.15-1.14,1.15-1.14-.42-1.14-1.15ZM21.84,44.16c0-.46-.24-.78-.62-.78s-.62.31-.62.78.24.78.62.78.62-.31.62-.78Z" style="fill:#fff;"/><path d="M22.96,44.44v-1.38h.51v1.33c0,.38.12.53.4.53.22,0,.38-.1.58-.33v-1.53h.5v2.2h-.41l-.04-.33h-.01c-.22.23-.46.38-.79.38-.52,0-.74-.31-.74-.87Z" style="fill:#fff;"/><path d="M25.83,44.54v-1.11h-.35v-.34l.38-.02.06-.61h.42v.61h.63v.37h-.63v1.12c0,.26.1.4.35.4.08,0,.19-.02.26-.05l.09.34c-.14.04-.3.08-.47.08-.54,0-.73-.31-.73-.77Z" style="fill:#fff;"/><path d="M34.32,31.19c0,.71-3.68,1.28-8.23,1.28s-8.23-.57-8.23-1.28,3.68-1.28,8.23-1.28,8.23.57,8.23,1.28ZM26.57,15.49l3.94,5.57v19.03" style="fill:none; stroke:#fff; stroke-linecap:round; stroke-linejoin:round; stroke-width:.5px;"/><line x1="27.53" y1="17.24" x2="10.68" y2="17.24" style="fill:none; stroke:#fff; stroke-dasharray:.88 .88; stroke-linecap:round; stroke-linejoin:round; stroke-width:.25px;"/><rect x=".25" y="11.58" width="10.43" height="10.43" style="fill:none; stroke:#fff; stroke-width:.5px;"/><rect x="4.07" y="13.74" width=".72" height="5.43" style="fill:#fff;"/><path d="M8.87,19.17h-3.34l1.75-3.86,1.59,3.86ZM8.22,18.94l-1.11-2.69-1.22,2.69h2.33Z" style="fill:#fff;"/><polyline points="49.97 30.69 53.73 36.26 53.73 55.29" style="fill:none; stroke:#fff; stroke-linecap:round; stroke-linejoin:round; stroke-width:.5px;"/><polyline points="49.52 46.39 37.05 46.39 37.05 37.19" style="fill:none; stroke:#fff; stroke-linecap:round; stroke-linejoin:round; stroke-width:.5px;"/></g></svg>