<?xml version="1.0" encoding="UTF-8"?><svg id="_圖層_2" xmlns="http://www.w3.org/2000/svg" width="10.23mm" height="14.11mm" viewBox="0 0 28.99 39.99"><g id="_圖層_1-2"><path d="M.25,12.03l4.63,7.05-.03,3.08h3.8v3.73h-4.2v2.77h2.48s2.2-.18,2.2,1.91-2.16,1.95-2.16,1.95h-2.28v3.46" style="fill:none; stroke:#fff; stroke-linecap:round; stroke-linejoin:round; stroke-width:.5px;"/><path d="M10.17,12.03l4.63,7.05-.03,3.08h3.8v3.73h-4.2v2.77h2.48s2.2-.18,2.2,1.91-2.16,1.95-2.16,1.95h-2.28v3.46" style="fill:none; stroke:#fff; stroke-linecap:round; stroke-linejoin:round; stroke-width:.5px;"/><path d="M19.86,12.03l4.63,7.05-.03,3.08h3.8v3.73h-4.2v2.77h2.48s2.2-.18,2.2,1.91-2.16,1.95-2.16,1.95h-2.28v3.46" style="fill:none; stroke:#fff; stroke-linecap:round; stroke-linejoin:round; stroke-width:.5px;"/><line x1="3.04" y1="10.36" x2="6.61" y2="10.36" style="fill:none; stroke:#fff; stroke-linecap:round; stroke-linejoin:round; stroke-width:.5px;"/><line x1="4.82" y1="4.71" x2="4.82" y2="10.36" style="fill:none; stroke:#fff; stroke-linecap:round; stroke-linejoin:round; stroke-width:.5px;"/><line x1="3.19" y1="5.52" x2="6.46" y2="8.53" style="fill:none; stroke:#fff; stroke-linecap:round; stroke-linejoin:round; stroke-width:.5px;"/><line x1="6.46" y1="5.52" x2="3.19" y2="8.53" style="fill:none; stroke:#fff; stroke-linecap:round; stroke-linejoin:round; stroke-width:.5px;"/><line x1="12.82" y1="10.36" x2="16.4" y2="10.36" style="fill:none; stroke:#fff; stroke-linecap:round; stroke-linejoin:round; stroke-width:.5px;"/><line x1="14.61" y1="4.71" x2="14.61" y2="10.36" style="fill:none; stroke:#fff; stroke-linecap:round; stroke-linejoin:round; stroke-width:.5px;"/><line x1="12.98" y1="5.52" x2="16.25" y2="8.53" style="fill:none; stroke:#fff; stroke-linecap:round; stroke-linejoin:round; stroke-width:.5px;"/><line x1="16.25" y1="5.52" x2="12.98" y2="8.53" style="fill:none; stroke:#fff; stroke-linecap:round; stroke-linejoin:round; stroke-width:.5px;"/><line x1="22.51" y1="10.36" x2="26.09" y2="10.36" style="fill:none; stroke:#fff; stroke-linecap:round; stroke-linejoin:round; stroke-width:.5px;"/><line x1="24.3" y1="4.71" x2="24.3" y2="10.36" style="fill:none; stroke:#fff; stroke-linecap:round; stroke-linejoin:round; stroke-width:.5px;"/><line x1="22.67" y1="5.52" x2="25.94" y2="8.53" style="fill:none; stroke:#fff; stroke-linecap:round; stroke-linejoin:round; stroke-width:.5px;"/><line x1="25.94" y1="5.52" x2="22.67" y2="8.53" style="fill:none; stroke:#fff; stroke-linecap:round; stroke-linejoin:round; stroke-width:.5px;"/><path d="M5.32,2.8h-.63V.79c-.23.18-.5.32-.82.41v-.49c.16-.05.35-.13.54-.26.2-.13.33-.28.4-.45h.52v2.8Z" style="fill:#fff;"/><path d="M5.84,39.45v.5h-2.22c.02-.19.1-.37.22-.53s.36-.39.71-.67c.28-.23.46-.38.52-.46.09-.11.13-.22.13-.33,0-.12-.04-.21-.11-.27-.08-.06-.18-.1-.31-.1s-.24.03-.32.1c-.08.07-.12.18-.14.33l-.63-.05c.04-.29.15-.51.35-.63.2-.13.45-.19.74-.19.33,0,.58.07.77.22.19.15.28.33.28.55,0,.12-.03.24-.08.36-.05.11-.14.23-.25.36-.08.08-.22.2-.42.36-.2.15-.33.26-.38.31-.05.05-.1.1-.13.15h1.26Z" style="fill:#fff;"/><path d="M14.58,39.95v-.56h-1.35v-.47l1.43-1.77h.53v1.77h.41v.47h-.41v.56h-.61ZM14.58,38.91v-.95l-.76.95h.76Z" style="fill:#fff;"/><path d="M25.2,37.84l-.61.06c-.02-.11-.05-.18-.12-.24-.07-.05-.15-.08-.25-.08-.13,0-.25.05-.34.15-.09.1-.15.31-.18.63.16-.16.36-.24.59-.24.26,0,.49.08.68.25.19.17.28.39.28.66,0,.29-.1.51-.3.69-.2.17-.45.26-.76.26-.34,0-.61-.11-.82-.33-.21-.22-.32-.58-.32-1.08s.11-.88.34-1.11c.22-.23.51-.34.87-.34.25,0,.46.06.62.18.16.12.27.29.32.52M23.76,39.01c0,.17.05.31.14.4.1.09.21.14.33.14s.21-.04.29-.12c.08-.08.12-.2.12-.38s-.04-.32-.13-.4c-.08-.09-.19-.13-.31-.13s-.23.04-.31.12c-.08.08-.13.2-.13.36" style="fill:#fff;"/><path d="M13.31,2.06l.61-.06c.02.13.07.23.16.3.08.07.19.1.31.1.13,0,.24-.04.33-.12.09-.08.14-.2.14-.34s-.04-.24-.13-.32c-.09-.08-.19-.12-.31-.12-.08,0-.18.01-.29.04l.07-.43c.17,0,.3-.03.39-.09.09-.07.13-.15.13-.27,0-.09-.03-.17-.1-.22-.07-.06-.15-.08-.26-.08s-.2.03-.28.1c-.08.06-.12.16-.14.28l-.58-.08c.04-.17.1-.3.18-.41.08-.1.19-.18.34-.24.15-.06.31-.08.49-.08.31,0,.56.08.75.25.16.14.23.29.23.47,0,.24-.16.44-.47.59.19.03.34.11.45.23.11.12.17.26.17.43,0,.24-.11.45-.32.63-.21.17-.47.26-.79.26-.3,0-.55-.07-.74-.22-.2-.15-.31-.34-.34-.57" style="fill:#fff;"/><path d="M23.06,2.09l.63-.06c.02.12.07.22.16.29.09.07.19.11.31.11.13,0,.25-.04.34-.14.09-.09.14-.23.14-.41,0-.17-.05-.3-.14-.39-.09-.08-.21-.13-.35-.13-.18,0-.35.07-.49.2l-.51-.06.32-1.45h1.67v.5h-1.2l-.1.48c.14-.06.28-.09.43-.09.28,0,.52.09.72.26.19.17.29.4.29.67,0,.23-.08.43-.24.62-.21.24-.51.37-.89.37-.31,0-.55-.07-.75-.21-.19-.14-.31-.32-.34-.56" style="fill:#fff;"/><line x1="3.04" y1="15.03" x2="21.08" y2="15.03" style="fill:none; stroke:#fff; stroke-dasharray:.77 .85; stroke-linecap:round; stroke-linejoin:round; stroke-width:.5px;"/></g></svg>