<?xml version="1.0" encoding="UTF-8"?><svg id="_圖層_2" xmlns="http://www.w3.org/2000/svg" width="3.31mm" height="14.09mm" viewBox="0 0 9.38 39.95"><g id="_圖層_1-2"><path d="M.25,12.03l4.64,7.05-.03,3.08h3.8v3.73h-4.2v2.77h2.49s2.2-.18,2.2,1.91-2.16,1.95-2.16,1.95h-2.28v3.46" style="fill:none; stroke:#fff; stroke-linecap:round; stroke-linejoin:round; stroke-width:.5px;"/><line x1="3.04" y1="10.36" x2="6.61" y2="10.36" style="fill:none; stroke:#fff; stroke-linecap:round; stroke-linejoin:round; stroke-width:.5px;"/><line x1="4.82" y1="4.71" x2="4.82" y2="10.36" style="fill:none; stroke:#fff; stroke-linecap:round; stroke-linejoin:round; stroke-width:.5px;"/><line x1="3.19" y1="5.52" x2="6.46" y2="8.53" style="fill:none; stroke:#fff; stroke-linecap:round; stroke-linejoin:round; stroke-width:.5px;"/><line x1="6.46" y1="5.52" x2="3.19" y2="8.53" style="fill:none; stroke:#fff; stroke-linecap:round; stroke-linejoin:round; stroke-width:.5px;"/><path d="M5.32,2.8h-.63V.79c-.23.18-.5.32-.82.41v-.49c.16-.05.35-.13.54-.26.2-.13.33-.28.4-.45h.51v2.8Z" style="fill:#fff;"/><path d="M5.84,39.45v.5h-2.22c.02-.19.1-.37.21-.53.12-.17.36-.39.71-.67.28-.23.46-.38.52-.46.09-.11.13-.22.13-.33,0-.12-.04-.21-.12-.27-.08-.06-.18-.1-.31-.1s-.24.03-.32.1c-.08.07-.12.18-.14.33l-.63-.05c.04-.29.15-.51.35-.63.2-.13.45-.19.74-.19.33,0,.58.07.77.22.19.15.28.33.28.55,0,.12-.03.24-.08.36-.05.11-.14.23-.25.36-.08.08-.22.2-.42.36-.2.15-.33.26-.38.31-.05.05-.1.1-.13.15h1.26Z" style="fill:#fff;"/></g></svg>