<?xml version="1.0" encoding="utf-8"?>
<!-- Generator: Adobe Illustrator 25.2.0, SVG Export Plug-In . SVG Version: 6.00 Build 0)  -->
<svg version="1.1" id="圖層_1" xmlns="http://www.w3.org/2000/svg" xmlns:xlink="http://www.w3.org/1999/xlink" x="0px" y="0px"
	 viewBox="0 0 32 32" style="enable-background:new 0 0 32 32;" xml:space="preserve">
<style type="text/css">
	.st0{fill:#FF006D;stroke:#FF006D;stroke-miterlimit:10;}
</style>
<g>
	<path class="st0" d="M17.4,16L27.7,5.7c0.4-0.4,0.4-1,0-1.4s-1-0.4-1.4,0L16,14.6L5.7,4.3c-0.4-0.4-1-0.4-1.4,0s-0.4,1,0,1.4
		L14.6,16L4.3,26.3c-0.4,0.4-0.4,1,0,1.4C4.5,27.9,4.7,28,5,28s0.5-0.1,0.7-0.3L16,17.4l10.3,10.3c0.2,0.2,0.5,0.3,0.7,0.3
		s0.5-0.1,0.7-0.3c0.4-0.4,0.4-1,0-1.4L17.4,16z"/>
</g>
</svg>
