<?xml version="1.0" encoding="UTF-8"?>
<svg width="1920px" height="1080px" viewBox="0 0 1920 1080" version="1.1" xmlns="http://www.w3.org/2000/svg" xmlns:xlink="http://www.w3.org/1999/xlink">
    <!-- Generator: Sketch 47.1 (45422) - http://www.bohemiancoding.com/sketch -->
    <title>Desktop HD-MyCourse Copy</title>
    <desc>Created with Sketch.</desc>
    <defs>
        <polygon id="path-1" points="1938 1508 0 1508 1.10293637e-13 0 1938 0"></polygon>
        <linearGradient x1="50%" y1="0%" x2="49.5549234%" y2="95.4777639%" id="linearGradient-3">
            <stop stop-color="#FFFFFF" offset="0%"></stop>
            <stop stop-color="#FF6A00" offset="100%"></stop>
        </linearGradient>
    </defs>
    <g id="-" stroke="none" stroke-width="1" fill="none" fill-rule="evenodd">
        <g id="Desktop-HD-MyCourse-Copy">
            <rect id="Rectangle-2" x="426" y="-78" width="1024" height="2123"></rect>
            <g id="cloud-big" style="mix-blend-mode: soft-light;" transform="translate(-14.000000, 73.000000)">
                <mask id="mask-2" fill="white">
                    <use xlink:href="#path-1"></use>
                </mask>
                <g id="Clip-2"></g>
                <path d="M1808.94531,59.3125 C1747.42188,20.2539063 1718.12891,83.8828125 1741.73675,111.776883 C1738.85447,111.111892 1735.85849,110.74964 1732.77846,110.74964 C1717.8072,110.74964 1704.75415,119.049088 1697.81172,131.356594 C1686.95128,116.826414 1669.76393,107.43633 1650.4124,107.43633 C1639.10701,107.43633 1628.53826,110.640965 1619.53795,116.202824 C1610.07044,103.368759 1594.97311,95.0641364 1577.96373,95.0641364 C1574.28673,70.1851988 1556.15139,51.7711625 1533.77792,51.7711625 C1519.85352,51.7711625 1507.57419,58.9062296 1500.28199,69.769903 C1496.16498,59.8985409 1486.8977,52.8009927 1475.90625,51.8927756 C1476.01779,34.69343 1449.64102,7.51764143 1427.13422,7.58892678 C1380.98,3.68052337 1363.00054,32.0759957 1363.00054,54.3544827 C1360.35834,44.4273868 1324.73417,34.2711344 1311.0548,46.2236043 C1308.34059,34.6368254 1297.73603,-6.90517023 1293.75293,49.3492158 C1271.90496,49.9631512 1270.21876,64.6751243 1270.21876,78.4517663 C1247.88244,83.3819921 1246.87235,97.4761095 1246.54295,116.202824 C1237.5414,110.640965 1226.97389,107.43633 1215.66603,107.43633 C1198.26485,107.43633 1182.61133,115.026799 1171.73606,127.122129 C1164.38824,117.180904 1152.68363,110.74964 1139.49957,110.74964 C1134.35795,110.74964 1129.44498,111.73807 1124.92382,113.520867 C1116.387,86.4748869 1091.42788,66.8912948 1061.95378,66.8912948 C1052.87066,66.8912948 1044.21766,68.7543041 1036.33961,72.118071 C1036.59545,37.9577243 1011.77477,12.1770385 971.044718,12.1770385 C943.130408,12.1770385 917.339489,37.9577243 917.339489,66.8925885 C909.718518,68.7543041 901.065515,66.8925885 891.982395,66.8925885 C863.14729,66.8925885 838.636832,85.6378265 829.593263,111.776883 C806.40397,108.462031 792.610665,119.049088 785.66824,131.356594 C775.583608,112.08147 734.263588,67.7718945 665.820249,95.0641364 C652.917677,57.0090491 615.364099,29.6407681 563.762764,51.8927756 C563.762764,28.5741084 548.314415,10.0371653 521.535959,10.0371653 C494.756267,10.0371653 478.029928,29.288262 478.029928,51.8927756 C467.038476,52.8009927 457.771197,59.8985409 453.654191,69.769903 C446.361987,58.9062296 434.082657,51.7711625 420.15702,51.7711625 C397.786021,51.7711625 379.649444,70.1851988 379.649444,92.898388 C358.964304,95.0641364 343.86697,103.368759 334.399465,116.202824 C303.031124,89.6149359 265.734652,110.206088 259.591339,127.122129 C252.244753,117.180904 240.540147,110.74964 227.356089,110.74964 C222.214468,110.74964 217.3015,111.73807 212.780333,113.520867 C204.243511,86.4748869 179.284397,66.8912948 149.810298,66.8912948 C140.727178,66.8912948 132.074174,68.7543041 124.196122,72.118071 C123.596678,25.9749516 54.3182681,-13.9891868 0,16.8901934 L0,1505 L969.55167,1505 L984.383271,1505 L2099.15625,1505 L2099.15625,120 L2099.15625,5.75 L1938,38.2070312 C1923.71094,-15.0742187 1810.09766,-11.6015625 1808.94531,59.3125 Z" id="Fill-1" fill="url(#linearGradient-3)" style="mix-blend-mode: soft-light;" mask="url(#mask-2)"></path>
            </g>
        </g>
    </g>
</svg>