<?xml version="1.0" encoding="UTF-8"?>
<svg width="1920px" height="1080px" viewBox="0 0 1920 1080" version="1.1" xmlns="http://www.w3.org/2000/svg" xmlns:xlink="http://www.w3.org/1999/xlink">
    <!-- Generator: Sketch 47.1 (45422) - http://www.bohemiancoding.com/sketch -->
    <title>Desktop HD-MyCourse-bg</title>
    <desc>Created with Sketch.</desc>
    <defs>
        <filter x="-18.2%" y="-19.1%" width="136.4%" height="138.3%" filterUnits="objectBoundingBox" id="filter-1">
            <feOffset dx="0" dy="0" in="SourceAlpha" result="shadowOffsetOuter1"></feOffset>
            <feGaussianBlur stdDeviation="12.5" in="shadowOffsetOuter1" result="shadowBlurOuter1"></feGaussianBlur>
            <feColorMatrix values="0 0 0 0 1   0 0 0 0 1   0 0 0 0 1  0 0 0 1 0" type="matrix" in="shadowBlurOuter1" result="shadowMatrixOuter1"></feColorMatrix>
            <feMerge>
                <feMergeNode in="shadowMatrixOuter1"></feMergeNode>
                <feMergeNode in="SourceGraphic"></feMergeNode>
            </feMerge>
        </filter>
        <polygon id="path-2" points="0 195.999465 0 0.263174545 205.723773 0.263174545 205.723773 195.999465"></polygon>
        <polygon id="path-4" points="0 69.8903924 0 0.575565526 60.9216072 0.575565526 60.9216072 69.8903924 1.6483209e-16 69.8903924"></polygon>
        <polygon id="path-6" points="0.000374545455 0.262818182 205.723773 0.262818182 205.723773 195.999733 0.000374545455 195.999733"></polygon>
        <polygon id="path-8" points="0.00272724595 0.193675994 281.813142 0.193675994 281.813142 282 0.00272724595 282 0.00272724595 0.193675994"></polygon>
        <polygon id="path-10" points="266.804248 0.403988331 266.804248 246.99795 0.288722772 246.99795 0.288722772 0.403988331"></polygon>
        <polygon id="path-12" points="43.935875 0.948590238 43.935875 43.9268343 0.00524375 43.9268343 0.00524375 0.948590238 43.935875 0.948590238"></polygon>
        <polygon id="path-14" points="2.51834996e-19 0.946296064 2.51834996e-19 43.9534884 43.9758799 43.9534884 43.9758799 0.946296064 0 0.946296064"></polygon>
        <polygon id="path-16" points="287.645672 287 0.721695349 287 0.721695349 0.0430923175 287.645672 0.0430923175"></polygon>
    </defs>
    <g id="-" stroke="none" stroke-width="1" fill="none" fill-rule="evenodd">
        <g id="Desktop-HD-MyCourse-bg">
            <g id="bg1" transform="translate(106.000000, -66.000000)">
                <g id="earth-top" filter="url(#filter-1)" transform="translate(1086.000000, 98.000000) rotate(180.000000) translate(-1086.000000, -98.000000) translate(983.000000, 0.000000)">
                    <g id="Group-3">
                        <mask id="mask-3" fill="white">
                            <use xlink:href="#path-2"></use>
                        </mask>
                        <g id="Clip-2"></g>
                        <path d="M102.86198,0.263174545 C46.0527982,0.263174545 -0.000374545455,44.0798655 -0.000374545455,98.13132 C-0.000374545455,152.181884 46.0527982,195.999465 102.86198,195.999465 C159.671162,195.999465 205.724335,152.181884 205.724335,98.13132 C205.724335,44.0798655 159.671162,0.263174545 102.86198,0.263174545" id="Fill-1" fill="#3DC3DF" mask="url(#mask-3)"></path>
                    </g>
                    <path d="M146.21741,94.2355506 C140.836533,93.0232709 132.123154,87.2037929 127.765992,84.5364206 C123.409775,81.8690483 115.464418,76.7771166 109.057938,74.5944776 C102.651458,72.4127313 96.7573077,71.199559 89.5818612,72.4127313 C82.4054713,73.625011 84.4915873,77.2600646 77.571834,77.7447979 C70.6520806,78.2304239 70.616227,75.322024 69.8482042,73.1402777 C69.0792379,70.9585314 63.9540538,72.4127313 62.9293944,70.2300923 C61.9037915,68.048346 62.6727578,62.9564144 60.3658588,61.2594014 C58.0589599,59.5623884 56.0096411,64.6534273 49.3465243,65.1390534 C42.6843511,65.622894 47.8076482,59.3195754 49.3465243,55.4399234 C50.8835135,51.5602714 65.4919864,50.3479917 69.3358745,50.1051787 C73.1797625,49.8623657 72.9231259,44.5285138 75.2300249,42.3458748 C77.5369238,40.1641285 83.6877108,38.7099285 85.7370297,33.1323708 C87.787292,27.5557058 90.6065207,26.1006132 96.500671,25.3730668 C102.394821,24.6455205 106.239653,27.7172836 109.656128,16.7255314 C113.073546,5.73377927 109.656128,3.14674948 109.656128,3.14674948 C104.90269,1.49704933 100.048295,0.490089494 95.1788038,0 C60.5621104,2.72004133 30.7762237,21.5318007 14.2024049,48.5126111 C12.8475146,56.555792 18.6859975,60.2792224 20.108821,59.382064 C21.6458102,58.4125974 22.1807843,55.4399234 24.2310466,53.5000974 C29.3571742,50.8327251 32.1754593,67.0788794 37.55728,71.927998 C42.9391007,76.7771166 50.8835135,76.5343036 58.0589599,77.26185 C65.2353498,77.9893963 63.1850875,79.6864093 68.5669082,83.8088743 C73.9487289,87.9313393 79.3305496,83.0813279 81.3798684,84.5364206 C83.4310742,85.9906206 76.7679575,95.6897506 76.2556278,102.478695 C75.7432981,109.26764 85.7370297,120.421862 89.3252246,124.78714 C92.9134196,129.150633 100.344559,132.545552 101.370162,134.485378 C102.394821,136.424311 104.958357,151.215373 100.857832,157.277664 C96.7573077,163.339955 97.7819671,171.583099 99.0632631,178.130124 C100.344559,184.676255 103.163788,183.706789 106.006604,180.554683 C108.849421,177.402577 123.153138,158.489943 132.123154,153.882745 C141.092226,149.276439 141.861192,140.062043 146.21741,130.605726 C150.575515,121.149409 156.213028,121.392222 159.032257,117.269757 C161.850542,113.148185 165.438737,111.693092 163.388475,107.81344 C161.338212,103.933788 164.926407,104.661334 165.951067,101.024495 C166.97667,97.3867635 151.59923,95.4469376 146.21741,94.2355506" id="Fill-4" fill="#009344"></path>
                    <path d="M131.055364,3 C130.852744,5.73362519 131.114849,9.14822148 133.405016,10.3560818 C137.449058,12.4866624 148.841338,20.0712104 151.367586,24.3208597 C153.894763,28.5696234 161.025511,34.5974131 162.830505,36.2374111 C164.634569,37.8765235 163.573136,44.8137505 164.808376,48.7056465 C166.043617,52.5975424 167.285363,54.5899806 172.746817,57.8735187 C178.208271,61.1570568 180.567218,64.3449579 181.717878,67.7064225 C182.868538,71.0678871 190.857169,66.932471 194.092588,65.9238545 C195.442151,65.5032287 196.878153,63.605542 198,61.2172728 C186.521281,33.1398338 161.753271,11.3948062 131.055364,3" id="Fill-6" fill="#009344"></path>
                    <path d="M111.409556,51.6416781 C109.992012,51.2017719 108.448217,51.2402103 107.005609,50.8720559 C103.777843,50.0486199 101.593508,47.391245 99.213297,45.2233191 C96.8330864,43.054539 93.360244,41.1684947 90.2791523,42.3797315 C87.8488125,43.3338581 86.6141478,46.0749432 87.1070854,48.4649577 C87.6009512,50.8541179 89.5262854,52.8392479 91.8145924,54.0556098 C94.1019711,55.2719717 96.7356129,55.8160886 99.3451183,56.2047436 C102.51997,56.6762546 105.731027,56.9410525 108.946725,56.998283 C111.019661,57.0341589 113.708074,56.5165217 113.981,54.6244981 C114.176875,53.2603619 112.826171,52.0824384 111.409556,51.6416781" id="Fill-8" fill="#009344"></path>
                    <g id="Group-12" transform="translate(0.000000, 78.000000)">
                        <mask id="mask-5" fill="white">
                            <use xlink:href="#path-4"></use>
                        </mask>
                        <g id="Clip-11"></g>
                        <path d="M52.8031954,40.1014051 C52.1096723,31.9645696 53.4845185,17.723557 43.3397492,13.582038 C39.5840262,12.0491266 34.6880723,14.1819114 30.7165031,12.4992532 C25.4010569,10.245962 23.54478,3.56317722 18.6272415,1.3054557 C13.7153338,-0.949607595 13.2611185,2.57520253 10.27118,4.38811392 C7.60876462,6.0025443 4.35981077,5.99279747 1.16247231,4.99418987 C0.400441538,9.76659494 -0.000281538462,14.6506456 -0.000281538462,19.6241899 C-0.000281538462,38.0182405 5.40901077,55.2178608 14.8001954,69.8903924 C18.3560262,69.1531772 21.4491954,67.7381139 22.3623185,65.6345696 C23.1393646,63.8500127 20.8814262,60.412038 21.7832877,57.9301392 C22.9741954,54.6516582 24.7469492,53.5095063 28.0972569,53.937481 C32.1880108,54.4593797 37.8140877,59.374443 42.10098,60.7708987 C47.2240415,62.4376076 52.7534569,63.1730506 57.5602569,60.1612785 C62.8400415,56.8553291 61.1874108,54.1395063 57.48518,49.4973544 C53.9828415,45.1041899 53.2743031,45.6198861 52.8031954,40.1014051" id="Fill-10" fill="#009344" mask="url(#mask-5)"></path>
                    </g>
                    <g id="Group-15">
                        <mask id="mask-7" fill="white">
                            <use xlink:href="#path-6"></use>
                        </mask>
                        <g id="Clip-14"></g>
                        <path d="M179.690429,88.5810418 C176.201538,137.472351 144.777175,174.658896 96.3390836,175.925769 C45.1134382,177.265696 2.08565636,142.666351 0.0837109091,94.3755145 C0.0340836364,95.6227873 0.000374545455,96.8727327 0.000374545455,98.1306964 C0.000374545455,152.182151 46.0526109,195.999733 102.861793,195.999733 C159.670038,195.999733 205.724147,152.182151 205.724147,98.1306964 C205.724147,44.0801327 159.670038,0.262550909 102.861793,0.262550909 C101.539647,0.262550909 100.225929,0.294623636 98.9159564,0.341841818 C149.668738,2.24749636 183.161529,39.9356236 179.690429,88.5810418" id="Fill-13" fill="#3DC3DF" mask="url(#mask-7)"></path>
                    </g>
                </g>
                <g id="earth-right" opacity="0.8" transform="translate(1494.000000, 746.000000)">
                    <g id="Group-3">
                        <mask id="mask-9" fill="white">
                            <use xlink:href="#path-8"></use>
                        </mask>
                        <g id="Clip-2"></g>
                        <path d="M0.00272724595,141.090702 C0.00272724595,63.2755566 63.0839261,0.187539691 140.905889,0.187539691 C218.727852,0.187539691 281.815869,63.2755566 281.815869,141.090702 C281.815869,218.912665 218.727852,282.000682 140.905889,282.000682 C63.0839261,282.000682 0.00272724595,218.912665 0.00272724595,141.090702" id="Fill-1" fill="#F0F1F1" mask="url(#mask-9)"></path>
                    </g>
                    <path d="M11,84.8189395 C16.1400634,91.579901 23.9955074,96 32.9146406,96 C48.4273256,96 61,82.8980553 61,66.7323348 C61,53.7061239 52.7811839,42.7935741 41.490222,39 C28.6400634,51.957362 18.2013742,67.469018 11,84.8189395" id="Fill-4" fill="#D0D2D3"></path>
                    <path d="M131,43 C131,47.9682288 126.971429,52 122,52 C117.035714,52 113,47.9682288 113,43 C113,38.0317712 117.035714,34 122,34 C126.971429,34 131,38.0317712 131,43" id="Fill-6" fill="#D0D2D3"></path>
                    <path d="M265.746667,188 C254.833333,188 246,196.874512 246,207.823759 C246,214.516453 249.326667,220.412716 254.393333,224 C262.146667,213.512549 268.426667,201.900725 273,189.425544 C270.753333,188.528723 268.313333,188 265.746667,188" id="Fill-8" fill="#D0D2D3"></path>
                    <path d="M272,105 C272,109.975377 267.969829,114 262.996427,114 C258.030171,114 254,109.975377 254,105 C254,100.031771 258.030171,96 262.996427,96 C267.969829,96 272,100.031771 272,105" id="Fill-10" fill="#D0D2D3"></path>
                    <path d="M146,121 C146,129.833688 138.833688,137 130,137 C121.166312,137 114,129.833688 114,121 C114,112.166312 121.166312,105 130,105 C138.833688,105 146,112.166312 146,121" id="Fill-12" fill="#D0D2D3"></path>
                    <path d="M236,152.996427 C236,157.969829 232.195238,162 227.5,162 C222.811508,162 219,157.969829 219,152.996427 C219,148.030171 222.811508,144 227.5,144 C232.195238,144 236,148.030171 236,152.996427" id="Fill-14" fill="#D0D2D3"></path>
                    <path d="M203.66863,15 C201.404866,17.4481035 200,20.707733 200,24.3257865 C200,31.8797413 206.025608,38 213.46274,38 C219.188732,38 224.055826,34.3413702 226,29.2219935 C219.042254,23.7847692 211.578489,19.0238165 203.66863,15" id="Fill-16" fill="#D0D2D3"></path>
                    <path d="M199.463023,222.09169 C198.907441,222.09169 198.42639,222.306484 197.89791,222.400456 C198.853238,219.762518 199.463023,216.963485 199.463023,213.996644 C199.463023,200.196134 188.168466,189 174.231511,189 C160.301332,189 149,200.196134 149,213.996644 C149,227.803866 160.301332,239 174.231511,239 C180.837506,239 186.793064,236.429185 191.291915,232.314539 C192.138838,236.100282 195.384244,239 199.463023,239 C204.171911,239 208,235.214257 208,230.542489 C208,225.870721 204.171911,222.09169 199.463023,222.09169" id="Fill-18" fill="#D0D2D3"></path>
                    <path d="M58,154.496661 C58,161.956221 51.9628988,168 44.5033391,168 C37.0437794,168 31,161.956221 31,154.496661 C31,147.043779 37.0437794,141 44.5033391,141 C51.9628988,141 58,147.043779 58,154.496661" id="Fill-20" fill="#D0D2D3"></path>
                    <path d="M213,88.496326 C213,76.6259185 203.15007,67 190.996582,67 C178.84993,67 169,76.6259185 169,88.496326 C169,94.0541082 171.221532,99.0708083 174.755476,102.885104 C172.055461,105.443554 170.360261,109.004008 170.360261,112.971944 C170.360261,120.714095 176.785614,127 184.714774,127 C192.643934,127 199.069287,120.714095 199.069287,112.971944 C199.069287,111.462258 198.76169,110.046092 198.317384,108.683367 C206.854901,105.730795 213,97.8483634 213,88.496326" id="Fill-22" fill="#D0D2D3"></path>
                    <path d="M98.1015332,196.578824 C93.4586263,192.692127 86.5082087,193.264106 82.5694064,197.853716 C81.8095313,198.742694 81.363366,199.769499 80.9311435,200.796303 C74.4199198,198.315433 66.7653977,199.955564 61.9970069,205.523739 C55.9737764,212.559763 56.8591355,223.089679 63.9698938,229.043768 C71.0876233,235.004748 81.7398179,234.129552 87.7700198,227.093528 C90.593409,223.792592 91.8482487,219.726722 91.7018508,215.722873 C94.5740394,215.536807 97.3765147,214.275698 99.3912295,211.925763 C103.323061,207.336153 102.74444,200.465521 98.1015332,196.578824" id="Fill-24" fill="#D0D2D3"></path>
                    <g id="Group-28" transform="translate(15.000000, 35.000000)">
                        <mask id="mask-11" fill="white">
                            <use xlink:href="#path-10"></use>
                        </mask>
                        <g id="Clip-27"></g>
                        <path d="M219.439275,0.403988331 C229.205671,19.6176824 234.825441,41.2911667 234.825441,64.3243683 C234.825441,142.313381 171.718975,205.529988 93.8742543,205.529988 C57.905001,205.529988 25.1957597,191.925982 0.288722772,169.71271 C23.5862141,215.539967 70.9996097,246.99795 125.853744,246.99795 C203.698465,246.99795 266.80493,183.774511 266.80493,105.785498 C266.80493,63.839243 248.438378,26.2659486 219.439275,0.403988331" id="Fill-26" fill="#E5E6E7" mask="url(#mask-11)"></path>
                    </g>
                </g>
                <g id="earth-left" opacity="0.699999988" transform="translate(214.356161, 866.165978) rotate(-1.000000) translate(-214.356161, -866.165978) translate(2.856161, 700.665978)">
                    <path d="M364.003099,45 C351.848711,45 342,54.8473239 342,67 C342,79.1464789 351.848711,89 364.003099,89 C376.151289,89 386,79.1464789 386,67 C386,54.8473239 376.151289,45 364.003099,45" id="Fill-1" fill="#E2BDC5"></path>
                    <g id="Group-5" transform="translate(379.000000, 199.000000)">
                        <mask id="mask-13" fill="white">
                            <use xlink:href="#path-12"></use>
                        </mask>
                        <g id="Clip-4"></g>
                        <path d="M21.9708688,0.948590238 C9.83718125,0.948590238 0.00524375,10.5672423 0.00524375,22.4377123 C0.00524375,34.3021289 9.83718125,43.9268343 21.9708688,43.9268343 C34.0983688,43.9268343 43.9364938,34.3021289 43.9364938,22.4377123 C43.9364938,10.5672423 34.0983688,0.948590238 21.9708688,0.948590238" id="Fill-3" fill="#D55027" mask="url(#mask-13)"></path>
                    </g>
                    <g id="Group-8" transform="translate(0.000000, 286.000000)">
                        <mask id="mask-15" fill="white">
                            <use xlink:href="#path-14"></use>
                        </mask>
                        <g id="Clip-7"></g>
                        <path d="M21.9870108,0.946296064 C9.84048345,0.946296064 -0.00185821429,10.5719691 -0.00185821429,22.4511038 C-0.00185821429,34.3241807 9.84048345,43.9559114 21.9870108,43.9559114 C34.1335382,43.9559114 43.9758799,34.3241807 43.9758799,22.4511038 C43.9758799,10.5719691 34.1335382,0.946296064 21.9870108,0.946296064" id="Fill-6" fill="#AAD26E" mask="url(#mask-15)"></path>
                    </g>
                    <path d="M35,0 C22.8535211,0 13,9.84732394 13,22 C13,34.1464789 22.8535211,44 35,44 C47.1526761,44 57,34.1464789 57,22 C57,9.84732394 47.1526761,0 35,0" id="Fill-9" fill="#FDBE40"></path>
                    <path d="M188,21 C102.943803,21 34,89.9498758 34,175 C34,260.050124 102.943803,329 188,329 C273.050124,329 342,260.050124 342,175 C342,89.9498758 273.050124,21 188,21" id="Fill-11" fill="#ACDFEA"></path>
                    <path d="M213.583869,74.9054567 C178.183429,71.9023277 143.494159,62.6072182 108.032935,60.412624 C100.896926,59.9749209 93.657585,59.8715744 86.4243221,60.1694556 C69.4960555,75.3188428 55.9291288,94.1522303 47,115.411222 C57.4730353,115.307875 68.0250895,113.12544 78.437341,111.398944 C106.318834,106.778746 134.747381,105.52035 162.932793,107.648073 C199.457732,110.408033 235.532871,118.833816 272.16722,118.997955 C291.265465,119.083064 310.989783,116.517638 329,110.219578 C321.973402,95.0945076 312.576238,81.3007838 301.270466,69.3186642 C272.513687,75.4465062 242.869466,77.3918529 213.583869,74.9054567" id="Fill-13" fill="#00A69C"></path>
                    <path d="M237.675362,160.680711 C201.87412,158.332298 166.78951,149.898803 131.35873,144.260165 C100.434231,139.337059 68.5805383,136.591128 37.8564527,141.838364 C35.3360939,152.968864 34,164.551924 34,176.446882 C34,189.754557 35.6640442,202.67083 38.7977916,215 C47.7010352,209.630451 55.7783299,202.615789 63.6126984,195.680631 C75.8622498,184.843682 88.5429952,173.645909 104.096342,168.698341 C126.579158,161.536903 150.841408,168.612722 173.263492,175.96986 C205.068599,186.415407 236.84334,197.509213 269.844859,203.013307 C292.843892,206.853941 316.662802,207.844678 339.564665,204.028507 C341.161905,195.081297 342,185.858882 342,176.446882 C342,167.640332 341.259075,159.00502 339.856177,150.602104 C306.629952,159.482042 271.970462,162.931274 237.675362,160.680711" id="Fill-15" fill="#FFF2BC"></path>
                    <path d="M175.361329,243.800107 C171.285575,240.548343 166.18784,240.073633 161.254351,240.00836 C145.510988,239.812542 129.499963,243.058373 114.030345,249.573769 C109.011692,251.680295 107.217143,260.432763 111.110401,264.390659 C111.134734,264.420328 111.16515,264.444064 111.189483,264.473733 C113.890431,267.155845 117.357864,268.170538 120.752299,269.001281 C134.190123,272.282715 148.047689,273.552564 161.984337,272.78116 C165.567351,272.585342 169.229448,272.22931 172.672548,270.389808 C176.103482,268.55624 179.31542,264.978113 180.513813,260.302218 C182.156282,253.840226 179.437084,247.051871 175.361329,243.800107" id="Fill-17" fill="#CC6632"></path>
                    <path d="M134.154483,199.394323 C102.620138,201.603375 72.8336552,213.356275 44,227.004406 C46.4822069,234.191519 49.4681379,241.138652 52.9213793,247.80273 C71.7715862,241.440166 90.6217931,235.089908 109.472,228.733497 C132.922483,220.826442 156.712828,216.875991 180.527448,223.552376 C199.019586,228.739651 215.381517,238.043516 231.883034,247.962717 C256.043586,262.484624 284.337103,269.745577 312.4,268.939489 C319.342897,259.567936 325.254069,249.377988 330,238.535784 C297.075862,230.148768 264.157793,221.761751 231.233655,213.380888 C199.395862,205.270772 166.902621,197.09297 134.154483,199.394323" id="Fill-19" fill="#CC6632"></path>
                    <path d="M217.2453,276.17033 C198.860223,277.587754 181.879142,287.978091 163.609048,290.689685 C141.647415,293.949761 119.782609,285.95672 97.9178026,281.944793 C90.4802585,280.576671 82.6796122,279.800169 75,280.05284 C103.061751,311.359429 143.462926,331 188.366569,331 C223.169918,331 255.256052,319.198402 281,299.311323 C261.168566,286.351134 239.902879,274.426282 217.2453,276.17033" id="Fill-21" fill="#FFF2BC"></path>
                    <g id="Group-25" transform="translate(55.000000, 43.000000)">
                        <mask id="mask-17" fill="white">
                            <use xlink:href="#path-16"></use>
                        </mask>
                        <g id="Clip-24"></g>
                        <path d="M210.929881,0.0430923175 C240.307556,27.2451296 258.814277,66.0297349 258.814277,109.227614 C258.814277,191.483273 192.143951,258.161955 109.898602,258.161955 C66.7061372,258.161955 27.926393,239.652915 0.721695349,210.271558 C27.3861837,256.104046 76.8972767,287.003035 133.734579,287.003035 C218.735602,287.003035 287.645672,218.078257 287.645672,133.066579 C287.645672,76.2282224 256.756626,26.7048526 210.929881,0.0430923175" id="Fill-23" fill="#C1B49A" mask="url(#mask-17)"></path>
                    </g>
                    <path d="M176.019183,38.3738033 C176.06808,37.972315 176.226997,37.5888037 176.526495,37.313155 C176.81988,37.0375063 177.211061,36.8936896 177.596129,36.7738424 C183.408828,34.8982327 190.120019,34.8682709 196.189429,34.5027367 C200.584098,34.2450651 204.984879,34.0772789 209.391773,34.0413248 C212.264505,34.0173553 215.308378,33.8675462 218.156662,34.3409429 C218.450047,34.3828895 218.755657,34.424836 219.04293,34.5267062 C226.53037,37.247239 249.805612,47.7758211 241.065172,57.8489835 C231.163415,69.2404659 203.346811,62.427149 191.953678,56.4467706 C188.139667,54.4513136 184.594594,51.8805898 181.715749,48.7106297 C180.261047,47.1106688 178.98971,45.3608987 177.968973,43.467312 C177.217173,42.0830761 176.184212,40.5190693 176.013071,38.9251007 C175.994734,38.7453298 175.994734,38.5595666 176.019183,38.3738033" id="Fill-26" fill="#00A69C"></path>
                </g>
            </g>
        </g>
    </g>
</svg>