<?xml version="1.0" encoding="UTF-8"?>
<svg width="1920px" height="1080px" viewBox="0 0 1920 1080" version="1.1" xmlns="http://www.w3.org/2000/svg" xmlns:xlink="http://www.w3.org/1999/xlink">
    <!-- Generator: Sketch 47.1 (45422) - http://www.bohemiancoding.com/sketch -->
    <title>Desktop HD-ReserveClass-bg</title>
    <desc>Created with Sketch.</desc>
    <defs>
        <filter x="-9.5%" y="-2.6%" width="112.7%" height="108.6%" filterUnits="objectBoundingBox" id="filter-1">
            <feOffset dx="-7" dy="5" in="SourceAlpha" result="shadowOffsetOuter1"></feOffset>
            <feGaussianBlur stdDeviation="3" in="shadowOffsetOuter1" result="shadowBlurOuter1"></feGaussianBlur>
            <feColorMatrix values="0 0 0 0 0   0 0 0 0 0   0 0 0 0 0  0 0 0 0.3 0" type="matrix" in="shadowBlurOuter1" result="shadowMatrixOuter1"></feColorMatrix>
            <feMerge>
                <feMergeNode in="shadowMatrixOuter1"></feMergeNode>
                <feMergeNode in="SourceGraphic"></feMergeNode>
            </feMerge>
        </filter>
    </defs>
    <g id="-" stroke="none" stroke-width="1" fill="none" fill-rule="evenodd">
        <g id="Desktop-HD-ReserveClass-bg">
            <g id="2-bg1" transform="translate(354.000000, 699.000000)">
                <g id="illustration-leftdown" filter="url(#filter-1)" transform="translate(115.500000, 154.500000) rotate(-5.000000) translate(-115.500000, -154.500000) translate(13.000000, 9.000000)">
                    <g id="Group-261">
                        <path d="M156.830033,248.773795 C154.003047,249.465607 151.140368,247.727842 150.448493,244.902031 C149.757533,242.07439 151.495458,239.21289 154.322444,238.521078 L187.774051,230.340135 L190.281641,240.593767 L156.830033,248.773795 Z" id="Fill-1" fill="#D84C2C"></path>
                        <path d="M192.700732,238.785541 L156.548433,247.626267 C154.352004,248.163427 152.134527,246.818239 151.596402,244.621097 C151.059192,242.423956 152.40542,240.206682 154.602763,239.668607 L186.927786,231.764022 L192.700732,238.785541 Z" id="Fill-3" fill="#FFFFFF"></path>
                        <path d="M161.010935,288.081764 C161.54723,290.275245 164.283614,291.497811 167.1106,290.806915 L204.409618,281.685255 L193.848458,238.504698 L156.54944,247.626358 C153.722453,248.317255 150.986069,247.095604 150.448859,244.901208 L161.010935,288.081764 Z" id="Fill-5" fill="#FA582C"></path>
                        <path d="M169.524567,259.669183 L168.004455,257.181957 L167.888228,260.091042 L169.524567,259.669183 Z M170.088317,263.773381 L169.66642,262.136277 L170.854321,261.830636 L170.372937,261.049145 L167.812268,261.708928 L167.768339,262.624938 L168.743004,262.374202 L169.163987,264.011306 L165.191196,265.034381 L164.769299,263.398192 L165.618585,263.179485 L165.892223,257.25974 L165.381554,257.392428 L164.966062,255.780032 L169.764344,254.544655 L173.803942,261.071108 L174.677937,260.845994 L175.099835,262.483098 L170.088317,263.773381 Z" id="Fill-7" fill="#26555B"></path>
                        <path d="M179.497634,259.619127 C180.022031,259.484608 180.406406,258.958429 180.233437,258.284005 C180.068705,257.647099 179.588237,257.277401 178.900022,257.454929 L177.93817,257.702005 L178.498259,259.876269 L179.497634,259.619127 Z M177.573929,256.290014 L178.336272,256.093269 C178.998862,255.923061 179.093125,255.513099 178.93846,254.912797 C178.791116,254.338118 178.353661,254.091042 177.877768,254.213665 L177.091629,254.415901 L177.573929,256.290014 Z M175.186228,260.729137 L175.911049,260.542458 L174.494353,255.044571 L173.770446,255.23125 L173.355871,253.619769 L178.016875,252.42008 C180.09067,251.885665 181.276741,252.406354 181.62817,253.767099 C181.898147,254.817627 181.741652,255.404203 180.901518,256.019146 C181.866116,256.037448 182.785871,256.507807 183.097946,257.719392 C183.551875,259.480948 182.763906,260.509514 180.353326,261.129948 L175.604464,262.352514 L175.186228,260.729137 Z" id="Fill-9" fill="#26555B"></path>
                        <path d="M191.863344,256.501218 C191.255665,257.656982 190.167518,258.816407 188.531179,259.23735 C185.882652,259.919095 183.683478,258.674567 182.965062,255.888105 C182.224683,253.014708 183.943388,250.733378 185.579728,250.31152 C186.828946,249.990322 187.571156,250.545784 187.723076,250.666576 L187.830152,249.892407 L189.791379,249.38819 L190.705643,252.93601 L188.468031,253.511605 C188.221848,252.709067 187.625152,252.050199 186.739259,252.278973 C185.838723,252.510492 185.538545,253.774237 185.889058,255.134982 C186.20754,256.37219 187.130955,257.320227 188.317942,257.014586 C189.367652,256.744633 189.908522,255.432388 189.989973,255.278652 L191.863344,256.501218 Z" id="Fill-11" fill="#26555B"></path>
                        <path d="M108.520411,195.656321 L142.72521,212.301887 L117.298804,221.079472 L108.520411,195.656321 Z M78.4915714,161.773123 L106.574741,243.109453 L187.919473,215.029783 L78.4915714,161.773123 Z" id="Fill-13" fill="#FAAD3B"></path>
                        <polygon id="Fill-15" fill="#F0871C" points="105.193004 239.107288 106.574924 243.10991 187.919656 215.029325 182.53383 212.408495"></polygon>
                        <polygon id="Fill-17" fill="#FAC145" points="109.433759 237.642588 84.1977098 164.549427 78.4915714 161.773031 106.574741 243.110276 106.812688 243.027918"></polygon>
                        <path d="M110.031737,237.436142 L111.414571,241.43968" id="Stroke-19" stroke="#325F65" stroke-width="1.176"></path>
                        <path d="M115.097342,236.90978 L116.103123,239.82161" id="Stroke-21" stroke="#325F65" stroke-width="1.176"></path>
                        <path d="M119.785893,235.291344 L120.791674,238.203175" id="Stroke-23" stroke="#325F65" stroke-width="1.176"></path>
                        <path d="M124.474353,233.673 L125.479219,236.58483" id="Stroke-25" stroke="#325F65" stroke-width="1.176"></path>
                        <path d="M129.161989,232.054564 L130.16777,234.966394" id="Stroke-27" stroke="#325F65" stroke-width="1.176"></path>
                        <path d="M133.474219,229.344146 L134.856138,233.347684" id="Stroke-29" stroke="#325F65" stroke-width="1.176"></path>
                        <path d="M138.539,228.817784 L139.544781,231.729614" id="Stroke-31" stroke="#325F65" stroke-width="1.176"></path>
                        <path d="M143.22746,227.19944 L144.233241,230.11127" id="Stroke-33" stroke="#325F65" stroke-width="1.176"></path>
                        <path d="M147.916011,225.581004 L148.920877,228.492834" id="Stroke-35" stroke="#325F65" stroke-width="1.176"></path>
                        <path d="M152.604471,223.962659 L153.609337,226.873575" id="Stroke-37" stroke="#325F65" stroke-width="1.176"></path>
                        <path d="M156.914962,221.25215 L158.297797,225.255688" id="Stroke-39" stroke="#325F65" stroke-width="1.176"></path>
                        <path d="M161.980567,220.725879 L162.986348,223.636794" id="Stroke-41" stroke="#325F65" stroke-width="1.176"></path>
                        <path d="M166.669118,219.107443 L167.6749,222.018358" id="Stroke-43" stroke="#325F65" stroke-width="1.176"></path>
                        <path d="M171.357578,217.489008 L172.362444,220.399923" id="Stroke-45" stroke="#325F65" stroke-width="1.176"></path>
                        <path d="M176.045214,215.869748 L177.050996,218.781578" id="Stroke-47" stroke="#325F65" stroke-width="1.176"></path>
                        <path d="M180.357444,213.160245 L181.739364,217.162868" id="Stroke-49" stroke="#325F65" stroke-width="1.176"></path>
                        <path d="M200.958754,139.180542 L188.736545,83.4631925 L146.732594,92.5930887 L151.172125,96.9278906 C151.949112,97.6874189 152.486321,98.6592491 152.715116,99.7225887 L162.992571,147.431947 C163.527951,149.921004 165.98246,151.503202 168.471746,150.962381 L197.438978,144.666532 C199.927348,144.125711 201.505116,141.667768 200.958754,139.180542" id="Fill-51" fill="#FFFFFF"></path>
                        <path d="M167.721025,147.511103 C167.361359,147.589801 167.083145,147.474499 166.912007,147.364688 C166.741783,147.254876 166.521225,147.04898 166.44435,146.689348 L156.16781,98.9781594 C155.151962,94.3029425 152.773413,93.2496689 150.923837,91.6821123 L185.291538,84.2121972 L197.508257,139.936867 C197.587877,140.296499 197.47348,140.575603 197.363658,140.74581 C197.254752,140.916933 197.047922,141.137471 196.688257,141.215254 L167.721025,147.511103 Z" id="Fill-53" fill="#FFFFFF"></path>
                        <path d="M157.924862,107.124512 L166.445174,146.688616 C166.522049,147.049163 166.741692,147.255059 166.911915,147.364871 C167.083054,147.474682 167.362183,147.589984 167.720933,147.511286 L196.688165,141.215437 C197.04783,141.137654 197.254661,140.917116 197.363567,140.745993 C197.473388,140.575786 197.587786,140.296682 197.508165,139.936135 L188.839594,100.404975 L157.924862,107.124512 Z" id="Fill-55" fill="#41C690"></path>
                        <path d="M182.75265,115.193265 C182.75265,116.580548 181.627895,117.704284 180.2414,117.704284 C178.853989,117.704284 177.73015,116.580548 177.73015,115.193265 C177.73015,113.805982 178.853989,112.682246 180.2414,112.682246 C181.627895,112.682246 182.75265,113.805982 182.75265,115.193265" id="Fill-57" fill="#37B08A"></path>
                        <path d="M182.75265,128.573866 C182.75265,131.115998 180.691667,133.176791 178.150217,133.176791 C175.606935,133.176791 173.545953,131.115998 173.545953,128.573866 C173.545953,126.031734 175.606935,123.970942 178.150217,123.970942 C180.691667,123.970942 182.75265,126.031734 182.75265,128.573866" id="Fill-59" fill="#37B08A"></path>
                        <path d="M186.796732,124.181596 C186.796732,125.298926 185.891621,126.203955 184.775103,126.203955 C183.65767,126.203955 182.752558,125.298926 182.752558,124.181596 C182.752558,123.065181 183.65767,122.160153 184.775103,122.160153 C185.891621,122.160153 186.796732,123.065181 186.796732,124.181596" id="Fill-61" fill="#37B08A"></path>
                        <path d="M174.229134,118.378251 C174.229134,120.137977 172.802371,121.563694 171.043397,121.563694 C169.284424,121.563694 167.857661,120.137977 167.857661,118.378251 C167.857661,116.61944 169.284424,115.193723 171.043397,115.193723 C172.802371,115.193723 174.229134,116.61944 174.229134,118.378251" id="Fill-63" fill="#37B08A"></path>
                        <path d="M187.068449,136.696243 C187.068449,137.476819 186.436975,138.108234 185.656328,138.108234 C184.876596,138.108234 184.245123,137.476819 184.245123,136.696243 C184.245123,135.916583 184.876596,135.284253 185.656328,135.284253 C186.436975,135.284253 187.068449,135.916583 187.068449,136.696243" id="Fill-65" fill="#37B08A"></path>
                        <polygon id="Fill-67" fill="#FA582C" points="133.277547 159.736214 188.727301 202.007167 196.008462 192.458158 140.559623 150.185375"></polygon>
                        <polygon id="Fill-69" fill="#D84C2C" points="138.806232 152.48519 194.255987 194.756142 196.008554 192.458341 140.559714 150.185558"></polygon>
                        <path d="M192.017002,192.099624 L193.311065,190.402124" id="Stroke-71" stroke="#FA582C" stroke-width="1.176"></path>
                        <path d="M189.867614,189.727882 L190.808417,188.49342" id="Stroke-73" stroke="#FA582C" stroke-width="1.176"></path>
                        <path d="M187.364326,187.820002 L188.306045,186.58554" id="Stroke-75" stroke="#FA582C" stroke-width="1.176"></path>
                        <path d="M184.861862,185.91203 L185.802665,184.677568" id="Stroke-77" stroke="#FA582C" stroke-width="1.176"></path>
                        <path d="M182.359397,184.004058 L183.300201,182.769596" id="Stroke-79" stroke="#FA582C" stroke-width="1.176"></path>
                        <path d="M179.503033,182.559033 L180.798011,180.862448" id="Stroke-81" stroke="#FA582C" stroke-width="1.176"></path>
                        <path d="M154.47592,163.479682 L155.769982,161.782182" id="Stroke-83" stroke="#FA582C" stroke-width="1.176"></path>
                        <path d="M152.325616,161.108856 L153.267335,159.873478" id="Stroke-85" stroke="#FA582C" stroke-width="1.176"></path>
                        <path d="M149.823152,159.200975 L150.763955,157.965598" id="Stroke-87" stroke="#FA582C" stroke-width="1.176"></path>
                        <path d="M147.320779,157.293004 L148.261583,156.057626" id="Stroke-89" stroke="#FA582C" stroke-width="1.176"></path>
                        <path d="M144.8174,155.385032 L145.759118,154.149655" id="Stroke-91" stroke="#FA582C" stroke-width="1.176"></path>
                        <path d="M141.961951,153.940007 L143.256013,152.242507" id="Stroke-93" stroke="#FA582C" stroke-width="1.176"></path>
                        <path d="M177.353645,180.188207 L178.294449,178.953744" id="Stroke-95" stroke="#FA582C" stroke-width="1.176"></path>
                        <path d="M174.851181,178.280326 L175.791984,177.045864" id="Stroke-97" stroke="#FA582C" stroke-width="1.176"></path>
                        <path d="M172.347801,176.372355 L173.28952,175.137892" id="Stroke-99" stroke="#FA582C" stroke-width="1.176"></path>
                        <path d="M169.845429,174.464383 L170.786232,173.229006" id="Stroke-101" stroke="#FA582C" stroke-width="1.176"></path>
                        <path d="M166.989065,173.019358 L168.284042,171.321858" id="Stroke-103" stroke="#FA582C" stroke-width="1.176"></path>
                        <path d="M164.839585,170.648531 L165.780388,169.413154" id="Stroke-105" stroke="#FA582C" stroke-width="1.176"></path>
                        <path d="M162.337212,168.740651 L163.278016,167.505274" id="Stroke-107" stroke="#FA582C" stroke-width="1.176"></path>
                        <path d="M159.833833,166.832679 L160.775551,165.597302" id="Stroke-109" stroke="#FA582C" stroke-width="1.176"></path>
                        <path d="M157.331368,164.924708 L158.272172,163.68933" id="Stroke-111" stroke="#FA582C" stroke-width="1.176"></path>
                        <path d="M82.3395312,50.1974085 L74.5952902,74.675267 C73.8091518,77.1615783 82.4035937,82.0966821 93.7920759,85.6994085 C105.179643,89.3003047 115.049844,90.2062481 115.836897,87.7190217 L123.580223,63.2420783 L82.3395312,50.1974085 Z" id="Fill-113" fill="#26555B"></path>
                        <polygon id="Fill-115" fill="#325F65" points="108.495335 39.2216755 58.2630134 42.582817 97.4235045 74.2176283 147.655826 70.8564868"></polygon>
                        <path d="M118.750917,81.2820651 L117.153931,80.776933 L119.506855,73.337216 C119.58556,73.0883104 119.512346,72.8137821 119.318328,72.6389991 L102.397592,57.3404519 L103.520516,56.0977538 L120.442167,71.3963009 C121.120315,72.0094142 121.380225,72.9702632 121.103842,73.8423481 L118.750917,81.2820651 Z" id="Fill-117" fill="#F0871C"></path>
                        <path d="M118.474717,81.8665358 L117.759962,81.6395925 L117.044292,81.4135642 C116.348757,81.6286113 115.80331,82.1712623 115.583667,82.8658189 L114.348176,86.7696113 L115.974449,87.2838943 L117.598891,87.7981774 L118.834382,83.8934698 C119.054025,83.1998283 118.919493,82.4421302 118.474717,81.8665358" id="Fill-119" fill="#F0871C"></path>
                        <path d="M117.043926,81.4134726 L118.47435,81.8664443 C118.976783,82.0247557 119.513078,81.746567 119.672319,81.2441802 L120.08598,79.9365104 C120.245221,79.4341236 119.966092,78.8978783 119.464574,78.7386519 L118.033234,78.2865953 C117.530801,78.1273689 116.994507,78.4055575 116.835266,78.9079443 L116.421605,80.2165292 C116.262364,80.718916 116.541493,81.2542462 117.043926,81.4134726" id="Fill-121" fill="#F0871C"></path>
                        <path d="M102.506498,54.3297 L102.506498,54.3297 C99.7957388,54.0149075 99.2310737,55.7984264 101.629757,57.0996906 C102.294176,57.4602377 103.078484,57.7082283 103.828016,57.7951623 C106.538775,58.1099547 107.10344,56.3264358 104.704757,55.0251717 C104.041252,54.6646245 103.256029,54.416634 102.506498,54.3297" id="Fill-123" fill="#F0871C"></path>
                        <path d="M102.684317,54.5557283 L102.684317,54.5557283 C100.568424,54.1906057 100.253603,55.1871434 102.193781,56.1040679 C102.730991,56.3584642 103.354228,56.5561245 103.939027,56.6567849 C106.05492,57.0219075 106.369741,56.0244547 104.429562,55.1084453 C103.892353,54.8540491 103.269116,54.6563887 102.684317,54.5557283" id="Fill-125" fill="#FAAD3B"></path>
                        <path d="M10.3174487,234.547007 L10.3174487,234.547007 C9.10483705,234.860884 7.38338616,232.259271 6.47095312,228.735242 C5.55943527,225.213044 5.80287277,222.101724 7.01548437,221.788761 L6.32910045,219.137733 L2.03416741,220.248658 L6.70889955,238.308959 L11.0029174,237.198035 L10.3174487,234.547007 Z" id="Fill-127" fill="#325F65"></path>
                        <polygon id="Fill-129" fill="#325F65" points="5.42783259 215.654426 1.13381473 216.766266 1.59964063 218.567172 5.89365848 217.456247"></polygon>
                        <polygon id="Fill-131" fill="#325F65" points="11.4381763 238.880253 7.14415848 239.991177 7.60998437 241.792998 11.9049174 240.681158"></polygon>
                        <path d="M4.1435625,210.692876 L0.516709821,211.630848 C0.148808036,211.726933 -0.0726651786,212.103037 0.0225133929,212.47182 L1.13354018,216.766358 L5.42755804,215.654518 L4.1435625,210.692876 Z" id="Fill-133" fill="#FA582C"></path>
                        <polygon id="Fill-135" fill="#FA582C" points="7.61035045 241.792632 8.14664509 243.864406 13.6560201 250.990245 14.5153728 250.768792 11.9043683 240.680792"></polygon>
                        <polygon id="Fill-137" fill="#FFFFFF" points="5.89347545 217.455973 1.60037277 218.566897 2.03416741 220.248841 6.32910045 219.137916"></polygon>
                        <polygon id="Fill-139" fill="#FFFFFF" points="11.0029174 237.198401 6.70889955 238.309325 7.14360937 239.991269 11.4385424 238.880344"></polygon>
                        <path d="M5.42783259,215.654426 L5.89365848,217.456247 L10.1876763,216.344408 L9.72093527,214.543502 L5.42783259,215.654426 Z M11.9045513,240.681342 L16.1985692,239.570417 L15.7327433,237.768596 L11.4378103,238.880436 L11.9045513,240.681342 Z M6.3283683,219.138191 L10.6233013,218.026351 L15.2971183,236.087568 L11.0031004,237.198492 L10.3176317,234.547464 C11.5293281,234.233587 11.7727656,231.123181 10.8612478,227.600068 C9.94881473,224.076955 8.22736384,221.474426 7.01475223,221.788304 L6.3283683,219.138191 Z" id="Fill-141" fill="#26555B"></path>
                        <path d="M9.72130134,214.543593 L8.61027455,210.249971 C8.51509598,209.881188 8.13895759,209.659735 7.76922545,209.754905 L4.14328795,210.692876 L5.42819866,215.654518 L9.72130134,214.543593 Z" id="Fill-143" fill="#D84C2C"></path>
                        <polygon id="Fill-145" fill="#D84C2C" points="16.7344062 241.641642 16.1981116 239.569868 11.9050089 240.680792 14.5150982 250.768792 15.3744509 250.545509"></polygon>
                        <path d="M7.0151183,221.788395 C5.80342187,222.102273 5.5590692,225.212678 6.47058705,228.735792 C7.38302009,232.258905 9.10447098,234.860518 10.3161674,234.546641 C11.5296942,234.233678 11.7722165,231.123273 10.8606987,227.600159 C9.9491808,224.077046 8.22681473,221.474518 7.0151183,221.788395" id="Fill-147" fill="#FFFFFF"></path>
                        <polygon id="Fill-149" fill="#FFFFFF" points="6.32873437 219.137825 10.6227522 218.025985 10.1880424 216.344042 5.89310937 217.455881"></polygon>
                        <polygon id="Fill-151" fill="#FFFFFF" points="11.4381763 238.880253 15.7321942 237.768413 15.2974844 236.087385 11.0025513 237.198309"></polygon>
                        <path d="M89.5518705,124.501513 L89.5518705,124.501513 C88.4161339,123.976249 88.7327857,120.872249 90.2611339,117.569674 C91.7903973,114.266183 93.9511339,112.015051 95.0868705,112.54123 L96.23725,110.055834 L92.2113795,108.193617 L84.3765357,125.124692 L88.4014911,126.986909 L89.5518705,124.501513 Z" id="Fill-153" fill="#325F65"></path>
                        <polygon id="Fill-155" fill="#325F65" points="97.7483013 106.791235 93.7224308 104.928103 92.9408683 106.617367 96.9667388 108.479584"></polygon>
                        <polygon id="Fill-157" fill="#325F65" points="87.6723683 128.563159 83.6474129 126.700942 82.8649353 128.389292 86.8908058 130.251508"></polygon>
                        <path d="M99.9003437,102.13981 L96.5013705,100.566763 C96.155433,100.406622 95.745433,100.557612 95.5852768,100.902603 L93.7219732,104.928103 L97.7478437,106.791235 L99.9003437,102.13981 Z" id="Fill-159" fill="#AA266D"></path>
                        <polygon id="Fill-161" fill="#AA266D" points="82.8650268 128.388925 81.9672366 130.331671 81.7091562 139.335284 82.5145134 139.707727 86.8908973 130.251142"></polygon>
                        <path d="M97.7483013,106.791235 L96.9667388,108.479584 L100.992609,110.341801 L101.773257,108.653452 L97.7483013,106.791235 Z M86.8915379,130.251508 L90.9164933,132.114641 L91.6980558,130.425376 L87.6721853,128.563159 L86.8915379,130.251508 Z M96.2373415,110.055376 L100.262297,111.918508 L92.4274531,128.848669 L88.4015826,126.986452 L89.5519621,124.501971 C90.6886138,125.027235 92.8484353,122.776103 94.3767835,119.472612 C95.9051317,116.170037 96.2236138,113.066037 95.0869621,112.540773 L96.2373415,110.055376 Z" id="Fill-163" fill="#26555B"></path>
                        <path d="M101.773623,108.653543 L103.636011,104.628958 C103.796167,104.283053 103.645163,103.872175 103.300141,103.712949 L99.9002522,102.139902 L97.7486674,106.791326 L101.773623,108.653543 Z" id="Fill-165" fill="#97266D"></path>
                        <polygon id="Fill-167" fill="#97266D" points="90.0175134 134.056379 90.9162187 132.114549 86.8912634 130.251417 82.5148795 139.708002 83.3202366 140.080445"></polygon>
                        <polygon id="Fill-169" fill="#FFFFFF" points="84.3762612 125.124418 83.6468638 126.701125 87.6727344 128.563342 91.6976897 130.425559 92.4270871 128.848852 88.4012165 126.986635"></polygon>
                        <path d="M95.086779,112.540956 C93.9510424,112.015692 91.7903058,114.266824 90.2628728,117.569399 C88.7336094,120.871975 88.4160424,123.975975 89.551779,124.501239 C90.6884308,125.027418 92.8491674,122.776286 94.3775156,119.472795 C95.9058638,116.17022 96.2234308,113.06622 95.086779,112.540956" id="Fill-171" fill="#FFFFFF"></path>
                        <polygon id="Fill-173" fill="#FFFFFF" points="96.9662812 108.479309 92.9413259 106.617092 92.2119286 108.1938 96.2368839 110.056017 100.262754 111.918234 100.992152 110.341526"></polygon>
                        <polygon id="Fill-175" fill="#78969A" points="78.4320848 256.406506 74.3915714 259.733789 65.6955446 249.17726 69.7369732 245.849062"></polygon>
                        <path d="M66.3033147,216.750892 C72.7873549,224.623449 71.6607701,236.260704 63.788404,242.743232 C55.9151228,249.226675 44.2777121,248.101109 37.7936719,240.228553 C31.3096317,232.356911 32.4353013,220.719657 40.3085826,214.236213 C48.1809487,207.75277 59.8192746,208.878336 66.3033147,216.750892" id="Fill-177" fill="#FFFFFF"></path>
                        <path d="M66.087058,253.066869 L67.4460982,254.718614 C67.8670804,255.228322 68.6221027,255.301529 69.1318571,254.880586 L74.6778393,250.314265 C75.1875938,249.894237 75.2598929,249.140199 74.8398259,248.629576 L73.4798705,246.978746 L66.087058,253.066869 Z" id="Fill-179" fill="#26555B"></path>
                        <path d="M66.3033147,216.750892 C72.7873549,224.623449 71.6607701,236.260704 63.788404,242.743232 C55.9151228,249.226675 44.2777121,248.101109 37.7936719,240.228553 C31.3096317,232.356911 32.4353013,220.719657 40.3085826,214.236213 C48.1809487,207.75277 59.8192746,208.878336 66.3033147,216.750892 M33.7311942,206.2511 C21.4485826,216.366553 19.6914397,234.52294 29.8078237,246.805336 C39.9242076,259.086817 58.0822656,260.843798 70.3639621,250.728345 C82.6474888,240.612892 84.4037165,222.456506 74.2891629,210.175025 C64.172779,197.893543 46.014721,196.137477 33.7311942,206.2511" id="Fill-181" fill="#325F65"></path>
                        <path d="M79.1846362,255.78717 L73.638654,260.352575 C73.1288996,260.773519 73.0556853,261.527557 73.4766674,262.038179 L93.088029,285.850764 C93.5090112,286.360472 94.2640335,286.433679 94.7737879,286.013651 L100.31977,281.44733 C100.829525,281.026387 100.902739,280.272349 100.481757,279.761726 L80.8694799,255.950057 C80.4494129,255.439434 79.6953058,255.366226 79.1846362,255.78717" id="Fill-183" fill="#325F65"></path>
                        <path d="M53.5686049,213.475678 C55.1225781,215.362603 54.8526004,218.15181 52.9664174,219.706556 C51.078404,221.261301 48.2880246,220.991348 46.7340513,219.103508 C45.1791629,217.216584 45.4500558,214.426461 47.3362388,212.872631 C49.2242522,211.318801 52.0146317,211.587839 53.5686049,213.475678" id="Fill-185" fill="#FFFFFF"></path>
                        <path d="M59.9944397,213.91895 C60.6680112,214.737959 60.5508683,215.948629 59.7326987,216.623054 C58.9126987,217.297478 57.7028326,217.180346 57.028346,216.361337 C56.3529442,215.542327 56.4700871,214.331658 57.2900871,213.657233 C58.1082567,212.982808 59.3199531,213.099025 59.9944397,213.91895" id="Fill-187" fill="#FFFFFF"></path>
                        <path d="M65.6223304,217.31212 C71.796125,224.807658 70.7244509,235.88945 63.227308,242.062676 C55.7301652,248.236818 44.6482679,247.164327 38.4744732,239.66879 C32.2997634,232.172337 33.3723527,221.090544 40.8685804,214.917318 C48.3666384,208.744092 59.4485357,209.816582 65.6223304,217.31212 M39.396058,213.129224 C30.9114375,220.115054 29.6979107,232.657337 36.6862143,241.141176 C43.6736027,249.625016 56.216125,250.838431 64.6998304,243.850771 C73.1853661,236.864025 74.3979777,224.322658 67.4105893,215.839733 C60.4232009,207.354978 47.8806786,206.142478 39.396058,213.129224" id="Fill-189" fill="#26555B"></path>
                        <path d="M50.4842701,151.89898 L60.815721,149.400773 C61.8398058,149.151867 62.4703638,148.120556 62.2223504,147.09565 C61.9752522,146.071659 60.9429308,145.441159 59.9179308,145.68915 L49.5873951,148.187358 C48.5614799,148.436263 47.9318371,149.467575 48.1798504,150.49248 C48.4278638,151.516471 49.4601853,152.146971 50.4842701,151.89898" id="Fill-191" fill="#FFFFFF"></path>
                        <path d="M59.0989375,184.963901 L50.2418393,148.029778 L59.2691607,145.846363 L68.2662813,182.746627 C68.8840268,185.280524 67.3282232,187.835467 64.7940938,188.44858 C62.2581339,189.061693 59.7066161,187.499627 59.0989375,184.963901" id="Fill-193" fill="#FFFFFF"></path>
                        <path d="M64.2182634,186.07025 C64.8085536,185.927495 65.3064107,185.563288 65.6230625,185.045344 C65.9387991,184.526486 66.0330625,183.916118 65.8893795,183.326797 L56.9544911,146.405486 L52.6742009,147.441373 L61.4791339,184.393797 C61.6200714,184.984033 61.9833973,185.482759 62.5004732,185.800297 C63.0175491,186.11692 63.6279732,186.213005 64.2182634,186.07025" id="Fill-195" fill="#FFFFFF"></path>
                        <path d="M60.1750045,159.920331 L65.8893795,183.326614 C66.0330625,183.91685 65.9387991,184.527218 65.6230625,185.045161 C65.3064107,185.563105 64.8076384,185.927312 64.2182634,186.070067 C63.6279732,186.212822 63.0175491,186.116737 62.5004732,185.800114 C61.9833973,185.483492 61.6200714,184.984765 61.4791339,184.393614 L55.862683,160.963539 L60.1750045,159.920331 Z" id="Fill-197" fill="#9BB21D"></path>
                        <path d="M51.7311094,149.364535 C51.8793683,149.977648 51.5032299,150.595337 50.8900603,150.743582 C50.2768906,150.891827 49.6591451,150.514808 49.5108862,149.901695 C49.3626272,149.288582 49.7396808,148.671808 50.3528504,148.523563 C50.9660201,148.375318 51.5828504,148.751422 51.7311094,149.364535" id="Fill-199" fill="#FFFFFF"></path>
                        <path d="M52.2530357,148.778325 C52.3280804,149.088542 52.6401562,149.278882 52.9494866,149.203844 C53.2597321,149.128807 53.4500893,148.816759 53.3750446,148.506542 C53.3,148.197241 52.9879241,148.006901 52.6785937,148.081939 C52.3683482,148.156061 52.1779911,148.468108 52.2530357,148.778325" id="Fill-201" fill="#FFFFFF"></path>
                        <polygon id="Fill-203" fill="#F0871C" points="137.074165 124.800017 101.973406 149.3218 105.22046 150.237809 138.569567 126.940423"></polygon>
                        <polygon id="Fill-205" fill="#FAAD3B" points="135.578031 122.659703 102.230754 145.95709 102.257295 149.123316 137.074348 124.800108"></polygon>
                        <path d="M103.760384,149.424474 C103.760384,149.424474 104.109982,148.646643 103.725607,148.097587 C103.342147,147.547615 102.491031,147.608926 102.491031,147.608926 C102.828732,146.519049 102.230205,145.957181 102.230205,145.957181 L98.7424598,150.334992 L99.9093125,152.00687 L105.221009,150.237992 C105.221009,150.237992 104.899781,149.481209 103.760384,149.424474" id="Fill-207" fill="#FFFFFF"></path>
                        <path d="M99.3909554,151.125908 C99.1896161,150.838569 98.9708884,150.576852 98.7411786,150.336182 L96.9684777,152.560776 C96.8952634,152.64588 96.9025848,152.751116 96.95475,152.826154 L96.9556652,152.827984 C97.0078304,152.902107 97.1048393,152.945116 97.2091696,152.906682 L99.9089464,152.007144 C99.7616027,151.708824 99.5913795,151.412333 99.3909554,151.125908" id="Fill-209" fill="#7C4028"></path>
                        <polygon id="Fill-211" fill="#96D5CC" points="140.059203 125.899228 137.0684 121.618417 135.578489 122.659794 138.569292 126.940606"></polygon>
                        <polygon id="Fill-213" fill="#57A3B1" points="138.569384 126.94024 137.073982 124.799834 138.563893 123.758457 140.059295 125.898862"></polygon>
                        <path d="M142.785978,122.296868 L141.389415,120.297387 C140.948299,119.667802 140.08071,119.514066 139.450152,119.953311 L137.068857,121.618783 L140.059661,125.899594 L142.441871,124.235038 C143.071513,123.794877 143.225263,122.926453 142.785978,122.296868" id="Fill-215" fill="#F6693E"></path>
                        <path d="M184.268368,43.7489217 L184.268368,43.7489217 C183.061248,43.4176575 182.863569,40.3035915 183.827252,36.7942047 C184.789105,33.2848179 186.548993,30.7088274 187.757029,31.0400915 L188.48185,28.3991292 L184.204306,27.2250632 L179.266002,45.2158179 L183.543547,46.389884 L184.268368,43.7489217 Z" id="Fill-217" fill="#325F65"></path>
                        <polygon id="Fill-219" fill="#325F65" points="189.434185 24.9300066 185.156641 23.7559406 184.664275 25.5504406 188.941819 26.7235915"></polygon>
                        <polygon id="Fill-221" fill="#325F65" points="183.084219 48.0643236 178.806674 46.8911726 178.314308 48.6847575 182.591853 49.8588236"></polygon>
                        <path d="M190.790846,19.9877651 L187.178636,18.9967179 C186.810734,18.8960575 186.430935,19.1111047 186.330266,19.4789726 L185.157007,23.7561236 L189.434551,24.9301896 L190.790846,19.9877651 Z" id="Fill-223" fill="#41C690"></path>
                        <polygon id="Fill-225" fill="#41C690" points="178.3144 48.684483 177.747904 50.7489358 178.978819 59.6720208 179.833596 59.9072 182.591944 49.8585491"></polygon>
                        <path d="M189.434185,24.9300066 L188.941819,26.7235915 L193.219364,27.8976575 L193.71173,26.1040726 L189.434185,24.9300066 Z M182.591395,49.8590066 L186.86894,51.0330726 L187.361306,49.2385726 L183.084676,48.0645066 L182.591395,49.8590066 Z M188.481484,28.3991292 L192.759029,29.5731953 L187.820725,47.56395 L183.543181,46.389884 L184.268002,43.7489217 C185.476038,44.0801858 187.235926,41.5041953 188.198694,37.9938934 C189.162377,34.4845066 188.963783,31.3713557 187.756663,31.0400915 L188.481484,28.3991292 Z" id="Fill-227" fill="#26555B"></path>
                        <path d="M193.711547,26.1037981 L194.884806,21.8266472 C194.986391,21.4587792 194.769493,21.0799302 194.402507,20.9783547 L190.791212,19.9873075 L189.434002,24.9297321 L193.711547,26.1037981 Z" id="Fill-229" fill="#37B08A"></path>
                        <polygon id="Fill-231" fill="#37B08A" points="186.302536 53.0964274 186.869031 51.0328896 182.591487 49.8588236 179.834054 59.9065594 180.68883 60.1408236"></polygon>
                        <polygon id="Fill-233" fill="#FFFFFF" points="179.266185 45.2153604 178.806766 46.8908981 183.08431 48.0640491 187.361855 49.2381151 187.821275 47.5634925 183.54373 46.3894264"></polygon>
                        <path d="M187.756663,31.0399085 C186.549542,30.7086443 184.789654,33.2846349 183.826886,36.7949368 C182.863203,40.3043236 183.060882,43.4174745 184.268002,43.7487387 C185.476038,44.0800028 187.235926,41.5040123 188.198694,37.9946255 C189.162377,34.4852387 188.963783,31.3711726 187.756663,31.0399085" id="Fill-235" fill="#FFFFFF"></path>
                        <polygon id="Fill-237" fill="#FFFFFF" points="188.941728 26.7240491 184.664183 25.549983 184.203848 27.2255208 188.481393 28.3995868 192.758937 29.5727377 193.219272 27.8981151"></polygon>
                        <path d="M164.768109,23.1021057 L164.768109,23.1021057 C163.726636,22.406634 164.520096,19.3895679 166.54081,16.3624358 C168.56244,13.3362189 171.044404,11.445634 172.085877,12.1401906 L173.605989,9.86343585 L169.916904,7.40091698 L159.558913,22.9172566 L163.247998,25.3797755 L164.768109,23.1021057 Z" id="Fill-239" fill="#325F65"></path>
                        <polygon id="Fill-241" fill="#325F65" points="175.603732 6.87126038 171.914647 4.40874151 170.882326 5.95616604 174.570496 8.41776981"></polygon>
                        <polygon id="Fill-243" fill="#325F65" points="162.283583 26.8245264 158.594498 24.3620075 157.561261 25.9094321 161.250346 28.3719509"></polygon>
                        <path d="M178.449297,2.60856792 L175.334029,0.529473585 C175.017377,0.318086792 174.588158,0.403190566 174.377667,0.719813208 L171.914007,4.40855849 L175.604007,6.87107736 L178.449297,2.60856792 Z" id="Fill-245" fill="#FA262C"></path>
                        <polygon id="Fill-247" fill="#FA262C" points="157.561078 25.9094321 156.373176 27.6892906 154.72677 36.5455736 155.465319 37.0378943 161.250163 28.3719509"></polygon>
                        <path d="M175.603732,6.87126038 L174.570496,8.41776981 L178.25958,10.8802887 L179.292817,9.33286415 L175.603732,6.87126038 Z M161.250071,28.372317 L164.940071,30.8339208 L165.973308,29.2874113 L162.283308,26.8248925 L161.250071,28.372317 Z M173.605897,9.86361887 L177.295897,12.3252226 L166.936991,27.8424774 L163.247906,25.3799585 L164.768018,23.1022887 C165.810406,23.7968453 168.292371,21.9071755 170.313085,18.8800434 C172.333799,15.8529113 173.127259,12.8358453 172.085786,12.1403736 L173.605897,9.86361887 Z" id="Fill-249" fill="#26555B"></path>
                        <path d="M179.293,9.33323019 L181.75483,5.64448491 C181.967152,5.32786226 181.881125,4.89959811 181.564473,4.68729623 L178.449205,2.60820189 L175.603915,6.87162642 L179.293,9.33323019 Z" id="Fill-251" fill="#E32325"></path>
                        <polygon id="Fill-253" fill="#E32325" points="163.751071 32.6140538 164.939888 30.8341953 161.250804 28.3716764 155.465045 37.0376198 156.203594 37.5299406"></polygon>
                        <polygon id="Fill-255" fill="#FFFFFF" points="159.558547 22.9170736 158.593949 24.3620075 162.283949 26.8245264 165.973033 29.2870453 166.937632 27.8421113 163.247632 25.3795925"></polygon>
                        <path d="M166.541268,16.3626189 C164.520554,19.3897509 163.727094,22.406817 164.768567,23.1022887 C165.81004,23.7968453 168.292004,21.9071755 170.312719,18.8800434 C172.333433,15.8529113 173.126893,12.8358453 172.086335,12.1403736 C171.044862,11.445817 168.561982,13.3354868 166.541268,16.3626189" id="Fill-257" fill="#FFFFFF"></path>
                        <polygon id="Fill-259" fill="#FFFFFF" points="174.570587 8.41813585 170.882417 5.95653208 169.916904 7.40055094 173.605989 9.86306981 177.295989 12.3255887 178.259672 10.8806547"></polygon>
                    </g>
                    <text id="abc" font-family="KGNoRegretsSketch, KG No Regrets Sketch" font-size="6.9128" font-weight="normal" letter-spacing="-0.072" fill="#FFFFFF">
                        <tspan x="66.5811966" y="87.6385542">a</tspan>
                        <tspan x="69.6483099" y="87.6385542" letter-spacing="0.92697364">b</tspan>
                        <tspan x="66.5811966" y="96.6385542">c</tspan>
                    </text>
                    <text id="x+y" font-family="KGNoRegretsSketch, KG No Regrets Sketch" font-size="15.5165" font-weight="normal" fill="#FFFFFF">
                        <tspan x="154.188034" y="79.1084337">x+</tspan>
                        <tspan x="154.188034" y="99.1084337">y</tspan>
                    </text>
                    <text id="2+2=4" font-family="KGNoRegretsSketch, KG No Regrets Sketch" font-size="15.1462" font-weight="normal" fill="#FFFFFF">
                        <tspan x="99.8717949" y="21.1355422">2+2=</tspan>
                        <tspan x="99.8717949" y="40.1355422">4</tspan>
                    </text>
                    <text id="90" font-family="KGNoRegretsSketch, KG No Regrets Sketch" font-size="16.864" font-weight="normal" fill="#FFFFFF">
                        <tspan x="35.9188034" y="184.412651">9</tspan>
                        <tspan x="35.9188034" y="205.412651">0</tspan>
                    </text>
                    <path d="M47.3076923,174.424261 C47.3076923,174.908726 46.9154098,175.301205 46.4311861,175.301205 C45.9469624,175.301205 45.5555556,174.908726 45.5555556,174.424261 C45.5555556,173.939795 45.9469624,173.548193 46.4311861,173.548193 C46.9154098,173.548193 47.3076923,173.939795 47.3076923,174.424261 Z" id="Stroke-262" stroke="#FFFFFF" stroke-width="0.294"></path>
                </g>
            </g>
        </g>
    </g>
</svg>