<?xml version="1.0" encoding="UTF-8"?>
<svg width="1920px" height="1080px" viewBox="0 0 1920 1080" version="1.1" xmlns="http://www.w3.org/2000/svg" xmlns:xlink="http://www.w3.org/1999/xlink">
    <!-- Generator: Sketch 47.1 (45422) - http://www.bohemiancoding.com/sketch -->
    <title>Desktop HD-ReserveClass-bg</title>
    <desc>Created with Sketch.</desc>
    <defs>
        <polygon id="path-1" points="0.000244314367 0.395 249.557 0.395 249.557 197.8637 0.000244314367 197.8637"></polygon>
    </defs>
    <g id="-" stroke="none" stroke-width="1" fill="none" fill-rule="evenodd">
        <g id="Desktop-HD-ReserveClass-bg">
            <g id="2-bg3" transform="translate(563.000000, -284.000000)">
                <g id="Page-1" opacity="0.388643569" transform="translate(262.525862, 233.313064) rotate(162.000000) translate(-262.525862, -233.313064) translate(43.025862, 59.313064)" fill="#3E54A3">
                    <g id="Group-5">
                        <path d="M227.165379,2.30829544 C227.155724,2.30829544 227.148828,2.30829544 227.140552,2.30829544 C222.737793,2.15400498 218.268828,2.13334108 213.875724,2.24217095 C213.500552,2.26559004 213.204,1.9625195 213.195724,1.59607967 C213.186069,1.23101743 213.475724,0.926569295 213.841241,0.918303734 C218.261931,0.806718672 222.757103,0.828760166 227.187448,0.984428216 C227.552966,0.996826556 227.839862,1.30402988 227.826069,1.66909212 C227.815034,2.02726639 227.521241,2.30829544 227.165379,2.30829544 M187.359862,4.50142407 C187.035724,4.50142407 186.752966,4.26447801 186.70469,3.9352332 C186.650897,3.57154855 186.901931,3.23541577 187.26331,3.18306722 C191.639862,2.54110871 196.099172,2.0245112 200.517103,1.64842822 C200.884,1.61398838 201.204,1.88812946 201.234345,2.25181411 C201.266069,2.61825394 200.995724,2.9378556 200.630207,2.96816266 C196.238483,3.34286805 191.805379,3.85671037 187.456414,4.49315851 C187.42331,4.49866888 187.391586,4.50142407 187.359862,4.50142407 M253.637103,4.83342407 C253.604,4.83342407 253.569517,4.83066888 253.533655,4.82515851 C249.187448,4.14324979 244.761241,3.58532448 240.376414,3.1665361 C240.010897,3.13209627 239.74331,2.80973942 239.779172,2.44467718 C239.813655,2.08099253 240.129517,1.80685145 240.501931,1.84817925 C244.912966,2.26834523 249.366759,2.82902573 253.740552,3.51506722 C254.101931,3.57154855 254.348828,3.91181411 254.292276,4.27274357 C254.241241,4.60061079 253.959862,4.83342407 253.637103,4.83342407 M161.332276,9.95669378 C161.041241,9.95669378 160.773655,9.76383071 160.693655,9.46902573 C160.595724,9.11636183 160.804,8.75129959 161.157103,8.65486805 C165.42469,7.48391369 169.788828,6.43005477 174.126759,5.52084315 C174.484,5.44369793 174.837103,5.67513361 174.911586,6.03330788 C174.987448,6.39148216 174.758483,6.74276846 174.399862,6.81715851 C170.088138,7.72085975 165.751586,8.7692083 161.508828,9.93327469 C161.449517,9.94842822 161.390207,9.95669378 161.332276,9.95669378 M279.608138,10.5518141 C279.547448,10.5518141 279.486759,10.5435485 279.426069,10.5270174 C275.197103,9.31886805 270.871586,8.22643651 266.566759,7.27865228 C266.209517,7.20012946 265.98331,6.84746556 266.061931,6.49066888 C266.140552,6.13249461 266.493655,5.90794689 266.850897,5.98509212 C271.181931,6.93838672 275.535034,8.03770622 279.788828,9.25274357 C280.141931,9.35330788 280.346069,9.71974772 280.244,10.071034 C280.162621,10.3617062 279.895034,10.5518141 279.608138,10.5518141 M136.165379,18.5487436 C135.906069,18.5487436 135.659172,18.3944531 135.552966,18.1382207 C135.413655,17.8007104 135.575034,17.412229 135.912966,17.2730921 C140.010897,15.5882954 144.212276,14.0095734 148.402621,12.5782539 C148.751586,12.4611585 149.126759,12.6443784 149.245379,12.991532 C149.364,13.3373079 149.177793,13.7133909 148.831586,13.8318639 C144.667448,15.2535402 140.490897,16.8239967 136.419172,18.4977726 C136.336414,18.5322124 136.250897,18.5487436 136.165379,18.5487436 M304.706069,19.4083618 C304.619172,19.4083618 304.532276,19.3904531 304.446759,19.3560133 C300.38469,17.6340216 296.217793,16.0194822 292.06331,14.5537228 C291.717103,14.431117 291.536414,14.0522788 291.657793,13.7078805 C291.780552,13.3634822 292.155724,13.1830174 292.50469,13.3042456 C296.685379,14.7782705 300.877103,16.4038307 304.965379,18.1354656 C305.301931,18.2773577 305.460552,18.6672166 305.317103,19.0033494 C305.209517,19.2568266 304.964,19.4083618 304.706069,19.4083618 M112.270207,30.1274158 C112.038483,30.1274158 111.813655,30.00481 111.690897,29.7899054 C111.511586,29.4703037 111.62469,29.0666689 111.94331,28.8875817 C115.805379,26.7164946 119.779172,24.6390838 123.752966,22.7145859 C124.084,22.5561627 124.479862,22.6925444 124.639862,23.0204116 C124.799862,23.3496564 124.661931,23.7464033 124.332276,23.9062041 C120.381931,25.8196813 116.432966,27.8846938 112.594345,30.042005 C112.490897,30.0998639 112.379172,30.1274158 112.270207,30.1274158 M328.540552,31.2653079 C328.427448,31.2653079 328.314345,31.237756 328.209517,31.1771419 C324.392966,28.9771253 320.457793,26.8666523 316.510207,24.9035817 C316.18331,24.7410257 316.049517,24.3429012 316.213655,24.015034 C316.377793,23.689922 316.773655,23.5549178 317.10331,23.7174739 C321.072966,25.6929427 325.032966,27.8171917 328.872966,30.0296066 C329.190207,30.211449 329.299172,30.6164614 329.115724,30.9333079 C328.992966,31.1468349 328.769517,31.2653079 328.540552,31.2653079 M89.9433103,44.5287768 C89.7391724,44.5287768 89.5391724,44.4351004 89.4081379,44.2587685 C89.1915862,43.9639635 89.2550345,43.5493079 89.5502069,43.3330257 C93.1129655,40.7142207 96.8067586,38.1711834 100.528138,35.7700382 C100.835724,35.5702871 101.246759,35.6584531 101.445379,35.9656564 C101.644,36.2728598 101.555724,36.6833826 101.248138,36.881756 C97.5488276,39.2691253 93.8771034,41.7983867 90.3364138,44.4006606 C90.2177931,44.4860714 90.0798621,44.5287768 89.9433103,44.5287768 M350.747448,45.9229012 C350.608138,45.9229012 350.468828,45.8788183 350.348828,45.7892747 C346.82469,43.1429178 343.175034,40.570951 339.50331,38.1463867 C339.198483,37.9452581 339.114345,37.5333577 339.317103,37.2289095 C339.518483,36.9217062 339.929517,36.8390506 340.235724,37.0415568 C343.928138,39.4798971 347.599862,42.0670174 351.146069,44.7299054 C351.438483,44.9503203 351.497793,45.3649759 351.277103,45.6570257 C351.147448,45.8306025 350.947448,45.9229012 350.747448,45.9229012 M69.5143448,61.5282788 C69.3377931,61.5282788 69.1612414,61.4593992 69.0302069,61.3202622 C68.7791724,61.0530091 68.7915862,60.6342207 69.0591724,60.3834988 C72.2853793,57.3500382 75.6467586,54.3758141 79.0481379,51.5462373 C79.3281379,51.3134241 79.7474483,51.3506191 79.981931,51.6316481 C80.2164138,51.9126772 80.1777931,52.3314656 79.8964138,52.5642788 C76.5157241,55.3773245 73.1764138,58.3322622 69.9681379,61.3478141 C69.8398621,61.4690423 69.6771034,61.5282788 69.5143448,61.5282788 M371.004,63.1497062 C370.839862,63.1497062 370.674345,63.0877145 370.54469,62.9637311 C367.368138,59.9137394 364.057793,56.9216066 360.707448,54.0727436 C360.428828,53.8344199 360.395724,53.4170091 360.632966,53.1373577 C360.871586,52.8604614 361.289517,52.8273992 361.566759,53.0629676 C364.939172,55.9297394 368.268828,58.9397809 371.46469,62.0090589 C371.729517,62.2625361 371.736414,62.6813245 371.482621,62.9458224 C371.352966,63.0808266 371.179172,63.1497062 371.004,63.1497062 M51.2784828,80.8738224 C51.1295172,80.8738224 50.9791724,80.824229 50.8550345,80.7209095 C50.5736552,80.4867187 50.5350345,80.0693079 50.7695172,79.7869012 C53.6067586,76.3883784 56.5846897,73.0311834 59.621931,69.8089925 C59.8729655,69.5417394 60.2922759,69.5293411 60.5584828,69.7800631 C60.826069,70.0307851 60.8384828,70.4495734 60.5874483,70.7168266 C57.5681379,73.9197311 54.6081379,77.2576398 51.7902069,80.6354988 C51.6577931,80.793922 51.4702069,80.8738224 51.2784828,80.8738224 M389.027448,82.6826025 C388.834345,82.6826025 388.642621,82.5999469 388.512966,82.4387685 C385.730897,79.0319801 382.809517,75.6651419 379.82469,72.4305527 C379.576414,72.161922 379.592966,71.7431336 379.86331,71.4951668 C380.132276,71.2485776 380.551586,71.2651087 380.799862,71.5323618 C383.802621,74.7862373 386.741931,78.175117 389.540552,81.6025693 C389.772276,81.8849759 389.728138,82.3023867 389.445379,82.5338224 C389.321241,82.6343867 389.173655,82.6826025 389.027448,82.6826025 M35.5129655,102.285756 C35.3902069,102.285756 35.2646897,102.251316 35.1543448,102.179681 C34.8453793,101.981308 34.7571034,101.572163 34.9571034,101.264959 C37.3584828,97.5482124 39.9088276,93.8548846 42.5377931,90.2841627 C42.7557241,89.9893577 43.1695172,89.927366 43.4646897,90.1436481 C43.7598621,90.3599303 43.8233103,90.7745859 43.6067586,91.0707685 C40.9943448,94.6180714 38.4591724,98.2893577 36.0715862,101.982685 C35.9433103,102.179681 35.7308966,102.285756 35.5129655,102.285756 M404.548828,104.239183 C404.326759,104.239183 404.112966,104.130354 403.986069,103.929225 C401.639862,100.213856 399.147448,96.5205278 396.576414,92.9511834 C396.362621,92.6550008 396.431586,92.2403452 396.728138,92.0268183 C397.02469,91.8132913 397.438483,91.8807934 397.653655,92.1783535 C400.239862,95.7697394 402.747448,99.4851087 405.108828,103.22252 C405.30331,103.532478 405.210897,103.941623 404.900552,104.135864 C404.791586,104.206121 404.668828,104.239183 404.548828,104.239183 M22.4591724,125.461009 C22.3626207,125.461009 22.2633103,125.438968 22.1695172,125.394885 C21.8412414,125.235084 21.7033103,124.838337 21.8633103,124.509092 C23.7998621,120.520959 25.8826207,116.54247 28.0564138,112.686586 C28.2343448,112.366984 28.6384828,112.252644 28.9598621,112.433109 C29.2784828,112.612196 29.3915862,113.015831 29.2122759,113.335432 C27.0522759,117.167897 24.981931,121.122968 23.0564138,125.087681 C22.941931,125.32325 22.706069,125.461009 22.4591724,125.461009 M417.330897,127.499847 C417.081241,127.499847 416.845379,127.359333 416.730897,127.121009 C414.852276,123.146652 412.827448,119.180561 410.712966,115.332943 C410.536414,115.011963 410.653655,114.609706 410.975034,114.433374 C411.297793,114.259798 411.697793,114.374138 411.875724,114.695117 C414.002621,118.566154 416.041241,122.557042 417.930897,126.554818 C418.086759,126.885441 417.94469,127.28081 417.613655,127.436478 C417.522621,127.479183 417.42469,127.499847 417.330897,127.499847 M12.3295172,150.066204 C12.2577931,150.066204 12.186069,150.055183 12.1143448,150.030387 C11.7681379,149.911914 11.5833103,149.537208 11.701931,149.190055 C13.1350345,144.996661 14.7157241,140.790868 16.404,136.693905 C16.5433103,136.355017 16.9336552,136.195217 17.2702069,136.331598 C17.6081379,136.472113 17.7695172,136.857839 17.6302069,137.196727 C15.9529655,141.270271 14.3805517,145.449889 12.9571034,149.618486 C12.8633103,149.892627 12.6053793,150.066204 12.3295172,150.066204 M427.18469,152.150503 C426.906069,152.150503 426.646759,151.974171 426.554345,151.69452 C425.175034,147.519034 423.646759,143.33115 422.015034,139.247963 C421.878483,138.909076 422.044,138.523349 422.38469,138.386968 C422.724,138.251963 423.111586,138.417275 423.246759,138.75754 C424.890897,142.864146 426.426069,147.078204 427.813655,151.281241 C427.929517,151.628395 427.739172,152.001723 427.391586,152.116063 C427.322621,152.14086 427.252276,152.150503 427.18469,152.150503 M5.30055172,175.68393 C5.25641379,175.68393 5.21089655,175.679798 5.164,175.670154 C4.80675862,175.594387 4.57641379,175.2431 4.65089655,174.884926 C5.55848276,170.552395 6.61227586,166.19369 7.78193103,161.930038 C7.87848276,161.575997 8.244,161.37349 8.59710345,161.465789 C8.9502069,161.563598 9.15710345,161.927283 9.06193103,162.279947 C7.89917241,166.517424 6.85089655,170.851333 5.9502069,175.15769 C5.884,175.469026 5.60951724,175.68393 5.30055172,175.68393 M433.954345,177.838486 C433.642621,177.838486 433.366759,177.620827 433.30331,177.305358 C432.445379,172.989358 431.442621,168.647183 430.322621,164.397308 C430.228828,164.043266 430.439862,163.682337 430.794345,163.587283 C431.151586,163.492229 431.510207,163.707134 431.605379,164.059798 C432.730897,168.335847 433.740552,172.704196 434.605379,177.047748 C434.675724,177.405922 434.442621,177.754453 434.084,177.826088 C434.039862,177.834354 433.995724,177.838486 433.954345,177.838486 M1.45227586,201.965656 C1.43296552,201.965656 1.41503448,201.965656 1.39572414,201.962901 C1.0302069,201.932594 0.759862069,201.611615 0.790206897,201.246553 C1.164,196.834121 1.67848276,192.380362 2.31848276,188.00788 C2.37089655,187.645573 2.70331034,187.389341 3.07158621,187.448578 C3.43296552,187.502304 3.684,187.838437 3.63158621,188.199366 C2.99572414,192.545673 2.484,196.973258 2.11158621,201.358138 C2.08262069,201.703914 1.79296552,201.965656 1.45227586,201.965656 M437.536414,204.15603 C437.192966,204.15603 436.901931,203.890154 436.875724,203.543001 C436.548828,199.156744 436.081241,194.723648 435.488138,190.370453 C435.439862,190.008146 435.695034,189.674768 436.056414,189.623798 C436.419172,189.579715 436.754345,189.827681 436.802621,190.191366 C437.399862,194.570735 437.870207,199.031383 438.198483,203.445192 C438.226069,203.810254 437.951586,204.1271 437.586069,204.154652 C437.569517,204.154652 437.551586,204.15603 437.536414,204.15603 M0.80262069,228.521524 C0.446758621,228.521524 0.152965517,228.240495 0.140551724,227.88232 C0.0467586207,225.267648 -0.000137931034,222.608893 -0.000137931034,219.981822 C-0.000137931034,218.167532 0.0219310345,216.357374 0.0660689655,214.552727 C0.0743448276,214.189042 0.397103448,213.90388 0.746068966,213.908013 C1.11158621,213.916279 1.40124138,214.220727 1.39296552,214.585789 C1.34882759,216.379416 1.32675862,218.177175 1.32675862,219.981822 C1.32675862,222.592362 1.37365517,225.234586 1.46468966,227.835482 C1.47848276,228.201922 1.19158621,228.507748 0.826068966,228.520146 C0.817793103,228.521524 0.810896552,228.521524 0.80262069,228.521524 M437.922621,230.727051 C437.911586,230.727051 437.901931,230.727051 437.890897,230.725673 C437.526759,230.709142 437.242621,230.399183 437.259172,230.034121 C437.410897,226.698968 437.486759,223.316976 437.486759,219.981822 C437.486759,218.911432 437.479862,217.843798 437.46469,216.778918 C437.459172,216.412478 437.751586,216.110785 438.117103,216.105275 C438.461931,216.077723 438.786069,216.393192 438.791586,216.759632 C438.805379,217.831399 438.813655,218.905922 438.813655,219.9832 C438.813655,223.336262 438.736414,226.738918 438.58331,230.094735 C438.568138,230.448777 438.275724,230.727051 437.922621,230.727051 M3.34468966,254.963051 C3.02468966,254.963051 2.74193103,254.730237 2.69089655,254.405125 C2.00124138,250.039532 1.43710345,245.591283 1.01365517,241.181607 C0.977793103,240.817922 1.24537931,240.494188 1.60951724,240.459748 C1.96537931,240.41842 2.2977931,240.689806 2.33365517,241.056246 C2.75434483,245.43837 3.31572414,249.859067 4.00124138,254.198486 C4.05917241,254.559416 3.81089655,254.898304 3.44951724,254.954785 C3.41503448,254.960295 3.37917241,254.963051 3.34468966,254.963051 M435.108828,257.160312 C435.071586,257.160312 435.035724,257.156179 434.998483,257.150669 C434.635724,257.090055 434.392966,256.748412 434.453655,256.387482 C435.18331,252.059084 435.790207,247.641142 436.257793,243.253507 C436.295034,242.889822 436.616414,242.618437 436.986069,242.666652 C437.351586,242.703847 437.615034,243.030337 437.576414,243.394022 C437.106069,247.807831 436.496414,252.253324 435.761241,256.607897 C435.707448,256.931632 435.426069,257.160312 435.108828,257.160312 M9.08951724,280.901756 C8.80124138,280.901756 8.53503448,280.713026 8.45227586,280.422354 C7.23296552,276.172478 6.13089655,271.826171 5.17365517,267.501905 C5.09503448,267.143731 5.32124138,266.78969 5.67848276,266.712544 C6.03434483,266.632644 6.3902069,266.857192 6.46882759,267.215366 C7.42055172,271.513457 8.51572414,275.83359 9.72675862,280.057291 C9.82882759,280.409955 9.62468966,280.776395 9.27296552,280.876959 C9.21089655,280.894868 9.1502069,280.901756 9.08951724,280.901756 M429.096414,283.048046 C429.034345,283.048046 428.972276,283.038403 428.908828,283.021872 C428.557103,282.915798 428.357103,282.54798 428.461931,282.196694 C429.717103,277.984013 430.857793,273.673524 431.853655,269.383698 C431.936414,269.026901 432.299172,268.807864 432.650897,268.887764 C433.006759,268.97042 433.228828,269.325839 433.146069,269.682636 C432.14331,274.000013 430.995724,278.336677 429.732276,282.574154 C429.648138,282.862071 429.38331,283.048046 429.096414,283.048046 M17.9653793,305.947781 C17.7088276,305.947781 17.461931,305.797623 17.3557241,305.544146 C15.6233103,301.470602 13.9971034,297.290984 12.5184828,293.121009 C12.3957241,292.775233 12.5764138,292.395017 12.9212414,292.273789 C13.2688276,292.151183 13.6467586,292.333026 13.7681379,292.677424 C15.2384828,296.822602 16.8550345,300.978802 18.5764138,305.026171 C18.7198621,305.362304 18.5626207,305.752163 18.2246897,305.895432 C18.1405517,305.93125 18.0522759,305.947781 17.9653793,305.947781 M419.958483,308.008661 C419.871586,308.008661 419.780552,307.990752 419.693655,307.952179 C419.358483,307.807532 419.205379,307.416295 419.352966,307.080163 C421.114345,303.050702 422.775034,298.911034 424.288138,294.779632 C424.413655,294.435233 424.795724,294.260279 425.139172,294.384262 C425.482621,294.509623 425.659172,294.889839 425.533655,295.234237 C424.012276,299.390437 422.341931,303.554901 420.568138,307.610536 C420.459172,307.861258 420.215034,308.008661 419.958483,308.008661 M29.8384828,329.725042 C29.6081379,329.725042 29.3846897,329.606569 29.2633103,329.39442 C27.0467586,325.560578 24.9212414,321.60964 22.9446897,317.650437 C22.7805517,317.322569 22.9129655,316.925822 23.2412414,316.761889 C23.5736552,316.597955 23.9681379,316.732959 24.1308966,317.059449 C26.0964138,320.995233 28.2095172,324.922752 30.4122759,328.73042 C30.5943448,329.048644 30.4867586,329.453656 30.1681379,329.635499 C30.0646897,329.696113 29.9502069,329.725042 29.8384828,329.725042 M407.839862,331.664694 C407.725379,331.664694 407.609517,331.635764 407.50331,331.572395 C407.188828,331.38642 407.084,330.98003 407.270207,330.664561 C409.512966,326.874802 411.667448,322.970702 413.671586,319.058337 C413.839862,318.73047 414.239862,318.605109 414.564,318.769042 C414.890897,318.935731 415.019172,319.335233 414.852276,319.660345 C412.835724,323.597507 410.668828,327.526403 408.412276,331.339582 C408.288138,331.548976 408.067448,331.664694 407.839862,331.664694" id="Fill-3"></path>
                    </g>
                </g>
                <g id="Page-1" opacity="0.80004529" transform="translate(447.271631, 263.399466) rotate(177.000000) translate(-447.271631, -263.399466) translate(322.271631, 159.399466)">
                    <g id="Group-5" transform="translate(0.000000, 0.605000)">
                        <mask id="mask-2" fill="white">
                            <use xlink:href="#path-1"></use>
                        </mask>
                        <g id="Clip-4"></g>
                        <path d="M114.7323,1.7327 C114.4843,1.7327 114.2743,1.5427 114.2533,1.2907 C114.2323,1.0257 114.4303,0.7937 114.6943,0.7727 C117.2273,0.5697 119.8013,0.4427 122.3443,0.3947 C122.6163,0.4147 122.8293,0.6017 122.8343,0.8667 C122.8393,1.1317 122.6283,1.3517 122.3623,1.3567 C119.8393,1.4037 117.2843,1.5307 114.7713,1.7317 C114.7583,1.7327 114.7453,1.7327 114.7323,1.7327 M137.5933,1.9877 C137.5773,1.9877 137.5603,1.9867 137.5443,1.9847 C135.0413,1.7287 132.4903,1.5447 129.9633,1.4407 C129.6983,1.4297 129.4923,1.2057 129.5033,0.9407 C129.5143,0.6747 129.7663,0.4757 130.0033,0.4797 C132.5493,0.5857 135.1193,0.7697 137.6423,1.0277 C137.9063,1.0547 138.0983,1.2917 138.0723,1.5557 C138.0463,1.8027 137.8373,1.9877 137.5933,1.9877 M99.6323,3.8767 C99.4093,3.8767 99.2083,3.7197 99.1623,3.4927 C99.1083,3.2327 99.2763,2.9787 99.5363,2.9247 C102.0243,2.4137 104.5633,1.9737 107.0823,1.6157 C107.3453,1.5757 107.5883,1.7617 107.6263,2.0247 C107.6633,2.2877 107.4813,2.5307 107.2173,2.5677 C104.7183,2.9227 102.1993,3.3597 99.7303,3.8667 C99.6963,3.8737 99.6643,3.8767 99.6323,3.8767 M152.6413,4.4707 C152.6053,4.4707 152.5693,4.4667 152.5333,4.4587 C150.0813,3.8967 147.5723,3.4017 145.0763,2.9907 C144.8143,2.9467 144.6373,2.6997 144.6803,2.4377 C144.7233,2.1757 144.9643,1.9947 145.2333,2.0417 C147.7483,2.4567 150.2763,2.9547 152.7493,3.5217 C153.0073,3.5807 153.1693,3.8387 153.1093,4.0977 C153.0583,4.3197 152.8613,4.4707 152.6413,4.4707 M84.9103,7.8617 C84.7103,7.8617 84.5233,7.7357 84.4553,7.5357 C84.3703,7.2837 84.5043,7.0107 84.7563,6.9257 C87.1673,6.1107 89.6323,5.3607 92.0853,4.6967 C92.3383,4.6267 92.6053,4.7777 92.6743,5.0357 C92.7443,5.2917 92.5923,5.5557 92.3363,5.6247 C89.9023,6.2837 87.4563,7.0277 85.0653,7.8367 C85.0133,7.8547 84.9613,7.8617 84.9103,7.8617 M167.2693,8.7887 C167.2143,8.7887 167.1593,8.7797 167.1053,8.7597 C164.7343,7.8977 162.3053,7.0977 159.8853,6.3837 C159.6303,6.3087 159.4853,6.0407 159.5603,5.7857 C159.6353,5.5317 159.9023,5.3857 160.1583,5.4617 C162.5963,6.1807 165.0453,6.9867 167.4333,7.8567 C167.6833,7.9467 167.8123,8.2227 167.7213,8.4727 C167.6503,8.6677 167.4653,8.7887 167.2693,8.7887 M70.8033,13.6287 C70.6243,13.6287 70.4523,13.5277 70.3693,13.3567 C70.2543,13.1167 70.3543,12.8297 70.5933,12.7137 C72.8773,11.6117 75.2273,10.5647 77.5803,9.6027 C77.8253,9.5027 78.1073,9.6197 78.2073,9.8657 C78.3083,10.1117 78.1903,10.3927 77.9443,10.4937 C75.6093,11.4477 73.2773,12.4867 71.0113,13.5807 C70.9443,13.6127 70.8733,13.6287 70.8033,13.6287 M181.2723,14.8877 C181.1993,14.8877 181.1243,14.8707 181.0543,14.8357 C178.8023,13.6837 176.4883,12.5897 174.1743,11.5817 C173.9313,11.4757 173.8193,11.1927 173.9253,10.9487 C174.0313,10.7057 174.3143,10.5917 174.5583,10.6997 C176.8903,11.7157 179.2223,12.8187 181.4923,13.9787 C181.7283,14.0997 181.8223,14.3887 181.7023,14.6257 C181.6173,14.7917 181.4483,14.8877 181.2723,14.8877 M57.5133,21.0837 C57.3553,21.0837 57.2003,21.0057 57.1083,20.8627 C56.9643,20.6397 57.0283,20.3417 57.2523,20.1977 C59.3903,18.8197 61.5963,17.4917 63.8083,16.2517 C64.0413,16.1227 64.3343,16.2037 64.4633,16.4357 C64.5933,16.6667 64.5103,16.9607 64.2793,17.0897 C62.0843,18.3217 59.8953,19.6387 57.7733,21.0067 C57.6923,21.0587 57.6023,21.0837 57.5133,21.0837 M194.4133,22.6597 C194.3193,22.6597 194.2263,22.6327 194.1433,22.5767 C192.0533,21.1607 189.8923,19.7917 187.7183,18.5047 C187.4903,18.3697 187.4143,18.0747 187.5493,17.8467 C187.6853,17.6177 187.9813,17.5417 188.2083,17.6777 C190.3983,18.9737 192.5773,20.3537 194.6823,21.7807 C194.9033,21.9297 194.9603,22.2287 194.8113,22.4487 C194.7183,22.5857 194.5663,22.6597 194.4133,22.6597 M45.2273,30.1117 C45.0893,30.1117 44.9533,30.0527 44.8573,29.9387 C44.6873,29.7347 44.7153,29.4317 44.9193,29.2607 C46.8713,27.6347 48.8993,26.0457 50.9483,24.5407 C51.1603,24.3827 51.4623,24.4297 51.6203,24.6437 C51.7773,24.8577 51.7313,25.1577 51.5173,25.3157 C49.4843,26.8097 47.4713,28.3857 45.5353,30.0007 C45.4453,30.0747 45.3363,30.1117 45.2273,30.1117 M206.4993,31.9777 C206.3873,31.9777 206.2743,31.9387 206.1823,31.8587 C204.2813,30.1977 202.3033,28.5747 200.3063,27.0337 C200.0953,26.8727 200.0563,26.5697 200.2183,26.3597 C200.3803,26.1487 200.6823,26.1087 200.8933,26.2727 C202.9073,27.8247 204.8993,29.4607 206.8163,31.1347 C207.0153,31.3087 207.0363,31.6127 206.8613,31.8127 C206.7663,31.9207 206.6333,31.9777 206.4993,31.9777 M34.1283,40.5747 C34.0103,40.5747 33.8923,40.5307 33.7993,40.4437 C33.6053,40.2627 33.5953,39.9577 33.7773,39.7647 C35.5193,37.9097 37.3393,36.0847 39.1893,34.3427 C39.3813,34.1597 39.6863,34.1687 39.8683,34.3627 C40.0503,34.5557 40.0413,34.8597 39.8483,35.0427 C38.0133,36.7717 36.2073,38.5817 34.4793,40.4227 C34.3843,40.5237 34.2563,40.5747 34.1283,40.5747 M217.3563,42.6927 C217.2233,42.6927 217.0923,42.6387 216.9983,42.5327 C215.3143,40.6547 213.5493,38.8037 211.7543,37.0307 C211.5653,36.8447 211.5633,36.5397 211.7503,36.3517 C211.9373,36.1617 212.2413,36.1597 212.4293,36.3467 C214.2393,38.1327 216.0173,39.9987 217.7133,41.8907 C217.8913,42.0887 217.8753,42.3927 217.6773,42.5707 C217.5853,42.6527 217.4703,42.6927 217.3563,42.6927 M24.3823,52.3157 C24.2833,52.3157 24.1843,52.2847 24.0983,52.2227 C23.8843,52.0657 23.8383,51.7647 23.9953,51.5497 C25.4953,49.4997 27.0803,47.4667 28.7063,45.5067 C28.8763,45.3047 29.1793,45.2737 29.3833,45.4437 C29.5873,45.6137 29.6163,45.9177 29.4463,46.1217 C27.8323,48.0657 26.2593,50.0837 24.7713,52.1187 C24.6763,52.2477 24.5303,52.3157 24.3823,52.3157 M226.8233,54.6477 C226.6703,54.6477 226.5213,54.5747 226.4283,54.4407 C224.9873,52.3737 223.4623,50.3217 221.8953,48.3437 C221.7313,48.1357 221.7663,47.8337 221.9743,47.6687 C222.1823,47.5037 222.4853,47.5387 222.6503,47.7467 C224.2283,49.7407 225.7653,51.8077 227.2173,53.8917 C227.3693,54.1097 227.3153,54.4087 227.0973,54.5617 C227.0133,54.6187 226.9183,54.6477 226.8233,54.6477 M16.1403,65.1647 C16.0613,65.1647 15.9813,65.1447 15.9063,65.1037 C15.6743,64.9747 15.5913,64.6817 15.7213,64.4487 C16.9613,62.2277 18.2863,60.0147 19.6603,57.8717 C19.8033,57.6487 20.1013,57.5837 20.3253,57.7277 C20.5483,57.8697 20.6133,58.1677 20.4703,58.3917 C19.1063,60.5177 17.7913,62.7127 16.5613,64.9177 C16.4733,65.0757 16.3093,65.1647 16.1403,65.1647 M234.7543,67.6597 C234.5823,67.6597 234.4163,67.5667 234.3293,67.4037 C233.1543,65.1787 231.8923,62.9577 230.5793,60.8027 C230.4403,60.5757 230.5113,60.2797 230.7393,60.1417 C230.9653,60.0027 231.2613,60.0747 231.3993,60.3017 C232.7233,62.4747 233.9963,64.7117 235.1803,66.9547 C235.3033,67.1907 235.2133,67.4807 234.9793,67.6047 C234.9083,67.6427 234.8313,67.6597 234.7543,67.6597 M9.5373,78.9347 C9.4763,78.9347 9.4153,78.9227 9.3563,78.8997 C9.1103,78.7987 8.9913,78.5187 9.0913,78.2727 C10.0473,75.9147 11.0913,73.5547 12.1933,71.2577 C12.3073,71.0187 12.5943,70.9157 12.8343,71.0317 C13.0743,71.1467 13.1753,71.4347 13.0603,71.6737 C11.9673,73.9527 10.9313,76.2947 9.9823,78.6347 C9.9063,78.8207 9.7263,78.9347 9.5373,78.9347 M241.0273,81.5397 C240.8333,81.5397 240.6503,81.4217 240.5783,81.2297 C239.6823,78.8727 238.7043,76.5147 237.6683,74.2227 C237.5583,73.9807 237.6663,73.6947 237.9073,73.5857 C238.1503,73.4767 238.4353,73.5847 238.5443,73.8257 C239.5883,76.1367 240.5753,78.5137 241.4763,80.8877 C241.5713,81.1367 241.4463,81.4147 241.1983,81.5087 C241.1413,81.5297 241.0843,81.5397 241.0273,81.5397 M4.6843,93.4077 C4.6423,93.4077 4.6013,93.4017 4.5593,93.3917 C4.3023,93.3227 4.1503,93.0597 4.2193,92.8027 C4.8753,90.3527 5.6183,87.8847 6.4273,85.4687 C6.5123,85.2167 6.7863,85.0827 7.0363,85.1647 C7.2883,85.2487 7.4243,85.5217 7.3393,85.7737 C6.5363,88.1707 5.7983,90.6197 5.1483,93.0517 C5.0903,93.2667 4.8963,93.4077 4.6843,93.4077 M245.5463,96.1077 C245.3303,96.1077 245.1333,95.9597 245.0803,95.7397 C244.4823,93.2887 243.8003,90.8237 243.0523,88.4147 C242.9743,88.1617 243.1163,87.8927 243.3703,87.8137 C243.6273,87.7367 243.8933,87.8767 243.9713,88.1307 C244.7253,90.5577 245.4123,93.0417 246.0143,95.5127 C246.0773,95.7707 245.9193,96.0307 245.6613,96.0937 C245.6233,96.1037 245.5843,96.1077 245.5463,96.1077 M1.6563,108.3567 C1.6343,108.3567 1.6123,108.3557 1.5893,108.3517 C1.3263,108.3157 1.1433,108.0717 1.1793,107.8097 C1.5303,105.2867 1.9633,102.7467 2.4673,100.2597 C2.5203,99.9987 2.7733,99.8277 3.0343,99.8837 C3.2943,99.9367 3.4623,100.1907 3.4103,100.4497 C2.9103,102.9177 2.4803,105.4387 2.1323,107.9417 C2.0993,108.1827 1.8923,108.3567 1.6563,108.3567 M248.2363,111.1187 C247.9963,111.1187 247.7883,110.9397 247.7593,110.6937 C247.4663,108.1837 247.0933,105.6537 246.6503,103.1767 C246.6023,102.9147 246.7773,102.6647 247.0383,102.6177 C247.3063,102.5737 247.5493,102.7447 247.5963,103.0067 C248.0443,105.5037 248.4193,108.0527 248.7143,110.5827 C248.7463,110.8467 248.5563,111.0857 248.2933,111.1157 C248.2733,111.1177 248.2543,111.1187 248.2363,111.1187 M0.4813,123.5617 L0.4733,123.5617 C0.2083,123.5577 -0.0037,123.3387 0.0003,123.0727 C0.0423,120.5267 0.1613,117.9527 0.3573,115.4237 C0.3773,115.1577 0.5973,114.9627 0.8733,114.9817 C1.1383,115.0017 1.3363,115.2327 1.3153,115.4977 C1.1223,118.0077 1.0033,120.5627 0.9613,123.0887 C0.9573,123.3517 0.7433,123.5617 0.4813,123.5617 M249.0743,126.3527 L249.0723,126.3527 C248.8053,126.3517 248.5923,126.1337 248.5933,125.8687 L248.5953,125.1587 C248.5953,122.8697 248.5323,120.5517 248.4073,118.2667 C248.3923,118.0007 248.5953,117.7747 248.8613,117.7597 C249.1233,117.7477 249.3523,117.9477 249.3673,118.2137 C249.4943,120.5167 249.5573,122.8537 249.5573,125.1587 L249.5553,125.8747 C249.5533,126.1397 249.3383,126.3527 249.0743,126.3527 M1.1513,138.7987 C0.9083,138.7987 0.6993,138.6147 0.6743,138.3687 C0.4083,135.8417 0.2163,133.2727 0.1053,130.7327 C0.0933,130.4677 0.2993,130.2427 0.5653,130.2317 C0.8273,130.2277 1.0543,130.4257 1.0663,130.6907 C1.1773,133.2107 1.3663,135.7607 1.6303,138.2687 C1.6583,138.5317 1.4663,138.7687 1.2023,138.7967 C1.1853,138.7987 1.1683,138.7987 1.1513,138.7987 M248.0643,141.5857 C248.0443,141.5857 248.0233,141.5847 248.0033,141.5817 C247.7393,141.5487 247.5523,141.3077 247.5863,141.0437 C247.9063,138.5427 248.1533,135.9957 248.3213,133.4727 C248.3373,133.2077 248.5753,133.0147 248.8333,133.0247 C249.0973,133.0417 249.2973,133.2707 249.2813,133.5357 C249.1123,136.0787 248.8633,138.6467 248.5413,141.1657 C248.5093,141.4087 248.3023,141.5857 248.0643,141.5857 M3.6753,153.8377 C3.4573,153.8377 3.2593,153.6877 3.2073,153.4657 C2.6333,150.9887 2.1283,148.4627 1.7083,145.9557 C1.6653,145.6937 1.8413,145.4457 2.1033,145.4017 C2.3653,145.3577 2.6133,145.5337 2.6573,145.7967 C3.0743,148.2837 3.5743,150.7907 4.1443,153.2487 C4.2043,153.5077 4.0433,153.7657 3.7843,153.8257 C3.7483,153.8337 3.7113,153.8377 3.6753,153.8377 M245.1963,156.5787 C245.1563,156.5787 245.1163,156.5737 245.0763,156.5637 C244.8193,156.4977 244.6643,156.2357 244.7293,155.9787 C245.3563,153.5317 245.9153,151.0337 246.3883,148.5557 C246.4383,148.2947 246.6893,148.1257 246.9513,148.1737 C247.2113,148.2237 247.3823,148.4757 247.3333,148.7357 C246.8553,151.2337 246.2933,153.7507 245.6613,156.2167 C245.6063,156.4347 245.4103,156.5787 245.1963,156.5787 M8.0333,168.4527 C7.8373,168.4527 7.6533,168.3327 7.5823,168.1387 C6.7063,165.7507 5.8943,163.3047 5.1683,160.8687 C5.0913,160.6137 5.2363,160.3467 5.4903,160.2707 C5.7483,160.1947 6.0143,160.3407 6.0893,160.5937 C6.8103,163.0117 7.6163,165.4387 8.4843,167.8067 C8.5763,168.0567 8.4493,168.3327 8.1993,168.4237 C8.1443,168.4437 8.0883,168.4527 8.0333,168.4527 M240.5013,171.1007 C240.4423,171.1007 240.3823,171.0897 240.3253,171.0667 C240.0783,170.9697 239.9573,170.6907 240.0533,170.4427 C240.9763,168.0967 241.8383,165.6877 242.6163,163.2827 C242.6973,163.0307 242.9663,162.8937 243.2213,162.9737 C243.4733,163.0557 243.6123,163.3267 243.5313,163.5787 C242.7483,166.0027 241.8783,168.4307 240.9493,170.7957 C240.8743,170.9847 240.6933,171.1007 240.5013,171.1007 M14.1623,182.4227 C13.9873,182.4227 13.8193,182.3277 13.7333,182.1617 C12.5693,179.8987 11.4613,177.5707 10.4413,175.2447 C10.3353,175.0017 10.4453,174.7187 10.6893,174.6117 C10.9323,174.5057 11.2153,174.6157 11.3223,174.8587 C12.3353,177.1667 13.4343,179.4767 14.5893,181.7227 C14.7113,181.9577 14.6173,182.2477 14.3813,182.3697 C14.3113,182.4057 14.2363,182.4227 14.1623,182.4227 M234.0513,184.9307 C233.9743,184.9307 233.8953,184.9107 233.8233,184.8717 C233.5893,184.7447 233.5033,184.4527 233.6293,184.2197 C234.8353,182.0037 235.9873,179.7197 237.0543,177.4307 C237.1683,177.1907 237.4533,177.0867 237.6943,177.1977 C237.9343,177.3107 238.0393,177.5967 237.9263,177.8367 C236.8503,180.1447 235.6893,182.4457 234.4753,184.6787 C234.3873,184.8397 234.2223,184.9307 234.0513,184.9307 M21.9613,195.5327 C21.8073,195.5327 21.6553,195.4597 21.5633,195.3227 C20.1283,193.2177 18.7433,191.0437 17.4463,188.8617 C17.3103,188.6337 17.3853,188.3387 17.6133,188.2027 C17.8413,188.0657 18.1363,188.1427 18.2733,188.3707 C19.5603,190.5347 20.9343,192.6917 22.3573,194.7817 C22.5073,195.0017 22.4503,195.3007 22.2303,195.4497 C22.1483,195.5067 22.0533,195.5327 21.9613,195.5327 M225.9543,197.8637 C225.8573,197.8637 225.7593,197.8347 225.6743,197.7747 C225.4593,197.6197 225.4093,197.3187 225.5633,197.1037 C227.0353,195.0447 228.4583,192.9187 229.7943,190.7857 C229.9353,190.5607 230.2323,190.4927 230.4573,190.6327 C230.6823,190.7747 230.7503,191.0707 230.6093,191.2957 C229.2623,193.4457 227.8283,195.5877 226.3453,197.6617 C226.2523,197.7937 226.1033,197.8637 225.9543,197.8637" id="Fill-3" fill="#3E54A3" mask="url(#mask-2)"></path>
                    </g>
                </g>
            </g>
        </g>
    </g>
</svg>