<?xml version="1.0" encoding="UTF-8"?>
<svg width="1920px" height="1080px" viewBox="0 0 1920 1080" version="1.1" xmlns="http://www.w3.org/2000/svg" xmlns:xlink="http://www.w3.org/1999/xlink">
    <!-- Generator: Sketch 47.1 (45422) - http://www.bohemiancoding.com/sketch -->
    <title>Desktop HD-MyCourse-bg</title>
    <desc>Created with Sketch.</desc>
    <defs>
        <filter x="-3.9%" y="-4.0%" width="113.9%" height="116.0%" filterUnits="objectBoundingBox" id="filter-1">
            <feOffset dx="6" dy="9" in="SourceAlpha" result="shadowOffsetOuter1"></feOffset>
            <feGaussianBlur stdDeviation="2" in="shadowOffsetOuter1" result="shadowBlurOuter1"></feGaussianBlur>
            <feColorMatrix values="0 0 0 0 0   0 0 0 0 0   0 0 0 0 0  0 0 0 0.2 0" type="matrix" in="shadowBlurOuter1" result="shadowMatrixOuter1"></feColorMatrix>
            <feMerge>
                <feMergeNode in="shadowMatrixOuter1"></feMergeNode>
                <feMergeNode in="SourceGraphic"></feMergeNode>
            </feMerge>
        </filter>
        <polygon id="path-2" points="90.4470584 0.763813953 1.02999206e-18 0.763813953 1.02999206e-18 161 165.015191 161 165.015191 0.763813953 90.4470584 0.763813953 90.4470584 91.5457233 -0.000109476856 91.5457233 -0.000109476856 0.763564902 90.4470584 0.763564902"></polygon>
        <filter x="-12.7%" y="-5.3%" width="118.2%" height="121.3%" filterUnits="objectBoundingBox" id="filter-4">
            <feOffset dx="-6" dy="12" in="SourceAlpha" result="shadowOffsetOuter1"></feOffset>
            <feGaussianBlur stdDeviation="3" in="shadowOffsetOuter1" result="shadowBlurOuter1"></feGaussianBlur>
            <feColorMatrix values="0 0 0 0 0   0 0 0 0 0   0 0 0 0 0  0 0 0 0.245103034 0" type="matrix" in="shadowBlurOuter1" result="shadowMatrixOuter1"></feColorMatrix>
            <feMerge>
                <feMergeNode in="shadowMatrixOuter1"></feMergeNode>
                <feMergeNode in="SourceGraphic"></feMergeNode>
            </feMerge>
        </filter>
        <polygon id="path-5" points="9.80387934 0.367031335 9.80387934 27.4451312 0.578982573 27.4451312 0.578982573 0.367031335 9.80387934 0.367031335"></polygon>
        <polygon id="path-7" points="0 0.545910079 0 24.2926385 11.8535572 24.2926385 11.8535572 0.545910079 9.99578892e-20 0.545910079"></polygon>
        <filter x="-6.0%" y="-4.0%" width="111.9%" height="116.0%" filterUnits="objectBoundingBox" id="filter-9">
            <feOffset dx="0" dy="12" in="SourceAlpha" result="shadowOffsetOuter1"></feOffset>
            <feGaussianBlur stdDeviation="3" in="shadowOffsetOuter1" result="shadowBlurOuter1"></feGaussianBlur>
            <feColorMatrix values="0 0 0 0 0   0 0 0 0 0   0 0 0 0 0  0 0 0 0.247424139 0" type="matrix" in="shadowBlurOuter1" result="shadowMatrixOuter1"></feColorMatrix>
            <feMerge>
                <feMergeNode in="shadowMatrixOuter1"></feMergeNode>
                <feMergeNode in="SourceGraphic"></feMergeNode>
            </feMerge>
        </filter>
        <polygon id="path-10" points="0.164812802 30.8572573 30.8113406 30.8572573 30.8113406 0.241470858 0.164812802 0.241470858 0.164812802 30.8572573"></polygon>
        <polygon id="path-12" points="0 20.1570705 0 0.543908175 19.6327778 0.543908175 19.6327778 20.1570705"></polygon>
        <polygon id="path-14" points="31.5660628 30.7660549 31.5660628 0.152488542 0.923146135 0.152488542 0.923146135 30.7660549 31.5660628 30.7660549"></polygon>
        <filter x="-15.1%" y="-5.5%" width="120.8%" height="121.8%" filterUnits="objectBoundingBox" id="filter-16">
            <feOffset dx="-6" dy="8" in="SourceAlpha" result="shadowOffsetOuter1"></feOffset>
            <feGaussianBlur stdDeviation="2" in="shadowOffsetOuter1" result="shadowBlurOuter1"></feGaussianBlur>
            <feColorMatrix values="0 0 0 0 0   0 0 0 0 0   0 0 0 0 0  0 0 0 0.2 0" type="matrix" in="shadowBlurOuter1" result="shadowMatrixOuter1"></feColorMatrix>
            <feMerge>
                <feMergeNode in="shadowMatrixOuter1"></feMergeNode>
                <feMergeNode in="SourceGraphic"></feMergeNode>
            </feMerge>
        </filter>
        <polygon id="path-17" points="6.37115789 0.233072186 6.37115789 5.92491546 0.652084998 5.92491546 0.652084998 0.233072186 6.37115789 0.233072186"></polygon>
        <polygon id="path-19" points="0.440300363 0.710634921 24.1880247 0.710634921 24.1880247 33.8018134 0.440300363 33.8018134 0.440300363 0.710634921"></polygon>
        <polygon id="path-21" points="0 34.0153961 0 0.923074691 23.7479105 0.923074691 23.7479105 34.0153961"></polygon>
        <polygon id="path-23" points="0 31.1170066 0 0.755239048 23.7479105 0.755239048 23.7479105 31.1170066"></polygon>
    </defs>
    <g id="-" stroke="none" stroke-width="1" fill="none" fill-rule="evenodd">
        <g id="Desktop-HD-MyCourse-bg">
            <g id="bg2" transform="translate(188.000000, 48.000000)">
                <g id="satellite-right-down" filter="url(#filter-1)" transform="translate(1385.000000, 816.000000)">
                    <polygon id="Fill-1" fill="#A6F9FF" points="50 162 165 162 165 146 50 146"></polygon>
                    <polygon id="Fill-2" fill="#7F36BF" points="50 155 165 155 165 150 50 150"></polygon>
                    <g id="Group-50">
                        <path d="M101.415182,111.623547 L113.645092,111.623547 C128.889115,111.623547 141.245856,124.028035 141.245856,139.328651 L141.245856,145.465372 L73.8125528,145.465372 L73.8125528,139.328651 C73.8125528,124.028035 86.1711596,111.623547 101.415182,111.623547" id="Fill-3" fill="#FF893F"></path>
                        <path d="M101.415182,111.623547 L113.646957,111.623547 C114.068485,111.623547 114.480688,111.668477 114.900351,111.687198 C100.241991,112.349919 88.5529798,124.453 88.5529798,139.328651 L88.5529798,145.465372 L73.8125528,145.465372 L73.8125528,139.328651 C73.8125528,124.026163 86.1711596,111.623547 101.415182,111.623547" id="Fill-5" fill="#FF893F"></path>
                        <path d="M103.267481,137.33637 C103.267481,139.698951 105.175548,141.615974 107.529391,141.615974 C109.885099,141.615974 111.793166,139.698951 111.793166,137.33637 C111.793166,134.973788 109.885099,133.058637 107.529391,133.058637 C105.175548,133.058637 103.267481,134.973788 103.267481,137.33637" id="Fill-7" fill="#E64920"></path>
                        <path d="M90.1585169,137.33637 C90.1585169,139.698951 92.0665843,141.615974 94.420427,141.615974 C96.7761348,141.615974 98.6823371,139.698951 98.6823371,137.33637 C98.6823371,134.973788 96.7761348,133.058637 94.420427,133.058637 C92.0665843,133.058637 90.1585169,134.973788 90.1585169,137.33637" id="Fill-9" fill="#E64920"></path>
                        <path d="M77.0476876,137.33637 C77.0476876,139.698951 78.9557551,141.615974 81.3114629,141.615974 C83.6653056,141.615974 85.573373,139.698951 85.573373,137.33637 C85.573373,134.973788 83.6653056,133.058637 81.3114629,133.058637 C78.9557551,133.058637 77.0476876,134.973788 77.0476876,137.33637" id="Fill-11" fill="#E64920"></path>
                        <path d="M124.90269,137.33637 C124.90269,139.698951 122.994622,141.615974 120.64078,141.615974 C118.285072,141.615974 116.37887,139.698951 116.37887,137.33637 C116.37887,134.973788 118.285072,133.058637 120.64078,133.058637 C122.994622,133.058637 124.90269,134.973788 124.90269,137.33637" id="Fill-13" fill="#E64920"></path>
                        <path d="M138.013519,137.33637 C138.013519,139.698951 136.105452,141.615974 133.749744,141.615974 C131.395901,141.615974 129.487834,139.698951 129.487834,137.33637 C129.487834,134.973788 131.395901,133.058637 133.749744,133.058637 C136.105452,133.058637 138.013519,134.973788 138.013519,137.33637" id="Fill-15" fill="#E64920"></path>
                        <polygon id="Fill-17" fill="#A6F9FF" points="50.0462022 161 88.8528989 161 88.8528989 145.465372 50.0462022 145.465372"></polygon>
                        <g id="Group-21">
                            <mask id="mask-3" fill="white">
                                <use xlink:href="#path-2"></use>
                            </mask>
                            <g id="Clip-20"></g>
                            <path d="M31.0377101,2.48089767 C28.8480022,1.85936279 26.4866989,2.47902558 24.8751933,4.09276977 L3.31757528,25.7304209 C1.70606966,27.3479093 1.09056404,29.7179791 1.7098,31.9176884 L17.6942944,88.7151186 L87.6269236,18.5209907 L31.0377101,2.48089767 Z M0.29227191,32.3201884 C-0.472447191,29.6037814 0.288541573,26.6795721 2.27494607,24.685793 L23.8344292,3.04626977 C25.8208337,1.0524907 28.734227,0.290548837 31.4387213,1.05623488 L90.4470584,17.7852581 L16.9575528,91.5457233 L0.29227191,32.3201884 Z" id="Fill-19" fill="#FFF2BC" mask="url(#mask-3)"></path>
                        </g>
                        <path d="M113.454845,66.778307 L119.419654,72.7671326 C132.587744,85.9822372 132.587744,107.410214 119.419654,120.627191 C106.253429,133.842295 84.9028449,133.842295 71.7366202,120.627191 L65.7718112,114.638365 L113.454845,66.778307 Z" id="Fill-22" fill="#FFF2BC"></path>
                        <path d="M78.6743011,101.687974 L84.6391101,107.674928 C95.5708629,118.647265 112.13356,120.500637 124.98084,113.257509 C123.503627,115.895288 121.65711,118.381428 119.420773,120.626067 C106.252683,133.843044 84.903964,133.841172 71.7358742,120.626067 L65.7710652,114.637242 L78.6743011,101.687974 Z" id="Fill-24" fill="#EAE8CC"></path>
                        <path d="M101.86133,114.383199 C104.992948,117.524571 110.068072,117.524571 113.19969,114.383199 C116.331308,111.239955 116.331308,106.14599 113.19969,103.002745 C110.068072,99.8613733 104.992948,99.8613733 101.86133,103.002745 C98.7297124,106.14599 98.7297124,111.239955 101.86133,114.383199" id="Fill-26" fill="#E64920"></path>
                        <path d="M119.420213,72.7656349 C119.795112,73.1419256 120.15509,73.5257047 120.507607,73.9151 L72.8823933,121.718995 C72.4944382,121.363298 72.1120787,121.001984 71.7371798,120.625693 L65.7705056,114.63874 L113.455404,66.7786814 L119.420213,72.7656349 Z" id="Fill-28" fill="#7F36BF"></path>
                        <polygon id="Fill-30" fill="#FFF2BC" points="52.1392944 53.0949919 103.502306 1.53942209 113.454845 11.5289105 113.454845 66.7781198 89.6123955 90.7090849 65.7718112 114.638178 10.7250921 114.638178 0.774417978 104.650562"></polygon>
                        <polygon id="Fill-32" fill="#FF893F" points="10.7249056 114.638178 113.454658 11.5289105 103.502119 1.53942209 0.774231461 104.650562"></polygon>
                        <path d="M29.8520225,47.817 L27.7201348,45.6790698 C23.0180449,40.9595233 23.0180449,33.3082791 27.7201348,28.5868605 C32.4240899,23.867314 40.0470337,23.867314 44.7491236,28.5868605 L46.8810112,30.7247907 L29.8520225,47.817 Z" id="Fill-34" fill="#FFF2BC"></path>
                        <path d="M27.7208809,45.6788826 C27.5884539,45.5440919 27.4578921,45.4074291 27.3329258,45.2688942 L44.3395326,28.1972779 C44.4775551,28.3227081 44.6155775,28.4518826 44.7498697,28.5866733 L46.8798921,30.7246035 L29.8527685,47.8168128 L27.7208809,45.6788826 Z" id="Fill-36" fill="#7F36BF"></path>
                        <polygon id="Fill-38" fill="#FFF2BC" points="52.1392944 53.0959279 33.7953618 71.5060907 30.8931596 68.594986 29.8523955 47.8166256 38.3650247 39.2705209 46.8813843 30.7244163 67.5791596 31.7709163 70.483227 34.683893"></polygon>
                        <polygon id="Fill-40" fill="#7F36BF" points="33.7953618 71.5070267 70.483227 34.6848291 67.5791596 31.7718523 30.8931596 68.59405"></polygon>
                        <path d="M10.125627,17.8515302 C12.029964,19.7629372 15.1205483,19.7629372 17.0248854,17.8515302 C18.9310876,15.9401233 18.9310876,12.8380651 17.0248854,10.9266581 C15.1205483,9.01525116 12.029964,9.01525116 10.125627,10.9266581 C8.22128989,12.8380651 8.22128989,15.9401233 10.125627,17.8515302" id="Fill-42" fill="#E64920"></path>
                        <polygon id="Fill-44" fill="#EAE8CC" points="14.8450629 90.5276791 24.7957371 100.515295 79.8424562 100.515295 65.7716247 114.638365 10.7249056 114.638365 0.774231461 104.650749"></polygon>
                        <path d="M27.7208809,28.5868605 C28.629218,27.6751512 29.6494652,26.9431628 30.7368584,26.383407 C28.4091281,30.9269767 29.1402742,36.6406047 32.9321618,40.4484419 L35.0640494,42.5863721 L29.8527685,47.817 L27.7208809,45.6790698 C23.018791,40.9595233 23.018791,33.306407 27.7208809,28.5868605" id="Fill-46" fill="#FFF2BC"></path>
                        <polygon id="Fill-48" fill="#FFF2BC" points="29.8520225 47.817 35.0633034 42.5863721 36.1059326 63.3647326 39.0062697 66.2758372 33.7949888 71.5064651 30.8946517 68.5953605"></polygon>
                    </g>
                </g>
                <g id="len" filter="url(#filter-4)" transform="translate(154.000000, 809.000000)">
                    <polygon id="Fill-1" fill="#27A9E0" points="66.3164557 75.943038 78.0822785 75.943038 78.0822785 51.3417722 66.3164557 51.3417722"></polygon>
                    <path d="M66.3164557,51.3417722 L66.3164557,59.2484501 L69.0697416,59.2484501 C71.9505171,59.2484501 74.28701,61.5748051 74.28701,64.4455224 L74.28701,75.943038 L78.0822785,75.943038 L78.0822785,51.3417722 L66.3164557,51.3417722 Z" id="Fill-2" fill="#27A9E0"></path>
                    <polygon id="Fill-4" fill="#FFCF62" points="69.5253165 75.9807077 116.65132 165.791139 120.867089 163.616683 73.7410849 73.8037975"></polygon>
                    <polygon id="Fill-5" fill="#FFCF62" points="23.5316456 163.614229 27.7498895 165.791139 74.8734177 75.9782535 70.6601248 73.8037975"></polygon>
                    <polygon id="Fill-6" fill="#FFCF62" points="69.5253165 166.860759 74.8734177 166.860759 74.8734177 75.943038 69.5253165 75.943038"></polygon>
                    <polygon id="Fill-7" fill="#F9CDE1" points="87.7088608 13.4230015 97.2619574 54.5506329 150.816456 42.1972517 141.265802 1.06962025"></polygon>
                    <polygon id="Fill-8" fill="#E64920" points="93.5306866 34.7626582 88.6538166 13.9050633 81.2911392 18.6627083 85.4848485 36.6069555 89.681051 54.5512027 98.4050633 55.6202532"></polygon>
                    <polygon id="Fill-9" fill="#F9CDE1" points="88.778481 54.1991284 55.3029658 62.0379747 47.0632911 26.0199131 80.536357 18.1835443"></polygon>
                    <polygon id="Fill-10" fill="#E64920" points="51.3537232 44.9240506 47.0897283 26.7405063 40.6455696 30.8880254 44.3188922 46.5325276 47.9871446 62.1745282 55.6202532 63.1075949"></polygon>
                    <polygon id="Fill-11" fill="#F9CDE1" points="48.1329114 61.5752002 18.9501103 68.4556962 11.7658228 36.8323578 40.9461753 29.9493671"></polygon>
                    <polygon id="Fill-12" fill="#E64920" points="14.7071169 52.4113924 11.2306895 36.3670886 6.41772152 42.0501845 8.96994531 53.8315335 11.5221691 65.6103511 18.1835443 68.4556962"></polygon>
                    <g id="Group-40">
                        <path d="M157.821408,39.2444534 L149.115753,1.58620144 C148.862525,0.500615803 147.638176,-0.144335302 146.379409,0.148600505 L141.909801,1.18495324 L151.522654,42.7744529 L155.992262,41.7405619 C157.253488,41.4476261 158.072178,40.330039 157.821408,39.2444534" id="Fill-13" fill="#E64920"></path>
                        <g id="Group-17" transform="translate(148.365287, 1.608110)" fill="#A6F9FF">
                            <path d="M9.37449769,37.2912206 C14.4046503,31.4275812 16.7279613,23.9121776 15.0168243,16.5100098 C13.3056874,9.10538032 7.91904785,3.37959302 0.828646945,0.322229388 L9.37449769,37.2912206 Z" id="Fill-15"></path>
                        </g>
                        <g id="Group-20" transform="translate(154.135827, 11.454692)">
                            <mask id="mask-6" fill="white">
                                <use xlink:href="#path-5"></use>
                            </mask>
                            <g id="Clip-19"></g>
                            <path d="M0.578982573,14.3516391 L3.60297464,27.4451312 C8.63312729,21.5790301 10.9588968,14.0660882 9.2453013,6.66145872 C8.72163438,4.38935998 7.81197823,2.29696136 6.651552,0.367031335 C6.20655805,5.42817436 4.06271977,10.2899241 0.578982573,14.3516391" id="Fill-18" fill="#A6F9FF" mask="url(#mask-6)"></path>
                        </g>
                        <g id="Group-23" transform="translate(0.000000, 41.847972)">
                            <mask id="mask-8" fill="white">
                                <use xlink:href="#path-7"></use>
                            </mask>
                            <g id="Clip-22"></g>
                            <path d="M11.8535572,23.4564442 L6.55788328,0.545910079 L3.52651562,1.24994067 C1.15157551,1.79888761 -0.387464349,3.90359446 0.0845734366,5.94676017 L3.6715689,21.4551264 C4.14114816,23.4982922 6.44970795,24.7094217 8.82464806,24.1604748 L11.8535572,23.4564442 Z" id="Fill-21" fill="#FFFFF6" mask="url(#mask-8)"></path>
                        </g>
                        <path d="M81.4125044,67.2035761 L63.4209809,67.2035761 C58.8653246,67.2035761 55.1726123,70.9009676 55.1726123,75.4599349 L55.1726123,84.5310984 L89.6584145,84.5310984 L89.6584145,75.4599349 C89.6584145,70.9009676 85.9681608,67.2035761 81.4125044,67.2035761" id="Fill-24" fill="#27A9E0"></path>
                        <path d="M83.7006584,67.5664227 C84.1972815,68.6298535 84.4972222,69.8040584 84.4972222,71.0545742 L84.4972222,74.1020913 C84.4972222,77.4277743 81.8051317,80.1257377 78.4836575,80.1257377 L55.1718747,80.1257377 L55.1718747,84.532083 L89.6601355,84.532083 L89.6601355,75.4609196 C89.6601355,71.701987 87.1327665,68.5633891 83.7006584,67.5664227" id="Fill-26" fill="#27A9E0"></path>
                        <path d="M76.8747954,75.8673372 C76.8747954,78.3314443 74.8784689,80.3303004 72.4174802,80.3303004 C69.9564916,80.3303004 67.9577066,78.3314443 67.9577066,75.8673372 C67.9577066,73.4032302 69.9564916,71.4043741 72.4174802,71.4043741 C74.8784689,71.4043741 76.8747954,73.4032302 76.8747954,75.8673372" id="Fill-28" fill="#FFCF62"></path>
                        <path d="M13.2244336,169 L38.0039588,169 C38.0039588,165.627546 35.2749904,162.897581 31.9068041,162.897581 L19.3191298,162.897581 C15.953402,162.897581 13.2244336,165.627546 13.2244336,169" id="Fill-30" fill="#27A9E0"></path>
                        <path d="M131.608314,169 L106.831247,169 C106.831247,165.627546 109.557757,162.897581 112.925944,162.897581 L125.513618,162.897581 C128.879346,162.897581 131.608314,165.627546 131.608314,169" id="Fill-32" fill="#27A9E0"></path>
                        <path d="M60.0277176,169 L84.8047843,169 C84.8047843,165.627546 82.0758159,162.897581 78.7100881,162.897581 L66.1224138,162.897581 C62.7566861,162.897581 60.0277176,165.627546 60.0277176,169" id="Fill-34" fill="#27A9E0"></path>
                        <path d="M9.20522853,53.8496419 L9.20522853,53.8496419 L11.8530655,65.3036782 L18.7639937,68.0730293 L48.0647558,61.2838112 L48.0155852,61.0745713 L55.4182195,61.9903034 L89.0189508,54.2041189 L97.6213477,55.2675497 L151.524621,42.7746991 L155.99177,41.740808 C157.252996,41.4478722 158.071687,40.3302852 157.820917,39.2446995 L153.469318,20.4155736 L9.20522853,53.8496419 Z" id="Fill-36" fill="#F9CDE1"></path>
                        <path d="M1.87757946,55.5479311 L3.66984793,63.3021143 C4.14188572,65.34528 6.44798698,66.5588712 8.82292709,66.0074626 L11.8542947,65.303432 L9.20399926,53.8493958 L1.87757946,55.5479311 Z" id="Fill-38" fill="#F4F4E6"></path>
                    </g>
                </g>
                <g id="site-star-right" filter="url(#filter-9)" transform="translate(1385.000000, 59.000000)">
                    <polygon id="Fill-1" fill="#519BFF" points="1.98349154 11 0 12.9834915 25.0192943 38 27 36.0165085"></polygon>
                    <g id="Group-53" transform="translate(27.000000, 0.000000)">
                        <path d="M64.6038889,5.16435262 C67.9011111,8.45832713 67.9011111,13.7975074 64.6038889,17.0914819 C61.3066667,20.3854564 55.965,20.3826813 52.665,17.0914819 C49.3705556,13.7975074 49.3705556,8.45832713 52.665,5.16435262 C55.965,1.87037811 61.3066667,1.87037811 64.6038889,5.16435262" id="Fill-2" fill="#519BFF"></path>
                        <path d="M4.62666667,65.0838857 C7.92388889,68.3778602 13.2683333,68.3778602 16.5655556,65.0838857 C19.86,61.7899112 19.86,56.4507309 16.5655556,53.1567564 C13.2683333,49.8627819 7.92388889,49.8627819 4.62666667,53.1567564 C1.32944444,56.4507309 1.32944444,61.7899112 4.62666667,65.0838857" id="Fill-4" fill="#519BFF"></path>
                        <polygon id="Fill-6" fill="#195FE9" points="58.0744444 203.108355 58.0744444 142.221165 86.3883333 113.935165 81.1827778 108.734737 50.7133333 139.174169 50.7133333 203.108355"></polygon>
                        <g id="Group-10" transform="translate(38.333937, 193.921121)">
                            <mask id="mask-11" fill="white">
                                <use xlink:href="#path-10"></use>
                            </mask>
                            <g id="Clip-9"></g>
                            <path d="M3.47800725,30.8578123 L30.8113406,3.55140186 L29.9085628,2.6495133 C26.6918961,-0.561209957 21.4780072,-0.561209957 18.2641184,2.6495133 L2.57522947,18.3229489 C-0.63865942,21.5364472 -0.63865942,26.7452005 2.57522947,29.9559237 L3.47800725,30.8578123 Z" id="Fill-8" fill="#27A9E0" mask="url(#mask-11)"></path>
                        </g>
                        <path d="M49.5133333,145.573693 C52.2077778,148.265483 56.5772222,148.265483 59.2744444,145.573693 C61.9688889,142.879127 61.9688889,138.513987 59.2744444,135.822196 C56.5772222,133.127631 52.2077778,133.127631 49.5133333,135.822196 C46.8161111,138.513987 46.8161111,142.879127 49.5133333,145.573693" id="Fill-11" fill="#FFFFF6"></path>
                        <path d="M51.4880556,143.598141 C53.0936111,145.202115 55.6936111,145.202115 57.2963889,143.598141 C58.9019444,141.996942 58.9019444,139.396728 57.2963889,137.795529 C55.6936111,136.194329 53.0936111,136.194329 51.4880556,137.795529 C49.8852778,139.396728 49.8852778,141.996942 51.4880556,143.598141" id="Fill-13" fill="#E64920"></path>
                        <polygon id="Fill-15" fill="#195FE9" points="202.765833 58.5594851 141.818611 58.5594851 113.501944 86.8454853 108.296389 81.6450571 138.768611 51.2056246 202.765833 51.2056246"></polygon>
                        <path d="M111.226667,27.577532 C134.465556,50.796306 134.465556,88.4397467 111.226667,111.658521 C87.985,134.877295 50.3016667,134.877295 27.06,111.658521 C3.82111111,88.4397467 3.82111111,50.796306 27.06,27.577532 C50.3016667,4.35875801 87.985,4.35875801 111.226667,27.577532" id="Fill-17" fill="#EE4136"></path>
                        <path d="M27.0605556,111.659353 C32.4244444,117.015184 38.5744444,121.077845 45.1161111,123.961113 L123.541111,45.6133606 C120.652222,39.0753623 116.585556,32.93142 111.227222,27.5783645 C105.863333,22.222534 99.7161111,18.1598729 93.1716667,15.2738296 L14.7466667,93.6215821 C17.6327778,100.15958 21.6994444,106.303523 27.0605556,111.659353" id="Fill-19" fill="#FFFFF6"></path>
                        <path d="M77.3452778,43.4363403 L42.9369444,77.813557 C40.3980556,80.3471701 40.3980556,84.4597819 42.9369444,86.993395 L51.7480556,95.7986023 C54.2869444,98.3349905 58.4036111,98.3349905 60.9425,95.7986023 L95.3508333,61.4241607 C97.8897222,58.8877726 97.8897222,54.7751608 95.3480556,52.2415477 L86.5369444,43.4363403 C84.0008333,40.8999522 79.8841667,40.8999522 77.3452778,43.4363403" id="Fill-21" fill="#27A9E0"></path>
                        <path d="M76.0838889,62.6829196 C79.92,66.5124772 79.92,72.7230205 76.0838889,76.5525781 C72.2505556,80.3821356 66.0366667,80.3821356 62.2033333,76.5525781 C58.3672222,72.7230205 58.37,66.5124772 62.2033333,62.6829196 C66.0366667,58.8533621 72.2505556,58.8533621 76.0838889,62.6829196" id="Fill-23" fill="#FFFFF6"></path>
                        <g id="Group-27">
                            <mask id="mask-13" fill="white">
                                <use xlink:href="#path-12"></use>
                            </mask>
                            <g id="Clip-26"></g>
                            <path d="M16.7577778,3.41524383 C20.5911111,7.24480139 20.5911111,13.4553447 16.7577778,17.2849023 C12.9244444,21.1144598 6.71055556,21.1144598 2.87444444,17.2849023 C-0.958888889,13.4553447 -0.958888889,7.24480139 2.87444444,3.41524383 C6.71055556,-0.414313727 12.9244444,-0.414313727 16.7577778,3.41524383" id="Fill-25" fill="#FFFFF6" mask="url(#mask-13)"></path>
                        </g>
                        <polygon id="Fill-28" fill="#E64920" points="109.3575 39.6045627 99.0797222 49.8749921 102.993611 53.7878009 113.274167 43.5173716"></polygon>
                        <polygon id="Fill-30" fill="#E64920" points="39.0991667 109.793415 49.3797222 99.5229858 53.2963889 103.435795 43.0158333 113.706224"></polygon>
                        <path d="M100.099167,35.1614435 C101.6075,36.6682911 101.6075,39.1158779 100.099167,40.6227256 C98.5880556,42.1323482 96.1408333,42.1323482 94.6297222,40.6227256 C93.1213889,39.1158779 93.1213889,36.6710662 94.6297222,35.1614435 C96.1408333,33.6545958 98.5880556,33.6545958 100.099167,35.1614435" id="Fill-32" fill="#519BFF"></path>
                        <g id="Group-36" transform="translate(192.889493, 38.850584)">
                            <mask id="mask-15" fill="white">
                                <use xlink:href="#path-14"></use>
                            </mask>
                            <g id="Clip-35"></g>
                            <path d="M31.5668961,3.46241954 L4.23634058,30.7660549 L3.3335628,29.8669414 C0.119673913,26.6534431 0.119673913,21.4446898 3.3335628,18.2339666 L19.0196739,2.56053098 C22.2363406,-0.650192272 27.4502295,-0.650192272 30.6641184,2.56053098 L31.5668961,3.46241954 Z" id="Fill-34" fill="#27A9E0" mask="url(#mask-15)"></path>
                        </g>
                        <path d="M145.173056,50.0068066 C147.870278,52.6985971 147.870278,57.0637377 145.173056,59.7583032 C142.475833,62.4500936 138.106389,62.4500936 135.411944,59.7583032 C132.7175,57.0637377 132.7175,52.6985971 135.411944,50.0068066 C138.106389,47.3122411 142.475833,47.3150161 145.173056,50.0068066" id="Fill-37" fill="#FFFFF6"></path>
                        <path d="M143.195556,51.9809713 C144.801111,53.5849454 144.801111,56.1823844 143.195556,57.7835835 C141.592778,59.3847825 138.992778,59.3847825 137.387222,57.7835835 C135.784444,56.1823844 135.784444,53.5849454 137.387222,51.9809713 C138.992778,50.3797722 141.592778,50.3797722 143.195556,51.9809713" id="Fill-39" fill="#E64920"></path>
                        <path d="M38.6244444,31.6277054 L31.1161111,39.1314181 C29.355,40.8880195 29.355,43.7379874 31.1161111,45.4973638 L38.6244444,52.9983016 C40.3855556,54.757678 43.2383333,54.757678 44.9994444,52.9983016 L52.5077778,45.4973638 C54.2688889,43.7379874 54.2688889,40.8880195 52.5077778,39.1314181 L44.9994444,31.6277054 C43.2383333,29.8683289 40.3855556,29.8683289 38.6244444,31.6277054" id="Fill-41" fill="#FAE947"></path>
                        <path d="M58.6358333,11.1276397 C70.1997222,13.1894957 81.2719444,18.6507778 90.2080556,27.578087 C113.449722,50.7940859 113.449722,88.4403017 90.2080556,111.659076 C81.2719444,120.586385 70.1969444,126.044892 58.6358333,128.106748 C77.1469444,131.409048 96.9191667,125.950541 111.2275,111.659076 C134.466389,88.4403017 134.466389,50.7940859 111.2275,27.578087 C96.9191667,13.2866222 77.1469444,7.82534011 58.6358333,11.1276397" id="Fill-43" fill="#FF893F"></path>
                        <polygon id="Fill-45" fill="#195FE9" points="97.7094444 92.6555901 92.2038889 98.1557228 96.9733333 102.926019 102.484444 97.4231118"></polygon>
                        <path d="M107.1575,97.8438081 C109.854722,100.535599 109.854722,104.903514 107.1575,107.595305 C104.463056,110.287095 100.093611,110.287095 97.3963889,107.595305 C94.7019444,104.903514 94.7019444,100.535599 97.3963889,97.8438081 C100.093611,95.1520176 104.463056,95.1520176 107.1575,97.8438081" id="Fill-47" fill="#FFFFF6"></path>
                        <path d="M102.616667,103.056446 C101.094444,104.577169 101.094444,107.041406 102.616667,108.559354 L130.380556,136.298671 L135.888889,130.795763 L108.122222,103.056446 C106.602778,101.538499 104.136111,101.538499 102.616667,103.056446" id="Fill-49" fill="#195FE9"></path>
                        <path d="M119.467778,147.198202 L146.801111,119.894567 L145.898333,118.989903 C142.681667,115.77918 137.467778,115.77918 134.253889,118.989903 L118.567778,134.663339 C115.351111,137.876837 115.351111,143.085591 118.567778,146.296314 L119.467778,147.198202 Z" id="Fill-51" fill="#27A9E0"></path>
                    </g>
                </g>
                <g id="site-star-left" filter="url(#filter-16)">
                    <polygon id="Fill-1" fill="#F9CDE1" points="73 18.1244281 73.4194705 17 102 28.1309093 89.2061506 56 88.135589 55.4888963 100.393246 28.7925562"></polygon>
                    <polygon id="Fill-2" fill="#F9CDE1" points="81.4593518 36 81 34.954422 101.540648 27 102 28.0438324"></polygon>
                    <polygon id="Fill-3" fill="#FF893F" points="20.2900516 79 8 49.4711359 50.7099484 32 63 61.5288641"></polygon>
                    <g id="Group-52">
                        <path d="M41.4612491,59.603074 L36.665214,48.0337629 C36.3025825,47.1564867 36.7191439,46.1533565 37.6006175,45.7924517 C38.4783719,45.431547 39.4863018,45.8479756 39.850793,46.7252517 L44.6486877,58.2945629 C45.0113193,59.1699883 44.5928982,60.1731184 43.7114246,60.5340232 C42.8318105,60.8967787 41.8238807,60.4784994 41.4612491,59.603074 M31.0416351,63.8821089 L26.2437404,52.310947 C25.8811088,51.4355216 26.3013895,50.4323914 27.1791439,50.0714867 C28.0606175,49.7105819 29.0685474,50.1270105 29.4311789,51.0042867 L34.227214,62.5735978 C34.5917053,63.4490232 34.1714246,64.4521533 33.2918105,64.8130581 C32.4121965,65.1739629 31.4061263,64.7575343 31.0416351,63.8821089 M46.9248982,63.7877184 L48.3326526,67.1839248 L51.9496702,65.6977375 L50.5419158,62.3033819 C50.1774246,61.4279565 50.5977053,60.4248263 51.4791789,60.0639216 L60.6081965,56.3142137 L59.6448982,53.9914676 L50.5140211,57.7411756 C49.6362667,58.1020803 48.6283368,57.6856517 48.2638456,56.8102263 L43.4678105,45.2390644 C43.1051789,44.363639 43.5217404,43.3605089 44.403214,42.9996041 L53.5322316,39.2498962 L52.570793,36.9271502 L43.4399158,40.6768581 C42.5603018,41.0377629 41.5523719,40.6213343 41.1897404,39.7459089 L39.781986,36.3515533 L36.1649684,37.8358898 L37.5727228,41.2302454 C37.9353544,42.1056708 37.5169333,43.108801 36.6373193,43.4697057 C35.7577053,43.8324613 34.7497754,43.4141819 34.3852842,42.5387565 L32.9775298,39.144401 L25.747214,42.1149248 L27.1549684,45.5092803 C27.5176,46.3847057 27.0973193,47.3878359 26.2177053,47.7487406 C25.3380912,48.1114962 24.3301614,47.6932168 23.9675298,46.8177914 L22.5597754,43.4234359 L18.9446175,44.9077724 L20.3505123,48.3039787 C20.7150035,49.1794041 20.2947228,50.1825343 19.4151088,50.543439 L10.2842316,54.2912962 L11.2475298,56.6140422 L20.3765474,52.8643343 C21.2580211,52.5034295 22.2659509,52.9217089 22.6285825,53.7971343 L27.4246175,65.3664454 C27.7872491,66.2418708 27.3688281,67.245001 26.489214,67.6077565 L17.3601965,71.3574644 L18.3234947,73.6783597 L27.4525123,69.9305025 C28.3321263,69.567747 29.3381965,69.9841756 29.7026877,70.8614517 L31.1104421,74.2558073 L34.7274596,72.7714708 L33.3197053,69.3752644 C32.9570737,68.499839 33.3754947,67.4967089 34.2551088,67.1358041 C35.1365825,66.7748994 36.1426526,67.1913279 36.5052842,68.0667533 L37.9130386,71.4629597 L45.145214,68.4924359 L43.7393193,65.0962295 C43.3748281,64.2208041 43.7951088,63.217674 44.6765825,62.8567692 C45.5543368,62.4958644 46.5622667,62.912293 46.9248982,63.7877184" id="Fill-4" fill="#EE4136"></path>
                        <path d="M47.3760491,76.1871105 L59.9956281,100.334415 C60.499593,101.309783 61.7492772,101.711406 62.8594877,101.25426 L69.4073123,98.5650565 C70.5193825,98.1097613 71.1219088,96.9493137 70.7853123,95.9036152 L62.6233123,69.9258756 C62.2104702,68.6617835 60.8027158,68.0158565 59.5679088,68.522974 L48.5513474,73.0481644 C47.3165404,73.5552819 46.7753825,74.998901 47.3760491,76.1871105" id="Fill-6" fill="#3DC3DF"></path>
                        <polygon id="Fill-8" fill="#F9CDE1" points="16.5973684 69.5185159 12.009614 58.4526206 7.70266667 60.2219794 12.2904211 71.2878746"></polygon>
                        <path d="M12.0101719,58.4526206 L11.0375754,58.8523921 L13.695014,65.2653921 C14.4016807,66.9681222 13.5871544,68.9188587 11.8744175,69.6221603 L11.6401018,69.7184016 L12.2891193,71.2878746 L16.5979263,69.5185159 L12.0101719,58.4526206 Z" id="Fill-10" fill="#F9CDE1"></path>
                        <polygon id="Fill-12" fill="#F9CDE1" points="63.1905053 50.3853813 58.6027509 39.319486 54.2958035 41.0888448 58.8835579 52.15474"></polygon>
                        <path d="M12.9853719,72.9626578 L7.0066,58.5449752 C6.70347719,57.8139117 5.86291579,57.4659625 5.12835439,57.7694927 L3.48256491,58.4450324 C2.74614386,58.7467117 2.39838947,59.5832705 2.69965263,60.3161848 L8.67842456,74.7320165 C8.98154737,75.46308 9.82210877,75.8110292 10.5548105,75.5093498 L12.2043193,74.8319594 C12.9388807,74.53028 13.2884947,73.6937213 12.9853719,72.9626578" id="Fill-14" fill="#3DC3DF"></path>
                        <path d="M13.0125228,73.0529765 C12.9232596,73.1159035 12.8302772,73.1714273 12.7261368,73.2139956 L11.0784877,73.891386 C10.3439263,74.1930654 9.50150526,73.8451162 9.19838246,73.1140527 L3.22147018,58.6963702 C3.21031228,58.6667575 3.20659298,58.635294 3.19543509,58.6056813 C2.66357544,58.9832432 2.43855789,59.6865448 2.69890877,60.3158146 L8.6776807,74.7316463 C8.98080351,75.4627098 9.82136491,75.810659 10.5559263,75.5089797 L12.2035754,74.8315892 C12.9083825,74.5428654 13.2524175,73.7618305 13.0125228,73.0529765" id="Fill-16" fill="#3DC3DF"></path>
                        <path d="M74.2775474,15.2130838 L71.5903544,16.3180076 C60.1386351,21.0190235 54.6898632,34.0671187 59.4133719,45.4606044 C64.1368807,56.855941 77.247407,62.2806171 88.695407,57.5796013 L91.3844596,56.4746775 L74.2775474,15.2130838 Z" id="Fill-18" fill="#FF893F"></path>
                        <path d="M90.2679263,53.7795517 C79.2234702,57.3774946 67.0911193,51.947266 62.5851895,41.0794057 C59.8849789,34.5683137 60.5154,27.5167898 63.6823825,21.7904343 C57.934207,27.981339 55.9704175,37.1594248 59.4126281,45.4602343 C64.1361368,56.8555708 77.2466632,62.280247 88.6946632,57.5792311 L91.3855754,56.4761581 L90.2679263,53.7795517 Z" id="Fill-20" fill="#96625F"></path>
                        <g id="Group-24" transform="translate(98.561404, 24.863492)">
                            <mask id="mask-18" fill="white">
                                <use xlink:href="#path-17"></use>
                            </mask>
                            <g id="Clip-23"></g>
                            <path d="M4.60244561,5.7089581 C3.14262105,6.30861524 1.47079649,5.61641841 0.868270175,4.16539619 C0.267603509,2.71067238 0.961252632,1.04680889 2.42107719,0.44900254 C3.88090175,-0.150654603 5.55272632,0.541542222 6.15525263,1.99441524 C6.7559193,3.44543746 6.06227018,5.10930095 4.60244561,5.7089581" id="Fill-22" fill="#3DC3DF" mask="url(#mask-18)"></path>
                        </g>
                        <polygon id="Fill-25" fill="#97EBF7" points="52.0560421 71.6485943 49.9323228 66.5255975 53.9659018 64.8691371 56.0896211 69.992134"></polygon>
                        <path d="M41.7844561,78.4824648 L49.9464561,104.462055 C50.281193,105.505903 49.6805263,106.66635 48.5665965,107.123497 L42.0224912,109.810849 C40.9085614,110.267995 39.6588772,109.868223 39.1586316,108.892855 L26.537193,84.7455505 C25.9365263,83.557341 26.4776842,82.1118711 27.7124912,81.6047537 L38.727193,77.081414 C39.9638596,76.5742965 41.3697544,77.2183727 41.7844561,78.4824648" id="Fill-27" fill="#3DC3DF"></path>
                        <polygon id="Fill-29" fill="#97EBF7" points="35.250207 78.5492784 33.1264877 73.4281324 29.0929088 75.0845927 31.2166281 80.2057387"></polygon>
                        <g id="Group-33" transform="translate(20.456140, 0.000000)">
                            <mask id="mask-20" fill="white">
                                <use xlink:href="#path-19"></use>
                            </mask>
                            <g id="Clip-32"></g>
                            <path d="M8.69385965,32.2270597 L0.531859649,6.24746921 C0.198982456,5.20362159 0.799649123,4.04317397 1.91357895,3.58602794 L8.45768421,0.898675556 C9.57161404,0.441529524 10.8194386,0.841300952 11.3215439,1.81666921 L23.9429825,25.9658248 C24.5417895,27.1521835 24.0024912,28.5976533 22.7676842,29.1047708 L11.7529825,33.6281105 C10.5163158,34.1352279 9.11042105,33.4911517 8.69385965,32.2270597" id="Fill-31" fill="#3DC3DF" mask="url(#mask-20)"></path>
                        </g>
                        <polygon id="Fill-34" fill="#97EBF7" points="35.6407333 32.0562314 37.7663123 37.1792283 41.7998912 35.5227679 39.6761719 30.3997711"></polygon>
                        <g id="Group-38" transform="translate(0.000000, 8.206349)">
                            <mask id="mask-22" fill="white">
                                <use xlink:href="#path-21"></use>
                            </mask>
                            <g id="Clip-37"></g>
                            <path d="M23.5020596,26.1778105 L10.8806211,2.03050571 C10.3785158,1.05513746 9.12883158,0.653515238 8.0167614,1.11251206 L1.47079649,3.79986444 C0.358726316,4.25701048 -0.2438,5.4174581 0.0927964912,6.46130571 L8.25479649,32.4390454 C8.6676386,33.7031375 10.075393,34.3490644 11.3102,33.841947 L22.3267614,29.3167565 C23.5615684,28.809639 24.1027263,27.36602 23.5020596,26.1778105" id="Fill-36" fill="#3DC3DF" mask="url(#mask-22)"></path>
                        </g>
                        <path d="M70.7851263,95.9041705 L70.5452316,95.1379419 L64.3544596,97.6790816 C63.2405298,98.1380784 61.9908456,97.7364562 61.4906,96.7610879 L48.9993368,72.8636403 L48.5511614,73.0468689 C47.3163544,73.5539863 46.7751965,74.9994562 47.3758632,76.1876657 L59.9954421,100.33497 C60.499407,101.310339 61.7490912,101.711961 62.8593018,101.254815 L69.4071263,98.5656117 C70.5191965,98.1084657 71.1217228,96.9480181 70.7851263,95.9041705" id="Fill-39" fill="#3DC3DF"></path>
                        <path d="M49.9458982,104.46224 L49.7060035,103.694161 L43.5152316,106.237151 C42.4013018,106.694297 41.1516175,106.294526 40.6513719,105.317307 L28.1601088,81.4217102 L27.7119333,81.6049387 C26.4771263,82.1120562 25.9359684,83.557526 26.5366351,84.7457356 L39.1580737,108.89304 C39.6601789,109.868409 40.9098632,110.26818 42.0219333,109.811034 L48.5678982,107.123682 C49.6799684,106.666536 50.2824947,105.506088 49.9458982,104.46224" id="Fill-41" fill="#3DC3DF"></path>
                        <path d="M44.3994947,25.9652695 L44.2693193,25.7154124 L33.7009333,30.0536727 C32.4661263,30.5607902 31.0583719,29.916714 30.6436702,28.6526219 L22.7234246,3.44111079 L22.3682316,3.58732349 C21.2561614,4.04261873 20.6536351,5.20306635 20.9883719,6.24876476 L29.1503719,32.2265044 C29.5650737,33.4905965 30.9728281,34.1365235 32.2076351,33.629406 L43.2241965,29.1042156 C44.4590035,28.5970981 44.9983018,27.153479 44.3994947,25.9652695" id="Fill-43" fill="#3DC3DF"></path>
                        <g id="Group-47" transform="translate(0.000000, 11.104762)">
                            <mask id="mask-24" fill="white">
                                <use xlink:href="#path-23"></use>
                            </mask>
                            <g id="Clip-46"></g>
                            <path d="M23.5020596,23.2793978 L23.3718842,23.0295406 L12.8053579,27.3696517 C11.5705509,27.8749184 10.1627965,27.2308422 9.74809474,25.9667502 L1.82784912,0.755239048 L1.47079649,0.901451746 C0.358726316,1.35859778 -0.2438,2.5190454 0.0927964912,3.56289302 L8.25479649,29.5424835 C8.6676386,30.8047248 10.075393,31.4506517 11.3102,30.9435343 L22.3267614,26.4183438 C23.5615684,25.9112263 24.1027263,24.4676073 23.5020596,23.2793978" id="Fill-45" fill="#3DC3DF" mask="url(#mask-24)"></path>
                        </g>
                        <polygon id="Fill-48" fill="#97EBF7" points="18.8367579 38.957841 20.9604772 44.0808378 16.9268982 45.7372981 14.8031789 40.6143013"></polygon>
                        <path d="M60.9910982,57.240906 L43.9288175,64.2480108 C32.8397298,68.8009632 20.1439053,63.54656 15.5691684,52.5121283 L13.3673439,47.1984997 L8.21983509,49.312106 L20.3875193,78.660141 L62.6722211,61.2941441 L60.9910982,57.240906 Z" id="Fill-50" fill="#96625F"></path>
                    </g>
                </g>
            </g>
        </g>
    </g>
</svg>