<?xml version="1.0" encoding="UTF-8"?>
<svg width="1920px" height="1080px" viewBox="0 0 1920 1080" version="1.1" xmlns="http://www.w3.org/2000/svg" xmlns:xlink="http://www.w3.org/1999/xlink">
    <!-- Generator: Sketch 47.1 (45422) - http://www.bohemiancoding.com/sketch -->
    <title>Desktop HD-Occupied-main-BG</title>
    <desc>Created with Sketch.</desc>
    <defs>
        <filter x="-17.9%" y="-7.5%" width="127.4%" height="130.8%" filterUnits="objectBoundingBox" id="filter-1">
            <feOffset dx="-4" dy="10" in="SourceAlpha" result="shadowOffsetOuter1"></feOffset>
            <feGaussianBlur stdDeviation="3" in="shadowOffsetOuter1" result="shadowBlurOuter1"></feGaussianBlur>
            <feColorMatrix values="0 0 0 0 0   0 0 0 0 0   0 0 0 0 0  0 0 0 0.3 0" type="matrix" in="shadowBlurOuter1" result="shadowMatrixOuter1"></feColorMatrix>
            <feMerge>
                <feMergeNode in="shadowMatrixOuter1"></feMergeNode>
                <feMergeNode in="SourceGraphic"></feMergeNode>
            </feMerge>
        </filter>
        <polygon id="path-2" points="0.546438605 0.395041667 15.8865289 0.395041667 15.8865289 18.341815 0.546438605 18.341815 0.546438605 0.395041667"></polygon>
        <filter x="-24.7%" y="-13.6%" width="139.0%" height="150.0%" filterUnits="objectBoundingBox" id="filter-4">
            <feOffset dx="-4" dy="10" in="SourceAlpha" result="shadowOffsetOuter1"></feOffset>
            <feGaussianBlur stdDeviation="3" in="shadowOffsetOuter1" result="shadowBlurOuter1"></feGaussianBlur>
            <feColorMatrix values="0 0 0 0 0   0 0 0 0 0   0 0 0 0 0  0 0 0 0.3 0" type="matrix" in="shadowBlurOuter1" result="shadowMatrixOuter1"></feColorMatrix>
            <feMerge>
                <feMergeNode in="shadowMatrixOuter1"></feMergeNode>
                <feMergeNode in="SourceGraphic"></feMergeNode>
            </feMerge>
        </filter>
        <polygon id="path-5" points="59.7349756 61 0.414731707 61 0.414731707 0.0687903614 59.7349756 0.0687903614 59.7349756 61"></polygon>
    </defs>
    <g id="-" stroke="none" stroke-width="1" fill="none" fill-rule="evenodd">
        <g id="Desktop-HD-Occupied-main-BG">
            <g id="3-3" transform="translate(1200.000000, 28.000000)">
                <g id="plane" filter="url(#filter-1)">
                    <path d="M40.8172704,48.110183 C40.8172704,48.110183 19.3464664,35.5581748 14.8439528,41.6850577 C14.8439528,41.6850577 7.4269618,47.3172186 36.568658,64 C36.568658,64 47.5464202,56.8382711 40.8172704,48.110183" id="Fill-1" fill="#F4A41D"></path>
                    <path d="M40.8171691,48.1099185 C40.8171691,48.1099185 19.347192,35.5583196 14.843921,41.6850028 C14.843921,41.6850028 7.42694986,47.3169799 36.5693374,64 C36.5693374,64 47.5463008,56.8385046 40.8171691,48.1099185 Z" id="Stroke-3" stroke="#EF7223" stroke-width="0.731"></path>
                    <path d="M90.2997776,18.8807281 C86.5547209,14.9973116 79.7376139,14.6773238 70,20.170976 C71.1424016,23.788264 73.2663361,27.4142645 76.3080776,30.5689959 C80.2489747,34.656761 84.9949929,37.1873577 89.5179708,38 C94.2103661,28.9864819 93.8451084,22.5582118 90.2997776,18.8807281" id="Fill-5" fill="#84D3ED"></path>
                    <path d="M76.8105753,30.1669185 C73.7735469,27.0823027 71.6529034,23.5361174 70.5122719,20 C66.863027,22.0166557 62.8017581,24.8356367 58.3377764,28.5707866 C59.3496019,28.6172533 60.1658906,28.9169637 60.7377582,29.4985721 C63.8314302,32.6404969 58.60082,42.7810842 49.0536567,52.1449028 C39.9937836,61.0308887 30.3061752,66.0198656 26.6941754,63.8204408 C26.6289965,63.9141487 26.5599378,64.0063077 26.493983,64.0992411 C25.4689665,65.5490028 13.3650815,86.076451 12.5332741,85.8603808 C9.79032686,85.057281 1.4644928,83.4092613 0.156258299,86.5837127 C-1.43752205,90.4497439 9.60410131,100.563226 13.1183327,99.9754216 C13.1214364,99.9738727 19.1404015,98.9655449 34.9346561,88.6723918 C46.768514,82.1298776 61.1164169,70.3815417 72.8470748,58.8779306 C81.2947314,50.5929143 86.8155431,43.4285205 90,37.4327647 C85.4840304,36.6374093 80.745366,34.1638309 76.8105753,30.1669185" id="Fill-7" fill="#FFDD15"></path>
                    <path d="M49.4012681,52.7278056 C58.9673831,43.3029403 64.2079504,33.0962424 61.1083892,29.9338341 C60.5346556,29.3484339 59.7175904,29.0467697 58.7038387,29 C56.1368081,31.1591991 53.4368392,33.619283 50.6054869,36.4098725 C41.8852015,45.0022379 34.0573907,54.4754317 27,64.4794612 C30.6188757,66.6932249 40.3241483,61.6717228 49.4012681,52.7278056" id="Fill-9" fill="#84D3ED"></path>
                    <path d="M71.8755501,19.7611738 C71.8678288,19.7448959 72.0847971,19.6107977 72.5125566,19.3635298 C72.9472653,19.128664 73.6004865,18.7953562 74.4637268,18.3806593 C74.9022961,18.1884259 75.3925981,17.9744888 75.9307721,17.7388479 C76.4828444,17.5357627 77.0804723,17.295471 77.7406427,17.0776582 C79.0609834,16.6451332 80.6191399,16.2389627 82.4120237,16.0645575 C84.190237,15.9157316 86.2664921,15.9653402 88.2971916,16.8559698 C90.3224862,17.6969907 92.2242402,19.4402681 93.1878573,21.8323331 C94.1638285,24.218197 94.2039792,27.0551892 93.6071234,29.8169933 C93.0272545,32.5989509 91.888364,35.3731572 90.4545203,38.1047311 C87.5489985,43.5663286 83.4435882,48.8853014 78.7189302,54.0965304 C76.3569873,56.7079585 73.8089613,59.2767541 71.1582421,61.8416741 C68.507523,64.4089195 65.7378959,66.9676384 62.8655757,69.5069789 C57.1147582,74.5771335 50.9578008,79.5883779 44.3190349,84.1686475 C42.6558688,85.3096454 40.9687667,86.4304899 39.2337927,87.4908738 C38.3728687,88.0319177 37.4957301,88.5504827 36.6085537,89.0550952 L35.946067,89.4387868 L35.7800592,89.5341283 L35.6588349,89.6124169 L35.3384014,89.8201529 L34.055895,90.6495468 C30.6276418,92.852479 27.12372,94.9763475 23.4978017,96.8986809 C21.6832984,97.8582974 19.8355934,98.760554 17.9361559,99.5682441 C16.9802601,99.9635627 16.0212757,100.346479 15.0167358,100.658858 C14.7650217,100.735597 14.5125355,100.81156 14.2492394,100.878221 C14.1102562,100.911552 13.995209,100.944883 13.8207078,100.971237 C13.6523837,100.98364 13.4670727,101.007669 13.3087862,100.997592 C12.6609699,100.968912 12.1235681,100.785205 11.6116465,100.582895 C9.59407314,99.7302472 7.95098243,98.4536007 6.37429483,97.1172689 C4.81691044,95.757683 3.37766181,94.2756259 2.1353061,92.6090868 C1.51914709,91.7719415 0.950087944,90.8882882 0.509202232,89.8976664 C0.30613228,89.3907284 0.114644265,88.8690629 0.0343428393,88.2799607 C-0.0451864573,87.7001601 0.000369159205,87.0118407 0.309992926,86.4095612 C0.611895401,85.8111574 1.12767764,85.3701059 1.64577626,85.0972586 C2.16850765,84.8158848 2.7059095,84.6554319 3.2340458,84.5438126 C4.29186266,84.3306506 5.32728777,84.3081717 6.34263753,84.3430527 C8.37488131,84.4298678 10.3384056,84.7577497 12.2656398,85.2189547 L12.9775428,85.4026616 C12.9960739,85.4119632 13.0223263,85.4173891 13.0369968,85.3925848 L13.1512719,85.2569363 L13.361291,84.9895149 L13.7759243,84.4244419 C14.3225917,83.6524079 14.8499559,82.8540194 15.3688266,82.056406 C17.4389047,78.8543255 19.3993405,75.6390677 21.3173092,72.4951223 C22.2747492,70.9200491 23.2198353,69.3620288 24.1548836,67.8226117 C24.6243381,67.0529032 25.0899319,66.2870703 25.5539815,65.5266634 L26.2612518,64.388766 C26.5098773,63.9887966 26.7862995,63.6330099 27.0349251,63.2772231 C31.1156274,57.5420032 35.2341639,52.3044195 39.2430582,47.6520624 C47.2693401,38.3481233 54.7921939,31.3447833 60.4534444,26.9536466 C63.2786647,24.7499392 65.6290257,23.1919189 67.2721164,22.2036225 C68.9190678,21.2199768 69.8463948,20.7859015 69.8865455,20.8556636 C69.9274684,20.9254257 69.0734936,21.4835226 67.5076158,22.5687108 C65.9448265,23.659325 63.6793997,25.296409 60.9375693,27.561352 C55.4461872,32.0726346 48.070038,39.1348848 40.1657525,48.4458001 C36.2170843,53.102808 32.1533689,58.3303149 28.116678,64.0492571 C27.8641918,64.4135703 27.6008957,64.7546294 27.3854717,65.1073156 L26.6928719,66.2289352 C26.2334551,66.9893421 25.7709498,67.7543999 25.3053559,68.5233333 C24.3733961,70.0658509 23.4321708,71.6269717 22.4785913,73.2051455 C20.5637112,76.3591677 18.6086803,79.5783011 16.5231596,82.8106119 C15.998884,83.618302 15.466887,84.425217 14.8986,85.2282563 L14.4577143,85.8313109 L14.2191264,86.1351636 L14.0855481,86.2932911 C14.0168286,86.3739051 13.929578,86.4576196 13.8523651,86.5397838 C13.6863573,86.6986864 13.5010464,86.8087555 13.2879387,86.8552636 C13.0701983,86.8157317 12.8632677,86.8188322 12.6354896,86.7459696 L11.9398013,86.5661384 C10.0967292,86.1243118 8.18802607,85.8080569 6.29167701,85.728218 C5.346591,85.6941121 4.39455583,85.7212418 3.51278441,85.9002979 C2.64182279,86.0778037 1.81641679,86.4452174 1.53227328,87.0467218 C1.22342164,87.6063689 1.4133654,88.5156016 1.7716333,89.348096 C2.14379952,90.1906672 2.66189814,91.0092092 3.23636219,91.7889945 C4.39532796,93.3485651 5.77821117,94.7817887 7.2653318,96.0832395 C8.75554095,97.359886 10.3777842,98.5939 12.1119861,99.3240767 C12.5382014,99.4992571 12.984492,99.6341305 13.3574303,99.6465327 C13.6315362,99.6806386 14.1673938,99.5023576 14.6214057,99.3705848 C15.5595425,99.0814596 16.4945909,98.7124956 17.4211458,98.3311295 C19.2719392,97.550569 21.0926196,96.668466 22.8862755,95.7266776 C26.4704987,93.8415506 29.9558895,91.7463621 33.3702443,89.5705596 L34.6473458,88.7512425 L34.9670073,88.546607 L35.1662166,88.4225855 L35.329908,88.3287942 L35.9846734,87.952854 C36.8602678,87.4590933 37.7281409,86.9521554 38.5813436,86.4204131 C40.2993308,85.3801827 41.9763952,84.2771663 43.6295236,83.1547716 C50.2343158,78.6442641 56.3889568,73.6919299 62.1451792,68.6814607 C65.020588,66.1715753 67.7963921,63.6407612 70.4540604,61.1029709 C73.1140451,58.5651807 75.6628433,56.0343666 78.0286468,53.460145 C82.761026,48.324104 86.8718413,43.0880706 89.7835401,37.7435184 C91.2212445,35.0708548 92.3616792,32.3640852 92.9531301,29.676694 C93.5638842,27.0040303 93.5453531,24.3019115 92.6574046,22.0485956 C91.7810381,19.7906289 90.0167231,18.1209892 88.1064757,17.2931456 C86.1915956,16.4156934 84.1832878,16.3281032 82.4429088,16.4428231 C80.6870873,16.5800219 79.1405127,16.9489859 77.8248047,17.3458547 C77.1669508,17.5466146 76.5685507,17.7706284 76.014162,17.9566607 C75.4721274,18.1744735 74.979509,18.3721328 74.5370791,18.5504137 C73.6699781,18.9410815 73.0051749,19.2410585 72.5534794,19.4449189 C72.3334226,19.5518875 72.1658706,19.6332766 72.0515955,19.6890863 C71.9380925,19.7425705 71.8786386,19.7665997 71.8755501,19.7611738" id="Fill-11" fill="#EF7325"></path>
                    <path d="M71.8755501,19.7611738 C71.8678288,19.7448959 72.0847971,19.6107977 72.5125566,19.3635298 C72.9472653,19.128664 73.6004865,18.7953562 74.4637268,18.3806593 C74.9022961,18.1884259 75.3925981,17.9744888 75.9307721,17.7388479 C76.4828444,17.5357627 77.0804723,17.295471 77.7406427,17.0776582 C79.0609834,16.6451332 80.6191399,16.2389627 82.4120237,16.0645575 C84.190237,15.9157316 86.2664921,15.9653402 88.2971916,16.8559698 C90.3224862,17.6969907 92.2242402,19.4402681 93.1878573,21.8323331 C94.1638285,24.218197 94.2039792,27.0551892 93.6071234,29.8169933 C93.0272545,32.5989509 91.888364,35.3731572 90.4545203,38.1047311 C87.5489985,43.5663286 83.4435882,48.8853014 78.7189302,54.0965304 C76.3569873,56.7079585 73.8089613,59.2767541 71.1582421,61.8416741 C68.507523,64.4089195 65.7378959,66.9676384 62.8655757,69.5069789 C57.1147582,74.5771335 50.9578008,79.5883779 44.3190349,84.1686475 C42.6558688,85.3096454 40.9687667,86.4304899 39.2337927,87.4908738 C38.3728687,88.0319177 37.4957301,88.5504827 36.6085537,89.0550952 L35.946067,89.4387868 L35.7800592,89.5341283 L35.6588349,89.6124169 L35.3384014,89.8201529 L34.055895,90.6495468 C30.6276418,92.852479 27.12372,94.9763475 23.4978017,96.8986809 C21.6832984,97.8582974 19.8355934,98.760554 17.9361559,99.5682441 C16.9802601,99.9635627 16.0212757,100.346479 15.0167358,100.658858 C14.7650217,100.735597 14.5125355,100.81156 14.2492394,100.878221 C14.1102562,100.911552 13.995209,100.944883 13.8207078,100.971237 C13.6523837,100.98364 13.4670727,101.007669 13.3087862,100.997592 C12.6609699,100.968912 12.1235681,100.785205 11.6116465,100.582895 C9.59407314,99.7302472 7.95098243,98.4536007 6.37429483,97.1172689 C4.81691044,95.757683 3.37766181,94.2756259 2.1353061,92.6090868 C1.51914709,91.7719415 0.950087944,90.8882882 0.509202232,89.8976664 C0.30613228,89.3907284 0.114644265,88.8690629 0.0343428393,88.2799607 C-0.0451864573,87.7001601 0.000369159205,87.0118407 0.309992926,86.4095612 C0.611895401,85.8111574 1.12767764,85.3701059 1.64577626,85.0972586 C2.16850765,84.8158848 2.7059095,84.6554319 3.2340458,84.5438126 C4.29186266,84.3306506 5.32728777,84.3081717 6.34263753,84.3430527 C8.37488131,84.4298678 10.3384056,84.7577497 12.2656398,85.2189547 L12.9775428,85.4026616 C12.9960739,85.4119632 13.0223263,85.4173891 13.0369968,85.3925848 L13.1512719,85.2569363 L13.361291,84.9895149 L13.7759243,84.4244419 C14.3225917,83.6524079 14.8499559,82.8540194 15.3688266,82.056406 C17.4389047,78.8543255 19.3993405,75.6390677 21.3173092,72.4951223 C22.2747492,70.9200491 23.2198353,69.3620288 24.1548836,67.8226117 C24.6243381,67.0529032 25.0899319,66.2870703 25.5539815,65.5266634 L26.2612518,64.388766 C26.5098773,63.9887966 26.7862995,63.6330099 27.0349251,63.2772231 C31.1156274,57.5420032 35.2341639,52.3044195 39.2430582,47.6520624 C47.2693401,38.3481233 54.7921939,31.3447833 60.4534444,26.9536466 C63.2786647,24.7499392 65.6290257,23.1919189 67.2721164,22.2036225 C68.9190678,21.2199768 69.8463948,20.7859015 69.8865455,20.8556636 C69.9274684,20.9254257 69.0734936,21.4835226 67.5076158,22.5687108 C65.9448265,23.659325 63.6793997,25.296409 60.9375693,27.561352 C55.4461872,32.0726346 48.070038,39.1348848 40.1657525,48.4458001 C36.2170843,53.102808 32.1533689,58.3303149 28.116678,64.0492571 C27.8641918,64.4135703 27.6008957,64.7546294 27.3854717,65.1073156 L26.6928719,66.2289352 C26.2334551,66.9893421 25.7709498,67.7543999 25.3053559,68.5233333 C24.3733961,70.0658509 23.4321708,71.6269717 22.4785913,73.2051455 C20.5637112,76.3591677 18.6086803,79.5783011 16.5231596,82.8106119 C15.998884,83.618302 15.466887,84.425217 14.8986,85.2282563 L14.4577143,85.8313109 L14.2191264,86.1351636 L14.0855481,86.2932911 C14.0168286,86.3739051 13.929578,86.4576196 13.8523651,86.5397838 C13.6863573,86.6986864 13.5010464,86.8087555 13.2879387,86.8552636 C13.0701983,86.8157317 12.8632677,86.8188322 12.6354896,86.7459696 L11.9398013,86.5661384 C10.0967292,86.1243118 8.18802607,85.8080569 6.29167701,85.728218 C5.346591,85.6941121 4.39455583,85.7212418 3.51278441,85.9002979 C2.64182279,86.0778037 1.81641679,86.4452174 1.53227328,87.0467218 C1.22342164,87.6063689 1.4133654,88.5156016 1.7716333,89.348096 C2.14379952,90.1906672 2.66189814,91.0092092 3.23636219,91.7889945 C4.39532796,93.3485651 5.77821117,94.7817887 7.2653318,96.0832395 C8.75554095,97.359886 10.3777842,98.5939 12.1119861,99.3240767 C12.5382014,99.4992571 12.984492,99.6341305 13.3574303,99.6465327 C13.6315362,99.6806386 14.1673938,99.5023576 14.6214057,99.3705848 C15.5595425,99.0814596 16.4945909,98.7124956 17.4211458,98.3311295 C19.2719392,97.550569 21.0926196,96.668466 22.8862755,95.7266776 C26.4704987,93.8415506 29.9558895,91.7463621 33.3702443,89.5705596 L34.6473458,88.7512425 L34.9670073,88.546607 L35.1662166,88.4225855 L35.329908,88.3287942 L35.9846734,87.952854 C36.8602678,87.4590933 37.7281409,86.9521554 38.5813436,86.4204131 C40.2993308,85.3801827 41.9763952,84.2771663 43.6295236,83.1547716 C50.2343158,78.6442641 56.3889568,73.6919299 62.1451792,68.6814607 C65.020588,66.1715753 67.7963921,63.6407612 70.4540604,61.1029709 C73.1140451,58.5651807 75.6628433,56.0343666 78.0286468,53.460145 C82.761026,48.324104 86.8718413,43.0880706 89.7835401,37.7435184 C91.2212445,35.0708548 92.3616792,32.3640852 92.9531301,29.676694 C93.5638842,27.0040303 93.5453531,24.3019115 92.6574046,22.0485956 C91.7810381,19.7906289 90.0167231,18.1209892 88.1064757,17.2931456 C86.1915956,16.4156934 84.1832878,16.3281032 82.4429088,16.4428231 C80.6870873,16.5800219 79.1405127,16.9489859 77.8248047,17.3458547 C77.1669508,17.5466146 76.5685507,17.7706284 76.014162,17.9566607 C75.4721274,18.1744735 74.979509,18.3721328 74.5370791,18.5504137 C73.6699781,18.9410815 73.0051749,19.2410585 72.5534794,19.4449189 C72.3334226,19.5518875 72.1658706,19.6332766 72.0515955,19.6890863 C71.9380925,19.7425705 71.8786386,19.7665997 71.8755501,19.7611738 Z" id="Stroke-13" stroke="#EF7223" stroke-width="0.273"></path>
                    <path d="M45,65.6016518 C45,65.6016518 55.5999628,98.951199 65.844397,96.9099801 C65.844397,96.9099801 78.6349984,98.1470587 63.9234698,53.24415 C63.9234698,53.24415 46.0688845,50.2010771 45,65.6016518" id="Fill-15" fill="#F4A41D"></path>
                    <path d="M46.061516,64.6652584 C46.0497444,64.6644861 46.0583769,64.488385 46.0850593,64.1516304 C46.1164503,63.8164205 46.1337153,63.3159227 46.2647728,62.684894 C46.4852946,61.4313325 46.9490967,59.5583279 48.2949861,57.6289401 C48.9628298,56.6696528 49.8700299,55.7250406 51.0087387,54.9279516 C52.1443083,54.1270008 53.5011846,53.4735732 54.9953965,52.9947019 C57.9932377,52.0516344 61.5098152,51.7758973 65.137046,52.1813931 L65.6173284,52.2501343 L65.76879,52.6996554 L65.9838184,53.340725 C66.1266475,53.7693921 66.2710461,54.1996038 66.4170143,54.6329051 C66.704242,55.50028 67.0063805,56.3730616 67.2794822,57.2628353 C67.8468747,59.0354314 68.4079889,60.8420119 68.9330035,62.6733084 C69.9893109,66.3335842 70.9569387,70.078821 71.6938426,73.7985695 C72.4142662,77.5175457 72.9706718,81.2094888 72.9973541,84.7384612 C73.0177583,86.4994717 72.9235853,88.2218635 72.5947645,89.8500259 C72.2533873,91.4658303 71.7244488,93.036837 70.7058106,94.2471456 C70.2569192,94.7777658 69.7067918,95.2404173 69.0656305,95.5509112 C68.7423032,95.6992069 68.4056346,95.8227865 68.0493467,95.8822593 C67.8712027,95.9139266 67.6930588,95.9340083 67.5015736,95.9340083 C67.350112,95.9332359 67.4458546,95.929374 67.3132276,95.941732 L67.0542518,95.9656756 C65.6644149,96.1286463 64.3067539,95.6922555 63.1758929,95.059682 C60.910247,93.7327451 59.273206,91.8188047 57.8394217,89.9604752 C55.0079529,86.1820264 53.0381673,82.3386982 51.4034806,78.9742412 C48.1953197,72.2020745 46.5127617,67.1623404 46.09997,65.3812482 C46.0591617,65.1997406 45.9571409,64.8042856 46.0199229,64.7000152 C46.1235132,64.5285484 46.3518828,65.0236395 46.4499797,65.221367 C47.2465265,66.815545 48.9714623,71.7903997 52.1184108,78.5401676 C53.7193521,81.8907218 55.6365578,85.7379119 58.3840557,89.4839211 C59.772323,91.3229413 61.3669861,93.2129381 63.4796009,94.4680442 C64.5335539,95.0689505 65.7460316,95.4620883 66.9632178,95.3269231 L67.1915874,95.3076137 L67.3053798,95.2983453 C67.4482089,95.2844425 67.4607653,95.293711 67.4937259,95.2913939 C67.6271376,95.293711 67.7770297,95.2774912 67.9214283,95.2535476 C68.2141495,95.2079776 68.4998076,95.1021625 68.7736942,94.9793552 C69.3206825,94.7167484 69.804104,94.3166591 70.2074784,93.8393326 C71.1193871,92.7618722 71.6349844,91.2796884 71.9622357,89.7264462 C72.2808544,88.1593013 72.3781665,86.4747557 72.3632558,84.7446401 C72.345206,81.2759129 71.807635,77.6079133 71.1076155,73.9097913 C70.390331,70.2085797 69.4462465,66.4726113 68.4150519,62.8161974 C67.9025937,60.9872181 67.3556054,59.1821823 66.8023389,57.4088138 C66.5363002,56.5190401 66.2404399,55.6462585 65.9594904,54.7788836 C65.8182309,54.3455824 65.6777561,53.9138258 65.5372814,53.4851588 L65.3293159,52.8440892 L65.2688883,52.6571749 L65.0774031,52.6285971 C61.5239412,52.2022472 58.0466024,52.4424552 55.1044803,53.3345461 C52.1545104,54.2150513 49.8150956,55.8934179 48.5005972,57.7726015 C47.1531383,59.6363376 46.6524517,61.4722683 46.3926911,62.7088375 C46.2420143,63.3305978 46.2043451,63.8264613 46.1509804,64.1585817 C46.1031091,64.4914745 46.0732876,64.6660308 46.061516,64.6652584" id="Fill-17" fill="#EF7223"></path>
                    <path d="M14,92.6161287 C14,92.6161287 18.7872409,88.0997781 22.4121411,90.9351966 C22.4121411,90.9351966 24.8747004,101.120845 19.7195184,105.984311 C19.7195184,105.984311 15.6946128,107.003338 14,92.6161287" id="Fill-19" fill="#F4A41D"></path>
                    <path d="M13,93.6165861 C13,93.6165861 17.7873474,89.1006175 21.4123281,91.934257 C21.4123281,91.934257 23.8741405,102.119813 18.7204472,106.984407 C18.7204472,106.984407 14.6946504,108.001039 13,93.6165861 Z" id="Stroke-21" stroke="#EF7223" stroke-width="0.731"></path>
                    <g id="Group-25" transform="translate(76.000000, 0.000000)">
                        <mask id="mask-3" fill="white">
                            <use xlink:href="#path-2"></use>
                        </mask>
                        <g id="Clip-24"></g>
                        <path d="M10.39856,7.5821875 C14.45776,12.4374792 16.77296,17.1732292 15.56736,18.1604375 C14.36256,19.1468542 10.09376,16.0110625 6.03456,11.1549792 C1.97536,6.2996875 -0.33904,1.5639375 0.86496,0.5759375 C2.07136,-0.4096875 6.34016,2.72689583 10.39856,7.5821875" id="Fill-23" fill="#F4A41D" mask="url(#mask-3)"></path>
                    </g>
                    <path d="M100.634005,25.208288 C104.603196,30.0780723 106.866276,34.8287522 105.688192,35.8181132 C104.509325,36.8074743 100.335964,33.6615285 96.3667727,28.7917442 C92.3967994,23.9219598 90.133719,19.172074 91.3118037,18.1819189 C92.4906707,17.1925579 96.6640318,20.3377096 100.634005,25.208288" id="Fill-26" fill="#F4A41D"></path>
                    <path d="M93.1300828,21.5964157 C91.4202783,22.4967266 89.3030114,21.8401377 88.4035189,20.1302389 C87.5032576,18.4203401 88.1598102,16.3037253 89.8711523,15.4034143 C91.5801881,14.5031034 93.6966862,15.1604611 94.5969475,16.8703599 C95.49644,18.5802587 94.8398874,20.6968736 93.1300828,21.5964157 Z" id="Fill-28" fill="#EF4723"></path>
                </g>
                <g id="fly" filter="url(#filter-4)" transform="translate(519.936632, 224.814828) rotate(-13.000000) translate(-519.936632, -224.814828) translate(481.436632, 191.814828)">
                    <g id="Group-3" transform="translate(16.000000, 4.000000)">
                        <mask id="mask-6" fill="white">
                            <use xlink:href="#path-5"></use>
                        </mask>
                        <g id="Clip-2"></g>
                        <path d="M0.414731707,39.3777783 C0.414731707,39.3777783 52.734,4.22266988 59.7349756,0.0687903614 C59.7349756,0.0687903614 20.7020488,60.5793205 19.4069268,60.9945614 C18.1118049,61.4090675 0.414731707,39.3777783 0.414731707,39.3777783" id="Fill-1" fill="#34A2BF" mask="url(#mask-6)"></path>
                    </g>
                    <polygon id="Fill-4" fill="#84D3ED" points="1 39.1667903 18.4820836 45 77 3"></polygon>
                    <polygon id="Fill-6" fill="#84D3ED" points="29 46.3052628 77 3 59.0795098 53"></polygon>
                    <polygon id="Fill-8" fill="#2088A0" points="35.8276737 65 29 47 46 50.6829614"></polygon>
                    <path d="M74.999148,3.00110226 C75.0145473,3.02259043 74.820957,3.19375482 74.4374431,3.50125794 C74.0414631,3.80802009 73.4724253,4.24963904 72.7420622,4.81574117 C71.2410048,5.93831282 69.0843806,7.55214849 66.4181154,9.54536151 C61.0569866,13.5169681 53.6132965,18.9727404 45.3439148,24.991651 C37.0532675,30.9890733 27.9581943,37.5681582 19.3140982,43.8212157 C18.8543215,44.1524299 18.395278,44.4821622 17.9377012,44.8104125 C17.9281683,44.8200452 17.907636,44.8274549 17.9069027,44.8385694 L17.9355013,44.8741361 L18.4158103,45.471359 C19.2429685,46.4938995 20.063527,47.5075484 20.8738193,48.5093417 C22.5112698,50.5003318 24.1113222,52.4453817 25.657844,54.3252261 C27.2160985,56.1939559 28.7325551,57.9878476 30.2079471,59.6676297 C30.9463764,60.5064093 31.6738063,61.317773 32.3968364,62.0802326 C32.7590847,62.4610918 33.1213331,62.8300956 33.4843147,63.1709424 C33.6647056,63.3406249 33.8472964,63.5051205 34.0240208,63.6429412 C34.079018,63.6822127 34.1200826,63.7340807 34.1787463,63.7162974 C34.2095447,63.6955502 34.2308103,63.6681342 34.2594089,63.6377544 L34.5285286,63.3087631 C34.7162524,63.0620196 34.903243,62.81824 35.0880336,62.5766834 C35.4510152,62.0831964 35.8066639,61.601565 36.1520464,61.1317892 C36.8347452,60.1811229 37.4822458,59.2801017 38.0908817,58.4324304 C39.3022871,56.7407928 40.358967,55.2662597 41.2359893,54.041434 C42.9915005,51.6169757 44.0401141,50.2706307 44.1691742,50.3595472 C44.2879682,50.4403131 43.4380779,51.9222559 41.8380255,54.456378 C41.0379993,55.7219571 40.0502493,57.251322 38.8931078,58.9940867 C38.3064708,59.8632462 37.6824357,60.7864965 37.0254023,61.7608739 C36.6866194,62.2447282 36.339037,62.7404381 35.9833883,63.2480035 C35.7978644,63.4999337 35.6108738,63.7555688 35.4216834,64.0134269 L35.0960999,64.4298528 C34.9179089,64.6454755 34.7045197,64.8203447 34.4823309,64.9655751 C34.0929506,65.0922812 33.6720386,64.8477607 33.3193231,64.5817519 C33.0920012,64.4091056 32.8903448,64.2327544 32.6908882,64.0526984 C32.2934416,63.6911043 31.9143275,63.3154318 31.5359466,62.9301267 C30.7821181,62.1580345 30.0370891,61.3474119 29.281794,60.5086322 C27.7756035,58.831814 26.2386146,57.0423681 24.6642276,55.1766022 C23.0913071,53.3093543 21.4831885,51.3643044 19.850871,49.3614588 C19.0376455,48.3574425 18.2148871,47.3423117 17.3862624,46.3175483 L16.6273008,45.3720688 L16.0384639,44.6340613 C15.9402022,44.565151 16.0545964,44.5266205 16.1110602,44.4799393 L16.3024505,44.3421186 L16.6859645,44.0664773 C17.3048665,43.6241173 17.9259684,43.1795345 18.5500035,42.7334697 C27.2439637,36.5522865 36.3933009,30.0472987 44.7316125,24.1195276 C53.0904563,18.2384378 60.634608,12.9301188 66.0969317,9.08818217 C68.8343265,7.19055446 71.0481479,5.65600272 72.5836702,4.59122684 C73.3521647,4.07180591 73.9498011,3.6679765 74.360447,3.3908532 C74.7696263,3.12113962 74.9888819,2.98628283 74.999148,3.00110226" id="Fill-10" fill="#2289A1"></path>
                    <path d="M74.999148,3.00110226 C75.0145473,3.02259043 74.820957,3.19375482 74.4374431,3.50125794 C74.0414631,3.80802009 73.4724253,4.24963904 72.7420622,4.81574117 C71.2410048,5.93831282 69.0843806,7.55214849 66.4181154,9.54536151 C61.0569866,13.5169681 53.6132965,18.9727404 45.3439148,24.991651 C37.0532675,30.9890733 27.9581943,37.5681582 19.3140982,43.8212157 C18.8543215,44.1524299 18.395278,44.4821622 17.9377012,44.8104125 C17.9281683,44.8200452 17.907636,44.8274549 17.9069027,44.8385694 L17.9355013,44.8741361 L18.4158103,45.471359 C19.2429685,46.4938995 20.063527,47.5075484 20.8738193,48.5093417 C22.5112698,50.5003318 24.1113222,52.4453817 25.657844,54.3252261 C27.2160985,56.1939559 28.7325551,57.9878476 30.2079471,59.6676297 C30.9463764,60.5064093 31.6738063,61.317773 32.3968364,62.0802326 C32.7590847,62.4610918 33.1213331,62.8300956 33.4843147,63.1709424 C33.6647056,63.3406249 33.8472964,63.5051205 34.0240208,63.6429412 C34.079018,63.6822127 34.1200826,63.7340807 34.1787463,63.7162974 C34.2095447,63.6955502 34.2308103,63.6681342 34.2594089,63.6377544 L34.5285286,63.3087631 C34.7162524,63.0620196 34.903243,62.81824 35.0880336,62.5766834 C35.4510152,62.0831964 35.8066639,61.601565 36.1520464,61.1317892 C36.8347452,60.1811229 37.4822458,59.2801017 38.0908817,58.4324304 C39.3022871,56.7407928 40.358967,55.2662597 41.2359893,54.041434 C42.9915005,51.6169757 44.0401141,50.2706307 44.1691742,50.3595472 C44.2879682,50.4403131 43.4380779,51.9222559 41.8380255,54.456378 C41.0379993,55.7219571 40.0502493,57.251322 38.8931078,58.9940867 C38.3064708,59.8632462 37.6824357,60.7864965 37.0254023,61.7608739 C36.6866194,62.2447282 36.339037,62.7404381 35.9833883,63.2480035 C35.7978644,63.4999337 35.6108738,63.7555688 35.4216834,64.0134269 L35.0960999,64.4298528 C34.9179089,64.6454755 34.7045197,64.8203447 34.4823309,64.9655751 C34.0929506,65.0922812 33.6720386,64.8477607 33.3193231,64.5817519 C33.0920012,64.4091056 32.8903448,64.2327544 32.6908882,64.0526984 C32.2934416,63.6911043 31.9143275,63.3154318 31.5359466,62.9301267 C30.7821181,62.1580345 30.0370891,61.3474119 29.281794,60.5086322 C27.7756035,58.831814 26.2386146,57.0423681 24.6642276,55.1766022 C23.0913071,53.3093543 21.4831885,51.3643044 19.850871,49.3614588 C19.0376455,48.3574425 18.2148871,47.3423117 17.3862624,46.3175483 L16.6273008,45.3720688 L16.0384639,44.6340613 C15.9402022,44.565151 16.0545964,44.5266205 16.1110602,44.4799393 L16.3024505,44.3421186 L16.6859645,44.0664773 C17.3048665,43.6241173 17.9259684,43.1795345 18.5500035,42.7334697 C27.2439637,36.5522865 36.3933009,30.0472987 44.7316125,24.1195276 C53.0904563,18.2384378 60.634608,12.9301188 66.0969317,9.08818217 C68.8343265,7.19055446 71.0481479,5.65600272 72.5836702,4.59122684 C73.3521647,4.07180591 73.9498011,3.6679765 74.360447,3.3908532 C74.7696263,3.12113962 74.9888819,2.98628283 74.999148,3.00110226 Z" id="Stroke-12" stroke="#2088A0" stroke-width="0.276"></path>
                    <path d="M0.000239904037,38.3059508 C-0.00633236034,38.2910652 0.122191921,38.2114273 0.378510232,38.0700142 C0.642131058,37.9308339 1.02332239,37.7291342 1.51989348,37.4671479 C2.5364037,36.9543393 4.01735394,36.2063385 5.90505432,35.2521723 C9.71477691,33.373611 15.1617236,30.6867622 21.7434812,27.4402153 C28.3464162,24.2197182 36.0863529,20.4439886 44.4557664,16.361616 C53.8321969,11.823 63.91259,6.943504 74.1266191,2 C74.434055,2.07814934 74.7246951,2.16895143 75,2.27091771 C74.9532639,2.56565237 74.9218631,2.85219995 74.9036068,3.1327933 C63.4634853,11.4143906 52.0525738,19.6744037 41.6822709,27.1819504 C36.9422077,30.587773 32.4402066,33.8231557 28.2901868,36.8039949 C24.0569183,39.8205594 20.1851243,42.5803476 16.7879939,45 C14.1437528,44.0726278 11.7470671,43.2323363 9.63590974,42.4917783 C7.6101918,41.7601516 5.85977872,41.1282584 4.41826207,40.6080071 C1.55859681,39.550386 -0.0107138699,38.9088171 0.0287197163,38.7867553 C0.0659625478,38.6736248 1.69880512,39.1179596 4.61104849,40.011095 C6.07082144,40.4703154 7.84606307,41.0285249 9.90099107,41.6745595 C11.8828939,42.3146398 14.1335293,43.0418008 16.6178453,43.8433898 C19.8565111,41.4683941 23.5515842,38.7599612 27.5906058,35.7984734 C31.7223693,32.793073 36.2061141,29.5316405 40.9271907,26.0982795 C49.4930419,19.9118289 58.9191296,13.1039049 68.367855,6.27886246 L68.9286882,5.88588292 L68.4160516,6.11958667 C51.2244685,14.257538 34.4849111,22.1826254 22.0370424,28.07583 C15.3910226,31.1898951 9.89222805,33.7665905 6.05037439,35.5670025 C4.12762193,36.452695 2.62111289,37.1463634 1.59145814,37.6212137 C1.07736101,37.8504518 0.682294896,38.0261017 0.412832057,38.1459307 C0.14482972,38.261294 0.00535166522,38.3156264 0.000239904037,38.3059508" id="Fill-14" fill="#2289A1"></path>
                    <path d="M0.000239904037,38.3059508 C-0.00633236034,38.2910652 0.122191921,38.2114273 0.378510232,38.0700142 C0.642131058,37.9308339 1.02332239,37.7291342 1.51989348,37.4671479 C2.5364037,36.9543393 4.01735394,36.2063385 5.90505432,35.2521723 C9.71477691,33.373611 15.1617236,30.6867622 21.7434812,27.4402153 C28.3464162,24.2197182 36.0863529,20.4439886 44.4557664,16.361616 C53.8321969,11.823 63.91259,6.943504 74.1266191,2 C74.434055,2.07814934 74.7246951,2.16895143 75,2.27091771 C74.9532639,2.56565237 74.9218631,2.85219995 74.9036068,3.1327933 C63.4634853,11.4143906 52.0525738,19.6744037 41.6822709,27.1819504 C36.9422077,30.587773 32.4402066,33.8231557 28.2901868,36.8039949 C24.0569183,39.8205594 20.1851243,42.5803476 16.7879939,45 C14.1437528,44.0726278 11.7470671,43.2323363 9.63590974,42.4917783 C7.6101918,41.7601516 5.85977872,41.1282584 4.41826207,40.6080071 C1.55859681,39.550386 -0.0107138699,38.9088171 0.0287197163,38.7867553 C0.0659625478,38.6736248 1.69880512,39.1179596 4.61104849,40.011095 C6.07082144,40.4703154 7.84606307,41.0285249 9.90099107,41.6745595 C11.8828939,42.3146398 14.1335293,43.0418008 16.6178453,43.8433898 C19.8565111,41.4683941 23.5515842,38.7599612 27.5906058,35.7984734 C31.7223693,32.793073 36.2061141,29.5316405 40.9271907,26.0982795 C49.4930419,19.9118289 58.9191296,13.1039049 68.367855,6.27886246 L68.9286882,5.88588292 L68.4160516,6.11958667 C51.2244685,14.257538 34.4849111,22.1826254 22.0370424,28.07583 C15.3910226,31.1898951 9.89222805,33.7665905 6.05037439,35.5670025 C4.12762193,36.452695 2.62111289,37.1463634 1.59145814,37.6212137 C1.07736101,37.8504518 0.682294896,38.0261017 0.412832057,38.1459307 C0.14482972,38.261294 0.00535166522,38.3156264 0.000239904037,38.3059508 Z" id="Stroke-16" stroke="#2088A0" stroke-width="0.276"></path>
                    <path d="M28.1725562,45.9553525 C28.1769638,45.9360113 28.371633,45.9583281 28.7418717,46.0208149 C29.1201911,46.0907407 29.6645303,46.1911659 30.3704817,46.3220908 C31.7963417,46.6114643 33.8635083,47.0317627 36.4691372,47.5614131 C41.599589,48.6527012 48.8442218,50.1932994 57.3340028,51.9994666 C59.8441337,44.8157115 62.6723466,36.7221778 65.6254417,28.2693447 C68.3618296,20.5075863 71.2142844,12.4162842 74.0050327,4.50054037 C68.4940577,9.4994877 63.0940075,14.3980097 58.0921108,18.9350008 C52.4584575,23.9964349 47.2743799,28.6539363 42.8608985,32.6181313 C38.4363981,36.5622412 34.7700057,39.7884964 32.1871494,42.0030598 C29.6035584,44.2168793 28.1020345,45.4167754 28.0043326,45.3066796 C27.9132421,45.2040226 29.2619691,43.8315438 31.7228817,41.4786166 C34.1837942,39.1264334 37.7568924,35.7945457 42.1145441,31.7753028 C46.4905609,27.7701938 51.6312971,23.0643396 57.2194051,17.9486013 C63.4363314,12.3076761 70.1491132,6.21669684 77,0 C73.5694144,9.54486505 70.0624303,19.301739 66.6986934,28.6613752 C63.5568059,37.3321684 60.5478812,45.6332477 57.878342,53 C49.1263085,50.9580193 41.6605609,49.2158266 36.3765775,47.9831993 C33.7893136,47.3605626 31.7361045,46.8673628 30.325671,46.5281486 C29.6270657,46.3511025 29.0886033,46.2149705 28.7198337,46.1219841 C28.3569409,46.0252783 28.1696178,45.9687425 28.1725562,45.9553525" id="Fill-18" fill="#2289A1"></path>
                    <path d="M28.1725562,45.9553525 C28.1769638,45.9360113 28.371633,45.9583281 28.7418717,46.0208149 C29.1201911,46.0907407 29.6645303,46.1911659 30.3704817,46.3220908 C31.7963417,46.6114643 33.8635083,47.0317627 36.4691372,47.5614131 C41.599589,48.6527012 48.8442218,50.1932994 57.3340028,51.9994666 C59.8441337,44.8157115 62.6723466,36.7221778 65.6254417,28.2693447 C68.3618296,20.5075863 71.2142844,12.4162842 74.0050327,4.50054037 C68.4940577,9.4994877 63.0940075,14.3980097 58.0921108,18.9350008 C52.4584575,23.9964349 47.2743799,28.6539363 42.8608985,32.6181313 C38.4363981,36.5622412 34.7700057,39.7884964 32.1871494,42.0030598 C29.6035584,44.2168793 28.1020345,45.4167754 28.0043326,45.3066796 C27.9132421,45.2040226 29.2619691,43.8315438 31.7228817,41.4786166 C34.1837942,39.1264334 37.7568924,35.7945457 42.1145441,31.7753028 C46.4905609,27.7701938 51.6312971,23.0643396 57.2194051,17.9486013 C63.4363314,12.3076761 70.1491132,6.21669684 77,0 C73.5694144,9.54486505 70.0624303,19.301739 66.6986934,28.6613752 C63.5568059,37.3321684 60.5478812,45.6332477 57.878342,53 C49.1263085,50.9580193 41.6605609,49.2158266 36.3765775,47.9831993 C33.7893136,47.3605626 31.7361045,46.8673628 30.325671,46.5281486 C29.6270657,46.3511025 29.0886033,46.2149705 28.7198337,46.1219841 C28.3569409,46.0252783 28.1696178,45.9687425 28.1725562,45.9553525 Z" id="Stroke-20" stroke="#2088A0" stroke-width="0.276"></path>
                    <path d="M35.0808541,63.9992463 C34.9950938,63.9393817 36.0257085,62.2779547 37.7595573,59.6306096 C38.6387864,58.3054589 39.6813329,56.7356764 40.8364864,54.995908 C41.8693383,53.4601226 43.0021195,51.7750454 44.1923228,50.0057142 L43.9134155,49.9598919 C43.5823063,49.8926367 43.2497056,49.8239032 42.9148677,49.7559089 C42.216108,49.6110514 41.5098909,49.4654548 40.7991993,49.3183801 C39.3770704,49.0205353 37.9348065,48.7189951 36.4895596,48.4167159 C34.0084779,47.8838472 31.5169558,47.3495003 29.1298375,46.8365864 C29.8822906,48.8875028 30.6056598,50.8541654 31.2678782,52.6552765 C32.0486694,54.8148361 32.7399717,56.7755861 33.3022608,58.435535 C34.4260931,61.7554329 35.0286522,63.8713874 34.784049,63.9615538 C34.5551064,64.0458077 33.6348614,62.0466261 32.3119162,58.8006351 C31.6504435,57.1769005 30.8890415,55.2412789 30.0635058,53.0987179 C29.1156684,50.592535 28.0798336,47.8550235 27,45 C30.1664181,45.7080281 33.4722898,46.4470971 36.7647382,47.1839488 C39.9058011,47.9060192 43.0326949,48.6243943 46,49.306555 C45.1327027,50.5082811 44.2855405,51.6819227 43.4674621,52.8156545 C42.7948034,53.7372735 42.1460083,54.6256344 41.5277887,55.4726075 C40.2861292,57.1562066 39.1675171,58.6735152 38.2248999,59.9513655 C37.2792998,61.2218251 36.5082032,62.2439575 35.9660491,62.9431167 C35.4231494,63.642276 35.109938,64.0192012 35.0808541,63.9992463" id="Fill-22" fill="#2289A1"></path>
                    <path d="M35.0808541,63.9992463 C34.9950938,63.9393817 36.0257085,62.2779547 37.7595573,59.6306096 C38.6387864,58.3054589 39.6813329,56.7356764 40.8364864,54.995908 C41.8693383,53.4601226 43.0021195,51.7750454 44.1923228,50.0057142 L43.9134155,49.9598919 C43.5823063,49.8926367 43.2497056,49.8239032 42.9148677,49.7559089 C42.216108,49.6110514 41.5098909,49.4654548 40.7991993,49.3183801 C39.3770704,49.0205353 37.9348065,48.7189951 36.4895596,48.4167159 C34.0084779,47.8838472 31.5169558,47.3495003 29.1298375,46.8365864 C29.8822906,48.8875028 30.6056598,50.8541654 31.2678782,52.6552765 C32.0486694,54.8148361 32.7399717,56.7755861 33.3022608,58.435535 C34.4260931,61.7554329 35.0286522,63.8713874 34.784049,63.9615538 C34.5551064,64.0458077 33.6348614,62.0466261 32.3119162,58.8006351 C31.6504435,57.1769005 30.8890415,55.2412789 30.0635058,53.0987179 C29.1156684,50.592535 28.0798336,47.8550235 27,45 C30.1664181,45.7080281 33.4722898,46.4470971 36.7647382,47.1839488 C39.9058011,47.9060192 43.0326949,48.6243943 46,49.306555 C45.1327027,50.5082811 44.2855405,51.6819227 43.4674621,52.8156545 C42.7948034,53.7372735 42.1460083,54.6256344 41.5277887,55.4726075 C40.2861292,57.1562066 39.1675171,58.6735152 38.2248999,59.9513655 C37.2792998,61.2218251 36.5082032,62.2439575 35.9660491,62.9431167 C35.4231494,63.642276 35.109938,64.0192012 35.0808541,63.9992463 Z" id="Stroke-24" stroke="#2088A0" stroke-width="0.276"></path>
                </g>
            </g>
        </g>
    </g>
</svg>