<?xml version="1.0" encoding="UTF-8"?>
<svg width="1920px" height="1080px" viewBox="0 0 1920 1080" version="1.1" xmlns="http://www.w3.org/2000/svg" xmlns:xlink="http://www.w3.org/1999/xlink">
    <!-- Generator: Sketch 47.1 (45422) - http://www.bohemiancoding.com/sketch -->
    <title>Desktop HD-MyCourse-bg</title>
    <desc>Created with Sketch.</desc>
    <defs></defs>
    <g id="-" stroke="none" stroke-width="1" fill="none" fill-rule="evenodd">
        <g id="Desktop-HD-MyCourse-bg">
            <g id="bg4" transform="translate(176.000000, 489.000000)">
                <g id="stars-left" transform="translate(0.000000, 2.000000)">
                    <path d="M358.4277,46.5911 C358.7587,46.2951 358.5807,45.7471 358.1387,45.7011 L351.4537,45.0121 C351.2717,44.9931 351.1137,44.8781 351.0377,44.7111 L348.3177,38.5661 C348.1377,38.1591 347.5617,38.1591 347.3817,38.5661 L344.6597,44.7111 C344.5857,44.8781 344.4277,44.9931 344.2447,45.0121 L337.5597,45.7011 C337.1177,45.7471 336.9407,46.2951 337.2707,46.5911 L342.2747,51.0781 C342.4107,51.2011 342.4717,51.3871 342.4327,51.5661 L341.0227,58.1371 C340.9297,58.5711 341.3957,58.9101 341.7797,58.6871 L347.5927,55.3151 C347.7517,55.2231 347.9477,55.2231 348.1067,55.3151 L353.9197,58.6871 C354.3037,58.9101 354.7697,58.5711 354.6767,58.1371 L353.2657,51.5661 C353.2277,51.3871 353.2877,51.2011 353.4247,51.0781 L358.4277,46.5911 Z" id="Fill-1" fill="#FFEC65"></path>
                    <path d="M51.9745,157.4773 L51.2395,157.3153 C48.7395,156.7653 46.7865,154.8123 46.2365,152.3113 L46.0745,151.5773 C46.0115,151.2923 45.6055,151.2923 45.5425,151.5773 L45.3805,152.3113 C44.8305,154.8123 42.8775,156.7653 40.3775,157.3153 L39.6425,157.4773 C39.3575,157.5393 39.3575,157.9463 39.6425,158.0083 L40.3775,158.1703 C42.8775,158.7203 44.8305,160.6733 45.3805,163.1743 L45.5425,163.9093 C45.6055,164.1933 46.0115,164.1933 46.0745,163.9093 L46.2365,163.1743 C46.7865,160.6733 48.7395,158.7203 51.2395,158.1703 L51.9745,158.0083 C52.2595,157.9463 52.2595,157.5393 51.9745,157.4773" id="Fill-3" fill="#FFEC65"></path>
                    <path d="M384.5419,196.3767 L383.8069,196.2147 C381.3069,195.6647 379.3539,193.7117 378.8029,191.2107 L378.6419,190.4767 C378.5789,190.1917 378.1729,190.1917 378.1099,190.4767 L377.9479,191.2107 C377.3979,193.7117 375.4449,195.6647 372.9449,196.2147 L372.2099,196.3767 C371.9249,196.4387 371.9249,196.8457 372.2099,196.9077 L372.9449,197.0697 C375.4449,197.6197 377.3979,199.5727 377.9479,202.0737 L378.1099,202.8087 C378.1729,203.0927 378.5789,203.0927 378.6419,202.8087 L378.8029,202.0737 C379.3539,199.5727 381.3069,197.6197 383.8069,197.0697 L384.5419,196.9077 C384.8259,196.8457 384.8259,196.4387 384.5419,196.3767" id="Fill-5" fill="#FFFFFF"></path>
                    <path d="M226.8613,64.5081 L226.1273,64.3461 C223.6263,63.7961 221.6733,61.8431 221.1233,59.3421 L220.9613,58.6081 C220.8983,58.3231 220.4923,58.3231 220.4293,58.6081 L220.2683,59.3421 C219.7173,61.8431 217.7643,63.7961 215.2643,64.3461 L214.5293,64.5081 C214.2453,64.5701 214.2453,64.9761 214.5293,65.0391 L215.2643,65.2011 C217.7643,65.7511 219.7173,67.7041 220.2683,70.2041 L220.4293,70.9401 C220.4923,71.2241 220.8983,71.2241 220.9613,70.9401 L221.1233,70.2041 C221.6733,67.7041 223.6263,65.7511 226.1273,65.2011 L226.8613,65.0391 C227.1463,64.9761 227.1463,64.5701 226.8613,64.5081" id="Fill-7" fill="#FFFFFF"></path>
                    <path d="M261.2988,6.114 L260.5638,5.952 C258.0628,5.402 256.1108,3.449 255.5598,0.948 L255.3978,0.214 C255.3348,-0.071 254.9298,-0.071 254.8668,0.214 L254.7048,0.948 C254.1538,3.449 252.2018,5.402 249.7008,5.952 L248.9658,6.114 C248.6818,6.177 248.6818,6.583 248.9658,6.645 L249.7008,6.807 C252.2018,7.358 254.1538,9.31 254.7048,11.811 L254.8668,12.546 C254.9298,12.83 255.3348,12.83 255.3978,12.546 L255.5598,11.811 C256.1108,9.31 258.0628,7.358 260.5638,6.807 L261.2988,6.645 C261.5828,6.583 261.5828,6.177 261.2988,6.114" id="Fill-9" fill="#FFEC65"></path>
                    <path d="M12.5458,106.2239 L11.8108,106.0619 C9.3108,105.5119 7.3578,103.5589 6.8068,101.0579 L6.6458,100.3229 C6.5818,100.0389 6.1768,100.0389 6.1138,100.3229 L5.9518,101.0579 C5.4018,103.5589 3.4488,105.5119 0.9478,106.0619 L0.2138,106.2239 C-0.0712,106.2859 -0.0712,106.6919 0.2138,106.7549 L0.9478,106.9169 C3.4488,107.4669 5.4018,109.4199 5.9518,111.9199 L6.1138,112.6559 C6.1768,112.9399 6.5818,112.9399 6.6458,112.6559 L6.8068,111.9199 C7.3578,109.4199 9.3108,107.4669 11.8108,106.9169 L12.5458,106.7549 C12.8298,106.6919 12.8298,106.2859 12.5458,106.2239" id="Fill-11" fill="#FFFFFF"></path>
                    <path d="M349.4931,246.6648 L348.7581,246.5028 C346.2581,245.9528 344.3051,243.9998 343.7551,241.4988 L343.5931,240.7648 C343.5301,240.4798 343.1241,240.4798 343.0611,240.7648 L342.9001,241.4988 C342.3491,243.9998 340.3961,245.9528 337.8961,246.5028 L337.1611,246.6648 C336.8771,246.7278 336.8771,247.1338 337.1611,247.1958 L337.8961,247.3578 C340.3961,247.9078 342.3491,249.8608 342.9001,252.3618 L343.0611,253.0968 C343.1241,253.3808 343.5301,253.3808 343.5931,253.0968 L343.7551,252.3618 C344.3051,249.8608 346.2581,247.9078 348.7581,247.3578 L349.4931,247.1958 C349.7781,247.1338 349.7781,246.7278 349.4931,246.6648" id="Fill-13" fill="#FFEC65"></path>
                    <path d="M98.6298,4.3963 L80.9568,26.8643 C79.6988,28.4643 77.3828,28.7403 75.7828,27.4823 C74.1838,26.2253 73.9068,23.9083 75.1648,22.3093 C75.3458,22.0793 75.5638,21.8653 75.7828,21.6903 L98.2508,4.0183 C98.3678,3.9253 98.5378,3.9463 98.6298,4.0633 C98.7078,4.1633 98.7048,4.3003 98.6298,4.3963" id="Fill-15" fill="#FFEC65"></path>
                    <path d="M121.0859,65.9666 L111.7889,77.7866 C111.1269,78.6286 109.9079,78.7736 109.0669,78.1126 C108.2259,77.4496 108.0799,76.2316 108.7419,75.3896 C108.8369,75.2696 108.9519,75.1566 109.0669,75.0646 L120.8879,65.7676 C120.9489,65.7186 121.0379,65.7296 121.0859,65.7916 C121.1279,65.8436 121.1259,65.9166 121.0859,65.9666" id="Fill-17" fill="#FFFFFF"></path>
                    <path d="M298.2245,94.7698 L280.5515,117.2388 C279.2935,118.8378 276.9775,119.1148 275.3775,117.8558 C273.7795,116.5988 273.5015,114.2818 274.7595,112.6828 C274.9405,112.4528 275.1595,112.2388 275.3775,112.0638 L297.8465,94.3918 C297.9635,94.2998 298.1325,94.3198 298.2245,94.4368 C298.3035,94.5368 298.2995,94.6748 298.2245,94.7698" id="Fill-19" fill="#FFFFFF"></path>
                    <path d="M365.9511,81.5647 L353.3471,97.5867 C352.4501,98.7277 350.7991,98.9247 349.6581,98.0277 C348.5171,97.1307 348.3201,95.4787 349.2181,94.3387 C349.3471,94.1747 349.5021,94.0227 349.6581,93.8977 L365.6801,81.2947 C365.7641,81.2297 365.8851,81.2437 365.9511,81.3267 C366.0071,81.3977 366.0041,81.4967 365.9511,81.5647" id="Fill-21" fill="#FAAF40"></path>
                    <path d="M80.0927,113.51 L67.4887,129.532 C66.5927,130.673 64.9407,130.87 63.7997,129.973 C62.6597,129.076 62.4617,127.424 63.3597,126.283 C63.4887,126.12 63.6437,125.968 63.7997,125.843 L79.8227,113.24 C79.9057,113.174 80.0277,113.189 80.0927,113.272 C80.1487,113.343 80.1467,113.442 80.0927,113.51" id="Fill-23" fill="#FAAF40"></path>
                    <path d="M23.6747,212.409 L11.0717,228.432 C10.1747,229.572 8.5237,229.77 7.3827,228.872 C6.2417,227.975 6.0447,226.324 6.9427,225.183 C7.0707,225.019 7.2267,224.867 7.3827,224.742 L23.4047,212.139 C23.4887,212.074 23.6097,212.088 23.6747,212.172 C23.7317,212.242 23.7287,212.341 23.6747,212.409" id="Fill-25" fill="#D55027"></path>
                </g>
                <g id="stars-right" transform="translate(1281.000000, 0.000000)">
                    <path d="M358.4277,46.5911 C358.7587,46.2951 358.5807,45.7471 358.1387,45.7011 L351.4537,45.0121 C351.2717,44.9931 351.1137,44.8781 351.0377,44.7111 L348.3177,38.5661 C348.1377,38.1591 347.5617,38.1591 347.3817,38.5661 L344.6597,44.7111 C344.5857,44.8781 344.4277,44.9931 344.2447,45.0121 L337.5597,45.7011 C337.1177,45.7471 336.9407,46.2951 337.2707,46.5911 L342.2747,51.0781 C342.4107,51.2011 342.4717,51.3871 342.4327,51.5661 L341.0227,58.1371 C340.9297,58.5711 341.3957,58.9101 341.7797,58.6871 L347.5927,55.3151 C347.7517,55.2231 347.9477,55.2231 348.1067,55.3151 L353.9197,58.6871 C354.3037,58.9101 354.7697,58.5711 354.6767,58.1371 L353.2657,51.5661 C353.2277,51.3871 353.2877,51.2011 353.4247,51.0781 L358.4277,46.5911 Z" id="Fill-1" fill="#FFEC65"></path>
                    <path d="M51.9745,157.4773 L51.2395,157.3153 C48.7395,156.7653 46.7865,154.8123 46.2365,152.3113 L46.0745,151.5773 C46.0115,151.2923 45.6055,151.2923 45.5425,151.5773 L45.3805,152.3113 C44.8305,154.8123 42.8775,156.7653 40.3775,157.3153 L39.6425,157.4773 C39.3575,157.5393 39.3575,157.9463 39.6425,158.0083 L40.3775,158.1703 C42.8775,158.7203 44.8305,160.6733 45.3805,163.1743 L45.5425,163.9093 C45.6055,164.1933 46.0115,164.1933 46.0745,163.9093 L46.2365,163.1743 C46.7865,160.6733 48.7395,158.7203 51.2395,158.1703 L51.9745,158.0083 C52.2595,157.9463 52.2595,157.5393 51.9745,157.4773" id="Fill-3" fill="#FFEC65"></path>
                    <path d="M384.5419,196.3767 L383.8069,196.2147 C381.3069,195.6647 379.3539,193.7117 378.8029,191.2107 L378.6419,190.4767 C378.5789,190.1917 378.1729,190.1917 378.1099,190.4767 L377.9479,191.2107 C377.3979,193.7117 375.4449,195.6647 372.9449,196.2147 L372.2099,196.3767 C371.9249,196.4387 371.9249,196.8457 372.2099,196.9077 L372.9449,197.0697 C375.4449,197.6197 377.3979,199.5727 377.9479,202.0737 L378.1099,202.8087 C378.1729,203.0927 378.5789,203.0927 378.6419,202.8087 L378.8029,202.0737 C379.3539,199.5727 381.3069,197.6197 383.8069,197.0697 L384.5419,196.9077 C384.8259,196.8457 384.8259,196.4387 384.5419,196.3767" id="Fill-5" fill="#FFFFFF"></path>
                    <path d="M226.8613,64.5081 L226.1273,64.3461 C223.6263,63.7961 221.6733,61.8431 221.1233,59.3421 L220.9613,58.6081 C220.8983,58.3231 220.4923,58.3231 220.4293,58.6081 L220.2683,59.3421 C219.7173,61.8431 217.7643,63.7961 215.2643,64.3461 L214.5293,64.5081 C214.2453,64.5701 214.2453,64.9761 214.5293,65.0391 L215.2643,65.2011 C217.7643,65.7511 219.7173,67.7041 220.2683,70.2041 L220.4293,70.9401 C220.4923,71.2241 220.8983,71.2241 220.9613,70.9401 L221.1233,70.2041 C221.6733,67.7041 223.6263,65.7511 226.1273,65.2011 L226.8613,65.0391 C227.1463,64.9761 227.1463,64.5701 226.8613,64.5081" id="Fill-7" fill="#FFFFFF"></path>
                    <path d="M261.2988,6.114 L260.5638,5.952 C258.0628,5.402 256.1108,3.449 255.5598,0.948 L255.3978,0.214 C255.3348,-0.071 254.9298,-0.071 254.8668,0.214 L254.7048,0.948 C254.1538,3.449 252.2018,5.402 249.7008,5.952 L248.9658,6.114 C248.6818,6.177 248.6818,6.583 248.9658,6.645 L249.7008,6.807 C252.2018,7.358 254.1538,9.31 254.7048,11.811 L254.8668,12.546 C254.9298,12.83 255.3348,12.83 255.3978,12.546 L255.5598,11.811 C256.1108,9.31 258.0628,7.358 260.5638,6.807 L261.2988,6.645 C261.5828,6.583 261.5828,6.177 261.2988,6.114" id="Fill-9" fill="#FFEC65"></path>
                    <path d="M12.5458,106.2239 L11.8108,106.0619 C9.3108,105.5119 7.3578,103.5589 6.8068,101.0579 L6.6458,100.3229 C6.5818,100.0389 6.1768,100.0389 6.1138,100.3229 L5.9518,101.0579 C5.4018,103.5589 3.4488,105.5119 0.9478,106.0619 L0.2138,106.2239 C-0.0712,106.2859 -0.0712,106.6919 0.2138,106.7549 L0.9478,106.9169 C3.4488,107.4669 5.4018,109.4199 5.9518,111.9199 L6.1138,112.6559 C6.1768,112.9399 6.5818,112.9399 6.6458,112.6559 L6.8068,111.9199 C7.3578,109.4199 9.3108,107.4669 11.8108,106.9169 L12.5458,106.7549 C12.8298,106.6919 12.8298,106.2859 12.5458,106.2239" id="Fill-11" fill="#FFFFFF"></path>
                    <path d="M349.4931,246.6648 L348.7581,246.5028 C346.2581,245.9528 344.3051,243.9998 343.7551,241.4988 L343.5931,240.7648 C343.5301,240.4798 343.1241,240.4798 343.0611,240.7648 L342.9001,241.4988 C342.3491,243.9998 340.3961,245.9528 337.8961,246.5028 L337.1611,246.6648 C336.8771,246.7278 336.8771,247.1338 337.1611,247.1958 L337.8961,247.3578 C340.3961,247.9078 342.3491,249.8608 342.9001,252.3618 L343.0611,253.0968 C343.1241,253.3808 343.5301,253.3808 343.5931,253.0968 L343.7551,252.3618 C344.3051,249.8608 346.2581,247.9078 348.7581,247.3578 L349.4931,247.1958 C349.7781,247.1338 349.7781,246.7278 349.4931,246.6648" id="Fill-13" fill="#FFEC65"></path>
                    <path d="M98.6298,4.3963 L80.9568,26.8643 C79.6988,28.4643 77.3828,28.7403 75.7828,27.4823 C74.1838,26.2253 73.9068,23.9083 75.1648,22.3093 C75.3458,22.0793 75.5638,21.8653 75.7828,21.6903 L98.2508,4.0183 C98.3678,3.9253 98.5378,3.9463 98.6298,4.0633 C98.7078,4.1633 98.7048,4.3003 98.6298,4.3963" id="Fill-15" fill="#FFEC65"></path>
                    <path d="M121.0859,65.9666 L111.7889,77.7866 C111.1269,78.6286 109.9079,78.7736 109.0669,78.1126 C108.2259,77.4496 108.0799,76.2316 108.7419,75.3896 C108.8369,75.2696 108.9519,75.1566 109.0669,75.0646 L120.8879,65.7676 C120.9489,65.7186 121.0379,65.7296 121.0859,65.7916 C121.1279,65.8436 121.1259,65.9166 121.0859,65.9666" id="Fill-17" fill="#FFFFFF"></path>
                    <path d="M298.2245,94.7698 L280.5515,117.2388 C279.2935,118.8378 276.9775,119.1148 275.3775,117.8558 C273.7795,116.5988 273.5015,114.2818 274.7595,112.6828 C274.9405,112.4528 275.1595,112.2388 275.3775,112.0638 L297.8465,94.3918 C297.9635,94.2998 298.1325,94.3198 298.2245,94.4368 C298.3035,94.5368 298.2995,94.6748 298.2245,94.7698" id="Fill-19" fill="#FFFFFF"></path>
                    <path d="M365.9511,81.5647 L353.3471,97.5867 C352.4501,98.7277 350.7991,98.9247 349.6581,98.0277 C348.5171,97.1307 348.3201,95.4787 349.2181,94.3387 C349.3471,94.1747 349.5021,94.0227 349.6581,93.8977 L365.6801,81.2947 C365.7641,81.2297 365.8851,81.2437 365.9511,81.3267 C366.0071,81.3977 366.0041,81.4967 365.9511,81.5647" id="Fill-21" fill="#FAAF40"></path>
                    <path d="M80.0927,113.51 L67.4887,129.532 C66.5927,130.673 64.9407,130.87 63.7997,129.973 C62.6597,129.076 62.4617,127.424 63.3597,126.283 C63.4887,126.12 63.6437,125.968 63.7997,125.843 L79.8227,113.24 C79.9057,113.174 80.0277,113.189 80.0927,113.272 C80.1487,113.343 80.1467,113.442 80.0927,113.51" id="Fill-23" fill="#FAAF40"></path>
                    <path d="M23.6747,212.409 L11.0717,228.432 C10.1747,229.572 8.5237,229.77 7.3827,228.872 C6.2417,227.975 6.0447,226.324 6.9427,225.183 C7.0707,225.019 7.2267,224.867 7.3827,224.742 L23.4047,212.139 C23.4887,212.074 23.6097,212.088 23.6747,212.172 C23.7317,212.242 23.7287,212.341 23.6747,212.409" id="Fill-25" fill="#D55027"></path>
                </g>
            </g>
        </g>
    </g>
</svg>