<?xml version="1.0" encoding="UTF-8"?>
<svg id="_圖層_2" data-name="圖層 2" xmlns="http://www.w3.org/2000/svg" xmlns:xlink="http://www.w3.org/1999/xlink" viewBox="0 0 135.07 105.45">
  <defs>
    <style>
      .cls-1 {
        fill: url(#_新增漸層色票_9);
      }

      .cls-2 {
        fill: url(#_未命名漸層_53);
      }
    </style>
    <linearGradient id="_未命名漸層_53" data-name="未命名漸層 53" x1="-11.6" y1="74.5" x2="87.76" y2="46.19" gradientUnits="userSpaceOnUse">
      <stop offset="0" stop-color="#0288d1"/>
      <stop offset=".21" stop-color="#0177ba"/>
      <stop offset=".51" stop-color="#0064a0"/>
      <stop offset=".78" stop-color="#005991"/>
      <stop offset="1" stop-color="#00558c"/>
    </linearGradient>
    <linearGradient id="_新增漸層色票_9" data-name="新增漸層色票 9" x1="39.74" y1="39.32" x2="96.12" y2="39.32" gradientUnits="userSpaceOnUse">
      <stop offset="0" stop-color="#00ffd6"/>
      <stop offset=".03" stop-color="#0bfdd6"/>
      <stop offset=".24" stop-color="#54f5db"/>
      <stop offset=".44" stop-color="#91efdf"/>
      <stop offset=".62" stop-color="#c0e9e2"/>
      <stop offset=".78" stop-color="#e2e6e5"/>
      <stop offset=".91" stop-color="#f7e3e6"/>
      <stop offset="1" stop-color="#ffe3e7"/>
    </linearGradient>
  </defs>
  <g id="object">
    <g>
      <path class="cls-2" d="M22.51,0H112.56c12.44,0,22.51,10.07,22.51,22.51V56.08c0,12.04-9.28,21.72-21.13,22.51v22.12c0,1.78-1.18,3.55-2.96,4.54-.59,.2-1.18,.2-1.97,.2-1.18,0-2.37-.39-3.36-1.38l-25.87-25.47H22.51C10.07,78.59,0,68.52,0,56.08V22.51C0,10.07,10.07,0,22.51,0h0Z"/>
      <path class="cls-1" d="M94.19,29.62h0l-28.24,28.44c-1.18,1.18-2.96,1.78-4.54,1.78s-3.16-.59-4.35-1.78l-15.4-15.4c-2.57-2.57-2.57-6.52,0-9.08,2.37-2.37,6.32-2.37,8.89,0l10.86,11.05,23.89-23.89c2.57-2.56,6.52-2.56,8.89,0,2.57,2.37,2.57,6.52,0,8.88h0Z"/>
    </g>
  </g>
</svg>