<?xml version="1.0" encoding="UTF-8"?>
<svg id="_圖層_2" data-name="圖層 2" xmlns="http://www.w3.org/2000/svg" xmlns:xlink="http://www.w3.org/1999/xlink" viewBox="0 0 173.38 82.96">
  <defs>
    <style>
      .cls-1 {
        fill: #ff0062;
      }

      .cls-2 {
        fill: #b8bdc9;
      }

      .cls-3 {
        fill: url(#_未命名漸層_25);
      }
    </style>
    <linearGradient id="_未命名漸層_25" data-name="未命名漸層 25" x1="-4.23" y1="40.06" x2="169.13" y2="40.06" gradientUnits="userSpaceOnUse">
      <stop offset="0" stop-color="#fff"/>
      <stop offset=".18" stop-color="#f6fffe"/>
      <stop offset=".47" stop-color="#defffd"/>
      <stop offset=".83" stop-color="#b7fffb"/>
      <stop offset="1" stop-color="#a4fffa"/>
    </linearGradient>
  </defs>
  <g id="OBJECTS">
    <g>
      <path class="cls-2" d="M18.6,80.59c-.68,0-1.32-.1-1.94-.29-.62-.19-1.11-.44-1.47-.75l.56-1.25c.35,.27,.77,.5,1.29,.68,.51,.18,1.03,.27,1.57,.27,.45,0,.82-.05,1.1-.15,.28-.1,.49-.23,.62-.4,.13-.17,.2-.36,.2-.57,0-.26-.1-.48-.29-.64s-.44-.29-.74-.38c-.3-.1-.64-.18-1-.27-.37-.08-.73-.18-1.1-.29-.37-.11-.7-.26-1-.43-.3-.18-.55-.42-.74-.71s-.28-.68-.28-1.14,.13-.9,.38-1.29c.25-.39,.64-.71,1.15-.94,.52-.24,1.17-.35,1.96-.35,.52,0,1.04,.07,1.55,.2s.96,.32,1.34,.57l-.51,1.25c-.39-.23-.79-.4-1.2-.51-.41-.11-.81-.17-1.19-.17-.45,0-.81,.05-1.08,.16-.28,.11-.48,.25-.61,.42-.13,.17-.19,.37-.19,.59,0,.26,.09,.48,.28,.64s.43,.29,.73,.38c.3,.09,.64,.18,1.01,.27,.37,.09,.74,.18,1.11,.29,.37,.11,.7,.25,1,.42,.3,.17,.54,.41,.73,.71s.28,.67,.28,1.13-.13,.89-.38,1.28c-.25,.39-.64,.71-1.16,.94-.52,.24-1.18,.35-1.97,.35Z"/>
      <path class="cls-2" d="M32.82,73.79c.53,0,1,.1,1.4,.31,.41,.21,.73,.52,.96,.95,.23,.42,.35,.97,.35,1.64v3.79h-1.55v-3.59c0-.59-.13-1.02-.38-1.31-.26-.29-.62-.43-1.1-.43-.34,0-.64,.07-.9,.22-.26,.15-.46,.37-.61,.66-.14,.29-.22,.66-.22,1.1v3.35h-1.55v-3.59c0-.59-.13-1.02-.38-1.31-.26-.29-.62-.43-1.1-.43-.34,0-.64,.07-.9,.22-.26,.15-.46,.37-.61,.66-.14,.29-.22,.66-.22,1.1v3.35h-1.55v-6.61h1.47v1.76l-.26-.52c.22-.43,.55-.76,.97-.98,.42-.22,.91-.33,1.45-.33,.62,0,1.16,.15,1.62,.46,.46,.31,.76,.77,.91,1.39l-.61-.21c.21-.49,.57-.89,1.06-1.19,.49-.3,1.07-.45,1.72-.45Z"/>
      <path class="cls-2" d="M40.43,80.56c-.49,0-.93-.08-1.3-.25-.37-.17-.66-.4-.86-.7-.2-.3-.3-.64-.3-1.02s.09-.71,.27-1c.18-.3,.47-.53,.87-.71,.4-.17,.94-.26,1.61-.26h1.92v1.03h-1.81c-.53,0-.88,.08-1.06,.25-.18,.17-.27,.38-.27,.63,0,.28,.11,.5,.33,.67,.22,.16,.53,.25,.93,.25s.72-.09,1.02-.26c.3-.17,.52-.43,.65-.77l.26,.93c-.15,.39-.42,.69-.8,.9-.38,.21-.87,.32-1.45,.32Zm2.08-.09v-1.34l-.09-.29v-2.34c0-.45-.14-.81-.41-1.06-.27-.25-.69-.38-1.24-.38-.37,0-.74,.06-1.09,.17-.36,.12-.66,.28-.91,.48l-.61-1.13c.35-.27,.78-.48,1.27-.61s1-.2,1.53-.2c.96,0,1.7,.23,2.22,.69s.79,1.17,.79,2.12v3.87h-1.46Z"/>
      <path class="cls-2" d="M46.88,80.47v-6.61h1.47v1.82l-.17-.53c.2-.45,.51-.78,.94-1.01,.42-.23,.95-.35,1.59-.35v1.47c-.07-.02-.13-.03-.18-.03s-.12,0-.17,0c-.59,0-1.05,.17-1.4,.51-.35,.34-.52,.85-.52,1.53v3.21h-1.55Z"/>
      <path class="cls-2" d="M52.31,75.15v-1.24h4.4v1.24h-4.4Zm3.37,5.41c-.73,0-1.29-.19-1.68-.56-.4-.38-.59-.93-.59-1.66v-5.93h1.55v5.89c0,.31,.08,.56,.24,.73s.39,.26,.67,.26c.35,0,.63-.09,.87-.27l.43,1.1c-.18,.15-.4,.26-.67,.33-.26,.07-.54,.11-.82,.11Z"/>
      <path class="cls-2" d="M67.87,80.59c-.66,0-1.27-.11-1.84-.33-.57-.22-1.06-.53-1.47-.93-.42-.4-.74-.87-.97-1.42-.23-.54-.35-1.14-.35-1.78s.12-1.24,.35-1.78c.23-.54,.56-1.02,.98-1.42s.91-.71,1.47-.93c.56-.22,1.18-.33,1.84-.33,.71,0,1.36,.12,1.94,.37,.59,.24,1.08,.6,1.48,1.08l-1.04,.98c-.31-.34-.66-.59-1.05-.76-.39-.17-.81-.25-1.26-.25s-.87,.07-1.24,.22-.7,.36-.98,.63c-.28,.27-.49,.59-.64,.97s-.23,.78-.23,1.23,.08,.85,.23,1.22,.37,.69,.64,.97c.28,.27,.6,.48,.98,.63s.79,.22,1.24,.22,.87-.08,1.26-.25c.39-.17,.74-.43,1.05-.77l1.04,.99c-.4,.47-.9,.83-1.48,1.08-.59,.25-1.24,.37-1.96,.37Z"/>
      <path class="cls-2" d="M74.41,72.77c-.29,0-.53-.09-.71-.27-.19-.18-.28-.4-.28-.66s.09-.48,.28-.66c.18-.18,.42-.27,.71-.27s.53,.08,.71,.25c.19,.17,.28,.38,.28,.64,0,.27-.09,.5-.27,.69-.18,.18-.42,.28-.72,.28Zm-.78,7.7v-6.61h1.55v6.61h-1.55Z"/>
      <path class="cls-2" d="M77.26,75.15v-1.24h4.4v1.24h-4.4Zm3.37,5.41c-.73,0-1.29-.19-1.68-.56-.4-.38-.59-.93-.59-1.66v-5.93h1.55v5.89c0,.31,.08,.56,.24,.73s.39,.26,.67,.26c.35,0,.63-.09,.87-.27l.43,1.1c-.18,.15-.4,.26-.67,.33-.26,.07-.54,.11-.82,.11Z"/>
      <path class="cls-2" d="M84.73,82.96c-.32,0-.64-.05-.97-.16-.32-.11-.59-.26-.8-.45l.62-1.14c.16,.14,.33,.25,.53,.33,.2,.08,.4,.12,.61,.12,.28,0,.51-.07,.68-.21,.17-.14,.33-.38,.48-.71l.38-.87,.12-.18,2.5-5.84h1.48l-3.09,7.14c-.21,.49-.44,.89-.69,1.18-.25,.29-.53,.49-.84,.61-.31,.12-.65,.17-1.02,.17Zm1.36-2.25l-2.98-6.84h1.61l2.43,5.7-1.05,1.14Z"/>
      <path class="cls-2" d="M99.44,80.59c-.68,0-1.32-.1-1.94-.29-.62-.19-1.11-.44-1.47-.75l.56-1.25c.35,.27,.77,.5,1.29,.68,.51,.18,1.03,.27,1.57,.27,.45,0,.82-.05,1.1-.15,.28-.1,.49-.23,.62-.4,.13-.17,.2-.36,.2-.57,0-.26-.1-.48-.29-.64s-.44-.29-.74-.38c-.3-.1-.64-.18-1-.27-.37-.08-.73-.18-1.1-.29-.37-.11-.7-.26-1-.43-.3-.18-.55-.42-.74-.71s-.28-.68-.28-1.14,.13-.9,.38-1.29c.25-.39,.64-.71,1.15-.94,.52-.24,1.17-.35,1.96-.35,.52,0,1.04,.07,1.55,.2s.96,.32,1.34,.57l-.51,1.25c-.39-.23-.79-.4-1.2-.51-.41-.11-.81-.17-1.19-.17-.45,0-.81,.05-1.08,.16-.28,.11-.48,.25-.61,.42-.13,.17-.19,.37-.19,.59,0,.26,.09,.48,.28,.64s.43,.29,.73,.38c.3,.09,.64,.18,1.01,.27,.37,.09,.74,.18,1.11,.29,.37,.11,.7,.25,1,.42,.3,.17,.54,.41,.73,.71s.28,.67,.28,1.13-.13,.89-.38,1.28c-.25,.39-.64,.71-1.16,.94-.52,.24-1.18,.35-1.97,.35Z"/>
      <path class="cls-2" d="M108.29,80.56c-.68,0-1.28-.15-1.81-.44-.53-.29-.95-.7-1.25-1.21s-.46-1.09-.46-1.74,.15-1.24,.46-1.75,.72-.91,1.25-1.19c.53-.29,1.13-.43,1.81-.43s1.29,.14,1.83,.43c.53,.29,.95,.69,1.25,1.19s.45,1.09,.45,1.76-.15,1.23-.45,1.74-.72,.91-1.25,1.21c-.53,.29-1.14,.44-1.83,.44Zm0-1.32c.38,0,.72-.08,1.01-.25,.3-.17,.53-.4,.7-.72,.17-.31,.25-.68,.25-1.1s-.08-.8-.25-1.11c-.17-.31-.4-.55-.7-.71-.3-.16-.63-.25-1-.25s-.72,.08-1.01,.25c-.29,.17-.53,.4-.7,.71-.17,.31-.26,.68-.26,1.11s.09,.79,.26,1.1c.17,.31,.41,.55,.7,.72s.63,.25,1,.25Z"/>
      <path class="cls-2" d="M114.23,80.47v-9.18h1.55v9.18h-1.55Z"/>
      <path class="cls-2" d="M121.53,80.56c-.56,0-1.06-.11-1.48-.32-.43-.21-.76-.53-1-.97-.24-.43-.36-.98-.36-1.64v-3.77h1.55v3.56c0,.59,.13,1.04,.4,1.33,.27,.29,.65,.44,1.14,.44,.36,0,.68-.07,.95-.22s.48-.37,.63-.67c.15-.3,.23-.66,.23-1.1v-3.34h1.55v6.61h-1.47v-1.78l.26,.54c-.22,.43-.55,.76-.98,.98-.43,.23-.9,.34-1.41,.34Z"/>
      <path class="cls-2" d="M127.21,75.15v-1.24h4.4v1.24h-4.4Zm3.37,5.41c-.73,0-1.29-.19-1.68-.56-.4-.38-.59-.93-.59-1.66v-5.93h1.55v5.89c0,.31,.08,.56,.24,.73s.39,.26,.67,.26c.35,0,.63-.09,.87-.27l.43,1.1c-.18,.15-.4,.26-.67,.33-.26,.07-.54,.11-.82,.11Z"/>
      <path class="cls-2" d="M135.05,72.77c-.29,0-.53-.09-.71-.27-.19-.18-.28-.4-.28-.66s.09-.48,.28-.66c.18-.18,.42-.27,.71-.27s.53,.08,.71,.25c.19,.17,.28,.38,.28,.64,0,.27-.09,.5-.27,.69-.18,.18-.42,.28-.72,.28Zm-.78,7.7v-6.61h1.55v6.61h-1.55Z"/>
      <path class="cls-2" d="M141.74,80.56c-.68,0-1.28-.15-1.81-.44-.53-.29-.95-.7-1.25-1.21s-.46-1.09-.46-1.74,.15-1.24,.46-1.75,.72-.91,1.25-1.19c.53-.29,1.13-.43,1.81-.43s1.29,.14,1.83,.43c.53,.29,.95,.69,1.25,1.19s.45,1.09,.45,1.76-.15,1.23-.45,1.74c-.3,.51-.72,.91-1.25,1.21-.53,.29-1.14,.44-1.83,.44Zm0-1.32c.38,0,.72-.08,1.01-.25,.3-.17,.53-.4,.7-.72,.17-.31,.25-.68,.25-1.1s-.08-.8-.25-1.11c-.17-.31-.4-.55-.7-.71-.3-.16-.63-.25-1-.25s-.72,.08-1.01,.25c-.29,.17-.53,.4-.7,.71-.17,.31-.26,.68-.26,1.11s.09,.79,.26,1.1c.17,.31,.41,.55,.7,.72s.63,.25,1,.25Z"/>
      <path class="cls-2" d="M151.43,73.79c.53,0,1,.1,1.42,.31,.42,.21,.74,.52,.98,.95,.24,.42,.36,.97,.36,1.64v3.79h-1.55v-3.59c0-.59-.14-1.02-.41-1.31-.28-.29-.66-.43-1.16-.43-.36,0-.68,.07-.97,.22-.28,.15-.5,.37-.65,.66-.15,.29-.23,.66-.23,1.11v3.34h-1.55v-6.61h1.47v1.78l-.26-.54c.23-.42,.57-.75,1.01-.97,.44-.23,.95-.34,1.53-.34Z"/>
    </g>
    <g>
      <g>
        <path class="cls-3" d="M37.84,40.06c0,5.22-1.86,9.7-5.58,13.42-3.69,3.69-8.14,5.53-13.36,5.53H5.53c-1.5,0-2.8-.55-3.89-1.64s-1.64-2.41-1.64-3.94c0-.75,.15-1.47,.44-2.15,.29-.68,.68-1.28,1.18-1.79,.49-.51,1.07-.91,1.74-1.2,.66-.29,1.39-.44,2.18-.44h13.36c2.12,0,3.96-.75,5.53-2.25,1.54-1.47,2.31-3.31,2.31-5.53s-.77-3.94-2.31-5.48-3.38-2.31-5.53-2.31H5.53c-1.5,0-2.8-.55-3.89-1.64-1.09-1.09-1.64-2.41-1.64-3.94,0-.75,.15-1.47,.44-2.15,.29-.68,.68-1.28,1.18-1.79,.49-.51,1.07-.91,1.74-1.2,.66-.29,1.39-.44,2.18-.44h13.36c5.22,0,9.68,1.86,13.36,5.58,3.72,3.69,5.58,8.14,5.58,13.36ZM0,40.06c0-.75,.15-1.47,.44-2.15,.29-.68,.68-1.28,1.18-1.79,.49-.51,1.07-.91,1.74-1.2,.66-.29,1.39-.44,2.18-.44h13.36c.75,0,1.47,.15,2.15,.44,.68,.29,1.28,.69,1.79,1.2s.91,1.11,1.2,1.79c.29,.68,.44,1.4,.44,2.15,0,.79-.15,1.51-.44,2.18-.29,.66-.69,1.25-1.2,1.77-.51,.51-1.11,.91-1.79,1.2-.68,.29-1.4,.44-2.15,.44H5.53c-1.5,0-2.8-.55-3.89-1.64s-1.64-2.41-1.64-3.94Z"/>
        <path class="cls-3" d="M77.22,40.06c0,5.22-1.86,9.7-5.58,13.42-3.69,3.69-8.14,5.53-13.36,5.53s-9.68-1.84-13.36-5.53c-3.69-3.69-5.53-8.16-5.53-13.42,0-.75,.15-1.47,.44-2.15,.29-.68,.68-1.28,1.18-1.79,.49-.51,1.07-.91,1.74-1.2,.66-.29,1.39-.44,2.18-.44s1.47,.15,2.15,.44c.68,.29,1.28,.69,1.79,1.2,.51,.51,.91,1.11,1.2,1.79,.29,.68,.44,1.4,.44,2.15,0,2.12,.75,3.96,2.25,5.53,1.57,1.5,3.41,2.25,5.53,2.25s3.96-.75,5.53-2.25c1.54-1.47,2.31-3.31,2.31-5.53v-13.36c0-.75,.15-1.47,.44-2.15,.29-.68,.68-1.28,1.18-1.79,.49-.51,1.08-.91,1.74-1.2,.67-.29,1.39-.44,2.18-.44s1.47,.15,2.15,.44c.68,.29,1.28,.69,1.79,1.2s.91,1.11,1.2,1.79c.29,.68,.44,1.4,.44,2.15v13.36Z"/>
        <path class="cls-3" d="M92.42,53.43c0,.79-.15,1.51-.44,2.18-.29,.67-.69,1.26-1.2,1.77-.51,.51-1.11,.91-1.79,1.2-.68,.29-1.4,.44-2.15,.44-1.5,0-2.8-.55-3.89-1.64s-1.64-2.41-1.64-3.94V26.7c0-.75,.15-1.47,.44-2.15,.29-.68,.68-1.28,1.18-1.79,.49-.51,1.07-.91,1.74-1.2,.66-.29,1.39-.44,2.18-.44s1.47,.15,2.15,.44c.68,.29,1.28,.69,1.79,1.2,.51,.51,.91,1.11,1.2,1.79,.29,.68,.44,1.4,.44,2.15v26.73Z"/>
        <path class="cls-3" d="M134.36,40.06c0,5.22-1.86,9.7-5.58,13.42-3.69,3.69-8.14,5.53-13.36,5.53s-9.68-1.84-13.36-5.53c-3.69-3.69-5.53-8.16-5.53-13.42s1.84-9.68,5.53-13.36c3.72-3.72,8.18-5.58,13.36-5.58s9.68,1.86,13.36,5.58c3.72,3.69,5.58,8.14,5.58,13.36Zm-11.11,0c0-2.11-.77-3.94-2.31-5.48s-3.38-2.31-5.53-2.31-3.99,.77-5.53,2.31c-1.5,1.5-2.25,3.33-2.25,5.48s.75,3.96,2.25,5.53c1.57,1.5,3.41,2.25,5.53,2.25s3.96-.75,5.53-2.25c1.54-1.47,2.31-3.31,2.31-5.53Z"/>
        <path class="cls-3" d="M173.38,26.7c0,.79-.15,1.51-.44,2.18s-.69,1.26-1.2,1.77-1.11,.91-1.79,1.2c-.68,.29-1.4,.44-2.15,.44h-7.78v21.15c0,.79-.15,1.51-.44,2.18-.29,.67-.69,1.26-1.2,1.77-.51,.51-1.11,.91-1.79,1.2-.68,.29-1.4,.44-2.15,.44-1.5,0-2.8-.55-3.89-1.64s-1.64-2.41-1.64-3.94v-21.15h-7.84c-1.5,0-2.8-.55-3.89-1.64-1.09-1.09-1.64-2.41-1.64-3.94,0-.75,.15-1.47,.44-2.15,.29-.68,.68-1.28,1.18-1.79,.49-.51,1.07-.91,1.74-1.2,.66-.29,1.39-.44,2.18-.44h26.73c.75,0,1.47,.15,2.15,.44,.68,.29,1.28,.69,1.79,1.2s.91,1.11,1.2,1.79c.29,.68,.44,1.4,.44,2.15Z"/>
      </g>
      <polygon class="cls-1" points="115.44 0 127.63 17.8 115.44 13.58 103.25 17.8 115.44 0"/>
    </g>
  </g>
</svg>