<?xml version="1.0" encoding="UTF-8"?>
<svg id="_圖層_2" data-name="圖層 2" xmlns="http://www.w3.org/2000/svg" viewBox="0 0 173.38 82.3">
  <defs>
    <style>
      .cls-1 {
        fill: #e6e9f4;
      }

      .cls-2 {
        fill: #ff0049;
      }

      .cls-3 {
        fill: #b0b5c1;
      }
    </style>
  </defs>
  <g id="OBJECTS">
    <g>
      <path class="cls-3" d="M22.23,80.06c-.64,0-1.25-.09-1.84-.28-.58-.18-1.05-.42-1.39-.71l.53-1.18c.33,.26,.73,.47,1.22,.64,.48,.17,.98,.26,1.48,.26,.43,0,.78-.05,1.04-.14,.27-.09,.46-.22,.58-.38,.12-.16,.19-.34,.19-.54,0-.25-.09-.45-.27-.6s-.41-.27-.7-.36c-.29-.09-.6-.17-.95-.25-.35-.08-.69-.17-1.04-.27-.35-.11-.66-.24-.95-.41-.29-.17-.52-.39-.7-.67s-.27-.64-.27-1.08,.12-.85,.36-1.22c.24-.37,.6-.67,1.09-.89,.49-.22,1.1-.33,1.85-.33,.49,0,.98,.06,1.46,.19s.9,.3,1.26,.54l-.48,1.18c-.37-.22-.74-.38-1.13-.49-.39-.1-.76-.16-1.12-.16-.42,0-.76,.05-1.02,.15-.26,.1-.45,.23-.57,.4-.12,.16-.18,.35-.18,.56,0,.25,.09,.45,.26,.6s.41,.27,.69,.36c.28,.09,.6,.17,.95,.25,.35,.08,.7,.17,1.05,.27,.35,.1,.66,.23,.95,.4,.29,.16,.51,.39,.69,.67s.26,.64,.26,1.06-.12,.84-.36,1.21c-.24,.37-.6,.67-1.09,.89-.49,.22-1.11,.33-1.86,.33Z"/>
      <path class="cls-3" d="M35.67,73.63c.5,0,.94,.1,1.33,.29,.39,.19,.69,.49,.91,.89,.22,.4,.33,.92,.33,1.55v3.58h-1.46v-3.39c0-.55-.12-.97-.36-1.24-.24-.27-.59-.41-1.04-.41-.32,0-.6,.07-.85,.21-.25,.14-.44,.35-.57,.62-.14,.27-.2,.62-.2,1.04v3.17h-1.46v-3.39c0-.55-.12-.97-.36-1.24-.24-.27-.59-.41-1.04-.41-.32,0-.6,.07-.85,.21-.25,.14-.44,.35-.57,.62-.14,.27-.21,.62-.21,1.04v3.17h-1.46v-6.25h1.39v1.66l-.25-.49c.21-.41,.52-.71,.92-.92,.4-.21,.86-.32,1.37-.32,.58,0,1.09,.14,1.53,.43,.43,.29,.72,.73,.86,1.31l-.57-.2c.2-.47,.54-.84,1.01-1.12,.47-.28,1.01-.42,1.63-.42Z"/>
      <path class="cls-3" d="M42.86,80.03c-.47,0-.88-.08-1.23-.24-.35-.16-.62-.38-.81-.67-.19-.29-.29-.61-.29-.96s.08-.67,.25-.95c.17-.28,.44-.5,.83-.67,.38-.16,.89-.25,1.52-.25h1.81v.97h-1.71c-.5,0-.83,.08-1.01,.24-.17,.16-.26,.36-.26,.59,0,.26,.11,.48,.32,.63,.21,.16,.5,.23,.88,.23s.68-.08,.96-.25c.29-.16,.49-.41,.61-.73l.25,.88c-.14,.37-.39,.65-.75,.85-.36,.2-.82,.3-1.37,.3Zm1.96-.08v-1.26l-.08-.27v-2.21c0-.43-.13-.76-.39-1-.26-.24-.65-.36-1.17-.36-.35,0-.7,.05-1.03,.16-.34,.11-.63,.26-.86,.46l-.57-1.06c.33-.26,.73-.45,1.2-.58s.95-.19,1.44-.19c.9,0,1.6,.22,2.1,.65s.74,1.1,.74,2.01v3.66h-1.38Z"/>
      <path class="cls-3" d="M48.96,79.95v-6.25h1.39v1.72l-.16-.5c.19-.42,.48-.74,.88-.96,.4-.22,.9-.33,1.5-.33v1.39c-.06-.02-.12-.03-.17-.03s-.11,0-.16,0c-.55,0-.99,.16-1.32,.49-.33,.32-.49,.81-.49,1.44v3.03h-1.46Z"/>
      <path class="cls-3" d="M54.09,74.92v-1.17h4.16v1.17h-4.16Zm3.18,5.11c-.69,0-1.22-.18-1.59-.53-.37-.35-.56-.88-.56-1.57v-5.6h1.46v5.57c0,.3,.08,.53,.23,.69s.36,.25,.64,.25c.33,0,.6-.08,.82-.26l.41,1.04c-.17,.14-.38,.25-.63,.32-.25,.07-.51,.11-.77,.11Z"/>
      <path class="cls-3" d="M68.79,80.06c-.62,0-1.2-.1-1.74-.31-.53-.21-1-.5-1.39-.88-.39-.38-.7-.82-.92-1.34-.22-.51-.33-1.08-.33-1.68s.11-1.17,.33-1.68c.22-.51,.53-.96,.92-1.34s.86-.67,1.39-.88c.53-.21,1.11-.31,1.74-.31,.67,0,1.28,.12,1.84,.35,.55,.23,1.02,.57,1.4,1.02l-.98,.92c-.3-.32-.63-.56-.99-.72-.37-.16-.76-.24-1.19-.24s-.82,.07-1.18,.21-.66,.34-.92,.6c-.26,.26-.46,.56-.61,.91s-.22,.74-.22,1.16,.07,.81,.22,1.16,.35,.66,.61,.91c.26,.26,.57,.46,.92,.6s.75,.21,1.18,.21,.83-.08,1.19-.24c.37-.16,.7-.4,.99-.73l.98,.94c-.38,.44-.85,.78-1.4,1.02-.55,.23-1.17,.35-1.85,.35Z"/>
      <path class="cls-3" d="M74.98,72.67c-.27,0-.5-.09-.67-.26-.18-.17-.26-.38-.26-.62s.09-.46,.26-.63c.17-.17,.4-.25,.67-.25s.5,.08,.67,.24c.18,.16,.26,.36,.26,.6,0,.26-.08,.47-.26,.65-.17,.17-.4,.26-.68,.26Zm-.74,7.27v-6.25h1.46v6.25h-1.46Z"/>
      <path class="cls-3" d="M77.67,74.92v-1.17h4.16v1.17h-4.16Zm3.18,5.11c-.69,0-1.22-.18-1.59-.53-.37-.35-.56-.88-.56-1.57v-5.6h1.46v5.57c0,.3,.08,.53,.23,.69s.36,.25,.64,.25c.33,0,.6-.08,.82-.26l.41,1.04c-.17,.14-.38,.25-.63,.32-.25,.07-.51,.11-.77,.11Z"/>
      <path class="cls-3" d="M84.73,82.3c-.3,0-.61-.05-.91-.15-.3-.1-.56-.24-.76-.42l.58-1.08c.15,.13,.32,.24,.5,.32,.19,.08,.38,.12,.57,.12,.26,0,.48-.07,.64-.2,.16-.13,.32-.35,.46-.67l.36-.82,.12-.17,2.36-5.52h1.4l-2.92,6.75c-.2,.47-.41,.84-.65,1.11-.24,.27-.5,.46-.79,.57-.29,.11-.61,.16-.96,.16Zm1.29-2.13l-2.82-6.47h1.52l2.29,5.39-.99,1.08Z"/>
      <path class="cls-3" d="M98.63,80.06c-.64,0-1.25-.09-1.84-.28-.58-.18-1.05-.42-1.39-.71l.53-1.18c.33,.26,.73,.47,1.22,.64,.48,.17,.98,.26,1.48,.26,.43,0,.78-.05,1.04-.14,.27-.09,.46-.22,.58-.38,.12-.16,.19-.34,.19-.54,0-.25-.09-.45-.27-.6s-.41-.27-.7-.36c-.29-.09-.6-.17-.95-.25-.35-.08-.69-.17-1.04-.27-.35-.11-.66-.24-.95-.41-.29-.17-.52-.39-.7-.67s-.27-.64-.27-1.08,.12-.85,.36-1.22c.24-.37,.6-.67,1.09-.89,.49-.22,1.1-.33,1.85-.33,.49,0,.98,.06,1.46,.19s.9,.3,1.26,.54l-.48,1.18c-.37-.22-.74-.38-1.13-.49-.39-.1-.76-.16-1.12-.16-.42,0-.76,.05-1.02,.15-.26,.1-.45,.23-.57,.4-.12,.16-.18,.35-.18,.56,0,.25,.09,.45,.26,.6s.41,.27,.69,.36c.28,.09,.6,.17,.95,.25,.35,.08,.7,.17,1.05,.27,.35,.1,.66,.23,.95,.4,.29,.16,.51,.39,.69,.67s.26,.64,.26,1.06-.12,.84-.36,1.21c-.24,.37-.6,.67-1.09,.89-.49,.22-1.11,.33-1.86,.33Z"/>
      <path class="cls-3" d="M107,80.03c-.64,0-1.21-.14-1.71-.42-.5-.28-.89-.66-1.18-1.14s-.43-1.03-.43-1.65,.14-1.18,.43-1.66,.68-.86,1.18-1.13c.5-.27,1.07-.41,1.71-.41s1.22,.14,1.73,.41c.5,.27,.9,.65,1.18,1.12s.43,1.03,.43,1.66-.14,1.17-.43,1.65-.68,.86-1.18,1.14c-.5,.28-1.08,.42-1.73,.42Zm0-1.25c.36,0,.68-.08,.96-.23,.28-.16,.5-.38,.66-.68,.16-.3,.24-.64,.24-1.04s-.08-.75-.24-1.05c-.16-.29-.38-.52-.66-.67-.28-.16-.6-.23-.95-.23s-.68,.08-.95,.23c-.28,.16-.5,.38-.66,.67-.16,.29-.25,.64-.25,1.05s.08,.74,.25,1.04c.16,.3,.38,.52,.66,.68s.59,.23,.94,.23Z"/>
      <path class="cls-3" d="M112.61,79.95v-8.68h1.46v8.68h-1.46Z"/>
      <path class="cls-3" d="M119.51,80.03c-.53,0-1-.1-1.4-.3-.41-.2-.72-.5-.95-.91-.23-.41-.34-.93-.34-1.55v-3.57h1.46v3.37c0,.56,.13,.98,.38,1.26,.25,.28,.61,.42,1.08,.42,.34,0,.64-.07,.89-.21s.45-.35,.6-.63c.14-.28,.22-.63,.22-1.04v-3.16h1.46v6.25h-1.39v-1.68l.25,.51c-.21,.41-.52,.72-.92,.93-.41,.21-.85,.32-1.33,.32Z"/>
      <path class="cls-3" d="M124.88,74.92v-1.17h4.16v1.17h-4.16Zm3.18,5.11c-.69,0-1.22-.18-1.59-.53-.37-.35-.56-.88-.56-1.57v-5.6h1.46v5.57c0,.3,.08,.53,.23,.69s.36,.25,.64,.25c.33,0,.6-.08,.82-.26l.41,1.04c-.17,.14-.38,.25-.63,.32-.25,.07-.51,.11-.77,.11Z"/>
      <path class="cls-3" d="M132.28,72.67c-.27,0-.5-.09-.67-.26-.18-.17-.26-.38-.26-.62s.09-.46,.26-.63c.17-.17,.4-.25,.67-.25s.5,.08,.67,.24c.18,.16,.26,.36,.26,.6,0,.26-.08,.47-.26,.65-.17,.17-.4,.26-.68,.26Zm-.74,7.27v-6.25h1.46v6.25h-1.46Z"/>
      <path class="cls-3" d="M138.61,80.03c-.64,0-1.21-.14-1.71-.42-.5-.28-.89-.66-1.18-1.14s-.43-1.03-.43-1.65,.14-1.18,.43-1.66,.68-.86,1.18-1.13c.5-.27,1.07-.41,1.71-.41s1.22,.14,1.73,.41c.5,.27,.9,.65,1.18,1.12s.43,1.03,.43,1.66-.14,1.17-.43,1.65-.68,.86-1.18,1.14c-.5,.28-1.08,.42-1.73,.42Zm0-1.25c.36,0,.68-.08,.96-.23,.28-.16,.5-.38,.66-.68,.16-.3,.24-.64,.24-1.04s-.08-.75-.24-1.05c-.16-.29-.38-.52-.66-.67-.28-.16-.6-.23-.95-.23s-.68,.08-.95,.23c-.28,.16-.5,.38-.66,.67-.16,.29-.25,.64-.25,1.05s.08,.74,.25,1.04c.16,.3,.38,.52,.66,.68s.59,.23,.94,.23Z"/>
      <path class="cls-3" d="M147.77,73.63c.5,0,.95,.1,1.34,.29,.39,.19,.7,.49,.93,.89,.23,.4,.34,.92,.34,1.55v3.58h-1.46v-3.39c0-.55-.13-.97-.39-1.24-.26-.27-.63-.41-1.09-.41-.34,0-.65,.07-.91,.21-.26,.14-.47,.35-.61,.63-.14,.28-.22,.62-.22,1.05v3.16h-1.46v-6.25h1.39v1.68l-.25-.51c.22-.4,.54-.7,.95-.92,.42-.21,.9-.32,1.44-.32Z"/>
    </g>
    <g>
      <g>
        <path class="cls-1" d="M37.84,40.06c0,5.22-1.86,9.7-5.58,13.42-3.69,3.69-8.14,5.53-13.36,5.53H5.53c-1.5,0-2.8-.55-3.89-1.64s-1.64-2.41-1.64-3.94c0-.75,.15-1.47,.44-2.15,.29-.68,.68-1.28,1.18-1.79,.49-.51,1.07-.91,1.74-1.2,.66-.29,1.39-.44,2.18-.44h13.36c2.12,0,3.96-.75,5.53-2.25,1.54-1.47,2.31-3.31,2.31-5.53s-.77-3.94-2.31-5.48-3.38-2.31-5.53-2.31H5.53c-1.5,0-2.8-.55-3.89-1.64-1.09-1.09-1.64-2.41-1.64-3.94,0-.75,.15-1.47,.44-2.15,.29-.68,.68-1.28,1.18-1.79,.49-.51,1.07-.91,1.74-1.2,.66-.29,1.39-.44,2.18-.44h13.36c5.22,0,9.68,1.86,13.36,5.58,3.72,3.69,5.58,8.14,5.58,13.36ZM0,40.06c0-.75,.15-1.47,.44-2.15,.29-.68,.68-1.28,1.18-1.79,.49-.51,1.07-.91,1.74-1.2,.66-.29,1.39-.44,2.18-.44h13.36c.75,0,1.47,.15,2.15,.44,.68,.29,1.28,.69,1.79,1.2s.91,1.11,1.2,1.79c.29,.68,.44,1.4,.44,2.15,0,.79-.15,1.51-.44,2.18-.29,.66-.69,1.25-1.2,1.77-.51,.51-1.11,.91-1.79,1.2-.68,.29-1.4,.44-2.15,.44H5.53c-1.5,0-2.8-.55-3.89-1.64s-1.64-2.41-1.64-3.94Z"/>
        <path class="cls-1" d="M77.22,40.06c0,5.22-1.86,9.7-5.58,13.42-3.69,3.69-8.14,5.53-13.36,5.53s-9.68-1.84-13.36-5.53c-3.69-3.69-5.53-8.16-5.53-13.42,0-.75,.15-1.47,.44-2.15,.29-.68,.68-1.28,1.18-1.79,.49-.51,1.07-.91,1.74-1.2,.66-.29,1.39-.44,2.18-.44s1.47,.15,2.15,.44c.68,.29,1.28,.69,1.79,1.2,.51,.51,.91,1.11,1.2,1.79,.29,.68,.44,1.4,.44,2.15,0,2.12,.75,3.96,2.25,5.53,1.57,1.5,3.41,2.25,5.53,2.25s3.96-.75,5.53-2.25c1.54-1.47,2.31-3.31,2.31-5.53v-13.36c0-.75,.15-1.47,.44-2.15,.29-.68,.68-1.28,1.18-1.79,.49-.51,1.08-.91,1.74-1.2,.67-.29,1.39-.44,2.18-.44s1.47,.15,2.15,.44c.68,.29,1.28,.69,1.79,1.2s.91,1.11,1.2,1.79c.29,.68,.44,1.4,.44,2.15v13.36Z"/>
        <path class="cls-1" d="M92.42,53.43c0,.79-.15,1.51-.44,2.18-.29,.67-.69,1.26-1.2,1.77-.51,.51-1.11,.91-1.79,1.2-.68,.29-1.4,.44-2.15,.44-1.5,0-2.8-.55-3.89-1.64s-1.64-2.41-1.64-3.94V26.7c0-.75,.15-1.47,.44-2.15,.29-.68,.68-1.28,1.18-1.79,.49-.51,1.07-.91,1.74-1.2,.66-.29,1.39-.44,2.18-.44s1.47,.15,2.15,.44c.68,.29,1.28,.69,1.79,1.2,.51,.51,.91,1.11,1.2,1.79,.29,.68,.44,1.4,.44,2.15v26.73Z"/>
        <path class="cls-1" d="M134.36,40.06c0,5.22-1.86,9.7-5.58,13.42-3.69,3.69-8.14,5.53-13.36,5.53s-9.68-1.84-13.36-5.53c-3.69-3.69-5.53-8.16-5.53-13.42s1.84-9.68,5.53-13.36c3.72-3.72,8.18-5.58,13.36-5.58s9.68,1.86,13.36,5.58c3.72,3.69,5.58,8.14,5.58,13.36Zm-11.11,0c0-2.11-.77-3.94-2.31-5.48s-3.38-2.31-5.53-2.31-3.99,.77-5.53,2.31c-1.5,1.5-2.25,3.33-2.25,5.48s.75,3.96,2.25,5.53c1.57,1.5,3.41,2.25,5.53,2.25s3.96-.75,5.53-2.25c1.54-1.47,2.31-3.31,2.31-5.53Z"/>
        <path class="cls-1" d="M173.38,26.7c0,.79-.15,1.51-.44,2.18s-.69,1.26-1.2,1.77-1.11,.91-1.79,1.2c-.68,.29-1.4,.44-2.15,.44h-7.78v21.15c0,.79-.15,1.51-.44,2.18-.29,.67-.69,1.26-1.2,1.77-.51,.51-1.11,.91-1.79,1.2-.68,.29-1.4,.44-2.15,.44-1.5,0-2.8-.55-3.89-1.64s-1.64-2.41-1.64-3.94v-21.15h-7.84c-1.5,0-2.8-.55-3.89-1.64-1.09-1.09-1.64-2.41-1.64-3.94,0-.75,.15-1.47,.44-2.15,.29-.68,.68-1.28,1.18-1.79,.49-.51,1.07-.91,1.74-1.2,.66-.29,1.39-.44,2.18-.44h26.73c.75,0,1.47,.15,2.15,.44,.68,.29,1.28,.69,1.79,1.2s.91,1.11,1.2,1.79c.29,.68,.44,1.4,.44,2.15Z"/>
      </g>
      <polygon class="cls-2" points="115.44 0 127.63 17.8 115.44 13.58 103.25 17.8 115.44 0"/>
    </g>
  </g>
</svg>