<?xml version="1.0" encoding="UTF-8"?><svg id="svg1" xmlns="http://www.w3.org/2000/svg" width="300" height="90" viewBox="0 0 300 90"><path d="M198.1,21.06c-12.45-.08-27.62,5.08-27.7,23.82-.08,18.56,15.41,24.41,27.7,24.04,11.42-.34,24.03-3.51,24.6-17.48l-12.62.03c-.36,8.78-7.36,10.52-11.98,10.53-4.74.02-14.39-.98-14.55-16.93-.14-15.06,8.71-17.19,14.55-17.12,5.83.06,11.61,2.78,11.68,9.64h12.54c-.13-8.41-7.38-16.41-24.22-16.53ZM0,21.91v46.1h12.21v-20.35h24.7v20.35h12.26V21.91h-12.26v18.45H12.21v-18.45H0ZM59.3,21.91v46.1h12.29V21.91h-12.29ZM76.14,21.91v7.63h17.9v38.47h12.16V29.54h17.9v-7.63h-47.96ZM228.7,21.91v46.1h12.21v-20.35h24.7v20.35h12.21V21.91h-12.21v18.45h-24.7v-18.45h-12.21ZM287.7,21.91v46.1h12.3V21.91h-12.3ZM135.45,21.98l-21.86,46.03h13.71l4.26-10.34h23.09s4.25,10.34,4.25,10.34h13.75l-21.76-46.03h-15.46ZM143.14,29.76l8.45,20.57h-16.96s8.52-20.57,8.52-20.57Z" style="fill:#b4cccb;"/></svg>