<?xml version="1.0" encoding="UTF-8"?><svg id="svg1" xmlns="http://www.w3.org/2000/svg" width="300" height="90" viewBox="0 0 300 90"><path d="M73.21,31.73h-16.16v-4.93c0-2.31-.21-3.88-.63-4.51s-1.15-.94-2.1-.94c-1.05,0-1.89.42-2.41,1.36-.52.84-.73,2.1-.73,3.88,0,2.2.32,3.88.84,5.04.63,1.16,2.31,2.52,4.93,4.09,7.77,4.62,12.7,8.4,14.69,11.33,2.1,2.94,3.04,7.77,3.04,14.38,0,4.72-.52,8.29-1.68,10.49-1.16,2.31-3.25,4.2-6.51,5.77-3.15,1.47-6.93,2.31-11.12,2.31-4.72,0-8.71-.94-12.07-2.73-3.26-1.68-5.35-3.99-6.4-6.72-1.05-2.73-1.57-6.61-1.57-11.65v-4.41h16.27v8.19c0,2.52.21,4.09.63,4.83.42.73,1.26,1.05,2.41,1.05s2.1-.42,2.62-1.36c.52-.84.84-2.21.84-3.99,0-3.99-.53-6.61-1.57-7.77-1.15-1.26-3.88-3.25-8.19-6.09-4.41-2.94-7.24-5.04-8.61-6.3-1.47-1.26-2.62-3.15-3.57-5.35-.95-2.31-1.37-5.25-1.37-8.82,0-5.14.63-8.92,1.99-11.33,1.26-2.31,3.46-4.2,6.3-5.56,2.94-1.36,6.51-1.99,10.7-1.99,4.51,0,8.4.73,11.54,2.2,3.15,1.47,5.35,3.36,6.3,5.56,1.05,2.2,1.57,5.98,1.57,11.33v2.62h0ZM110.36,11.37l9.97,67.17h-17.84l-.84-12.07h-6.3l-1.05,12.07h-18.05l8.82-67.17h25.3ZM101.13,54.6c-.94-7.66-1.78-17-2.62-28.23-1.78,12.91-2.94,22.25-3.36,28.23h5.98ZM150.45,42.74l3.99-31.38h22.77v67.17h-15.22v-45.34l-6.09,45.34h-10.91l-6.4-44.29v44.29h-15.22V11.37h22.56M184.25,11.37h17.53c4.83,0,8.4.42,11.02,1.15,2.52.73,4.51,1.78,5.77,3.25,1.26,1.36,2.1,3.15,2.62,5.14.42,1.99.63,5.04.63,9.24v5.88c0,4.3-.42,7.45-1.26,9.34-.95,1.99-2.52,3.57-4.93,4.62-2.31,1.05-5.45,1.57-9.23,1.57h-4.72v26.97h-17.42V11.37h0ZM201.67,22.91v17.11h1.26c1.68,0,2.73-.42,3.36-1.15.63-.84.95-2.41.95-4.93v-5.56c0-2.2-.31-3.78-1.05-4.41-.73-.74-2.2-1.05-4.51-1.05h0ZM266.74,50.72c0,6.72-.11,11.54-.53,14.38-.21,2.73-1.26,5.35-2.94,7.66-1.68,2.31-3.88,4.09-6.72,5.35-2.94,1.26-6.19,1.89-9.97,1.89-3.57,0-6.82-.63-9.76-1.78-2.83-1.16-5.14-2.94-6.82-5.35-1.78-2.31-2.83-4.83-3.15-7.66-.32-2.73-.53-7.55-.53-14.48v-11.44c0-6.82.21-11.54.53-14.38.32-2.83,1.26-5.35,2.94-7.66,1.68-2.31,3.99-4.09,6.82-5.35,2.83-1.26,6.19-1.89,9.97-1.89,3.57,0,6.82.63,9.66,1.78,2.83,1.15,5.14,2.94,6.93,5.25,1.68,2.41,2.73,4.93,3.04,7.66.42,2.83.53,7.66.53,14.59v11.44h0ZM249.32,28.68c0-3.15-.21-5.14-.53-5.98-.31-.95-1.05-1.36-2.1-1.36-.95,0-1.68.42-2.2,1.15-.42.63-.63,2.73-.63,6.19v31.38c0,3.88.1,6.3.42,7.14.32.94,1.05,1.36,2.2,1.36,1.26,0,1.99-.52,2.31-1.57.32-1.05.53-3.46.53-7.45v-30.86Z" style="fill:#b4cccb;"/></svg>