<?xml version="1.0" encoding="UTF-8"?><svg id="svg1" xmlns="http://www.w3.org/2000/svg" width="300" height="90" viewBox="0 0 300 90"><path d="M46.27,19.27h.02c10.48,1.59,9.91,9.45,9.91,9.45L22.84,62.98c6.38.57,19.22.99,38.44-1.75,3.34-5.19,5.29-11.36,5.29-18,0-18.38-14.91-33.29-33.3-33.29-9.44,0-17.95,3.94-24.01,10.24,19.53-2.43,31.74-1.57,36.99-.92" style="fill:#b4cccb;"/><path d="M20.2,66.04h-.02c-10.48-1.6-9.91-9.45-9.91-9.45L43.63,22.33c-6.26-.56-18.77-.98-37.46,1.61C2.29,29.38,0,36.04,0,43.24,0,61.63,14.91,76.53,33.29,76.53c10.08,0,19.12-4.5,25.23-11.59-20.29,2.63-32.94,1.75-38.31,1.09" style="fill:#b4cccb;"/><polygon points="104.58 35.76 88.79 35.76 88.79 27.43 117.95 27.43 117.95 35.29 100.4 55.11 118.95 55.11 118.95 63.51 87.5 63.51 87.5 55.18 104.58 35.76" style="fill:#b4cccb;"/><rect x="123.39" y="27.42" width="10.25" height="36.08" style="fill:#b4cccb;"/><path d="M134.49,18.54c0,3.3-2.68,5.99-5.98,5.99s-5.98-2.68-5.98-5.99,2.67-5.98,5.98-5.98,5.98,2.67,5.98,5.98" style="fill:#b4cccb;"/><path d="M200.21,55.5c-5.28,0-8.88-4.53-8.88-10.42s3.6-10.07,8.88-10.07,8.95,4.27,8.95,10.07-3.67,10.42-8.95,10.42M213.96,31.89c-3.28-3.43-7.1-5.15-11.49-5.15s-7.97,1.54-10.75,4.63V15.28h-10.08v48.22h10.08v-4.77c2.82,3.54,6.38,5.31,10.66,5.31s8.1-1.82,11.46-5.45c3.36-3.63,5.04-8.14,5.04-13.52s-1.63-9.77-4.91-13.2" style="fill:#b4cccb;"/><path d="M238.22,35.87c4.6-1.62,9.01,0,11.41,3.79l-17.92,5.75c-.25-4.22,2.11-8,6.51-9.54M240.3,55.66c-2.47-.2-4.26-1.17-6.04-3.24l25.24-8.04s-.04-6.05-3.86-10.89c-3.24-4.08-7.56-6.24-13.03-6.68-5.47-.44-9.81,1.01-14.06,4.3-4.04,3.13-6.06,7.58-6.48,12.8-.42,5.23,1.03,9.76,4.36,13.63,3.33,3.86,7.73,6.01,13.19,6.45,9.5.76,15.93-5.55,16.66-6.43l-5.86-6.17c-.43.7-4.55,4.72-10.14,4.27" style="fill:#b4cccb;"/><path d="M278.72,35.87c4.59-1.62,8.99,0,11.4,3.79l-17.93,5.75c-.24-4.22,2.12-8,6.53-9.54M280.79,55.66c-2.47-.2-4.26-1.17-6.04-3.24l25.25-8.04s-.05-6.05-3.87-10.89c-3.23-4.08-7.56-6.24-13.03-6.68-5.47-.44-9.81,1.01-14.05,4.3-4.05,3.13-6.06,7.58-6.49,12.8-.42,5.23,1.04,9.76,4.37,13.63,3.33,3.86,7.72,6.01,13.2,6.45,9.49.76,15.93-5.55,16.65-6.43l-5.86-6.17c-.43.7-4.55,4.72-10.14,4.27" style="fill:#b4cccb;"/><path d="M157,55.58c-5.27,0-8.88-4.53-8.88-10.41s3.61-10.07,8.88-10.07,8.96,4.26,8.96,10.07-3.67,10.41-8.96,10.41M166.31,58.53v1.24c-.02,4.04-.92,8.9-4.96,11.45-8.58,5.4-17.53-3.87-17.53-3.87l-6.46,6.7s6.26,7.99,18.37,7.99c5.24,0,9.8-1.49,13.35-4.61,4.26-3.74,7.02-9.99,7.02-19.82v-30.16h-10.16v5.65c-2.39-3.6-6.52-6.34-11.41-6.34-10.08,0-16.92,7.69-16.92,18.78s6.58,18.62,16.67,18.62c5.01,0,8.87-2,12.02-5.61" style="fill:#b4cccb;"/></svg>