<?xml version="1.0" encoding="UTF-8"?><svg id="svg1" xmlns="http://www.w3.org/2000/svg" width="300" height="90" viewBox="0 0 300 90"><path d="M231.33,5.01v16.32h21.76s-.17-16.32,0-16.32h10.71v40.62h-10.71v-17.85h-21.76v17.85h-10.88s.17-40.62,0-40.62h10.88ZM129.18,5.01v6.97h-16.49v33.65h-10.71V11.98h-16.49v-6.97h43.68ZM170.99,45.64h-11.9l-3.57-8.67h-20.23l-3.4,8.67h-12.07l19.04-40.62h13.09l19.03,40.62h0ZM145.5,11.98l-7.48,18.36h14.96l-7.48-18.36h0ZM272.29,5.01h10.71v40.62h-10.71V5.01ZM29.91,5.01v16.32h21.76V5.01h10.71v40.62h-10.71v-17.85h-21.76v17.85h-10.71V5.01h10.71,0ZM70.88,5.01h10.88v40.62h-10.88V5.01ZM170.65,34.42c-1.03-2.77-1.55-5.71-1.53-8.67,0-4.25.85-8.33,2.89-11.9,2.04-3.4,5.27-6.12,9.18-7.65,3.74-1.36,7.82-2.21,11.9-2.21,4.93,0,9.52,1.19,13.6,2.89,3.91,1.7,6.8,5.1,7.65,9.35l.51,2.55h-11.39c0-1.04-.18-2.07-.51-3.06-.85-2.21-2.72-3.91-5.1-4.76-1.53-.34-3.06-.68-4.76-.68-1.81,0-3.6.34-5.27,1.02-2.72.85-4.93,3.06-5.95,5.95-.9,2.74-1.36,5.61-1.36,8.5,0,2.38.34,4.76,1.02,7.14.85,2.89,3.06,5.27,5.78,6.46,1.87.51,3.74,1.02,5.78,1.02,1.7,0,3.4-.34,4.93-.85,2.21-.68,3.91-2.21,4.76-4.25.68-1.19.85-2.72.85-4.25h11.39c0,1.36-.17,2.55-.51,3.91-1.02,3.91-3.74,7.31-7.48,8.84-4.4,1.92-9.14,2.9-13.94,2.89-3.74,0-7.48-.68-10.88-1.7-5.27-1.7-9.86-5.44-11.56-10.54ZM9.52,57.02l-9.52.85v1.36h.34q3.74.51,3.74,3.23v20.06h5.78v-25.67l-.34.17ZM29.91,64.5c-3.57,0-5.78,2.38-6.8,3.91v-3.91h-.34l-7.82,1.19v1.36h.34c2.55.17,3.06.68,3.06,2.89v12.58h4.76v-9.18c0-2.38,2.38-5.61,4.76-5.61s2.55,1.87,2.55,5.1v9.69h4.76v-12.58c0-3.4-1.87-5.44-5.27-5.44h0ZM48.78,71.47c-1.87-.85-3.57-1.7-3.57-3.06s1.87-1.53,2.55-1.53c2.04,0,3.91,1.02,4.59,1.53l.85.51v-3.74h-.68c-.85-.34-2.55-.68-4.42-.68-4.59,0-7.31,2.04-7.31,5.27,0,2.89,2.89,4.25,5.44,5.61,1.87.85,3.74,1.87,3.74,3.23s-1.19,2.04-3.23,2.04c-2.21,0-4.25-1.19-5.27-1.87l-.68-.34v3.74l.51.17c.85.17,2.72.68,5.27.68,4.93,0,7.82-2.04,7.82-5.44s-2.89-4.76-5.61-6.12h0ZM70.2,64.5c-1.87,0-3.57.85-5.27,2.55v-2.55h-.34l-7.65,1.19v1.36h.34c2.38.17,2.89.68,2.89,2.89v20.06h4.76v-9.18c.85,1.19,2.38,2.21,5.1,2.21,4.93,0,7.65-3.4,7.65-9.52,0-5.78-2.72-9.01-7.48-9.01h0ZM68.67,67.22c3.4,0,3.74,3.57,3.74,6.29,0,4.59-1.19,6.8-3.57,6.8-3.23,0-3.91-2.89-3.91-5.44v-1.53c0-1.87.34-6.12,3.74-6.12h0ZM81.07,65.69v1.36h.34c2.38.17,2.89.68,2.89,2.89v12.58h4.76v-18.02h-.34l-7.65,1.19ZM86.69,62.29c1.7,0,3.06-1.19,3.06-2.55,0-1.53-1.36-2.72-2.89-2.72-1.7,0-3.06,1.19-3.06,2.72,0,1.36,1.36,2.55,2.89,2.55ZM109.46,68.59v-3.74l-.34-.17c-.85,0-1.53-.17-2.21-.17-2.89,0-4.25,2.04-4.93,3.57v-3.57h-.51l-7.65,1.19v1.36h.34c2.38.17,2.89.68,2.89,2.89v12.58h4.93v-9.01c0-1.53.34-5.1,4.93-5.1.51,0,1.19.17,1.7.34l.85.17v-.34h0,0ZM128.67,71.81c0-4.76-2.72-7.31-8.16-7.31-5.95,0-9.01,2.89-9.01,8.67,0,6.12,3.91,9.86,10.54,9.86,2.89,0,5.1-.85,5.95-1.02l.17-.17v-2.21l-.34.17c-.85.17-2.21.51-3.91.51-5.1,0-6.97-4.25-7.14-8.15h11.9v-.34h0ZM120.34,66.55c2.72,0,3.4,1.87,3.4,3.57h-6.97c.17-1.36.85-3.57,3.57-3.57ZM172.86,64.5c-3.57,0-5.61,2.21-6.8,3.91v-12.07h-.34l-7.65,1.02v1.36h.34c2.38.17,2.89.68,2.89,2.89v20.91h4.76v-9.01c0-3.23,2.55-5.78,4.59-5.78,2.72,0,2.72,2.04,2.72,3.74v11.05h4.93v-11.56c0-1.87,0-6.46-5.44-6.46h0ZM200.05,71.81c0-4.76-2.72-7.31-7.99-7.31-6.12,0-9.18,2.89-9.18,8.67,0,6.12,3.91,9.86,10.54,9.86,2.89,0,5.1-.85,5.95-1.02l.34-.17v-2.21l-.51.17c-.85.17-2.21.51-3.74.51-5.27,0-7.14-4.25-7.31-8.15h11.9v-.34h0ZM191.89,66.55c2.55,0,3.23,1.87,3.23,3.57h-6.97c.17-1.36,1.02-3.57,3.74-3.57h0ZM145.66,59.4v5.61h-3.23v2.04h3.23v10.88c0,4.76,2.89,5.1,6.63,5.1.85,0,1.87-.17,2.89-.34h.17v-2.21h-.34c-.51.17-.85.17-1.53.17-2.89,0-3.06-.85-3.06-3.23v-10.37h5.44v-2.04h-5.44v-5.61h-4.76ZM241.02,57.37h-4.93v19.21c-1.02-1.53-12.58-19.21-12.58-19.21h-11.22v1.36l1.02.17c2.89.51,3.06.68,3.06,3.4v20.23h5.27v-20.06c1.02,1.53,13.26,20.06,13.26,20.06h6.46v-25.16h-.34,0ZM262.95,71.81c0-4.76-2.55-7.31-7.99-7.31-5.95,0-9.01,2.89-9.01,8.67,0,6.12,3.91,9.86,10.54,9.86,2.89,0,5.1-.68,5.95-1.02l.17-.17v-2.21l-.34.17c-.85.17-2.38.51-3.91.51-5.1,0-7.14-4.25-7.14-8.15h11.73v-.34ZM254.79,66.55c2.55,0,3.23,1.87,3.4,3.57h-6.97c.17-1.36.85-3.57,3.57-3.57ZM289.8,59.4v5.61h-3.23v2.04h3.23v10.88c0,4.76,2.89,5.1,6.63,5.1.85,0,1.87-.17,2.89-.34h.17v-2.21h-.34c-.51.17-.85.17-1.53.17-2.89,0-3.06-.85-3.06-3.23v-10.37h5.44v-2.04h-5.44v-5.61h-4.76ZM279.94,70.62l5.1-5.61h-5.27l-4.59,5.44-4.25-5.44h-7.48v1.36h.34c2.55.17,3.23.68,4.76,2.72l3.06,3.91-5.1,5.78h5.27l2.21-2.55,4.76,6.29h5.78l-9.18-11.9h4.59Z" style="fill:#b4cccb; fill-rule:evenodd;"/><path d="M289.63,59.4h-5.1l6.29-7.14h5.1l-6.29,7.14Z" style="fill:#b4cccb; fill-rule:evenodd;"/></svg>