<?xml version="1.0" encoding="UTF-8"?><svg id="svg1" xmlns="http://www.w3.org/2000/svg" width="300" height="90" viewBox="0 0 300 90"><g id="g3344"><g id="g3532"><g id="g3534"><g id="g3540"><path id="path3542" d="M296.7,59.25c-2.42,2.54-5.15,4.05-8.59,4.75-2.32.47-4.35.57-6.71.32-3.12-.32-5.7-1.32-8.22-3.21-2.06-1.53-3.53-3.19-4.82-5.41-.99-1.72-1.57-3.33-1.89-5.29-.45-2.72-.33-5.11.38-7.77,1.63-6.05,6.18-10.33,12.31-11.61,3.5-.73,6.61-.65,10.08.24,2.47.64,4.42,1.71,6.29,3.44,1.18,1.09,2.01,2.19,2.75,3.61.88,1.68,1.23,3.31,1.13,5.2h-10.93c-.24-1.47-.94-2.63-2.12-3.53-1.53-1.17-3.5-1.26-5.14-.25-1.12.7-1.85,1.64-2.25,2.89-.94,2.99-.98,5.77-.14,8.78.36,1.27.96,2.26,1.92,3.17,1.09,1.04,2.46,1.47,3.95,1.25.93-.14,1.68-.54,2.3-1.24.66-.72,1.03-1.5,1.2-2.46.12-.68.19-1.25.22-1.94h11.53c.23,3.48-.87,6.53-3.27,9.05" style="fill:#b4cccb;"/></g></g></g><path id="path3544" d="M252.63,27.08h11.96v-8.45h-11.96v8.45Z" style="fill:#b4cccb;"/><path id="path3546" d="M252.63,63.4h11.96v-31.98h-11.96v31.98Z" style="fill:#b4cccb;"/><g id="g3548"><path id="path3550" d="M227.86,34.8c1.57-1.38,3.07-2.35,4.97-3.22,3.09-1.43,6.18-1.66,9.45-.7,3.51,1.03,6.03,3.49,7.14,6.98.53,1.67.76,3.16.76,4.91v20.64h-12.7v-18.56c0-.62-.07-1.15-.26-1.74-.32-1.07-1.03-1.85-2.06-2.28-2.25-.96-4.81-.11-6.05,2-.52.88-.75,1.75-.75,2.77v17.82h-12.3v-31.98h11.54l.27,3.38" style="fill:#b4cccb;"/></g><g id="g3552"><path id="path3554" d="M86.41,34.8c1.57-1.38,3.07-2.35,4.97-3.22,3.09-1.43,6.18-1.66,9.45-.7,3.51,1.03,6.03,3.49,7.14,6.98.53,1.67.76,3.16.76,4.91v20.64h-12.7v-18.56c0-.62-.08-1.15-.26-1.74-.33-1.07-1.03-1.85-2.06-2.28-2.25-.96-4.81-.11-6.04,2-.52.88-.75,1.75-.75,2.77v17.82h-12.3v-31.98h11.54l.27,3.38" style="fill:#b4cccb;"/></g><g id="g3556"><g id="g3558"><g id="g3564"><path id="path3566" d="M161.79,51.64c.92.16,1.68.35,2.56.64.74.24,1.24.81,1.4,1.56.18.82-.06,1.6-.65,2.2-.6.61-1.28.96-2.13,1.09-1.13.18-2.13.09-3.2-.3-.52-.19-.93-.42-1.36-.77-.55-.46-.9-.99-1.12-1.68-.18-.58-.25-1.1-.24-1.71h-11.71v.68c0,1.1.17,2.04.56,3.07.59,1.55,1.39,2.75,2.61,3.88,1.59,1.48,3.24,2.41,5.33,3.01,4.33,1.23,8.23,1.48,12.68.8,2.09-.32,3.81-.88,5.69-1.85.83-.43,1.49-.87,2.2-1.47,3.16-2.66,4.34-6.71,3.07-10.64-.48-1.48-1.23-2.62-2.41-3.65-1.61-1.4-3.25-2.29-5.3-2.89-.45-.13-.83-.24-1.28-.36-2.51-.7-4.66-1.16-7.24-1.54-.69-.1-1.27-.21-1.95-.37-.31-.07-.57-.16-.87-.3-.72-.32-1.04-1.17-.72-1.89.02-.04.03-.07.05-.11.39-.69.96-1.14,1.72-1.36,1.34-.39,2.57-.35,3.88.09,1.26.43,2.05,1.58,1.99,2.91h11.29c-.01-1.39-.22-2.56-.69-3.86-.48-1.32-1.2-2.33-2.31-3.2-.96-.76-1.87-1.28-3.01-1.72-1.11-.43-2.09-.7-3.27-.91-2.8-.48-5.2-.62-8.04-.45-1.62.09-2.98.29-4.57.66-2.13.5-3.85,1.32-5.57,2.67-1.46,1.15-2.42,2.49-3.03,4.24-.28.8-.41,1.5-.45,2.34-.06,1.4.14,2.6.66,3.9.93,2.34,2.58,3.99,4.92,4.92,1.18.47,2.22.78,3.47,1.04,2.46.51,4.55.9,7.03,1.33" style="fill:#b4cccb;"/></g></g></g><g id="g3568"><path id="path3570" d="M21.79,49.61h-8.21v-10.49h5.33c1.01,0,1.87-.02,2.88-.08,1.4-.08,2.57-.7,3.4-1.83.44-.6.69-1.21.8-1.95.09-.62.1-1.16.04-1.78-.23-2.34-2.16-4.09-4.51-4.09h-7.95v34.01H0V18.63h22.21c.88,0,1.63.02,2.51.07,5.89.32,10.75,3.59,13.24,8.93,1.3,2.78,1.74,5.46,1.41,8.51-.7,6.43-5.2,11.43-11.52,12.82-2.09.46-3.91.66-6.05.66" style="fill:#b4cccb;"/></g><g id="g3572"><path id="path3574" d="M200.15,30.81c-1.26-.2-2.34-.28-3.62-.28s-2.36.08-3.63.28c-3.67.57-6.65,2.05-9.33,4.62-2.87,2.76-4.44,6.02-4.8,9.98-.22,2.43-.03,4.53.62,6.88,1,3.61,2.89,6.4,5.86,8.67,1.96,1.51,3.9,2.41,6.32,2.93,1.71.38,3.19.53,4.95.53s3.23-.16,4.95-.53c2.41-.53,4.36-1.43,6.31-2.93l-6.87-7.49c-1.09,2.43-3.94,3.51-6.37,2.42-1.12-.5-1.91-1.3-2.42-2.42-.47-1.03-.74-1.96-.9-3.09-.34-2.25-.3-4.2.14-6.43.22-1.16.61-2.1,1.26-3.09,1.41-2.15,4.3-2.76,6.46-1.35.56.37.98.78,1.34,1.35.65.99,1.03,1.93,1.26,3.09.43,2.23.48,4.18.14,6.43-.17,1.12-.44,2.05-.91,3.09l6.87,7.49c2.98-2.28,4.86-5.07,5.86-8.67.66-2.35.84-4.45.62-6.88-.36-3.96-1.93-7.22-4.8-9.98-2.68-2.58-5.65-4.05-9.33-4.62" style="fill:#b4cccb;"/></g><g id="g3576"><g id="g3578"><g id="g3584"><path id="path3586" d="M144.04,60.89c-.18-2.63-.28-4.87-.33-7.51-.07-3.47-.11-6.4-.14-9.88-.01-1.87-.22-3.46-.69-5.27-.61-2.38-2.01-4.18-4.15-5.38-1.3-.72-2.48-1.17-3.93-1.48-4.61-.99-8.68-1.07-13.33-.26-1.31.23-2.39.54-3.61,1.05-2.83,1.17-4.78,3.31-5.69,6.23-.35,1.12-.44,2.13-.31,3.3.03.21.08.39.18.59l10.76.26c-.03-.69.06-1.27.29-1.91.35-.98,1.05-1.68,2.03-2.04,1.44-.53,2.83-.55,4.3-.07.96.32,1.64,1.01,1.94,1.97.19.6.09,1.2-.27,1.72-.32.46-.71.76-1.23.96-.32.12-.59.21-.92.3-1.5.4-2.77.68-4.3.93-1.21.2-2.23.39-3.43.63-1.63.32-2.99.68-4.57,1.19-1.45.47-2.58,1.13-3.7,2.16-1.45,1.33-2.28,2.9-2.56,4.86-.18,1.3-.14,2.44.15,3.72.75,3.34,3.07,5.8,6.36,6.76,3.64,1.06,7.06.88,10.58-.54,1.71-.69,3.01-1.64,4.19-3.06l-.76-5.5c-.54.84-1.22,1.41-2.13,1.81-.85.38-1.63.58-2.55.67-.77.08-1.45.02-2.19-.19-.61-.17-1.09-.45-1.52-.91-.36-.39-.58-.82-.69-1.34-.17-.81.09-1.58.72-2.12.42-.36.83-.6,1.35-.79,1.25-.46,2.32-.8,3.6-1.17,1.55-.44,2.83-.91,4.29-1.58.14,1.17.14,2.17-.03,3.34-.12.85-.38,1.56-.85,2.28l.76,5.5c.24.78.45,1.43.72,2.2.15.43.35.76.65,1.09h11.85c-.51-.79-.76-1.58-.83-2.52" style="fill:#b4cccb;"/></g><g id="g3588"><path id="path3590" d="M72.24,60.89c-.18-2.63-.28-4.87-.33-7.51-.07-3.47-.11-6.4-.14-9.88-.01-1.87-.22-3.46-.69-5.27-.61-2.38-2.01-4.18-4.15-5.38-1.3-.72-2.48-1.17-3.93-1.48-4.61-.99-8.68-1.07-13.33-.26-1.3.23-2.39.54-3.61,1.05-2.83,1.17-4.78,3.31-5.69,6.23-.35,1.12-.44,2.13-.31,3.3.02.21.08.39.17.59l10.76.26c-.03-.69.06-1.27.29-1.91.35-.98,1.05-1.68,2.03-2.04,1.45-.53,2.83-.55,4.3-.07.96.32,1.65,1.01,1.95,1.97.18.6.09,1.2-.27,1.72-.32.46-.71.76-1.23.96-.32.12-.59.21-.93.3-1.49.4-2.77.68-4.3.93-1.21.2-2.23.39-3.43.63-1.63.32-2.99.68-4.57,1.19-1.44.47-2.58,1.13-3.7,2.16-1.45,1.33-2.28,2.9-2.56,4.86-.18,1.3-.14,2.44.15,3.72.75,3.34,3.07,5.8,6.35,6.76,3.65,1.06,7.06.88,10.58-.54,1.71-.69,3.02-1.64,4.19-3.06l-.76-5.5c-.54.84-1.22,1.41-2.13,1.81-.85.38-1.63.58-2.55.67-.78.08-1.45.02-2.2-.19-.61-.17-1.09-.45-1.52-.91-.37-.39-.58-.82-.7-1.34-.17-.81.09-1.58.72-2.12.42-.36.83-.6,1.35-.79,1.25-.46,2.32-.8,3.6-1.17,1.55-.44,2.83-.91,4.29-1.58.14,1.17.14,2.17-.03,3.34-.12.85-.38,1.56-.84,2.28l.76,5.5c.23.78.45,1.43.72,2.2.15.43.35.76.65,1.09h11.85c-.51-.79-.76-1.58-.83-2.52" style="fill:#b4cccb;"/></g></g></g></g></svg>