<?xml version="1.0" encoding="UTF-8"?><svg id="svg1" xmlns="http://www.w3.org/2000/svg" width="300" height="90" viewBox="0 0 300 90"><path d="M47.69,27.31v39.38h8.62c13.54,0,21.54-8.31,21.54-19.38s-7.38-20-23.38-20c0,0-6.77,0-6.77,0ZM56.31,58.69v-23.69c8.62-.62,12.62,5.54,12.62,12.62,0,6.46-4,11.69-12.62,11.08Z" style="fill:#b4cccb;"/><polygon points="167.38 27.31 158.46 27.31 158.46 49.15 134.15 26.69 134.15 66.69 143.08 66.69 143.08 46.08 167.38 68.54 167.38 27.31" style="fill:#b4cccb;"/><polygon points="171.38 35 182.15 35 182.15 66.69 191.69 66.69 191.69 35 202.46 35 202.46 27.31 171.38 27.31 171.38 35" style="fill:#b4cccb;"/><polygon points="205.85 66.69 205.85 27.31 229.23 27.31 229.23 34.69 214.77 34.69 214.77 43.31 227.69 43.31 227.69 50.69 214.77 50.69 214.77 59.31 229.23 59.31 229.23 66.69 205.85 66.69" style="fill:#b4cccb;"/><polygon points="291.08 27.31 291.08 43.31 275.69 43.31 275.69 27.31 266.77 27.31 266.77 66.69 275.69 66.69 275.69 50.69 291.08 50.69 291.08 66.69 300 66.69 300 27.31 291.08 27.31" style="fill:#b4cccb;"/><polygon points="73.54 27.31 93.54 67.92 98.46 57.46 83.69 27.31 73.54 27.31" style="fill:#b4cccb;"/><polygon points="113.85 26.08 108.92 36.23 112.92 46.69 103.69 46.69 100.62 53.15 115.38 53.15 121.23 66.69 131.38 66.69 113.85 26.08" style="fill:#b4cccb;"/><path d="M231.08,47c0,12.92,9.85,20,21.85,20,4.62,0,7.38-1.23,9.23-2.46v-9.23c-1.85,2.46-5.54,4-9.23,4-7.08,0-12.92-4.93-12.92-12.62s6.46-12.31,12.92-12.31c3.69,0,7.38,1.54,9.23,4v-8.61c-1.54-1.54-4.62-2.77-9.54-2.77-12,0-21.54,8.62-21.54,20Z" style="fill:#b4cccb;"/><path d="M16.92,51.31l5.54-13.85,5.54,13.85h-11.08ZM45.54,66.69L22.77,17.46,0,66.69h11.08l3.08-8.31h16.31l3.38,8.31h11.69Z" style="fill:#b4cccb;"/></svg>