<?xml version="1.0" encoding="UTF-8"?>
<svg id="_圖層_2" data-name="圖層 2" xmlns="http://www.w3.org/2000/svg" viewBox="0 0 116.49 157.19">
  <defs>
    <style>
      .cls-1, .cls-2 {
        fill: #fff;
      }

      .cls-3 {
        fill: #2c6cae;
      }

      .cls-3, .cls-4, .cls-5, .cls-6, .cls-7, .cls-2 {
        fill-rule: evenodd;
      }

      .cls-4 {
        fill: #5eaf50;
      }

      .cls-5 {
        fill: #da4f22;
      }

      .cls-6 {
        fill: #a19d98;
      }

      .cls-7 {
        fill: #e9c518;
      }
    </style>
  </defs>
  <g id="_圖層_1-2" data-name="圖層 1">
    <g>
      <g>
        <path class="cls-2" d="M54.36,58.7c-.12,0-.24-.01-.35-.03l-9.77-1.75c-1.05-.19-1.76-1.16-1.63-2.22l.27-2.18-7.7-1.62-29.3-5.51c-.52-.1-.99-.4-1.29-.84-.3-.44-.41-.98-.31-1.51C9.03,18.83,25.79,15.41,30.7,14.93c.91-2.01,2.03-3.82,3.33-5.37,0,0,0,0,0,0,4.12-4.94,10.26-7.55,17.78-7.55s13.31,2.36,13.56,2.46c.9,.36,1.42,1.31,1.23,2.26l-10.28,50.38c-.19,.95-1.02,1.6-1.96,1.6Zm-9.06-19.13l4.42-20.61c-.3-.03-.64-.04-1-.04-3.17,0-7.53,1.27-10.34,7.3-.33,.7-1.04,1.15-1.81,1.15h-1c-.47,0-10.69,.09-13.94,7.5,0,0,14.34,2.82,14.34,2.82l9.34,1.87Z"/>
        <path class="cls-1" d="M51.81,4c6.94,0,12.83,2.32,12.83,2.32l-10.28,50.38-9.77-1.75,.5-4.01-9.52-2.01v-9.27l11.28,2.26,5.27-24.56s-1.38-.44-3.38-.44c-3.47,0-8.82,1.31-12.16,8.46h-1V10.83c4.45-5.35,10.69-6.83,16.25-6.83m-16.25,6.83v14.54c-3.26,0-14.29,1.25-16.54,11.03l16.54,3.26v9.27l-29.32-5.51c5.17-26.33,25.07-26.57,25.8-26.57,.01,0,.02,0,.02,0,1-2.51,2.25-4.51,3.51-6.02M51.81,0c-8.13,0-14.81,2.86-19.31,8.27,0,0,0,0,0,0-1.19,1.43-2.24,3.04-3.13,4.81-6.41,.95-22.37,5.7-27.05,29.56-.21,1.05,.02,2.13,.61,3.01,.6,.88,1.52,1.49,2.57,1.69l29.28,5.51,5.88,1.24-.04,.36c-.26,2.11,1.17,4.06,3.26,4.43l9.77,1.75c.24,.04,.48,.06,.71,.06,1.87,0,3.53-1.31,3.92-3.2L68.56,7.12c.39-1.9-.65-3.81-2.45-4.52-.27-.11-6.68-2.6-14.29-2.6V4s0-4,0-4h0Zm-16.24,29.37h1c1.55,0,2.97-.9,3.62-2.31,1.64-3.52,4.01-5.54,7.04-6.03l-3.47,16.19-7.4-1.48s-.01,0-.02,0l-11.46-2.26c3.6-4.05,10.33-4.1,10.69-4.1h0Z"/>
      </g>
      <g>
        <path class="cls-2" d="M44.54,109.58c-.41-.01-10.19-.32-18.09-5.59-6.24-4.06-9.57-9.93-9.9-17.46-4.36-2.35-18.46-11.97-13.52-36,.19-.95,1.03-1.6,1.96-1.6,.13,0,.26,.01,.39,.04,0,0,22.56,4.51,22.56,4.51l14.2,2.88,.52-1.94c.24-.89,1.04-1.48,1.93-1.48,.12,0,.24,.01,.35,.03l9.77,1.75c.53,.09,.99,.4,1.3,.84,.3,.44,.42,.98,.31,1.51l-9.77,50.88c-.18,.94-1.01,1.62-1.96,1.62-.02,0-.04,0-.05,0Zm-15.25-24.53c1.71,3.03,4.41,4.42,6.2,5.04l3.78-20.56-12.12-2.6-11.82-2.32c.05,3.29,1.66,6.29,4.78,8.95,3.01,2.56,6.34,3.81,6.38,3.83,.72,.27,1.23,.93,1.3,1.69,.25,2.7,.72,4.6,1.5,5.96,0,0,0,0,0,.01Z"/>
        <path class="cls-1" d="M4.98,50.93l22.56,4.51v9.52l-14.03-2.76c-2.01,11.78,12.28,17.04,12.28,17.04,.25,2.76,.76,5.01,1.75,6.77v16.29c-5.01-3.26-9.02-8.52-9.02-17.04,0,0-19.05-7.52-13.54-34.34m39.6,4.01l9.77,1.75-9.77,50.88s-9.52-.25-17.04-5.26v-16.29c3.26,5.76,9.53,6.52,9.53,6.52l4.51-24.56-14.04-3.01v-9.52l16.04,3.26,1-3.76M4.98,46.93c-1.86,0-3.53,1.3-3.91,3.2-1.74,8.47-2.21,20.64,5.46,30.49,2.86,3.67,5.99,5.92,8.1,7.15,.65,7.57,4.33,13.72,10.72,17.88,8.38,5.58,18.7,5.91,19.14,5.92,.04,0,.07,0,.11,0,1.91,0,3.56-1.36,3.93-3.25l9.77-50.88c.2-1.05-.03-2.14-.63-3.02-.61-.88-1.54-1.48-2.59-1.67l-9.77-1.75c-.24-.04-.48-.06-.71-.06-1.78,0-3.39,1.19-3.86,2.97l-.03,.12-12.35-2.51s0,0-.01,0l-22.56-4.51c-.26-.05-.53-.08-.79-.08h0Zm26.04,37.11c-.62-1.09-1.03-2.78-1.25-5.15-.14-1.54-1.15-2.86-2.6-3.39-.36-.14-7.48-2.88-9.38-8.37l8.95,1.76,10.21,2.19-2.95,16.09c-1.06-.68-2.15-1.67-2.96-3.1,0,0,0-.01,0-.02h0Z"/>
      </g>
      <g>
        <path class="cls-2" d="M111.51,66.47c-.14,0-.27-.01-.41-.04l-22.79-4.76-13.89-2.65-.56,2.4c-.22,.92-1.04,1.54-1.94,1.54-.15,0-.29-.02-.44-.05l-10.02-2.26c-1.05-.24-1.73-1.27-1.52-2.33L69.69,7.7c.18-.94,1.01-1.62,1.96-1.62,.02,0,.04,0,.05,0,.41,.01,10.14,.32,18.02,5.05,0,0,.06,.04,.07,.04,6.41,4.17,9.82,10.12,10.15,17.71,4.36,2.35,18.46,11.98,13.52,36-.11,.52-.42,.98-.86,1.27-.33,.22-.71,.33-1.1,.33Zm-10.83-15.68c-.07-3.19-1.68-6.11-4.78-8.72-3.02-2.53-6.35-3.79-6.39-3.8-.78-.29-1.31-1.04-1.31-1.88,0-2.63-.8-4.64-1.28-5.61-1.73-3.33-4.55-4.72-6.38-5.29l-3.57,20.6,12.11,2.38s11.59,2.32,11.59,2.32Z"/>
        <path class="cls-1" d="M71.65,8.08s9.53,.25,17.05,4.76V29.88c-3.26-6.27-9.78-6.77-9.78-6.77l-4.26,24.56,14.04,2.76v9.27l-15.79-3.01-1,4.26-10.02-2.26,9.77-50.63m17.05,4.76c5.01,3.26,9.27,8.52,9.27,17.29,0,0,19.05,7.52,13.53,34.34l-22.81-4.76v-9.27l13.78,2.76c2-11.53-12.28-16.79-12.28-16.79,0-2.76-.75-5.01-1.5-6.52V12.84m-17.05-8.76c-1.91,0-3.56,1.36-3.93,3.24l-9.77,50.63c-.41,2.12,.94,4.19,3.05,4.66l10.02,2.26c.3,.07,.59,.1,.88,.1,1.82,0,3.46-1.24,3.89-3.08l.13-.53,11.99,2.28,22.77,4.76c.27,.06,.54,.08,.82,.08,.77,0,1.54-.22,2.2-.66,.89-.58,1.51-1.5,1.72-2.54,1.74-8.47,2.21-20.64-5.46-30.49-2.86-3.67-5.99-5.92-8.1-7.16-.67-7.64-4.43-13.88-10.98-18.14,0,0-.01,0-.02-.01,0,0,0,0,0,0,0,0,0,0,0,0-.04-.02-.08-.05-.12-.07-8.32-4.99-18.56-5.31-18.99-5.32-.04,0-.07,0-.11,0h0Zm7.62,40.43l2.8-16.12c1.1,.69,2.24,1.73,3.07,3.31,.4,.82,1.07,2.49,1.07,4.7,0,1.68,1.04,3.17,2.62,3.75,.02,0,3.11,1.19,5.86,3.52,1.72,1.46,2.88,2.98,3.49,4.58l-8.68-1.74s-.01,0-.02,0l-10.2-2h0Z"/>
      </g>
      <g>
        <path class="cls-2" d="M64.55,113.57c-7.16,0-13.16-2.27-13.41-2.37-.91-.35-1.43-1.3-1.24-2.25l10.03-50.63c.1-.53,.42-.99,.87-1.29,.33-.21,.71-.32,1.09-.32,.15,0,.29,.02,.44,.05l10.02,2.26c1.06,.24,1.73,1.28,1.52,2.34l-.35,1.75s8.03,1.4,8.04,1.41l28.82,5.51c1.08,.21,1.79,1.25,1.59,2.33-4.51,24.35-21.15,27.87-26.12,28.37-.89,2.04-2.1,3.64-3.11,4.85-4.09,5.23-10.38,7.99-18.19,7.99Zm2.46-16.87c.31,.03,.64,.04,1,.04,3.13,0,7.42-1.26,10.09-7.27,.32-.72,1.04-1.19,1.83-1.19h1.18c5.3-.36,11.74-2,14.05-7.49,0,0-14.37-2.83-14.37-2.83l-9.58-1.88-4.21,20.61Z"/>
        <path class="cls-1" d="M61.88,58.7l10.02,2.26-.75,3.76,10.02,1.75v9.53l-11.53-2.26-5.01,24.56s1.38,.44,3.37,.44c3.45,0,8.74-1.31,11.92-8.46h1.25v14.04c-4.44,5.7-10.91,7.25-16.63,7.25-6.87,0-12.69-2.24-12.69-2.24l10.03-50.63m19.3,7.77l28.82,5.51c-4.92,26.58-24.82,26.82-25.54,26.82-.01,0-.02,0-.02,0-.75,2.25-2.01,4.01-3.26,5.51v-14.04c3.76-.25,14.54-1.5,16.54-11.03l-16.54-3.26v-9.53m-19.3-11.77c-.77,0-1.53,.22-2.18,.65-.9,.59-1.53,1.52-1.74,2.58l-10.03,50.63c-.38,1.91,.67,3.81,2.49,4.51,.27,.1,6.6,2.5,14.13,2.5,8.43,0,15.26-3.02,19.75-8.74,.92-1.11,1.99-2.52,2.89-4.27,6.45-.98,22.3-5.82,26.75-29.85,.4-2.16-1.02-4.24-3.18-4.66l-28.82-5.51s-.05,0-.07-.01l-5.99-1.05c.27-2.04-1.06-3.97-3.09-4.43l-10.02-2.26c-.29-.07-.58-.1-.88-.1h0Zm7.59,39.92l3.3-16.2,7.63,1.49s0,0,0,0l11.51,2.26c-2.57,2.84-7.04,3.82-10.87,4.1h-1.11c-1.58,0-3.01,.93-3.66,2.38-1.55,3.48-3.83,5.49-6.8,5.97h0Z"/>
      </g>
      <g>
        <path class="cls-2" d="M33.31,146.67c-.19,0-.38-.03-.56-.08-.38-.11-9.43-2.9-15.76-15.56-.04-.08-5.1-9.79-12.97-14.19-.71-.4-1.11-1.19-1.01-2.01,.11-.81,.7-1.48,1.49-1.68,.18-.04,1.79-.44,4.21-.44,5.17,0,14.64,1.82,20.11,13.98,.64,1.09,5.48,9.53,6.48,17.72,.08,.67-.18,1.33-.69,1.77-.37,.31-.83,.47-1.29,.47Z"/>
        <path class="cls-1" d="M8.71,114.72c4.87,0,13.36,1.76,18.33,12.91,0,0,5.27,8.77,6.27,17.04,0,0-8.52-2.51-14.54-14.54,0,0-5.26-10.28-13.79-15.04,0,0,1.47-.37,3.72-.37m0-4h0c-2.67,0-4.51,.45-4.71,.5-1.59,.4-2.77,1.73-2.98,3.36s.59,3.21,2.02,4.01c6.13,3.42,10.87,10.81,12.18,13.37,6.7,13.4,16.55,16.43,16.97,16.55,.37,.11,.75,.16,1.13,.16,.93,0,1.85-.33,2.59-.95,1.03-.87,1.55-2.2,1.39-3.53-1.01-8.37-5.81-16.91-6.68-18.4-5.94-13.1-16.26-15.07-21.89-15.07h0Z"/>
      </g>
      <g>
        <path class="cls-2" d="M42.09,143.26c-1.73,0-2.95-.81-3.17-.97-.23-.17-.43-.38-.57-.63-8.18-14.18,8.12-31.25,8.82-31.97,.39-.4,.91-.61,1.44-.61,.4,0,.81,.12,1.16,.37,.8,.57,1.07,1.64,.63,2.53-4.78,9.56-5.81,18.78-5.82,18.87-.01,.11-.03,.22-.06,.32-.5,1.8-.46,3.19,.09,3.92,.58,.76,1.73,.82,1.74,.82,.7,0,1.35,.37,1.71,.96s.39,1.34,.06,1.96c-1.92,3.66-4.34,4.42-6.03,4.42h0Z"/>
        <path class="cls-1" d="M48.6,111.09h0m0,0c-5.01,10.03-6.02,19.55-6.02,19.55-2.01,7.27,3.76,7.27,3.76,7.27-1.41,2.7-3.02,3.35-4.26,3.35s-2.01-.6-2.01-.6c-7.52-13.03,8.53-29.58,8.53-29.58m0-4s-.08,0-.12,0c-.72,.02-1.4,.23-1.98,.59-.27,.17-.53,.37-.77,.61,0,0,0,0,0,0,0,0,0,0,0,0,0,0,0,0-.01,.01-.79,.81-18.03,18.91-9.12,34.35,.29,.5,.67,.92,1.14,1.26,.44,.31,2.06,1.34,4.34,1.34,1.84,0,5.29-.71,7.8-5.5,.67-1.29,.74-2.84-.05-4.06-.74-1.13-1.88-1.81-3.2-1.81-.07,0-.15,0-.22,0-.07-.01-.15-.03-.21-.06-.05-.2-.12-.83,.24-2.14,.06-.21,.1-.43,.12-.65,0-.08,1.01-8.9,5.56-18.06,.31-.57,.49-1.22,.49-1.91,0-2.19-1.75-3.97-3.93-4-.02,0-.05,0-.07,0h0Zm0,8h0Z"/>
      </g>
      <g>
        <path class="cls-2" d="M39.33,155.19c-.75,0-1.44-.42-1.78-1.1s-.27-1.48,.17-2.09c.19-.26,4.81-6.52,12.54-12.85,10.33-8.47,21.3-12.94,31.73-12.94,5.28,0,10.51,1.12,15.55,3.34,.76,.34,1.24,1.11,1.19,1.95-.05,.83-.61,1.55-1.41,1.79-.18,.06-18.41,5.66-23.28,8.53-1.54,1.15-18.37,13.37-34.7,13.37Z"/>
        <path class="cls-1" d="M81.98,128.22c4.72,0,9.66,.94,14.74,3.17,0,0-18.8,5.77-23.81,8.77,0,0-17.29,13.03-33.58,13.03,0,0,18.3-24.98,42.65-24.98m0-4h0c-10.89,0-22.3,4.63-32.99,13.4-7.92,6.49-12.68,12.95-12.88,13.22-.89,1.22-1.02,2.83-.34,4.17,.68,1.34,2.06,2.19,3.57,2.19,16.67,0,33.68-12.14,35.8-13.69,3.57-2.05,15.51-6.06,22.77-8.29,1.6-.49,2.72-1.92,2.82-3.59,.1-1.67-.85-3.22-2.38-3.89-5.3-2.33-10.8-3.51-16.35-3.51h0Z"/>
      </g>
    </g>
    <g>
      <path class="cls-7" d="M35.57,48.93l9.52,2.01-.5,4.01,9.77,1.75L64.64,6.32s-19.05-7.52-29.07,4.51v14.54h1c5.26-11.28,15.54-8.02,15.54-8.02l-5.27,24.56-11.28-2.26v9.27Zm-3.51-32.08s-20.55-.25-25.82,26.57l29.32,5.51v-9.27l-16.54-3.26c2.25-9.77,13.28-11.03,16.54-11.03V10.83c-1.25,1.5-2.51,3.51-3.51,6.02Z"/>
      <path class="cls-4" d="M44.59,54.94l-1,3.76-16.04-3.26v9.52l14.04,3.01-4.51,24.56s-6.27-.75-9.53-6.52v16.29c7.52,5.01,17.04,5.26,17.04,5.26l9.77-50.88-9.77-1.75Zm-17.04,.5l-22.56-4.51c-5.51,26.82,13.54,34.34,13.54,34.34,0,8.52,4.01,13.79,9.02,17.04v-16.29c-1-1.75-1.5-4.01-1.75-6.77,0,0-14.28-5.26-12.28-17.04l14.03,2.76v-9.52Z"/>
      <path class="cls-5" d="M97.97,30.13c0-8.77-4.26-14.03-9.27-17.29V29.88c.75,1.5,1.5,3.76,1.5,6.52,0,0,14.29,5.26,12.28,16.79l-13.78-2.76v9.27l22.81,4.76c5.51-26.82-13.53-34.34-13.53-34.34Zm-9.27-17.29c-7.52-4.51-17.05-4.76-17.05-4.76l-9.77,50.63,10.02,2.26,1-4.26,15.79,3.01v-9.27l-14.04-2.76,4.26-24.56s6.52,.5,9.78,6.77V12.84Z"/>
      <path class="cls-3" d="M81.18,104.32c1.25-1.5,2.51-3.26,3.26-5.51,0,0,20.55,.25,25.56-26.82l-28.82-5.51v9.53l16.54,3.26c-2.01,9.53-12.78,10.78-16.54,11.03v14.04Zm-10.02-39.6l.75-3.76-10.02-2.26-10.03,50.63s19.55,7.52,29.32-5.01v-14.04h-1.25c-5.01,11.28-15.29,8.02-15.29,8.02l5.01-24.56,11.53,2.26v-9.53l-10.02-1.75Z"/>
      <path class="cls-6" d="M4.98,115.1s14.79-3.76,22.06,12.53c0,0,5.27,8.77,6.27,17.04,0,0-8.52-2.51-14.54-14.54,0,0-5.26-10.28-13.79-15.04Z"/>
      <path class="cls-6" d="M48.6,111.09s-16.04,16.54-8.53,29.58c0,0,3.51,2.51,6.27-2.76,0,0-5.77,0-3.76-7.27,0,0,1-9.52,6.02-19.55Z"/>
      <path class="cls-6" d="M39.33,153.19s26.06-35.59,57.39-21.81c0,0-18.8,5.77-23.81,8.77,0,0-17.29,13.03-33.58,13.03Z"/>
    </g>
  </g>
</svg>