<?xml version="1.0" encoding="UTF-8"?>
<svg id="_圖層_2" data-name="圖層 2" xmlns="http://www.w3.org/2000/svg" viewBox="0 0 966.71 706">
  <defs>
    <style>
      .cls-1 {
        fill: #008dcf;
      }

      .cls-2 {
        fill: #ec6716;
      }

      .cls-3 {
        fill: #f6a807;
      }

      .cls-4 {
        fill: #fff;
      }

      .cls-5 {
        fill: #9dc63a;
      }

      .cls-6 {
        fill: #e23c1b;
      }

      .cls-7 {
        fill: #282627;
      }
    </style>
  </defs>
  <g id="_圖層_1-2" data-name="圖層 1">
    <g>
      <g>
        <path class="cls-4" d="M124.82,700.04c-2.76,0-5-2.24-5-5v-.29c0-1.06,.33-2.07,.94-2.92v-17.1h-6.83l-.23,.16c-.85,.59-1.85,.89-2.85,.89-.7,0-1.41-.15-2.06-.45l-.27-.12c-1.3-.59-2.28-1.7-2.71-3.06s-.25-2.83,.47-4.05l2.9-4.88c.9-1.51,2.53-2.44,4.3-2.44h32.66c1.81,0,3.48,.98,4.36,2.56s.85,3.51-.1,5.06l-3.06,5c-.91,1.48-2.52,2.39-4.26,2.39h-.23c-1.16,0-2.22-.39-3.07-1.05h-4.24v17.19c.56,.82,.87,1.8,.87,2.82v.29c0,2.76-2.24,5-5,5h-6.59Z"/>
        <path class="cls-4" d="M146.14,665.79h0m0,0l-3.06,5h-.23v-.46c0-.18-.07-.32-.21-.43-.14-.11-.32-.17-.55-.17h-11.55v23.74c0,.19,.02,.35,.06,.46,.04,.11,.11,.21,.22,.31l.6,.51v.29h-6.59v-.29l.6-.51c.12-.09,.21-.21,.26-.33,.05-.12,.08-.27,.08-.44v-23.74h-13.04c-.15,0-.3,.03-.44,.08-.14,.05-.32,.17-.55,.35l-.89,.62-.27-.12,2.9-4.88h32.66m0-10h-32.67c-3.53,0-6.79,1.86-8.59,4.89l-2.9,4.88c-1.46,2.45-1.8,5.4-.94,8.12s2.83,4.94,5.43,6.11l.27,.12c1.31,.59,2.71,.88,4.1,.88,1.54,0,3.07-.35,4.47-1.05h.45v10.78c-.61,1.31-.94,2.75-.94,4.23v.29c0,5.52,4.48,10,10,10h6.59c5.52,0,10-4.48,10-10v-.29c0-1.42-.3-2.81-.87-4.08v-10.15c.74,.17,1.51,.27,2.31,.27h.23c3.48,0,6.71-1.81,8.53-4.78l2.94-4.81c1.01-1.56,1.6-3.42,1.6-5.42,0-5.52-4.47-10-10-10h0Zm0,20h0Z"/>
      </g>
      <g>
        <path class="cls-4" d="M179.17,700.04c-2.76,0-5-2.24-5-5v-.29c0-.25,.02-.5,.05-.74l-3.82-5.65h-6.76c-.77,.44-1.63,.66-2.48,.66-.18,0-.36,0-.54-.03l-3.46,5.02c.04,.24,.05,.48,.05,.73v.29c0,2.76-2.24,5-5,5h-6.93c-1.85,0-3.55-1.02-4.42-2.66-.87-1.63-.76-3.62,.28-5.15l20.52-30.26c.93-1.37,2.48-2.19,4.14-2.19h0c1.66,0,3.21,.83,4.14,2.21l20.38,30.26c1.03,1.53,1.13,3.51,.27,5.14-.87,1.63-2.57,2.65-4.41,2.65h-7.02Z"/>
        <path class="cls-4" d="M165.81,664.78l20.38,30.26h-7.02v-.29c.3,0,.54-.05,.72-.17,.18-.11,.26-.25,.26-.43,0-.13-.02-.24-.05-.34-.04-.1-.08-.18-.13-.24l-6.91-10.21h-9.97c-.47,0-.78,0-.94,.03-.15,.02-.26,.07-.32,.13l-.66,.5-.23-.17,2.91-4.51h6.47l-4.5-6.69-14.39,20.89c-.06,.08-.1,.18-.14,.28-.03,.1-.04,.21-.04,.32,0,.18,.09,.32,.26,.43,.18,.11,.42,.17,.72,.17v.29h-6.93l20.52-30.26m0-10c-3.32,0-6.42,1.64-8.28,4.39l-20.52,30.26c-2.08,3.06-2.29,7.03-.56,10.3,1.73,3.27,5.13,5.32,8.84,5.32h6.93c5.36,0,9.74-4.22,9.99-9.52l1.2-1.74c.45-.1,.89-.24,1.33-.4h3.01l1.43,2.11c.23,5.32,4.62,9.56,9.99,9.56h7.02c3.7,0,7.09-2.04,8.83-5.3,1.74-3.26,1.53-7.22-.53-10.28l-20.38-30.26c-1.86-2.75-4.96-4.41-8.28-4.41h-.02Z"/>
      </g>
      <g>
        <path class="cls-4" d="M188.78,700.04c-2.76,0-5-2.24-5-5v-.29c0-1.03,.32-2.02,.89-2.85v-22.98c-.58-.83-.89-1.82-.89-2.85v-.29c0-2.76,2.24-5,5-5h6.54c2.76,0,5,2.24,5,5v.29c0,1.01-.31,1.99-.87,2.82v23.04c.56,.82,.87,1.8,.87,2.82v.29c0,2.76-2.24,5-5,5h-6.54Z"/>
        <path class="cls-4" d="M195.32,665.79v.29l-.55,.51c-.12,.11-.2,.22-.25,.32-.05,.1-.07,.23-.07,.38v26.18c0,.17,.03,.31,.08,.44,.06,.12,.13,.23,.24,.33l.55,.51v.29h-6.54v-.29l.55-.51c.12-.09,.21-.21,.26-.33,.06-.12,.08-.27,.08-.44v-26.18c0-.14-.03-.26-.08-.38-.05-.12-.14-.22-.26-.32l-.55-.51v-.29h6.54m0-10h-6.54c-5.52,0-10,4.48-10,10v.29c0,1.44,.31,2.84,.89,4.13v20.42c-.58,1.28-.89,2.69-.89,4.13v.29c0,5.52,4.48,10,10,10h6.54c5.52,0,10-4.48,10-10v-.29c0-1.42-.3-2.81-.87-4.08v-20.52c.57-1.27,.87-2.66,.87-4.08v-.29c0-5.52-4.48-10-10-10h0Z"/>
      </g>
      <g>
        <path class="cls-4" d="M218.24,700.04c-3.58,0-6.36-.29-8.51-.89-2.28-.63-4.44-1.71-6.43-3.18-2.45-1.8-4.35-4.04-5.65-6.64-1.28-2.58-1.93-5.45-1.93-8.54,0-2.33,.36-4.58,1.08-6.67,.74-2.15,1.84-4.12,3.26-5.88,1-1.23,2.15-2.34,3.42-3.31,1.29-.97,2.66-1.78,4.11-2.44,1.41-.63,2.92-1.08,4.5-1.35,1.44-.24,3.39-.36,5.96-.36h16.15c1.81,0,3.47,.97,4.36,2.55,.89,1.57,.85,3.5-.09,5.05l-3.04,5c-.91,1.49-2.53,2.4-4.27,2.4h-.23c-1.12,0-2.2-.38-3.07-1.05h-9.81c-1.89,0-3.02,.18-3.64,.33-.61,.15-1.1,.36-1.44,.61-.74,.57-1.3,1.23-1.67,1.99-.38,.79-.57,1.69-.57,2.73,0,1.14,.19,2.09,.55,2.84,.33,.69,.83,1.26,1.54,1.75,.48,.34,1.01,.58,1.61,.73,.45,.11,1.55,.29,3.81,.29h12.95l.03-.02c.87-.66,1.94-1.02,3.03-1.02h.39c1.81,0,3.47,.97,4.36,2.55,.89,1.57,.86,3.5-.08,5.04l-3.07,5.06c-.91,1.5-2.53,2.41-4.28,2.41h-13.33Z"/>
        <path class="cls-4" d="M234.2,665.79l-3.04,5h-.23l.05-.37v-.08c0-.18-.08-.32-.23-.43-.15-.11-.34-.17-.57-.17h-12.12c-1.94,0-3.54,.16-4.83,.47-1.28,.32-2.36,.8-3.25,1.47-1.4,1.07-2.46,2.34-3.18,3.81-.72,1.48-1.08,3.12-1.08,4.91,0,1.91,.35,3.58,1.05,5.03,.7,1.45,1.75,2.67,3.16,3.65,.99,.7,2.09,1.2,3.3,1.49,1.22,.3,2.88,.44,5,.44h14.09c.2,0,.37-.03,.53-.08,.16-.05,.32-.15,.51-.29l.89-.68h.39l-3.07,5.06h-13.33c-3.08,0-5.47-.23-7.17-.71-1.7-.47-3.3-1.27-4.79-2.38-1.83-1.34-3.21-2.96-4.15-4.85-.93-1.88-1.4-3.99-1.4-6.31,0-1.8,.27-3.48,.81-5.06,.54-1.58,1.35-3.03,2.42-4.34,.75-.92,1.6-1.74,2.56-2.47,.96-.72,2.01-1.35,3.16-1.87,1.01-.45,2.09-.77,3.25-.97,1.16-.19,2.88-.29,5.15-.29h16.15m.43,24.19h0m-.44-34.19h-16.15c-2.88,0-5.04,.13-6.78,.42-2.01,.33-3.93,.91-5.72,1.71-1.82,.83-3.51,1.83-5.06,2.99-.01,.01-.03,.02-.04,.03-1.59,1.21-3.02,2.59-4.26,4.12-1.81,2.23-3.19,4.72-4.11,7.4-.9,2.65-1.36,5.44-1.36,8.32,0,3.86,.82,7.48,2.45,10.75,1.65,3.32,4.06,6.16,7.17,8.45,2.48,1.84,5.19,3.18,8.06,3.97,2.58,.72,5.81,1.07,9.84,1.07h13.33c3.5,0,6.74-1.83,8.55-4.82l2.94-4.86c.99-1.55,1.57-3.4,1.57-5.38,0-5.37-4.23-9.76-9.55-9.99,1.89-.81,3.51-2.19,4.61-4l3.04-5c1.88-3.09,1.94-6.95,.17-10.1-1.77-3.15-5.1-5.1-8.72-5.1h0Zm0,20h0Zm-18.42,4.1c.29-.05,1.01-.15,2.27-.15h8.41c1.2,.6,2.51,.95,3.87,1.04-.18,.08-.36,.16-.54,.25h-11.56c-1.44,0-2.19-.08-2.49-.13-.01-.11-.03-.27-.03-.49s.02-.41,.06-.52h0Z"/>
      </g>
      <g>
        <path class="cls-4" d="M238.7,700.04c-2.76,0-5-2.24-5-5v-.29c0-1.04,.33-2.05,.92-2.89v-22.9c-.59-.84-.92-1.84-.92-2.89v-.29c0-2.76,2.24-5,5-5h6.59c2.76,0,5,2.24,5,5v.29c0,1.06-.33,2.07-.94,2.92v22.84c.6,.84,.94,1.86,.94,2.92v.29c0,2.76-2.24,5-5,5h-6.59Z"/>
        <path class="cls-4" d="M245.29,665.79v.29l-.59,.51c-.12,.1-.21,.2-.26,.32-.06,.12-.08,.24-.08,.38v26.18c0,.17,.02,.31,.08,.44,.05,.12,.14,.23,.26,.33l.59,.51v.29h-6.59v-.29l.6-.51c.11-.09,.19-.21,.24-.33,.05-.12,.08-.27,.08-.44v-26.18c0-.15-.02-.28-.07-.38-.05-.1-.13-.21-.25-.32l-.6-.51v-.29h6.59m0-10h-6.59c-5.52,0-10,4.48-10,10v.29c0,1.46,.32,2.89,.92,4.18v20.31c-.6,1.3-.92,2.72-.92,4.18v.29c0,5.52,4.48,10,10,10h6.59c5.52,0,10-4.48,10-10v-.29c0-1.48-.33-2.92-.94-4.23v-20.22c.61-1.31,.94-2.75,.94-4.23v-.29c0-5.52-4.48-10-10-10h0Z"/>
      </g>
      <g>
        <path class="cls-4" d="M261.46,700.04c-2.76,0-5-2.24-5-5v-.29c0-1.06,.33-2.07,.94-2.92v-6.08h-9.18l-.02,.02c-.89,.68-1.96,1.03-3.04,1.03-.71,0-1.43-.15-2.1-.46l-.27-.13c-1.28-.59-2.25-1.7-2.67-3.05-.42-1.35-.25-2.81,.46-4.03l2.9-4.94c.9-1.53,2.54-2.47,4.31-2.47h9.62v-2.75c-.6-.84-.94-1.86-.94-2.92v-.29c0-2.76,2.24-5,5-5h6.61c2.76,0,5,2.24,5,5v.29c0,1.03-.32,2.02-.89,2.85v22.97c.57,.83,.89,1.82,.89,2.85v.29c0,2.76-2.24,5-5,5h-6.61Z"/>
        <path class="cls-4" d="M268.08,665.79v.29l-.62,.51c-.11,.08-.18,.18-.22,.29-.04,.11-.06,.24-.06,.41v26.18c0,.19,.02,.35,.07,.46,.05,.12,.12,.22,.21,.3l.62,.51v.29h-6.61v-.29l.6-.51c.12-.09,.21-.21,.26-.33,.05-.12,.08-.27,.08-.44v-12.72h-15.37c-.18,0-.34,.02-.48,.07-.14,.05-.3,.15-.5,.3l-.89,.68-.27-.13,2.9-4.94h14.62v-9.45c0-.14-.02-.26-.08-.38-.06-.12-.14-.22-.26-.32l-.6-.51v-.29h6.61m0-10h-6.61c-5.52,0-10,4.48-10,10v.29c0,.22,0,.44,.02,.66h-3.7c-3.54,0-6.82,1.88-8.62,4.93l-2.9,4.94c-1.43,2.44-1.77,5.37-.92,8.07,.85,2.7,2.8,4.91,5.37,6.09l.27,.13c1.33,.61,2.76,.91,4.17,.91,1.54,0,3.07-.35,4.46-1.05h2.68c-.54,1.25-.83,2.6-.83,4v.29c0,5.52,4.48,10,10,10h6.61c5.52,0,10-4.48,10-10v-.29c0-1.44-.31-2.85-.89-4.13v-20.42c.58-1.28,.89-2.69,.89-4.13v-.29c0-5.52-4.48-10-10-10h0Z"/>
      </g>
      <g>
        <path class="cls-4" d="M289.46,700.55c-5.39,0-9.49-.76-12.51-2.33-3.94-2.04-6.12-5.49-6.12-9.71v-19.62c-.56-.82-.87-1.8-.87-2.82v-.29c0-2.76,2.24-5,5-5h6.54c2.76,0,5,2.24,5,5v.29c0,1.03-.32,2.02-.89,2.85v17.46c.69,.11,1.88,.23,3.81,.23s3.21-.12,3.92-.24v-17.46c-.57-.83-.89-1.82-.89-2.85v-.29c0-2.76,2.24-5,5-5h6.54c2.76,0,5,2.24,5,5v.29c0,1.03-.32,2.02-.89,2.85v19.59c0,4.21-2.17,7.66-6.1,9.71-3.02,1.57-7.12,2.33-12.53,2.33Z"/>
        <path class="cls-4" d="M303.99,665.79v.29l-.55,.51c-.12,.1-.21,.2-.25,.31-.04,.11-.07,.24-.09,.39v21.22c0,2.33-1.14,4.09-3.41,5.27-2.27,1.18-5.68,1.77-10.23,1.77s-7.93-.59-10.21-1.77c-2.28-1.18-3.42-2.94-3.42-5.27v-21.22c0-.15-.02-.28-.07-.38-.04-.1-.13-.21-.25-.32l-.55-.51v-.29h6.54v.29l-.55,.51c-.12,.1-.21,.2-.26,.32-.05,.12-.08,.24-.08,.38v19.91c0,1.65,.64,2.8,1.9,3.45,1.26,.65,3.57,.98,6.91,.98s5.74-.32,7.01-.97c1.27-.65,1.91-1.8,1.91-3.46v-19.91c-.02-.15-.05-.28-.09-.38-.04-.1-.13-.21-.25-.32l-.55-.51v-.29h6.54m0-10h-6.54c-3.25,0-6.14,1.55-7.97,3.96-1.83-2.41-4.72-3.96-7.97-3.96h-6.54c-5.52,0-10,4.48-10,10v.29c0,1.42,.3,2.81,.87,4.08v18.36c0,6.09,3.21,11.24,8.82,14.15,3.76,1.95,8.6,2.89,14.82,2.89s11.09-.95,14.84-2.9c5.59-2.91,8.8-8.06,8.8-14.14v-18.31c.58-1.28,.89-2.69,.89-4.13v-.29c0-5.52-4.48-10-10-10h0Zm-16.77,18.59s0,0,0,0h0Z"/>
      </g>
      <g>
        <path class="cls-4" d="M338.62,701c-1.23,0-2.44-.45-3.38-1.32l-14.42-13.25v5.5c.56,.82,.87,1.8,.87,2.82v.29c0,2.76-2.24,5-5,5h-6.13c-2.76,0-5-2.24-5-5v-.29c0-1.06,.33-2.07,.94-2.91v-27.06c0-1.99,1.18-3.79,3.01-4.59,.64-.28,1.32-.41,1.99-.41,1.24,0,2.47,.46,3.41,1.35l14.42,13.47v-5.6c-.6-.84-.94-1.86-.94-2.92v-.29c0-2.76,2.24-5,5-5h6.13c2.76,0,5,2.24,5,5v.29c0,1.03-.32,2.02-.89,2.85v27.08c0,1.98-1.17,3.78-2.99,4.58-.65,.28-1.33,.42-2.01,.42Z"/>
        <path class="cls-4" d="M311.49,664.78l22.83,21.33v-18.82c-.02-.15-.05-.28-.09-.38-.04-.1-.13-.21-.25-.32l-.6-.51v-.29h6.13v.29l-.57,.51c-.11,.1-.19,.2-.24,.32-.05,.12-.08,.24-.08,.38v28.71l-22.81-20.95v18.42c0,.17,.03,.31,.08,.44,.05,.12,.13,.23,.24,.33l.55,.51v.29h-6.13v-.29l.62-.51c.11-.09,.19-.21,.24-.33,.05-.12,.08-.27,.08-.44v-28.7m0-10c-1.34,0-2.7,.27-3.98,.83-3.65,1.59-6.02,5.19-6.02,9.17v25.75c-.61,1.31-.94,2.75-.94,4.23v.29c0,5.52,4.48,10,10,10h6.13c4.43,0,8.19-2.88,9.5-6.88l5.67,5.21c1.88,1.73,4.31,2.64,6.77,2.64,1.36,0,2.73-.28,4.02-.84,3.63-1.6,5.98-5.19,5.98-9.16v-25.8c.58-1.28,.89-2.69,.89-4.13v-.29c0-5.52-4.48-10-10-10h-6.13c-4.43,0-8.19,2.88-9.5,6.88l-5.56-5.19c-1.89-1.77-4.34-2.69-6.83-2.69h0Z"/>
      </g>
      <g>
        <path class="cls-4" d="M361.63,700.04c-3.58,0-6.36-.29-8.51-.89-2.28-.63-4.44-1.7-6.43-3.18-2.45-1.8-4.35-4.04-5.65-6.64-1.28-2.58-1.93-5.45-1.93-8.54,0-2.33,.36-4.58,1.08-6.67,.74-2.14,1.84-4.12,3.26-5.88,1-1.23,2.15-2.34,3.42-3.31,1.29-.97,2.67-1.78,4.11-2.44,1.42-.64,2.92-1.09,4.51-1.35,1.44-.24,3.39-.36,5.96-.36h12.21c1.81,0,3.47,.97,4.36,2.55,.89,1.58,.85,3.5-.09,5.05l-2.25,3.7c1.97,.67,3.39,2.54,3.39,4.74v15.08c.58,.83,.89,1.82,.89,2.85v.29c0,2.76-2.24,5-5,5h-13.33Zm-1.65-14.05c.46,.02,1.01,.04,1.65,.04h2.69v-.19h-4.13s-.15,.11-.2,.15Z"/>
        <path class="cls-4" d="M373.66,665.79l-3.04,5h-.28l.05-.37v-.08c0-.18-.08-.32-.23-.43-.15-.11-.34-.17-.57-.17h-8.14c-1.94,0-3.54,.16-4.83,.47-1.28,.32-2.36,.8-3.25,1.47-1.4,1.07-2.46,2.34-3.18,3.81-.72,1.48-1.08,3.12-1.08,4.91,0,1.91,.35,3.58,1.05,5.03,.7,1.45,1.75,2.67,3.16,3.65,.99,.7,2.09,1.2,3.3,1.49,1.22,.3,2.88,.44,5,.44h7.69v-10.19h-10.27c-.2,0-.37,.03-.53,.08-.16,.06-.32,.15-.51,.29l-.89,.68-.27-.16,2.95-4.9h14.27v16.65c0,.17,.03,.31,.09,.44,.06,.12,.14,.23,.25,.33l.55,.51v.29h-13.33c-3.08,0-5.47-.23-7.17-.71-1.7-.47-3.3-1.27-4.79-2.38-1.83-1.34-3.21-2.96-4.15-4.85-.94-1.88-1.41-3.99-1.41-6.31,0-1.8,.27-3.48,.81-5.06,.54-1.58,1.35-3.03,2.42-4.34,.75-.92,1.6-1.74,2.56-2.47,.96-.72,2.01-1.35,3.16-1.87,1.01-.45,2.09-.77,3.25-.97,1.16-.19,2.88-.29,5.15-.29h12.21m0-10h-12.21c-2.88,0-5.04,.13-6.78,.42-2,.33-3.93,.91-5.71,1.71-.02,0-.03,.01-.05,.02-1.78,.81-3.46,1.81-5.01,2.97-.02,.01-.03,.03-.05,.04-1.58,1.2-3.02,2.59-4.26,4.11-1.81,2.24-3.19,4.72-4.12,7.4-.9,2.65-1.35,5.44-1.35,8.32,0,3.87,.82,7.48,2.45,10.76,1.65,3.32,4.06,6.16,7.17,8.45,2.48,1.84,5.19,3.17,8.06,3.97,2.58,.72,5.81,1.07,9.85,1.07h13.33c5.52,0,10-4.48,10-10v-.29c0-1.44-.31-2.84-.89-4.13v-13.8c0-2.18-.69-4.19-1.87-5.83h0c1.88-3.1,1.94-6.96,.17-10.11-1.77-3.15-5.1-5.1-8.72-5.1h0Z"/>
      </g>
      <g>
        <path class="cls-4" d="M411.65,700.04c-3.58,0-6.36-.29-8.51-.89-2.28-.63-4.44-1.71-6.43-3.18-2.45-1.8-4.35-4.04-5.65-6.64-1.28-2.58-1.93-5.45-1.93-8.53,0-2.34,.36-4.59,1.08-6.68,.74-2.15,1.84-4.12,3.26-5.88,.99-1.22,2.14-2.33,3.42-3.3,1.29-.96,2.66-1.78,4.11-2.44,1.42-.64,2.92-1.09,4.51-1.35,1.45-.24,3.4-.36,5.97-.36h16.15c1.81,0,3.47,.97,4.36,2.55,.89,1.57,.85,3.5-.09,5.05l-3.04,5c-.91,1.49-2.53,2.4-4.27,2.4h-.23c-1.12,0-2.2-.38-3.07-1.05h-9.81c-1.89,0-3.02,.18-3.64,.33-.61,.15-1.1,.36-1.45,.62-.74,.56-1.3,1.22-1.67,1.99-.39,.8-.57,1.69-.57,2.73,0,1.14,.19,2.09,.55,2.84,.33,.69,.83,1.26,1.54,1.75,.49,.35,1.01,.58,1.61,.73,.45,.11,1.55,.29,3.81,.29h12.95l.03-.02c.87-.66,1.94-1.02,3.03-1.02h.39c1.8,0,3.47,.97,4.36,2.54,.89,1.57,.86,3.5-.08,5.04l-3.06,5.06c-.91,1.5-2.53,2.41-4.28,2.41h-13.34Z"/>
        <path class="cls-4" d="M427.62,665.79l-3.04,5h-.23l.04-.37v-.08c0-.18-.08-.32-.23-.43-.15-.11-.34-.17-.57-.17h-12.12c-1.94,0-3.55,.16-4.83,.47-1.28,.32-2.36,.8-3.25,1.47-1.4,1.07-2.46,2.34-3.18,3.81-.72,1.48-1.08,3.12-1.08,4.91,0,1.91,.35,3.58,1.05,5.03,.7,1.45,1.75,2.67,3.16,3.65,.99,.7,2.09,1.2,3.3,1.49,1.22,.3,2.88,.44,5,.44h14.09c.2,0,.37-.03,.53-.08,.15-.05,.32-.15,.5-.29l.89-.68h.39l-3.06,5.06h-13.34c-3.08,0-5.47-.23-7.17-.71-1.7-.47-3.3-1.27-4.79-2.38-1.83-1.34-3.21-2.96-4.15-4.85-.93-1.88-1.4-3.99-1.4-6.31,0-1.8,.27-3.48,.81-5.06,.54-1.58,1.35-3.03,2.42-4.34,.75-.92,1.6-1.74,2.56-2.47,.96-.72,2.01-1.35,3.16-1.87,1.01-.45,2.09-.77,3.25-.97,1.16-.19,2.88-.29,5.15-.29h16.15m.43,24.19h0m-.44-34.19h-16.15c-2.88,0-5.04,.13-6.78,.42-2.01,.33-3.93,.91-5.72,1.71-.02,0-.03,.01-.05,.02-1.78,.81-3.46,1.81-5.01,2.97-.02,.01-.03,.02-.05,.04-1.59,1.21-3.03,2.6-4.27,4.13-1.8,2.22-3.18,4.7-4.11,7.39-.9,2.63-1.36,5.43-1.36,8.32,0,3.86,.82,7.48,2.45,10.75,1.65,3.32,4.06,6.16,7.17,8.45,2.48,1.84,5.19,3.18,8.06,3.98,2.58,.72,5.8,1.07,9.84,1.07h13.34c3.5,0,6.74-1.83,8.55-4.82l2.94-4.86c.99-1.55,1.57-3.4,1.57-5.38,0-5.37-4.23-9.76-9.55-9.99,1.89-.81,3.51-2.19,4.61-4l3.04-5c1.88-3.09,1.94-6.95,.17-10.1-1.77-3.15-5.1-5.1-8.72-5.1h0Zm0,20h0Zm-18.42,4.1c.29-.05,1.01-.15,2.27-.15h8.41c1.2,.6,2.51,.95,3.87,1.03-.18,.08-.36,.16-.54,.25h-11.56c-1.44,0-2.19-.08-2.48-.13-.01-.11-.03-.27-.03-.49s.02-.41,.06-.52h0Z"/>
      </g>
      <g>
        <path class="cls-4" d="M432.35,700.04c-2.76,0-5-2.24-5-5v-.29c0-1.03,.32-2.02,.89-2.85v-22.97c-.58-.83-.89-1.82-.89-2.85v-.29c0-2.76,2.24-5,5-5h6.54c2.76,0,5,2.24,5,5v.29c0,1.01-.31,1.99-.87,2.82v23.04c.56,.82,.87,1.8,.87,2.82v.29c0,2.76-2.24,5-5,5h-6.54Z"/>
        <path class="cls-4" d="M438.89,665.79v.29l-.55,.51c-.12,.11-.21,.22-.25,.32-.05,.1-.07,.23-.07,.38v26.18c0,.17,.03,.31,.08,.44,.06,.12,.14,.23,.24,.33l.55,.51v.29h-6.54v-.29l.55-.51c.12-.09,.21-.21,.26-.33,.06-.12,.08-.27,.08-.44v-26.18c0-.14-.03-.26-.08-.38-.05-.12-.14-.22-.26-.32l-.55-.51v-.29h6.54m0-10h-6.54c-5.52,0-10,4.48-10,10v.29c0,1.44,.31,2.85,.89,4.13v20.41c-.58,1.28-.89,2.69-.89,4.13v.29c0,5.52,4.48,10,10,10h6.54c5.52,0,10-4.48,10-10v-.29c0-1.42-.3-2.81-.87-4.08v-20.52c.57-1.27,.87-2.66,.87-4.08v-.29c0-5.52-4.48-10-10-10h0Z"/>
      </g>
      <g>
        <path class="cls-4" d="M490.61,700.04c-2.76,0-5-2.24-5-5v-.29c0-1.03,.32-2.02,.89-2.85v-7.79l-8.14-9.49c-.89,.74-2.02,1.17-3.21,1.17h-.23c-1.16,0-2.22-.39-3.07-1.05h-4.24v17.2c.56,.82,.87,1.8,.87,2.82v.29c0,2.76-2.24,5-5,5h-6.59c-2.76,0-5-2.24-5-5v-.29c0-1.05,.33-2.07,.94-2.91v-17.1h-6.83l-.23,.16c-.85,.59-1.85,.89-2.85,.89-.7,0-1.4-.15-2.06-.44l-.27-.12c-1.3-.59-2.28-1.7-2.71-3.06-.43-1.36-.26-2.83,.47-4.06l2.9-4.88c.9-1.51,2.53-2.44,4.3-2.44h39.37c2.76,0,5,2.24,5,5,0,0,0,.38,0,.42l3.7,4.34,3.44-4.27c0-.07,0-.48,0-.48,0-2.76,2.24-5,5-5h7.41c1.93,0,3.69,1.11,4.52,2.86s.57,3.81-.65,5.31l-12.04,14.71v8.23c.58,.83,.89,1.83,.89,2.85v.29c0,2.76-2.24,5-5,5h-6.57Z"/>
        <path class="cls-4" d="M509.46,665.79h0m0,0l-13.17,16.1v11.59c0,.17,.02,.31,.08,.44,.06,.12,.14,.23,.27,.33l.55,.51v.29h-6.57v-.29l.57-.51c.1-.09,.18-.21,.23-.33,.06-.12,.09-.27,.09-.44v-11.22l-13.64-15.9-2.71,4.43h-.23v-.46c0-.18-.07-.32-.21-.43-.14-.11-.32-.17-.55-.17h-11.55v23.74c0,.19,.02,.35,.05,.46,.04,.11,.11,.21,.22,.31l.6,.51v.29h-6.59v-.29l.59-.51c.12-.09,.21-.21,.27-.33,.05-.12,.08-.27,.08-.44v-23.74h-13.04c-.15,0-.3,.03-.43,.08-.14,.05-.32,.17-.55,.35l-.89,.62-.27-.12,2.9-4.88h39.37v.29l-.48,.37c-.06,.07-.11,.15-.16,.24-.05,.09-.07,.17-.07,.24,0,.22,.25,.62,.76,1.2,.07,.08,.13,.15,.18,.21l8.58,10.06,8.09-10.06s.09-.12,.18-.23c.48-.54,.71-.93,.71-1.17,0-.07-.03-.15-.07-.24-.04-.09-.1-.17-.15-.24l-.44-.37v-.29h7.41m0-10h-7.42c-3.63,0-6.81,1.94-8.56,4.83-1.75-2.9-4.93-4.83-8.56-4.83h-39.37c-3.53,0-6.79,1.86-8.59,4.89l-2.9,4.88c-1.46,2.45-1.8,5.41-.94,8.13,.86,2.72,2.84,4.94,5.44,6.11l.27,.12c1.31,.59,2.7,.88,4.09,.88,1.54,0,3.07-.35,4.47-1.05h.45v10.79c-.61,1.31-.94,2.75-.94,4.23v.29c0,5.52,4.48,10,10,10h6.59c5.52,0,10-4.48,10-10v-.29c0-1.42-.3-2.81-.87-4.08v-10.15c.74,.17,1.51,.27,2.3,.27h.23c.6,0,1.2-.05,1.78-.16l4.57,5.33v4.66c-.58,1.28-.89,2.69-.89,4.13v.29c0,5.52,4.48,10,10,10h6.57c5.52,0,10-4.48,10-10v-.29c0-1.44-.31-2.85-.89-4.13v-5.16l10.81-13.21c1.48-1.74,2.37-4,2.37-6.46,0-5.52-4.47-10-10-10h0Zm0,20h0Z"/>
      </g>
      <g>
        <path class="cls-4" d="M542.03,700.04c-3.58,0-6.36-.29-8.51-.89-2.29-.64-4.45-1.71-6.43-3.19-2.45-1.8-4.36-4.04-5.65-6.64-1.28-2.57-1.93-5.44-1.93-8.53,0-2.33,.36-4.57,1.08-6.67,.74-2.15,1.84-4.12,3.27-5.88,.99-1.22,2.14-2.33,3.42-3.3,1.29-.97,2.67-1.78,4.11-2.44,1.42-.64,2.92-1.09,4.51-1.35,1.43-.24,3.38-.35,5.96-.35h12.22c1.81,0,3.47,.97,4.36,2.55s.85,3.5-.09,5.05l-2.25,3.7c1.97,.67,3.39,2.54,3.39,4.74v15.08c.58,.83,.89,1.83,.89,2.85v.29c0,2.76-2.24,5-5,5h-13.34Zm-1.64-14.05c.46,.02,1,.04,1.64,.04h2.69v-.19h-4.12s-.15,.11-.2,.15Z"/>
        <path class="cls-4" d="M554.06,665.79l-3.04,5h-.27l.04-.37v-.08c0-.18-.08-.32-.23-.43-.16-.11-.35-.17-.58-.17h-8.14c-1.93,0-3.54,.16-4.82,.47-1.28,.32-2.37,.8-3.25,1.47-1.4,1.07-2.46,2.34-3.18,3.81-.71,1.48-1.07,3.12-1.07,4.91,0,1.91,.34,3.58,1.05,5.03,.7,1.45,1.75,2.67,3.16,3.65,.99,.7,2.09,1.2,3.3,1.49,1.21,.3,2.88,.44,5,.44h7.69v-10.19h-10.27c-.2,0-.37,.03-.53,.08-.15,.06-.32,.15-.51,.29l-.89,.68-.28-.16,2.95-4.9h14.27v16.65c0,.17,.03,.31,.09,.44,.06,.12,.15,.23,.26,.33l.55,.51v.29h-13.34c-3.08,0-5.47-.23-7.17-.71-1.7-.47-3.3-1.27-4.79-2.38-1.83-1.34-3.22-2.96-4.15-4.85-.94-1.88-1.41-3.99-1.41-6.31,0-1.8,.28-3.48,.81-5.06,.54-1.58,1.34-3.03,2.41-4.34,.75-.92,1.6-1.74,2.56-2.47,.96-.72,2.01-1.35,3.16-1.87,1.01-.45,2.08-.77,3.25-.97,1.16-.19,2.88-.29,5.14-.29h12.22m0-10h-12.22c-2.89,0-5.04,.13-6.78,.42-2,.33-3.92,.91-5.71,1.71-1.82,.83-3.5,1.83-5.05,2.99-.02,.01-.03,.02-.05,.04-1.6,1.21-3.04,2.61-4.28,4.14-1.8,2.21-3.18,4.7-4.11,7.39-.9,2.64-1.36,5.43-1.36,8.31,0,3.87,.83,7.49,2.45,10.76,1.64,3.3,4.05,6.14,7.16,8.43,2.47,1.84,5.18,3.18,8.06,3.98,2.59,.72,5.81,1.07,9.85,1.07h13.34c5.52,0,10-4.48,10-10v-.29c0-1.44-.31-2.85-.89-4.13v-13.79c0-2.17-.69-4.19-1.87-5.83h0c1.88-3.1,1.94-6.96,.17-10.11-1.77-3.15-5.1-5.1-8.72-5.1h0Z"/>
      </g>
      <g>
        <path class="cls-4" d="M578.31,700.55c-2.9,0-5.67-.39-8.24-1.16-2.67-.79-5.06-2-7.09-3.58-2.5-1.88-4.48-4.18-5.82-6.78-1.36-2.65-2.05-5.55-2.05-8.63s.7-5.96,2.07-8.62c1.33-2.57,3.28-4.88,5.81-6.84,2-1.55,4.38-2.73,7.08-3.53,2.58-.76,5.35-1.15,8.25-1.15s5.7,.39,8.27,1.15c2.69,.79,5.08,1.98,7.08,3.52,2.54,1.96,4.51,4.26,5.84,6.86,1.36,2.65,2.05,5.55,2.05,8.61s-.7,5.95-2.07,8.61c-1.33,2.57-3.29,4.87-5.83,6.82-2.02,1.57-4.41,2.77-7.09,3.57-2.56,.76-5.34,1.15-8.25,1.15Zm0-26.35c-2.69,0-4.74,.63-6.27,1.94-1.33,1.14-1.93,2.45-1.93,4.26s.59,3.13,1.93,4.27c1.53,1.31,3.58,1.94,6.27,1.94s4.75-.64,6.29-1.95c1.34-1.13,1.93-2.45,1.93-4.27s-.58-3.1-1.93-4.25c-1.54-1.31-3.6-1.95-6.29-1.95Z"/>
        <path class="cls-4" d="M578.31,665.27c2.46,0,4.74,.32,6.85,.94,2.12,.62,3.93,1.52,5.44,2.68,1.96,1.51,3.45,3.24,4.44,5.18,1,1.94,1.5,4.06,1.5,6.33s-.5,4.36-1.51,6.31c-1,1.94-2.49,3.66-4.44,5.16-1.53,1.19-3.35,2.11-5.46,2.74-2.11,.63-4.38,.95-6.83,.95s-4.69-.31-6.8-.95c-2.11-.63-3.93-1.55-5.46-2.74-1.97-1.48-3.45-3.19-4.45-5.13-1-1.93-1.5-4.05-1.5-6.34s.5-4.37,1.51-6.32c1-1.95,2.49-3.68,4.43-5.19,1.51-1.17,3.32-2.06,5.43-2.68,2.12-.62,4.39-.94,6.83-.94m0,26.35c3.89,0,7.06-1.05,9.53-3.14,2.47-2.09,3.69-4.79,3.69-8.08s-1.23-5.97-3.69-8.06c-2.46-2.09-5.64-3.14-9.53-3.14s-7.06,1.05-9.51,3.14c-2.45,2.1-3.68,4.78-3.68,8.06s1.23,5.98,3.68,8.08c2.45,2.09,5.62,3.14,9.51,3.14m0-36.35c-3.37,0-6.62,.45-9.66,1.35-3.29,.97-6.22,2.44-8.71,4.36-3.14,2.43-5.56,5.3-7.22,8.53-1.73,3.35-2.62,7.02-2.62,10.89s.88,7.55,2.61,10.91c1.69,3.26,4.13,6.12,7.26,8.49,2.51,1.94,5.44,3.42,8.7,4.39,3,.9,6.26,1.36,9.65,1.36s6.67-.46,9.69-1.37c3.25-.96,6.18-2.45,8.71-4.41,3.11-2.4,5.53-5.25,7.2-8.47,1.75-3.38,2.63-7.04,2.63-10.91s-.88-7.54-2.61-10.9c-1.66-3.24-4.1-6.11-7.24-8.53-2.48-1.91-5.42-3.38-8.71-4.35-3.01-.89-6.27-1.35-9.67-1.35h0Zm-3.18,24.83s.08-.08,.16-.15c.57-.49,1.59-.74,3.02-.74s2.46,.26,3.06,.76c.07,.06,.12,.11,.15,.14,0,.05,.02,.15,.02,.3,0,.16-.01,.26-.02,.32-.03,.03-.07,.07-.14,.13-.6,.51-1.63,.77-3.06,.77s-2.44-.25-3.02-.75c-.08-.07-.12-.11-.15-.14,0-.05-.02-.16-.02-.33,0-.16,.01-.26,.02-.31h0Z"/>
      </g>
      <g>
        <path class="cls-4" d="M614.54,701c-1.79,0-3.44-.96-4.34-2.51l-17.34-30.22c-.89-1.55-.88-3.45,0-4.99,.89-1.54,2.54-2.49,4.33-2.49h7.02c2.76,0,5,2.24,5,5v.29c0,.36-.04,.71-.11,1.06l5.52,9.79,5.65-9.83c-.07-.33-.11-.68-.11-1.02v-.29c0-2.76,2.24-5,5-5h6.73c1.78,0,3.43,.95,4.33,2.5,.89,1.54,.9,3.45,0,5l-17.36,30.22c-.89,1.55-2.55,2.51-4.34,2.51h0Z"/>
        <path class="cls-4" d="M631.9,665.79h0m0,0l-17.36,30.22-17.34-30.22h7.02v.29l-.41,.37c-.09,.08-.16,.17-.21,.27-.05,.1-.08,.18-.08,.25,0,.12,.05,.31,.14,.56,.09,.25,.22,.52,.39,.81l10.55,18.71,10.77-18.73c.17-.3,.3-.56,.38-.78,.08-.22,.12-.39,.12-.52,0-.09-.02-.18-.06-.27-.03-.08-.09-.16-.17-.22l-.46-.43v-.29h6.73m0-10h-6.73c-5.52,0-10,4.48-10,10v.16l-.5,.87-.45-.8v-.23c0-5.52-4.48-10-10-10h-7.02c-3.57,0-6.87,1.9-8.65,4.99-1.79,3.09-1.8,6.89-.02,9.99l17.34,30.22c1.78,3.11,5.09,5.02,8.67,5.02h0c3.58,0,6.89-1.91,8.67-5.02l17.24-30.01c.92-1.51,1.45-3.29,1.45-5.19,0-5.52-4.47-10-10-10h0Zm0,20h0Z"/>
      </g>
      <g>
        <path class="cls-4" d="M659.78,687.05c-1.12,0-2.2-.38-3.07-1.05h-18.02c-1.73,0-3.33-.89-4.24-2.35s-1.01-3.3-.25-4.85l1.96-4.01c.84-1.71,2.58-2.8,4.49-2.8h22.4c1.8,0,3.45,.96,4.34,2.52s.87,3.48-.04,5.02l-3,5.07c-.9,1.52-2.54,2.45-4.3,2.45h-.28Z"/>
        <path class="cls-4" d="M663.06,676.98l-3,5.07h-.28l.04-.41v-.08c0-.16-.07-.3-.21-.4-.14-.1-.34-.16-.58-.16h-20.34l1.96-4.01h22.4m0-10h-22.4c-3.82,0-7.3,2.17-8.98,5.6l-1.96,4.01c-1.52,3.1-1.33,6.76,.5,9.69s5.03,4.71,8.48,4.71h16.62c1.37,.68,2.9,1.05,4.47,1.05h.28c3.53,0,6.81-1.87,8.61-4.91l3-5.07c1.83-3.09,1.86-6.93,.08-10.05-1.78-3.12-5.1-5.05-8.69-5.05h0Zm0,20h0Z"/>
      </g>
      <g>
        <path class="cls-4" d="M650.04,700.04c-3.58,0-6.37-.29-8.51-.89-2.28-.64-4.45-1.71-6.43-3.18-2.45-1.8-4.36-4.04-5.65-6.63-1.28-2.59-1.93-5.46-1.93-8.54,0-2.32,.36-4.56,1.08-6.67,.74-2.16,1.84-4.13,3.28-5.9,.96-1.2,2.12-2.31,3.41-3.3,1.28-.96,2.65-1.78,4.11-2.44,1.42-.64,2.92-1.09,4.51-1.35,1.44-.24,3.39-.36,5.96-.36h16.15c1.81,0,3.47,.97,4.36,2.55s.85,3.5-.08,5.05l-3.04,5c-.91,1.49-2.53,2.4-4.27,2.4h-.23c-1.12,0-2.2-.38-3.07-1.05h-9.81c-1.88,0-3.02,.18-3.64,.33-.6,.15-1.1,.36-1.44,.61-.75,.57-1.31,1.23-1.69,2-.38,.79-.57,1.68-.57,2.72,0,1.14,.18,2.09,.55,2.84,.33,.69,.83,1.26,1.54,1.76,.49,.35,1.01,.58,1.61,.73,.45,.11,1.55,.29,3.81,.29h12.95l.03-.02c.87-.67,1.94-1.03,3.04-1.03h.39c1.8,0,3.47,.97,4.36,2.54,.89,1.57,.86,3.5-.08,5.04l-3.07,5.06c-.91,1.5-2.53,2.41-4.28,2.41h-13.34Z"/>
        <path class="cls-4" d="M666,665.79l-3.04,5h-.23l.05-.37v-.08c0-.18-.08-.32-.23-.43-.16-.11-.35-.17-.57-.17h-12.12c-1.94,0-3.54,.16-4.82,.47-1.28,.32-2.36,.8-3.25,1.47-1.41,1.07-2.46,2.34-3.18,3.81-.71,1.48-1.07,3.12-1.07,4.91,0,1.91,.35,3.58,1.05,5.03,.7,1.45,1.75,2.67,3.16,3.65,.99,.7,2.09,1.2,3.3,1.49,1.22,.3,2.88,.44,5,.44h14.09c.2,0,.37-.03,.53-.08,.15-.05,.32-.15,.5-.29l.89-.68h.39l-3.07,5.06h-13.34c-3.08,0-5.47-.23-7.17-.71-1.7-.47-3.3-1.27-4.79-2.38-1.83-1.34-3.21-2.96-4.16-4.85-.93-1.88-1.4-3.99-1.4-6.31,0-1.8,.28-3.48,.81-5.06,.54-1.58,1.35-3.03,2.42-4.34,.74-.92,1.6-1.74,2.56-2.47,.96-.72,2.01-1.35,3.16-1.87,1.01-.45,2.09-.77,3.25-.97,1.16-.19,2.88-.29,5.14-.29h16.15m.44,24.19h0m-.44-34.19h-16.15c-2.89,0-5.04,.13-6.78,.42-2,.33-3.92,.91-5.71,1.71-.02,0-.03,.01-.05,.02-1.78,.81-3.47,1.82-5.02,2.98-1.65,1.25-3.09,2.65-4.32,4.17-1.8,2.22-3.18,4.7-4.11,7.39-.9,2.66-1.35,5.44-1.35,8.31,0,3.85,.82,7.47,2.44,10.74,1.66,3.33,4.07,6.17,7.17,8.46,2.48,1.84,5.19,3.18,8.06,3.97,2.58,.72,5.81,1.07,9.85,1.07h13.34c3.5,0,6.74-1.83,8.55-4.82l2.94-4.86c.99-1.55,1.57-3.4,1.57-5.38,0-5.37-4.23-9.76-9.55-9.99,1.89-.81,3.52-2.19,4.62-4l3.04-5c1.87-3.09,1.94-6.95,.17-10.09s-5.1-5.1-8.72-5.1h0Zm0,20h0Zm-18.42,4.1c.3-.05,1-.15,2.27-.15h8.41c1.2,.6,2.51,.95,3.87,1.03-.18,.08-.36,.16-.54,.25h-11.56c-1.44,0-2.18-.08-2.48-.13-.01-.11-.03-.27-.03-.49s.02-.41,.06-.52h0Z"/>
      </g>
      <g>
        <path class="cls-4" d="M696.31,700.04c-2.76,0-5-2.24-5-5v-.29c0-1.04,.33-2.05,.92-2.89-.13-1.73-.76-3.09-1.97-4.25-1.42-1.35-3.16-1.99-5.47-1.99-.35,0-.72,0-1.12,.04-.45,.03-.93,.07-1.43,.13-.2,.02-.39,.03-.58,.03-.15,0-.3,0-.44-.02v6.09c.57,.83,.89,1.82,.89,2.85v.29c0,2.76-2.24,5-5,5h-6.54c-2.76,0-5-2.24-5-5v-.29c0-1.01,.31-1.99,.87-2.81v-23.05c-.56-.82-.87-1.8-.87-2.81v-.29c0-2.76,2.24-5,5-5h18.21c3.29,0,6.18,.91,8.59,2.69,2.51,1.84,4.19,4.46,4.84,7.56,.42,2-.42,4.06-2.13,5.19l-.54,.36c1.04,.83,1.99,1.78,2.86,2.85,3.05,3.72,4.6,8.39,4.6,13.88v1.73c0,2.76-2.24,5-5,5h-5.67Zm-15.1-25.01l.41-.29h-.41v.29Z"/>
        <path class="cls-4" d="M688.76,665.79c2.2,0,4.07,.57,5.61,1.71,1.55,1.14,2.52,2.66,2.92,4.57l-8.19,5.44c3.95,.55,7.08,2.25,9.39,5.09,2.32,2.84,3.48,6.41,3.48,10.72v1.73h-5.67v-.29l.62-.51c.1-.09,.19-.21,.24-.33,.06-.12,.08-.27,.08-.44v-.92c0-3.44-1.18-6.29-3.54-8.54-2.36-2.25-5.33-3.37-8.93-3.37-.46,0-.94,.01-1.46,.05-.52,.03-1.07,.08-1.66,.15l8.66-6.11c.64-.47,1.08-.87,1.33-1.21,.25-.34,.37-.71,.37-1.12,0-.82-.38-1.47-1.16-1.95-.78-.47-1.86-.71-3.25-.71h-11.39v23.74c0,.17,.03,.31,.08,.44,.05,.12,.14,.23,.26,.33l.55,.51v.29h-6.54v-.29l.55-.51c.11-.09,.19-.21,.24-.33,.05-.12,.07-.27,.07-.44v-26.18c0-.15-.02-.28-.06-.38-.04-.1-.13-.21-.25-.32l-.55-.51v-.29h18.21m0-10h-18.21c-5.52,0-10,4.48-10,10v.29c0,1.42,.3,2.8,.87,4.07v20.53c-.57,1.27-.87,2.65-.87,4.07v.29c0,5.52,4.48,10,10,10h6.54c4.56,0,8.4-3.05,9.61-7.22,1.21,4.17,5.05,7.22,9.61,7.22h5.67c5.52,0,10-4.48,10-10v-1.73c0-6.62-1.9-12.32-5.65-16.95,.92-1.93,1.22-4.16,.76-6.35-.91-4.32-3.26-7.98-6.79-10.58-3.21-2.38-7.21-3.65-11.53-3.65h0Zm-2.06,36.19c-.11-.37-.23-.73-.38-1.09,.24,.11,.38,.24,.48,.34,.04,.04,.07,.07,.11,.11-.08,.21-.15,.42-.21,.64h0Z"/>
      </g>
      <g>
        <path class="cls-4" d="M734.26,701c-1.23,0-2.44-.45-3.38-1.32l-14.42-13.25v5.5c.56,.82,.87,1.8,.87,2.82v.29c0,2.76-2.24,5-5,5h-6.13c-2.76,0-5-2.24-5-5v-.29c0-1.05,.33-2.07,.93-2.91v-27.06c0-1.99,1.18-3.79,3.01-4.59,.64-.28,1.32-.41,1.99-.41,1.24,0,2.47,.46,3.41,1.35l14.42,13.47v-5.6c-.6-.84-.94-1.86-.94-2.92v-.29c0-2.76,2.24-5,5-5h6.13c2.76,0,5,2.24,5,5v.29c0,1.03-.32,2.02-.89,2.85v27.08c0,1.98-1.17,3.78-2.99,4.58-.65,.28-1.33,.42-2.01,.42Z"/>
        <path class="cls-4" d="M707.13,664.78l22.83,21.33v-18.82c-.02-.15-.05-.28-.09-.38-.05-.1-.13-.21-.25-.32l-.6-.51v-.29h6.13v.29l-.58,.51c-.1,.1-.18,.2-.24,.32-.05,.12-.07,.24-.07,.38v28.71l-22.8-20.95v18.42c0,.17,.02,.31,.08,.44,.05,.12,.13,.23,.24,.33l.55,.51v.29h-6.13v-.29l.61-.51c.11-.09,.19-.21,.24-.33,.05-.12,.08-.27,.08-.44v-28.7m0-10c-1.34,0-2.7,.27-3.98,.83-3.65,1.59-6.02,5.19-6.02,9.17v25.75c-.61,1.31-.93,2.75-.93,4.22v.29c0,5.52,4.48,10,10,10h6.13c4.43,0,8.19-2.88,9.5-6.88l5.67,5.21c1.88,1.73,4.31,2.64,6.77,2.64,1.36,0,2.73-.28,4.02-.84,3.63-1.6,5.98-5.19,5.98-9.16v-25.8c.58-1.28,.89-2.69,.89-4.13v-.29c0-5.52-4.48-10-10-10h-6.13c-4.43,0-8.19,2.88-9.5,6.88l-5.56-5.2c-1.89-1.77-4.34-2.69-6.83-2.69h0Z"/>
      </g>
      <g>
        <path class="cls-4" d="M759.37,701c-1.84,0-3.53-1.01-4.4-2.63l-4.93-9.16-.92,3.43c.3,.65,.46,1.37,.46,2.1v.29c0,2.76-2.24,5-5,5h-5.9c-1.58,0-3.07-.75-4.01-2.02-.94-1.27-1.23-2.91-.78-4.42l9.08-30.26c.58-1.95,2.29-3.34,4.31-3.54,.16-.02,.32-.02,.48-.02,1.84,0,3.55,1.02,4.42,2.67l7.37,13.99,7.14-13.94c.86-1.68,2.59-2.72,4.45-2.72,.16,0,.31,0,.47,.02,2.04,.19,3.75,1.6,4.33,3.56l8.95,30.26c.45,1.51,.15,3.15-.79,4.41-.94,1.26-2.43,2.01-4.01,2.01h-5.95c-2.76,0-5-2.24-5-5v-.29c0-.71,.15-1.41,.44-2.04l-1.04-3.62-4.7,9.19c-.85,1.65-2.54,2.7-4.4,2.72h-.05Z"/>
        <path class="cls-4" d="M771.13,664.78l8.95,30.26h-5.95v-.29l.57-.51c.08-.07,.15-.16,.2-.29,.05-.13,.08-.26,.08-.39,0-.07-.01-.17-.05-.31-.03-.14-.07-.3-.14-.47l-4.96-17.21-10.46,20.44-10.9-20.24-4.56,16.99c-.04,.15-.08,.29-.11,.41-.02,.12-.03,.24-.03,.35,0,.15,.02,.29,.07,.41,.05,.13,.11,.23,.2,.31l.53,.51v.29h-5.9l9.08-30.26,11.85,22.5,11.53-22.5m0-10c-3.72,0-7.18,2.08-8.9,5.44l-2.75,5.37-2.88-5.47c-1.74-3.3-5.16-5.34-8.84-5.34-.32,0-.64,.02-.97,.05-4.04,.39-7.45,3.19-8.61,7.08l-9.08,30.26c-.91,3.03-.33,6.31,1.56,8.84,1.89,2.54,4.86,4.03,8.02,4.03h5.9c2.71,0,5.16-1.07,6.96-2.82,1.88,2.37,4.75,3.79,7.84,3.79,.04,0,.07,0,.11,0,3.04-.03,5.86-1.44,7.71-3.77,1.8,1.73,4.24,2.8,6.94,2.8h5.95c3.15,0,6.12-1.49,8.01-4.01,1.89-2.53,2.47-5.8,1.58-8.82l-8.95-30.26c-1.16-3.92-4.59-6.74-8.66-7.12-.31-.03-.62-.04-.93-.04h0Z"/>
      </g>
      <g>
        <path class="cls-4" d="M800,700.04c-3.58,0-6.36-.29-8.51-.89-2.28-.64-4.45-1.71-6.43-3.19-2.44-1.79-4.35-4.03-5.65-6.63-1.28-2.59-1.93-5.46-1.93-8.54,0-2.32,.36-4.57,1.07-6.67,.74-2.15,1.84-4.13,3.28-5.89,.98-1.21,2.13-2.32,3.41-3.3,1.28-.97,2.66-1.78,4.11-2.44,1.42-.64,2.92-1.09,4.5-1.35,1.44-.24,3.39-.36,5.96-.36h16.15c1.81,0,3.47,.97,4.36,2.55s.85,3.5-.08,5.05l-3.04,5c-.91,1.49-2.53,2.4-4.27,2.4h-.23c-1.12,0-2.2-.38-3.07-1.05h-9.81c-1.88,0-3.02,.18-3.63,.33-.61,.15-1.11,.36-1.44,.61-.75,.57-1.31,1.23-1.69,2-.38,.79-.57,1.68-.57,2.72,0,1.14,.18,2.09,.55,2.83,.34,.7,.83,1.27,1.54,1.76,.49,.35,1.01,.58,1.61,.73,.45,.11,1.55,.29,3.81,.29h12.95l.03-.02c.87-.67,1.94-1.03,3.04-1.03h.39c1.8,0,3.47,.97,4.36,2.54,.89,1.57,.86,3.5-.08,5.04l-3.07,5.06c-.91,1.5-2.53,2.41-4.28,2.41h-13.34Z"/>
        <path class="cls-4" d="M815.96,665.79l-3.04,5h-.23l.04-.37v-.08c0-.18-.08-.32-.23-.43-.16-.11-.35-.17-.58-.17h-12.12c-1.93,0-3.54,.16-4.82,.47-1.28,.32-2.37,.8-3.25,1.47-1.4,1.07-2.46,2.34-3.18,3.81-.71,1.48-1.07,3.12-1.07,4.91,0,1.91,.35,3.58,1.06,5.03,.7,1.45,1.75,2.67,3.15,3.65,.99,.7,2.09,1.2,3.3,1.49,1.22,.3,2.88,.44,5,.44h14.09c.2,0,.37-.03,.53-.08,.15-.05,.32-.15,.5-.29l.89-.68h.39l-3.07,5.06h-13.34c-3.08,0-5.47-.23-7.17-.71-1.7-.47-3.3-1.27-4.79-2.38-1.83-1.34-3.21-2.96-4.16-4.85-.93-1.88-1.4-3.99-1.4-6.31,0-1.8,.27-3.48,.81-5.06,.54-1.58,1.35-3.03,2.42-4.34,.74-.92,1.6-1.74,2.56-2.47,.96-.72,2.01-1.35,3.16-1.87,1.01-.45,2.09-.77,3.25-.97,1.16-.19,2.88-.29,5.14-.29h16.15m.44,24.19h0m-.44-34.19h-16.15c-2.88,0-5.04,.13-6.78,.42-2,.33-3.92,.91-5.71,1.71-1.83,.83-3.52,1.83-5.07,3-1.64,1.25-3.08,2.64-4.32,4.17-1.79,2.2-3.18,4.69-4.1,7.38-.9,2.65-1.35,5.44-1.35,8.31,0,3.86,.82,7.47,2.44,10.74,1.66,3.34,4.07,6.17,7.18,8.46,2.47,1.84,5.19,3.18,8.06,3.97,2.58,.72,5.81,1.07,9.85,1.07h13.34c3.5,0,6.74-1.83,8.55-4.82l2.94-4.86c.99-1.55,1.57-3.4,1.57-5.38,0-5.37-4.23-9.75-9.55-9.99,1.89-.81,3.52-2.19,4.62-4l3.04-5c1.87-3.09,1.94-6.95,.17-10.09s-5.1-5.1-8.72-5.1h0Zm0,20h0Zm-18.42,4.1c.29-.05,1-.15,2.27-.15h8.41c1.2,.6,2.51,.95,3.87,1.03-.18,.08-.36,.16-.54,.25h-11.56c-1.44,0-2.18-.08-2.48-.13-.01-.11-.03-.27-.03-.49,0-.13,0-.36,.06-.52h0Z"/>
      </g>
      <g>
        <path class="cls-4" d="M809.74,687.05c-1.12,0-2.2-.38-3.07-1.05h-18.02c-1.73,0-3.33-.89-4.24-2.36s-1.01-3.3-.25-4.85l1.97-4.01c.84-1.71,2.58-2.8,4.49-2.8h22.39c1.8,0,3.45,.96,4.34,2.52s.87,3.48-.04,5.02l-3,5.07c-.9,1.52-2.54,2.45-4.3,2.45h-.27Z"/>
        <path class="cls-4" d="M813.01,676.98l-3,5.07h-.27l.05-.41v-.08c0-.16-.07-.3-.22-.4-.15-.1-.34-.16-.58-.16h-20.34l1.97-4.01h22.39m0-10h-22.39c-3.81,0-7.3,2.17-8.98,5.6l-1.97,4.01c-1.52,3.1-1.34,6.76,.49,9.69,1.83,2.93,5.03,4.71,8.49,4.71h16.63c1.37,.68,2.9,1.05,4.47,1.05h.27c3.53,0,6.81-1.87,8.61-4.91l3-5.07c1.83-3.09,1.86-6.93,.08-10.05s-5.1-5.05-8.69-5.05h0Zm0,20h0Z"/>
      </g>
      <g>
        <path class="cls-4" d="M848.19,701c-1.23,0-2.44-.45-3.38-1.32l-14.42-13.25v5.5c.56,.82,.87,1.8,.87,2.81v.29c0,2.76-2.24,5-5,5h-6.13c-2.76,0-5-2.24-5-5v-.29c0-1.05,.33-2.07,.93-2.91v-27.07c0-1.99,1.18-3.79,3.01-4.59,.64-.28,1.32-.41,1.99-.41,1.24,0,2.47,.46,3.42,1.35l14.41,13.47v-5.6c-.6-.84-.93-1.86-.93-2.91v-.29c0-2.76,2.24-5,5-5h6.13c2.76,0,5,2.24,5,5v.29c0,1.03-.32,2.02-.89,2.85v27.08c0,1.98-1.17,3.78-2.99,4.58-.65,.28-1.33,.42-2.01,.42Z"/>
        <path class="cls-4" d="M821.06,664.78l22.83,21.33v-18.82c-.01-.15-.04-.28-.09-.38-.04-.1-.13-.21-.25-.32l-.6-.51v-.29h6.13v.29l-.57,.51c-.11,.1-.19,.2-.24,.32-.05,.12-.08,.24-.08,.38v28.71l-22.8-20.95v18.42c0,.17,.02,.31,.08,.44,.05,.12,.13,.23,.24,.33l.55,.51v.29h-6.13v-.29l.61-.51c.11-.09,.19-.21,.25-.33,.05-.12,.08-.27,.08-.44v-28.7m0-10c-1.34,0-2.7,.27-3.98,.83-3.65,1.59-6.02,5.19-6.02,9.17v25.76c-.61,1.31-.93,2.74-.93,4.22v.29c0,5.52,4.48,10,10,10h6.13c4.43,0,8.19-2.88,9.5-6.88l5.67,5.21c1.88,1.73,4.31,2.64,6.77,2.64,1.36,0,2.73-.28,4.02-.84,3.63-1.6,5.98-5.19,5.98-9.16v-25.8c.58-1.28,.89-2.69,.89-4.13v-.29c0-5.52-4.48-10-10-10h-6.13c-4.43,0-8.19,2.89-9.5,6.88l-5.56-5.2c-1.89-1.77-4.34-2.69-6.83-2.69h0Z"/>
      </g>
      <g>
        <path class="cls-4" d="M866.28,700.04c-2.76,0-5-2.24-5-5v-.29c0-1.05,.33-2.07,.93-2.91v-17.11h-6.83l-.24,.17c-.85,.59-1.84,.89-2.84,.89-.71,0-1.42-.15-2.08-.45l-.27-.12c-1.29-.59-2.27-1.7-2.7-3.06-.42-1.36-.25-2.83,.48-4.05l2.91-4.88c.9-1.51,2.53-2.44,4.3-2.44h32.66c1.81,0,3.48,.98,4.36,2.56,.88,1.58,.85,3.51-.1,5.06l-3.07,5c-.91,1.48-2.52,2.39-4.26,2.39h-.23c-1.16,0-2.22-.39-3.07-1.05h-4.24v17.2c.56,.82,.87,1.8,.87,2.82v.29c0,2.76-2.24,5-5,5h-6.59Z"/>
        <path class="cls-4" d="M887.6,665.79h0m0,0l-3.07,5h-.23v-.46c0-.18-.07-.32-.21-.43-.14-.11-.32-.17-.55-.17h-11.55v23.74c0,.19,.02,.35,.05,.46,.04,.11,.11,.21,.22,.31l.6,.51v.29h-6.59v-.29l.6-.51c.12-.09,.2-.21,.26-.33,.05-.12,.08-.27,.08-.44v-23.74h-13.04c-.15,0-.29,.03-.43,.08-.14,.05-.32,.17-.55,.35l-.9,.62-.27-.12,2.91-4.88h32.66m0-10h-32.67c-3.52,0-6.79,1.86-8.59,4.88l-2.91,4.88c-1.46,2.45-1.8,5.39-.95,8.11,.85,2.72,2.82,4.94,5.41,6.11l.27,.12c1.32,.6,2.73,.89,4.13,.89,1.54,0,3.07-.35,4.47-1.05h.45v10.8c-.61,1.31-.93,2.74-.93,4.21v.29c0,5.52,4.48,10,10,10h6.59c5.52,0,10-4.48,10-10v-.29c0-1.42-.3-2.81-.87-4.08v-10.15c.74,.17,1.51,.27,2.3,.27h.23c3.48,0,6.71-1.81,8.53-4.77l2.95-4.81c1.01-1.56,1.6-3.42,1.6-5.42,0-5.52-4.47-10-10-10h0Zm0,20h0Z"/>
      </g>
      <g>
        <path class="cls-4" d="M192.09,505.82c-2.19,0-4.12-1.42-4.77-3.51s.12-4.35,1.92-5.6c51.71-35.91,105.23-62.49,159.05-79.01,44.47-13.65,89.53-20.58,133.91-20.58,96.43,0,156.65,32.06,159.17,33.42,2.21,1.2,3.18,3.84,2.29,6.19-.75,1.97-2.64,3.21-4.67,3.21-.39,0-.78-.04-1.17-.14-30.78-7.39-61.51-11.13-91.33-11.13-69.89,0-124.09,20.67-157.25,38-35.82,18.73-55.25,37.53-55.44,37.72-.93,.91-2.19,1.42-3.49,1.42H192.09Z"/>
        <path class="cls-4" d="M482.2,402.12c96.27,0,156.78,32.82,156.78,32.82-33.22-7.97-64.1-11.27-92.5-11.27-137.26,0-216.19,77.15-216.19,77.15H192.09c111.35-77.31,212.38-98.7,290.11-98.69m0-10h-.02c-44.88,0-90.43,7-135.37,20.8-54.31,16.67-108.28,43.48-160.42,79.68-3.59,2.49-5.15,7.03-3.84,11.2,1.31,4.17,5.17,7.01,9.54,7.01h138.21c2.61,0,5.12-1.02,6.99-2.85,.18-.18,19.58-18.84,54.98-37.23,20.73-10.77,42.82-19.35,65.66-25.5,28.52-7.68,58.31-11.57,88.55-11.57,29.43,0,59.76,3.7,90.16,10.99,.78,.19,1.56,.28,2.34,.28,4.06,0,7.82-2.48,9.33-6.42,1.8-4.69-.16-9.98-4.57-12.37-.65-.35-16.35-8.79-44.17-17.19-25.43-7.68-66.43-16.84-117.38-16.84h0Z"/>
      </g>
      <g>
        <path class="cls-4" d="M920.55,543.26c-.28,0-.57-.02-.86-.07-.62-.11-63.19-11.18-133.26-45.65-41.22-20.28-77-44.59-106.35-72.25-36.8-34.69-63.52-74.77-79.4-119.13-.55-1.53-.32-3.23,.62-4.56s2.46-2.12,4.09-2.12h100.28c-18.45-13.26-53.73-40.24-90.1-76.72-30.92-31.01-56.61-62.76-76.36-94.36-24.81-39.69-40.27-79.28-45.97-117.67-.37-2.47,1.15-4.83,3.54-5.53,.47-.14,.94-.2,1.4-.2,1.93,0,3.74,1.12,4.56,2.96,.25,.55,25.83,56.47,94.46,124.18,40.3,39.77,87.35,75.76,139.83,107,65.63,39.06,140.01,70.73,221.06,94.13,2.39,.69,3.91,3.04,3.56,5.5-.35,2.47-2.46,4.3-4.95,4.3h-236.04c1.69,10.68,8.19,30.87,24.99,54.99,42.01,60.33,119.5,107.11,177.11,135.74,2.22,1.1,3.3,3.67,2.53,6.03-.68,2.08-2.62,3.45-4.75,3.45Z"/>
        <path class="cls-4" d="M498.19,10s100.75,224.74,458.52,328.07h-241.52s-.01,98.15,205.36,200.2c0,0-246.69-42.63-315.15-233.79h116.25S522.73,175.31,498.19,10m0-10c-.93,0-1.88,.13-2.81,.41-4.79,1.41-7.81,6.12-7.08,11.06,5.8,39.08,21.5,79.31,46.68,119.58,19.95,31.92,45.88,63.96,77.06,95.24,29.93,30.03,58.66,53.35,78.35,68.19h-84.99c-3.25,0-6.3,1.58-8.18,4.24-1.87,2.66-2.33,6.07-1.24,9.13,16.15,45.1,43.29,85.84,80.68,121.08,29.71,28,65.9,52.6,107.57,73.1,70.71,34.79,132.04,45.65,134.62,46.09,.57,.1,1.14,.15,1.71,.15,4.26,0,8.14-2.73,9.5-6.89,1.54-4.72-.61-9.86-5.05-12.06-45.41-22.57-84.21-46.74-115.3-71.86-24.75-19.99-44.68-40.6-59.23-61.25-14.96-21.22-21.07-38.11-23.56-48.12h229.81c4.98,0,9.2-3.67,9.9-8.6s-2.34-9.63-7.13-11.01c-80.5-23.25-154.36-54.68-219.54-93.42-52.1-30.97-98.8-66.65-138.82-106.06C532.99,61.86,507.56,6.45,507.31,5.9c-1.65-3.66-5.27-5.9-9.12-5.9h0Z"/>
      </g>
      <g>
        <path class="cls-4" d="M432.34,186.78c-.88,0-1.78-.23-2.57-.71-13.27-7.98-43.58-38.2-44.86-39.48-1.51-1.51-1.9-3.82-.95-5.75,.85-1.72,2.6-2.79,4.48-2.79,.21,0,.43,.01,.65,.04,2.47,.32,5,.49,7.5,.49,52.28,0,95.65-69.76,96.08-70.47,.93-1.52,2.56-2.39,4.26-2.39,.58,0,1.16,.1,1.72,.31,2.24,.82,3.58,3.11,3.22,5.46-9.19,59.12-63.76,111.7-66.08,113.91-.95,.91-2.2,1.38-3.45,1.38Z"/>
        <path class="cls-4" d="M496.93,70.72h0m0,0c-9.04,58.12-64.59,111.06-64.59,111.06-12.9-7.75-43.9-38.73-43.9-38.73,2.74,.36,5.46,.53,8.15,.53,55.68,0,100.34-72.85,100.34-72.85m0-10c-.34,0-.68,.02-1.01,.05-1.71,.17-3.3,.78-4.65,1.71-.84,.58-1.6,1.29-2.25,2.13-.24,.31-.47,.64-.67,.98-1.88,2.99-43.28,67.98-91.75,67.98-2.29,0-4.6-.15-6.86-.44-.43-.06-.87-.08-1.3-.08-3.77,0-7.27,2.14-8.97,5.58-1.89,3.84-1.13,8.46,1.9,11.49,3.26,3.26,32.26,32.09,45.82,40.23,1.6,.96,3.38,1.43,5.15,1.43,2.51,0,4.99-.94,6.9-2.76,2.36-2.25,57.93-55.81,67.52-116.46,.11-.59,.17-1.21,.17-1.83,0-5.2-3.97-9.47-9.04-9.95-.32-.03-.64-.05-.96-.05h0Zm0,20h0Z"/>
      </g>
      <g>
        <path class="cls-4" d="M428.47,278.49c-.85,0-1.68-.21-2.42-.63-.77-.43-19.15-10.75-39.06-34.94-18.26-22.18-41.31-60.78-47.45-118.72-.24-2.26,1.08-4.4,3.2-5.2,.58-.22,1.18-.32,1.77-.32,1.58,0,3.12,.75,4.08,2.1,.22,.31,22.52,31.45,57.49,65.14,32.07,30.88,81.67,70.3,135.87,82.7,2.48,.57,4.14,2.91,3.85,5.44-.29,2.53-2.42,4.44-4.97,4.44h-112.37Z"/>
        <path class="cls-4" d="M344.52,123.68s89.11,125.27,196.32,149.81h-112.37s-72.33-40.04-83.95-149.81m0-10c-1.18,0-2.38,.21-3.54,.65-4.25,1.61-6.88,5.88-6.4,10.41,2.76,26.06,9.09,50.52,18.81,72.68,7.81,17.82,17.82,34.2,29.75,48.69,20.51,24.92,39.69,35.69,40.5,36.14,1.48,.82,3.15,1.25,4.84,1.25h112.37c5.09,0,9.37-3.82,9.94-8.88s-2.75-9.74-7.71-10.87c-23.31-5.34-47.77-16.24-72.69-32.4-20.19-13.1-40.71-29.64-60.96-49.16-34.61-33.35-56.53-64-56.75-64.3-1.92-2.7-4.98-4.2-8.15-4.2h0Z"/>
      </g>
      <g>
        <path class="cls-4" d="M62.95,505.82c-2.29,0-4.3-1.56-4.85-3.82-.58-2.39,.66-4.84,2.92-5.79,40.42-16.96,95.87-47.72,130.46-97.9,14.03-20.36,20.11-37.51,22.58-46.48L10.73,381.76c-.25,.04-.49,.05-.73,.05-2.23,0-4.24-1.5-4.83-3.72-.65-2.46,.65-5.01,3.01-5.94,56.05-21.89,107.41-49.56,152.66-82.23,36.19-26.13,68.58-55.5,96.26-87.3,37.73-43.34,58.81-82.79,64.69-97.6,.77-1.94,2.64-3.16,4.65-3.16,.37,0,.74,.04,1.11,.12,2.4,.55,4.05,2.76,3.88,5.22-2.25,32.28-13.36,83.28-53.47,142.91-15.34,22.8-30.16,39.84-39.07,49.36h277.4c2.63,0,4.81,2.04,4.99,4.66,.18,2.62-1.71,4.94-4.31,5.29l-204.94,28.01c-12.76,34.37-33.45,64.54-61.56,89.72-23.02,20.62-51.02,37.93-83.21,51.46-54.68,22.97-101.91,27.01-103.89,27.17-.14,.01-.27,.02-.41,.02Z"/>
        <path class="cls-4" d="M326.44,106.87c-7.75,111.08-99.45,197.62-99.45,197.62h289.3l-207.93,28.41c-54.24,152.42-245.41,167.91-245.41,167.91,144.66-60.71,157.58-155,157.58-155L10,376.82C257.99,279.95,326.44,106.87,326.44,106.87m0-10c-4.02,0-7.75,2.44-9.29,6.31h0c-.04,.11-4.34,10.79-14.36,27.97-9.24,15.84-25.38,40.59-49.8,68.58-27.43,31.45-59.52,60.5-95.37,86.35-44.84,32.33-95.73,59.72-151.27,81.42-4.74,1.85-7.33,6.96-6.03,11.88,1.18,4.44,5.19,7.44,9.66,7.44,.48,0,.97-.04,1.47-.11l195.43-28.78c-3.29,9.32-9.28,22.77-19.93,38.1-11.89,17.11-27.17,33.2-45.43,47.8-22.95,18.36-50.69,34.43-82.45,47.76-4.53,1.9-7.01,6.81-5.85,11.59,1.1,4.51,5.14,7.63,9.71,7.63,.27,0,.54-.01,.81-.03,2.02-.16,50.02-4.27,105.43-27.55,32.71-13.74,61.18-31.35,84.61-52.35,27.95-25.03,48.73-54.92,61.85-88.89l201.99-27.6c5.21-.71,8.98-5.34,8.62-10.59-.36-5.25-4.72-9.32-9.98-9.32H250.15c8.8-10.04,20.24-24.15,31.96-41.57,14.25-21.19,25.96-42.9,34.78-64.53,11.12-27.23,17.68-54.42,19.53-80.82,.34-4.92-2.95-9.36-7.76-10.45-.74-.17-1.48-.25-2.22-.25h0Zm0,20h0Z"/>
      </g>
      <g>
        <path class="cls-4" d="M357.22,637.01c-1.53,0-9.18-.33-9.18-6.92,0,0,0-.18,0-.23,.22-8.68,.44-17.73,.44-19.01v-12.21h-12.68c-.03,8.1-11.23,8.1-14.91,8.1-9.04,0-10.39-4.34-10.39-6.92,0,0,0-.2,0-.24,.24-8.32,.55-19.62,.55-21.73v-6.68c0-6.23-.28-11.45-.83-15.53-.22-1.61,.36-3.23,1.56-4.34,.93-.86,2.15-1.33,3.4-1.33,.35,0,.7,.04,1.05,.11,5.21,1.12,10.55,2.39,15.85,3.78,2.2,.58,3.74,2.56,3.74,4.84v2.14c3.56-1.44,7.79-2.72,12.67-3.83v-3.55c0-6.91-.25-12.24-.73-15.84-.2-1.51,.3-3.04,1.36-4.14,.95-.98,2.25-1.53,3.6-1.53,.16,0,.32,0,.49,.02,6.78,.66,11.76,1.3,15.23,1.96,3.36,.64,8.99,1.71,8.99,6.76,0,2.4-1.28,4.55-3.41,5.76-.2,.11-.38,.21-.55,.31v6.61c5.53-.45,11.23-.71,17.03-.78,3.92-3.41,6.04-4.54,8.25-4.54,1.93,0,4.36,.58,14.68,7.63,1.9,1.26,2.98,3.25,2.98,5.47s-1.06,4.05-2.92,5.38c-.6,.54-1.05,.95-1.38,1.26v9.57c0,1.2,.14,8.05,.44,20.95,0,.04,0,.08,0,.12,0,8.24-11.72,8.24-15.57,8.24-2.31,0-9.84-.51-9.84-7.02v-.98h-13.67v14.14c0,.72,.06,3.77,.44,16.15,0,.05,0,.1,0,.15,0,7.93-11.26,7.93-16.67,7.93Zm29.89-50.91v-20.71c-4.68,.12-9.25,.37-13.67,.75v19.97h13.67Zm-38.62,0v-15.98c-6.16,1.6-10.31,3.34-12.68,4.8v11.17h12.68Z"/>
        <path class="cls-4" d="M352.71,536.92c13.14,1.28,19.71,2.53,19.71,3.75,0,.61-.29,1.08-.88,1.42-2.06,1.15-3.08,1.83-3.08,2.03v14.72c7.71-.82,15.87-1.25,23.94-1.29,3.3-2.99,5.43-4.53,6.33-4.53,1.32,0,5.28,2.26,11.89,6.78,.52,.34,.77,.78,.77,1.32s-.34,1.01-.99,1.42c-2.2,1.96-3.3,3.07-3.3,3.34v11.45c0,1.28,.15,8.3,.44,21.06,0,2.16-3.52,3.24-10.57,3.24-3.23,0-4.84-.67-4.84-2.02v-5.98h-23.67v19.14c0,1.28,.14,6.72,.44,16.3,0,1.96-3.89,2.93-11.67,2.93-2.79,0-4.18-.64-4.18-1.92v-.1c.29-11.61,.44-17.99,.44-19.14v-17.22h-22.68v4.96c0,2.09-3.3,3.14-9.91,3.14-3.59,0-5.39-.64-5.39-1.92v-.1c.36-12.83,.55-20.12,.55-21.87v-6.68c0-6.48-.29-11.88-.88-16.21,5.35,1.15,10.55,2.4,15.64,3.73v10.44c4.66-3.45,12.78-6.16,22.67-8.08v-7.61c0-7.16-.26-12.66-.78-16.5m15.73,54.18h23.67v-30.79c-8.54,.05-16.48,.51-23.66,1.28v.04h-.01v29.47m-37.63,0h22.68v-27.25c-11.27,2.27-19.23,5.38-22.68,8.59v18.65m21.9-64.18c-2.7,0-5.3,1.09-7.2,3.06-2.12,2.2-3.12,5.25-2.71,8.27,.45,3.32,.68,8.3,.68,14.81-1.3,.34-2.55,.7-3.76,1.08-1.27-2.48-3.55-4.4-6.38-5.14-5.37-1.41-10.78-2.69-16.07-3.83-.7-.15-1.4-.22-2.1-.22-2.49,0-4.93,.93-6.79,2.66-2.39,2.21-3.55,5.45-3.11,8.68,.52,3.86,.79,8.86,.79,14.86v6.68c0,2.05-.31,13.3-.55,21.59,0,.09,0,.19,0,.28v.1c0,4.94,3.06,9.1,7.99,10.86,2.03,.73,4.39,1.06,7.41,1.06,4.43,0,7.76-.4,10.45-1.25,4.38-1.39,6.98-4.02,8.32-6.85h3.82v7.22c0,1.4-.32,14.11-.44,18.89,0,.08,0,.17,0,.25v.1c0,4.43,2.99,11.92,14.18,11.92,4.83,0,8.38-.33,11.19-1.03,5.07-1.27,10.48-5.07,10.48-11.9,0-.1,0-.2,0-.31-.39-12.78-.43-15.45-.43-16v-9.14h4.39c1.11,2.97,3.45,5.39,6.64,6.72,2.09,.87,4.47,1.28,7.49,1.28,4.63,0,8.08-.4,10.86-1.25,4.7-1.44,9.71-5.34,9.71-11.99,0-.08,0-.15,0-.23-.29-12.68-.44-19.69-.44-20.83v-7.3c2.75-2.25,4.3-5.41,4.3-8.9,0-3.85-1.93-7.43-5.18-9.61-10.62-7.27-13.97-8.49-17.48-8.49s-6.42,1.54-10.12,4.57c-2.94,.06-5.85,.16-8.74,.31,1.63-2.02,2.54-4.54,2.54-7.24,0-1.73-.56-7.59-7.72-10.28-1.39-.52-3.08-.96-5.34-1.39-3.62-.69-8.75-1.35-15.68-2.03-.32-.03-.65-.05-.97-.05h0Zm25.73,43.85c1.21-.08,2.44-.14,3.67-.2v10.53h-3.67v-10.33h0Zm-37.63,7.18c.73-.33,1.62-.7,2.68-1.08v4.23s-2.68,0-2.68,0v-3.15h0Z"/>
      </g>
      <g>
        <path class="cls-4" d="M207.35,584.15c-8.98,0-9.95-4.92-9.95-7.03,0-.06,0-.11,0-.17,.07-2.05,.1-4.72,.1-7.93,0-1.98-.18-4.56-.52-7.65-.17-1.55,.39-3.09,1.51-4.17,.94-.9,2.18-1.39,3.46-1.39,.26,0,.52,.02,.78,.06,3.93,.62,8.97,1.76,14.98,3.39h37.35c4.92-3.81,6.6-4.46,8.44-4.46,1.53,0,3.26,.49,8.47,3.2,4.52,2.26,7.76,4.18,7.76,7.88,0,2.16-1.07,4.14-2.96,5.52,.02,.92,.05,1.88,.09,2.87,0,.07,0,.14,0,.22v1.92c0,7.33-10.22,7.33-15.13,7.33-4.54,0-6.79-1.51-7.9-3.14h-33.17c-2.58,3.54-9.31,3.54-13.31,3.54Z"/>
        <path class="cls-4" d="M263.5,559.81c.73,0,2.79,.88,6.17,2.63,3.37,1.69,5.06,2.84,5.06,3.44s-.37,1.15-1.1,1.62c-1.32,.81-1.98,1.25-1.98,1.32l.11,.91c0,1.49,.04,3.07,.11,4.76v1.92c0,1.55-3.38,2.33-10.13,2.33-2.64,0-3.96-.54-3.96-1.62v-1.52h-41.07v1.52c0,1.35-3.12,2.03-9.36,2.03-3.3,0-4.95-.68-4.95-2.03,.07-2.02,.11-4.73,.11-8.1,0-2.16-.18-4.89-.55-8.21,3.89,.61,8.92,1.76,15.09,3.45h39.74c3.74-2.97,5.98-4.46,6.72-4.46m-46.79,13.37h41.07v-6.58h-41.07v6.58m46.79-23.37c-3.28,0-5.97,1.34-10.14,4.46h-34.99c-5.97-1.6-10.84-2.69-14.86-3.32-.52-.08-1.04-.12-1.56-.12-2.55,0-5.04,.98-6.91,2.77-2.25,2.16-3.37,5.24-3.03,8.34,.32,2.91,.49,5.3,.49,7.1,0,3.15-.03,5.76-.1,7.76,0,.11,0,.22,0,.34,0,1.23,.42,12.03,14.95,12.03,3.92,0,6.82-.23,9.14-.73,2.72-.59,4.71-1.61,6.18-2.81h29.04c2.16,1.83,5.37,3.14,10.03,3.14,4.23,0,7.35-.27,9.83-.83,7.59-1.74,10.3-7.08,10.3-11.49v-1.92c0-.14,0-.29,0-.43,0-.18-.02-.36-.02-.54,1.87-2.13,2.89-4.78,2.89-7.64,0-7.04-6.3-10.24-10.52-12.35-5.51-2.85-8.02-3.73-10.71-3.73h0Z"/>
      </g>
      <g>
        <path class="cls-4" d="M199.53,565.01c-1.83,0-3.54-1.01-4.42-2.66l-2.2-4.15c-.44-.84-.63-1.76-.57-2.67-.08,0-.17,.02-.25,.03-.2,.02-.4,.04-.6,.04-1.83,0-3.54-1.01-4.42-2.66l-2.2-4.15c-.88-1.66-.75-3.68,.33-5.22,.94-1.34,2.48-2.12,4.09-2.12,.24,0,.48,.02,.72,.05,4.37,.64,11.72,.96,21.85,.96h12c-.08-1.07-.19-2.17-.34-3.29-.19-1.5,.31-3,1.36-4.09,.95-.98,2.25-1.53,3.6-1.53,.14,0,.29,0,.43,.02,6.49,.56,11.26,1.13,14.59,1.73,3.08,.56,8.81,1.61,8.81,6.69,0,.15,0,.31-.02,.47h11.81c7.05-7.38,7.99-7.9,10.3-7.9,2.03,0,3.75,.81,9.41,5.36,5.31,4.27,7.15,5.9,7.15,8.76,0,3.54-2.62,6.21-6.1,6.21h-3.28c.78,1.03,1.12,2.06,1.12,3.3,0,3.49-2.67,6.12-6.22,6.12h-58.35c-8.27,0-14.33,.23-18,.67-.2,.03-.41,.04-.61,.04Z"/>
        <path class="cls-4" d="M228.49,538.54c12.55,1.08,18.82,2.23,18.82,3.44,0,.54-.37,.95-1.1,1.22-1.83,.61-2.75,1.08-2.75,1.42v2.84h22.79c4.99-5.27,7.71-7.9,8.15-7.9,.66,0,2.75,1.42,6.27,4.25,3.53,2.83,5.29,4.45,5.29,4.86,0,.81-.37,1.21-1.1,1.21h-41.4v6.99h14.98c4.92-4.52,7.56-6.78,7.93-6.78,.58,0,2.64,1.25,6.17,3.75,3.45,2.43,5.17,3.88,5.17,4.35,0,.74-.41,1.12-1.22,1.12h-58.35c-8.52,0-14.72,.24-18.61,.71l-2.2-4.15c4.62,.67,12.11,1.01,22.46,1.01h9.25v-6.99h-18.94c-8.44,0-14.64,.24-18.6,.71l-2.2-4.15c4.62,.67,12.14,1.01,22.57,1.01h17.18v-.71c0-2.57-.18-5.3-.55-8.2m0-10c-2.71,0-5.31,1.1-7.21,3.07-1.55,1.61-2.5,3.67-2.73,5.84h-6.69c-12.32,0-18.29-.49-21.12-.91-.48-.07-.97-.1-1.44-.1-3.22,0-6.28,1.56-8.17,4.24-2.17,3.08-2.43,7.12-.66,10.45l2.2,4.15c1.22,2.29,3.24,3.97,5.59,4.78,.08,.16,.16,.33,.24,.49l2.2,4.15c1.75,3.3,5.17,5.32,8.83,5.32,.4,0,.81-.02,1.21-.07,2.39-.29,7.34-.64,17.4-.64h58.35c5.82,0,10.48-4.19,11.14-9.76,4.85-1.21,8.34-5.56,8.34-10.88s-3.59-8.29-9.02-12.65c-5.46-4.39-8.47-6.46-12.54-6.46-4.29,0-6.68,1.91-12.44,7.9h-5.69c-.99-2.08-2.92-4.34-6.61-5.73-1.38-.52-3.04-.95-5.25-1.35-3.48-.64-8.4-1.22-15.05-1.8-.29-.02-.57-.04-.86-.04h0Z"/>
      </g>
      <g>
        <path class="cls-4" d="M191.72,602.08c-8.56,0-11.6-5.46-11.6-10.57,0-4.53,2.48-8.1,6.97-10.05,3.05-1.38,4.48-3.28,4.71-6.32,.19-2.51,2.22-4.49,4.73-4.62l1.98-.1c.09,0,.17,0,.26,0,2.2,0,4.15,1.44,4.79,3.57,.26,.87,.49,1.67,.69,2.4h63.93c5.16-4.58,7.29-5.47,9.41-5.47,2.37,0,4.94,1.17,12.98,7.75,.29,.18,.6,.41,.92,.71,1.37,1.28,2.12,3.07,2.12,5.05,0,3.44-2.3,6.08-5.73,6.57-.09,.01-.19,.02-.28,.03-.76,.07-1.31,.12-1.71,.17-3.33,3.38-6.93,6.35-10.71,8.84-.83,.55-1.79,.83-2.75,.83-.75,0-1.49-.17-2.19-.5l-1.87-.91c-1.92-.93-3.03-2.98-2.78-5.1,.2-1.64,.33-3.35,.4-5.07v-.47h-60.24c-.8,8.36-5.91,13.27-14.03,13.27Z"/>
        <path class="cls-4" d="M198.76,575.41c.81,2.7,1.32,4.69,1.54,5.97h69.8c3.96-3.64,6.46-5.47,7.48-5.47,1.18,0,4.55,2.3,10.13,6.89,.14,.07,.25,.14,.32,.21,.37,.33,.55,.81,.55,1.42,0,.95-.48,1.49-1.43,1.62-2.35,.2-3.63,.4-3.85,.6-3.38,3.58-7.01,6.65-10.9,9.21l-1.87-.91c.22-1.82,.37-3.67,.44-5.57v-1.82c0-1.42-.04-2.67-.11-3.75h-70.24c.15,.74,.22,1.62,.22,2.63,0,7.09-3.05,10.63-9.14,10.63-4.4,0-6.6-1.86-6.6-5.57,0-2.5,1.32-4.32,3.96-5.47,4.77-2.16,7.34-5.67,7.71-10.53l1.98-.1m0-10c-.17,0-.34,0-.51,.01l-1.98,.1c-5.03,.26-9.08,4.21-9.46,9.23-.06,.85-.1,1.37-1.81,2.16-6.28,2.77-9.89,8.08-9.89,14.6,0,7.75,5.13,15.57,16.6,15.57,9.15,0,15.75-5.02,18.15-13.27h50.74c-.48,4.21,1.74,8.27,5.56,10.13l1.87,.91c1.39,.67,2.88,1.01,4.38,1.01,1.93,0,3.84-.56,5.51-1.65,3.59-2.36,7.01-5.12,10.21-8.21,.15-.01,.3-.03,.44-.05,5.9-.84,10.02-5.58,10.02-11.52,0-3.38-1.31-6.45-3.68-8.68-.43-.41-.9-.78-1.4-1.12-8.25-6.74-11.88-8.71-15.93-8.71-3.77,0-7.02,1.84-11.29,5.47h-58.39c-1.58-3.61-5.17-5.97-9.15-5.97h0Z"/>
      </g>
      <g>
        <path class="cls-4" d="M189.62,635.39c-1.8,0-3.48-.97-4.37-2.57l-2.31-4.15c-.93-1.67-.83-3.73,.27-5.3,.94-1.35,2.48-2.13,4.1-2.13,.26,0,.52,.02,.79,.06,1.7,.27,3.83,.49,6.39,.65-.2-.24-.38-.5-.53-.78l-2.31-4.15c-.92-1.66-.83-3.7,.25-5.27,.94-1.37,2.49-2.17,4.12-2.17,.24,0,.47,.02,.71,.05,.49,.07,1.02,.14,1.58,.2-.75-2.6-1.52-5.88-2.44-9.96-.37-1.64,.11-3.35,1.27-4.56,.66-.69,1.5-1.17,2.4-1.39l-1.06-2.12c-.83-1.66-.68-3.64,.4-5.15,.95-1.32,2.47-2.09,4.07-2.09,.23,0,.46,.02,.68,.05,4.16,.57,9.86,.86,16.93,.86h27.87c6.31-5.84,7.4-6.38,9.46-6.38,1.8,0,3.75,.67,8.9,4.23,4.78,3.39,7,5.31,7,8.36,0,.41-.04,.81-.11,1.2,4.83,2.39,7.26,6.08,7.26,11.06,0,3.73-1.26,6.67-3.49,8.52,.34,.41,.62,.81,.84,1.2,1.71,.5,3.92,1.95,8.19,5.64,5.33,4.51,7.12,6.49,7.12,9.25,0,3.97-2.97,6.11-5.77,6.11h-79.6c-8.27,0-14.32,.23-18.01,.67-.2,.02-.4,.04-.6,.04Zm62.54-24.99c.14-.16,.28-.31,.42-.46-.62,.15-1.25,.3-1.89,.46h1.47Z"/>
        <path class="cls-4" d="M257.88,584.11c.81,0,2.83,1.11,6.05,3.34,3.23,2.29,4.84,3.71,4.84,4.25,0,.74-.37,1.12-1.1,1.12h-30.94c-2.42,1.82-5.54,3.61-9.36,5.36-3.82,1.69-6.06,2.53-6.72,2.53,.96,.21,5.91,.3,14.87,.3,7.27,0,15.74-.27,25.43-.81-2.94-2.22-5.36-3.74-7.27-4.55l.55-1.01h.33c14.24,0,21.36,3.11,21.36,9.32,0,3.85-1.8,5.77-5.39,5.77-1.61,0-3.05-1.01-4.3-3.03-1.76-3.11-2.97-4.66-3.63-4.66-5.58,1.69-11.78,3.27-18.61,4.76v8.61h10.35c4.92-5.4,7.67-8.1,8.26-8.1,.73,0,2.82,1.38,6.27,4.15,3.45,2.77,5.18,4.46,5.18,5.07,0,.74-.26,1.11-.77,1.11h-29.51v9.32l24.22,.41c5.14-5.94,8-8.91,8.59-8.91,.81,0,3.01,1.55,6.6,4.66,3.6,3.04,5.39,4.86,5.39,5.47,0,.74-.26,1.12-.77,1.12h-79.6c-8.52,0-14.72,.24-18.61,.71l-2.31-4.15c4.7,.75,12.22,1.12,22.57,1.12h19.38v-9.42h-12.33c-8.51,0-14.72,.27-18.6,.81l-2.31-4.15c4.7,.68,12.22,1.02,22.57,1.02h10.68v-7.19c-6.68,1.08-13.87,1.76-21.58,2.03-.22,0-.55,.68-.99,2.03-.3,.68-.74,1.01-1.32,1.01-.88,0-2.42-4.89-4.62-14.68,5.21,.95,10.53,1.56,15.96,1.82,1.4-1.89,2.38-4.46,2.97-7.7-7.12,0-12.04,.21-14.75,.61l-1.98-3.95c4.4,.61,10.27,.91,17.61,.91h29.84c4.55-4.25,7.05-6.38,7.49-6.38m0-10c-3.92,0-6.42,1.79-11.42,6.38h-25.9c-6.84,0-12.31-.27-16.25-.82-.46-.06-.91-.09-1.36-.09-3.2,0-6.24,1.54-8.13,4.18-1.75,2.45-2.29,5.53-1.53,8.38-2.14,2.4-3,5.69-2.29,8.84,.36,1.6,.7,3.08,1.03,4.44-1.68,.73-3.16,1.93-4.25,3.5-1.51,2.19-2.06,4.85-1.62,7.38-2.8,.32-5.38,1.82-7.04,4.2-2.19,3.14-2.4,7.25-.54,10.6l2.31,4.15c1.78,3.2,5.14,5.14,8.73,5.14,.4,0,.8-.02,1.2-.07,2.39-.29,7.36-.64,17.41-.64h79.6c6.04,0,10.77-4.88,10.77-11.12,0-5.53-4.12-9.03-8.9-13.07-1.98-1.71-3.69-3.1-5.25-4.18,.97-2.14,1.49-4.62,1.49-7.35,0-5.65-2.6-10.52-7.27-13.86-.74-4.97-4.9-7.93-8.94-10.8-.04-.03-.07-.05-.11-.08-4.91-3.39-8.07-5.12-11.74-5.12h0Z"/>
      </g>
      <g>
        <path class="cls-4" d="M491.03,559.04c-5.57,0-9.71-2.67-11.66-7.52-1.98-4.49-4.61-7.21-8.04-8.31-1.28-.41-2.34-1.32-2.94-2.51-.6-1.2-.7-2.59-.27-3.86l.55-1.62c.66-1.93,2.42-3.26,4.45-3.38,1.31-.08,2.92-.11,4.91-.11,11.77,0,25.81,2.62,25.81,15.12,0,7.52-4.91,12.19-12.82,12.19Z"/>
        <path class="cls-4" d="M478.04,536.72c13.87,0,20.81,3.37,20.81,10.12,0,4.8-2.61,7.19-7.82,7.19-3.52,0-5.87-1.48-7.04-4.45-2.57-5.87-6.28-9.59-11.12-11.14l.55-1.62c1.25-.07,2.79-.1,4.62-.1m0-10c-2.1,0-3.79,.04-5.19,.12-4.07,.23-7.58,2.91-8.9,6.76l-.55,1.62c-.86,2.54-.67,5.32,.53,7.72,1.21,2.4,3.32,4.21,5.88,5.03,.73,.23,2.93,.94,4.96,5.5,2.71,6.62,8.77,10.57,16.26,10.57,10.66,0,17.82-6.91,17.82-17.19,0-7.19-3.95-13.24-10.83-16.58-4.89-2.38-11.43-3.54-19.98-3.54h0Z"/>
      </g>
      <g>
        <path class="cls-4" d="M439.95,562.48c-1.9,0-3.66-1.08-4.5-2.83l-2.1-4.35c-.79-1.65-.62-3.61,.45-5.09,.95-1.31,2.46-2.08,4.06-2.08,.21,0,.42,.01,.63,.04,5.06,.65,12.81,.97,23.04,.97h55.2c3.62-4.15,5.66-6.5,6.71-7.75,1.16-1.39,2.91-2.17,4.92-2.17,2.14,0,3.85,.87,10.37,6.33,6.53,5.57,7.84,7.21,7.84,9.81,0,3.72-2.66,6.42-6.32,6.42l-82.34,.1c-10.61,0-15.27,.31-17.32,.57-.21,.03-.42,.04-.63,.04Z"/>
        <path class="cls-4" d="M528.35,544.21c.66,0,3.04,1.72,7.16,5.16,4.04,3.44,6.05,5.43,6.05,5.98,0,.95-.44,1.42-1.32,1.42l-82.35,.1c-8.8,0-14.79,.21-17.94,.61l-2.1-4.35c5.29,.67,13.18,1.01,23.67,1.01h57.47c4.18-4.79,6.94-7.97,8.25-9.52,.22-.27,.59-.4,1.1-.4m0-10c-3.44,0-6.63,1.44-8.75,3.95-.89,1.05-2.49,2.91-5.16,5.97h-52.92c-10.02,0-17.56-.31-22.4-.93-.42-.05-.85-.08-1.27-.08-3.19,0-6.22,1.53-8.11,4.15-2.14,2.97-2.49,6.88-.9,10.18l2.1,4.35c1.68,3.49,5.2,5.66,9.01,5.66,.42,0,.84-.03,1.26-.08,1.55-.2,5.78-.53,16.68-.53l82.36-.1c6.44,0,11.31-4.91,11.31-11.42,0-5.43-3.8-8.67-9.56-13.58-.02-.02-.05-.04-.07-.06-6.36-5.33-9.37-7.5-13.58-7.5h0Z"/>
      </g>
      <g>
        <path class="cls-4" d="M485.85,637.22c-1.53,0-9.18-.33-9.18-6.92,.15-10.12,.22-17.9,.22-23.19v-24.57h-7.17v19.41c0,1.57,.07,6.42,.22,15.71,0,7.71-10.7,7.71-16.45,7.71-8.64,0-9.07-5.77-9.07-6.92,.15-10.24,.22-16.25,.22-17.92v-12.26c0-11.44-.28-15.92-.51-17.67-.22-1.64,.39-3.28,1.63-4.38,.93-.83,2.12-1.27,3.33-1.27,.4,0,.81,.05,1.21,.15,3.62,.9,6.64,1.76,8.98,2.55,2.55,.89,4.87,1.66,7.09,2.37h10.48c-.1-4.31-.36-7.8-.77-10.41-.25-1.58,.26-3.18,1.38-4.31,.95-.96,2.23-1.48,3.55-1.48,.25,0,.49,.02,.74,.06,5.91,.88,10.93,1.67,14.94,2.34,4.07,.6,10.35,1.53,10.35,6.96,0,1.24-.42,4.25-4.18,5.99v.76h10.02c7.03-5.83,8.44-6.38,10.4-6.38,1.75,0,3.45,.63,9.45,4.56,5.37,3.59,7.88,5.62,7.88,8.84,0,1.24-.39,3.6-3.03,5.43-.64,.43-1.13,.77-1.49,1.03v21.29c0,6.12-3.25,14.03-18.58,17.21-.36,.14-.73,.24-1.12,.29-1.2,.17-2.09,.25-2.8,.25-3.84,0-6.71-2.57-6.97-6.26-.26-3.2-.78-4.45-.97-4.82-.53-.33-1.41-.76-2.8-1.22,0,4.91,.08,11.54,.21,19.26,0,6.67-8.71,7.3-12.89,7.61-.09,0-.18,.01-.27,.01-1.81,.14-3.14,.21-4.06,.21Zm17.2-39.46c2.53,.18,5.29,.27,8.19,.29v-15.52h-8.38v15.22c.06,0,.13,0,.19,0Z"/>
        <path class="cls-4" d="M481.01,558.79c5.87,.88,10.82,1.66,14.86,2.33,4.11,.61,6.17,1.28,6.17,2.03,0,.61-.48,1.12-1.44,1.52-1.83,.95-2.74,1.59-2.74,1.92v8.31h16.84c5.07-4.26,7.93-6.38,8.59-6.38s2.9,1.25,6.71,3.75c3.74,2.5,5.62,4.05,5.62,4.66,0,.48-.29,.91-.88,1.32-2.43,1.62-3.64,2.67-3.64,3.14v23.29c0,6.34-5.1,10.5-15.3,12.46l-.1,.1c-.96,.14-1.66,.2-2.09,.2-1.25,0-1.91-.54-1.99-1.62-.37-4.53-1.32-7.32-2.86-8.4-1.48-1.01-3.6-1.89-6.39-2.64l.33-2.02c2.86,.2,5.98,.3,9.36,.3h1.87c1.54,0,2.32-.71,2.32-2.13v-23.39h-18.38v31.6c0,4.73,.06,11.51,.21,20.35,0,1.29-2.75,2.13-8.25,2.53h-.11c-1.76,.14-3.05,.2-3.86,.2-2.79,0-4.18-.64-4.18-1.92,.15-10.27,.22-17.99,.22-23.19v-29.57h-17.17v24.41c0,1.68,.07,6.95,.22,15.8,0,1.76-3.81,2.63-11.45,2.63-2.72,0-4.07-.64-4.07-1.92,.15-10.26,.22-16.24,.22-17.92v-12.26c0-9.45-.18-15.56-.55-18.33,3.52,.88,6.38,1.69,8.59,2.43,2.72,.94,5.36,1.82,7.92,2.63h16.3v-1.01c0-6.48-.29-11.54-.88-15.19m0-10c-2.65,0-5.22,1.05-7.11,2.97-2.24,2.27-3.27,5.47-2.76,8.62,.21,1.29,.37,2.83,.49,4.61h-4.49c-1.94-.62-3.98-1.31-6.19-2.08-.03,0-.06-.02-.08-.03-2.5-.84-5.56-1.71-9.37-2.66-.8-.2-1.61-.3-2.41-.3-2.43,0-4.81,.89-6.66,2.54-2.47,2.2-3.68,5.49-3.25,8.77,.17,1.31,.46,5.26,.46,17.02v12.26c0,1.13-.04,5.14-.22,17.78,0,.05,0,.1,0,.14,0,4.5,2.59,8.52,6.75,10.49,2.05,.97,4.44,1.44,7.32,1.44,4.68,0,8.12-.29,10.83-.91,2.22-.51,4.04-1.27,5.59-2.34,.67-.47,1.29-.98,1.84-1.55-.02,1.47-.04,3-.06,4.58,0,.05,0,.1,0,.15,0,4.43,2.99,11.92,14.18,11.92,1.04,0,2.42-.07,4.32-.21,.13,0,.25-.01,.38-.02,3.58-.26,6.25-.69,8.4-1.35,8.47-2.6,9.13-9.2,9.13-11.16,0-.06,0-.11,0-.17-.02-1.07-.04-2.12-.05-3.15,1.65,.82,3.54,1.27,5.58,1.27,.96,0,2.08-.1,3.52-.3,.6-.09,1.19-.23,1.76-.42,19.3-4.14,22.22-15.53,22.22-22.03v-18.7c2.88-2.28,4.52-5.53,4.52-9.05,0-6.25-5.12-9.66-10.06-12.97-.03-.02-.05-.03-.08-.05-6.06-3.97-8.82-5.38-12.19-5.38s-6.19,1.52-11.29,5.64c.03-.34,.05-.68,.05-1.01,0-1.83-.61-8-8.43-10.56-1.59-.52-3.55-.95-6.18-1.34-4.06-.68-8.94-1.44-14.94-2.34-.49-.07-.99-.11-1.48-.11h0Z"/>
      </g>
      <g>
        <path class="cls-4" d="M659.07,637.01c-2.52,0-5.82-1.22-13.78-7.17-4.04-3.07-7.33-6.01-9.95-8.89-9.35,7.16-20.79,12.44-34.08,15.72-.4,.1-.8,.15-1.2,.15-1.58,0-3.1-.75-4.05-2.07l-1.1-1.52c-.88-1.22-1.17-2.76-.78-4.21,.38-1.45,1.4-2.65,2.77-3.27,.79-.36,1.57-.72,2.34-1.1-6.72,2.88-13.62,5.22-20.66,7.02-.8,3.55-3.61,5.15-6.15,5.15-4.7,0-6.82-4.34-12.76-21.61-.53-1.53-.28-3.21,.66-4.53s2.46-2.1,4.07-2.1c1,0,1.94-.01,2.82-.04v-23.31c0-7.61-.35-13.76-1.05-18.28-.24-1.56,.27-3.15,1.39-4.27,.95-.96,2.23-1.49,3.56-1.49,.23,0,.46,.02,.7,.05,5.68,.8,9.86,1.5,12.77,2.15,.66,.15,1.38,.31,2.12,.51v-8.81h-2.16c-1.89,0-3.97,.03-6.35,.1-.05,0-1.23,0-1.23,0-3.35,.07-5.82,.22-7.26,.45-.26,.04-.53,.06-.79,.06-1.85,0-3.57-1.03-4.44-2.71l-2.2-4.25c-.86-1.66-.72-3.65,.36-5.17,.94-1.34,2.47-2.12,4.09-2.12,.22,0,.45,.01,.67,.04,4.75,.64,11.42,.96,19.81,.96h10.24c6.62-8.28,8.45-9.52,11.11-9.52,2.21,0,4.38,.94,10.07,6.06,.01-.69,.02-1.38,.02-2.07,0-1.49,.66-2.9,1.81-3.85,.9-.75,2.04-1.15,3.19-1.15,.31,0,.62,.03,.93,.09,5.68,1.07,10.5,2.03,14.33,2.86,3.49,.7,9.44,1.9,9.44,7.11,0,2.2-1.25,4.9-4.72,6.02-.73,2.76-1.53,5.44-2.41,8.02h1.69c6-8.08,7.65-9.22,10.35-9.22,2.08,0,4.06,.87,10.21,5.99,6.26,5,7.79,6.9,7.79,9.65,0,3.43-2.62,6.01-6.1,6.01h-1.5c-.92,6.37-2.6,13.03-5.01,19.85-2.26,6.45-4.68,11.72-7.34,15.95,.77,.48,1.74,1.06,2.95,1.77,4.46,2.65,9.57,4.92,15.2,6.75,2.33,.76,3.76,3.09,3.39,5.5l-.21,1.42c-.33,2.16-2.01,3.84-4.14,4.18-.32,.36-1.31,1.74-2.19,5.92,0,.04-.02,.09-.03,.13-1.47,6.16-5.13,7.08-7.18,7.08Zm-48.95-34.42c2.99-.64,6.04-1.42,9.12-2.31,.46-.13,.93-.2,1.4-.2,1.31,0,2.56,.52,3.49,1.42-1.17-3.44-2.09-7.38-2.77-11.84-1.31,1.38-2.48,2.48-3.54,3.33-.91,.73-2.01,1.09-3.12,1.09-.97,0-1.94-.28-2.79-.85,0,0-1.75-1.17-1.79-1.21v10.57Zm22.83-28.03c.37,1.3,1.01,3.46,2.06,7.03,.29,.98,.59,1.92,.89,2.81,1.52-4.83,2.54-10.12,3.07-15.84h-2.89c-1.11,2.22-2.15,4.22-3.14,6Zm-22.83-13.37c1.94,0,3.5,.78,5.63,3.31,.67-3.09,1.22-6.23,1.65-9.41h-7.28v6.1Z"/>
        <path class="cls-4" d="M623.62,536.92c5.72,1.08,10.45,2.03,14.2,2.84,3.67,.74,5.5,1.48,5.5,2.22,0,.61-.48,1.05-1.43,1.32-1.69,.61-2.54,.98-2.54,1.12-1.46,6.01-3.26,11.54-5.39,16.61h11.45c4.48-6.14,7.08-9.22,7.82-9.22,.81,0,3.15,1.62,7.04,4.86,3.97,3.17,5.95,5.09,5.95,5.77s-.37,1.01-1.1,1.01h-5.95c-.66,7.36-2.42,15.09-5.28,23.19-2.86,8.17-6.02,14.38-9.47,18.63,0,.54,2.42,2.23,7.27,5.06,4.77,2.84,10.17,5.23,16.17,7.19l-.21,1.42c-2.86,.27-4.95,3.55-6.27,9.82-.52,2.17-1.29,3.24-2.31,3.24-1.69,0-5.29-2.06-10.79-6.18-5.5-4.19-9.58-8.17-12.22-11.95-9.46,8.37-21.47,14.35-35.99,17.93l-1.1-1.52c13.86-6.28,24.54-14.72,32.03-25.32-3.23-6.28-5.17-15.53-5.83-27.75,0,.27-1.32,1.96-3.95,5.06-2.65,3.17-4.81,5.44-6.5,6.79l-1.66-1.11c1.4-2.63,2.72-5.67,3.97-9.11h-11.89v29.77c4.99-.81,10.17-1.99,15.52-3.55l.67,1.82c-14.68,9.93-30.35,16.81-47.01,20.66-.15,.07-.33,.98-.55,2.74-.15,1.01-.59,1.52-1.33,1.52-1.17,0-3.85-6.08-8.03-18.23,3.08,0,5.69-.13,7.82-.4v-27.95c0-7.9-.37-14.24-1.1-19.04,11.01,1.55,16.51,2.77,16.51,3.65,0,.54-.37,.94-1.09,1.21-1.39,.61-2.09,1.08-2.09,1.42v39.39c3.15-.41,5.57-.74,7.26-1.01v-60.76h-7.16c-2.05,0-4.21,.04-6.5,.1h-1.09c-3.67,.07-6.35,.24-8.05,.51l-2.2-4.25c4.99,.67,11.82,1.01,20.48,1.01h12.66c4.99-6.35,7.89-9.52,8.7-9.52,.96,0,3.27,1.65,6.93,4.96,3.67,3.37,5.51,5.4,5.51,6.08,0,.74-.34,1.11-1,1.11h-14.87v26.23c2.72-6.75,4.37-10.13,4.96-10.13,.95,0,3.52,3.41,7.7,10.23,3.89-12.49,5.84-25.66,5.84-39.5m12.55,59.75c4.91-9.11,7.64-20.15,8.14-33.11h-11.34c-1.98,4.12-3.78,7.56-5.39,10.33,0,.14,.88,3.17,2.64,9.12,1.77,5.94,3.75,10.5,5.95,13.67m-12.55-69.75c-2.31,0-4.57,.8-6.38,2.3-.46,.38-.88,.8-1.26,1.24-2.55-1.68-4.86-2.53-7.45-2.53-4.95,0-8.19,2.95-13.52,9.52h-7.84c-8.17,0-14.61-.31-19.14-.92-.45-.06-.89-.09-1.34-.09-3.22,0-6.28,1.56-8.17,4.24-2.15,3.05-2.42,7.04-.71,10.35l2.2,4.25c.89,1.72,2.23,3.1,3.82,4.04-2.12,2.24-3.08,5.33-2.62,8.39,.66,4.27,.99,10.17,.99,17.52v18.59c-2.38,.53-4.51,1.92-5.96,3.95-1.88,2.63-2.37,6.01-1.32,9.06,2.2,6.4,3.98,11.12,5.45,14.45,1.62,3.68,4.64,10.53,12.04,10.53,4.29,0,7.95-2.32,9.89-5.97,2.43-.67,4.84-1.4,7.23-2.19,.31,.88,.75,1.72,1.31,2.49l1.1,1.52c1.91,2.64,4.94,4.14,8.11,4.14,.8,0,1.6-.1,2.4-.29,12.31-3.04,23.15-7.73,32.33-14,2.17,2.06,4.64,4.15,7.44,6.28,.02,.02,.04,.03,.07,.05,8.06,6.03,12.45,8.17,16.78,8.17,2.21,0,9.62-.79,12.04-10.92,.02-.09,.04-.18,.06-.27,.28-1.33,.55-2.24,.76-2.84,2.94-1.39,5.1-4.18,5.61-7.54l.21-1.42c.73-4.84-2.14-9.49-6.79-11.01-4.76-1.55-9.1-3.42-12.92-5.56,1.88-3.62,3.63-7.78,5.29-12.51,2.02-5.73,3.55-11.36,4.58-16.83,4.83-1.2,8.31-5.46,8.31-10.67s-3.63-8.73-9.63-13.52c-5.98-4.98-9.18-7.09-13.28-7.12-.04-1.9-.78-7.44-7.62-10.21-1.51-.61-3.37-1.13-5.83-1.63-3.86-.83-8.7-1.8-14.39-2.87-.62-.12-1.24-.17-1.85-.17h0Z"/>
      </g>
      <g>
        <path class="cls-4" d="M725.06,637.06c-5.73,0-8.3-3.53-8.3-7.03,0-.05,0-.11,0-.16,.29-9.05,.43-15.06,.43-18.37v-6.6c-.3,.2-.6,.4-.9,.59-.82,.52-1.75,.78-2.68,.78-1.14,0-2.27-.39-3.19-1.15l-1.1-.91c-1.99-1.65-2.39-4.53-.94-6.67,3.18-4.67,6.28-11.32,9.21-19.78,2.95-8.53,4.83-16.08,5.6-22.45,.17-1.39,.9-2.64,2.04-3.46,.86-.62,1.89-.95,2.93-.95,.33,0,.66,.03,.99,.1,17.98,3.64,22.5,5.24,22.5,10.37,0,2.21-1.36,5.1-5.18,5.99-.3,.07-.57,.14-.8,.19-1.24,3.6-2.53,6.83-3.88,9.67,1.3,1.06,2.27,2.5,2.27,4.5,0,2.3-1.18,4.29-3.19,5.45v25.84c0,.78,.18,6.24,.55,16.23,0,.06,0,.12,0,.18,0,7.63-10.63,7.63-16.34,7.63Z"/>
        <path class="cls-4" d="M728.14,555.91c12.33,2.5,18.49,4.32,18.49,5.47,0,.54-.44,.91-1.32,1.12-2.28,.54-3.45,.91-3.52,1.11-.08,0-.33,.68-.77,2.03-1.91,5.6-3.93,10.19-6.06,13.77,2.72,.95,4.07,1.73,4.07,2.33,0,.54-.29,.95-.88,1.22-1.54,.67-2.31,1.31-2.31,1.92v28.15c0,.88,.18,6.35,.55,16.41,0,1.75-3.78,2.63-11.34,2.63-2.2,0-3.3-.67-3.3-2.03,.28-8.85,.43-15.02,.43-18.53v-16.91c-2.86,2.63-5.72,4.86-8.59,6.69l-1.1-.91c3.45-5.06,6.71-12.05,9.8-20.96,3.08-8.91,5.03-16.74,5.84-23.49m0-10c-2.09,0-4.14,.65-5.86,1.89-2.26,1.64-3.74,4.14-4.07,6.91-.72,6.01-2.52,13.22-5.36,21.42-2.78,8.04-5.68,14.29-8.61,18.6-2.9,4.26-2.09,10.03,1.88,13.33l1.1,.91c1.46,1.21,3.18,1.95,4.97,2.2v.33c0,3.26-.14,9.22-.43,18.21,0,.11,0,.21,0,.32,0,5.98,4.57,12.03,13.3,12.03,4.65,0,8.07-.29,10.77-.92,2.21-.51,4.04-1.28,5.58-2.36,3.17-2.21,5-5.62,5-9.36,0-.12,0-.24,0-.36-.44-12.2-.54-15.46-.54-16.06v-23.43c2.03-2.07,3.19-4.84,3.19-7.84,0-2.13-.55-3.88-1.42-5.33,.64-1.5,1.27-3.09,1.88-4.76,4.9-1.94,7.13-6.38,7.13-10.26,0-2.02-.66-7.03-6.81-10-1.29-.62-2.87-1.2-4.97-1.82-3.39-1-8.21-2.13-14.72-3.45-.66-.13-1.32-.2-1.98-.2h0Z"/>
      </g>
      <g>
        <path class="cls-4" d="M752.58,611.24c-6.68,0-10.83-4.48-10.83-11.68-.06-4.54-1.24-7.75-3.62-9.75-1.07-.9-1.71-2.21-1.77-3.6-.06-1.39,.46-2.75,1.44-3.74l1.1-1.11c.95-.96,2.23-1.48,3.55-1.48,.27,0,.54,.02,.81,.07,5.69,.94,10.72,3.03,14.96,6.2,6.11,4.58,7.39,9.6,7.39,13.01,0,7.57-4.87,12.09-13.03,12.09Z"/>
        <path class="cls-4" d="M742.45,584.87c4.92,.81,9.17,2.57,12.77,5.26,3.6,2.7,5.39,5.7,5.39,9.01,0,4.73-2.67,7.09-8.03,7.09-3.89,0-5.83-2.23-5.83-6.68-.08-6.08-1.87-10.6-5.4-13.57l1.1-1.11m0-10c-2.64,0-5.21,1.05-7.1,2.96l-1.1,1.11c-1.97,1.98-3.02,4.7-2.89,7.49s1.41,5.4,3.55,7.2c1.18,.99,1.79,3.01,1.84,6,.03,9.93,6.39,16.6,15.83,16.6,5.18,0,9.43-1.44,12.65-4.27,2.46-2.17,5.39-6.15,5.39-12.81,0-4.55-1.63-11.19-9.39-17.01-4.88-3.66-10.65-6.06-17.15-7.13-.54-.09-1.09-.13-1.63-.13h0Z"/>
      </g>
      <g>
        <path class="cls-4" d="M692.47,635.95c-.88,0-1.75-.23-2.54-.69l-1.55-.91c-2.25-1.32-3.1-4.14-1.96-6.49,5-10.32,7.54-28.77,7.54-54.83v-10.53c0-6.52-.31-11.66-.92-15.27-.28-1.64,.28-3.3,1.48-4.45,.94-.9,2.18-1.38,3.45-1.38,.35,0,.71,.04,1.06,.11,5.8,1.25,11.28,2.75,16.29,4.45h17.42c-1.07-1.07-2.4-1.86-4.03-2.43-1.27-.44-2.31-1.37-2.89-2.58s-.64-2.6-.18-3.86l.55-1.52c.65-1.78,2.24-3.04,4.12-3.25,2.5-.29,5.33-.44,8.39-.44,17.69,0,21.41,7.29,21.41,13.4,0,.23,0,.45-.02,.67h8.42c6.2-7.88,8.46-9.22,11.15-9.22,2.05,0,3.89,.82,10.02,5.92,6.06,4.93,7.64,6.92,7.64,9.61,0,3.6-2.66,6.22-6.32,6.22h-72.4v13.84c0,19.36-2.03,33.05-6.21,41.84-4.27,8.87-10,15.89-17.04,20.87-.86,.61-1.88,.92-2.89,.92Z"/>
        <path class="cls-4" d="M738.71,536.87c10.94,0,16.41,2.8,16.41,8.4,0,2.57-1.14,4.46-3.41,5.67h19.26c4.7-6.14,7.6-9.22,8.7-9.22,.73,0,3.01,1.59,6.82,4.76,3.89,3.17,5.83,5.09,5.83,5.77,0,.81-.44,1.22-1.32,1.22h-77.4v18.84c0,18.43-1.91,31.66-5.72,39.69-3.9,8.1-9.03,14.42-15.41,18.94l-1.55-.91c5.37-11.07,8.04-30.08,8.04-57.01v-10.53c0-6.82-.33-12.19-.99-16.1,5.95,1.28,11.45,2.8,16.51,4.56h27.53c-.81-.47-1.51-1.35-2.1-2.63-1.68-4.72-4.88-7.9-9.58-9.52l.55-1.52c2.35-.27,4.95-.4,7.81-.4m0-10c-3.25,0-6.27,.16-8.96,.47-3.76,.43-6.95,2.95-8.25,6.51l-.55,1.52c-.66,1.8-.78,3.73-.37,5.58h-4.44c-4.97-1.65-10.36-3.1-16.05-4.33-.7-.15-1.41-.23-2.11-.23-2.55,0-5.03,.97-6.91,2.77-2.4,2.29-3.51,5.62-2.95,8.89,.56,3.34,.85,8.2,.85,14.44v10.53c0,31.51-3.83,46.03-7.04,52.65-2.27,4.69-.57,10.33,3.92,12.98l1.55,.91c1.57,.93,3.33,1.38,5.08,1.38,2.03,0,4.05-.62,5.78-1.84,7.74-5.49,14.02-13.15,18.64-22.77,4.52-9.52,6.71-23.91,6.71-44.03v-8.84h67.4c6.35,0,11.32-4.93,11.32-11.22,0-5.37-3.58-8.69-9.48-13.49-5.97-4.96-9.13-7.04-13.18-7.04-4.98,0-8.51,2.97-13.57,9.22h-1.52c-1.19-4.64-4.33-8.48-9-10.87-4.2-2.15-9.72-3.2-16.87-3.2h0Z"/>
      </g>
      <g>
        <path class="cls-4" d="M763.37,636.86c-3.53,0-6.27-2.15-6.98-5.47-.02-.11-.04-.23-.06-.34-.44-3.04-.98-4.19-1.16-4.49-.39-.26-2.06-1.24-7.2-2.63-2.59-.7-4.17-3.33-3.56-5.95l.44-1.92c.53-2.28,2.56-3.88,4.87-3.88,.12,0,.24,0,.36,.01,3.44,.25,6.86,.38,10.17,.39v-29.39h-4.36c-8.25,0-11.99,.3-13.68,.55-.25,.04-.5,.06-.74,.06-1.83,0-3.54-1.01-4.42-2.66l-2.09-3.95c-.88-1.66-.75-3.66,.32-5.2,.94-1.35,2.48-2.14,4.1-2.14,.22,0,.45,.01,.67,.04,4.23,.57,9.93,.86,16.95,.86h3.25c-.04-4.87-.39-9.24-1.03-12.99-.26-1.55,.22-3.13,1.3-4.28,.95-1,2.27-1.56,3.63-1.56,.19,0,.38,.01,.56,.03,6.32,.72,11.16,1.38,14.38,1.97,3.7,.68,8.77,1.61,8.77,6.44,0,.1,0,.19,0,.29,1.92,1,3.76,3.25,6.46,7.04,4.2,5.8,4.88,7.52,4.88,9.38,0,3.37-2.48,5.91-5.76,5.91h-9.42v36.12c0,12.13-10.95,16.08-17.48,17.36-.1,.02-.19,.03-.29,.05-1.02,.23-1.99,.35-2.86,.35Z"/>
        <path class="cls-4" d="M764.14,556.92c12.48,1.42,18.72,2.57,18.72,3.44,0,.61-.37,1.05-1.1,1.31-1.84,.88-2.75,1.56-2.75,2.03v12.04h.66c2.79-7.15,4.66-10.73,5.61-10.73,.66,0,2.31,1.86,4.96,5.57,2.64,3.65,3.96,5.81,3.96,6.48,0,.61-.25,.91-.76,.91h-14.42v41.12c0,6.55-4.48,10.7-13.44,12.46h-.11c-.8,.2-1.5,.3-2.08,.3-1.18,0-1.88-.51-2.1-1.52-.51-3.57-1.32-5.98-2.42-7.19-1.18-1.28-4.37-2.64-9.58-4.05l.44-1.92c3.82,.27,7.52,.41,11.12,.41h1.66c1.83,0,2.75-.78,2.75-2.33v-37.06h-9.36c-6.9,0-11.7,.2-14.42,.61l-2.09-3.95c4.48,.61,10.35,.91,17.62,.91h8.26v-3.95c0-5.6-.37-10.56-1.1-14.88m0-10c-2.73,0-5.37,1.12-7.27,3.13-2.16,2.28-3.12,5.45-2.59,8.55,.37,2.16,.63,4.55,.79,7.14-5.92-.05-10.74-.32-14.36-.81-.45-.06-.9-.09-1.34-.09-3.24,0-6.31,1.58-8.2,4.28-2.14,3.07-2.39,7.09-.64,10.4l2.09,3.95c1.75,3.31,5.17,5.32,8.83,5.32,.49,0,.99-.04,1.48-.11,1.22-.18,4.42-.48,12.3-.5v19.28c-1.59-.06-3.2-.15-4.81-.27-.24-.02-.48-.03-.72-.03-4.62,0-8.68,3.19-9.74,7.75l-.44,1.92c-1.21,5.24,1.94,10.49,7.13,11.9,2.14,.58,3.55,1.06,4.44,1.4,.09,.41,.19,.95,.28,1.61,.03,.23,.07,.46,.12,.69,1.21,5.63,5.98,9.41,11.87,9.41,1.21,0,2.45-.14,3.78-.43,.11-.02,.23-.04,.34-.06,6.4-1.25,11.29-3.51,14.95-6.91,4.29-3.98,6.56-9.29,6.56-15.36v-31.12h4.42c6.04,0,10.76-4.79,10.76-10.91,0-3.66-1.72-6.63-5.84-12.32-1.79-2.52-3.62-5.07-5.83-6.93-.65-2.53-2.51-5.98-7.75-7.68-1.23-.4-2.75-.76-4.79-1.13-3.38-.62-8.2-1.29-14.72-2.03-.38-.04-.75-.06-1.13-.06h0Z"/>
      </g>
    </g>
    <g>
      <g>
        <path class="cls-7" d="M125.76,669.74h-13.04c-.15,0-.3,.03-.44,.09-.14,.05-.32,.17-.55,.35l-.89,.62-.27-.12,2.9-4.88h32.66l-3.06,5h-.23v-.45c0-.18-.07-.32-.21-.43-.14-.11-.32-.17-.55-.17h-11.55v23.74c0,.19,.02,.35,.06,.46,.04,.11,.11,.21,.22,.31l.6,.51v.29h-6.59v-.29l.6-.51c.12-.09,.21-.21,.26-.33,.05-.12,.08-.27,.08-.44v-23.74Z"/>
        <path class="cls-7" d="M152.23,695.04h-6.93l20.52-30.26,20.38,30.26h-7.02v-.29c.3,0,.54-.05,.72-.17,.18-.11,.26-.25,.26-.43,0-.13-.02-.24-.05-.34-.04-.1-.08-.18-.13-.24l-6.91-10.21h-9.97c-.47,0-.78,0-.94,.03-.15,.02-.26,.07-.32,.13l-.66,.5-.23-.17,2.91-4.51h6.47l-4.5-6.69-14.39,20.89c-.06,.08-.1,.18-.14,.28-.03,.1-.04,.21-.04,.32,0,.18,.09,.32,.26,.43,.18,.11,.42,.17,.72,.17v.29Z"/>
        <path class="cls-7" d="M189.67,693.47v-26.18c0-.14-.03-.26-.08-.38-.05-.12-.14-.22-.26-.32l-.55-.51v-.29h6.54v.29l-.55,.51c-.12,.11-.2,.22-.25,.32-.05,.1-.07,.23-.07,.38v26.18c0,.17,.03,.31,.08,.44,.06,.12,.13,.23,.24,.33l.55,.51v.29h-6.54v-.29l.55-.51c.12-.09,.21-.21,.26-.33,.06-.12,.08-.27,.08-.44Z"/>
        <path class="cls-7" d="M218.05,669.74c-1.94,0-3.54,.16-4.83,.47-1.28,.32-2.36,.8-3.25,1.47-1.4,1.07-2.46,2.34-3.18,3.81-.72,1.48-1.08,3.12-1.08,4.91,0,1.91,.35,3.58,1.05,5.03,.7,1.45,1.75,2.67,3.16,3.65,.99,.7,2.09,1.2,3.3,1.49,1.22,.3,2.88,.44,5,.44h14.09c.2,0,.37-.03,.53-.08,.16-.05,.32-.15,.51-.29l.89-.68h.39l-3.07,5.06h-13.33c-3.08,0-5.47-.23-7.17-.71-1.7-.47-3.3-1.27-4.79-2.38-1.83-1.34-3.21-2.96-4.15-4.85-.93-1.88-1.4-3.99-1.4-6.31,0-1.8,.27-3.48,.81-5.06,.54-1.58,1.35-3.03,2.41-4.34,.75-.92,1.6-1.74,2.56-2.47,.96-.72,2.01-1.35,3.16-1.87,1.01-.45,2.09-.77,3.25-.97,1.16-.19,2.88-.29,5.15-.29h16.15l-3.04,5h-.23l.05-.37v-.08c0-.18-.08-.32-.23-.43-.15-.11-.34-.17-.57-.17h-12.12Z"/>
        <path class="cls-7" d="M239.62,693.47v-26.18c0-.15-.02-.28-.07-.38-.05-.1-.13-.21-.25-.32l-.6-.51v-.29h6.59v.29l-.59,.51c-.12,.1-.21,.2-.26,.32-.06,.12-.08,.24-.08,.38v26.18c0,.17,.02,.31,.08,.44,.05,.12,.14,.23,.26,.33l.59,.51v.29h-6.59v-.29l.6-.51c.11-.09,.19-.21,.24-.33,.05-.12,.08-.27,.08-.44Zm22.78,0v-12.72h-15.37c-.18,0-.34,.02-.48,.07-.14,.05-.3,.15-.5,.3l-.89,.68-.27-.13,2.9-4.94h14.62v-9.45c0-.14-.02-.26-.08-.38-.06-.12-.14-.22-.26-.32l-.6-.51v-.29h6.61v.29l-.62,.51c-.11,.08-.18,.18-.22,.29-.04,.11-.06,.24-.06,.41v26.18c0,.19,.02,.35,.07,.46,.05,.12,.12,.22,.21,.3l.62,.51v.29h-6.61v-.29l.6-.51c.12-.09,.21-.21,.26-.33,.05-.12,.08-.27,.08-.44Z"/>
        <path class="cls-7" d="M298.34,687.19v-19.91c-.02-.15-.05-.28-.09-.38-.04-.1-.13-.21-.25-.32l-.55-.51v-.29h6.54v.29l-.55,.51c-.12,.1-.21,.2-.25,.31-.04,.11-.07,.24-.09,.39v21.22c0,2.33-1.14,4.09-3.41,5.27-2.27,1.18-5.68,1.77-10.23,1.77s-7.93-.59-10.21-1.77c-2.28-1.18-3.42-2.94-3.42-5.27v-21.22c0-.15-.02-.28-.07-.38-.04-.1-.13-.21-.25-.32l-.55-.51v-.29h6.54v.29l-.55,.51c-.12,.1-.21,.2-.26,.32-.05,.12-.08,.24-.08,.38v19.91c0,1.65,.64,2.8,1.9,3.45,1.26,.65,3.57,.98,6.91,.98s5.74-.32,7.01-.97c1.27-.65,1.91-1.8,1.91-3.46Z"/>
        <path class="cls-7" d="M334.32,686.11v-18.82c-.02-.15-.05-.28-.09-.38-.04-.1-.13-.21-.25-.32l-.6-.51v-.29h6.13v.29l-.57,.51c-.11,.1-.19,.2-.24,.32-.05,.12-.08,.24-.08,.38v28.71l-22.81-20.95v18.42c0,.17,.03,.31,.08,.44,.05,.12,.13,.23,.24,.33l.55,.51v.29h-6.13v-.29l.62-.51c.11-.09,.19-.21,.24-.33,.05-.12,.08-.27,.08-.44v-28.7l22.83,21.33Z"/>
        <path class="cls-7" d="M361.44,669.74c-1.94,0-3.54,.16-4.83,.47-1.28,.32-2.36,.8-3.25,1.47-1.4,1.07-2.46,2.34-3.18,3.81-.72,1.48-1.08,3.12-1.08,4.91,0,1.91,.35,3.58,1.05,5.03,.7,1.45,1.75,2.67,3.16,3.65,.99,.7,2.09,1.2,3.3,1.49,1.22,.3,2.88,.44,5,.44h7.69v-10.19h-10.27c-.2,0-.37,.03-.53,.08-.16,.06-.32,.15-.51,.29l-.89,.68-.27-.16,2.95-4.9h14.27v16.65c0,.17,.03,.31,.09,.44,.06,.12,.14,.23,.25,.33l.55,.51v.29h-13.33c-3.08,0-5.47-.23-7.17-.71-1.7-.47-3.3-1.27-4.79-2.38-1.83-1.34-3.21-2.96-4.15-4.85-.94-1.88-1.41-3.99-1.41-6.31,0-1.8,.27-3.48,.81-5.06,.54-1.58,1.35-3.03,2.42-4.34,.75-.92,1.6-1.74,2.56-2.47,.96-.72,2.01-1.35,3.16-1.87,1.01-.45,2.09-.77,3.25-.97,1.16-.19,2.88-.29,5.15-.29h12.21l-3.04,5h-.28l.05-.37v-.08c0-.18-.08-.32-.23-.43-.15-.11-.34-.17-.57-.17h-8.14Z"/>
        <path class="cls-7" d="M411.47,669.74c-1.94,0-3.55,.16-4.83,.47-1.28,.32-2.36,.8-3.25,1.47-1.4,1.07-2.46,2.34-3.18,3.81-.72,1.48-1.08,3.12-1.08,4.91,0,1.91,.35,3.58,1.05,5.03,.7,1.45,1.75,2.67,3.16,3.65,.99,.7,2.09,1.2,3.3,1.49,1.22,.3,2.88,.44,5,.44h14.09c.2,0,.37-.03,.53-.08s.32-.15,.5-.29l.89-.68h.39l-3.06,5.06h-13.34c-3.08,0-5.47-.23-7.17-.71-1.7-.47-3.3-1.27-4.79-2.38-1.83-1.34-3.21-2.96-4.15-4.85-.93-1.88-1.4-3.99-1.4-6.31,0-1.8,.27-3.48,.81-5.06,.54-1.58,1.35-3.03,2.42-4.34,.75-.92,1.6-1.74,2.56-2.47,.96-.72,2.01-1.35,3.16-1.87,1.01-.45,2.09-.77,3.25-.97,1.16-.19,2.88-.29,5.15-.29h16.15l-3.04,5h-.23l.04-.37v-.08c0-.18-.08-.32-.23-.43-.15-.11-.34-.17-.57-.17h-12.12Z"/>
        <path class="cls-7" d="M433.24,693.47v-26.18c0-.14-.03-.26-.08-.38-.05-.12-.14-.22-.26-.32l-.55-.51v-.29h6.54v.29l-.55,.51c-.12,.11-.21,.22-.25,.32-.05,.1-.07,.23-.07,.38v26.18c0,.17,.03,.31,.08,.44,.06,.12,.14,.23,.24,.33l.55,.51v.29h-6.54v-.29l.55-.51c.12-.09,.21-.21,.26-.33,.06-.12,.08-.27,.08-.44Z"/>
        <path class="cls-7" d="M457.83,669.74h-13.04c-.15,0-.3,.03-.43,.09-.14,.05-.32,.17-.55,.35l-.89,.62-.27-.12,2.9-4.88h32.66l-3.06,5h-.23v-.45c0-.18-.07-.32-.21-.43-.14-.11-.32-.17-.55-.17h-11.55v23.74c0,.19,.02,.35,.05,.46,.04,.11,.11,.21,.22,.31l.6,.51v.29h-6.59v-.29l.59-.51c.12-.09,.21-.21,.27-.33,.05-.12,.08-.27,.08-.44v-23.74Z"/>
        <path class="cls-7" d="M491.51,693.47v-11.22l-14.14-16.47h7.55v.29l-.48,.37c-.06,.07-.11,.15-.16,.24-.05,.09-.07,.17-.07,.24,0,.22,.25,.62,.76,1.2,.07,.08,.13,.15,.18,.21l8.58,10.06,8.09-10.06s.09-.12,.18-.23c.48-.54,.71-.93,.71-1.17,0-.07-.03-.15-.07-.24-.04-.09-.1-.17-.15-.24l-.44-.37v-.29h7.41l-13.17,16.1v11.59c0,.17,.02,.31,.08,.44,.06,.12,.14,.23,.27,.33l.55,.51v.29h-6.57v-.29l.57-.51c.1-.09,.18-.21,.23-.33,.06-.12,.09-.27,.09-.44Z"/>
        <path class="cls-7" d="M541.85,669.74c-1.93,0-3.54,.16-4.82,.47-1.28,.32-2.37,.8-3.25,1.47-1.4,1.07-2.46,2.34-3.18,3.81-.71,1.48-1.07,3.12-1.07,4.91,0,1.91,.34,3.58,1.05,5.03,.7,1.45,1.75,2.67,3.16,3.65,.99,.7,2.09,1.2,3.3,1.49,1.21,.3,2.88,.44,5,.44h7.69v-10.19h-10.27c-.2,0-.37,.03-.53,.08-.15,.06-.32,.15-.51,.29l-.89,.68-.28-.16,2.95-4.9h14.27v16.65c0,.17,.03,.31,.09,.44,.06,.12,.15,.23,.26,.33l.55,.51v.29h-13.34c-3.08,0-5.47-.23-7.17-.71-1.7-.47-3.3-1.27-4.79-2.38-1.83-1.34-3.22-2.96-4.15-4.85-.94-1.88-1.41-3.99-1.41-6.31,0-1.8,.28-3.48,.81-5.06,.54-1.58,1.34-3.03,2.41-4.34,.75-.92,1.6-1.74,2.56-2.47,.96-.72,2.01-1.35,3.16-1.87,1.01-.45,2.08-.77,3.25-.97,1.16-.19,2.88-.29,5.14-.29h12.22l-3.04,5h-.27l.04-.37v-.08c0-.18-.08-.32-.23-.43-.16-.11-.35-.17-.58-.17h-8.14Z"/>
        <path class="cls-7" d="M578.31,665.27c2.46,0,4.74,.32,6.85,.94,2.12,.62,3.93,1.52,5.44,2.68,1.96,1.51,3.45,3.24,4.44,5.18,1,1.94,1.5,4.06,1.5,6.33s-.5,4.36-1.51,6.31c-1,1.94-2.49,3.66-4.44,5.16-1.53,1.19-3.35,2.11-5.46,2.74-2.11,.63-4.38,.95-6.83,.95s-4.69-.31-6.8-.95c-2.11-.63-3.93-1.55-5.46-2.74-1.97-1.48-3.45-3.19-4.45-5.13-1-1.93-1.5-4.05-1.5-6.34s.5-4.37,1.51-6.32c1-1.95,2.49-3.68,4.43-5.19,1.51-1.16,3.32-2.06,5.43-2.68,2.12-.62,4.39-.94,6.83-.94Zm0,3.93c-3.89,0-7.06,1.05-9.51,3.14-2.45,2.1-3.68,4.78-3.68,8.06s1.23,5.98,3.68,8.08c2.45,2.09,5.62,3.14,9.51,3.14s7.06-1.05,9.53-3.14c2.47-2.09,3.69-4.79,3.69-8.08s-1.23-5.97-3.69-8.06c-2.46-2.09-5.64-3.14-9.53-3.14Z"/>
        <path class="cls-7" d="M614.59,687.03l10.77-18.73c.17-.3,.3-.56,.38-.78,.08-.22,.12-.39,.12-.52,0-.09-.02-.18-.06-.27-.03-.08-.09-.16-.17-.22l-.46-.43v-.29h6.73l-17.36,30.22-17.34-30.22h7.02v.29l-.41,.37c-.09,.08-.16,.17-.21,.27-.05,.1-.08,.18-.08,.25,0,.12,.05,.31,.14,.56,.09,.25,.22,.52,.39,.81l10.55,18.71Z"/>
        <path class="cls-7" d="M649.86,669.74c-1.94,0-3.54,.16-4.82,.47-1.28,.32-2.36,.8-3.25,1.47-1.41,1.07-2.46,2.34-3.18,3.81-.71,1.48-1.07,3.12-1.07,4.91,0,1.91,.35,3.58,1.05,5.03,.7,1.45,1.75,2.67,3.16,3.65,.99,.7,2.09,1.2,3.3,1.49,1.22,.3,2.88,.44,5,.44h14.09c.2,0,.37-.03,.53-.08,.15-.05,.32-.15,.5-.29l.89-.68h.39l-3.07,5.06h-13.34c-3.08,0-5.47-.23-7.17-.71-1.7-.47-3.3-1.27-4.79-2.38-1.83-1.34-3.21-2.96-4.16-4.85-.93-1.88-1.4-3.99-1.4-6.31,0-1.8,.28-3.48,.81-5.06,.54-1.58,1.35-3.03,2.42-4.34,.74-.92,1.6-1.74,2.56-2.47,.96-.72,2.01-1.35,3.16-1.87,1.01-.45,2.09-.77,3.25-.97,1.16-.19,2.88-.29,5.14-.29h16.15l-3.04,5h-.23l.05-.37v-.08c0-.18-.08-.32-.23-.43-.16-.11-.35-.17-.57-.17h-12.12Zm-11.16,11.26l1.96-4.01h22.4l-3,5.07h-.28l.04-.41v-.09c0-.16-.07-.3-.21-.4-.14-.1-.34-.16-.58-.16h-20.34Z"/>
        <path class="cls-7" d="M688.76,665.79c2.2,0,4.07,.57,5.61,1.71,1.55,1.14,2.52,2.66,2.92,4.57l-8.19,5.44c3.95,.55,7.08,2.25,9.39,5.09,2.32,2.84,3.48,6.41,3.48,10.72v1.73h-5.67v-.29l.62-.51c.1-.09,.19-.21,.24-.33,.06-.12,.08-.27,.08-.44v-.92c0-3.44-1.18-6.29-3.54-8.54-2.36-2.25-5.33-3.37-8.93-3.37-.46,0-.94,.01-1.46,.05-.52,.03-1.07,.08-1.66,.15l8.66-6.11c.64-.47,1.08-.87,1.33-1.21,.25-.34,.37-.71,.37-1.12,0-.82-.38-1.47-1.16-1.95-.78-.47-1.86-.71-3.25-.71h-11.39v23.74c0,.17,.03,.31,.08,.44,.05,.12,.14,.23,.26,.33l.55,.51v.29h-6.54v-.29l.55-.51c.11-.09,.19-.21,.24-.33,.05-.12,.07-.27,.07-.44v-26.18c0-.15-.02-.28-.06-.38-.04-.1-.13-.21-.25-.32l-.55-.51v-.29h18.21Z"/>
        <path class="cls-7" d="M729.96,686.11v-18.82c-.02-.15-.05-.28-.09-.38-.05-.1-.13-.21-.25-.32l-.6-.51v-.29h6.13v.29l-.58,.51c-.1,.1-.18,.2-.24,.32-.05,.12-.07,.24-.07,.38v28.71l-22.8-20.95v18.42c0,.17,.02,.31,.08,.44,.05,.12,.13,.23,.24,.33l.55,.51v.29h-6.13v-.29l.61-.51c.11-.09,.19-.21,.24-.33,.05-.12,.08-.27,.08-.44v-28.7l22.83,21.33Z"/>
        <path class="cls-7" d="M759.61,687.28l11.53-22.5,8.95,30.26h-5.95v-.29l.57-.51c.08-.07,.15-.16,.2-.29,.05-.13,.08-.26,.08-.39,0-.07-.01-.17-.05-.31-.03-.14-.07-.3-.14-.47l-4.96-17.21-10.46,20.44-10.9-20.24-4.56,16.99c-.04,.15-.08,.29-.11,.41-.02,.12-.03,.24-.03,.35,0,.15,.02,.29,.07,.41,.05,.13,.11,.23,.2,.31l.53,.51v.29h-5.9l9.08-30.26,11.85,22.5Z"/>
        <path class="cls-7" d="M799.81,669.74c-1.93,0-3.54,.16-4.82,.47-1.28,.32-2.37,.8-3.25,1.47-1.4,1.07-2.46,2.34-3.18,3.81-.71,1.48-1.07,3.12-1.07,4.91,0,1.91,.35,3.58,1.06,5.03,.7,1.45,1.75,2.67,3.15,3.65,.99,.7,2.09,1.2,3.3,1.49,1.22,.3,2.88,.44,5,.44h14.09c.2,0,.37-.03,.53-.08,.15-.05,.32-.15,.5-.29l.89-.68h.39l-3.07,5.06h-13.34c-3.08,0-5.47-.23-7.17-.71-1.7-.47-3.3-1.27-4.79-2.38-1.83-1.34-3.21-2.96-4.16-4.85-.93-1.88-1.4-3.99-1.4-6.31,0-1.8,.27-3.48,.81-5.06,.54-1.58,1.35-3.03,2.42-4.34,.74-.92,1.6-1.74,2.56-2.47,.96-.72,2.01-1.35,3.16-1.87,1.01-.45,2.09-.77,3.25-.97,1.16-.19,2.88-.29,5.14-.29h16.15l-3.04,5h-.23l.04-.37v-.08c0-.18-.08-.32-.23-.43-.16-.11-.35-.17-.58-.17h-12.12Zm-11.16,11.26l1.97-4.01h22.39l-3,5.07h-.27l.05-.41v-.09c0-.16-.07-.3-.22-.4-.15-.1-.34-.16-.58-.16h-20.34Z"/>
        <path class="cls-7" d="M843.89,686.11v-18.82c-.01-.15-.04-.28-.09-.38-.04-.1-.13-.21-.25-.32l-.6-.51v-.29h6.13v.29l-.57,.51c-.11,.1-.19,.2-.24,.32-.05,.12-.08,.24-.08,.38v28.71l-22.8-20.95v18.42c0,.17,.02,.31,.08,.44,.05,.12,.13,.23,.24,.33l.55,.51v.29h-6.13v-.29l.61-.51c.11-.09,.19-.21,.25-.33,.05-.12,.08-.27,.08-.44v-28.7l22.83,21.33Z"/>
        <path class="cls-7" d="M867.22,669.74h-13.04c-.15,0-.29,.03-.43,.09-.14,.05-.32,.17-.55,.35l-.9,.62-.27-.12,2.91-4.88h32.66l-3.07,5h-.23v-.45c0-.18-.07-.32-.21-.43-.14-.11-.32-.17-.55-.17h-11.55v23.74c0,.19,.02,.35,.05,.46,.04,.11,.11,.21,.22,.31l.6,.51v.29h-6.59v-.29l.6-.51c.12-.09,.2-.21,.26-.33,.05-.12,.08-.27,.08-.44v-23.74Z"/>
      </g>
      <g>
        <path class="cls-1" d="M192.09,500.82h138.21s114.95-112.37,308.68-65.88c0,0-197.62-107.19-446.89,65.88Z"/>
        <path class="cls-6" d="M498.19,10s100.75,224.74,458.52,328.07h-241.52s-.01,98.15,205.36,200.2c0,0-246.69-42.63-315.15-233.79h116.25S522.73,175.31,498.19,10Z"/>
        <path class="cls-2" d="M388.44,143.05s31,30.98,43.9,38.73c0,0,55.55-52.94,64.59-111.06,0,0-49.08,80.07-108.49,72.33Z"/>
        <path class="cls-3" d="M344.52,123.68s89.11,125.27,196.32,149.81h-112.37s-72.33-40.04-83.95-149.81Z"/>
        <path class="cls-5" d="M326.44,106.87S257.99,279.95,10,376.82l210.53-31s-12.92,94.29-157.58,155c0,0,191.16-15.5,245.41-167.91l207.93-28.41H226.99s91.7-86.53,99.45-197.62Z"/>
      </g>
      <g>
        <path class="cls-7" d="M410.62,559.81c-6.6-4.52-10.57-6.78-11.89-6.78-.9,0-3.03,1.54-6.33,4.53-8.07,.04-16.24,.47-23.94,1.29v-14.72c0-.2,1.02-.88,3.08-2.03,.59-.33,.88-.81,.88-1.42,0-1.21-6.57-2.46-19.71-3.75,.52,3.85,.77,9.35,.77,16.5v7.61c-9.89,1.93-18.01,4.64-22.67,8.08v-10.44c-5.09-1.33-10.3-2.58-15.64-3.73,.59,4.32,.88,9.72,.88,16.21v6.68c0,1.76-.19,9.05-.55,21.87v.1c0,1.28,1.8,1.92,5.39,1.92,6.61,0,9.91-1.05,9.91-3.14v-4.96h22.68v17.22c0,1.15-.15,7.53-.44,19.14v.1c0,1.29,1.39,1.92,4.18,1.92,7.78,0,11.67-.97,11.67-2.93-.29-9.59-.44-15.02-.44-16.3v-19.14h23.67v5.98c0,1.35,1.62,2.02,4.84,2.02,7.05,0,10.57-1.08,10.57-3.24-.29-12.76-.44-19.78-.44-21.06v-11.45c0-.27,1.1-1.38,3.3-3.34,.66-.4,.99-.88,.99-1.42s-.26-.98-.77-1.32Zm-79.81,31.3v-18.65c3.44-3.22,11.41-6.33,22.67-8.59v27.25s-22.67,0-22.67,0Zm37.63,0v-29.47h.01v-.04c7.18-.77,15.12-1.23,23.66-1.28v30.79h-23.67Z"/>
        <path class="cls-7" d="M200.63,583.81c.15,.74,.22,1.62,.22,2.63,0,7.09-3.05,10.63-9.14,10.63-4.4,0-6.6-1.86-6.6-5.57,0-2.5,1.32-4.32,3.96-5.47,4.77-2.16,7.34-5.67,7.71-10.53l1.98-.1c.81,2.7,1.32,4.69,1.54,5.97h69.8c3.96-3.64,6.46-5.47,7.48-5.47,1.18,0,4.55,2.3,10.13,6.89,.14,.07,.25,.14,.32,.21,.37,.33,.55,.81,.55,1.42,0,.95-.48,1.49-1.43,1.62-2.35,.2-3.63,.4-3.85,.6-3.38,3.58-7.01,6.65-10.9,9.21l-1.87-.91c.22-1.82,.37-3.67,.44-5.57v-1.82c0-1.42-.04-2.67-.11-3.75h-70.24Zm67.38,43.55c5.14-5.94,8-8.91,8.59-8.91,.81,0,3.01,1.55,6.6,4.66,3.6,3.04,5.39,4.86,5.39,5.47,0,.74-.26,1.12-.77,1.12h-79.6c-8.52,0-14.72,.24-18.61,.71l-2.31-4.15c4.7,.75,12.22,1.12,22.57,1.12h19.38v-9.42h-12.33c-8.51,0-14.72,.27-18.6,.81l-2.31-4.15c4.7,.68,12.22,1.02,22.57,1.02h10.68v-7.19c-6.68,1.08-13.87,1.76-21.58,2.03-.22,0-.55,.68-.99,2.03-.3,.68-.74,1.01-1.32,1.01-.88,0-2.42-4.89-4.62-14.68,5.21,.95,10.53,1.56,15.96,1.82,1.4-1.89,2.38-4.46,2.97-7.7-7.12,0-12.04,.21-14.75,.61l-1.98-3.95c4.4,.61,10.27,.91,17.61,.91h29.84c4.55-4.25,7.05-6.38,7.49-6.38,.81,0,2.83,1.11,6.05,3.34,3.23,2.29,4.84,3.71,4.84,4.25,0,.74-.37,1.12-1.1,1.12h-30.94c-2.42,1.82-5.54,3.61-9.36,5.36-3.81,1.69-6.06,2.53-6.72,2.53,.96,.21,5.91,.3,14.87,.3,7.27,0,15.74-.27,25.43-.81-2.94-2.22-5.36-3.74-7.27-4.55l.55-1.01h.33c14.24,0,21.36,3.11,21.36,9.32,0,3.85-1.8,5.77-5.39,5.77-1.61,0-3.05-1.01-4.3-3.03-1.76-3.11-2.97-4.66-3.63-4.66-5.58,1.69-11.78,3.27-18.61,4.76v8.61h10.35c4.92-5.4,7.67-8.1,8.26-8.1,.73,0,2.82,1.38,6.27,4.15,3.45,2.77,5.18,4.46,5.18,5.07,0,.74-.26,1.11-.77,1.11h-29.51v9.32l24.22,.41Zm-49.87-68.05c-8.52,0-14.72,.24-18.61,.71l-2.2-4.15c4.62,.67,12.11,1.01,22.46,1.01h9.25v-6.99h-18.94c-8.44,0-14.64,.24-18.6,.71l-2.2-4.15c4.62,.67,12.14,1.01,22.57,1.01h17.18v-.71c0-2.57-.18-5.3-.55-8.2,12.55,1.08,18.82,2.23,18.82,3.44,0,.54-.37,.95-1.1,1.22-1.83,.61-2.75,1.08-2.75,1.42v2.84h22.79c4.99-5.27,7.71-7.9,8.15-7.9,.66,0,2.75,1.42,6.27,4.25,3.53,2.83,5.29,4.45,5.29,4.86,0,.81-.37,1.21-1.1,1.21h-41.4v6.99h14.98c4.92-4.52,7.56-6.78,7.93-6.78,.58,0,2.64,1.25,6.17,3.75,3.45,2.43,5.17,3.88,5.17,4.35,0,.74-.41,1.12-1.22,1.12h-58.35Zm53.62,10.43c0,1.49,.04,3.07,.11,4.76v1.92c0,1.55-3.38,2.33-10.13,2.33-2.64,0-3.96-.54-3.96-1.62v-1.52h-41.07v1.52c0,1.35-3.12,2.03-9.36,2.03-3.3,0-4.95-.68-4.95-2.03,.07-2.02,.11-4.73,.11-8.1,0-2.16-.18-4.89-.55-8.21,3.89,.61,8.92,1.76,15.09,3.45h39.74c3.74-2.97,5.98-4.46,6.72-4.46s2.79,.88,6.17,2.63c3.37,1.69,5.06,2.84,5.06,3.44s-.37,1.15-1.1,1.62c-1.32,.81-1.98,1.25-1.98,1.32l.11,.91Zm-13.98-3.14h-41.07v6.58h41.07v-6.58Z"/>
        <path class="cls-7" d="M457.89,556.87c-8.8,0-14.79,.21-17.94,.61l-2.1-4.35c5.29,.67,13.18,1.01,23.67,1.01h57.47c4.18-4.79,6.94-7.97,8.25-9.52,.22-.27,.59-.4,1.1-.4,.66,0,3.04,1.72,7.16,5.16,4.04,3.44,6.05,5.43,6.05,5.98,0,.95-.44,1.42-1.32,1.42l-82.35,.1Zm73.21,47.8c0,6.34-5.1,10.5-15.3,12.46l-.1,.1c-.96,.14-1.66,.2-2.09,.2-1.25,0-1.91-.54-1.99-1.62-.37-4.53-1.32-7.32-2.86-8.4-1.48-1.01-3.6-1.89-6.39-2.64l.33-2.02c2.86,.2,5.98,.3,9.36,.3h1.87c1.54,0,2.32-.71,2.32-2.13v-23.39h-18.38v31.6c0,4.73,.06,11.51,.21,20.35,0,1.29-2.75,2.13-8.25,2.53h-.11c-1.76,.14-3.05,.2-3.86,.2-2.79,0-4.18-.64-4.18-1.92,.15-10.27,.22-17.99,.22-23.19v-29.57h-17.17v24.41c0,1.68,.07,6.95,.22,15.8,0,1.76-3.81,2.63-11.45,2.63-2.72,0-4.07-.64-4.07-1.92,.15-10.26,.22-16.24,.22-17.92v-12.26c0-9.45-.18-15.56-.55-18.33,3.52,.88,6.38,1.69,8.59,2.43,2.72,.94,5.36,1.82,7.92,2.63h16.3v-1.01c0-6.48-.29-11.54-.88-15.19,5.87,.88,10.82,1.66,14.86,2.33,4.11,.61,6.17,1.28,6.17,2.03,0,.61-.48,1.12-1.44,1.52-1.83,.95-2.74,1.59-2.74,1.92v8.31h16.84c5.07-4.26,7.93-6.38,8.59-6.38s2.9,1.25,6.71,3.75c3.74,2.5,5.62,4.05,5.62,4.66,0,.48-.29,.91-.88,1.32-2.43,1.62-3.64,2.67-3.64,3.14v23.29Zm-58.24-66.23l.55-1.62c1.25-.07,2.79-.1,4.62-.1,13.87,0,20.81,3.37,20.81,10.12,0,4.8-2.61,7.19-7.82,7.19-3.52,0-5.87-1.48-7.04-4.45-2.57-5.87-6.28-9.59-11.12-11.14Z"/>
        <path class="cls-7" d="M617.01,578.85h-11.89v29.77c4.99-.81,10.17-1.99,15.52-3.55l.67,1.82c-14.68,9.93-30.35,16.81-47.01,20.66-.15,.07-.33,.98-.55,2.74-.15,1.01-.59,1.52-1.33,1.52-1.17,0-3.85-6.08-8.03-18.23,3.08,0,5.69-.13,7.82-.4v-27.95c0-7.9-.37-14.24-1.1-19.04,11.01,1.55,16.51,2.77,16.51,3.65,0,.54-.37,.94-1.09,1.21-1.39,.61-2.09,1.08-2.09,1.42v39.39c3.15-.41,5.57-.74,7.26-1.01v-60.76h-7.16c-2.05,0-4.21,.04-6.5,.1h-1.09c-3.67,.07-6.35,.24-8.05,.51l-2.2-4.25c4.99,.67,11.82,1.01,20.48,1.01h12.66c4.99-6.35,7.89-9.52,8.7-9.52,.96,0,3.27,1.65,6.93,4.96,3.66,3.37,5.51,5.4,5.51,6.08,0,.74-.34,1.11-1,1.11h-14.87v26.23c2.72-6.75,4.37-10.13,4.96-10.13,.95,0,3.52,3.41,7.7,10.23,3.89-12.49,5.84-25.66,5.84-39.5,5.72,1.08,10.45,2.03,14.2,2.84,3.67,.74,5.5,1.48,5.5,2.22,0,.61-.48,1.05-1.43,1.32-1.69,.61-2.54,.98-2.54,1.12-1.46,6.01-3.26,11.54-5.39,16.61h11.45c4.48-6.14,7.08-9.22,7.82-9.22,.81,0,3.15,1.62,7.04,4.86,3.97,3.17,5.95,5.09,5.95,5.77s-.37,1.01-1.1,1.01h-5.95c-.66,7.36-2.42,15.09-5.28,23.19-2.86,8.17-6.02,14.38-9.47,18.63,0,.54,2.42,2.23,7.27,5.06,4.77,2.84,10.16,5.23,16.17,7.19l-.21,1.42c-2.86,.27-4.95,3.55-6.27,9.82-.52,2.17-1.29,3.24-2.31,3.24-1.69,0-5.29-2.06-10.79-6.18-5.5-4.19-9.58-8.17-12.22-11.95-9.46,8.37-21.47,14.35-35.99,17.93l-1.1-1.52c13.86-6.28,24.54-14.72,32.03-25.32-3.23-6.28-5.17-15.53-5.83-27.75,0,.27-1.32,1.96-3.95,5.06-2.65,3.17-4.81,5.44-6.5,6.79l-1.66-1.11c1.4-2.63,2.72-5.67,3.97-9.11Zm27.3-15.29h-11.34c-1.98,4.12-3.78,7.56-5.39,10.33,0,.14,.88,3.17,2.64,9.12,1.77,5.94,3.75,10.5,5.95,13.67,4.91-9.11,7.64-20.15,8.14-33.11Z"/>
        <path class="cls-7" d="M698.96,562.5c0-6.82-.33-12.19-.99-16.1,5.95,1.28,11.45,2.8,16.51,4.56h27.53c-.81-.47-1.51-1.35-2.1-2.63-1.68-4.72-4.87-7.9-9.58-9.52l.55-1.52c2.35-.27,4.95-.4,7.81-.4,10.94,0,16.41,2.8,16.41,8.4,0,2.57-1.14,4.46-3.41,5.67h19.26c4.7-6.14,7.6-9.22,8.7-9.22,.73,0,3.01,1.59,6.82,4.76,3.89,3.17,5.83,5.09,5.83,5.77,0,.81-.44,1.22-1.32,1.22h-77.4v18.84c0,18.43-1.91,31.66-5.72,39.69-3.9,8.1-9.03,14.42-15.41,18.94l-1.55-.91c5.37-11.07,8.04-30.08,8.04-57.01v-10.53Zm29.18-6.58c12.33,2.5,18.49,4.32,18.49,5.47,0,.54-.44,.91-1.32,1.12-2.28,.54-3.45,.91-3.52,1.11-.08,0-.33,.68-.77,2.03-1.91,5.6-3.93,10.19-6.06,13.77,2.72,.95,4.07,1.73,4.07,2.33,0,.54-.29,.95-.88,1.22-1.54,.67-2.31,1.31-2.31,1.92v28.15c0,.88,.18,6.35,.55,16.41,0,1.75-3.78,2.63-11.34,2.63-2.2,0-3.3-.67-3.3-2.03,.28-8.85,.43-15.02,.43-18.53v-16.91c-2.86,2.63-5.72,4.86-8.59,6.69l-1.1-.91c3.45-5.06,6.71-12.05,9.8-20.96,3.08-8.91,5.03-16.74,5.84-23.49Zm27.74,22.28c-6.9,0-11.7,.2-14.42,.61l-2.09-3.95c4.48,.61,10.35,.91,17.62,.91h8.26v-3.95c0-5.6-.37-10.56-1.1-14.88,12.48,1.42,18.72,2.57,18.72,3.44,0,.61-.37,1.05-1.1,1.31-1.84,.88-2.75,1.56-2.75,2.03v12.04h.66c2.79-7.15,4.66-10.73,5.61-10.73,.66,0,2.31,1.86,4.96,5.57,2.64,3.65,3.96,5.81,3.96,6.48,0,.61-.25,.91-.76,.91h-14.42v41.12c0,6.55-4.48,10.7-13.44,12.46h-.11c-.8,.2-1.5,.3-2.08,.3-1.18,0-1.88-.51-2.1-1.52-.51-3.57-1.32-5.98-2.42-7.19-1.18-1.28-4.37-2.64-9.58-4.05l.44-1.92c3.82,.27,7.52,.41,11.12,.41h1.66c1.83,0,2.75-.78,2.75-2.33v-37.06h-9.36Zm-14.53,7.8l1.1-1.11c4.92,.81,9.17,2.57,12.77,5.26,3.6,2.7,5.39,5.7,5.39,9.01,0,4.73-2.67,7.09-8.03,7.09-3.89,0-5.83-2.23-5.83-6.68-.08-6.08-1.87-10.6-5.4-13.57Z"/>
      </g>
    </g>
  </g>
</svg>