<?xml version="1.0" encoding="UTF-8"?>
<svg id="_圖層_2" data-name="圖層 2" xmlns="http://www.w3.org/2000/svg" viewBox="0 0 178.57 197.74">
  <defs>
    <style>
      .cls-1 {
        fill: #004ea2;
      }

      .cls-2 {
        fill: #e60012;
      }

      .cls-3 {
        fill: #fff;
      }

      .cls-4 {
        fill: #ffe100;
      }

      .cls-5 {
        fill: #45b035;
      }
    </style>
  </defs>
  <g id="_圖層_1-2" data-name="圖層 1">
    <g>
      <path class="cls-3" d="M175.57,125.27h-47.14c-1.57,0-2.86,1.21-2.99,2.75-3.14-1.99-6.86-2.75-13.01-2.75h-6.26c.3-.62,.5-1.29,.5-1.98v-.37c0-.1,0-.2,0-.3,.38-.71,.57-1.47,.57-2.26,0-.02,0-.05,0-.07,.02-.16,.04-.34,.04-.53v-.3s0-.1,0-.15c0-.05,0-.1,0-.15v-.43c.23-.41,.38-.85,.47-1.31,.23-.52,.36-1.07,.39-1.65l.03-.77s.01-.05,.02-.07c.05-.15,.08-.27,.1-.37,.05-.15,.1-.36,.13-.6,.03-.14,.05-.29,.06-.47,.52-.71,.81-1.55,.85-2.47l.02-.53c.08-.22,.14-.44,.18-.66l.03-.13c.05-.08,.1-.17,.15-.25,.45-.63,.72-1.33,.81-2.08l.18-1.46c.06-.12,.11-.24,.16-.37,.36-.62,.57-1.27,.65-1.93,.02-.22,.04-.44,.04-.66,0-.64-.12-1.27-.36-1.86,.02-.05,.03-.09,.05-.14,.08-.15,.15-.3,.21-.45,.12,.03,.25,.07,.38,.09,.2,.24,.44,.46,.76,.67,.34,.62,.8,1.15,1.36,1.57,.55,.97,1.38,1.6,2.38,1.83,.51,.66,1.12,1.1,1.84,1.35,.15,.18,.44,.5,.88,.77,.24,.21,.5,.39,.78,.55,.55,.67,1.5,1.51,3.14,1.58l1.61,.07s.09,0,.14,0c.05,0,.11,0,.16,0l.36-.02c.32-.02,.64-.07,.96-.15l.61,.08c.64,.39,1.49,.66,2.62,.67h.71c.22,.09,.45,.15,.68,.2,.76,.58,1.68,.93,2.66,1,.15,.01,.3,.02,.45,.02,1.06,0,1.96-.27,2.67-.6,.21,.07,.44,.12,.69,.16l.96,.14c.35,.25,.72,.45,1.11,.59,.46,.17,.89,.26,1.27,.3,.53,.22,1.09,.33,1.66,.33,.23,0,.46-.02,.69-.05l1.74-.27c.14-.02,.28-.05,.41-.09l.28-.08c.21-.06,.41-.14,.61-.23h.04c.48-.02,.92-.11,1.32-.27,.12,0,.24,.01,.36,.01,1.02,0,1.96-.28,2.71-.82,.46-.32,.83-.66,1.15-1.03,.37-.08,.73-.16,.97-.26,.17-.07,.32-.14,.47-.22,.32-.05,.64-.14,.95-.27l1.19-.5c.12-.05,.24-.11,.35-.18,.17-.1,.34-.2,.5-.31h.09c.55,0,1.08-.1,1.59-.29h1.19c1.37,0,2.61-.54,3.53-1.53,.27-.22,.52-.47,.73-.74,.05-.01,.1-.03,.15-.04,.87-.25,1.64-.76,2.27-1.47,1.11-.8,1.57-1.81,1.76-2.62,.88-.53,1.98-1.61,1.98-3.73,0-.19,0-.37-.02-.54,0-.05,0-.1,0-.15v-1.19c-.02-.57-.13-1.12-.34-1.64-.01-.11-.03-.21-.05-.32,.07-.31,.11-.62,.11-.93v-.18s0-.05,0-.08v-.93c-.02-.82-.25-1.61-.66-2.31-.1-.62-.32-1.22-.66-1.78-.2-.48-.47-.92-.8-1.31,0-.09,0-.18,0-.27,0-.11,0-.22-.01-.33l-.04-.59s0-.04,0-.06l-.02-.26c-.01-.17-.04-.33-.08-.48-.1-.91-.41-1.76-.92-2.43-.07-.09-.14-.17-.2-.24-.13-.23-.28-.45-.44-.67,.13-.45,.2-.93,.2-1.41,0-.32-.03-.64-.09-.96,.07-.34,.1-.68,.1-1.03,0-.23-.01-.47-.04-.71-.04-.34-.11-.66-.22-.98,.23-.51,.43-1.15,.43-1.89,0-.43-.07-.85-.19-1.26-.18-.55-.71-2.24-2.73-3.03-.01-.01-.02-.02-.04-.03-.51-1.2-1.54-2.02-2.93-2.3-.63-.48-1.38-.77-2.22-.86-.52-.32-1.14-.5-1.83-.56l-.32-.02c-.36-.16-.73-.27-1.12-.33-.29-.12-.59-.22-.9-.28-.55-.12-1.14-.17-1.79-.17-.04,0-.08,0-.13,0-.22-.07-.44-.12-.66-.16-.28-.05-.56-.07-.84-.07-.41,0-.82,.05-1.21,.15-.06-.02-.12-.03-.19-.04-.56-.12-1.15-.17-1.8-.17-.05,0-.09,0-.14,0-.49-.15-1-.23-1.51-.23h0c-.35,0-.7,.04-1.04,.11-.33,.07-.65,.17-.95,.31-.15-.01-.28-.02-.37-.03-.03,0-.06,0-.08,0l-1.3-.08c-.09,0-.18,0-.27,0-.58,0-1.14,.11-1.69,.32h-.37s-1.12-.01-1.12-.01c-.02,0-.06,0-.07,0-.77,0-1.52,.19-2.22,.55-.27,.05-.53,.13-.77,.24-.42,.19-.8,.44-1.14,.72-.02,0-.05,0-.07,0h-.6c-1.49,0-2.87,.67-3.81,1.83-.28,.24-.53,.5-.75,.78-.54,.1-1.06,.29-1.54,.55-.02,0-.04,0-.06-.01l-.16-.03c-.66-.4-1.4-.63-2.21-.65l-.68-.02c-.47-.18-.95-.27-1.46-.28h-.05c-.18-.07-.36-.13-.55-.18-.3-.14-.62-.25-.94-.32-.52-.24-1.07-.37-1.65-.39l-.42-.02c.05-.21,.09-.42,.11-.64l.22-2.38c.05-.1,.09-.21,.12-.31,.39-.59,.6-1.28,.6-2.03,0-.1,0-.2-.01-.31,.4-.56,.69-1.19,.83-1.87,.08-.36,.12-.74,.12-1.11,0-.35-.04-.69-.11-1.03,.38-.63,.6-1.36,.63-2.16l.02-.58c.14-.35,.23-.72,.28-1.09l.1-.75c.36-.66,.54-1.39,.55-2.15v-.78c.14-.37,.23-.76,.26-1.16,.1-.25,.18-.5,.24-.76,.18-.41,.29-.83,.34-1.27l.08-.63c.06-.12,.12-.24,.18-.37,.31-.5,.53-1.03,.64-1.58,.08-.41,.12-.82,.12-1.22,0-.21-.02-.41-.04-.58,0-.05,0-.11,0-.16v-.26c.12-.33,.2-.66,.25-1l.1-.73c.27-.49,.44-1,.51-1.54,.26-.44,.45-.91,.56-1.41,.08-.35,.12-.72,.12-1.1,0-.1,0-.2-.01-.28l.09-1.18c.3-.51,.62-1.24,.62-2.17,0-.32-.04-.63-.11-.95,.35-.62,.54-1.32,.57-2.07v-.45c.19-.44,.29-.89,.33-1.35,.15-.37,.24-.75,.29-1.13v-.1c.05-.27,.06-.53,.06-.78,0-.12,0-.23-.02-.34,.03-.25,.04-.5,.04-.74,0-.25-.02-.49-.06-.7,.1-.37,.15-.74,.15-1.11,0-.34-.05-.65-.12-.9,0-.27-.02-.55-.06-.83-.05-.42-.17-.84-.34-1.24-.07-.45-.21-.88-.42-1.3v-.1c-.05-.35-.15-.69-.3-1.01-.2-.4-.44-.77-.73-1.1-.07-.31-.18-.64-.32-.98-.05-.39-.15-.77-.29-1.14,0-.05,0-.1-.02-.16,.03-.19,.05-.39,.05-.62,0-.11,0-.22-.01-.33v-.14c-.04-.51-.16-1.01-.37-1.51-.13-1.05-.61-1.99-1.36-2.71-.27-.43-.58-.8-.95-1.12l-.3-.66c-.39-.85-.96-1.49-1.67-1.88-.33-1.69-1.48-3.13-3.07-3.74-.06-.02-.12-.04-.18-.06-.87-.76-1.95-1.17-3.11-1.17,0,0-.03,0-.04,0h-.31s-.87,0-.87,0c-.51,0-1.02,.08-1.52,.25-.76,.05-1.44,.21-2.08,.51-.69,.32-1.58,.94-2.21,2.12-.05,.05-.1,.11-.15,.17-.38,.26-.74,.56-1.06,.89l-.15,.06c-.68,.29-1.22,.82-1.54,1.48-.03,.03-.06,.05-.09,.08-1.14,1.05-1.8,2.58-1.8,4.21,0,.88,.2,1.76,.58,2.54,.06,.12,.12,.24,.19,.35-.38,.2-.74,.44-1.05,.73h-.05c-.48,.15-1.11,.38-1.66,.92-.57,.25-1.08,.59-1.53,1.04-.39,.39-.7,.85-.95,1.37-1,.64-1.63,1.69-1.79,3.02l-.03,.22c-.2,.41-.34,.84-.42,1.28-.4,.65-.62,1.39-.65,2.18-.02,.05-.04,.11-.06,.16-.33,.6-.51,1.26-.53,1.95l-.02,.44c-.2,.51-.31,1.05-.32,1.61v.05c-.14,.36-.23,.74-.28,1.12-.03,.23-.05,.43-.07,.59-.36,.65-.55,1.37-.55,2.14v.55c-.29,.51-.47,1.07-.54,1.66l-.21,1.77c-.09,.18-.16,.37-.22,.56-.33,.61-.5,1.27-.53,1.97v.17c-.14,.34-.23,.7-.28,1.06l-.06,.42c-.27,.49-.44,1.01-.52,1.57l-.06,.42c-.36,.5-.62,1.06-.78,1.65-.12,.45-.17,.9-.17,1.36,0,.16,.01,.31,.03,.45l-.13,1.68c-.27,.54-.42,1.11-.46,1.71-.25,.43-.43,.88-.53,1.36-.1,.48-.15,.95-.15,1.41,0,.33,.03,.63,.08,.89-.02,.15-.03,.3-.04,.45-.34,.62-.53,1.29-.55,2.01l-.03,.84c-.15,.4-.25,.82-.29,1.24l-.14,1.59c-.31,.62-.47,1.29-.47,1.98v.44c-.03,.06-.05,.13-.07,.19-.34,.64-.52,1.32-.54,2.04l-.03,1.36c0,.05,0,.11,0,.16v.42c-.04,.22-.07,.45-.09,.67,0,.03-.01,.07-.02,.1l-.18,.98c-.29,.51-.47,1.06-.56,1.62-.17,.43-.27,.88-.3,1.34l-.16,2.22c0,.08,0,.16,0,.24-.81,1.26-.81,2.57-.81,3.04,0,.25,.01,.5,.02,.75,0,.14,.02,.28,.04,.42l-.42,1.58c-.08,.29-.11,.59-.1,.9,.01,.35,.06,.71,.14,1.05,.02,.36,.08,.72,.19,1.08h0c-.17,.37-.3,.75-.37,1.13-.35,.7-.54,1.47-.55,2.24-.19,.4-.32,.81-.39,1.23-.06,.34-.09,.68-.09,1.01,0,.23,.02,.43,.05,.62-.01,.1-.02,.21-.02,.33v.06c-.11,.31-.19,.62-.23,.94l-.14,.99-.08,.48c-.04,.28-.07,.57-.07,.86-.52,.55-.82,1.12-.99,1.59-.23,.63-.35,1.29-.35,1.95,0,.58,.11,1.17,.34,1.77,0,.07,.02,.13,.03,.2,0,.05,0,.09,0,.14-.16,.36-.28,.74-.35,1.12-.23,.6-.35,1.23-.35,1.86,0,.22,.01,.44,.04,.65,0,0,0,.01,0,.02,0,0,0,.02,0,.02,0,0,0,.01,0,.02,0,.03-.02,.06-.03,.09-.04,.12-.07,.26-.11,.41-.07,.29-.12,.56-.14,.82-.37,.7-.57,1.49-.57,2.31v.6c0,.19,.01,.38,.03,.56-.04,.08-.07,.17-.1,.25-.53,.63-.89,1.36-1.04,2.13-.04,.19-.06,.39-.06,.58,0,0,0,.02,0,.02,0,.22-.06,1.17-.06,1.18,0,.12,0,.23,0,.35l.02,.26c.02,.26,.06,.5,.1,.72,0,.42,.05,.85,.16,1.28,.02,.09,.05,.17,.08,.25,0,.03,0,.06,0,.09-.32,.44-.57,.93-.73,1.46-.16,.54-.25,1.1-.25,1.66,0,.42,.06,.85,.18,1.28-.06,.27-.1,.54-.13,.83v.15c-.03,.15-.03,.29-.03,.44s0,.27,.02,.39c-.17,.46-.27,.93-.28,1.43v.03c-.53,.92-.77,2.01-.66,3.18,.01,.16,.04,.33,.08,.48-.15,.55-.38,1.4-.4,1.47-.05,.17-.05,.34-.07,.51-1.49,.18-2.65,1.43-2.65,2.96v19.56l-9.3-20.79c-.48-1.08-1.56-1.78-2.74-1.78h-1.24c.1-.16,.2-.31,.28-.48,.67,.39,1.46,.59,2.35,.59,.11,0,.21,0,.33,0,.44-.02,.82-.12,1.13-.24,2.01-.19,3.55-1.47,4.08-3.43h0c.16-.22,.34-.5,.47-.84,.18-.44,.31-.92,.37-1.4,.18-.46,.29-.93,.31-1.41,.41-.53,.76-1.26,.82-2.29v-.15c.91-.71,1.54-1.65,1.85-2.74,.52-.47,.86-.99,1.07-1.42,.37-.77,.55-1.61,.56-2.58,.09-.29,.16-.62,.18-.99l.02-.13c.28-.48,.46-.99,.56-1.51,.08-.42,.11-.83,.11-1.23,0-.22-.02-.42-.04-.58,0-.03,0-.06,0-.08,0,0,0-.15,0-.33,.21-.55,.31-1.11,.31-1.68v-.61c0-.3-.03-.61-.09-.91,.06-.3,.09-.6,.09-.91v-1.96c.17-.46,.27-.92,.29-1.39,0-.17,.01-.33,.01-.48,0-.33-.02-.65-.06-.97,.03-.16,.05-.33,.05-.51l.23-5.72c.25-.57,.37-1.18,.37-1.8v-2.33s0-.4,0-.4c.2-.54,.3-1.09,.3-1.65v-.6c0-.05,0-.1,0-.15,0-.05,0-.1,0-.15v-1.95c.2-.53,.3-1.09,.3-1.65,0-.15-.01-.3-.03-.43l.18-2.19v-.15c.3-.61,.44-1.25,.45-1.92v-1.19c.21-.53,.31-1.07,.31-1.62,0-.02-.05-1.53-.05-1.53,0-.19-.02-.37-.02-.54,.16-.37,.26-.76,.31-1.16l.13-.97c.25-.48,.41-.99,.49-1.51,.22-1.53,.23-2.8,.24-3.92l.04-.91c.24-.57,.37-1.17,.37-1.79v-.75c.2-.51,.29-1.04,.3-1.58v-1.59c.2-.51,.3-1.03,.31-1.55l.04-1.75c.02-.62,.04-1.28,.04-1.95,0-.84-.03-1.6-.1-2.3-.04-.4-.13-.8-.28-1.18v-.56c0-.05,0-.11,0-.16,.01-.15,.02-.3,.02-.44,0-.58-.1-1.15-.28-1.7,.02-.21,.03-.44,.03-.69,0-.59-.06-1.14-.19-1.68-.14-.58-.38-1.03-.62-1.37l-.1-.45c-.05-.22-.12-.44-.22-.64-.13-.28-.28-.5-.46-.7,0-.27,0-.49,0-.49,0-.74-.18-1.44-.52-2.1-.05-.45-.1-.94-.1-.94-.05-.44-.16-.88-.34-1.29-.03-.6-.18-1.17-.44-1.7-.08-.29-.19-.57-.32-.83v-.06c-.06-.92-.53-1.77-1.28-2.3l-.92-.8-.14-.23c-.55-.92-1.24-1.41-1.88-1.68-.44-.46-.96-.84-1.54-1.12-.11-.09-.23-.19-.37-.28l-.35-.23-.19-.14c-.85-.62-1.85-.94-2.91-.94h0c-.62,0-1.25,.12-1.84,.35l-.29,.04c-1.4,.2-2.57,.97-3.35,2.18-.3,.24-.58,.52-.82,.82-.07,.05-.13,.11-.19,.16-.47,.24-.9,.55-1.28,.93-.4,.4-.73,.88-.97,1.42-.03,.02-.05,.05-.07,.07l-.21,.2c-.06,.06-.12,.12-.19,.19-.34,.25-.66,.54-.93,.87-.22,.18-.42,.39-.61,.61-.73,.61-1.26,1.42-1.53,2.34-.37,.69-.57,1.45-.57,2.24,0,.07,0,.15,0,.22l.03,.65c0,.07,0,.14,.02,.21,.02,.42,.08,.84,.19,1.23-.5,.33-.98,.84-1.36,1.63l-.38,.79c-.34,.34-.63,.74-.87,1.18-.53,.55-.89,1.23-1.07,1.99-.62,.72-.97,1.64-1.01,2.67v.02c-.2,.34-.36,.71-.46,1.1-.54,.75-.72,1.55-.75,2.19v.21c-.35,.57-.56,1.2-.63,1.87l-.05,.52c-.52,.49-.92,1.06-1.17,1.72-.27,.67-.4,1.36-.4,2.06,0,.11,0,.22,.01,.32-.18,.51-.27,1.04-.27,1.57v.3c0,.56,.1,1.11,.29,1.64-.08,.21-.14,.42-.18,.64-.12,.56-.18,1.15-.18,1.82,0,.05,0,.09,0,.14-.1,.32-.17,.64-.21,.97-.02,.23-.04,.45-.04,.68,0,.21,.01,.41,.03,.59-.01,.12-.02,.25-.02,.4,0,.03,.06,1.65,.06,1.65,0,.02,0,.04,0,.05,.01,.24,.03,.47,.03,.69-.26,.6-.39,1.24-.39,1.87,0,0,0,.47,0,.69-.09-.13-.18-.25-.28-.35-.34-1.27-1.22-2.27-2.46-2.78-.04-.03-.08-.05-.13-.08-.57-.71-1.32-1.17-2.23-1.37,0,0-.02,0-.03-.01-.08-.06-.16-.11-.24-.17-.38-.39-.82-.71-1.32-.97-.04-.02-.09-.04-.14-.06-.43-.47-1.06-.93-2-1.13-.25-.22-.52-.41-.82-.57-.46-.51-1.08-.85-1.84-1.03-.59-.83-1.4-1.31-2.47-1.45-.67-.34-1.4-.52-2.14-.52h0c-.06,0-.12,0-.18,0l-.61,.02h-.47c-.07,0-1.59,.04-2.6,.53l-.28,.14-.4,.2c-.49,.25-1.11,.68-1.63,1.4-.2,.15-.38,.32-.55,.5-.28,.16-.54,.35-.78,.56-.58,.5-1.03,1.12-1.32,1.81-.12,.13-.22,.26-.32,.39-.93,.57-1.68,1.41-2.14,2.44-.07,.08-.13,.17-.19,.25-1.44,.84-2.6,2.4-2.6,4.63,0,.19,0,.39,.03,.6v.04s0,.07,.01,.1c.04,.58,.19,1.14,.42,1.66-1.22,.27-2.54,1.1-3.25,3.25l-.29,.88c-.17,.51-.26,1.04-.26,1.58,0,.36,.05,.69,.12,.99-.05,.26-.07,.53-.07,.8,0,.08,0,.16,0,.23-.02,.2-.03,.41,0,.61l.17,1.83c.15,1.65,.99,2.52,1.77,3,.07,.23,.18,.44,.3,.64,.33,.54,.76,1,1.28,1.37,.17,.2,.36,.39,.56,.57,.02,.03,.03,.06,.05,.09,.07,.46,.2,.88,.39,1.27l-.03,.12c-.08,.29-.12,.63-.11,.93,.05,1.29,.54,2.51,1.35,3.35,1.03,1.07,2.3,1.67,3.59,1.67h.42c.28,0,.56-.03,.84-.08,.02,.02,.05,.03,.07,.05,.59,.39,1.18,.62,1.71,.76,.37,.39,.91,.79,1.7,1,.79,.61,1.65,.79,2.34,.82,.34,.17,.72,.31,1.18,.4,.21,.14,.42,.26,.65,.36,.25,.26,.55,.47,.88,.63,.27,.12,.47,.19,.75,.24,.72,.46,1.52,.75,2.35,.83,.38,.21,.81,.35,1.28,.43,.41,.21,.85,.35,1.31,.42,.36,.15,.72,.26,1.09,.32l.31,.05c.26,.04,.52,.06,.78,.06,.24,0,.49-.02,.73-.06,.07,0,.14,0,.23,0,.91,0,1.93-.23,3.03-.68,.35-.14,.66-.33,.93-.52,.05,0,.11,0,.16,0,.1,0,.18-.02,.28-.02-.02,.19-.04,.39-.04,.59,0,.71,.14,1.41,.4,2.05-.12,.49-.18,1.02-.18,1.55,0,.99,.21,1.94,.62,2.77,0,.02,0,.03,0,.05-.35,.69-.53,1.46-.53,2.27,0,.58,.1,1.16,.29,1.71,.02,.19,.06,.37,.1,.56-.09,.42-.13,.84-.13,1.25,0,.28,.02,.57,.07,.84,.05,.29,.12,.57,.23,.85,0,.15,.01,.28,.02,.37v.14s0,.02,0,.03c.04,1.23,.51,2.4,1.32,3.28,.14,.15,.29,.29,.45,.43,.06,.22,.13,.41,.21,.58,0,.02,.01,.04,.02,.06l.07,.25c.09,.31,.2,.56,.29,.75,0,0,0,.01,0,.02,.08,.77,.3,1.49,.68,2.16,.14,.26,.34,.55,.59,.85h-1.48c-.76,0-1.47,.29-2.01,.77-.53-.48-1.24-.77-2.01-.77H3c-1.66,0-3,1.34-3,3v11.91c0,1.66,1.34,3,3,3H12.47v27.96c0,1.66,1.34,3,3,3h27.4c1.24,0,2.35-.76,2.8-1.91l2.21-5.68h11.57l2.43,5.76c.47,1.11,1.56,1.83,2.76,1.83h10.38c.02,.15,.04,.3,.08,.44,.15,.78,.47,1.52,.94,2.14-.27,.84-.35,1.68-.35,2.38,0,.35,.02,1.01,.16,1.52,.02,.06,.04,.13,.06,.19,.04,.61,.17,1.15,.3,1.56-.71,1.41-.72,3.05,0,4.48l.22,.43c.86,1.72,2.48,2.74,4.33,2.74,.1,0,.19,0,.29,0l.35-.02s.06,0,.08,0h.1c.28-.03,.55-.1,.81-.19,.11-.02,.21-.05,.31-.07,1.98-.39,3.5-1.86,3.92-3.8,.02-.09,.04-.17,.05-.26,.99-.94,1.55-2.25,1.51-3.67h0c.03-.16,.06-.32,.08-.47,.2-.55,.31-1.1,.31-1.66v-.3c0-.56-.1-1.11-.3-1.65v-.63c.2-.54,.3-1.09,.3-1.65v-.3c0-.21-.02-.4-.05-.58,.05-.18,.07-.39,.09-.6h2.77c.31,0,.61-.06,.89-.15,.28,.09,.58,.15,.89,.15h14.32c1.66,0,3-1.34,3-3v-11.13h.88c6.24,0,9.67-.59,13.1-2.24,.33-.17,.66-.35,.98-.54v13.92c0,1.66,1.34,3,3,3h47.14c1.66,0,3-1.34,3-3v-42.87c0-1.66-1.34-3-3-3Zm-142.49,26.45v-8.53h3.72l-3.72,8.53Z"/>
      <g>
        <g>
          <path class="cls-3" d="M144.49,180.21h-8.18l-.12-.56h8.31v-1.59c.48,.08,.99,.17,1.53,.27,.21,.03,.3,.15,.29,.35-.22,.25-.42,.5-.6,.74v.23h5.46l1.28-1.26,1.59,1.24-.27,.58h-8.06v1.51h3.72l1.28-1.26,1.59,1.24-.27,.58h-13.66l-.12-.56h6.24v-1.51Zm-3.66,6c-.01,.19-.06,.32-.14,.37-.11,.05-.27,.09-.48,.1-.22-.02-.38-.05-.48-.1-.08-.06-.12-.19-.12-.41v-3.39l1.12,.68h8.75l.68-.56,1.01,.7c.11,.07,.16,.19,.14,.35-.04,.19-.15,.32-.33,.37-.15,.03-.23,.11-.23,.25v1.84c-.01,.11-.1,.17-.27,.19-.26,.03-.5,.05-.72,.06-.17,.03-.24-.02-.23-.14v-.6h-8.7v.29Zm8.7-.85v-1.34h-8.7v1.34h8.7Zm-12.71,4.8c-.22,.16-.45,.24-.7,.23-.18-.01-.32-.09-.41-.23-.23-.34-.1-.7,.39-1.08,.79-.65,1.22-1.47,1.3-2.46h.37v.56h14.78l.85-.76,1.18,.93c.25,.15,.34,.34,.29,.56-.07,.26-.27,.37-.6,.33-.22,0-.38,.07-.48,.21-.48,.69-.92,1.28-1.3,1.78l-.39-.21c.34-.77,.58-1.53,.7-2.27h-15.07c-.15,1.14-.45,1.95-.91,2.42Zm7.5,4.61h-5.7l-.12-.56h5.83v-1.47c-1.97,.14-3.71,.25-5.21,.33-.1,.01-.15,.1-.16,.27-.01,.28-.15,.41-.41,.41-.23,.01-.38-.14-.44-.48-.11-.48-.21-1-.31-1.55,1.1,.12,2.21,.19,3.33,.21,.47-.66,.85-1.43,1.14-2.3h-3.31l-.12-.56h9.63l1.22-1.18,1.47,1.16-.27,.58h-7.26c-.54,.87-1.12,1.63-1.74,2.3,2.02-.01,4.28-.24,6.76-.66-.48-.28-.91-.43-1.28-.48l.12-.45c.61,.04,1.28,.19,2.03,.45,.8,.3,1.35,.62,1.65,.95,.15,.19,.23,.38,.25,.56,.01,.24-.03,.4-.12,.5-.17,.11-.32,.17-.46,.17-.19-.04-.34-.11-.43-.21-.34-.38-.68-.71-1.01-.97-1.16,.26-2.44,.52-3.84,.76v1.65h3.49l1.22-1.18,1.47,1.16-.27,.58h-5.91v1.92h5.87l1.28-1.26,1.59,1.24-.27,.58h-17.88l-.12-.56h8.31v-1.92Z"/>
          <path class="cls-3" d="M162.93,184.76h-5.54l-.15-.56h5.69v-6c.52,.1,1,.17,1.43,.23,.33,.05,.5,.17,.52,.35,.02,.22-.11,.38-.37,.47-.23,.11-.35,.25-.35,.43v17.72c-.01,.14-.08,.21-.21,.23-.33,.05-.63,.09-.89,.1-.1,0-.14-.07-.12-.21v-5.04c-.94,.62-2.29,1.3-4.07,2.05-.75,.26-1.11,.45-1.1,.58,.07,.29,0,.48-.21,.58-.23,.06-.42-.05-.56-.31-.18-.43-.4-.96-.66-1.59,2-.14,4.2-.81,6.59-2.01h0v-7.03Zm11.29-3.45c.39,.29,.75,.56,1.1,.81,.13,.11,.18,.23,.17,.35,0,.15-.07,.26-.21,.31-.11,.01-.23,0-.35-.06-.11-.03-.19-.02-.25,.04-1.38,1.57-3.2,2.76-5.48,3.56v8.68c0,.3,.03,.52,.08,.66,.1,.17,.25,.28,.48,.33,.37,.08,.98,.12,1.82,.12,.87-.03,1.52-.07,1.94-.12,.14-.03,.27-.1,.39-.23,.32-.19,.62-.98,.91-2.36l.54,.02c-.03,1.32,.04,2.03,.21,2.13,.3,.15,.46,.36,.46,.62,0,.36-.29,.62-.87,.79-.58,.21-1.74,.33-3.49,.37-1.12-.03-1.98-.09-2.61-.19-.34-.11-.63-.32-.85-.62-.16-.34-.24-.7-.23-1.07v-17.38l1.47,.29c.26,.07,.39,.21,.39,.44-.03,.19-.19,.33-.5,.41-.1,.04-.14,.11-.14,.21v6.39h0c2.18-1.13,3.85-2.63,5.02-4.49Z"/>
        </g>
        <g>
          <g>
            <path class="cls-4" d="M49.68,115.63c-.5-.11-.25,.82-.3,1.21h.6c-.25-.99,.08-1.13-.3-1.21Z"/>
            <path class="cls-4" d="M49.68,113.82v-.3c-.3,0-.65,.92-.6,1.21h.3v.61c.09-.06,.57-.33,.6-.3-.07-.25,0-.64,0-.91-.43-.22-.3,.31-.3-.3Z"/>
            <path class="cls-4" d="M48.78,111.11s.56,1.11,.3,1.21c.9,.19,.76-.79,.3-.6,0-.13,.08-.85,0-.91-.44-.34-.26,.27-.3,.3h-.3Z"/>
            <path class="cls-4" d="M48.78,98.12h-.3v.6h.6c-.08-.54,.26-1.06-.3-1.21-.54-.14-.38,.3,0,.3v.3Z"/>
            <path class="cls-4" d="M49.38,83.02c0-.1,.07-.88,0-.91-.47-.24-.25,.63-.3,.91h.3Z"/>
            <path class="cls-4" d="M49.38,79.69c-.51-.11-.25,.53-.3,.91h.6c-.32-.92,.12-.82-.3-.91Z"/>
            <path class="cls-4" d="M49.38,72.15h.6c.05-.25-.56-.48-.3-.6,.57-.29,.49-.81,.39-.93-.02,.03-.11,.11-.39,.33-.63,.49-.07,.39-.3,1.21Z"/>
            <path class="cls-4" d="M49.99,70.63s.04-.02,.07-.04c-.03-.03-.06-.02-.07,.04Z"/>
            <path class="cls-4" d="M74.75,52.81c0-1.81,.18-3.64,0-5.44h-.3c0-.69,.04-1.42,0-2.11h-.3v-.6h.3c.07-.47-.3-.6-.3-.6-.19-.77,.19-1.63,0-2.41h-.3c-.26-.6-.03-.92-.3-1.51-.06-.11-.44-.23-.6-.3v-.6h-.3c-.19-.61,.08-1.47,0-2.11h-.3c-.2-1.27-.13-1.55-.3-2.72h-.3c-.09-.47,.12-.76,0-1.21h-.3c0-.37,.06-.56,0-.91h-.3c-.07-.38,.16-.9,0-1.21-.02-.03-1.19-.89-1.21-.91-.13-.11-.15-.46-.3-.6h-.6v.3c-.41,.13-.66,.27-.91,.3-.14-.53,.2-1.3,0-1.81-.09-.22-.67-.16-.91-.3v-.3c-.34-.17-.58-.37-.91-.6-.74,.36-.31,.08-1.21,.3,.22,.4,.11,.37,.3,.91h.3v.6h.3c.06,.12,.25,.58,.3,.6h.6l.3,.6h.3v.6h-.6c-.03-.06-.27-.59-.3-.6-.6-.23-1.45,.03-1.81-.3,0,0-.17-1.09-.3-1.21h-.6v.3l-.91,.6v.6c-.23,.1-.75-.16-.91,0v.6h-.3v.3c-.68,.33-.82,.86-1.51,1.21v.3h-.3v.6h-.6v.3c-.08,.03-.6,.3-.6,.3v.3c.17-.47,.3,.3,.3,.3-.03,.06-.5,.25-.6,.3,0,.25,.07,.68,0,.91,.94,.06,1.09-.17,1.81-.3-.19,.94-.14,1.37-.3,2.42h-.3c-.08,.39,.14,.85,0,1.21h-.3c-.13,.37,0,.68-.3,.91-.22,.16-.85,.13-.91,.3v.6c-.44,.3-.69,.14-1.21,.3v.3h-.6c-.11,.09-.12,.93-.3,1.21l-.6,.3v.6h-.3v.6h-.3c-.08,.26,.09,.66,0,.91h-.3v.6c-.1,.05-.16,.07-.21,.09-.02,.06-.04,.12-.09,.22h-.3c-.15,.48,.16,1.05,0,1.51h-.3v.6h-.3c-.08,.27,.09,.65,0,.91l-.6,.3c-.13,.43,.11,1.07,0,1.51h-.3v.6h-.3c-.24,.99,.06,1.6-.3,2.42-.06,.1-.49,.19-.6,.3-.06,.05-.22,.56-.3,.6h-.3c-.2,.5,.3,.6,.3,.6,.03,.21-.2,1.07-.3,1.51h-.3v.3c.51,.25,.14,.27,.3,.91h.3c.08,.44,.03,1.07,0,1.51h-.3c0,.27,.04,.64,0,.91h-.3c-.15,.71,0,1.68,0,2.42h-.3c-.07,.63,.3,1.21,.3,1.21h-.3c0,1.32,.24,2.94,0,4.23h-.3c0,.2,.02,.74,0,.91,.25,.09,.85,.12,.91,.3,.14,.5-.04,.16-.3,.3,.03,.1,.04,.17,.05,.22,.05,0,.12,.01,.25,.08,.13,.07-.25,.5-.3,.6,.33,.16,.33,.09,.6,.3-.12,.5-.08,.14-.3,.6h-.3c-.23,.64,.05,1.74,0,2.42-.87-.07-.53-.35-1.21,0,.02,.12,.02,.19,.02,.24,.04-.02,.12-.02,.28,.06,0,.58-.08,1.23,0,1.81,.33-.12,.41-.52,.91-.3v.6h.3v.6c-.08,.03-.6,.3-.6,.3-.14,.48,.03,.46,.3,.6,0,0-.11,.34-.3,.91h-.3c-.22,.1,.57,.58,.6,.6-.13,.07-.21,2.02,0,2.11-1.62-.09-.69,.95-.3,.91,.04,.55,.07,.11-.3,.3,.02,.1,.04,.17,.04,.23,.05,0,.13,0,.26,.08,0,.34-.08,.57,0,.91-.04,.02-1.21,.17-.6,.6h.3v.38c-.22,.02-.14,.12,0,.19v.03h.07c.1,.04,.19,.05,.2,0h.03c.22,.43,.1,.18,.3,.6-.35,.3-.15,.04-.3,.6-.27,0-.67-.12-.91,0,.08,.07,0,.76,0,.91h.6v.6h-.3c-.4,.31-.42,.41-.3,.42v.49h.6c.15,.52,.06,.75,.3,1.21-.42,.28-.15,.05-.3,.6-.27,0-.67-.12-.91,0v.6c.53-.1,.58-.3,1.51-.3-.26,.54-.14,.83-.3,1.51h-.6c-.17,.34,.16,.56,0,.91h-.3c0-.12-.08-.86,0-.91-.07,.05-1.25,.82-.3,.91,.05,.16,.08,.28,.1,.37,.12,.03,.28,.1,.5,.23,0,.44-.13,1.09,0,1.51h.6v.6h-.6v.6c-.57,.08-.03-.75-.91-.6v.6c.11,.1,.16,.12,.19,.12,0,.08,.03,.22,.11,.49,.1-.06,.59-.32,.6-.3,.08,.1,0,.81,0,.91,.12,.06,.58,.25,.6,.3,0,.1,.05,.39,0,.3-.01-.02-.29,.3-.3,.3-.09-.02-.2,0-.3,0,.08,.34,.44,1.08,.3,1.51h-.3v.6c-.22-.11-.34-.4-.6-.3-.17,.88-.05,1.15-.3,2.11,.33,.21,.31-.55,.91-.3l.3,.91h.3c.47,.19-.6,.6-.6,.6,.14,.43,.45,.3,.3,.91h-.3c-.08,.03,0,1.07,0,1.21,0,0-.38-.11-.3-.6-.55,0-.37,1.64,0,1.51,0,0,.13-1.04,.3-.6,.04,.1,.06,.17,.06,.21,.05,0,.12,.03,.24,.09,0,.4-.05,.84-.02,1.25-.03-.03-.06-.06-.12-.06-.39,0-.18,.53-.21,.85h.42c-.02-.15,.02-.36,.02-.53h.21c.06,.58,0,1.22,0,1.81h-.3v.3c.84,.41-.25,1.68,.6,2.11v.3c-.31,.28-.16,.07-.3,.61h-.3c.06,.25,.6,.6,.6,.6,.16,.48,0,1.29,0,1.81,.18,.09,.26,.07,.29,.03,0,.05,0,.13,.01,.27h-.3c.21,.42,.24,.13,.3,.61-.33,.16-.41-.27-.3,.3h.3c.21,.81,0,1.36,.3,2.11h.3v.6h.3c.15,.48-.06,.17-.3,.3,.22,.74,.04,.29,.3,.3v.6h.3c.09,.37-.19,.88,0,1.21,.12,.23,.66,.11,.91,.3,.34,.25,.06,.52,.3,.91l.6,.3c.14,.38-.38,1.33,0,1.51,.34,.16,.34,.12,.3,.3,.03-.13,.76,0,.91,0v-.61h-.3c-.07-.54-.05-.13,.3-.3-.14-.46,.12-.75,0-1.21h-.3v-.6h-.3c-.13-.46,.13-.75,0-1.21,.27,.19,.93,.1,1.21,.3,.34,.24,.06,.53,.3,.91,.05,.08,.55,.25,.6,.3-.1-.38,.08-.54,0-.91h-.3v-.61c-.13-.06-.2-.08-.25-.08,0-.05-.02-.11-.06-.22,.18-.09,.5,.12,.3-.3l-.91-.6v-.6s-.52-.26-.6-.3v-.6c.51,.11,1.31-.13,1.81,0,.1,.03,.27,.77,1.21,.6v-.3c.12-.07,.58-.26,.6-.3v-.61c.48,.03,1.05-.11,1.51,0,0,0,.13,.46,.6,.3,.42-.15-.47-.58,.3-.3v.3h.6c.08,.17,.19,.55,.3,.6h.3v.6c.09,.07,.82,0,.91,0,.08,.15,.23,.55,.3,.6,.04-.07,.83,0,.91,0,.25-.6,.09-.55,.3-1.21h.3c.18-.43-.47-.24-.3-.91,0,0,.49-.25,.6-.3,0-.6-.21-1.56,0-2.11l.91-.6c.12-.42,0-1.07,0-1.51,.18-.09,.25-.08,.29-.05,0-.04,0-.12,.02-.25-.38-.19-.34,.25-.3-.3h.3s-.21-.48-.3-.3c.33-.62,0,0,.3-.3v-.6c.12-.11,1.16-.14,1.26-.23,.08,.09,.22,.25,.25,.23,.4-.29,0-1.32,0-1.81h.6s.24-.48,.3-.61h.6c.14-.29,0-1.16,0-1.51,.18-.09,.25-.08,.29-.05,0-.04,0-.12,.02-.25h-.3v-.3h.3c.23-.85,.11-.94,.3-1.81h.3c.09-.52,.02-.75-.3-.91v-.3h.3c.05-.59-.14-1.25,0-1.81h.3v-.61h-.3c0-.6-.03-1.23,0-1.81h.3v-3.62h.3c.06-1.05-.31-1.14-.3-1.81h.3c0-2.91,.3-4.77,.3-7.55h.3c.1-1.41-.1-2.81,0-4.23h.3v-.6c-.05,.56-.3-.3-.3-.3h.3v-3.62h.3s-.35-.58-.3-.91h.3c.21-1.57,.11-2.32,.3-3.93h.3c.05-.69,0-1.42,0-2.11h-.3c.26-.22,.1-.58,.6-.6,0-1.26-.19-2.66,0-3.93h.3c.21-1.1,.1-1.21,.3-2.42h.3c.31-2.21,.09-3.78,.3-6.04h.3c.04-.82,0-1.58,0-2.42h.3c.08-.98-.08-2.03,0-3.02h.3Z"/>
            <path class="cls-4" d="M54.3,45.65c.13-.42-.42,.13,0,0h0Z"/>
            <path class="cls-4" d="M49.72,82.94c-.16,.02,.02,.27,0,0h0Z"/>
            <path class="cls-4" d="M49.44,106.49c-.21-.03,.04,.25,0,0h0Z"/>
            <path class="cls-4" d="M50.34,69.95c-.16,0,.02,.24,0,0h0Z"/>
            <path class="cls-4" d="M65.98,113.47c0,.1,.04,.04,0,0h0Z"/>
            <path class="cls-4" d="M48.88,93.66c-.64-.19,.14,.73,0,0h0Z"/>
            <path class="cls-4" d="M69.3,107.73c0,.1,.04,.04,0,0h0Z"/>
            <path class="cls-4" d="M49.1,74.2c-.08,.04,0,.16,0,0h0Z"/>
          </g>
          <g>
            <path class="cls-2" d="M22.02,68.81v.21h.42c-.05-.34,.19-.82-.21-.85-.49-.04-.54,.93-.21,.64Z"/>
            <path class="cls-2" d="M21.38,69.87v.21c.59,.09,.73-.58,0-.64-.25-.03-.42,.42,0,.42Z"/>
            <path class="cls-2" d="M21.01,71.96v-.21c.14-.11,.71-.27,.21-.42,0,0-.19-.38-.21-.42-.46,0-.82-.07-1.27,0-.38,.05-.17,.5-.21,.85,.6,.07,.83,.09,1.48,.21Z"/>
            <path class="cls-2" d="M20.75,91.25c-.4,0-.16,.33-.21,.64h.42c-.06-.3,.18-.64-.21-.64Z"/>
            <path class="cls-2" d="M24.92,66.1c-.08-.17-.3-.6-.3-.6-.47-.1-.23,.32-.3,.6h.6Z"/>
            <path class="cls-2" d="M49.08,86.34c-.14-.12,.07-.73,0-.91-.02-.05-.48-.25-.6-.3,0-.44,.2-1.43,0-1.81h-.6v-.3s-.91-.6-.91-.6v-.6c-.25-.22-.7-.03-.91-.3-.15-.2,.08-.67,0-.91l-1.21-.91v-.3h-.6v-.3h-.6v-.3s-.91-.6-.91-.6c-.19-.32,.09-.84,0-1.21h-.3c-.3-.72-.08-.49-.3-1.21h-.3c-.1-.25,.07-.63,0-.91h-.3v-.6h-.3c-.14-.35,.08-.56,0-.91h-.3c-.18-.71-.02-.92-.3-1.51l-.91-.6c-.13-.24,.09-.64,0-.91h-.3v-.3c-.19-.09-.75-.2-.91-.3,0,0-.29-.59-.3-.6h-.6v-.3h-.6s-.24-.48-.3-.6h-.6s-.28-.59-.3-.6c-.55-.29-.67,.04-1.21-.3l-.3-.6c-.26-.1-.66,.13-.91,0v-.3c-.36-.18-.41-.13-.91-.3v-.3c-.32-.08-.63,.16-.91,0l-.3-.91c-.21-.14-.66,.1-.91,0l-.91-1.21c-.33-.15-.57,.08-.91,0v-.3c-.52,0-1.01,.09-1.51,0,0,.02-.56,.27-.6,.3v.3c.78-.53,0,.91,0,.91-.29-.15-.43,.22-.3-.3h-.6c-.19,.29,0,1.17,0,1.51-.11,.05-.6,.3-.6,.3v.3c-.92,.16-.89,.06-1.51,.3,.06,.03,.51,1.03,.6,1.21,.21-.02,.74,0,.91,0v-.3c.36-.02,.3,.3,1.21,.3,0-.09-.06-.9,0-.91,0,0-.67-.35-.3-.6,.34-.25,1.1-.08,1.51-.3v.3h.6v.3c.47,.24,.69,.77,1.21,.91v.6c-.58,0-1.25-.09-1.81,0,0,0,.27-1.41,.3-1.51h-.6c-.12,.42-.1,1.59-.3,2.11h-.6v.6s-.86-.05-.91,0c.12,.64,0,1.44,0,2.11,.41,.23,.74-.18,.6,.6l-.91,.3c-.07,.12,0,.8,0,.91-.09,.04-.15,.07-.2,.08-.02,.05-.05,.12-.1,.22h-.6c-.29,.47,.52,.75,.3,.91h-.6c-.02,.12-.03,.19-.03,.24-.04-.02-.12-.02-.27,.06,0,.32,.13,.93,0,1.21-.87-.03-.99-.13-1.81-.3v.3h-.6v.6s1.04,0-.3,.3v.3c-.31,.15-.58-.09-.91,0v.3c-1.06,.22-1.35,.12-2.42,.3v.3c-.38,.08-.54-.09-.91,0,0,0-.12,.38-.3,.91h.6s.27,.55,.3,.6c.62-.51,.52,.56,.6,.6-.29,.17-.5,.53-.6,.6-.37,.23-.61,.06-.91,.3,.16,.31-.16,.88,0,1.21l.91,.3v.6c.12,.06,.58,.25,.6,.3,.09,.26-.14,.69,0,.91,.14,.23,.71,.13,.91,.3v.6h.3v.3c.14,.07,.56,.24,.6,.3,.08,.11,.16,.83,.3,.91h.3c.1,.26-.12,.66,0,.91h.6s.42,1.71,0,.91v.3c.13,.08,.72,0,.91,0v.3h.3v.6l.6,.3c.21,.54-.22,.64,.3,.91v.3c.25,.2,.88-.1,1.21,0v.3h.6v.6c.5,.33,1.23,0,1.81,.3l.6,.91c.27,.1,.64-.1,.91,0l.3,.6c.63,.16,1.5-.23,2.11,0v.6c.25,.12,.65-.1,.91,0v.3h.3v.3h.6c.08,.05,.23,.57,.3,.6,.26,.12,.65-.1,.91,0,0,0,.23,.67,.6,.6,0,0-.27-.86,.6-.6v.3c.53,.27,.68,.03,1.21,.3,.02,0,.3,.6,.3,.6,.34,.13,.54-.09,.91,0v.3c.35,.06,.54,0,.91,0v.3c.19,.03,.31,.05,.38,.06-.19-.05-.6-.19-.08-.36,.23-.08,.68,0,.91,0v.3c.33,.02,.84-.15,1.21-.3,0,0,.63-.77,.91-.91v-.3h.6v-.3c.59-.11,.57,.28,.6,.3h.6v.3c.84,.12,.81-.36,1.51-.3,.22-.61,.05-.88,.3-1.51h.3v-.6h.3v-.6c.16-.23,.68-.17,.91-.3v-.3s.58-.27,.6-.3v-.6l.91-.3c.11-.19-.07-.68,0-.91h.3v-.6c.14-.08,.54-.18,.6-.3,.24-.52,.45-2.07,.3-2.11h.6v-.91h.6v-.6c-.31-.26-1.03-.16-1.21-.3Z"/>
          </g>
          <g>
            <path class="cls-5" d="M88.49,78.76h.42c-.06-.3,.18-.63-.21-.63s-.16,.33-.21,.63Z"/>
            <path class="cls-5" d="M88.91,98.03s.18-.37,.21-.42h.21c-.09-.3,.2-1.16-.42-.85h-.21s0,.77,0,.85c-.34-.14-.34,.69,.21,.42Z"/>
            <path class="cls-5" d="M88.28,99.51s-.08,.48,.21,.21c.05-.06,.95-2.09,.21-1.48h-.21c0,.2,.07,.65,0,.85l-.42,.21s.08,.58,.21,.21Z"/>
            <path class="cls-5" d="M92.09,99.09v-.21c.24,.12,.36-.21,0-.21v-.21c-.34,.02-.34,.61,0,.64Z"/>
            <path class="cls-5" d="M93.36,98.45c-.38,0-.62,.7-.21,.42v.21c.17-.05,.47,0,.64,0-.38-.33,.4-.64-.42-.64Z"/>
            <path class="cls-5" d="M88.49,100.78v-.21c.26,0,.37-.31,0-.21-.23,.06-.4,.5,0,.42Z"/>
            <path class="cls-5" d="M90.6,104.17s.17-.36,.21-.42c0,0-.77-.01-.21-.21-.38,.09-.12,.07-.21,.42-.42-.09-.19,.36,.21,.21Z"/>
            <path class="cls-5" d="M91.66,103.95v.21h.21v-.64c-.36-.01-.63,.72-.21,.42Z"/>
            <path class="cls-5" d="M86.37,112.42h.42c-.03-.34,.18-1.07-.21-1.06-.42,0-.13,.13-.21,.42-.31-.23-.15,.58,0,.64Z"/>
            <path class="cls-5" d="M86.58,113.48v.42c.06,.03,.4,.17,.42,.21v.42c.1-.09,.71,0,.85,0v-2.12c-.3-.15-.18,.23-.21-.21-.02,.05-.35,.17-.42,.21,0,.2,.07,.65,0,.85l-.63,.21Z"/>
            <path class="cls-5" d="M81.71,122.58s.53-.26,.21-.42c-.34-.17-.17,.27-.21,.42Z"/>
            <path class="cls-5" d="M85.16,123.22c.56,0,.15-.06,0,0h0Z"/>
            <path class="cls-5" d="M85.1,123.22c-.6,0,.01,.16,.21,.21-.24-.12-.23-.18-.15-.21-.02,0-.04,0-.06,0Z"/>
            <path class="cls-5" d="M90.18,123.85c.09-.02,.14,0,.18,.06,.54-.27-1.91,.25-.18-.06Z"/>
            <path class="cls-5" d="M89.55,124.7c.18,.13-.02,.21,.42,.21,.09-.37,.07-.12,.42-.21-.03-.2,.09-.63-.03-.79-.07,.04-.19,.09-.39,.16-.35,.12-1.07,.14-.42,.63Z"/>
            <path class="cls-5" d="M81.71,125.76c-.04-.32,.17-.85-.21-.85s-.18,.53-.21,.85h.42Z"/>
            <path class="cls-5" d="M85.1,126.82c-.11-.42,.13-.46-.21-.63v-.21c-.48-.12-.01,.05-.21,.21h-.21c.05,.29,.06,1.28,.21,.63v.21c.09-.05,.32-.28,.42-.21Z"/>
            <path class="cls-5" d="M84.25,127.66v.42c.79,0,.72-.57,0-.63-.32-.03-.32,.21,0,.21Z"/>
            <path class="cls-5" d="M88.23,132.8c.13,0-.04-.2,0,0h0Z"/>
            <path class="cls-5" d="M87.43,133.17c.47-.12,.55-.03,.85-.21-.03-.07-.04-.12-.05-.16-.03,0-.08-.01-.16-.05,0-.24,.04-.62,0-.85h-.21v-.21c-.15,.05-.36,.38-.63,.21,.12-.81,.08-1.05,.21-1.91-.33-.09-.38,.21-.42-.21,.15-.06,.47,0,.63,0v-.42c-.46,.06-.4,.07-.85,.21v-.21c-.08-.38-.42,.42-.42,.42,.38-.25,.09,.15,.21,.21,.11-.38,.32,.31,.21,.64h-.42c0,.69-.13,1.64,0,2.33h.21c0,.12,.01,.5,0,.63h-.21c-.15,.48-.08,.35-.21,.85,.26-.12,.78,0,1.06,0,.09-.46,.09-.31,.21-.63h-.21v-.42c.28-.15,.16,.18,.21-.21Z"/>
            <path class="cls-5" d="M80.66,138.04h.42v.21h.21c.19,.59-.12,1.48,0,2.12h.21c0,.13-.02,.5,0,.64-.16,.04-.3-.15-.42-.21v.21c-.24,.11-.21,.07-.42,.21,0,.13,0,.5,0,.63h.21c.04,.23,0,.61,0,.85h-.21c-.02,.39,.21,.42,.21,.42,.04,.16,0,.44,0,.63h-.21c-.03,.12,.03,.5,0,.63h-.21c-.05,.19,.05,.43,0,.63,.15,.07,.7,.12,.85,.21,.04,.03,.15,.4,.21,.42,.25,.09,.4-.12,.64,0-.06-.22,0-.62,0-.85-.08,.37-.21-.21-.21-.21-.12,.38-.21-.21-.21-.21,0,0,.37-.19,.42-.21,0-.23-.06-.63,0-.85,.03,0,.63,0,.63,0-.05,.53-.26,.83,0,1.06,.13-.07,.5,0,.64,0l.21-.63h-.21v-.42h-.21c-.05-.14-.21-.85-.21-.85l-.63-.21c-.11-.26,0-.77,0-1.06h-.21c.11-.64,.16-.77,.21-1.48,.39-.11,.27,.17,.42-.21,0,0,.6,0,.64,0,.07,.32,.1,1.48,.21,1.69,.05,.1,.39,.17,.56,.34-.07,.23-.14,1.14-.14,1.14,.31,.21,.09-.01,.21,.42h.42c.07-.21,0-.64,0-.85,.4,.23,.07-.15,.21-.21,.3,.27,.19-.56,.21-.64-.38-.13-.36-.05-.63-.21v-.42s.35-.18,.42-.21v-.42c-.16-.08-.32,.18-.21-.21h-.21v-.42c.97,0,.63-.43,.63-.43-.13,.03-.51-.03-.63,0,0,0-.16,.35-.63,.21l-.42-.64c.29-.15,.25-.08,.63-.21v-.21c-.22,.05-.63,0-.85,0v.42c-.13,.05-.71,.05-.85,0v-.21c0-.41-.04-.09,.21-.21,0-.13-.03-.52,0-.64h-.21c.08-.26-.1-.39,0-.63l.42-.21c.17-.44-.06-1.02,0-1.48h.21c0-.37-.06-.69,0-1.06-.44-.18-.4-.08-.85-.21v-.21c.1-.09,.71,0,.85,0,.01-.38,0-.68,0-1.06h.21c.01-.38,0-.11-.21-.21,.01-.13,0-.51,0-.63h.21c.09-.52-.17-1.2,0-1.69h.21c.13-.27,.14-.13,.21-.42-.13,0-.52-.03-.63,0-.01,0-.02,0-.03,0,.25-.02,.4,0-.19,.21-.2,.07-.63,0-.85,0-.04,.4,.09,.87,0,1.27h-.21v.42c.21,.1,.26-.19,.21,.21h-.21v.42h-.21c.05,.21,0,.62,0,.85h.42v.21h-.42c0,.1,.07,.79,0,.85,.12,.02,.5,0,.64,0v.21c-.04,.06-.72,.36-.85,.42v2.54h-.42v-.42h-.21c-.13-.24-.09-.19-.21-.42h-.42v.42l.42,.21c.11,.17,.13,.57,.21,.85Z"/>
            <path class="cls-5" d="M82.96,129.78c-.37,.03-.97,.16,0,0h0Z"/>
            <path class="cls-5" d="M85.1,132.74c-.42,0-.14,.13-.21,.42,0,0,1.95-.42,.21-.42Z"/>
            <path class="cls-5" d="M87.85,133.59c-.23,.05-.42,.72,0,.63,0,0,.54-.78,0-.63Z"/>
            <path class="cls-5" d="M80.44,134.44s1.71-.42,.21-.42c-.42,0-.14,.13-.21,.42Z"/>
            <path class="cls-5" d="M83.83,135.5v.21c.59,.09,.73-.58,0-.63-.25-.03-.42,.42,0,.42Z"/>
            <path class="cls-5" d="M84.89,135.07c-.38-.03-.58,.68-.21,.42v.21h.42c-.06-.33,.2-.61-.21-.63Z"/>
            <path class="cls-5" d="M84.47,136.98h-.42c-.16-.49-.08-.5-.21-1.06h-.21c-.61,.47-.25,.77-.21,1.69,.7-.04,.41-.32,1.06,0,.44,.22-.21,.21-.21,.21v.42c.21,0,.64-.07,.85,0,0-.58-.06-1.13,0-1.69-.73,.09-.42,.3-.63,.42Z"/>
            <path class="cls-5" d="M85.95,138.88c-.04-.32,.17-.85-.21-.85s-.18,.53-.21,.85h.42Z"/>
            <path class="cls-5" d="M80.44,139.52v-.21h.21s-.36-.76-.21-.85c-.43,.13-.67,1.49,0,1.06Z"/>
            <path class="cls-5" d="M86.58,138.46c-.42,0-.14,.13-.21,.42,0,0,2.03-.42,.21-.42Z"/>
            <path class="cls-5" d="M88.49,138.67c-.42,0-.14,.13-.21,.42,0,0,1.55-.42,.21-.42Z"/>
            <path class="cls-5" d="M86.37,139.31c-.68,.29-.51,.64-.85,1.27,.15,.07,.32-.18,.21,.21h.42v-.21h.21c.03-.25,.44-1.47,0-1.27Z"/>
            <path class="cls-5" d="M85.95,141.21c-.48-.08-.58,.85,0,.85v.21c.46,.06,.66-.96,0-1.06Z"/>
            <path class="cls-5" d="M83.41,142.27c-.34-.17-.17,.27-.21,.42,0,0,.53-.27,.21-.42Z"/>
            <path class="cls-5" d="M84.68,145.23c.02-.05,.2-.42,.21-.42h-.21c-.15-.11,.21-.39-.21-.21-.05-.24,0-.62,0-.85-.08-.04-.13-.05-.16-.06,0-.04-.02-.08-.05-.16h-.21c-.02,.12,0,.5,0,.64h-.21l.21,1.06c.15-.05,.46,0,.64,0Z"/>
            <path class="cls-5" d="M83.41,145.02c.38,.21,.21-.47-.42-.42-.42,.03-.16,.31-.21,.64,.13,0,.51-.07,.64,0v-.21Z"/>
            <path class="cls-5" d="M86.37,146.29v-.42c-.2,0-.68,.08-.85,0l-.42-.63c-.6-.15,.12,.04-.21,.21-.35-.3-.14,.17-.21,.21h.21v.42c.15,0,.48-.06,.63,0-.07,.33,.25,1.38-.42,1.06,0,0,.11,.79,.21,.42,.01,.03,.25,.42,.21,.42,0-.06,.4-.15,.42-.21,.15-.39-.12-.87,0-1.27,0,0,.37-.19,.42-.21Z"/>
            <path class="cls-5" d="M84.04,145.44c-.36-.18-.18,.28-.21,.42,0,0,.53-.26,.21-.42Z"/>
            <path class="cls-5" d="M84.47,147.14c-.38-.1-.27,.21,0,.21v.21c.39,.08,.23-.37,0-.42Z"/>
            <path class="cls-5" d="M84.04,147.77v-.42c-.3,.07-.71,.59,0,.42Z"/>
            <path class="cls-5" d="M86.58,149.47c-.12-.11-.48,.06-.64,0v-.21c-.62-.31,.51-.7-.63-.63-.41,.02-.16,.31-.21,.63h.42v.21h-.42c.08,0-.08,.4-.21,.85,.54,.01,.34-.2,.42-.21,.54-.14,.59,.19,1.27,.21-.13-.11,.12-.74,0-.85Z"/>
            <path class="cls-5" d="M84.47,149.47c-.46-.14-.4-.06-.85-.21h-.21v.42h.21l.42,.64c.66,.23,.32-.49,.42-.85Z"/>
            <path class="cls-5" d="M96.11,150.74c-.43,.01-.13,.11-.21,.42,.15,0,.48-.06,.63,0-.32-.18,.55-.46-.42-.42Z"/>
            <path class="cls-5" d="M83.41,151.37c.15,.13,.19,.94,0,1.06,.18-.05,.44,.06,.63,0,.3-.11-.38-.35,.21-.21-.05-.31,0-.75,0-1.06-.21-.11-.25,.15-.21-.21l-.63,.42Z"/>
            <path class="cls-5" d="M85.31,150.95h-.21c-.04,.07-.17,.4-.21,.42h-.42s0,.57,0,.63h.21v.21c.12-.07,.26-.29,.42-.21v.42h.42s.42,.63,.42,.63c0,0,.37-.19,.42-.21-.14-.4,.15-.89,0-1.27-.03-.05-.56,.04-.64,0-.05-.04,0-.56,0-.63h-.42Z"/>
            <path class="cls-5" d="M83.83,153.7v-.21c-.34-.08-.6,.69-.21,.42v.21c.85-.18,.44-.52,.21-.42Z"/>
            <path class="cls-5" d="M83.83,154.34c-.44,.06-.12,.08-.21,.42h-.21c.03,.07,.16,.4,.21,.42h.42v-.21c.17,.1,.51-.75-.21-.63Z"/>
            <path class="cls-5" d="M85.1,156.45c-.4,0-.16,.33-.21,.63h.42c-.06-.3,.18-.63-.21-.63Z"/>
            <path class="cls-5" d="M85.1,157.72c-.88,.07,.42,0-.21,.21h-.42c.36,.1-.68,.4,.85,.42-.05-.28,.19-.68-.21-.63Z"/>
            <path class="cls-5" d="M85.74,158.15c-.42,0-.14,.13-.21,.42,0,0,1.87-.42,.21-.42Z"/>
            <path class="cls-5" d="M80.66,179.32h.21c.13,.38,.06,.34,.21,.63h.42c-.03-.12,0-.52,0-.63-.11-.05-.16-.05-.18-.04,0-.04,0-.08-.03-.17h-.21v-.21c.46,.16,.04-.08,.21-.21h.21v-.21c-.33-.12-.19-.13-.64-.21-.08-.52-.24,.94-.21,1.06Z"/>
            <path class="cls-5" d="M81.29,180.16c-.45-.23-.03,.12-.21,.21-.48-.4,0,.85,0,.85h.42c-.02-.18,.11-1.29-.21-1.06Z"/>
            <path class="cls-5" d="M83.2,182.07c0-.07-.04-.84,0-.85-.57,.23-1,1.25,0,.85Z"/>
            <path class="cls-5" d="M81.71,184.61c-.25,0-.6-.01-.85,0h-.21s.19,.37,.21,.42c.14,0,.48-.06,.64,0v-.21c.74,.11-.26,.02,.21-.21Z"/>
            <path class="cls-5" d="M80.25,173.21c-.45-.23-.26,.41-.3,.6,0,0,.74-.39,.3-.6Z"/>
            <path class="cls-5" d="M79.95,171.39c-.45-.23-.25,.41-.3,.6,0,0,.74-.39,.3-.6Z"/>
            <path class="cls-5" d="M91.13,161.73c-.51,.11-.84,.89,0,.6,0,0,.91-.82,0-.6Z"/>
            <path class="cls-5" d="M92.34,160.22c0,.2,.02,.75,0,.91h-.3s.08,2.01,.3,.91c-.05,.55-.07,.11,.3,.3,0-.69-.1-1.44,0-2.11h-.3Z"/>
            <path class="cls-5" d="M91.13,159.01c-.19-.15-.67,.6,0,.6v.61c.77,.54,0-1.21,0-1.21Z"/>
            <path class="cls-5" d="M85.09,155.08c-.26-.08-1.21,.9,0,.6v.6c1.05,.28,.58-1.03,0-1.21Z"/>
            <path class="cls-5" d="M79.35,150.25c.18-.16-.2-1.08,0-1.21-.5,.24-.69,1.78,0,1.21Z"/>
            <path class="cls-5" d="M80.93,149.43c.07-.31-.28,.06,0,0h0Z"/>
            <path class="cls-5" d="M84.18,159.61h-.3v.3h-.6l-.3,.6h-.6v-5.74h.3c0-.6,0-1.22,0-1.81h-.3c-.1-.92,.04-1.78,0-2.72h.3c-.19-1.22-.13-1.86-.3-3.02-.02,.02-.52,.25-.6,.3v.6h-.6c-.14,.26,0,.89,0,1.21-.11,.05-.18,.08-.23,.09-.01,.05-.03,.12-.07,.21-.16-.11-.71-.65-.91-.6v-.6c-.58-.21-.13,.69-.6,.3,.06,.26,.6,.6,.6,.6,.25,.73,0,1.92,0,2.72h-.3v.6h.3c.12,.53,0,1.25,0,1.81h-.3c-.16,1.45,.46,3.45,0,4.83-.04,.08-.5,.13-.6,.6h.6c-.1,.89-.14,1.39-.3,2.42h.3c-.04,.59,0,1.22,0,1.81h-.3v.3c.34,.17,.31,.13,.3,.6-.38,.18-.35-.26-.3,.3h.3c.07,.58,0,1.23,0,1.81,.16,.08,.24,.08,.27,.05,0,.05,0,.12,.03,.25,1,.08-.31-.18,.3-.3,1.08-.23-.41,.06,.3,.3,.35,.11,.54-.09,.91,0v.6h-.3v.6h-.3v.3h-.3c0-.1-.04-.89,0-.91h-.6c-.08,.3,.25,.75-.3,.6,.09,.66,0,1.43,0,2.11h.3c-.18,.87,.74-.27,.3-.6,.08,0,1.33,.1,.91,.3,.15,.11,.46,.23,.6,.3v.3h.3c-.09,.05-.22,.78-.91,.6,.04,.18,0,.76,0,.91h.3c.07,.4-.14,.84,0,1.21l.6,.3c.09,.5,0,.99,0,1.51h-.3v.6h.3c.11,.48,0,1,0,1.51h-.3v.3c.57,.28,.24,1.29,.3,2.11h.3c.4,.2-.34,.08-.3,.91,.3,0,.95,.13,1.21,0,.15-.09-.23-.95,.3-1.21v-.3h-.3v-3.93h.3v-.3c-.27,.22-.64-1.81,0-1.81-.03-.38-.74-1.15,0-1.51-.07-.04,0-.81,0-.91h-.6v-.3c.49-.1,.15-.09,.6-.3v-3.93h.3v-.3c-.29,.24-.63-1.81,0-1.81-.03-.37-.71-1.16,0-1.51,0,0-.32-1.75-.3-1.81h.3v-.6h.3c.08-.37-.12-.55,0-.91Z"/>
            <path class="cls-5" d="M81.16,147.23c-.36,.08-.54,1.01,0,.91,0,0,.82-1.12,0-.91Z"/>
            <path class="cls-5" d="M80.25,147.84h.3c.08-.37-.12-.55,0-.91l-.6,.3c-.12,.31,0,.85,0,1.21h.3v-.6Z"/>
            <path class="cls-5" d="M89.01,130.02c-.45-.23-.25,.41-.3,.6,0,0,.72-.4,.3-.6Z"/>
            <path class="cls-5" d="M83.88,130.92h.3v-.3c.56-.14,.35-.17,1.21-.3-.04-.2,.12-1.24-.3-.91v-.3c-.05,.06-.46,.23-.61,.3v.6h-.6c-.08,.14,0,.78,0,.91Z"/>
            <path class="cls-5" d="M87.31,128.77c.12,.06,.33,.17,.33,.17,.14-.03,.08-.27,.21-.64,.4,.15,.4-.59-.42-.42-.33,.06-.23,.34-.21,.65,0,0-.01-.01-.02-.02-.45-.23-.25,.41-.3,.6,0,0,.32-.17,.41-.34Z"/>
            <path class="cls-5" d="M85.39,127.6c-.45-.23-.27,1.18-.3,1.51,.13-.07,.53-.35,.6-.3-.02-.05-.56-1.11-.3-1.21Z"/>
            <path class="cls-5" d="M86.9,126.7v.6h.3c.18-.53,.3-.91,.3-.91h-.3s0-.82,0-.91c-.02,0-.9,.04-.91,0-.05,.16-.57,.18-.91,.3,.12,.39,0,.79,0,1.21,.27-.03,.82,.68,.6-.3,.16,.06,.77,0,.91,0Z"/>
            <path class="cls-5" d="M84.48,125.49c.3,0,.61-.11,.91,0-.41-.23,.69-.66-.6-.6-.56,.02-.2,.22-.3,.6Z"/>
            <path class="cls-5" d="M87.2,124.88h.6c-.12-.65,.24-.94-.3-1.21v-.3c-.49-.24-.2,.25-.3,.3-.61-.52,0,1.21,0,1.21Z"/>
            <path class="cls-5" d="M92.34,119.15v-.3c-.86-.27-.42-.19-1.21-.3-.35-.06-.54,.3,0,.3v.3c.38,.12,.79,0,1.21,0Z"/>
            <path class="cls-5" d="M81.76,124.88v.3h.3c.08,.33,0,.56,0,.91,.37,.18,.34-.26,.3,.3,0,0-.55,.26-.6,.3-.05,.96,0,1.77,0,2.72-.19,.09-.27,.06-.3,.02,0,.05,.01,.13,0,.28,.32-.2,1.12,0,1.51,0,.04-.82,0-1.59,0-2.42h.3c.02-.56,.1-1.28,0-1.81h-.3c0-.17-.02-.7,0-.91h.3c.06-.46,0-.75,0-1.21h.3c.12-.81-.31-2.41,.3-2.72v-.3c-.33-.17-.4-.06-.3-.6h.3v-.6h-.3v-.3h.3c.17-.74,.15-.87,.3-1.51h-.3v.3c-.44,.14-.76-.09-1.21,0-.04,.57-.08,.1,.3,.3,0,.45,.07,.75,0,1.21h-.3c0,.36,.06,.55,0,.91h-.3c-.06,.36,0,.53,0,.91h.3c.08,.47,.09,1.33,0,1.81h-.3c0,.2,.02,.75,0,.91h-.3c-.16,.57,.32,1.08-.3,1.21Z"/>
            <path class="cls-5" d="M88.06,121.98c0,.08,.02,.13,.04,.17,.08-.04,.1-.09-.04-.17Z"/>
            <path class="cls-5" d="M88.71,117.03c-.3-.15-.4-.13-.3-.6h.3c.07-1.14,.8-1.77-.3-2.42h-.3c-.12,.49-.12,.96-.3,1.51h-.6c-.1-.04,.13-.69-.3-.3,.08,.33,0,.56,0,.91,.08,.04,.6,.3,.6,.3v.6c-.77,.14-1,.06-1.51,.3,.02,.12,.03,.18,.03,.23,.04-.02,.12,0,.27,.07,0,.26-.06,.66,0,.91h.3c.06,.79-.4,.42-.3,.91h-.6v.6h-.3c.2-.66-.5-.03-.6,0-.04,.56-.08,.11,.3,.3-.02,.14-.02,.21-.02,.26-.03-.03-.11-.04-.29,.05,0,.55,.05,.98,0,1.51,.95-.12,.37-.34,.91-.3v.3h.6v-.3c.43,0,1.1-.14,1.51,0,.12,.04,.2,.08,.26,.11-.02-.31,.05-.88,.05-1.02h.3v-.3c-.6-.18-.62-.07-1.21-.3,.1-.21,.13-1.18,.6-.91,0-.15-.05-.73,0-.91h.61s-.27-.79-.3-.91c0,0,1.03-.4,.6-.61Z"/>
            <path class="cls-5" d="M88.11,122.17s0-.02-.01-.02c-.02,.01-.06,.02-.09,.03,.03,0,.06,0,.1,0Z"/>
            <path class="cls-5" d="M86.02,117.57c-.09,.04,0,.18,0,0h0Z"/>
            <path class="cls-5" d="M88.01,122.17c-.88,.03-.31,.07,0,0h0Z"/>
            <path class="cls-5" d="M91.13,114.31v-.3c.54,.11,.24-.41-.3-.3-.03,0-.06,0-.08,.01,.03,.04-.02,.13-.22,.29-.66,.51-.03,.26,.6,.3Z"/>
            <path class="cls-5" d="M90.74,113.72c-.08-.12-.79,.13,0,0h0Z"/>
            <path class="cls-5" d="M88.71,113.11c-.45-.23-.25,.42-.3,.6,0,0,.73-.39,.3-.6Z"/>
            <path class="cls-5" d="M89.01,112.2c-.26,.06-.62,.73,0,.6v-.3h.3c-.31-.16,.4-.49-.3-.3Z"/>
            <path class="cls-5" d="M93.24,111.29c-.26,.07-.62,.73,0,.6v-.3h.3c-.31-.16,.4-.49-.3-.3Z"/>
            <path class="cls-5" d="M93.54,109.48c-.37-.11-.55,1.51,0,1.51,.1-.75,.14-.88,.3-1.51h-.3Z"/>
            <path class="cls-5" d="M93.85,106.76c-.34,.08-.53,1.01,0,.91,0,0,.82-1.12,0-.91Z"/>
            <path class="cls-5" d="M87.2,108.27h-.3v.3c.22,.08,.68,0,.91,0v.6h-.6c-.07,.72,.16,1.72,0,2.42,0,0-.25,.11-.3,.61l.6-.3c.1-.28,0-.61,0-.91h.3v-.3c.71,.24-.13-.47,.61-.3,0,0,.45,.88,.91,.6,0,0-.12-.72-.27-1.36-.85,.14-1.51,.17,.27-.45,.27-.1,.64,.06,.91,0v-.3c.34-.03,.31,.36,1.21,.3,.09-.25-.08-.63,0-.91h.3v-.6h.3c.3-.74,.08-.71,.61-1.21,.21-.21-.5-.42-.3-.91h.3s.57-.83,.6-.91c-.53,.22-1.34,.04-1.81,.3v.6h-.6c-.34,.11-.02,.44-.3,.91h-.3s-.54,.8-.6,.91c-.38-.14-.81,0-1.21,0,.08-.14,0-.73,0-.91,.4-.24,.51-.42,.91-.6v-.3c.25-.1,.69,.13,.91,0-.25-.34-.21-.41-.6-.6v-.3c-.34,.24-.41,.12-.91,.3v.3h-.6c-.2,.26-.1,1.13-.3,1.51h-.6c.08,.03,0,1.34,0,1.51Z"/>
            <path class="cls-5" d="M89.01,109.48s.02,.1,.03,.15c1.04-.17,2.37-.53-.03-.15Z"/>
            <path class="cls-5" d="M92.64,104.04v-.3c.24-.12,.63,0,.91,0,0-.1-.04-.89,0-.91h-.3v.3c-.24,.05-.54-.25-.3-.3-.56,.05-.97,1.33-.3,1.21Z"/>
            <path class="cls-5" d="M93.85,101.33c-.45-.23-.25,.42-.3,.6,0,0,.74-.39,.3-.6Z"/>
            <path class="cls-5" d="M82.97,115.82c.65-.33-.09,.54,0,.6h.3c.06,.12,.26,.58,.3,.6h.6c.13-1,.02-2.74,.6-3.02,.25-.13-.36-.32-.3-.6h.3c.04-.52-.21-.2-.6-.3v-.6h.3v-.3h.61c-.05-.49,0-1.02,0-1.51-.18-.09-.26-.08-.29-.05,0-.04,0-.12-.01-.25,.37-.19,.33,.25,.3-.3h-.3s.25-.85,.3-.3c0-.3-.11-.63,0-.91l.6-.3v-.3h-.3c.17-1.11,.16-1.17,.3-2.42,0,0-.8,0-.3-.3,.18-.12,.74-.19,.91-.3-.24-1.64-.25-2.54,0-4.23-.13,.11-1.21,.59-1.21,.6-.28,.8,.46,.83,.3,1.51h-.3c-.06,.09-.21,.55-.3,.6h-.3v.6h.3c-.23,1.06-.12,1.32-.3,2.42h-.3c-.29,.14,.43,.27,.3,.6h-.3v.6c-1.02,.35-.84-.02-.91,.3-.1,.43,0,.77,0,1.21h.6c.29,.14-.4,.28-.3,.61h.6c.12,.09,.13,.18,.09,.27-.09-.03-.29-.05-.66-.05-.42,0-.14,.13-.21,.42,0,0,.46-.1,.73-.2-.12,.1-.26,.17-.26,.17-.36,.61-.22,1.42-.3,2.42,.32,.16,.4-.26,.3,.3h-.3c-.11,.46-.14,1.01-.3,1.51h-.6c-.19,.62,.43,.51,.3,.91Z"/>
            <path class="cls-5" d="M92.94,101.02h.3v.3c.53,.23,.24-.38,.3-.6-.42-.22-.17-.1-.6-.3-.75-.35,0,.6,0,.6Z"/>
            <path class="cls-5" d="M87.5,101.93c-.06,.03,.04,.84,0,.91h.3v-.6h.61c0,.54-.1,1.28,0,1.81,.4-.24,.16-.08,.6-.3v-.6c.21-.12,.7-.04,1.04-.01-.16,.92-.19,1.62,.47-.29,.22-.66,.08-.9,.3-1.51-.61-.35-.49,.28-.6-.6-.51-.18-.58-.02-.91-.3l-.91,.6c-.11,.26,.12,.67,0,.91-.2,0-.76-.09-.91,0Z"/>
            <path class="cls-5" d="M86.65,100.46c.07-.01,.15-.02,.25-.04,.12-.02,0-.3-.12-.55,.16-.06,.34-.64,.42-.66h-.3c-.08-.45,0-.77,0-1.21-.13-.07-.21-.08-.26-.08,0-.05-.02-.13-.04-.23h.3s-.15-.64,.3-.3c-.04-.02-.1-1.28-.3-.3h-.6v-.3h-.3c-.08,.73,.27,1.22-.3,1.51-.39,.19,.33,.03,.3,.91h-.6c-.28,.2,.24,.84,.3,.6v.3c.36,.08,.55-.13,.91,0,.44,.15,.24,.27,.04,.33-.01-.01-.02-.02-.04-.03-.45-.23-.25,.41-.3,.6,0,0,.63-.35,.35-.56Z"/>
            <path class="cls-5" d="M94.45,99.52c-.45-.23-.25,.41-.3,.6,0,0,.73-.39,.3-.6Z"/>
            <path class="cls-5" d="M90.52,87.43c.26,.23-.36,1.29,.6,.91l.3-1.21c-.42,.21-.37,.11-.91,.3Z"/>
            <path class="cls-5" d="M91.43,85.62c-.44-.12-.45,.3,0,.3v.3c.61,.12,.25-.54,0-.6Z"/>
            <path class="cls-5" d="M110.81,5.97c.02-.18-.14,0,0,0h0Z"/>
            <path class="cls-5" d="M93.85,112.61c-.43,.04-.94,.14-1.13,.2,.04-.01,.11-.02,.22-.01,0,0,.01,.03,.04,.07,.19,0,.47-.03,.87-.07,0-.07,0-.13,0-.19Z"/>
            <path class="cls-5" d="M89.77,147.85c-.24-.04-.66,.03,0,0h0Z"/>
            <path class="cls-5" d="M121.93,25.52c.03-.59,.3-.6,.3-.6,.11-.48,.05-1.04-.3-1.21-.17-.09,.28-.4,.3-.6h-.3c.13-.56,.4-.79,.3-1.51h-.3c0-.16,.03-.71,0-.91h-.3c-.07-.38,.15-.89,0-1.21-.07-.15-.81-.06-.91-.3-.26-.65,.04-1.59-.3-2.11l-.6-.3c-.13-.45,.03-.47,.3-.6v-.3c-.52-.26-.23-.54-.3-1.21h-.3c-.06-.47,0-.75,0-1.21,.38-.2,.33,.26,.3-.3-.51-.24-.2-.29-.3-.91h-.6v.3c-.15,0-.25,.02-.33,.02,.24-.04,.59-.14,.03-.33h-.6v-.3c.21,.08,.69,0,.91,0v-.6l-.91-.6c-.11-.16-.25-1.16-.3-1.21h-.6l-.3-.6c-.18-.12-.73-.2-.91-.3,.05-.1,.43-.54,.3-.61h-.6v-.3h-.61c.05-.27-.53-.5-.3-.6,.51-.26,.44-.65,.6-1.21-.59-.23-.94,.4-1.21,.3,0,0-.24-1.01-.3-1.21-.28,0-.61,0-.91,0h-.3v.3c-.41,0-1.16-.16-1.51,0v.6c-.13,.06-.2,.08-.25,.08,0,.05-.02,.11-.05,.22h-.3v.6c.45,0,.75-.08,1.21,0,.12,.54,0,1.26,0,1.81,.07,.03,.61,.3,.61,.3,.11,.49-.3,.22-.61,.3,.01,0,.3,.6,.3,.6,.35,.13,.55-.14,.91,0v.3c.43,.22,.19,.08,.6,.3,0,.09-.05,.87,0,.91-.37,.16-.28,.13-.6,.3v.3c-.38,.12-.9-.21-1.21,0v.6h-.3s-.25,.47-.3,.6h-.6v.6h-.6v.6h-.3v.6h-.3l-.6,.91c-.46,.28-.89,.15-1.51,.3v.3c-.39,.07-.87-.16-1.21,0-.1,.04-.2,.39-.3,.6h-.6v.6c-.39,.23-1.14,.07-1.51,.3l-.6,.91c-.23,.07-.75-.15-.91,0v.3c-.68,.33-.19,1.1-.6,1.51h-.3v.3h-.6c-.16,.32,.07,.83,0,1.21h-.3c-.2,.9-.07,.93-.3,1.81h-.3c-.09,.46,.12,.75,0,1.21h-.3c0,.36,.06,.55,0,.91h-.3c-.13,.57,.07,1.23,0,1.81h-.3c-.08,.55,.08,.98,0,1.51h-.3c-.18,1.04-.08,1.34-.3,2.42h-.3c-.11,.65,.13,1.46,0,2.11h-.3v.6h-.3c-.3,1.09-.06,1.89-.3,3.02h-.3c0,.36,.06,.55,0,.91h-.3c-.1,.49,.07,1.02,0,1.51h-.3c-.17,.89-.11,1.28-.3,2.11h-.3c-.27,1.07-.08,1.33-.3,2.42h-.6c-.1,.4,.34,.28,.3,.91h-.3c-.18,1.58-.08,2.12-.3,3.62h-.3c-.08,.46,.16,1.08,0,1.51l-.6,.3c-.11,.53-.02,.75,.3,.91v.3c-.59,.28-.18,1.39-.3,2.11h-.3c0,.2,.02,.75,0,.91h-.3c-.14,.67,.07,1.42,0,2.11h-.3c-.2,1.41-.1,1.94-.3,3.32h-.3c-.08,.55,.1,1.27,0,1.81h-.3c0,.2,.02,.75,0,.91h-.3c-.07,.47,0,1.01,0,1.51h.3c.07,.66-.13,.41-.3,.91,0,0,.78,.06,.3,.3h-.3v.3c.27,.13,.43-.22,.3,.3l-.6,.3c-.31,.8-.07,1.17-.3,2.11h-.3c0,.46,.06,.75,0,1.21h-.3c-.27,1.29,.07,2.55-.3,3.93h-.3v.6h-.3s0,.88,0,.91h.6c.15,.5,.06,1.6,0,2.11h-.3c-.17,.67-.11,.9-.3,1.51h-.3c-.12,.54,0,.14,.3,.3-.16,1.17-.19,1.83-.3,3.32h-.3c-.05,.62,.37,.48,.3,.91h-.3c-.02,.11-.03,.18-.03,.23-.04-.01-.12,0-.27,.07-.49,.24,.3,.3,.3,.3-.03,.1-.04,.17-.04,.22-.05,0-.12,0-.26,.08,0,.29,.1,.62,0,.91h-.3v.6h-.3c-.09,.58-.04,.13,.3,.3-.07,.62,.15,.67-.3,.91v.3s.7,.4,.3,.6h-.3v.3c.27,.13,.41,.13,.3,.6h-.6c-.15,.75-.08,1.2-.3,1.81,.06,0,.11,0,.15,0-.06,.04-.06,.12,.15,.29,.33,.26,.2,.09,.6,.3v.3c-.26,0-.63-.06-.91,0-.14,.51,.03,.16,.3,.3v.6c-.07,.03-.6,.3-.6,.3v.6h-.3v.3h-.6c-.24,.64,.53,.57,.3,1.21,.36-.09,.61-.53,1.21-.3v.6l.6-.3c.27-.73,.06-2.75,.61-3.02,.05-.03-.35-.59-.3-.91h.3c.06-.46,0-.75,0-1.21h.3c.07-.46,0-.45-.3-.6v-.3h.3c0-.66-.13-1.47,0-2.11h.3c.24-.88,.1-.91,.3-1.81h.3s-.17-.82-.3-.3v-.6c.11-.11,.56-.2,.6-.3,.13-.35-.1-.55,0-.91h-.3v-.3h-.3c.48,.24-.3,.3-.3,.3v-.6c.08-.08,.89-.22,1.21-.3,0-.1-.07-.89,0-.91,.81-.33,.81,.47,1.51,.3-.13,.43,.12,1.07,0,1.51h-.3v.6h-.6c-.13,.26,.12,.66,0,.91,.08,.02,1.49,.37,1.51,.3,0-.02,.29,.29,.3,.3v.6h-.3v.6h-.3c-.26,.66-.08,1.05-.3,1.81h-.61c-.15,.38,.45,.27,.3,.91,0,0-.54,.26-.6,.3,0,.29,.13,1.29,0,1.51-.03,.03-.82,0-.91,0-.18,.35-.13,.41-.3,.91h-.3v.6c.16,0,.79-.09,.91,0v.6c.26-.09,.39,.19,.6,.3,.19-.15,.18-.69,.6-.6-.14,.1,.07,.72,0,.91-.12,.3-.8,.2-1.21,.3,.94,.14-.28,.51-.3,.6v.28c-.12,.03-.13,.05,0,.06v.26h.6c.12-.04,.21-.08,.3-.11,0,.26-.02,.7,0,.72h-.3c-.17,.37-.13,.4-.3,.91-.49-.02-.89,1.47,.3,.91v.3c-.41,.11-.79,0-1.21,0,.07,.27-.21,.75,.3,.6,.14,.6,.1,.79,.3,1.51h.3c.13-.46-.13-.76,0-1.21h.3c.2-.69,.08-.5,.3-1.21,.09,0,.87,.07,.91,0,.38-.8,.02-2.75,.3-3.62h.61c.02-.16,0-.71,0-.91h.3c.04-.57,.07-.12-.3-.3,0-.17-.02-.7,0-.91,.41,0,1.14,.15,1.51,0-.07,.75,.16,1.68,0,2.42h-.3c-.21,.66-.06,.6-.3,1.21h-.3c-.59,.29,.91,.29,.3,.6-.27,.13-.45-.21-.3,.3h.3v.6s.52,.41,.6,.6h.6v-.3c-.66,.27,.07-1.51,0-1.81,0,0-.39-.15-.3-.6h.3v-.6h.3c.24-.93,.08-1.27,.3-2.11,.64,0,1.47,.13,2.11,0-.18,1.27,.05,2.15-.3,3.32h-.3v.6h-.6v.6h.6c-.14,.66-.11,.57-.3,1.21h-.3c-.16,.14,.39,.44,.3,.91h-.6v.3c.64,.32,.07,1.68,.3,1.81h-.3c0,.27,.04,.64,0,.91h-.3c-.08,.42,.34,.27,.3,.91h-.3c0,.5,.04,1.02,0,1.51h-.3c-.1,.72,0,1.69,0,2.42h-.3c-.08,.63,.17,1.5,0,2.11h-.6c-.13,.45,.12,.75,0,1.21h-.3v.6h-.3c-.1,.09,.33,.52,.3,.91h-.3c0,.39,.02,.66,0,1.02,.68-.07,1.13-.01-.31,.49-.32,.11-.5-.11-.57-.23-.2,0-.31,0-.33-.01-.06,.06-.07,.16-.31,.24v.6c.4,.09,.54,.53,1.21,.3,.13-.05,.22-.09,.29-.12-.04,.52,.07,1.13,.01,1.63h-.3v3.02h-.3v.3h-.6c-.07,.36,.41,.44,.6,.6-.09,.27,.06,.63,0,.91h-.3v.61h-.3c-.23,.81,.03,1.87,0,2.72h-.3s.25,.86,.3,.3c-.11,.39,.23,.62-.3,.6v.3c0,.9,.43,1.13,.3,2.11h-.3c0,.46,.06,.75,0,1.21h-.6c-.03,.22,.5,1.46,.6,1.51h-.3c-.16,.82-.12,1.33-.3,2.11h-.3c-.08,.48,0,1.03,0,1.51,.33,.16,.36-.23,.3,.3h-.3c0,.27,.04,.64,0,.91h-.3c-.1,.49,.09,1.02,0,1.51h-.3c-.13,1.01,0,2.01,0,3.02,.35,.17,.38-.29,.3,.3-.02,.08-.53-.26-.6-.3-.07,.45,0,.74,0,1.21h-.3c-.12,.65,.32,.55,.3,1.21h-.3c0,.59,.04,1.22,0,1.81h-.3c-.08,.59,.08,1.22,0,1.81h-.3c-.04,.78,.33,.44,.3,1.21-.1,.05-.6,.3-.6,.3,0,0,.22,.89,.3,.3,.1,.29,.13,.87,.3,.91-.06,0-.1,0-.15,0,.16,.03,.23,.1-.15,.29-.05-.57-.3,.3-.3,.3h.3c0,.64,.14,1.47,0,2.11h-.6c0,.5-.04,1.02,0,1.51h.6v.6c-.17-.48-.3,.3-.3,.3h.3v.61h.3v.6h-.3c.03,.47,0,.73,0,1.21h.3c.04,.53,.06,.72-.3,.91v.3c.09,.05,.6,.25,.6,.3v.3c-.83,0,0,.3,0,.3,.16,.62-.22,.34,.3,.6v.3c.12,.09,.19,.14,.25,.16,.02,.05,.03,.08,.05,.15h.6v-.6h.3c.14-.49-.13-1.3,0-1.81h.3v-.6c.18,.04,.76,0,.91,0v.3h.3v-.6c-.13,0-.75,.06-.91,0,.17-.51,.3-.91,.3-.91,.07-.07,.96-.08,1.21-.3,.11-.11-.05-.73,0-.91h.3v-.6h-.3c0-.37-.07-.56,0-.91h.3v-.6h.3c.06-.27-.09-.63,0-.91h.3c.04-.56,.06-.12-.3-.3,0-.47-.08-1.04,0-1.51h.6c.08-.72-.15-1.41,0-2.11h.3c.04-.27,0-.63,0-.91h.3c.1-.93-.48-.89-.3-1.51h.61c.27-.83,0-1.09,.6-1.51,.26-.19-.6-1.21-.6-1.21,0,0,.49-.25,.6-.3,0-.13-.07-.75,0-.91h.6c.17-.84-.09-1.26-.6-1.51v-.3h.3c.15-.38-.14-.81,0-1.21h.3c.05-.1,.07-.16,.09-.22,.06-.02,.12-.04,.21-.09v-.6h.3c.12-.46,0-.45-.3-.6v-.3c.73-.37,.03-.6,.3-1.21h.6c.02-.16,0-.71,0-.91h.3c.13-.45-.42-.23-.3-.91h.3c.2-.59,.3-.91,.3-.91-.31-.16-.39-.11-.3-.6h.3c.02-.16,0-.71,0-.91h.3c.05-.47,0-.75,0-1.21h-.3v-.6h.3c.05-.34-.52-1.77-.61-2.11,.1-.09,.74,0,.91,0,.13-.45,.57-.52,.6-.6,.13-.41,0-1.08,0-1.51h.6c.4,.2-.51,.46,.3,.3,0,0,.43-.56,.6-.6-.03-.6,.11-.7-.3-.91v-.3c.26-.14,.46-.43,.3-.91-.24-.67-.55,.73-.3-.3l.91-.61s-.68-.94,0-.6v-.3c-.17-.08-.25-.08-.28-.05,0-.05,0-.12-.02-.25h.3v-.6c-.43-.24-.75,.17-.6-.6h.6c.18-.7,.14-1,.3-1.81h.3c.09-.38-.09-.54,0-.91h.3c.1-.49,0-.99,0-1.51,.18-.09,.25-.08,.29-.05,0-.04,0-.12,.02-.26-.38-.19-.34,.25-.3-.3h.3c.05-.58-.16-1.26,0-1.81h.3c.05-.1,.07-.16,.09-.21,.06-.02,.12-.04,.21-.09v-.6h.3c.13-.5-.12-1.3,0-1.81h.3c.22-.61,.05-.88,.3-1.51h.3v-.6h.3c.3-1.09,.03-1.72,.3-2.72h.3v-.6h.3c.06-.54,.04-.13-.3-.3,0-1.18-.16-2.45,0-3.62h.3c.14-.54-.01-.32,.3-.61,.09-.09-.34-.53-.3-.91h.3c.06-.46,0-.75,0-1.21h.3c.09-.58-.16-1.25,0-1.81h.6c.12-.47-.48-.23-.3-.91l.61-.3c.15-.42,0-1.05,0-1.51h.3c.09-.91-.08-1.83-.3-2.42h-.3c-.15-.63-.53-.36-.6-.6-.11-.32-.09-1.47,0-1.81h.3v-.3c.77-.39,1.04-1.13,1.81-1.51v-.3h.6c.24-.51-.09-1.55,0-2.11h.3c.17-1.17,.12-1.52,.3-2.72h.3c.1-.6-.1-1.23,0-1.81h.3c.06-.46,0-.75,0-1.21h.3c.07-.49-.1-1.02,0-1.51h.3c.02-.16,0-.71,0-.91h.3c.04-.63-.4-.5-.3-.91h.3v-.6h.3c.12-.53-.03-.17-.3-.3,.02-.14,.02-.21,.01-.26,.03,.03,.11,.04,.29-.04,0-.49-.05-1.02,0-1.51l.91-.3v-.09c.47,.24,.73,.3-.3-.51h-.3v-.6h.3c.16-1.13,.09-1.99,.3-3.02h.3c.02-.16,0-.71,0-.91h.3c.3-1.48,.12-2.39,.3-3.93h.3c.17-.65-.24-.64,.3-.91,.1-.06-.41-.53-.3-.91h.3v-.6h.3c.06-.27-.09-.63,0-.91h.61c.1-.49-.61-.57-.61-.6v-.3h.3c0-.54-.15-1.3,0-1.81h.3c.24-.6,.09-.55,.3-1.21h.3c.14-.53-.09-1.27,0-1.81h.3c.22-1.09,.12-1.35,.3-2.42h.3c.11-.77-.14-1.66,0-2.42h.3c.1-.46-.09-.75,0-1.21h.3c.06-.36,0-.55,0-.91h.3c.24-.94-.02-1.3,.3-2.11h.3v-.6h.3c.14-.69-.33-.52-.3-1.21h.3c.07-.59-.11-1.23,0-1.81h.3c.23-1.11,.11-1.32,.3-2.42h.3c.07-.4-.14-.85,0-1.21l.6-.3c.07-.31-.59-.47-.3-.6h.3c.17-1.57,.09-2.21,.3-3.62h.3c.02-.74-.45-.46-.3-1.21h.3c.23-.85,.11-.94,.3-1.81h.3c.11-.5-.09-1.29,0-1.81h.3c.06-.46,0-.75,0-1.21h.3c.07-.59,.05-.13-.3-.3Zm-25.37,64.03c-.76,.38-.43,1.1-.6,1.21-.12,.07-.83-.12-.91,0,.11-.63-.22-.95,.3-1.21v-.3h1.21v.3Zm-.6-3.62c-.52-.18,.57-.57-.3-.3,.19-.75,.08-.3,.3-.91h.3v-.3c-1.07,0,0-.6,0-.6,.06-.33-.59-.43-.3-.6,.35-.22,.64-.28,.6-.91h-.3c0-.33-.09-.59,0-.91,0,0,.56-.25,.6-.6,.45,.29,.58,.1,1.21,.3-.06,.18,0,.75,0,.91h-.61s-.04,2.38,.3,1.21v.6h-.6c.1,.44,.45,.99,.3,1.51,0,0-.56,.22-.6,.6-.37-.09-.56,.12-.91,0Zm2.41,3.02c-.08,0-.15,0-.21,0,.17,.02,.29,.1-.1,.29-.05-.32-.33,.47-.3,.6h.3c0,.17,.1,1.12,0,1.21h-.3v.3c-.09,.03-1.34,0-.91-.3-.54,.43,0-1.21,0-1.21h.3c.13-.46-.13-.75,0-1.21h.3c.19-.64,.1-.54,.3-1.21h.6v.3c.3-.76,.06,.77,0,1.21Zm.91-15.1l-.61,.91c-1.44,.6-.74-.91,0-1.21v-.3h.61v-.3c.93-.34,.33,.67,.6,.91h-.6Z"/>
            <path class="cls-5" d="M92.65,112.86s.03-.03,.06-.04c-.05,.02-.08,.03-.06,.04Z"/>
            <path class="cls-5" d="M107.74,10.42s.74-1.96-.3-1.21c-.52-.31-.82,1.4,.3,1.21Z"/>
            <path class="cls-5" d="M108.04,8.91h.6c-.08-.46,.23-.91-.3-.91s-.23,.44-.3,.91Z"/>
            <path class="cls-5" d="M109.55,8c.06-.31,.49-1.08,0-.91-.58,.19-.97,1.18,0,.91Z"/>
          </g>
          <g>
            <path class="cls-1" d="M129.56,73.68s-.21-.42-.21-.42c-.33-.02-.25,.28-.42,.42,.11-.03,.51,0,.64,0Z"/>
            <path class="cls-1" d="M144.98,68.63v.17s0-.16,0-.17Z"/>
            <path class="cls-1" d="M149.81,69.12v-.19s-.01,.21,0,.19Z"/>
            <path class="cls-1" d="M132.04,72.03c.02-.19-.14,0,0,0h0Z"/>
            <path class="cls-1" d="M164.31,95.2h-.3c0-.47,.06-.76,0-1.21h-.3c-.07-.62-.11-1.51,0-2.11h.3c0-.17,.02-.71,0-.91h-.3v-.6h-.3c-.23-.4-.12-.38-.3-.91,.26,.44,.3-.3,.3-.3h-.3v-.6h-.3c-.07-.1-.6-.91-.6-.91h-.3v-.6h-.3c-.12-.69,.43-.46,.3-.91h-.6v-.6c-.75-.51,.21-.37,.3-.3,.71-.36-.81-.3,.3-.3,0-.33-.14-.93,0-1.21h-.6v-.3c-1.2-.6,.79,.28-.3-.6h-.6v-.6c-.18-.09-.6-.3-.6-.3-.25-.49,.07-2.05-.6-1.81-.15,.05,.3-.91,.3-.91h.3c.12-.07,.22-.45,.3-.6h.3c-.22-.65-.35-.31-.91-.6,.27-.52,.12-.52,.3-1.21,.36-.1,.67,.26,.6-.3h-.3v-.6l-.6-.3v-.6h-.3c-.11-.41,.13-.83,0-1.21,.43,.22,.11,.21,.6,.3,.07-.11,.6-.91,.6-.91-.31-.22-.64-.14-.91-.3v-.3c-.65-.33-.84-.88-1.51-1.21v-.3c-.21-.12-.66,.06-.91,0v-.3h-.6v-.3c-.44-.12-1.09,.13-1.51,0l-.3-.6c-.41-.16-1.09,.08-1.51,0v-.3c-.16-.03-.71,0-.91,0v-.3c-.72-.15-1.69,0-2.42,0v-.12c-.08,.04-.18,.07-.3,.12-.37,.12-.55-.13-.91,0-.2,.07-.28,.12-.3,.17v-.17c-.37,0-.56,.06-.91,0v-.3c-.72-.15-1.69,0-2.42,0v-.13c-.06,.04-.16,.08-.3,.13-.98,.33-2.58,0-3.62,0v.3c-1.08,.08-2.22,0-3.32,0v.3c-.25,.06-.66-.12-.91,0-.21,.08-.17,.5-.3,.91-.18,0-.74-.1-.91,0-.24,.13,.24,.82,0,.91-.81,.25-1.55-.22-2.11-.3v-.3h-.61v.3s-.6,.3-.6,.3v.6c-.13,.06-.2,.08-.25,.08,0,.05-.02,.11-.05,.22,.18,.08,.5-.13,.3,.3-.13,.26-.7,.08-.91,.3-.1,.09,.05,.77,0,.91l-.6,.3c-.11,.27,0,.6,0,.91-.1,.05-.17,.08-.22,.09-.01,.05-.04,.12-.08,.21-.27-.08-.62,.07-.91,0v-.3h-.6v-.3c-.37-.09-.57,.13-.91,0l-.3-.6c-.69-.21-1.4,.13-2.11,0v-.3c-.67-.19-1.13-.16-1.81-.3v-.3c-.64-.14-1.46,.08-2.11,0v-.3c-.49-.1-1.02,.09-1.51,0v-.3c-.26-.05-.63,0-.91,0v-.3c-.27-.07-.62,.08-.91,0v-.3c-.49-.12-1.3,.06-1.81,0v-.3c-.53,0-.99,.08-1.51,0-.06,.1-.6,.9-.6,.91h-.3v.6h.6c.2,.51-.18,.55-.3,.91l1.21,.91s-.25,1.73-.3,2.11h-.3c-.04,.59,0,.93,0,1.51,.08,.04,.6,.3,.6,.3v.6h-.3s-.24,.47-.3,.6c-.08,0-.87-.06-.91,0-.25,.36-.03,1.69-.3,2.11h-.6c-.06,.09-.24,.58-.3,.6h-.61s-.3,1.51-.3,1.51c-.37,.31-1.04,.11-1.51,.3l-.3,.6c-.74,.13-.54-.62-1.21-.3v.3c-.6,.29-.77,.78-1.21,1.21l-.91,.6c-.09,.33-.11,1.5,0,1.81l.91,.6v.6h.3c.11,.54,0,1.25,0,1.81h-.3c-.08,.55,.07,.98,0,1.51,.67,.21,.75,.11,1.51,.3v.3c-.14,0-.74,.05-.91,0v.6c.46-.04,.75,.07,1.21,0v-.3c.28,0,.63-.04,.91,0v.3c.2,.03,.75,0,.91,0v.3c.27,.06,.67-.11,.91,0v.6c.2,.03,.75,0,.91,0v.3c.25,.1,.65-.06,.91,0v.3h.6v.3h.6c.34,.24,.07,.53,.3,.91l1.21,.91v.6h.6c.18,.06,.15,.77,.3,.91h.61c.04,.08,.3,.6,.3,.6h.6s.5,.82,.6,.91h.6v.3h.3c.06,.12,.25,.59,.3,.6h.61l.6,.91h.61l.6,.91c.48,.11,1.01,0,1.51,0v-.3c1.13-.08,1.29,.35,2.42,.3v-.3c.56,0,1.26-.11,1.81,0,.44,.09,.02,.1,.3,.91,.74,.06,1.67,0,2.42,0v.3c.38,.07,.87-.16,1.21,0l.6,.91c.77,.06,1.31-.64,1.81-.91v-.3c.51-.12,2.15,.13,2.42,.3l.3,.6c.8,.27,1.58,.06,2.42,.3l.3,.61c.38,.14,1.09,0,1.51,0v.3c.73,.03,.93-.17,1.51-.3v-.3c.44-.15,.76,.15,1.21,0,0,0,.2-.27,.3-.3,0-.1-.08-.88,0-.91h.3v.3c.52,.14,.17,.12,.3,.6,.44,0,1.12-.17,1.51,0,.02-.12,.02-.19,.02-.25,.04,.02,.12,.02,.28-.06,0-.58-.08-1.24,0-1.81,.32,.04,.6,.6,.6,.6,.04,0,1.94-.23,2.11-.3l.6-.91c.42-.12,1.05,0,1.51,0v.3c.5,0,.21-.33,.91-.3,0-.02-.05-.9,0-.91,.58-.22,1.51,.06,2.11,0v-.3h3.02c.05-.1,.08-.16,.1-.22,.05-.02,.11-.04,.2-.08,0-.27-.15-1,0-1.21,.02-.05,.88,0,.91,0,.04-.11,.05-.17,.05-.22,.05,0,.12-.02,.25-.08v-.6c.73-.23,.67,.55,1.51,.3,0,0,.22-.56,.6-.61,.25-.84,.11-.94,.3-1.81h.3v-.6c.07-.06,1.1-.22,1.21-.3-.1-.47,.08-.75,0-1.21Z"/>
          </g>
        </g>
        <g>
          <path d="M28.1,169.15h-10.64v-30.96H4.98v-7.94H40.57v7.94h-12.47v30.96Z"/>
          <path d="M158.95,138.2h-18.24v7.19h17.05v7.83h-17v7.94h18.38v8h-28.73v-38.9h28.53v7.94Z"/>
          <path d="M173.59,130.25v38.9h-10.7v-38.9h10.7Z"/>
          <path d="M89.39,130.25v38.9h-10.69v-38.9h10.69Z"/>
          <path d="M105.48,169.15h-10.35v-38.9h17.3c5.82,0,8.67,.64,11.19,2.57,2.61,1.99,4.14,5.55,4.14,9.64,0,5.08-2.07,9.11-5.47,10.81-2.66,1.28-5.32,1.75-10.94,1.75h-5.87v14.13Zm2.91-21.38c5.96,0,8.03-1.28,8.03-5.08,0-3.45-1.97-4.85-6.95-4.85h-3.99v9.93h2.91Z"/>
          <path d="M44.47,161.56l-2.96,7.59h-10.6l16.95-38.9h12.52l17.4,38.9h-11.83l-3.2-7.59h-18.28Zm9.02-23.01l-6.11,15.42h12.32l-6.21-15.42Z"/>
        </g>
      </g>
    </g>
  </g>
</svg>