<?xml version="1.0" encoding="UTF-8"?>
<svg id="_圖層_2" data-name="圖層 2" xmlns="http://www.w3.org/2000/svg" viewBox="0 0 168.99 168.99">
  <defs>
    <style>
      .cls-1 {
        fill: #014594;
      }

      .cls-2, .cls-3 {
        fill: #e9c31d;
      }

      .cls-4, .cls-5 {
        fill: #fff;
      }

      .cls-6 {
        fill: #da2027;
      }

      .cls-7 {
        fill: #009a4e;
      }

      .cls-7, .cls-3, .cls-5 {
        fill-rule: evenodd;
      }
    </style>
  </defs>
  <g id="Layer_1" data-name="Layer 1">
    <g>
      <circle class="cls-2" cx="84.49" cy="84.49" r="82.49" transform="translate(-25.9 38.77) rotate(-22.5)"/>
      <path class="cls-4" d="M84.49,4c44.46,0,80.49,36.04,80.49,80.49s-36.04,80.49-80.49,80.49S4,128.95,4,84.49,40.04,4,84.49,4m0-4C37.9,0,0,37.9,0,84.49s37.9,84.49,84.49,84.49,84.49-37.9,84.49-84.49S131.08,0,84.49,0h0Z"/>
    </g>
    <g>
      <circle class="cls-1" cx="84.49" cy="84.49" r="73.49" transform="translate(-27.18 41.98) rotate(-24.16)"/>
      <path class="cls-3" d="M67.44,133.46c-10.02,3.74-19.96,1.46-19.96,1.46-25.69-8.4-31.83-31.15-25.37-50.48-6.46-19.33-.32-42.08,25.37-50.48,0,0,9.94-2.27,19.96,1.46,6.56-6.28,12.27-13.23,16.72-22.83,4.45,9.6,10.15,16.54,16.72,22.83,10.02-3.74,19.96-1.46,19.96-1.46,25.69,8.4,31.83,31.15,25.37,50.48,6.46,19.33,.32,42.08-25.37,50.48,0,0-9.94,2.27-19.96-1.46-6.56,6.28-12.27,13.23-16.72,22.83-4.45-9.6-10.15-16.54-16.72-22.83Z"/>
      <path class="cls-5" d="M84.15,116.82c-2.95,7.12-7.35,11.62-12.08,14.42,.34,.34,.68,.67,1.01,1.01,4.28,4.34,7.95,8.89,11.07,13.9,3.12-5.01,6.79-9.56,11.07-13.9,.34-.34,.67-.68,1.01-1.01-4.73-2.8-9.12-7.3-12.08-14.42Z"/>
      <path class="cls-5" d="M141.06,84.44c-1.99,5.24-4.95,10.09-8.61,14.05-6.06,6.56-12.58,12.35-19.41,18.07-4.41,3.69-8.89,7.33-13.14,11.21-5.11-2.63-8.86-6.93-11.29-12.79l-4.45-10.74-4.45,10.74c-2.43,5.87-6.18,10.16-11.29,12.79-4.25-3.88-8.73-7.52-13.14-11.21-6.84-5.72-13.36-11.51-19.41-18.07-2.89-3.13-5.28-6.73-7.12-10.57-.54-1.13-1.04-2.3-1.49-3.49,.45-1.19,.95-2.35,1.49-3.49,1.84-3.84,4.23-7.44,7.12-10.57,6.06-6.56,12.58-12.35,19.41-18.07,4.41-3.69,8.89-7.33,13.14-11.21,5.11,2.63,8.86,6.93,11.29,12.79l4.45,10.74,4.45-10.74c2.43-5.87,6.18-10.16,11.29-12.79,4.25,3.88,8.73,7.52,13.14,11.21,6.84,5.72,13.36,11.51,19.41,18.07,3.66,3.97,6.62,8.82,8.61,14.05Z"/>
      <path class="cls-7" d="M104.95,129.71c9.26-8.19,19.92-15.9,31.04-27.95,2.81-3.05,5.21-6.48,7.13-10.13,1.23,6.23,1.05,12.68-.91,18.6-3.53,10.66-11.99,17.05-22.55,20.01-3.83,.83-9.05,.66-12.81-.09-.65-.13-1.28-.28-1.9-.44Z"/>
      <path class="cls-7" d="M25.18,91.63c1.92,3.65,4.32,7.08,7.13,10.13,11.12,12.04,21.78,19.76,31.04,27.95-.62,.17-1.25,.31-1.9,.44-3.76,.75-8.98,.91-12.81,.09-10.56-2.96-19.02-9.35-22.55-20.01-1.97-5.95-2.12-12.41-.91-18.6Z"/>
      <path class="cls-6" d="M44.98,71.9h4.87v-7.41h4.75v7.41h2.44c-.22-.66-.44-1.35-.65-2.06l4.01-1.21c1.22,2.95,2.15,5.74,2.8,8.35v-12.65h4.51v20.84c-.11,7.8-2.55,14.31-7.3,19.5l-4.18-3.62c3.63-3.22,5.84-7.15,6.65-11.8-1.62,1.84-3.19,3.4-4.7,4.7l-2.64-5.51c.51-.2,1-.45,1.46-.74-.71-1.18-1.5-2.32-2.4-3.44v19.89h-4.75v-16.75c-1.02,2.9-2.26,5.62-3.69,8.14l-1.94-7.11c2.46-3.59,4.17-7.48,5.15-11.67h-4.38v-4.86h0Zm9.61,6.67c2.46,1.73,4.3,3.23,5.52,4.52l-2.55,4.26c1.86-1.2,3.74-2.88,5.63-5.03v-2.89l-4.26,1.29c-.14-1.29-.35-2.61-.65-3.96h-3.69v1.81h0Zm20.07-14.25v13c1.38-2.76,2.46-5.77,3.25-9.04l4.26,1.07c-.64,3.85-1.73,7.63-3.24,11.37l-4.26-2.2v2.76c3.63,2.21,6.29,4.14,7.99,5.77l-3.13,5.17c-1.35-1.76-2.97-3.48-4.87-5.17v10.51c.08,1.07,.52,1.59,1.3,1.59h.16c.51,0,.89-.18,1.13-.56,.27-.29,.44-2,.49-5.13l4.74,1.04c-.27,4.11-.82,6.79-1.66,8.05-.65,.95-1.83,1.42-3.53,1.42h-3.89c-2.38,0-3.57-1.61-3.57-4.82v-34.83h4.82Zm49.93,.68v39.66h-5.19v-1.42h-26.12v1.42h-5.19v-39.66h36.5Zm-31.31,34.15h26.12v-29.97h-26.12v22.99c2.67-.46,5.21-1.35,7.58-2.67h-5.27v-7.97h21.69v7.97h-3.41l2.64,1.73c-.43,.63-.88,1.23-1.34,1.81,1.19,.43,2.43,.92,3.73,1.46l-1.91,4.14c-3.7-1.98-7.16-3.49-10.38-4.53l2.07-3.06c.7,.15,1.43,.33,2.19,.57,.46-.69,.88-1.4,1.25-2.12h-5.43c-.13,.15-.27,.29-.4,.43v7.96h-4.75v-4.17c-1.97,1.26-4.14,2.26-6.49,3.01l-1.79-3.79v6.2h0Zm2.47-28.07v3.78h8.07v1.55h-9.53v3.79h24.17v-3.79h-9.45v-1.55h7.83v-3.78h-7.83v-1.73h-5.19v1.73h-8.07Zm16.67,15.33v-1.77h-11.96v1.77h11.96Z"/>
      <path class="cls-5" d="M104.95,39.17c9.26,8.19,19.92,15.9,31.04,27.95,2.81,3.05,5.21,6.48,7.13,10.13,1.23-6.23,1.05-12.68-.91-18.6-3.53-10.66-11.99-17.05-22.55-20.01-3.83-.83-9.05-.66-12.81,.09-.65,.13-1.28,.28-1.9,.44Z"/>
      <path class="cls-5" d="M25.18,77.24c1.92-3.65,4.32-7.08,7.13-10.13,11.12-12.04,21.78-19.76,31.04-27.95-.62-.17-1.25-.31-1.9-.44-3.76-.75-8.98-.91-12.81-.09-10.56,2.96-19.02,9.35-22.55,20.01-1.97,5.95-2.12,12.41-.91,18.6Z"/>
      <path class="cls-7" d="M84.15,52.05c-2.95-7.12-7.35-11.62-12.08-14.42,.34-.34,.68-.67,1.01-1.01,4.28-4.34,7.95-8.89,11.07-13.9,3.12,5.01,6.79,9.56,11.07,13.9,.34,.34,.67,.68,1.01,1.01-4.73,2.8-9.12,7.3-12.08,14.42Z"/>
    </g>
  </g>
</svg>