<?xml version="1.0" encoding="utf-8"?>
<!-- Generator: Adobe Illustrator 21.1.0, SVG Export Plug-In . SVG Version: 6.00 Build 0)  -->
<svg version="1.1" id="圖層_1" xmlns="http://www.w3.org/2000/svg" xmlns:xlink="http://www.w3.org/1999/xlink" x="0px" y="0px"
	 viewBox="0 0 435 215.6" style="enable-background:new 0 0 435 215.6;" xml:space="preserve">
<style type="text/css">
	.st0{fill:#FFFFFF;}
	.st1{fill:none;stroke:#ECECEC;}
	.st2{opacity:0.5;}
	.st3{fill:none;stroke:#333333;}
	.st4{fill:#27417D;}
	.st5{opacity:0;}
	.st6{fill:none;stroke:#000000;}
	.st7{fill:#333333;}
	.st8{font-family:'Verdana-Bold';}
	.st9{font-size:11px;}
	.st10{font-family:'Verdana';}
	.st11{font-size:12px;}
	.st12{fill:#00BCD1;}
</style>
<g>
	<g transform="matrix(1,0,0,1,30,891)">
		<path vector-effect="none" class="st0" d="M9-873h395v180H9V-873"/>
	</g>
	<g transform="matrix(1,0,0,1,110,1075)">
		<path vector-effect="none" d="M-71-913h395"/>
	</g>
	<g transform="matrix(1,0,0,1,110,1075)">
		<path vector-effect="none" class="st1" d="M-71-913h395"/>
	</g>
	<g transform="matrix(1,0,0,1,110,1039)">
		<path vector-effect="none" d="M-71-913h395"/>
	</g>
	<g transform="matrix(1,0,0,1,110,1039)">
		<path vector-effect="none" class="st1" d="M-71-913h395"/>
	</g>
	<g transform="matrix(1,0,0,1,110,1003)">
		<path vector-effect="none" d="M-71-913h395"/>
	</g>
	<g transform="matrix(1,0,0,1,110,1003)">
		<path vector-effect="none" class="st1" d="M-71-913h395"/>
	</g>
	<g transform="matrix(1,0,0,1,110,967)">
		<path vector-effect="none" d="M-71-913h395"/>
	</g>
	<g transform="matrix(1,0,0,1,110,967)">
		<path vector-effect="none" class="st1" d="M-71-913h395"/>
	</g>
	<g transform="matrix(1,0,0,1,110,1111)">
		<path vector-effect="none" d="M-71-913h395"/>
	</g>
	<g transform="matrix(1,0,0,1,110,1111)" class="st2">
		<path vector-effect="none" class="st3" d="M-71-913h395"/>
	</g>
	<g transform="matrix(1,0,0,1,110,931)">
		<path vector-effect="none" class="st4" d="M-41.4-733v-180h39.5v180H-41.4"/>
	</g>
	<g transform="matrix(1,0,0,1,110,931)">
		<path vector-effect="none" class="st4" d="M156.1-733v-59.4h39.5v59.4H156.1"/>
	</g>
	<g transform="matrix(1,0,0,1,110,931)">
		<path vector-effect="none" class="st4" d="M58.2-733v-79.8h39.5v79.8H58.2"/>
	</g>
	<g transform="matrix(1,0,0,1,110,931)">
		<path vector-effect="none" class="st4" d="M254.9-733v-59.4h39.5v59.4H254.9"/>
	</g>
	<g transform="matrix(1,0,0,1,110,931)" class="st5">
		<path vector-effect="none" class="st6" d="M-72-732.5h397"/>
	</g>
	<g transform="matrix(1,0,0,1,110,931)" class="st5">
		<path vector-effect="none" class="st6" d="M-71.5-914v181"/>
	</g>
	<g transform="matrix(1,0,0,1,159.38,931)">
		<g>
			<text transform="matrix(1 0 0 1 -106.4999 -719)" class="st7 st8 st9">Photographs</text>
		</g>
	</g>
	<g transform="matrix(1,0,0,1,258.13,931)">
		<g>
			<text transform="matrix(1 0 0 1 -96.9999 -719)" class="st7 st8 st9">Response</text>
		</g>
	</g>
	<g transform="matrix(1,0,0,1,356.88,931)">
		<g>
			<text transform="matrix(1 0 0 1 -126.9999 -719)" class="st7 st8 st9">Short Conversation</text>
		</g>
	</g>
	<g transform="matrix(1,0,0,1,455.63,931)">
		<g>
			<text transform="matrix(1 0 0 1 -97.4999 -719)" class="st7 st8 st9">Short Talk</text>
		</g>
	</g>
	<g transform="matrix(1,0,0,1,110,1111)">
		<text transform="matrix(1 0 0 1 -93.9998 -907)" class="st7 st10 st11">0%</text>
	</g>
	<g transform="matrix(1,0,0,1,110,1075)">
		<text transform="matrix(1 0 0 1 -101.9998 -907)" class="st7 st10 st11">20%</text>
	</g>
	<g transform="matrix(1,0,0,1,110,1039)">
		<text transform="matrix(1 0 0 1 -101.9998 -907)" class="st7 st10 st11">40%</text>
	</g>
	<g transform="matrix(1,0,0,1,110,1003)">
		<text transform="matrix(1 0 0 1 -101.9998 -907)" class="st7 st10 st11">60%</text>
	</g>
	<g transform="matrix(1,0,0,1,110,967)">
		<text transform="matrix(1 0 0 1 -101.9998 -907)" class="st7 st10 st11">80%</text>
	</g>
	<g transform="matrix(1,0,0,1,110,931)">
		<text transform="matrix(1 0 0 1 -109.9998 -907)" class="st7 st10 st11">100%</text>
	</g>
	<g transform="matrix(1,0,0,1,139,913)" class="st5">
		<path vector-effect="none" d="M-70.5-912.5h40v17h-40V-912.5"/>
	</g>
	<g transform="matrix(1,0,0,1,139,913)" class="st5">
		<path vector-effect="none" class="st6" d="M-70.5-912.5h40v17h-40V-912.5"/>
	</g>
	<g transform="matrix(1,0,0,1,139,913)">
		<text transform="matrix(1 0 0 1 -70.3699 -902)" class="st12 st8 st11">100%</text>
	</g>
	<g transform="matrix(1,0,0,1,246,1093)" class="st5">
		<path vector-effect="none" d="M-70.5-912.5h24v17h-24V-912.5"/>
	</g>
	<g transform="matrix(1,0,0,1,246,1093)" class="st5">
		<path vector-effect="none" class="st6" d="M-70.5-912.5h24v17h-24V-912.5"/>
	</g>
	<g transform="matrix(1,0,0,1,246,1093)">
		<text transform="matrix(1 0 0 1 -71.8699 -980.6386)" class="st12 st8 st11">43%</text>
	</g>
	<g transform="matrix(1,0,0,1,340,1034)" class="st5">
		<path vector-effect="none" d="M-70.5-912.5h32v17h-32V-912.5"/>
	</g>
	<g transform="matrix(1,0,0,1,340,1034)" class="st5">
		<path vector-effect="none" class="st6" d="M-70.5-912.5h32v17h-32V-912.5"/>
	</g>
	<g transform="matrix(1,0,0,1,340,1034)">
		<text transform="matrix(1 0 0 1 -70.3699 -902)" class="st12 st8 st11">33%</text>
	</g>
	<g transform="matrix(1,0,0,1,439,1034)" class="st5">
		<path vector-effect="none" d="M-70.5-912.5h32v17h-32V-912.5"/>
	</g>
	<g transform="matrix(1,0,0,1,439,1034)" class="st5">
		<path vector-effect="none" class="st6" d="M-70.5-912.5h32v17h-32V-912.5"/>
	</g>
	<g transform="matrix(1,0,0,1,439,1034)">
		<text transform="matrix(1 0 0 1 -70.3699 -902)" class="st12 st8 st11">33%</text>
	</g>
</g>
</svg>
