<?xml version="1.0" encoding="utf-8"?>
<!-- Generator: Adobe Illustrator 20.0.0, SVG Export Plug-In . SVG Version: 6.00 Build 0)  -->
<svg version="1.1" id="圖層_1" xmlns="http://www.w3.org/2000/svg" xmlns:xlink="http://www.w3.org/1999/xlink" x="0px" y="0px"
	 viewBox="0 0 388.6 108.8" style="enable-background:new 0 0 388.6 108.8;" xml:space="preserve">
<style type="text/css">
	.st0{enable-background:new    ;}
	.st1{fill:#492C80;}
</style>
<g class="st0">
	<path class="st1" d="M21.8,3.6h-9.3v1.2h-2.3V3.6H4.1V1.4h6.1V0.1h2.3v1.3h9.3V0.1h2.3v1.3h5.7v2.2h-5.7v1.2h-2.3V3.6z M18.2,11.8
		h11.7V14H4.1v-2.2h11.8v-1H6.4v-2h9.5v-1H5.2v-2h10.7V4.4h2.3v1.3h10.5v2H18.2v1h9.4v2h-9.4C18.2,10.8,18.2,11.8,18.2,11.8z
		 M9.4,23.2v3.4H7.1v-11c0-0.4,0.2-0.5,0.5-0.5h18.8c0.3,0,0.5,0.2,0.5,0.5v8.2c0,1.4-0.8,2.8-4,2.8c-0.9,0-1.9-0.1-3.1-0.3
		l-0.1-2.6c1.3,0.3,2.3,0.5,3,0.5c1.8,0,1.9-1,1.9-1.2H9.4V23.2z M9.4,18.2h15.3v-0.9c0-0.1-0.1-0.2-0.2-0.2H9.6
		c-0.1,0-0.2,0.1-0.2,0.2C9.4,17.3,9.4,18.2,9.4,18.2z M9.4,21.2h15.3v-1H9.4V21.2z"/>
	<path class="st1" d="M69.1,26.6c-5.4-0.9-9.5-3.3-12.2-7.1L56.5,20c-2.1,2.7-6,4.9-11.9,6.5L43.7,24c5.8-1.2,9.5-3.1,11.1-5.6v-0.1
		H43.6v-2.4h2.7V9.1c0-0.5,0.3-0.8,0.8-0.8h8.3v-2h2.4v1.9h8.2c0.6,0,0.9,0.3,0.9,0.8v6.8h2.7v2.4H59l0.1,0.1c2,3,5.6,4.8,11,5.6
		L69.1,26.6z M61.1,4.7h-8.5v1.9h-2.4V4.7h-6.3V2.3h6.3V0.1h2.4v2.2h8.5V0.1h2.4v2.2h6v2.4h-6v1.9h-2.4C61.1,6.6,61.1,4.7,61.1,4.7z
		 M55.5,16v-5.2h-6.4c-0.2,0-0.3,0.1-0.3,0.3V16H55.5z M57.9,10.7v5.2h6.6v-4.8c0-0.2-0.1-0.3-0.4-0.3h-6.2V10.7z"/>
	<path class="st1" d="M86.5,25.3v1.2h-2.4V1.7c0-0.5,0.3-0.8,0.8-0.8H108c0.5,0,0.8,0.3,0.8,0.8v24.8h-2.4v-1.2H86.5z M103.5,3.1
		l0.6,1.9h1.3v2.2h-5.3c0.4,3.1,0.8,5.4,1.2,6.8c0.7-1.7,1.3-3.5,1.8-5.5l2.1,0.6c-1.2,4.6-2.6,7.1-3.1,7.8l0.7,2.1
		c0.3,0.6,0.4,0.9,0.5,0.9c0.3,0,0.4-1.3,0.4-1.9c0-0.5,0-1.1-0.1-1.6l2.1,0.6c-0.1,2.3-0.3,3.9-0.8,4.9c-0.2,0.4-0.6,0.9-1.4,0.9
		c-1.6,0-2.4-2.2-3-3.6c-1,1.4-2,2.6-3,3.7l-1.9-1.4l1.6-1.6c-2.8,0.7-5.9,1.1-9.3,1.3L87.5,19c4.2-0.3,7.5-0.8,9.9-1.4l0.4,1.9
		l2.1-2.7c-0.7-2.5-1.4-5.6-1.9-9.5H87.9V5.1h9.9l-0.2-2H86.9c-0.3,0-0.4,0.1-0.3,0.3v19.7h19.8V3.5c0-0.2-0.1-0.3-0.3-0.3h-2.6V3.1
		z M97,16.4c0,0.2-0.1,0.3-0.3,0.3h-8.5c-0.2,0-0.3-0.1-0.3-0.3v-7c0-0.2,0.1-0.3,0.3-0.3h8.5c0.2,0,0.3,0.1,0.3,0.3V16.4z
		 M94.7,11.1h-4.5c-0.1,0-0.1,0-0.1,0.1v3.4l0.1,0.1h4.5l0.1-0.1v-3.4L94.7,11.1z M101.8,5.1l-0.7-1.9h-1.4l0.2,1.9H101.8z"/>
	<path class="st1" d="M136.7,11.7c-1,1-2.2,1.9-3.6,2.8l-1.7-1.6c1.5-0.8,2.7-1.7,3.7-2.6l-3-2.8l-0.7,0.7l-1.1-1.2l-0.6,2.3
		c-0.1,0.2-0.1,0.4-0.1,0.6c0,0.2,0.1,0.3,0.1,0.4c1.5,2.2,2.2,4.2,2.2,6.4c0,1.2-0.3,2.1-0.8,2.8c-1,1.1-1.8,1.1-2.6,1.1
		c-0.7,0-1.5-0.1-2.4-0.4v6.3h-2.3V1.1l0.1-0.3l0.3-0.1h6.1l1.6,1l-1.3,4.4c1.5-1.4,2.4-2.2,3.6-5.8l2.1-0.1L136.1,1h4.2l1.6,0.8
		l-0.2,0.7c0.7,1.8,1.4,3.3,2.2,4.5c1-1.2,1.9-2.4,2.7-3.6h-3.5V1.3h5.5l0.9,1.5c-1,1.8-2.5,3.8-4.3,5.8c1.1,1.3,2.5,2.5,4.3,3.8
		l-1.8,1.5c-1-0.7-1.9-1.6-2.8-2.5v1.9h-8.2V11.7z M129,3.5c0-0.1,0-0.2,0-0.3c0-0.3-0.3-0.3-0.5-0.3h-2.3L126.1,3L126,3.1v14.6
		c0.7,0.5,1.4,0.7,2.1,0.7c1.3,0,1.4-1.2,1.4-1.8c0-1.5-0.8-3.6-2.4-6.5V9.9L129,3.5z M129.7,23.9c2.1-1.2,4-2.7,5.4-4.6l1.9,1.4
		c-1.9,2.4-3.9,4.1-5.7,5L129.7,23.9z M139.8,18h-6.4v-2.2h15.6V18h-6.7v6c0,0.8-0.4,2.7-2.8,2.7c-0.9,0-2-0.2-3.3-0.5l0.1-2.4
		c1.3,0.4,2.2,0.6,2.8,0.6c0.7,0,0.9-0.2,0.9-0.9V18H139.8z M134.8,7l1.8,1.8l0.9-1.3l0.2-0.3c-1.1-0.8-2.3-1.5-3.6-2L133.5,6
		L134.8,7z M136.9,4.3l1.7,1l0.6-1.3c0-0.2,0.1-0.3,0.1-0.5c0-0.3-0.1-0.4-0.2-0.4h-3.8l-0.1,0.3L136.9,4.3z M144.6,11.3
		c-1.6-1.7-2.9-3.6-3.9-5.6c-1.2,2.8-2.6,4.8-3.6,5.6H144.6z M147.6,25.9c-1.5-2.2-2.8-3.9-3.9-5.1l1.8-1.5c1.3,1.3,2.6,3,4,5.1
		L147.6,25.9z"/>
	<path class="st1" d="M162.8,4.7h9.9v2.2h-9.9V4.7z M165.9,24.7v1h-2.3v-8.4c0-0.5,0.3-0.7,0.7-0.7h7.4c0.5,0,0.7,0.3,0.7,0.7v6.6
		c0,0.5-0.3,0.8-0.8,0.8H165.9z M164,0.9h7.5v2.2H164V0.9z M164,8.7h7.7v2.2H164V8.7z M164,12.6h7.7v2.2H164V12.6z M170.3,19.2
		c0-0.3-0.1-0.4-0.4-0.4h-3.5c-0.2,0-0.3,0.1-0.3,0.4v3.3h3.8c0.3,0,0.5-0.2,0.5-0.5v-2.8H170.3z M176.8,12l0.6-3.9h-2.9V5.7h3.2
		l0.5-2.6h-4V0.9H188v2.2h-7.4l-0.4,2.6h6.5c0.4,0,0.6,0.2,0.6,0.5v5.6h1.8v2.2h-15.6v-2.2h3.3V12z M176.9,24.9v0.9h-2.3v-9.4
		c0-0.3,0.1-0.4,0.4-0.4h12.6c0.3,0,0.5,0.2,0.5,0.5v9.3h-2.3v-0.9C185.8,24.9,176.9,24.9,176.9,24.9z M176.9,22.6h8.8v-3.8
		c0-0.2-0.1-0.3-0.3-0.3h-8c-0.3,0-0.3,0.1-0.3,0.3v3.8H176.9z M179.1,12h5.8V8.2c0-0.2-0.1-0.3-0.3-0.3h-4.8L179.1,12z"/>
	<path class="st1" d="M202.6,4.6h26v2.3h-26V4.6z M207.3,25.1v1.3h-2.4v-9c0-0.3,0.1-0.4,0.4-0.4h20.9c0.3,0,0.5,0.2,0.5,0.5v8.9
		h-2.4v-1.3H207.3z M205.7,0.8h19.7v2.3h-19.7V0.8z M205.8,8.7h19.5V11h-19.5V8.7z M205.9,12.8h19.4v2.3h-19.4V12.8z M207.3,22.8h17
		v-3c0-0.2-0.1-0.3-0.3-0.3h-16.3c-0.3,0-0.4,0.1-0.3,0.3v3H207.3z"/>
	<path class="st1" d="M249,19.1l-1.6-2.3h1.2l2.1-2l0.1-0.2l-0.2-0.1h-2.7c-1.3,1-2.7,2-4.2,2.9l-1.5-1.8c2.9-1.6,5.4-3.4,7.4-5.5
		h-7.2V7.8h5.2V4.9h-4.3V2.7h4.3V0.1h2.3v2.6h4.3V4l1.7-3.1l1.9,1.1c-1,1.9-2.3,3.9-3.6,5.8h2.2v2.2h-4l-1,1l-1.5,1.5h3.5L255,14
		l-4.4,3.8l0.5,0.9c2.2-0.6,3.9-1.1,5.1-1.5l0.7,2.2c-1,0.4-2.7,0.9-4.9,1.4c0.4,1.1,0.6,1.9,0.6,2.6c0,1.4-1.3,3.3-3.9,3.3
		c-1.1,0-2.3-0.3-3.7-0.8l0.1-2.5c1.6,0.9,2.7,1.3,3.5,1.3c0.6,0,1.7-0.5,1.7-1.9c0-0.4-0.1-0.9-0.3-1.4l-6.9,1.3l-0.7-2.3L249,19.1
		z M252.8,6.1l0.7-1.2h-3.8v2.9h1.7L252.8,6.1z M254,24.7c2.9-1.4,5.3-3.4,7-5.8c-0.9-1.8-1.6-4.1-2-6.8c-0.4,0.9-0.7,1.8-1.2,2.6
		l-2.3-0.6c2.2-4.3,3.3-9,3.3-13.7h2.3L260.9,3h7.6v2.3h-1.8v1.6c0,3.5-0.8,7-2.4,10.6l-1,1.7c1.1,1.8,2.9,3.8,5.3,6.1l-2.2,1.3
		c-1.9-2.1-3.4-3.9-4.4-5.6c-1.6,2-3.8,3.8-6.5,5.5L254,24.7z M260.8,5.3c-0.1,0.8-0.1,1.6-0.1,2.3c0,1.7,0.1,3.3,0.4,4.6
		c0.3,1.6,0.7,3.1,1.2,4.5c1.4-2.7,2.2-6,2.3-9.9V5.3H260.8z"/>
	<path class="st1" d="M306.7,11.6c-0.8-0.9-1.8-1.9-2.8-2.9l-21.2,0.9l-0.5-2.4l4.2-0.1c1.2-0.9,2.3-2,3.5-3.1h-7.5V1.5h11.4V0h2.5
		v1.5h11.6v2.3h-5.6c2.4,2,4.5,4,6.4,6.1L306.7,11.6z M286.6,22v4.5h-2.4V11.7c0-0.6,0.3-0.8,0.8-0.8h19.5c0.6,0,0.9,0.3,0.9,0.8
		v11.9c0,2.3-1.6,3.1-4.2,3.1c-0.9,0-1.9-0.1-3.1-0.3l-0.3-2.7c1.3,0.3,2.4,0.5,3.2,0.5c2,0,2-1,2-2.1C303,22,286.6,22,286.6,22z
		 M286.6,15.2H303v-1.8c0-0.1-0.1-0.2-0.2-0.2h-16c-0.1,0-0.2,0.1-0.2,0.2L286.6,15.2L286.6,15.2z M286.6,19.7H303v-2.1h-16.4V19.7z
		 M299.4,4.8l0.8-0.9H293l-3,3l11.5-0.4L299.4,4.8z"/>
	<path class="st1" d="M324.8,18.7V20h-2.5V5.9c0-0.6,0.3-0.9,0.9-0.9h10.5V0.2h2.5V5h10.3c0.6,0,0.9,0.3,0.9,0.9V20h-2.5v-1.3h-8.7
		v7.8h-2.5v-7.8C333.6,18.7,324.8,18.7,324.8,18.7z M324.8,16.2h8.8V7.5h-8.4c-0.3,0-0.4,0.1-0.4,0.4v8.2H324.8z M336,16.2h8.7V7.9
		c0-0.3-0.1-0.4-0.4-0.4H336V16.2z"/>
	<path class="st1" d="M361.2,22.9c1.4-7.6,2-13.8,1.9-18.4l2.5,0.2c0.1,5.1-0.6,11.4-2,18.5L361.2,22.9z M368.1,2h2.5v20
		c0,0.9,0,1.7,1.6,1.7h6.1c2.1,0,2.1-1.5,2.1-3.5c0-0.8,0-2-0.1-3.4l2.5,0.4c0,1.1,0.1,2.1,0.1,3c0,3.5-0.2,4.2-0.8,4.9
		c-0.8,0.9-1.2,1.1-3,1.1h-8c-2.1,0-3.1-1.5-3-3.8L368.1,2L368.1,2z M376.1,17.4c-0.7-7-1.7-12.7-3-16.8l2.4-0.5
		c1.4,4.5,2.5,10.2,3,16.9L376.1,17.4z M385.3,22.7c-0.8-7.9-2-14.2-3.5-18.8l2.4-0.5c1.7,5.1,2.8,11.4,3.5,18.9L385.3,22.7z"/>
</g>
<g class="st0">
	<path class="st1" d="M46.5,63.1l5.2,4.6L49.3,70h-2c-0.2,8.5-2,15.7-5.2,21.5c0.1,0.2,0.2,0.3,0.3,0.4c3.2,3.9,6.2,7.1,9.1,9.4
		l-5.8,6.7c-3.2-2.9-5.9-6.3-8.2-10c-3.8,4.2-8.6,7.5-14.4,10l-2.3-3.6c5.5-3.8,9.8-8.2,13-13.3c-1.4-3.1-2.4-6.4-3.1-9.9
		c-0.7,0.9-1.3,1.7-2,2.4l-3.5-2.8c0.7-1.1,1.2-2.3,1.7-3.6h-9.5c-1.5,1.4-3.1,2.6-4.7,3.8h5l2.9-1.5l5.8,4.1l-3,1.5l-4.5,4.5v1.1
		c2.9-0.5,5.8-1.1,8.8-1.9l0.9,4c-3.3,1.1-6.5,2.1-9.7,2.9v7.4c0,3.3-1.7,4.9-5.2,4.9H9.9c0-2.8-1.7-4.2-5.1-4.2l0.2-2.7
		c1.5,0.1,3,0.1,4.5,0.1c1.1,0,1.6-0.4,1.6-1.4v-2.2c-3.2,0.7-6.3,1.2-9.5,1.6l-1.1-6.7c3.5,0,7-0.3,10.6-0.7v-3.9l3.8,0.5l2.3-3.8
		h-10c-1.6,1-3.2,1.8-4.9,2.7l-2.3-3c3.5-2.1,6.7-4.5,9.5-7H2.3l-0.9-3.7h6.4v-5.9H2.6L1.7,64h6v-6.4l7.2,0.9V64h1.4l2.3-2.1l2,1.7
		c0.7-1.2,1.3-2.3,1.8-3.5l7,1.6c-2.2,4.3-4.9,8.2-8.3,11.7h2.7l2.3-2.6l2.3,2.6c1.8-4.8,2.9-9.9,3.5-15.2l8.3,1.5
		c-0.5,2.2-1.1,4.3-1.7,6.3h4.9L46.5,63.1z M18.1,67.6H15v4.1C16.1,70.4,17.1,69,18.1,67.6z M37.4,83.6c1.5-4.2,2.4-8.8,2.6-13.6h-3
		c-0.8,1.8-1.6,3.6-2.5,5.2C35.1,78.1,36.1,81,37.4,83.6z"/>
	<path class="st1" d="M83.4,60.1c-1.3,1.7-2.7,3.2-4.1,4.5H81l3-2.6l5.8,4.4l-1.9,1.8v13.5l-6.9,1v-1.8h-5v5.4h4.6l3.2-2.6l6.1,4.7
		l-1.9,2V106l-6.9,0.8v-2.1H76v2.4l-6.6,0.8V62.5l5.8,0.7c0.5-1.9,1-3.9,1.4-5.8L83.4,60.1z M81,68.6h-5V77h5V68.6z M81.1,90.4H76
		v10.4h5.1V90.4z M97.2,69.1v2h2.2V64H88.8l-1-4h23.6l2.8-2.4l4.6,4.2l-2.3,2.2h-10v7.1h1.3l3.4-3.2l7,5.4l-2.3,2.2v22.9
		c0,3.7-1.8,5.5-5.5,5.5h-1.7c0-2.1-0.7-3.5-2.1-4.4v8.2l-7.2,0.7V75.2h-2.2v28.4l-7,0.9V68.3L97.2,69.1z M106.6,95.6l0.8,0.1
		c1.1,0,1.6-0.3,1.6-1.1V75.2h-2.4V95.6z"/>
	<path class="st1" d="M145.1,58.4v1.8h4.4l2.3-2.9l6.9,5.1l-1.7,1.8v38.2c0,3.7-1.7,5.6-5.2,5.6h-3c0-2.6-1.7-3.9-5.1-4l0.4-3.6
		l3.7,0.3c1.3,0,1.9-0.6,1.9-1.8v-10h-4.6v2.6c0,6.5-1.7,11.7-5.2,15.9l-4.1-1.7c1.4-2.8,2.1-6.6,2.1-11.5V57.7L145.1,58.4z
		 M149.7,71.8v-7.6h-4.6v7.6H149.7z M149.7,84.9v-9.1h-4.6v9.1H149.7z M167.6,58.6v1.6h7.8l3-2.3l6.9,4.8l-2.4,1.6
		c-0.2,2.3-0.5,4.3-1,6.1c-0.4,3.7-2.3,5.8-5.5,6.1l-2.7,0.1c0-2.2-1.7-3.5-5.1-4.2l0.4-2.8l4.7,0.7c0.6,0,1-0.3,1.1-1.1
		c0.3-1.5,0.7-3.2,0.9-5.2h-8.2v14.8h8.9l2.6-2.7l6.8,4.7l-2.2,2c-0.4,4.8-1.7,9.4-4,13.5c1.8,1.6,3.8,3.1,6.1,4.3l-4.2,7.7
		c-2.2-1.4-4.2-3.3-6-5.7c-1.6,1.9-3.3,3.8-5.3,5.5l-2.7-1.9v1l-7.9,1V57.7L167.6,58.6z M172.3,97.8c-0.2-0.3-0.4-0.6-0.5-0.9
		c-1.8-3.5-3.3-7.4-4.2-11.7v20.2C169.5,102.9,171,100.4,172.3,97.8z M174.9,90.7c0.7-2.6,1.1-5.3,1.2-7.9h-5.8
		C171.6,85.6,173.2,88.3,174.9,90.7z"/>
	<path class="st1" d="M221.6,58l7.6,5.3l-4,2l-5.7,5.9c0.9,0.6,1.7,1.2,2.6,1.7l-2.3,2.7h2.2l3.1-2.9l6.5,4.8l-2.9,1.5l-1.1,2
		c2.7-1.8,5.2-3.8,7.3-5.9c-1.3-1.3-2.4-2.5-3.5-3.8c-1,1-2.1,2-3.2,2.8l-2.9-2.5c2.9-4,4.9-8.6,5.9-13.9l7.7,1.8
		c-0.3,1.1-0.7,2.2-1.1,3.3h8.9l2.7-2.4l4.7,4.1l-2.2,2.3h-2.2c-1.4,2.9-3.2,5.5-5.3,7.8c2.8,1.6,6,2.9,9.5,4l-4.9,7.3
		c-3.5-2.1-6.7-4.3-9.5-6.7c-1.7,1.4-3.5,2.6-5.5,3.6l5.8,0.5c-0.1,1.5-0.3,2.8-0.4,4.1h2.6l3.5-2.8l7.1,5.2l-2.7,2.2
		c0,6.3-0.5,10.4-1.6,12.3c-1,2.4-3,3.6-6.2,3.6h-3.2c-0.1-2.6-1.3-4.3-3.4-4.9l0.2-2.7c1.4,0.2,3.1,0.3,4.9,0.3
		c0.7,0,1.1-0.9,1.2-2.8l0.3-6.4h-3.4c-1.2,4.9-3.2,8.7-5.9,11.3c-2.4,2.4-5.3,4.4-8.8,5.9l-2.2-3.9c3.5-2.4,5.9-5,7.4-7.8
		c0.8-1.5,1.5-3.3,2-5.5h-4.8l-1.3-4h6.7c0.1-1.2,0.2-2.4,0.3-3.6c-1.4,0.7-2.8,1.1-4.2,1.6l-1.2-2.1l-3.7,6.6l-2.1-0.8l1.3-9H220
		v22.2c0,4.1-1.7,6.3-4.9,6.3h-4.5c0-3.3-1.6-4.9-4.6-5l0.2-2.9c2,0.1,3.9,0.3,5.7,0.4c0.7,0,1.1-0.6,1.1-1.8V87.9
		c-1.9,4.2-4.6,8.5-8.2,12.7l-2.4-2.2c3-5.4,5.1-11.6,6.4-18.4h-4.3l-1.1-4.3h9.9c-2.3-2.2-4.7-4.1-7-5.8l2.7-3.6
		c2.5,0.9,4.8,1.9,6.9,2.9l1.7-4.1h-12.7l-1-4H218L221.6,58z M235.1,66.8c-0.3,0.4-0.5,0.8-0.9,1.1c1.3,1.2,2.7,2.2,4,3.1
		c1-1.4,1.8-2.8,2.6-4.2H235.1z"/>
	<path class="st1" d="M289.1,97.9c-5.8,4.9-11.5,8.5-17.3,10.9l-2.4-3.8c5.1-3.6,9.1-7.7,12.1-12.2L289.1,97.9z M272.6,67.1
		l-1.1-4.5c17.3-0.7,31.3-2.6,42.2-5.6l5.5,6c-5.6,1.4-12.3,2.4-20.3,3.1c-2.8,3.4-6.5,6.5-11,9.1c1.7,1,3.3,1.9,4.5,2.8
		c0.7-0.5,1.3-1.1,2-1.6c3.8-3,6.9-5.9,9.2-8.8l8.2,4.5c-5.3,4.8-11.1,9-17.7,12.8c6.3-0.2,11.3-0.6,15.1-1
		c-0.8-1.3-1.5-2.5-2.1-3.6l3.9-2.8c3.2,2.8,6.6,6.5,10.3,11l-7.3,5.3c-0.9-2-1.7-3.8-2.4-5.4c-2.9,0.6-6.5,1.2-10.9,1.8V108
		l-9.4,0.9V91.3c-5.6,0.7-11.9,1.2-18.9,1.7l-1.2-7.8c4,0,7.8,0,11.4-0.1c1.1-0.7,2.1-1.3,3.2-2.1c-2.4-2.6-5.6-5.3-9.4-8.2l2.2-3.8
		c1.4,0.5,2.8,1.1,4,1.6c1.7-1.8,3.2-3.8,4.4-5.8C282.4,67,277.6,67.1,272.6,67.1z M320.7,101.3l-6.6,6.6
		c-3.6-5.5-7.4-9.9-11.4-13.4l3.2-3.3C311.2,93.8,316.1,97.2,320.7,101.3z"/>
	<path class="st1" d="M383.4,61.3l5.1,4.5l-2.4,2.4h-15.2l2.6,1.1c-1.7,2.4-3.5,4.7-5.5,6.8c3.4-0.1,6.8-0.3,10.3-0.6
		c-0.7-1.4-1.4-2.7-2.1-4l3.7-2c2,2,3.9,4,5.5,6.2c1.4,1.8,2.3,3.2,2.7,4l-6.7,4.3c-0.4-1.4-0.8-2.8-1.3-4.1
		c-6.3,1.4-12.7,2.4-19.2,3.1c0.2,0.4,0.3,0.7,0.5,1l-5.9,4.1c-0.3-1.3-0.5-2.5-0.8-3.7c-0.7,0.2-1.4,0.4-2,0.6v5.4l2.8-1.9
		c2.3,3.2,4.3,6.6,5.9,10.1c0.7-2.2,1-4.4,1-6.7V83l7.3,1.1v8.2c0,3.8-0.9,7-2.6,9.4c-1.5,2.4-3.8,4.7-6.7,6.8l-3.1-2.2
		c1.8-2.4,3.2-4.8,4-7.3l-5.9,4.1c-0.8-4.6-1.7-8.7-2.7-12.2v16.4l-7.3,0.7V94.5c-1.5,4.5-3.2,8-5.1,11l-3.5-2.1
		c1.6-5.1,2.7-9.8,3-14.1l5.5,1.2V87c-2,0.5-3.9,0.9-5.6,1.2l-1.8-7c1.1,0,2.1,0,3.2-0.1c1-1.1,1.9-2.3,2.8-3.5
		c-1.7-3.9-3.9-7.3-6.4-10.3l2.8-3.4c0.6,0.4,1.2,0.8,1.7,1.2c1.3-2.3,2.4-5.1,3.6-8.3l7.6,2.7c-2.2,3.1-4.8,6-7.7,8.6
		c0.2,0.2,0.4,0.4,0.7,0.7c0.8,0.8,1.6,1.6,2.2,2.4c1.7-2.6,3.3-5.3,4.7-8l4.7,2.4l-0.4-1.6h10.4v-6.3l8.9,1.1V64h3.6L383.4,61.3z
		 M352.4,76.7l3.2-2.1c1.1,1.5,2.2,3.1,3.2,4.6l-0.5-2.9c1.1,0,2.3,0,3.4-0.1c1.2-2.5,2.3-5.2,3.2-8.1h-5.4
		c-3.9,4.7-7.9,8.9-12,12.5c2.2-0.2,4.2-0.5,6-1C353.1,78.7,352.7,77.6,352.4,76.7z M380.2,83.9v16c0,0.7,0.1,1,0.4,1h0.7
		c0.7,0,1.1-0.3,1.2-1l1-6.7l3.3,0.5c-0.1,0.9-0.1,1.6-0.1,2.2c0,3.6,0.7,6,2,7.2c-1,2.9-2.7,4.5-5.1,4.5h-6.1
		c-2.8,0-4.3-1.7-4.5-5.2V82.9L380.2,83.9z"/>
</g>
</svg>
