<?xml version="1.0" encoding="utf-8"?>
<!-- Generator: Adobe Illustrator 19.2.1, SVG Export Plug-In . SVG Version: 6.00 Build 0)  -->
<svg version="1.1" id="圖層_1" xmlns="http://www.w3.org/2000/svg" xmlns:xlink="http://www.w3.org/1999/xlink" x="0px" y="0px"
	 viewBox="0 0 115.1 109" style="enable-background:new 0 0 115.1 109;" xml:space="preserve">
<style type="text/css">
	.st0{fill:#FFFFFF;}
	.st1{fill:url(#SVGID_1_);}
	.st2{fill:url(#SVGID_2_);}
	.st3{fill:url(#SVGID_3_);}
	.st4{fill:url(#SVGID_4_);}
	.st5{fill:url(#SVGID_5_);}
	.st6{fill:url(#SVGID_6_);}
</style>
<g>
	<g>
		<path class="st0" d="M40.3,34.8l-1-0.7c-0.5-0.3-0.7-0.4-1.2-0.4c-0.8,0-1.4,0.6-1.4,0.6l0.4,0.5l-0.4,0.5c0,0,0.6,0.6,1.4,0.6
			c0.5,0,0.7-0.1,1.2-0.4L40.3,34.8z"/>
		<path class="st0" d="M40.6,35.2l-1,0.7c-0.5,0.3-0.6,0.6-0.8,1c-0.3,0.8,0.2,1.5,0.2,1.5l0.6-0.2l0.4,0.6c0,0,0.8-0.3,1-1.1
			c0.1-0.4,0.2-0.7,0-1.2L40.6,35.2z"/>
		<path class="st0" d="M41.1,35.1l0.4,1.2c0.2,0.6,0.3,0.8,0.7,1c0.7,0.5,1.5,0.3,1.5,0.3l0-0.7l0.7-0.2c0,0-0.1-0.8-0.8-1.3
			c-0.4-0.3-0.6-0.4-1.2-0.4H41.1z"/>
		<path class="st0" d="M41.1,34.6h1.2c0.6,0,0.8-0.1,1.2-0.4c0.7-0.5,0.8-1.3,0.8-1.3l-0.7-0.2l0-0.7c0,0-0.8-0.2-1.5,0.3
			c-0.4,0.3-0.5,0.5-0.7,1L41.1,34.6z"/>
		<path class="st0" d="M40.6,34.4l0.4-1.2c0.2-0.6,0.2-0.8,0-1.2c-0.3-0.8-1-1.1-1-1.1l-0.4,0.6L39,31.1c0,0-0.4,0.7-0.2,1.5
			c0.1,0.4,0.3,0.6,0.8,1L40.6,34.4z"/>
	</g>
	<g>
		<path class="st0" d="M32,47.2l-0.8-0.6c-0.4-0.3-0.6-0.3-1-0.3c-0.7,0-1.1,0.5-1.1,0.5l0.3,0.4l-0.3,0.4c0,0,0.5,0.5,1.1,0.5
			c0.4,0,0.6-0.1,1-0.3L32,47.2z"/>
		<path class="st0" d="M32.2,47.6l-0.8,0.6c-0.4,0.3-0.5,0.5-0.6,0.8c-0.2,0.6,0.1,1.2,0.1,1.2l0.5-0.2l0.3,0.5c0,0,0.6-0.3,0.8-0.9
			c0.1-0.3,0.1-0.6,0-1L32.2,47.6z"/>
		<path class="st0" d="M32.7,47.4l0.3,1c0.1,0.5,0.3,0.6,0.6,0.8c0.5,0.4,1.2,0.3,1.2,0.3l0-0.5l0.5-0.1c0,0-0.1-0.7-0.6-1.1
			c-0.3-0.2-0.5-0.3-1-0.3H32.7z"/>
		<path class="st0" d="M32.7,47h1c0.5,0,0.7-0.1,1-0.3c0.5-0.4,0.6-1.1,0.6-1.1l-0.5-0.1l0-0.5c0,0-0.7-0.1-1.2,0.3
			c-0.3,0.2-0.4,0.4-0.6,0.8L32.7,47z"/>
		<path class="st0" d="M32.2,46.9l0.3-1c0.1-0.5,0.1-0.7,0-1c-0.2-0.6-0.8-0.9-0.8-0.9l-0.3,0.5l-0.5-0.2c0,0-0.3,0.6-0.1,1.2
			c0.1,0.3,0.2,0.5,0.6,0.8L32.2,46.9z"/>
	</g>
	<g>
		<path class="st0" d="M33.1,37.1l-0.9-0.4c-0.4-0.2-0.6-0.2-1-0.2c-0.7,0.1-1,0.7-1,0.7l0.4,0.4L30.3,38c0,0,0.5,0.4,1.2,0.3
			c0.4-0.1,0.5-0.1,0.9-0.5L33.1,37.1z"/>
		<path class="st0" d="M33.4,37.4l-0.7,0.7c-0.3,0.3-0.4,0.5-0.5,0.9c-0.1,0.7,0.3,1.2,0.3,1.2l0.5-0.3l0.4,0.4c0,0,0.6-0.4,0.7-1.1
			c0.1-0.4,0-0.6-0.2-1L33.4,37.4z"/>
		<path class="st0" d="M33.8,37.2l0.5,0.9c0.2,0.4,0.4,0.6,0.7,0.7c0.6,0.3,1.2,0,1.2,0l-0.1-0.5l0.5-0.2c0,0-0.2-0.7-0.8-0.9
			c-0.3-0.2-0.5-0.2-1-0.1L33.8,37.2z"/>
		<path class="st0" d="M33.7,36.8l1-0.2c0.5-0.1,0.6-0.2,0.9-0.5C36.1,35.7,36,35,36,35l-0.5,0l-0.1-0.5c0,0-0.7,0-1.1,0.5
			c-0.3,0.3-0.4,0.4-0.4,0.9L33.7,36.8z"/>
		<path class="st0" d="M33.3,36.7l0.1-1c0.1-0.5,0-0.7-0.2-1c-0.3-0.6-1-0.8-1-0.8l-0.2,0.5l-0.5-0.1c0,0-0.2,0.6,0.1,1.2
			c0.2,0.3,0.3,0.5,0.7,0.7L33.3,36.7z"/>
	</g>
	<g>
		<path class="st0" d="M29.8,25.3L29.1,25c-0.3-0.2-0.5-0.2-0.8-0.1c-0.5,0.1-0.8,0.6-0.8,0.6l0.3,0.3l-0.2,0.4c0,0,0.4,0.3,1,0.2
			c0.3-0.1,0.4-0.1,0.7-0.4L29.8,25.3z"/>
		<path class="st0" d="M30,25.6l-0.6,0.6c-0.3,0.3-0.3,0.4-0.4,0.7c-0.1,0.5,0.3,1,0.3,1l0.4-0.2l0.3,0.3c0,0,0.5-0.3,0.5-0.9
			c0-0.3,0-0.5-0.2-0.8L30,25.6z"/>
		<path class="st0" d="M30.3,25.4l0.4,0.7c0.2,0.3,0.3,0.5,0.6,0.6c0.5,0.2,1,0,1,0l-0.1-0.4l0.4-0.2c0,0-0.2-0.5-0.6-0.8
			c-0.3-0.1-0.4-0.2-0.8-0.1L30.3,25.4z"/>
		<path class="st0" d="M30.3,25l0.8-0.1c0.4-0.1,0.5-0.2,0.7-0.4c0.4-0.4,0.3-0.9,0.3-0.9l-0.4,0l-0.1-0.4c0,0-0.5,0-0.9,0.4
			c-0.2,0.2-0.3,0.4-0.3,0.7L30.3,25z"/>
		<path class="st0" d="M29.9,25l0.1-0.8c0.1-0.4,0-0.5-0.1-0.8c-0.3-0.5-0.8-0.6-0.8-0.6L29,23.2l-0.4-0.1c0,0-0.2,0.5,0.1,1
			c0.1,0.3,0.2,0.4,0.6,0.6L29.9,25z"/>
	</g>
	<g>
		<path class="st0" d="M28.6,20L28,19.5c-0.3-0.2-0.5-0.3-0.8-0.3c-0.5,0-0.9,0.4-0.9,0.4l0.3,0.3l-0.3,0.3c0,0,0.4,0.4,0.9,0.4
			c0.3,0,0.5,0,0.8-0.3L28.6,20z"/>
		<path class="st0" d="M28.8,20.3l-0.7,0.5c-0.3,0.2-0.4,0.4-0.5,0.7c-0.2,0.5,0.1,1,0.1,1l0.4-0.2l0.2,0.4c0,0,0.5-0.2,0.7-0.7
			c0.1-0.3,0.1-0.4,0-0.8L28.8,20.3z"/>
		<path class="st0" d="M29.1,20.2l0.3,0.8c0.1,0.4,0.2,0.5,0.5,0.7c0.4,0.3,1,0.2,1,0.2l0-0.4l0.4-0.1c0,0-0.1-0.5-0.5-0.9
			c-0.2-0.2-0.4-0.2-0.8-0.2H29.1z"/>
		<path class="st0" d="M29.1,19.9H30c0.4,0,0.5-0.1,0.8-0.2c0.4-0.3,0.5-0.9,0.5-0.9l-0.4-0.1l0-0.4c0,0-0.5-0.1-1,0.2
			c-0.2,0.2-0.3,0.3-0.5,0.7L29.1,19.9z"/>
		<path class="st0" d="M28.8,19.7l0.3-0.8c0.1-0.4,0.1-0.5,0-0.8c-0.2-0.5-0.7-0.8-0.7-0.8l-0.2,0.4l-0.4-0.2c0,0-0.3,0.5-0.1,1
			c0.1,0.3,0.2,0.4,0.5,0.6L28.8,19.7z"/>
	</g>
	<g>
		<path class="st0" d="M52.9,24.6l-0.7-0.4c-0.3-0.2-0.5-0.2-0.8-0.1c-0.5,0.1-0.8,0.6-0.8,0.6l0.3,0.3l-0.2,0.4c0,0,0.4,0.3,1,0.2
			c0.3-0.1,0.4-0.1,0.7-0.4L52.9,24.6z"/>
		<path class="st0" d="M52.5,25.5L51.9,26c-0.3,0.3-0.3,0.4-0.4,0.7c-0.1,0.5,0.3,1,0.3,1l0.4-0.2l0.3,0.3c0,0,0.5-0.3,0.5-0.9
			c0-0.3,0-0.5-0.2-0.8L52.5,25.5z"/>
		<path class="st0" d="M52.8,25.3l0.4,0.7c0.2,0.3,0.3,0.5,0.6,0.6c0.5,0.2,1,0,1,0l-0.1-0.4l0.4-0.2c0,0-0.2-0.5-0.6-0.8
			c-0.3-0.1-0.4-0.2-0.8-0.1L52.8,25.3z"/>
		<path class="st0" d="M52.7,24.9l0.8-0.1c0.4-0.1,0.5-0.2,0.7-0.4c0.4-0.4,0.3-0.9,0.3-0.9l-0.4,0L54.1,23c0,0-0.5,0-0.9,0.4
			c-0.2,0.2-0.3,0.4-0.3,0.7L52.7,24.9z"/>
		<path class="st0" d="M52.4,24.9l0.1-0.8c0.1-0.4,0-0.5-0.1-0.8c-0.3-0.5-0.8-0.6-0.8-0.6l-0.2,0.4L51,23c0,0-0.2,0.5,0.1,1
			c0.1,0.3,0.3,0.4,0.6,0.6L52.4,24.9z"/>
	</g>
	<g>
		<path class="st0" d="M30.9,59.2l-0.6-0.8c-0.3-0.4-0.4-0.5-0.8-0.6c-0.6-0.2-1.2,0.1-1.2,0.1l0.2,0.5l-0.5,0.3
			c0,0,0.3,0.6,0.9,0.9c0.3,0.1,0.5,0.1,1,0L30.9,59.2z"/>
		<path class="st0" d="M31,59.6l-1,0.3c-0.5,0.1-0.6,0.3-0.8,0.5c-0.4,0.5-0.3,1.2-0.3,1.2l0.6,0l0.1,0.5c0,0,0.7-0.1,1.1-0.6
			c0.2-0.3,0.3-0.5,0.3-1L31,59.6z"/>
		<path class="st0" d="M31.5,59.6l0,1c0,0.5,0.1,0.7,0.3,1c0.4,0.6,1,0.7,1,0.7l0.2-0.5l0.5,0.1c0,0,0.2-0.7-0.2-1.2
			c-0.2-0.3-0.4-0.4-0.8-0.6L31.5,59.6z"/>
		<path class="st0" d="M31.6,59.2l0.9,0.3c0.4,0.2,0.7,0.2,1,0.1c0.7-0.2,1-0.8,1-0.8l-0.5-0.3l0.2-0.5c0,0-0.6-0.4-1.2-0.2
			c-0.4,0.1-0.5,0.2-0.8,0.6L31.6,59.2z"/>
		<path class="st0" d="M31.3,59l0.6-0.8c0.3-0.4,0.4-0.6,0.4-0.9c0-0.7-0.5-1.2-0.5-1.2l-0.4,0.3L31,56.1c0,0-0.5,0.4-0.5,1.1
			c0,0.4,0,0.6,0.3,1L31.3,59z"/>
	</g>
	<g>
		<path class="st0" d="M37.9,48.2l-0.5-0.7c-0.2-0.3-0.4-0.4-0.6-0.5c-0.5-0.2-1,0.1-1,0.1l0.1,0.4l-0.4,0.2c0,0,0.2,0.5,0.7,0.7
			c0.3,0.1,0.4,0.1,0.8,0L37.9,48.2z"/>
		<path class="st0" d="M38,48.5l-0.8,0.2c-0.4,0.1-0.5,0.2-0.7,0.4c-0.3,0.4-0.2,1-0.2,1l0.4,0l0.1,0.4c0,0,0.5,0,0.9-0.5
			c0.2-0.2,0.2-0.4,0.3-0.8L38,48.5z"/>
		<path class="st0" d="M38.4,48.5l0,0.8c0,0.4,0,0.5,0.2,0.8c0.3,0.5,0.9,0.5,0.9,0.5l0.1-0.4l0.4,0c0,0,0.1-0.5-0.2-1
			c-0.2-0.2-0.3-0.4-0.7-0.5L38.4,48.5z"/>
		<path class="st0" d="M38.5,48.2l0.8,0.3c0.4,0.1,0.5,0.1,0.8,0c0.5-0.2,0.8-0.6,0.8-0.6l-0.4-0.3l0.2-0.4c0,0-0.5-0.3-1-0.1
			c-0.3,0.1-0.4,0.2-0.7,0.5L38.5,48.2z"/>
		<path class="st0" d="M38.2,48l0.5-0.6c0.2-0.3,0.3-0.5,0.3-0.8c0-0.5-0.4-0.9-0.4-0.9l-0.4,0.3l-0.3-0.3c0,0-0.4,0.4-0.4,0.9
			c0,0.3,0,0.5,0.2,0.8L38.2,48z"/>
	</g>
	<g>
		<path class="st0" d="M48.1,40.7l-0.4-0.6c-0.2-0.3-0.3-0.4-0.6-0.5c-0.5-0.2-0.9,0.1-0.9,0.1l0.1,0.4L46,40.3c0,0,0.2,0.5,0.7,0.6
			c0.3,0.1,0.4,0.1,0.7,0L48.1,40.7z"/>
		<path class="st0" d="M48.2,41l-0.7,0.2c-0.3,0.1-0.5,0.2-0.6,0.4c-0.3,0.4-0.2,0.9-0.2,0.9l0.4,0l0.1,0.4c0,0,0.5,0,0.8-0.4
			c0.2-0.2,0.2-0.3,0.2-0.7L48.2,41z"/>
		<path class="st0" d="M48.5,41l0,0.7c0,0.3,0,0.5,0.2,0.7c0.3,0.4,0.8,0.5,0.8,0.5l0.1-0.4l0.4,0c0,0,0.1-0.5-0.2-0.9
			c-0.1-0.2-0.3-0.3-0.6-0.4L48.5,41z"/>
		<path class="st0" d="M48.6,40.7l0.7,0.3c0.3,0.1,0.5,0.1,0.7,0c0.5-0.1,0.7-0.6,0.7-0.6l-0.3-0.2l0.2-0.4c0,0-0.4-0.3-0.9-0.1
			c-0.3,0.1-0.4,0.1-0.6,0.4L48.6,40.7z"/>
		<path class="st0" d="M48.4,40.5l0.5-0.6c0.2-0.3,0.3-0.4,0.3-0.7c0-0.5-0.3-0.8-0.3-0.8l-0.3,0.2l-0.3-0.3c0,0-0.4,0.3-0.4,0.8
			c0,0.3,0,0.4,0.2,0.7L48.4,40.5z"/>
	</g>
	<g>
		<path class="st0" d="M44.3,28.2l-0.6-0.8c-0.3-0.4-0.4-0.5-0.8-0.6c-0.6-0.2-1.2,0.1-1.2,0.1l0.2,0.5l-0.5,0.3
			c0,0,0.3,0.6,0.9,0.9c0.3,0.1,0.5,0.1,1,0L44.3,28.2z"/>
		<path class="st0" d="M44.4,28.6l-1,0.3c-0.5,0.1-0.6,0.3-0.8,0.5c-0.4,0.5-0.3,1.2-0.3,1.2l0.5,0l0.1,0.5c0,0,0.7-0.1,1.1-0.6
			c0.2-0.3,0.3-0.5,0.3-1L44.4,28.6z"/>
		<path class="st0" d="M44.8,28.6l0,1c0,0.5,0,0.7,0.3,1c0.4,0.6,1,0.7,1,0.7l0.2-0.5l0.5,0.1c0,0,0.2-0.7-0.2-1.2
			c-0.2-0.3-0.4-0.4-0.8-0.6L44.8,28.6z"/>
		<path class="st0" d="M45,28.2l1,0.3c0.4,0.2,0.7,0.2,1,0.1c0.6-0.2,1-0.8,1-0.8l-0.5-0.3l0.2-0.5c0,0-0.6-0.4-1.2-0.2
			c-0.4,0.1-0.5,0.2-0.8,0.6L45,28.2z"/>
		<path class="st0" d="M44.6,27.9l0.6-0.8c0.3-0.4,0.4-0.6,0.4-0.9c0-0.7-0.5-1.2-0.5-1.2l-0.4,0.3L44.3,25c0,0-0.5,0.4-0.5,1.1
			c0,0.4,0,0.6,0.3,1L44.6,27.9z"/>
	</g>
	<g>
		<path class="st0" d="M42.5,43.8l-0.6-0.8c-0.3-0.4-0.4-0.5-0.8-0.6c-0.6-0.2-1.2,0.1-1.2,0.1l0.2,0.5l-0.5,0.3
			c0,0,0.3,0.6,0.9,0.9c0.3,0.1,0.5,0.1,1,0L42.5,43.8z"/>
		<path class="st0" d="M42.6,44.2l-1,0.3c-0.5,0.1-0.6,0.3-0.8,0.5c-0.4,0.5-0.3,1.2-0.3,1.2l0.5,0l0.1,0.5c0,0,0.7-0.1,1.1-0.6
			c0.2-0.3,0.3-0.5,0.3-1L42.6,44.2z"/>
		<path class="st0" d="M43,44.2l0,1c0,0.5,0,0.7,0.3,1c0.4,0.6,1,0.7,1,0.7l0.2-0.5l0.5,0c0,0,0.2-0.7-0.2-1.2
			c-0.2-0.3-0.4-0.4-0.8-0.6L43,44.2z"/>
		<path class="st0" d="M43.2,43.8l1,0.3c0.4,0.2,0.7,0.2,1,0.1c0.7-0.2,1-0.8,1-0.8l-0.5-0.3l0.2-0.5c0,0-0.6-0.4-1.2-0.2
			c-0.4,0.1-0.5,0.2-0.8,0.6L43.2,43.8z"/>
		<path class="st0" d="M42.9,43.5l0.6-0.8c0.3-0.4,0.4-0.6,0.4-0.9c0-0.7-0.5-1.2-0.5-1.2L42.9,41l-0.4-0.4c0,0-0.5,0.4-0.5,1.1
			c0,0.4,0,0.6,0.3,1L42.9,43.5z"/>
	</g>
	<g>
		<path class="st0" d="M37.6,41.1l-0.8-0.8c-0.4-0.4-0.6-0.5-1-0.5c-0.7-0.1-1.3,0.3-1.3,0.3l0.3,0.5L34.4,41c0,0,0.4,0.6,1.1,0.8
			c0.4,0.1,0.6,0.1,1.1-0.2L37.6,41.1z"/>
		<path class="st0" d="M37.8,41.6l-1,0.5c-0.5,0.2-0.6,0.4-0.8,0.8c-0.4,0.7-0.1,1.4-0.1,1.4l0.6-0.1l0.2,0.6c0,0,0.7-0.2,1.1-0.8
			c0.2-0.4,0.2-0.6,0.2-1.1L37.8,41.6z"/>
		<path class="st0" d="M38.3,41.5l0.2,1.1c0.1,0.5,0.2,0.7,0.5,1c0.5,0.5,1.3,0.5,1.3,0.5l0.1-0.6l0.6-0.1c0,0,0-0.7-0.5-1.3
			c-0.3-0.3-0.5-0.4-1-0.5L38.3,41.5z"/>
		<path class="st0" d="M38.4,41l1.1,0.2c0.5,0.1,0.7,0,1.1-0.1c0.7-0.3,0.9-1,0.9-1l-0.5-0.3l0.1-0.6c0,0-0.7-0.3-1.4,0.1
			c-0.4,0.2-0.5,0.3-0.8,0.8L38.4,41z"/>
		<path class="st0" d="M37.9,40.8l0.5-1c0.2-0.5,0.3-0.7,0.2-1.1C38.6,38,38,37.6,38,37.6L37.6,38L37,37.7c0,0-0.5,0.6-0.4,1.3
			c0.1,0.4,0.1,0.6,0.5,1L37.9,40.8z"/>
	</g>
	<g>
		<path class="st0" d="M39.4,21l-0.6-1c-0.3-0.5-0.4-0.6-0.8-0.8c-0.7-0.3-1.4,0-1.4,0l0.2,0.6l-0.6,0.3c0,0,0.2,0.7,0.9,1
			c0.4,0.2,0.6,0.2,1.1,0.1L39.4,21z"/>
		<path class="st0" d="M39.5,21.5l-1.1,0.2c-0.5,0.1-0.7,0.2-1,0.5c-0.5,0.6-0.4,1.3-0.4,1.3l0.6,0l0.1,0.6c0,0,0.8,0,1.3-0.5
			c0.3-0.3,0.4-0.5,0.4-1L39.5,21.5z"/>
		<path class="st0" d="M40,21.6l-0.1,1.1c-0.1,0.5,0,0.7,0.2,1.1c0.4,0.7,1.1,0.8,1.1,0.8l0.2-0.6l0.6,0.1c0,0,0.2-0.7-0.1-1.4
			c-0.2-0.4-0.4-0.5-0.8-0.7L40,21.6z"/>
		<path class="st0" d="M40.2,21.1l1,0.5c0.5,0.2,0.7,0.2,1.1,0.2c0.7-0.1,1.1-0.8,1.1-0.8L43,20.6l0.3-0.5c0,0-0.6-0.4-1.3-0.3
			c-0.4,0.1-0.6,0.2-1,0.6L40.2,21.1z"/>
		<path class="st0" d="M39.8,20.8l0.8-0.8c0.4-0.4,0.4-0.6,0.5-1c0.1-0.7-0.4-1.3-0.4-1.3L40.1,18l-0.4-0.4c0,0-0.6,0.4-0.7,1.2
			c0,0.4,0,0.6,0.2,1.1L39.8,20.8z"/>
	</g>
	<g>
		<path class="st0" d="M21.6,42.3l-1.1-0.5c-0.5-0.3-0.8-0.3-1.2-0.2c-0.8,0.1-1.3,0.9-1.3,0.9l0.5,0.4l-0.3,0.6
			c0,0,0.7,0.5,1.5,0.4c0.4-0.1,0.7-0.2,1.1-0.6L21.6,42.3z"/>
		<path class="st0" d="M22,42.7l-0.9,0.9c-0.4,0.4-0.5,0.7-0.6,1.1c-0.1,0.8,0.4,1.5,0.4,1.5l0.6-0.4l0.5,0.5c0,0,0.7-0.5,0.8-1.3
			c0.1-0.5,0-0.7-0.2-1.2L22,42.7z"/>
		<path class="st0" d="M22.4,42.4l0.6,1.1c0.3,0.5,0.5,0.7,0.9,0.9c0.8,0.4,1.5,0.1,1.5,0.1l-0.2-0.7l0.6-0.3c0,0-0.2-0.8-1-1.2
			c-0.4-0.2-0.7-0.2-1.2-0.1L22.4,42.4z"/>
		<path class="st0" d="M22.3,41.9l1.2-0.2c0.6-0.1,0.8-0.2,1.1-0.6c0.6-0.6,0.5-1.4,0.5-1.4l-0.7-0.1L24.5,39c0,0-0.8,0-1.4,0.6
			c-0.3,0.3-0.4,0.5-0.5,1.1L22.3,41.9z"/>
		<path class="st0" d="M21.8,41.8l0.2-1.2c0.1-0.6,0-0.8-0.2-1.2c-0.4-0.7-1.2-0.9-1.2-0.9l-0.3,0.6l-0.7-0.1c0,0-0.3,0.8,0.1,1.5
			c0.2,0.4,0.4,0.6,0.9,0.8L21.8,41.8z"/>
	</g>
	<g>
		<path class="st0" d="M66.8,30.3l-1.1,0.5c-0.5,0.3-0.8,0.3-1.2,0.2c-0.8-0.1-1.3-0.9-1.3-0.9l0.5-0.4l-0.3-0.6
			c0,0,0.7-0.5,1.5-0.4c0.4,0.1,0.7,0.2,1.1,0.6L66.8,30.3z"/>
		<path class="st0" d="M67.2,29.9L66.3,29c-0.4-0.4-0.5-0.7-0.6-1.1c-0.1-0.8,0.4-1.5,0.4-1.5l0.6,0.4l0.5-0.5c0,0,0.7,0.5,0.8,1.3
			c0.1,0.5,0,0.7-0.2,1.2L67.2,29.9z"/>
		<path class="st0" d="M67.7,30.1l0.6-1.1c0.3-0.5,0.5-0.7,0.9-0.9c0.8-0.4,1.5-0.1,1.5-0.1l-0.2,0.7l0.6,0.3c0,0-0.2,0.8-1,1.2
			c-0.4,0.2-0.7,0.2-1.2,0.1L67.7,30.1z"/>
		<path class="st0" d="M67.6,30.7l1.2,0.2c0.6,0.1,0.8,0.2,1.1,0.6c0.6,0.6,0.5,1.4,0.5,1.4l-0.7,0.1l-0.1,0.7c0,0-0.8,0-1.4-0.6
			c-0.3-0.3-0.4-0.5-0.5-1.1L67.6,30.7z"/>
		<path class="st0" d="M67,30.7l0.2,1.2c0.1,0.6,0,0.8-0.2,1.2c-0.4,0.7-1.2,0.9-1.2,0.9l-0.3-0.6l-0.7,0.1c0,0-0.3-0.8,0.1-1.5
			c0.2-0.4,0.4-0.6,0.9-0.8L67,30.7z"/>
	</g>
	<g>
		<path class="st0" d="M42.1,54.1l-1-0.1c-0.5,0-0.7,0-1,0.2c-0.6,0.3-0.7,1-0.7,1l0.5,0.2l-0.1,0.5c0,0,0.6,0.2,1.2-0.1
			c0.3-0.2,0.5-0.3,0.7-0.8L42.1,54.1z"/>
		<path class="st0" d="M42.5,54.2l-0.4,0.9c-0.2,0.4-0.2,0.6-0.1,1c0.1,0.7,0.7,1,0.7,1l0.3-0.4l0.5,0.3c0,0,0.4-0.6,0.3-1.2
			c-0.1-0.4-0.2-0.5-0.5-0.9L42.5,54.2z"/>
		<path class="st0" d="M42.8,53.9l0.8,0.7c0.4,0.3,0.5,0.4,0.9,0.4c0.7,0.1,1.2-0.4,1.2-0.4l-0.3-0.5l0.4-0.4c0,0-0.4-0.5-1.1-0.6
			c-0.4,0-0.6,0-1,0.2L42.8,53.9z"/>
		<path class="st0" d="M42.6,53.6l0.9-0.5c0.4-0.2,0.5-0.4,0.7-0.7c0.3-0.6,0-1.2,0-1.2l-0.5,0.1l-0.2-0.5c0,0-0.6,0.2-0.9,0.8
			c-0.1,0.3-0.2,0.5-0.1,1L42.6,53.6z"/>
		<path class="st0" d="M42.2,53.6l-0.2-1c-0.1-0.5-0.2-0.6-0.5-0.9c-0.5-0.5-1.2-0.4-1.2-0.4l0,0.5L39.7,52c0,0,0,0.7,0.5,1.1
			c0.3,0.2,0.5,0.3,0.9,0.4L42.2,53.6z"/>
	</g>
	<g>
		<path class="st0" d="M53.5,37l-1-0.1c-0.5,0-0.7,0-1,0.2c-0.6,0.3-0.7,1-0.7,1l0.5,0.2l-0.1,0.5c0,0,0.6,0.2,1.2-0.1
			c0.3-0.2,0.5-0.3,0.7-0.8L53.5,37z"/>
		<path class="st0" d="M53.9,37.2l-0.4,0.9c-0.2,0.4-0.2,0.6-0.1,1c0.1,0.7,0.7,1,0.7,1l0.3-0.4l0.5,0.3c0,0,0.4-0.6,0.3-1.2
			c-0.1-0.4-0.2-0.5-0.5-0.9L53.9,37.2z"/>
		<path class="st0" d="M54.2,36.9l0.8,0.7c0.4,0.3,0.5,0.4,0.9,0.4c0.7,0.1,1.2-0.4,1.2-0.4l-0.3-0.5l0.4-0.4c0,0-0.4-0.5-1.1-0.6
			c-0.4,0-0.6,0-1,0.2L54.2,36.9z"/>
		<path class="st0" d="M54,36.5l0.9-0.5c0.4-0.2,0.5-0.4,0.7-0.7c0.3-0.6,0-1.2,0-1.2L55,34.2l-0.2-0.5c0,0-0.6,0.2-0.9,0.8
			c-0.1,0.3-0.2,0.5-0.1,1L54,36.5z"/>
		<path class="st0" d="M53.6,36.6l-0.2-1c-0.1-0.5-0.2-0.6-0.5-0.9c-0.5-0.5-1.2-0.4-1.2-0.4l0,0.5L51.1,35c0,0,0,0.7,0.5,1.1
			c0.3,0.2,0.5,0.3,0.9,0.4L53.6,36.6z"/>
	</g>
	<g>
		<path class="st0" d="M50,20.3l-1,0.3c-0.5,0.2-0.6,0.3-0.8,0.6c-0.4,0.6-0.2,1.2-0.2,1.2l0.5,0l0.1,0.5c0,0,0.7-0.1,1.1-0.6
			c0.2-0.3,0.3-0.5,0.3-1L50,20.3z"/>
		<path class="st0" d="M50.5,20.3l0,1c0,0.5,0.1,0.7,0.3,1c0.4,0.5,1.1,0.6,1.1,0.6l0.1-0.5l0.5,0c0,0,0.1-0.7-0.3-1.2
			c-0.2-0.3-0.4-0.4-0.8-0.6L50.5,20.3z"/>
		<path class="st0" d="M50.6,19.9l1,0.3c0.5,0.1,0.7,0.1,1,0c0.6-0.2,0.9-0.8,0.9-0.8L53,19l0.2-0.5c0,0-0.6-0.3-1.2-0.1
			c-0.3,0.1-0.5,0.2-0.8,0.6L50.6,19.9z"/>
		<path class="st0" d="M50.2,19.6l0.6-0.8c0.3-0.4,0.3-0.6,0.3-1c0-0.7-0.5-1.1-0.5-1.1l-0.4,0.4l-0.4-0.3c0,0-0.5,0.5-0.5,1.1
			c0,0.4,0.1,0.6,0.3,0.9L50.2,19.6z"/>
		<path class="st0" d="M49.9,19.9l-0.6-0.8c-0.3-0.4-0.5-0.5-0.8-0.6c-0.6-0.2-1.2,0.1-1.2,0.1l0.2,0.5L47,19.4c0,0,0.3,0.6,0.9,0.8
			c0.4,0.1,0.6,0.1,1,0L49.9,19.9z"/>
	</g>
	<g>
		<path class="st0" d="M44.6,3.3l-1-0.1c-0.5-0.1-0.7,0-1,0.2c-0.6,0.3-0.7,1-0.7,1l0.5,0.2l-0.1,0.5c0,0,0.6,0.2,1.2-0.1
			c0.3-0.2,0.5-0.3,0.7-0.8L44.6,3.3z"/>
		<path class="st0" d="M45,3.5l-0.4,0.9c-0.2,0.4-0.2,0.6-0.1,1c0.1,0.7,0.7,1,0.7,1L45.5,6L46,6.3c0,0,0.4-0.6,0.3-1.2
			c-0.1-0.4-0.2-0.5-0.5-0.9L45,3.5z"/>
		<path class="st0" d="M45.3,3.2L46,3.9c0.4,0.3,0.5,0.4,0.9,0.4c0.7,0.1,1.2-0.4,1.2-0.4l-0.3-0.5l0.4-0.4c0,0-0.4-0.5-1.1-0.6
			c-0.4,0-0.6,0-1,0.2L45.3,3.2z"/>
		<path class="st0" d="M45.1,2.8L46,2.3c0.4-0.2,0.5-0.4,0.7-0.7c0.3-0.6,0-1.2,0-1.2l-0.5,0.1L45.9,0c0,0-0.6,0.2-0.9,0.8
			c-0.1,0.3-0.2,0.5-0.1,1L45.1,2.8z"/>
		<path class="st0" d="M44.7,2.9l-0.2-1C44.4,1.5,44.2,1.3,44,1c-0.5-0.5-1.2-0.4-1.2-0.4l0,0.5l-0.5,0.1c0,0,0,0.7,0.5,1.1
			c0.3,0.2,0.5,0.3,0.9,0.4L44.7,2.9z"/>
	</g>
	<g>
		<path class="st0" d="M3.3,19.8L2.5,19c-0.4-0.4-0.6-0.5-1-0.5c-0.7-0.1-1.3,0.3-1.3,0.3l0.3,0.5L0,19.7c0,0,0.4,0.6,1.1,0.8
			c0.4,0.1,0.6,0.1,1.1-0.2L3.3,19.8z"/>
		<path class="st0" d="M3.5,20.2l-1,0.5c-0.5,0.2-0.6,0.4-0.8,0.8c-0.4,0.7-0.1,1.4-0.1,1.4l0.6-0.1l0.2,0.6c0,0,0.7-0.2,1.1-0.9
			c0.2-0.4,0.2-0.6,0.2-1.1L3.5,20.2z"/>
		<path class="st0" d="M3.9,20.2l0.2,1.1c0.1,0.5,0.2,0.7,0.5,1c0.5,0.5,1.3,0.5,1.3,0.5l0.1-0.6l0.6-0.1c0,0,0-0.8-0.5-1.3
			c-0.3-0.3-0.5-0.4-1-0.5L3.9,20.2z"/>
		<path class="st0" d="M4,19.7l1.1,0.2c0.5,0.1,0.7,0,1.1-0.1c0.7-0.3,0.9-1.1,0.9-1.1l-0.6-0.3l0.1-0.6c0,0-0.7-0.3-1.4,0.1
			c-0.4,0.2-0.5,0.3-0.8,0.8L4,19.7z"/>
		<path class="st0" d="M3.6,19.5l0.5-1c0.2-0.5,0.3-0.7,0.2-1.1c-0.1-0.7-0.7-1.2-0.7-1.2l-0.4,0.5l-0.5-0.3c0,0-0.5,0.6-0.4,1.3
			c0.1,0.4,0.1,0.6,0.5,1L3.6,19.5z"/>
	</g>
	<path class="st0" d="M48.3,43.9l0.6,0.8c0.3,0.4,0.4,0.6,0.4,1c0,0.7-0.5,1.2-0.5,1.2l-0.5-0.4L47.9,47c0,0-0.5-0.5-0.6-1.2
		c0-0.4,0-0.6,0.3-1L48.3,43.9z"/>
	<path class="st0" d="M33.7,70.9l0.8,0.7c0.4,0.3,0.5,0.5,0.6,0.9c0.2,0.7-0.2,1.3-0.2,1.3l-0.5-0.3L33.9,74c0,0-0.6-0.3-0.8-1
		c-0.1-0.4-0.1-0.6,0.1-1.1L33.7,70.9z"/>
	<path class="st0" d="M45.3,62.7l0.7,0.8c0.3,0.4,0.4,0.6,0.4,1c0,0.7-0.5,1.2-0.5,1.2l-0.5-0.4L45,65.8c0,0-0.5-0.5-0.6-1.2
		c0-0.4,0-0.6,0.3-1L45.3,62.7z"/>
	<path class="st0" d="M34.9,63.3l0.8,0.7c0.4,0.3,0.5,0.5,0.6,0.9c0.1,0.7-0.3,1.3-0.3,1.3l-0.5-0.3l-0.4,0.5c0,0-0.6-0.4-0.8-1.1
		c-0.1-0.4-0.1-0.6,0.1-1.1L34.9,63.3z"/>
	<path class="st0" d="M32.7,65.5l0.2,1c0.1,0.5,0.1,0.7-0.1,1.1c-0.3,0.6-1,0.9-1,0.9L31.6,68L31,68.1c0,0-0.3-0.7,0-1.3
		c0.2-0.3,0.3-0.5,0.7-0.8L32.7,65.5z"/>
	<path class="st0" d="M46.1,57.9l1,0.4c0.5,0.2,0.6,0.3,0.8,0.7c0.4,0.6,0.2,1.3,0.2,1.3l-0.6-0.1l-0.2,0.5c0,0-0.7-0.1-1.1-0.7
		c-0.2-0.3-0.3-0.5-0.2-1L46.1,57.9z"/>
	<path class="st0" d="M33.9,52.2l-0.3,1c-0.1,0.5-0.1,0.7,0,1.1c0.2,0.7,0.9,1,0.9,1l0.3-0.5l0.5,0.2c0,0,0.3-0.6,0.1-1.3
		c-0.1-0.4-0.2-0.5-0.7-0.8L33.9,52.2z"/>
	<g>
		
			<linearGradient id="SVGID_1_" gradientUnits="userSpaceOnUse" x1="-541.6928" y1="554.361" x2="-541.6928" y2="537.8188" gradientTransform="matrix(0.9119 -0.4105 0.4105 0.9119 314.058 -630.4308)">
			<stop  offset="0" style="stop-color:#FFFFFF"/>
			<stop  offset="0.193" style="stop-color:#FFFDFD"/>
			<stop  offset="0.3929" style="stop-color:#FEF5F5"/>
			<stop  offset="0.5961" style="stop-color:#FCE6E7"/>
			<stop  offset="0.8002" style="stop-color:#F9D0D3"/>
			<stop  offset="1" style="stop-color:#F4B2BA"/>
		</linearGradient>
		<path class="st1" d="M41.9,84.9l1.6,0.8c0.7,0.4,1,0.7,1.3,1.2c0.5,1.1,0.1,2.2,0.1,2.2l-0.9-0.2l-0.4,0.9c0,0-1.1-0.3-1.7-1.4
			c-0.3-0.6-0.4-0.9-0.2-1.8L41.9,84.9z"/>
		
			<linearGradient id="SVGID_2_" gradientUnits="userSpaceOnUse" x1="-485.6449" y1="600.713" x2="-485.6449" y2="584.1735" gradientTransform="matrix(0.9119 -0.4105 0.4105 0.9119 314.058 -630.4308)">
			<stop  offset="0" style="stop-color:#FFFFFF"/>
			<stop  offset="0.193" style="stop-color:#FFFDFD"/>
			<stop  offset="0.3929" style="stop-color:#FEF5F5"/>
			<stop  offset="0.5961" style="stop-color:#FCE6E7"/>
			<stop  offset="0.8002" style="stop-color:#F9D0D3"/>
			<stop  offset="1" style="stop-color:#F4B2BA"/>
		</linearGradient>
		<path class="st2" d="M112,104.2l1.6,0.8c0.7,0.4,1,0.7,1.3,1.2c0.5,1.1,0.1,2.2,0.1,2.2l-0.9-0.2l-0.4,0.9c0,0-1.1-0.3-1.7-1.4
			c-0.3-0.6-0.4-0.9-0.2-1.8L112,104.2z"/>
		
			<linearGradient id="SVGID_3_" gradientUnits="userSpaceOnUse" x1="-1926.2877" y1="590.137" x2="-1926.2877" y2="573.5989" gradientTransform="matrix(0.3361 -0.9418 0.9418 0.3361 120.1071 -1925.7329)">
			<stop  offset="0" style="stop-color:#FFFFFF"/>
			<stop  offset="0.193" style="stop-color:#FFFDFD"/>
			<stop  offset="0.3929" style="stop-color:#FEF5F5"/>
			<stop  offset="0.5961" style="stop-color:#FCE6E7"/>
			<stop  offset="0.8002" style="stop-color:#F9D0D3"/>
			<stop  offset="1" style="stop-color:#F4B2BA"/>
		</linearGradient>
		<path class="st3" d="M15.4,82.2l1.7-0.6c0.8-0.3,1.2-0.2,1.8,0c1.1,0.4,1.6,1.4,1.6,1.4l-0.8,0.5l0.4,0.9c0,0-1,0.6-2.2,0.2
			c-0.6-0.2-0.9-0.4-1.4-1.1L15.4,82.2z"/>
		
			<linearGradient id="SVGID_4_" gradientUnits="userSpaceOnUse" x1="-2119.7542" y1="515.534" x2="-2119.7542" y2="504.9536" gradientTransform="matrix(0.2167 -0.9762 0.9762 0.2167 9.3564 -2098.9685)">
			<stop  offset="0" style="stop-color:#FFFFFF"/>
			<stop  offset="0.193" style="stop-color:#FFFDFD"/>
			<stop  offset="0.3929" style="stop-color:#FEF5F5"/>
			<stop  offset="0.5961" style="stop-color:#FCE6E7"/>
			<stop  offset="0.8002" style="stop-color:#F9D0D3"/>
			<stop  offset="1" style="stop-color:#F4B2BA"/>
		</linearGradient>
		<path class="st4" d="M44.6,80.2l1-0.5c0.5-0.2,0.7-0.2,1.1-0.2c0.7,0.1,1.1,0.8,1.1,0.8l-0.5,0.4l0.3,0.5c0,0-0.6,0.5-1.4,0.3
			c-0.4-0.1-0.6-0.2-1-0.6L44.6,80.2z"/>
		
			<linearGradient id="SVGID_5_" gradientUnits="userSpaceOnUse" x1="-2116.1118" y1="577.3536" x2="-2116.1118" y2="566.7698" gradientTransform="matrix(0.2167 -0.9762 0.9762 0.2167 9.3564 -2098.9685)">
			<stop  offset="0" style="stop-color:#FFFFFF"/>
			<stop  offset="0.193" style="stop-color:#FFFDFD"/>
			<stop  offset="0.3929" style="stop-color:#FEF5F5"/>
			<stop  offset="0.5961" style="stop-color:#FCE6E7"/>
			<stop  offset="0.8002" style="stop-color:#F9D0D3"/>
			<stop  offset="1" style="stop-color:#F4B2BA"/>
		</linearGradient>
		<path class="st5" d="M105.8,90l1-0.5c0.5-0.2,0.7-0.2,1.1-0.2c0.7,0.1,1.1,0.8,1.1,0.8l-0.5,0.4l0.3,0.5c0,0-0.6,0.5-1.4,0.3
			c-0.4-0.1-0.6-0.2-1-0.6L105.8,90z"/>
		
			<linearGradient id="SVGID_6_" gradientUnits="userSpaceOnUse" x1="-2095.2832" y1="562.006" x2="-2095.2832" y2="551.4225" gradientTransform="matrix(0.2167 -0.9762 0.9762 0.2167 9.3564 -2098.9685)">
			<stop  offset="0" style="stop-color:#FFFFFF"/>
			<stop  offset="0.193" style="stop-color:#FFFDFD"/>
			<stop  offset="0.3929" style="stop-color:#FEF5F5"/>
			<stop  offset="0.5961" style="stop-color:#FCE6E7"/>
			<stop  offset="0.8002" style="stop-color:#F9D0D3"/>
			<stop  offset="1" style="stop-color:#F4B2BA"/>
		</linearGradient>
		<path class="st6" d="M95.3,66.4l1-0.5c0.5-0.2,0.7-0.2,1.1-0.2c0.7,0.1,1.1,0.8,1.1,0.8l-0.5,0.4l0.3,0.5c0,0-0.6,0.5-1.4,0.3
			c-0.4-0.1-0.6-0.2-1-0.6L95.3,66.4z"/>
	</g>
</g>
</svg>
