<?xml version="1.0" encoding="utf-8"?>
<!-- Generator: Adobe Illustrator 19.2.1, SVG Export Plug-In . SVG Version: 6.00 Build 0)  -->
<svg version="1.1" id="圖層_1" xmlns="http://www.w3.org/2000/svg" xmlns:xlink="http://www.w3.org/1999/xlink" x="0px" y="0px"
	 viewBox="0 0 254.9 62.6" style="enable-background:new 0 0 254.9 62.6;" xml:space="preserve">
<style type="text/css">
	.st0{fill:#231815;}
	.st1{fill:none;stroke:#DE2C4C;stroke-width:2;stroke-miterlimit:10;}
</style>
<g>
	<g>
		<path class="st0" d="M8.3,57.6c0,2.1,0,3.3,0.2,4.8H4.1c0.2-1.5,0.2-2.7,0.2-4.8V46.9c0-1.9,0-3,0.1-4.8c-1.1,2-1.5,2.6-2.6,4
			c-0.5-2-1.1-3.5-1.8-4.7c3.4-3.9,6.2-10.1,7.2-15.9l4.1,1.5c-0.2,0.5-0.5,1.6-0.6,2c-0.6,2.1-1.2,3.8-2.4,6.5V57.6z M24.5,37.4
			c-0.1,0.5-0.1,0.7-0.2,1.6c-1.2,10.8-4.7,17.5-12.2,23.6c-1-1.4-1.7-2.2-3-3.4c3.8-2.7,6.2-5.5,8.2-9.3c-1.1-1.3-1.6-1.8-3.9-4
			c-0.8,1.3-1.4,2.1-2.5,3.5c-0.8-1.6-1.4-2.7-2.4-3.9c3.3-3.8,5.1-8.1,5.9-14c-1.4,0-1.9,0-2.8,0.2v-4.2c1.1,0.2,2,0.2,3.8,0.2h5.8
			c1.9,0,2.9,0,3.9-0.2v4.2c-0.9-0.1-1.7-0.2-3.1-0.2h-3.6c-0.3,2.2-0.4,2.7-0.7,4.2h2.6c1.4,0,2.2,0,3-0.2L24.5,37.4z M16.5,39.5
			c-0.4,1.2-0.7,1.8-1.2,2.9c2.4,2.2,2.6,2.4,3.7,3.6c0.8-2.3,1.1-3.6,1.4-6.6H16.5z M36.8,57.9c0,3.4-1.2,4.1-6.2,4.1
			c-1,0-1.9,0-3.6-0.1c-0.2-1.7-0.4-2.6-1.1-4.1c1.6,0.2,3.6,0.3,4.6,0.3c2,0,2.3-0.1,2.3-1V30.5c0-1.8-0.1-2.8-0.2-4.1H37
			c-0.2,1.1-0.2,2.2-0.2,4.1V57.9z M25.9,52.8c0.1-1,0.2-1.9,0.2-3.4V32c0-1.4,0-2.2-0.2-3.4h4.3c-0.1,1-0.2,1.8-0.2,3.4v17.3
			c0,1.6,0,2.5,0.2,3.4H25.9z"/>
		<path class="st0" d="M55.3,37.2c1.4,0,5.6-0.5,8.8-1c0.7-3,1.2-6.8,1.2-8.5c0-0.1,0-0.3,0-0.5l3.2,0.4c-0.3,0.9-0.4,1.6-0.8,3.8
			c-0.2,1.2-0.5,2.6-0.8,4.6c0.9-0.1,1.4-0.1,2.4-0.1c2.8,0,4.5,0.5,5.8,1.7c1.4,1.3,2,3.2,2,6.4c0,6.1-1,11.4-2.7,13.8
			c-1,1.4-2,1.9-3.9,1.9c-1.7,0-3.4-0.4-6-1.6c0.1-0.6,0.1-0.9,0.1-1.4c0-0.6,0-0.9-0.1-1.6c2.3,1.2,4.5,1.8,6,1.8
			c1,0,1.8-0.6,2.3-1.9c1.1-2.6,1.7-6.6,1.7-11.1c0-4.2-1.2-5.6-4.9-5.6c-0.9,0-1.4,0-2.9,0.2c-1.5,6.3-3.3,11.4-6,17
			c-0.5,1-1.4,2.6-2.6,4.8l-2.7-1.6c1.2-1.6,2.8-4.2,4.2-7.2c1.9-4,3.1-7.5,4.4-12.7c-3.4,0.5-5.4,0.8-5.7,0.9
			c-0.9,0.2-1.2,0.2-2.3,0.5L55.3,37.2z M81.6,33.6c4.1,4.4,6.5,8.5,8.4,14.2l-2.6,1.5c-1.5-5.5-4.3-10.4-8.2-14.4L81.6,33.6z"/>
		<path class="st0" d="M94.9,33.6c1,0.1,1.6,0.1,3,0.1c3.4,0,5.8-0.2,9.5-0.6c-1.2-3-2-4.9-2.4-5.5l3-0.5c0.4,1.4,1.1,3.5,2.1,5.6
			c4.4-0.7,7.2-1.4,9.4-2.4l0.2,2.6c-0.4,0.1-0.4,0.1-1.2,0.3c-2,0.6-5.7,1.3-7.6,1.6c0.6,1.3,1.7,3.5,2.3,4.6
			c5.3-1.1,7.5-1.7,9.2-2.5l0.3,2.7c-0.7,0.1-0.8,0.2-2.2,0.5c-2.8,0.7-4.8,1.2-6.3,1.4c2.4,3.8,2.8,4.4,5.9,8l-2.4,1.7
			c-1.5-0.9-2.4-1.2-4.4-1.5c-1.4-0.2-3.4-0.4-5.2-0.4c-5.8,0-9.5,1.8-9.5,4.6c0,2.6,3,4.1,8.5,4.1c4.2,0,9.4-1.2,11.8-2.7l0.6,3.2
			c-0.6,0.1-0.6,0.1-2.4,0.7c-3.3,1-6.7,1.5-10.2,1.5c-3.7,0-6.2-0.5-8.2-1.7c-1.9-1.1-3-2.9-3-5c0-4.4,4.6-7,12.2-7
			c3.3,0,5.4,0.3,8.1,1.2c-1.2-1.3-2.9-3.7-4.3-6.2c-4,0.7-6.6,0.9-14,1.2c-1.9,0-2.1,0.1-2.8,0.2l-0.1-2.7c0.9,0.1,1.6,0.2,3.2,0.2
			c4.2,0,9.3-0.4,12.6-1c-1-2-1.3-2.4-2.3-4.6c-3.1,0.4-6.3,0.6-10.8,0.7c-1.7,0-1.8,0-2.5,0.1L94.9,33.6z M120.9,26.3
			c1.5,1.8,2.4,3.2,3.6,5.6l-2.1,0.9c-1-2.1-2.1-3.8-3.5-5.6L120.9,26.3z M125.1,24.9c1.6,2,2.5,3.5,3.5,5.5l-2,0.9
			c-1.1-2.3-2-3.8-3.4-5.5L125.1,24.9z"/>
		<path class="st0" d="M130.4,51.4c3.3,2.6,5.3,4.8,8,8.5l-2.2,2.1c-2.6-3.7-4.9-6.2-7.9-8.7L130.4,51.4z"/>
		<path class="st0" d="M150.5,32.1c1.7,0.5,3.8,0.6,7.5,0.6c0.1,0,0.3,0,1,0c0-1,0-1,0.2-3c0-0.4,0.1-2,0.1-2.3c0-0.1,0-0.3,0-0.6
			l3.1,0.2c-0.4,1.1-0.6,2.5-0.8,5.6c6.5-0.3,12.2-1.2,15.2-2.2l0.2,2.8c-0.5,0.1-0.6,0.1-1.4,0.2c-4.4,0.8-10.4,1.5-14.2,1.6
			c-0.2,3.4-0.2,3.4-0.3,5.4c2-0.6,3.8-0.8,5.9-0.8c0.8,0,1.3,0,2.3,0.1c0.5-1.2,0.8-2.4,1-3.6l2.8,0.8c-0.1,0.2-0.6,1.3-1.2,3.2
			c5.5,1.3,8.6,4.7,8.6,9.4c0,3.9-2.2,7.1-6.3,9.2c-2.3,1.2-4.6,1.8-8.2,2.3c-0.4-1.2-0.6-1.6-1.3-2.7c2.4-0.1,4.1-0.4,6-1.1
			c4.4-1.5,6.9-4.4,6.9-8c0-3.4-2.3-5.8-6.6-7c-2.3,5.4-4.5,8.8-7.6,12c-3.1,3.2-6.1,4.8-8.9,4.8c-3,0-5.2-2.5-5.2-6.1
			c0-4.9,3.5-9.4,9.3-11.9c0-2.9,0-3.1,0.2-6h-1.6c-0.4,0-2.2-0.1-5.4-0.2c-0.4,0-0.6,0-0.7,0c-0.2,0-0.4,0-0.6,0L150.5,32.1z
			 M154.3,46.9c-1.6,1.8-2.4,4-2.4,6c0,2.2,1.2,3.6,2.9,3.6c1.5,0,2.8-0.6,4.6-2c-0.6-3.1-0.8-6-0.8-10.8
			C156.6,44.7,155.4,45.6,154.3,46.9z M161.6,52.8c0.4-0.6,0.4-0.7,0.8-1c2.6-3,4.3-5.8,6.1-10c-1.3-0.1-1.5-0.1-1.9-0.1
			c-1.8,0-3.7,0.3-5.6,0.9c0,5.2,0.1,5.8,0.4,9.2c0,0.2,0,0.3,0,0.6c0,0,0,0.2,0,0.4L161.6,52.8z"/>
		<path class="st0" d="M193.1,28.2c-0.2,1.4-0.4,3.4-0.5,8.4c-0.2,4.8-0.3,10.2-0.3,12c0,0.5,0,1.5,0.1,2.4c0.2,2.4,0.7,3.7,1.9,4.8
			c1.1,1,2.9,1.6,5,1.6c4.8,0,8.4-2.4,10.7-7c0.9-1.9,1.4-3.5,2-6.3c1.1,1,1.6,1.3,2.9,1.9c-1.5,4.7-2.7,7-4.4,9.1
			c-2.8,3.4-6.6,5-11.3,5c-3.4,0-5.9-1-7.5-2.8c-1.6-1.9-2.2-4-2.2-8.2c0-2.7,0-3.7,0.4-16.3c0-1.2,0-2,0-2.6c0-0.8,0-1.3-0.2-2.1
			H193.1z"/>
		<path class="st0" d="M220.5,34.2c1.3,0.2,2.9,0.4,5,0.4c0.8,0,1.2,0,2.4-0.1c0.8-4.9,0.9-5.6,0.9-7.4l3.2,0.3
			c-0.2,1-0.2,1-0.7,3.8c-0.2,1.3-0.3,1.8-0.5,3c3.1-0.3,5.3-0.7,7.2-1.4l0.2,2.8c-0.3,0-0.3,0-1.1,0.2c-2,0.4-4.8,0.8-6.8,1
			c-0.6,3.2-1.7,7.7-2.8,11.3c-1.3,4.3-2.5,7.3-4.6,12.2l-2.9-1.2c3-5.2,6-14.3,7.5-22.1c-0.8,0-1.3,0-2.8,0c-1.4,0-1.8,0-3.3-0.1
			c-0.1,0-0.2,0-0.2,0c-0.1,0-0.3,0-0.7,0V34.2z M238.4,48.8c-0.8,1-0.9,1.1-1.2,1.5c-0.6,0.8-1,1.9-1,2.8c0,2.4,2.4,3.7,7,3.7
			c3,0,6.6-0.6,8.8-1.4l0.3,3c-0.4,0.1-0.4,0.1-1.8,0.3c-2.7,0.5-5,0.7-7.1,0.7c-6.6,0-10-2-10-6c0-1.8,0.6-3,2.7-5.8L238.4,48.8z
			 M250.8,41.8c-1.9-0.2-3-0.3-4.7-0.3c-3.6,0-6.4,0.4-10,1.4l-0.3-2.7c4.6-1,7.2-1.3,10.6-1.3c0.8,0,1.4,0,4.4,0.1L250.8,41.8z"/>
	</g>
	<g>
		<path class="st0" d="M7.2,6.6c0.6-0.6,1-1,2.3-2c1.7-1.3,2.9-1.8,4.1-1.8c1.6,0,2.7,1,2.7,2.6c0,0.6-0.1,1.5-0.5,2.9
			c-0.7,2.9-0.8,3.7-0.8,4.3s0.3,1,0.8,1c0.4,0,0.9-0.4,1.3-1c0.5-0.7,0.9-1.5,1.1-2.2c0.4,1,0.7,1.4,1.3,2.3
			c-0.6,1-0.8,1.4-1.3,1.9c-0.8,0.9-1.8,1.4-2.9,1.4c-0.6,0-1.2-0.2-1.7-0.5c-0.7-0.5-1-1.3-1-2.4c0-1.1,0.1-1.6,0.8-4.8
			c0.3-1.2,0.4-2,0.4-2.4c0-0.5-0.3-0.7-0.8-0.7c-0.6,0-1.4,0.4-2.4,1c-1.4,1-2.8,2.3-3.5,3.1c0,0.9,0,1.4,0,1.9c0,0.2,0,0.2,0,2.3
			c0,2.4,0,2.5,0.1,3.2H4.8C4.9,16,4.9,16,4.9,13.7c0-2.1,0-2.1,0-2.6l0,0c-0.2,0.3-0.4,0.5-1.4,1.6c-0.4,0.5-0.7,0.8-0.9,1.1
			l-1.1-2.3C2,11.2,2.3,11,2.8,10.5C4.6,8.7,4.6,8.7,5,8.3C5,7.3,5,7.1,5,6.4c0-0.4,0-0.5,0-1C3,5.5,2.6,5.5,2.1,5.6L2,3.5
			c0.3,0,0.5,0,0.8,0c0.4,0,1.4-0.1,2.3-0.1c0-0.3,0-0.3,0-0.7c0-0.5,0-1.1,0-1.6c0-0.5,0-0.6-0.1-1.1l2.4,0
			C7.5,0.3,7.5,0.3,7.5,0.8c0,0.1,0,0.3-0.1,0.7c0,0.4,0,0.5-0.1,1.7c0,0,0.1,0,0.2-0.1l0.7,0.8C8.1,4.1,8,4.2,7.7,4.5
			C7.6,4.6,7.6,4.6,7.5,4.9C7.4,5,7.3,5,7.2,5.2l0,1.1C7.2,6.3,7.2,6.4,7.2,6.6L7.2,6.6z"/>
		<path class="st0" d="M24,1.6c-0.1,0.7-0.2,1.7-0.2,2.9c0,1.7,0.2,4,0.4,5.2c0.3,2,0.9,3.2,1.6,3.2c0.3,0,0.6-0.3,0.8-0.8
			c0.5-1,0.8-2.2,1-3.5c0.7,0.8,1,1.1,1.9,1.8c-1,3.8-2.1,5.3-3.8,5.3c-1.3,0-2.3-0.9-3.1-2.8c-0.8-1.9-1.1-4.7-1.2-10.1
			c0-0.7,0-0.8-0.1-1.2H24z M33.1,2.4c2.4,2.9,3.8,6.1,4.3,10.4L35,13.7c-0.1-1.8-0.6-3.8-1.2-5.6c-0.7-1.8-1.6-3.3-2.7-4.7
			L33.1,2.4z"/>
	</g>
	<polyline class="st1" points="95.3,20.7 132.4,20.7 132.4,26.6 	"/>
	<polyline class="st1" points="185.9,20.8 253.9,20.8 253.9,26.5 	"/>
</g>
</svg>
