<?xml version="1.0" encoding="utf-8"?>
<!-- Generator: Adobe Illustrator 19.2.1, SVG Export Plug-In . SVG Version: 6.00 Build 0)  -->
<svg version="1.1" id="圖層_1" xmlns="http://www.w3.org/2000/svg" xmlns:xlink="http://www.w3.org/1999/xlink" x="0px" y="0px"
	 viewBox="0 0 132.7 73.3" style="enable-background:new 0 0 132.7 73.3;" xml:space="preserve">
<style type="text/css">
	.st0{fill:url(#SVGID_1_);}
	.st1{fill:url(#SVGID_2_);}
	.st2{fill:url(#SVGID_3_);}
	.st3{fill:url(#SVGID_4_);}
	.st4{fill:url(#SVGID_5_);}
	.st5{fill:url(#SVGID_6_);}
	.st6{fill:url(#SVGID_7_);}
	.st7{fill:url(#SVGID_8_);}
	.st8{stroke:#000000;}
</style>
<g>
	<g>
		<linearGradient id="SVGID_1_" gradientUnits="userSpaceOnUse" x1="24.083" y1="0.6205" x2="24.083" y2="0.3426">
			<stop  offset="0" style="stop-color:#FFFFFF"/>
			<stop  offset="0.193" style="stop-color:#FFFDFD"/>
			<stop  offset="0.3929" style="stop-color:#FEF5F5"/>
			<stop  offset="0.5961" style="stop-color:#FCE6E7"/>
			<stop  offset="0.8002" style="stop-color:#F9D0D3"/>
			<stop  offset="1" style="stop-color:#F4B2BA"/>
		</linearGradient>
		<path class="st0" d="M24.3,0.6c0,0,0-0.2-0.1-0.3c-0.1,0-0.2,0-0.4,0.1c0,0,0.1,0,0.1,0C24.1,0.4,24.2,0.5,24.3,0.6z"/>
		<linearGradient id="SVGID_2_" gradientUnits="userSpaceOnUse" x1="28.3032" y1="56.597" x2="28.3032" y2="9.497">
			<stop  offset="0" style="stop-color:#FFFFFF"/>
			<stop  offset="0.193" style="stop-color:#FFFDFD"/>
			<stop  offset="0.3929" style="stop-color:#FEF5F5"/>
			<stop  offset="0.5961" style="stop-color:#FCE6E7"/>
			<stop  offset="0.8002" style="stop-color:#F9D0D3"/>
			<stop  offset="1" style="stop-color:#F4B2BA"/>
		</linearGradient>
		<path class="st1" d="M41.7,3.4l-0.5-0.1l0.1-0.1C41.1,3,40.9,3,40.8,2.9L40.7,3l-0.3-0.3c-0.5-0.2-1-0.4-1.5-0.6
			c0.2,0.1,0.3,0.2,0.5,0.4l0.9,0.9l-1.1,0.5c-0.5,0.3-0.8,0.3-1.2,0.2c-0.8-0.1-1.3-0.9-1.3-0.9l0.5-0.4l-0.3-0.6
			c0,0,0.7-0.5,1.5-0.4c0.1,0,0.2,0,0.2,0.1c-0.4-0.2-0.8-0.3-1.2-0.4l-0.2,0.3c0,0-0.3-0.2-0.5-0.5c-0.9-0.3-1.9-0.5-2.8-0.7
			c0,0.1,0.1,0.2,0,0.4c0,0.4-0.1,0.6-0.4,0.9l-0.6,0.8l-0.6-0.8C32,1.4,32,1.2,32,0.8c0-0.2,0.1-0.4,0.1-0.6C31,0.1,29.9,0,28.7,0
			l-0.1,0.6c0,0-0.8,0-1.3-0.5c0,0,0,0-0.1-0.1c-0.3,0-0.6,0-1,0.1c0,0.1,0,0.1-0.1,0.2c-0.4,0.7-1.1,0.9-1.1,0.9l-0.2-0.6l-0.6,0.1
			c0.2,0.2,0.3,0.5,0.3,0.5l-0.4,0.2l0.1,0.4l0.1-0.2c0,0,0.8,0.2,1.2,0.9c0.2,0.4,0.3,0.6,0.2,1.2l-0.2,1.2l-1.1-0.5
			c-0.5-0.3-0.7-0.4-0.9-0.8C23.2,2.8,23.5,2,23.5,2l0.7,0.1l0.2-0.4c-0.1,0-0.5,0.2-1-0.1c-0.3-0.1-0.4-0.2-0.6-0.6l-0.3-0.5
			c-0.1,0-0.2,0.1-0.4,0.1l0.3,0.6c0.2,0.3,0.2,0.5,0.2,0.8C22.5,2.7,22.1,3,22.1,3l-0.3-0.3l-0.4,0.2c0,0-0.3-0.4-0.3-1
			c0-0.3,0.1-0.4,0.4-0.7l0.4-0.5c-0.2,0-0.4,0.1-0.6,0.1l-0.1,0.1c-0.3,0.3-0.4,0.3-0.7,0.4c-0.2,0-0.5,0-0.6-0.1
			C8.4,4.9,0,15.6,0,28.3c0,15.6,12.7,28.3,28.3,28.3c15.6,0,28.3-12.7,28.3-28.3C56.6,17.5,50.6,8.1,41.7,3.4z M38.5,5.2
			c0.2-0.4,0.4-0.6,0.9-0.8l1.1-0.5l0.2,1.2c0.1,0.6,0,0.8-0.2,1.2c-0.4,0.7-1.2,0.9-1.2,0.9l-0.3-0.6l-0.7,0.1
			C38.4,6.8,38.1,6,38.5,5.2z M42.6,11.8c0,0-0.5,0.4-1.2,0.4c-0.4,0-0.6-0.1-0.9-0.4l-0.8-0.7l0.9-0.5c0.4-0.2,0.6-0.3,1-0.2
			c0.7,0.1,1.1,0.6,1.1,0.6l-0.4,0.4L42.6,11.8z M37.7,29.7c0,0-0.5,0.5-1.2,0.4c-0.4,0-0.6-0.1-0.9-0.4L34.8,29l0.9-0.5
			c0.4-0.2,0.6-0.3,1-0.2c0.7,0.1,1.1,0.6,1.1,0.6l-0.4,0.4L37.7,29.7z M22.2,12.2c0,0,0.4-0.6,1-0.7c0.4-0.1,0.6,0,1,0.2l0.9,0.4
			l-0.7,0.7c-0.3,0.3-0.5,0.4-0.9,0.5c-0.7,0.1-1.2-0.3-1.2-0.3l0.3-0.5L22.2,12.2z M28.2,13.9c0,0-0.6,0.2-1.2,0
			c-0.3-0.2-0.5-0.3-0.7-0.7l-0.5-0.9l1-0.2c0.5-0.1,0.7,0,1,0.1c0.6,0.3,0.8,0.9,0.8,0.9l-0.5,0.2L28.2,13.9z M27.3,20.7
			c0,0-0.1,0.7-0.6,1.1c-0.3,0.2-0.5,0.3-1,0.3h-1l0.3-1c0.1-0.5,0.3-0.6,0.6-0.8c0.5-0.4,1.2-0.3,1.2-0.3l0,0.5L27.3,20.7z
			 M26.8,24.5c0,0-0.7,0.1-1.2-0.3c-0.3-0.2-0.4-0.4-0.6-0.8l-0.3-1h1c0.5,0,0.7,0.1,1,0.3c0.5,0.4,0.6,1.1,0.6,1.1L26.7,24
			L26.8,24.5z M27.6,11.2c-0.3,0.3-0.4,0.4-0.9,0.5l-1,0.2l0.1-1c0.1-0.5,0.2-0.7,0.4-0.9c0.5-0.5,1.1-0.5,1.1-0.5l0.1,0.5l0.5,0
			C28,10,28.1,10.7,27.6,11.2z M25.9,13.3c0.2,0.4,0.2,0.6,0.2,1c-0.1,0.7-0.7,1.1-0.7,1.1L25,15l-0.5,0.3c0,0-0.4-0.5-0.3-1.2
			c0.1-0.4,0.1-0.6,0.5-0.9l0.7-0.7L25.9,13.3z M23,19.3l0.5,0.2l0.3-0.5c0,0,0.6,0.3,0.8,0.9c0.1,0.3,0.1,0.6,0,1l-0.3,1l-0.8-0.6
			c-0.4-0.3-0.5-0.5-0.6-0.8C22.6,19.9,23,19.3,23,19.3z M24.6,23.6c0.1,0.5,0.1,0.7,0,1c-0.2,0.6-0.8,0.9-0.8,0.9L23.5,25L23,25.2
			c0,0-0.3-0.6-0.1-1.2c0.1-0.3,0.2-0.5,0.6-0.8l0.8-0.6L24.6,23.6z M23,31.1l0.4,0.4l0.4-0.3c0,0,0.5,0.5,0.5,1.2
			c0,0.4-0.1,0.6-0.4,0.9L23.3,34l-0.6-0.8c-0.3-0.4-0.3-0.6-0.3-1C22.4,31.5,23,31.1,23,31.1z M23.5,34.7l1,0.3
			c0.4,0.2,0.6,0.3,0.8,0.6c0.4,0.6,0.2,1.2,0.2,1.2l-0.5-0.1l-0.2,0.5c0,0-0.7-0.1-1-0.7c-0.2-0.3-0.3-0.5-0.3-1L23.5,34.7z
			 M24.6,34.6l-0.9-0.3l0.6-0.8c0.3-0.4,0.5-0.5,0.8-0.6c0.7-0.2,1.2,0.2,1.2,0.2l-0.2,0.5l0.5,0.3c0,0-0.3,0.6-1,0.8
			C25.2,34.8,25,34.8,24.6,34.6z M26.5,30.3c0,0-0.7-0.3-0.9-1c-0.1-0.4-0.1-0.6,0-1.1l0.3-1l0.9,0.6c0.4,0.3,0.5,0.5,0.7,0.8
			c0.2,0.7-0.1,1.3-0.1,1.3l-0.5-0.2L26.5,30.3z M27.5,16.8c-0.7-0.1-1.1-0.8-1.1-0.8l0.5-0.4l-0.3-0.5c0,0,0.6-0.5,1.3-0.3
			c0.4,0.1,0.6,0.2,1,0.5l0.8,0.8l-1,0.5C28.1,16.9,27.9,16.9,27.5,16.8z M28,22.5l-0.1-0.4c0,0,0.5-0.3,1-0.1
			c0.3,0.1,0.4,0.2,0.6,0.5l0.5,0.7l-0.8,0.2c-0.4,0.1-0.5,0.1-0.8,0c-0.5-0.2-0.7-0.7-0.7-0.7L28,22.5z M28.7,19.6l-0.2-0.6
			l-0.6,0.1c0,0-0.3-0.7,0.1-1.4c0.2-0.4,0.3-0.5,0.8-0.8l1-0.5l0.2,1.1c0.1,0.5,0,0.7-0.2,1.1C29.5,19.5,28.7,19.6,28.7,19.6z
			 M29.9,15.8L29.2,15c-0.4-0.4-0.5-0.6-0.5-1c-0.1-0.7,0.4-1.3,0.4-1.3l0.5,0.3l0.4-0.4c0,0,0.6,0.4,0.7,1.2c0.1,0.4,0,0.6-0.2,1.1
			L29.9,15.8z M28.7,9.3c0,0,0.6-0.6,1.4-0.6c0.5,0,0.7,0.1,1.2,0.4l1,0.7l-1,0.7c-0.5,0.3-0.7,0.4-1.2,0.4c-0.8,0-1.4-0.6-1.4-0.6
			l0.4-0.5L28.7,9.3z M34.9,18.6l-0.6-0.8c-0.3-0.4-0.3-0.6-0.3-1c0-0.7,0.5-1.1,0.5-1.1L35,16l0.4-0.3c0,0,0.5,0.5,0.5,1.2
			c0,0.4-0.1,0.6-0.4,0.9L34.9,18.6z M35.1,19.2l0.9,0.3c0.4,0.2,0.6,0.3,0.8,0.6c0.4,0.6,0.2,1.2,0.2,1.2l-0.5,0l-0.2,0.5
			c0,0-0.7-0.1-1-0.7c-0.2-0.3-0.3-0.5-0.3-1L35.1,19.2z M35.7,12.7c0,0-0.8,0.2-1.5-0.3c-0.4-0.3-0.5-0.5-0.7-1l-0.4-1.2h1.2
			c0.6,0,0.8,0.1,1.2,0.4c0.7,0.5,0.8,1.3,0.8,1.3L35.7,12L35.7,12.7z M33.4,15.1c0,0-0.2,0.7-0.9,1c-0.4,0.2-0.6,0.2-1.1,0.1
			l-1.1-0.2l0.5-1c0.2-0.5,0.4-0.6,0.8-0.8c0.7-0.3,1.4-0.1,1.4-0.1l-0.1,0.6L33.4,15.1z M33,12.7c-0.3,0.8-1,1.1-1,1.1l-0.4-0.6
			L31,13.5c0,0-0.4-0.7-0.2-1.5c0.1-0.4,0.3-0.6,0.8-1l1-0.7l0.4,1.2C33.2,12,33.2,12.3,33,12.7z M31.4,16.7c0.5,0.1,0.7,0.2,1,0.5
			c0,0,0,0,0.1,0.1c0.2,0,0.5,0,0.7,0.1c0.3,0.1,0.5,0.2,0.8,0.6l0.6,0.8l-1,0.3c-0.5,0.1-0.7,0.1-1,0c-0.1,0-0.2-0.1-0.3-0.2l0,0.3
			c0,0-0.7,0-1.3-0.5c-0.3-0.3-0.4-0.5-0.5-1l-0.2-1.1L31.4,16.7z M31.7,22.1c0.5-0.2,1,0.1,1,0.1l-0.2,0.4l0.4,0.3
			c0,0-0.2,0.5-0.8,0.6c-0.3,0.1-0.5,0.1-0.8,0l-0.8-0.3l0.5-0.6C31.2,22.3,31.4,22.2,31.7,22.1z M32.3,27l0-0.5
			c0,0,0.7-0.1,1.2,0.4c0.3,0.2,0.4,0.4,0.5,0.9l0.2,1l-1-0.1c-0.5-0.1-0.7-0.1-0.9-0.4c-0.5-0.5-0.5-1.1-0.5-1.1L32.3,27z
			 M33.2,21.8l-0.1-0.5l-0.5,0c0,0-0.1-0.7,0.3-1.2c0.2-0.3,0.4-0.4,0.8-0.5l1-0.3l0,1c0,0.5-0.1,0.7-0.3,1
			C33.9,21.7,33.2,21.8,33.2,21.8z M34.5,26.6c0.3-0.6,0.9-0.8,0.9-0.8l0.2,0.5l0.5-0.1c0,0,0.3,0.6,0,1.2c-0.1,0.3-0.3,0.5-0.7,0.7
			l-0.9,0.5l-0.2-1C34.3,27.1,34.3,26.9,34.5,26.6z M37.2,19.2c-0.4,0.1-0.6,0.1-1-0.1l-1-0.3l0.6-0.8c0.3-0.4,0.5-0.5,0.8-0.6
			c0.7-0.2,1.2,0.2,1.2,0.2l-0.2,0.5l0.5,0.3C38.1,18.4,37.8,19.1,37.2,19.2z M38,15.3l0.3-0.2l-0.1-0.4c0,0,0.4-0.2,0.9-0.1
			c0.3,0.1,0.4,0.2,0.6,0.5l0.4,0.6L39.4,16c-0.3,0.1-0.5,0.1-0.7,0C38.2,15.8,38,15.3,38,15.3z M38.9,16.7c0.2-0.2,0.3-0.3,0.6-0.4
			l0.7-0.2l0,0.7c0,0.3-0.1,0.5-0.2,0.7c-0.3,0.4-0.8,0.4-0.8,0.4l-0.1-0.4l-0.4,0C38.7,17.5,38.6,17,38.9,16.7z M40,15
			c-0.2-0.3-0.2-0.4-0.2-0.7c0,0,0,0,0,0l-0.1,0.1c0,0-0.6-0.3-0.7-1c-0.1-0.4-0.1-0.6,0.1-1l0.4-0.9l0.7,0.7
			c0.4,0.3,0.4,0.5,0.5,0.9c0,0.2,0,0.4,0,0.5c0,0,0.3,0.4,0.3,0.8c0,0.3-0.1,0.4-0.3,0.7l-0.5,0.6L40,15z M41.1,9.5
			c-0.2,0.3-0.3,0.5-0.7,0.7l-0.9,0.5l-0.2-1c-0.1-0.5-0.1-0.7,0.1-1c0.3-0.6,0.9-0.8,0.9-0.8l0.2,0.5l0.5-0.1
			C41.2,8.2,41.4,8.9,41.1,9.5z M37.3,9.1l0-0.5c0,0,0.7-0.1,1.2,0.4c0.3,0.2,0.4,0.4,0.5,0.9l0.2,1l-1-0.1c-0.5,0-0.7-0.1-0.9-0.4
			c-0.5-0.5-0.5-1.1-0.5-1.1L37.3,9.1z M37.1,11.3c0.3-0.2,0.5-0.2,1-0.2l1,0.1l-0.4,0.9c-0.2,0.4-0.3,0.6-0.7,0.8
			c-0.6,0.3-1.2,0.1-1.2,0.1l0.1-0.5l-0.5-0.2C36.4,12.3,36.5,11.7,37.1,11.3z M35.5,9.2c-0.4,0.3-0.6,0.4-1.2,0.4h-1.2l0.4-1.2
			c0.2-0.6,0.3-0.8,0.7-1c0.7-0.5,1.5-0.3,1.5-0.3l0,0.7l0.7,0.2C36.3,7.9,36.2,8.7,35.5,9.2z M33.8,2.1c0.3-0.4,0.5-0.5,0.8-0.6
			c0.7-0.2,1.2,0.2,1.2,0.2l-0.2,0.5l0.5,0.3c0,0-0.3,0.6-1,0.8c-0.4,0.1-0.6,0.1-1-0.1l-1-0.3L33.8,2.1z M33.1,3.3L34,3.6
			c0.4,0.2,0.6,0.3,0.8,0.6C35.2,4.8,35,5.5,35,5.5l-0.5-0.1l-0.2,0.5c0,0-0.7-0.1-1-0.7C33.1,5,33,4.8,33,4.3L33.1,3.3z M33,7
			c0.1,0.4,0.2,0.7,0,1.2l-0.4,1.2l-1-0.7c-0.5-0.3-0.6-0.6-0.8-1C30.6,6.9,31,6.2,31,6.2l0.6,0.2L32,5.9C32,5.9,32.8,6.2,33,7z
			 M32.6,4.3c0,0.5-0.1,0.7-0.3,1c-0.4,0.5-1.1,0.6-1.1,0.6l-0.1-0.5l-0.5,0c0,0-0.1-0.7,0.3-1.2c0.2-0.3,0.4-0.4,0.8-0.5l1-0.3
			L32.6,4.3z M29.9,1.5c0,0,0.6-0.3,1.2-0.1c0.3,0.1,0.5,0.2,0.8,0.6l0.6,0.8l-1,0.3c-0.5,0.1-0.7,0.1-1,0c-0.6-0.2-0.9-0.9-0.9-0.9
			L30.1,2L29.9,1.5z M29.7,6.6l-0.6,0.3l0.2,0.7c0,0-0.8,0.3-1.5-0.1c-0.4-0.2-0.6-0.4-0.9-0.9l-0.6-1.1l1.2-0.2
			c0.6-0.1,0.8-0.1,1.2,0.1C29.4,5.8,29.7,6.6,29.7,6.6z M26.3,3.8c0.1-0.6,0.2-0.8,0.5-1.1c0.6-0.6,1.4-0.6,1.4-0.6l0.1,0.7L29,2.8
			c0,0,0.1,0.8-0.5,1.4c-0.3,0.3-0.5,0.5-1.1,0.6L26.1,5L26.3,3.8z M25.7,5.8l0.6,1.1c0.3,0.5,0.3,0.8,0.2,1.2
			c-0.1,0.8-0.8,1.3-0.8,1.3l-0.5-0.5l-0.5,0.3c0.2,0.1,0.4,0.3,0.5,0.5c0.2,0.3,0.2,0.5,0.2,1l-0.1,1l-0.9-0.4
			c-0.4-0.2-0.6-0.4-0.7-0.7c-0.3-0.6-0.1-1.2-0.1-1.2l0.5,0.1L24.3,9c0,0,0.2,0,0.4,0.2c-0.1-0.2-0.4-0.7-0.3-1.4
			c0.1-0.4,0.2-0.7,0.6-1.1L25.7,5.8z M23,4.7c0.4-0.1,0.7-0.1,1.2,0.2l1.1,0.5l-0.9,0.9c-0.4,0.4-0.6,0.5-1.1,0.6
			c-0.8,0.1-1.5-0.4-1.5-0.4L22.3,6l-0.5-0.4C21.7,5.5,22.2,4.8,23,4.7z M21.1,21.8c0,0,0.5-0.5,1.1-0.5c0.4,0,0.6,0.1,1,0.3
			l0.8,0.6l-0.8,0.6c-0.4,0.3-0.6,0.3-1,0.3c-0.7,0-1.1-0.5-1.1-0.5l0.3-0.4L21.1,21.8z M20.1,33.7l0.5-0.3l-0.2-0.5
			c0,0,0.6-0.3,1.2-0.1c0.3,0.1,0.5,0.2,0.8,0.6l0.6,0.8l-1,0.3c-0.5,0.1-0.7,0.1-1,0C20.3,34.3,20.1,33.7,20.1,33.7z M21.6,37.2
			l-0.1-0.5l-0.6,0c0,0-0.1-0.7,0.3-1.2c0.2-0.3,0.4-0.4,0.8-0.5l1-0.3l0,1c0,0.5-0.1,0.7-0.3,1C22.3,37.2,21.6,37.2,21.6,37.2z
			 M24.8,42.7c-0.3,0.6-1,0.9-1,0.9L23.6,43L23,43.1c0,0-0.3-0.7,0-1.3c0.2-0.3,0.3-0.5,0.7-0.8l0.9-0.5l0.2,1
			C25,42.1,25,42.3,24.8,42.7z M26.8,48.8l-0.5-0.3L26,49c0,0-0.6-0.3-0.8-1c-0.1-0.4-0.1-0.6,0.1-1.1l0.4-1l0.8,0.7
			c0.4,0.3,0.5,0.5,0.6,0.9C27.2,48.2,26.8,48.8,26.8,48.8z M28,41.2L27.5,41l-0.4,0.5c0,0-0.6-0.4-0.8-1.1
			c-0.1-0.4-0.1-0.6,0.1-1.1l0.4-1l0.8,0.7c0.4,0.3,0.5,0.5,0.6,0.9C28.4,40.7,28,41.2,28,41.2z M30,24.4c0,0.4-0.1,0.5-0.3,0.8
			c-0.3,0.4-0.9,0.5-0.9,0.5l-0.1-0.4l-0.4,0c0,0-0.1-0.5,0.2-1c0.2-0.2,0.3-0.3,0.7-0.4l0.8-0.2L30,24.4z M29.8,22.4
			c-0.2-0.3-0.3-0.5-0.2-0.8c0-0.5,0.4-0.9,0.4-0.9l0.3,0.3l0.4-0.3c0,0,0.4,0.4,0.4,0.9c0,0.3-0.1,0.5-0.3,0.8L30.2,23L29.8,22.4z
			 M30.6,25.2c-0.2-0.2-0.2-0.4-0.2-0.8l0-0.8l0.8,0.3c0.4,0.1,0.5,0.2,0.7,0.5c0.3,0.5,0.2,1,0.2,1l-0.4,0l-0.1,0.4
			C31.4,25.7,30.9,25.6,30.6,25.2z M33.1,30.8c-0.6,0.3-1.2,0.1-1.2,0.1l0.1-0.5l-0.5-0.2c0,0,0.1-0.7,0.7-1c0.3-0.2,0.5-0.2,1-0.2
			l1,0.1L33.7,30C33.5,30.5,33.4,30.6,33.1,30.8z M35.6,32l-0.5-0.3l-0.3,0.4c0,0-0.6-0.3-0.7-1c-0.1-0.4-0.1-0.6,0.1-1l0.4-0.9
			l0.8,0.7c0.4,0.3,0.4,0.5,0.5,0.9C36,31.5,35.6,32,35.6,32z M37.9,40.8l-0.5-0.4L37,40.8c0,0-0.5-0.5-0.6-1.2c0-0.4,0-0.6,0.3-1
			l0.6-0.9l0.7,0.8c0.3,0.4,0.4,0.6,0.4,1C38.4,40.3,37.9,40.8,37.9,40.8z M40.1,35.3l-0.6-0.1l-0.2,0.5c0,0-0.7-0.1-1.1-0.7
			C38,34.7,38,34.5,38,34l0.1-1.1l1,0.4c0.5,0.2,0.6,0.3,0.8,0.7C40.3,34.6,40.1,35.3,40.1,35.3z M40.8,22l-0.5-0.4L39.9,22
			c0,0-0.5-0.5-0.6-1.2c0-0.4,0-0.6,0.3-1l0.6-0.9l0.6,0.8c0.3,0.4,0.4,0.6,0.4,1C41.3,21.5,40.8,22,40.8,22z M42,17.7l-0.4,0
			L41.5,18c0,0-0.5-0.1-0.8-0.5c-0.1-0.2-0.2-0.4-0.2-0.7l0-0.7l0.7,0.3c0.3,0.1,0.4,0.2,0.6,0.4C42.1,17.2,42,17.7,42,17.7z
			 M42.1,16.1c-0.3,0.1-0.4,0.1-0.7,0l-0.7-0.3l0.5-0.6c0.2-0.3,0.3-0.4,0.6-0.4c0.5-0.1,0.9,0.1,0.9,0.1l-0.2,0.4l0.3,0.2
			C42.8,15.5,42.5,15.9,42.1,16.1z M43.9,6l-0.7,0.1l-0.1,0.7c0,0-0.8,0-1.4-0.6c-0.3-0.3-0.4-0.5-0.5-1.1l-0.2-1.2L42.3,4
			c0.6,0.1,0.8,0.2,1.1,0.6C44,5.2,43.9,6,43.9,6z"/>
	</g>
	
		<linearGradient id="SVGID_3_" gradientUnits="userSpaceOnUse" x1="-523.4958" y1="520.9756" x2="-523.4958" y2="504.4334" gradientTransform="matrix(0.9119 -0.4105 0.4105 0.9119 322.5052 -628.2454)">
		<stop  offset="0" style="stop-color:#FFFFFF"/>
		<stop  offset="0.193" style="stop-color:#FFFDFD"/>
		<stop  offset="0.3929" style="stop-color:#FEF5F5"/>
		<stop  offset="0.5961" style="stop-color:#FCE6E7"/>
		<stop  offset="0.8002" style="stop-color:#F9D0D3"/>
		<stop  offset="1" style="stop-color:#F4B2BA"/>
	</linearGradient>
	<path class="st2" d="M53.2,49.2l1.6,0.8c0.7,0.4,1,0.7,1.3,1.2c0.5,1.1,0.1,2.2,0.1,2.2l-0.9-0.2l-0.4,0.9c0,0-1.1-0.3-1.7-1.4
		c-0.3-0.6-0.4-0.9-0.2-1.8L53.2,49.2z"/>
	
		<linearGradient id="SVGID_4_" gradientUnits="userSpaceOnUse" x1="-467.4479" y1="567.3276" x2="-467.4479" y2="550.7881" gradientTransform="matrix(0.9119 -0.4105 0.4105 0.9119 322.5052 -628.2454)">
		<stop  offset="0" style="stop-color:#FFFFFF"/>
		<stop  offset="0.193" style="stop-color:#FFFDFD"/>
		<stop  offset="0.3929" style="stop-color:#FEF5F5"/>
		<stop  offset="0.5961" style="stop-color:#FCE6E7"/>
		<stop  offset="0.8002" style="stop-color:#F9D0D3"/>
		<stop  offset="1" style="stop-color:#F4B2BA"/>
	</linearGradient>
	<path class="st3" d="M123.4,68.4l1.6,0.8c0.7,0.4,1,0.7,1.3,1.2c0.5,1.1,0.1,2.2,0.1,2.2l-0.9-0.2l-0.4,0.9c0,0-1.1-0.3-1.7-1.4
		c-0.3-0.6-0.4-0.9-0.2-1.8L123.4,68.4z"/>
	
		<linearGradient id="SVGID_5_" gradientUnits="userSpaceOnUse" x1="-1900.144" y1="567.7005" x2="-1900.144" y2="551.1624" gradientTransform="matrix(0.3361 -0.9418 0.9418 0.3361 143.7873 -1929.2985)">
		<stop  offset="0" style="stop-color:#FFFFFF"/>
		<stop  offset="0.193" style="stop-color:#FFFDFD"/>
		<stop  offset="0.3929" style="stop-color:#FEF5F5"/>
		<stop  offset="0.5961" style="stop-color:#FCE6E7"/>
		<stop  offset="0.8002" style="stop-color:#F9D0D3"/>
		<stop  offset="1" style="stop-color:#F4B2BA"/>
	</linearGradient>
	<path class="st4" d="M26.8,46.5l1.7-0.6c0.8-0.3,1.2-0.2,1.8,0c1.1,0.4,1.6,1.4,1.6,1.4L31,47.9l0.4,0.9c0,0-1,0.6-2.2,0.2
		c-0.6-0.2-0.9-0.4-1.4-1.1L26.8,46.5z"/>
	
		<linearGradient id="SVGID_6_" gradientUnits="userSpaceOnUse" x1="-2093.262" y1="495.2148" x2="-2093.262" y2="484.6344" gradientTransform="matrix(0.2167 -0.9762 0.9762 0.2167 34.7875 -2104.4321)">
		<stop  offset="0" style="stop-color:#FFFFFF"/>
		<stop  offset="0.193" style="stop-color:#FFFDFD"/>
		<stop  offset="0.3929" style="stop-color:#FEF5F5"/>
		<stop  offset="0.5961" style="stop-color:#FCE6E7"/>
		<stop  offset="0.8002" style="stop-color:#F9D0D3"/>
		<stop  offset="1" style="stop-color:#F4B2BA"/>
	</linearGradient>
	<path class="st5" d="M56,44.5l1-0.5c0.5-0.2,0.7-0.2,1.1-0.2c0.7,0.1,1.1,0.8,1.1,0.8L58.8,45l0.3,0.5c0,0-0.6,0.5-1.4,0.3
		c-0.4-0.1-0.6-0.2-1-0.6L56,44.5z"/>
	
		<linearGradient id="SVGID_7_" gradientUnits="userSpaceOnUse" x1="-2089.6196" y1="557.0345" x2="-2089.6196" y2="546.4507" gradientTransform="matrix(0.2167 -0.9762 0.9762 0.2167 34.7875 -2104.4321)">
		<stop  offset="0" style="stop-color:#FFFFFF"/>
		<stop  offset="0.193" style="stop-color:#FFFDFD"/>
		<stop  offset="0.3929" style="stop-color:#FEF5F5"/>
		<stop  offset="0.5961" style="stop-color:#FCE6E7"/>
		<stop  offset="0.8002" style="stop-color:#F9D0D3"/>
		<stop  offset="1" style="stop-color:#F4B2BA"/>
	</linearGradient>
	<path class="st6" d="M117.1,54.3l1-0.5c0.5-0.2,0.7-0.2,1.1-0.2c0.7,0.1,1.1,0.8,1.1,0.8l-0.5,0.4l0.3,0.5c0,0-0.6,0.5-1.4,0.3
		c-0.4-0.1-0.6-0.2-1-0.6L117.1,54.3z"/>
	
		<linearGradient id="SVGID_8_" gradientUnits="userSpaceOnUse" x1="-2068.791" y1="541.6868" x2="-2068.791" y2="531.1033" gradientTransform="matrix(0.2167 -0.9762 0.9762 0.2167 34.7875 -2104.4321)">
		<stop  offset="0" style="stop-color:#FFFFFF"/>
		<stop  offset="0.193" style="stop-color:#FFFDFD"/>
		<stop  offset="0.3929" style="stop-color:#FEF5F5"/>
		<stop  offset="0.5961" style="stop-color:#FCE6E7"/>
		<stop  offset="0.8002" style="stop-color:#F9D0D3"/>
		<stop  offset="1" style="stop-color:#F4B2BA"/>
	</linearGradient>
	<path class="st7" d="M106.6,30.7l1-0.5c0.5-0.2,0.7-0.2,1.1-0.2c0.7,0.1,1.1,0.8,1.1,0.8l-0.5,0.4l0.3,0.5c0,0-0.6,0.5-1.4,0.3
		c-0.4-0.1-0.6-0.2-1-0.6L106.6,30.7z"/>
	<g>
		<path d="M74.3,49.8l0.2-0.1c0.2,0.3,0.4,0.5,0.6,0.5c0.1,0,0.2,0,0.3-0.1c0.1,0,0.2-0.1,0.2-0.2c0-0.1,0.1-0.2,0.1-0.2
			c0-0.1,0-0.2-0.1-0.3c-0.1-0.1-0.3-0.3-0.5-0.5c-0.2-0.2-0.4-0.3-0.5-0.4c-0.1-0.1-0.2-0.3-0.2-0.4c0-0.1,0-0.2,0.1-0.3
			c0.1-0.1,0.1-0.2,0.3-0.2c0.1-0.1,0.2-0.1,0.4-0.1c0.1,0,0.3,0,0.4,0.1c0.1,0.1,0.2,0.2,0.4,0.4l-0.2,0.2
			c-0.1-0.1-0.2-0.2-0.3-0.3c-0.1,0-0.2-0.1-0.2-0.1c-0.1,0-0.2,0-0.3,0.1c-0.1,0.1-0.1,0.2-0.1,0.3c0,0.1,0,0.1,0,0.2
			c0,0.1,0.1,0.1,0.1,0.2c0,0,0.2,0.1,0.4,0.3c0.3,0.2,0.4,0.3,0.5,0.5c0.1,0.1,0.1,0.3,0.1,0.4c0,0.2-0.1,0.4-0.2,0.5
			c-0.2,0.2-0.4,0.2-0.6,0.2c-0.2,0-0.3,0-0.5-0.1C74.5,50.2,74.4,50.1,74.3,49.8z"/>
		<path d="M76.6,47.4h0.3v1.2c0.1-0.1,0.2-0.3,0.4-0.3c0.1-0.1,0.3-0.1,0.4-0.1c0.2,0,0.3,0,0.4,0.1c0.1,0.1,0.2,0.2,0.3,0.3
			c0.1,0.1,0.1,0.4,0.1,0.6v1.1h-0.3v-1c0-0.2,0-0.4,0-0.5c0-0.1-0.1-0.2-0.2-0.3c-0.1-0.1-0.2-0.1-0.4-0.1c-0.2,0-0.3,0.1-0.4,0.2
			c-0.1,0.1-0.2,0.2-0.3,0.4c0,0.1,0,0.3,0,0.6v0.8h-0.3V47.4z"/>
		<path d="M79.1,47.3c0.1,0,0.1,0,0.2,0.1c0,0,0.1,0.1,0.1,0.2c0,0.1,0,0.1-0.1,0.2c0,0-0.1,0.1-0.2,0.1c-0.1,0-0.1,0-0.2-0.1
			c0,0-0.1-0.1-0.1-0.2c0-0.1,0-0.1,0.1-0.2C79,47.4,79.1,47.3,79.1,47.3z M79,48.2h0.3v2.2H79V48.2z"/>
		<path d="M81,47.5l0.3,0v1.1l1.2-1.1l0.4,0l-1.4,1.3l1.5,1.6h-0.4L81.3,49v1.3H81V47.5z"/>
		<path d="M83.5,47.3c0.1,0,0.1,0,0.2,0.1c0,0,0.1,0.1,0.1,0.2c0,0.1,0,0.1-0.1,0.2c0,0-0.1,0.1-0.2,0.1c-0.1,0-0.1,0-0.2-0.1
			c0,0-0.1-0.1-0.1-0.2c0-0.1,0-0.1,0.1-0.2C83.3,47.4,83.4,47.3,83.5,47.3z M83.3,48.2h0.3v2.2h-0.3V48.2z"/>
		<path d="M74.6,54.4v-2.9l0.1,0l1.9,2.2v-2.2l0.3,0v2.9h-0.1l-1.9-2.2v2.2H74.6z"/>
		<path d="M77.6,51.3c0.1,0,0.1,0,0.2,0.1c0,0,0.1,0.1,0.1,0.2c0,0.1,0,0.1-0.1,0.2c0,0-0.1,0.1-0.2,0.1c-0.1,0-0.1,0-0.2-0.1
			c0,0-0.1-0.1-0.1-0.2c0-0.1,0-0.1,0.1-0.2C77.5,51.4,77.6,51.3,77.6,51.3z M77.5,52.2h0.3v2.2h-0.3V52.2z"/>
		<path d="M78.4,51.4h0.3v1.2c0.1-0.1,0.2-0.3,0.4-0.3c0.1-0.1,0.3-0.1,0.4-0.1c0.2,0,0.3,0,0.4,0.1c0.1,0.1,0.2,0.2,0.3,0.3
			c0.1,0.1,0.1,0.4,0.1,0.6v1.1H80v-1c0-0.2,0-0.4,0-0.5c0-0.1-0.1-0.2-0.2-0.3c-0.1-0.1-0.2-0.1-0.4-0.1c-0.2,0-0.3,0.1-0.4,0.2
			c-0.1,0.1-0.2,0.2-0.3,0.4c0,0.1,0,0.3,0,0.6v0.8h-0.3V51.4z"/>
		<path d="M81.8,52.2c0.3,0,0.6,0.1,0.8,0.4c0.2,0.2,0.3,0.5,0.3,0.8c0,0.3-0.1,0.6-0.3,0.8c-0.2,0.2-0.5,0.3-0.8,0.3
			c-0.3,0-0.6-0.1-0.8-0.3c-0.2-0.2-0.3-0.5-0.3-0.8c0-0.3,0.1-0.6,0.3-0.8C81.2,52.3,81.5,52.2,81.8,52.2z M81.8,52.4
			c-0.2,0-0.4,0.1-0.6,0.3c-0.2,0.2-0.2,0.4-0.2,0.6c0,0.2,0,0.3,0.1,0.4c0.1,0.1,0.2,0.2,0.3,0.3c0.1,0.1,0.3,0.1,0.4,0.1
			c0.2,0,0.3,0,0.4-0.1c0.1-0.1,0.2-0.2,0.3-0.3c0.1-0.1,0.1-0.3,0.1-0.4c0-0.2-0.1-0.4-0.2-0.6S82.1,52.4,81.8,52.4z"/>
		<path d="M83.5,52.2h0.3v0.4c0.1-0.1,0.2-0.3,0.4-0.3c0.1-0.1,0.3-0.1,0.4-0.1c0.2,0,0.3,0,0.4,0.1c0.1,0.1,0.2,0.2,0.3,0.3
			c0.1,0.1,0.1,0.4,0.1,0.6v1.1h-0.3v-1c0-0.2,0-0.4,0-0.5c0-0.1-0.1-0.2-0.2-0.3c-0.1-0.1-0.2-0.1-0.4-0.1c-0.2,0-0.3,0.1-0.5,0.2
			c-0.1,0.1-0.2,0.2-0.3,0.4c0,0.1,0,0.3,0,0.6v0.8h-0.3V52.2z"/>
		<path d="M87.8,52.2h0.3v1.7c0,0.3,0,0.5-0.1,0.7c-0.1,0.2-0.2,0.3-0.4,0.5c-0.2,0.1-0.4,0.2-0.6,0.2c-0.2,0-0.4,0-0.5-0.1
			c-0.1-0.1-0.3-0.1-0.4-0.2c-0.1-0.1-0.2-0.2-0.3-0.4h0.3c0.1,0.1,0.2,0.2,0.3,0.3c0.1,0.1,0.3,0.1,0.5,0.1c0.2,0,0.3,0,0.5-0.1
			c0.1-0.1,0.2-0.2,0.3-0.3c0.1-0.1,0.1-0.3,0.1-0.5V54c-0.1,0.1-0.2,0.2-0.4,0.3c-0.2,0.1-0.3,0.1-0.5,0.1c-0.2,0-0.4,0-0.6-0.1
			c-0.2-0.1-0.3-0.2-0.4-0.4c-0.1-0.2-0.1-0.3-0.1-0.5c0-0.2,0-0.4,0.1-0.6c0.1-0.2,0.2-0.3,0.4-0.4c0.2-0.1,0.4-0.2,0.6-0.2
			c0.2,0,0.3,0,0.5,0.1c0.1,0.1,0.3,0.2,0.4,0.3V52.2z M87,52.4c-0.2,0-0.3,0-0.4,0.1c-0.1,0.1-0.2,0.2-0.3,0.3
			c-0.1,0.1-0.1,0.3-0.1,0.4c0,0.2,0.1,0.4,0.2,0.6c0.2,0.2,0.4,0.2,0.6,0.2c0.3,0,0.5-0.1,0.6-0.2c0.2-0.2,0.2-0.4,0.2-0.6
			c0-0.2,0-0.3-0.1-0.4c-0.1-0.1-0.2-0.2-0.3-0.3C87.3,52.5,87.1,52.4,87,52.4z"/>
		<path d="M89.7,52.2c0.3,0,0.6,0.1,0.8,0.4c0.2,0.2,0.3,0.5,0.3,0.8c0,0.3-0.1,0.6-0.3,0.8c-0.2,0.2-0.5,0.3-0.8,0.3
			c-0.3,0-0.6-0.1-0.8-0.3c-0.2-0.2-0.3-0.5-0.3-0.8c0-0.3,0.1-0.6,0.3-0.8C89.1,52.3,89.4,52.2,89.7,52.2z M89.7,52.4
			c-0.2,0-0.4,0.1-0.6,0.3c-0.2,0.2-0.2,0.4-0.2,0.6c0,0.2,0,0.3,0.1,0.4c0.1,0.1,0.2,0.2,0.3,0.3c0.1,0.1,0.3,0.1,0.4,0.1
			c0.2,0,0.3,0,0.4-0.1c0.1-0.1,0.2-0.2,0.3-0.3c0.1-0.1,0.1-0.3,0.1-0.4c0-0.2-0.1-0.4-0.2-0.6C90.1,52.5,89.9,52.4,89.7,52.4z"/>
	</g>
	<g>
		<path d="M52.8,43.7C52.8,43.7,52.8,43.7,52.8,43.7C52.8,43.7,52.8,43.7,52.8,43.7z"/>
		<path d="M54.7,36.5c0.1-0.1-0.1-0.1-0.1-0.1c0-0.1-0.2,0-0.2-0.1c0-0.1-0.2-0.1-0.3-0.1C54,36.2,54,36.1,54,36
			c-0.1,0-0.2,0.1-0.2,0c0-0.1,0-0.1,0-0.1c-0.2-0.1,0.1-0.2,0.1-0.3c-0.1-0.2-0.2-0.1-0.3-0.2c-0.1-0.2-0.2,0.1-0.4,0.1
			c-0.1-0.1-0.1,0.1-0.2,0c-0.1,0-0.1-0.1-0.1-0.2c-0.1-0.1,0-0.2,0-0.3c0,0-0.1-0.1-0.2,0v0.1c-0.1,0.1-0.1,0.3-0.2,0.3
			c-0.1,0-0.1-0.2-0.1-0.2c0.1-0.1-0.1-0.1-0.1-0.2c-0.2,0-0.2-0.2-0.3-0.2c-0.1-0.1-0.2-0.1-0.3-0.2c-0.2,0.1-0.3-0.3-0.5-0.2
			c-0.2,0.1-0.3,0-0.5-0.1c-0.1-0.1-0.2,0-0.3-0.1c-0.1,0.1-0.2-0.1-0.4-0.1c-0.1,0-0.1-0.2-0.1-0.2c-0.1,0.1-0.2-0.1-0.3-0.1
			c-0.1,0-0.1,0.1-0.1,0.1c-0.2,0-0.4,0.1-0.6,0c-0.1,0-0.1-0.1-0.1-0.2c0-0.1-0.1-0.1-0.1-0.1c-0.1,0-0.1,0.1-0.2,0.1
			c-0.1,0-0.3,0.2-0.4,0c0-0.1,0-0.2-0.1-0.2c-0.1,0.1-0.1,0.2,0,0.2c0,0.2-0.2,0.1-0.2,0.3c-0.1,0.1-0.2,0.1-0.3,0.1
			c-0.1,0.1-0.1,0.2-0.2,0.2c-0.1,0-0.2-0.1-0.2-0.2c-0.1,0-0.2,0.1-0.2,0.1c-0.1,0.1-0.2-0.1-0.3,0.1c-0.2,0-0.3,0.1-0.4,0.1
			c-0.1-0.1-0.2,0-0.3,0c-0.1-0.1-0.2-0.1-0.3-0.1c-0.1,0.1-0.1,0.2-0.2,0.3c0,0.1-0.1,0.2,0,0.2c0.1,0,0.1,0,0.2,0
			c0.1,0.1,0.2,0.2,0.3,0.3c0,0.1-0.1,0.1-0.1,0.1c-0.2-0.1-0.4-0.2-0.5-0.3c-0.1-0.1,0-0.3-0.1-0.3c-0.1,0-0.1,0-0.1,0
			c-0.2,0.2-0.5,0-0.6,0.2c-0.1,0-0.2,0-0.3,0c-0.1,0-0.2,0.1-0.2,0.2c-0.1,0.1,0.1,0.1,0.1,0.2c0,0-0.1,0.1-0.1,0.1
			c-0.1-0.1-0.3,0-0.4,0c-0.2,0.1-0.4,0.1-0.6,0.3c-0.1,0-0.1-0.1-0.1-0.1c0.1-0.2,0-0.3-0.1-0.4c-0.1,0-0.1-0.2-0.2-0.1
			c0,0.1-0.2,0.3-0.1,0.4c0.1,0.1,0.1,0.2,0.1,0.2c-0.1,0.1-0.2,0.2-0.3,0.3c-0.2,0-0.3,0.1-0.4,0.2c-0.2-0.1-0.3-0.2-0.5-0.1
			l-0.1,0.2c0,0-0.1,0-0.1,0c-0.1-0.1,0-0.1,0-0.2c-0.1,0-0.1-0.2-0.2-0.2c-0.1,0-0.1,0.1-0.1,0.2c0,0.1-0.2,0.1-0.3,0.1
			c-0.1,0-0.1-0.1-0.1-0.1c-0.1,0.2-0.2-0.1-0.3,0.1c-0.1-0.1-0.1,0.1-0.1,0.1c0,0,0,0-0.1,0c-0.1-0.1-0.2,0-0.2,0.1
			c-0.1,0-0.1,0-0.2,0c-0.1,0-0.2,0-0.2,0.1c0,0.1,0,0.1,0.1,0.2c0,0.1,0,0.1,0,0.1c-0.1,0-0.1,0-0.1,0v0.1c-0.1,0.1-0.2,0-0.3,0.1
			c0,0.1-0.2,0.2-0.1,0.3c0,0.1-0.1,0-0.2,0.1c-0.1,0-0.2,0.1-0.3,0c-0.2,0.1-0.3-0.1-0.4-0.1c-0.1,0.1-0.3,0-0.5,0
			c-0.2,0-0.3,0-0.5,0c-0.1-0.1-0.1-0.1-0.2-0.1c-0.1,0.1-0.2,0-0.2-0.1c-0.1,0-0.2,0.2-0.2,0.2c0,0.2-0.2-0.1-0.2,0.1
			c0,0.2-0.2,0.3-0.4,0.4c0,0.1-0.1,0.1-0.1,0.2h0.1c0.2,0,0.2,0.2,0.4,0.2c0.2,0,0.3,0,0.4,0c0.2,0.1,0.4,0.2,0.6,0.2
			c0.1,0.1,0.3,0,0.4,0v0c0,0,0,0,0,0.1c0.1,0.1,0,0.1,0,0.2c-0.1,0.1-0.1,0-0.2-0.1c-0.1,0-0.1,0.1-0.2,0.1c-0.1,0-0.1,0.2-0.2,0.2
			c0,0,0,0.1,0.1,0.1c0.1,0,0.2,0,0.3,0c0.1,0.1,0,0.2,0.1,0.2c0.1,0,0.1-0.1,0.2-0.1c0.1-0.1,0-0.2,0-0.3c0.1-0.1,0.3-0.1,0.4-0.1
			c0.2-0.1,0.3,0.1,0.5,0c0.1-0.1,0-0.1-0.1-0.1c0,0,0-0.1,0-0.1c0.1-0.1,0.1,0,0.2,0.1c0.1,0,0.2-0.2,0.3-0.1
			c0.1,0,0.1-0.1,0.1-0.1c-0.2,0.1-0.3,0.1-0.4-0.1c0-0.2,0.2-0.1,0.3-0.2c0.1,0,0.1,0.1,0.1,0.2c0.1,0,0.2,0,0.3,0
			c0.1,0,0-0.1,0.1-0.1c0.2,0,0.2,0.2,0.4,0.2c0.1-0.1,0.3-0.1,0.3-0.2c0-0.1,0.1,0,0.1,0c0.1,0,0,0.1,0,0.1c0.1,0.1,0,0.3,0.1,0.3
			c0.1-0.1,0.2-0.1,0.3-0.1c0.1,0,0.1,0,0.2-0.1c-0.1-0.2-0.3-0.3-0.2-0.5c0-0.1-0.2-0.2-0.1-0.3c0.1,0,0.2-0.2,0.3,0
			c0,0.1,0,0.1,0,0.1c-0.2,0.3,0.3,0,0.3,0.2c0.1,0.1,0.2,0,0.3-0.1c0-0.1,0.1-0.2,0.1-0.2c0-0.1-0.2-0.1-0.2-0.2
			c-0.1-0.2,0.2-0.2,0.2-0.3c0-0.1,0-0.1,0-0.2c0.1-0.2,0.3-0.1,0.5-0.2c0-0.1,0-0.1,0-0.2c0-0.1,0.1-0.1,0.1-0.1
			c0.2,0,0.3-0.2,0.5,0c0,0.2-0.2,0.1-0.2,0.3c-0.1,0.1-0.2,0.2-0.3,0.3c-0.1,0.1-0.2,0.1-0.3,0.2c0,0.1,0.1,0,0.1,0.1
			c0.2,0,0,0.2,0.1,0.2c0.2,0.1,0.3-0.1,0.4-0.2c0-0.1,0.2-0.2,0.3-0.3c0.1-0.1,0.2-0.3,0.3-0.4c0.1-0.1,0.2,0,0.2,0.1
			c0.2,0,0.5,0.1,0.7,0c0.2,0,0.3-0.1,0.4,0c0.2,0,0-0.2,0.1-0.2c0.1,0,0.1,0,0.2,0.1c0.1,0.1,0,0.1,0,0.2c0.2,0.1,0.1-0.1,0.2-0.2
			c0.1,0,0.1,0,0.2,0.1l0-0.3c0-0.1,0.1-0.1,0.1-0.1c0,0,0.1,0.1,0.1,0.1c0.1,0.1,0.1,0.2,0.2,0.3l0,0c0.1-0.1,0-0.1-0.1-0.2
			c0-0.1,0-0.1,0.1-0.2c0.2,0,0.2-0.1,0.3-0.2c0.2,0.1,0.3-0.1,0.4,0c0.1,0,0.1-0.2,0.2-0.2c0.1,0,0.1,0,0.2,0.1
			c0.1,0,0.1,0.1,0.2,0.1c0.1-0.1,0.2-0.1,0.2-0.2c0.2-0.2,0.5-0.2,0.8-0.2c0.1,0.1,0.2,0.2,0.3,0.3c0.1,0.1,0.2,0.1,0.3,0.2
			c0.1-0.2-0.2-0.1-0.2-0.3c0-0.1,0-0.2,0-0.3c0.1-0.1,0.1,0,0.2,0c0.1-0.1,0-0.2,0.1-0.3c0,0,0,0,0.1,0c0.1,0.1,0.1,0.2,0.1,0.3
			c0.1,0.1,0.2,0,0.3,0.2c0,0,0.1,0,0.1,0c0.1-0.3,0.3-0.1,0.5-0.2c0.1,0.1,0.3,0,0.4,0.1c0.1-0.1,0.3,0.1,0.4,0
			c0.1,0.1,0.2,0,0.4,0c0.1,0.1,0.2,0,0.3,0.1c0.1,0,0.2-0.1,0.2-0.1c0.1,0,0.1,0.1,0.2,0.1c0.1,0.1,0.2,0.3,0.4,0.2
			c0.1,0.1,0.2,0,0.3,0c0.2,0.1,0.2,0.3,0.4,0.5h0.1c0.1,0,0.1,0.1,0.1,0.1c0.1,0.1,0.1-0.1,0.2-0.2c0.1-0.1,0.2,0.1,0.3,0.1
			c0,0.1,0.1,0.1,0.2,0.2c0,0,0,0.1,0,0.1c0.1,0.1,0.2-0.1,0.3,0.1c-0.1,0.2,0.3,0.3,0.3,0.5c0,0.1-0.1,0.1-0.1,0.1
			c-0.1,0.1,0.1,0.2,0.1,0.3c-0.1,0.1-0.1,0.2-0.1,0.3C53,38.3,53,38.6,53,38.8c0.1,0.1,0.1,0.1,0.1,0.1C53.1,39,53,39,53,39
			c0,0.1,0,0.2,0,0.3c0,0.2-0.1,0.5-0.1,0.7c0.1,0,0.2-0.2,0.3-0.1c0,0.1,0,0.1,0,0.2c0.1,0.1,0,0.2,0,0.2c0,0-0.1,0-0.1,0
			c-0.1,0-0.1,0.1-0.2,0.1c0,0.1,0,0.1,0,0.1c-0.2,0,0,0.2-0.1,0.2c-0.1,0-0.2,0.1-0.3,0c0,0.1,0,0.2,0,0.2c0,0.1-0.1,0-0.2,0
			c0,0.2,0.2,0.1,0.2,0.3c0,0.1,0,0.1,0,0.1c-0.1,0.1,0,0.2-0.1,0.3c0.1,0.1,0.2-0.1,0.3,0c0.1,0.1,0,0.2,0,0.3
			c0,0.1-0.1,0.2-0.2,0.1c-0.2,0,0,0.2-0.1,0.2c-0.1,0-0.1,0-0.1,0c0-0.1,0-0.2,0.1-0.2c0.2-0.2-0.3-0.2-0.2-0.5
			c-0.1,0-0.2,0-0.2-0.1c-0.2,0.1,0.1,0.2,0,0.3c0,0.1,0.1,0.1,0.2,0.1c0.1,0,0.2,0.1,0.2,0.1c0,0.1-0.2,0.2-0.3,0.2
			c-0.3-0.1,0,0.2-0.2,0.2c0,0-0.1-0.1-0.1-0.1c-0.1,0.1-0.1,0.1-0.2,0.2c0.1,0.1-0.1,0.2,0,0.2c0,0.1-0.1,0.1-0.1,0.1
			c-0.1,0,0,0.1,0,0.1c0.1,0.2,0.2,0,0.3,0c0.2-0.1,0.5,0.1,0.7,0c0.1,0,0.1,0.2,0.1,0.3c0,0.2-0.3,0.1-0.4,0.2
			c-0.1,0-0.2,0-0.2,0.1c-0.1,0-0.1-0.1-0.2-0.1c-0.1,0.1,0,0.3-0.1,0.4c-0.1,0.1-0.2,0-0.3,0c-0.2,0-0.1-0.2-0.2-0.3
			c-0.1-0.1,0.1-0.1,0-0.3c-0.2-0.2-0.3,0.1-0.5,0c-0.1,0.2,0.1,0.2,0.2,0.2c0,0.1,0.1,0.2,0,0.3c-0.1,0-0.2,0-0.2-0.1
			c-0.1,0-0.1,0.1-0.1,0c-0.2-0.1-0.1-0.2-0.1-0.3c-0.1-0.1-0.3-0.1-0.4-0.1c0,0.1,0,0.1,0,0.2c0,0.1-0.2,0.1-0.2,0.1
			c-0.1,0-0.2,0.1-0.3,0.1c-0.1,0-0.1,0-0.1,0.1c-0.1,0-0.2,0.1-0.3,0.1c0-0.1-0.1,0-0.2-0.1c-0.2,0,0-0.2-0.1-0.2
			c0,0.1-0.1,0.1-0.1,0.2c-0.1,0-0.2,0-0.3,0c-0.2,0.1-0.3,0-0.5,0.2c-0.1,0.1-0.2-0.1-0.3-0.1c-0.1,0,0-0.1-0.1-0.2
			c-0.1,0-0.1,0-0.2,0c-0.1,0.2-0.3,0-0.4,0.1c-0.1,0-0.2-0.1-0.2-0.2c-0.1-0.1-0.1,0.1-0.2,0.1c-0.2,0.1-0.2-0.2-0.3-0.3
			c-0.1,0-0.2,0-0.2,0.1c0.1,0.2-0.1,0.3-0.2,0.4c0,0-0.1,0-0.2,0c-0.1,0-0.2-0.1-0.3-0.1c-0.1,0-0.1,0.1-0.1,0.1
			c-0.1,0-0.1-0.1-0.2-0.1c-0.2,0,0,0.3-0.2,0.3c-0.1,0.1-0.2,0-0.2,0.1c-0.1,0-0.1-0.1-0.1-0.1c0.1-0.1,0.1-0.2,0.2-0.3
			c-0.1-0.1-0.1-0.2-0.1-0.3c-0.1,0.1-0.2,0.1-0.2,0.2c0,0.1-0.1,0.1-0.2,0.1c-0.1,0-0.1-0.1-0.1-0.1c-0.1,0-0.1,0.1-0.2,0.1
			c-0.1,0-0.2,0-0.3-0.1c-0.2,0,0,0.3-0.2,0.3c-0.1,0.1-0.1,0-0.2,0c-0.1,0,0,0.1-0.1,0.1c-0.1,0-0.2-0.1-0.3-0.2
			c-0.1,0-0.2,0-0.3,0c0,0.1,0.1,0.1,0.2,0.2c0,0.1,0.2,0.2,0,0.3c-0.1,0-0.1,0-0.2,0c-0.1,0.1-0.2,0-0.3,0
			c-0.1,0.1-0.2,0.1-0.3,0.2c-0.1,0-0.2,0.1-0.2,0c0-0.1,0-0.1,0.1-0.2c0.1-0.2-0.2-0.2-0.2-0.3c-0.1,0-0.1,0.1-0.1,0.1
			c0,0.1,0.1,0.1,0.1,0.2c-0.1,0.1,0.1,0.2,0,0.3c-0.1,0.1-0.2,0.1-0.3,0.1c-0.2-0.2,0.2-0.2,0.1-0.4c0,0,0,0-0.1-0.1
			c-0.1,0-0.1,0.1-0.1,0.1c-0.1,0-0.1-0.1-0.2-0.1c0,0.1,0.1,0.1,0.1,0.2c0,0.1,0,0.1-0.1,0.1C41.2,44.8,41,45,40.8,45
			c-0.1,0-0.1,0.2-0.2,0.2c-0.2,0-0.4,0.1-0.5,0.1c-0.1,0-0.1-0.1-0.2-0.1c-0.1-0.1-0.2,0-0.4,0c-0.1,0.1-0.1,0.1-0.1,0.1
			c-0.1-0.1-0.3-0.2-0.4-0.3c-0.1-0.1-0.2-0.1-0.3-0.2c0-0.1-0.2-0.2-0.3-0.2c0,0,0,0.1-0.1,0.1c-0.1,0-0.1-0.1-0.1-0.2
			c0,0-0.1,0-0.1,0c0-0.1,0-0.1,0.1-0.2c0.1-0.1-0.1-0.1-0.1-0.2c-0.2,0,0,0.2-0.2,0.3c0,0.1,0.2,0.1,0.1,0.2c0,0.2-0.2,0-0.3,0.1
			c-0.1-0.1-0.3-0.2-0.3-0.3c0-0.1-0.1-0.1-0.2-0.1c-0.1,0-0.1-0.2-0.3-0.2c-0.2,0-0.1-0.2-0.2-0.3c-0.1,0-0.1,0.1-0.1,0.2
			c0,0.1-0.1,0.1-0.1,0.1c-0.1-0.1-0.2-0.2-0.2-0.3c0.1-0.1,0-0.2,0-0.3c0,0,0-0.1,0.1-0.1l-0.1-0.1c-0.1-0.1,0-0.2-0.1-0.3
			c-0.1-0.2,0.1-0.3,0.2-0.4c0-0.1-0.1,0-0.2-0.2c0-0.1-0.1,0-0.1,0.1c-0.1,0-0.1,0-0.1-0.1c0-0.1,0-0.2,0-0.3c0.1-0.1,0.1,0,0.2,0
			c0.1,0,0-0.1,0.1-0.1c0-0.1,0.1-0.1,0.1-0.2c-0.1-0.1-0.3-0.2-0.3-0.4c-0.1,0-0.1,0-0.2-0.1c0-0.1,0-0.3-0.1-0.3
			c-0.1-0.1,0-0.2,0-0.2c0-0.1-0.1-0.1-0.1-0.1c-0.1-0.1,0-0.2,0-0.2c-0.1-0.1-0.2-0.2-0.2-0.4c0-0.1,0.2,0,0.2-0.2
			c0.1-0.1,0-0.1-0.1-0.2c0,0-0.1,0-0.1,0c-0.2,0.1-0.1-0.2-0.2-0.2c0-0.2-0.3-0.2-0.2-0.4c0,0-0.1,0-0.1,0C35,39.3,35,39.2,35,39.1
			c0,0-0.1,0-0.1,0c-0.1,0.2-0.5,0.1-0.5,0.4c0,0.2-0.3,0.1-0.4,0.2c0.1,0.2-0.2,0.1-0.3,0.2c0,0,0,0.1,0,0.1c0,0.1,0,0.1,0,0.2
			c0,0.1,0.1,0.2,0.2,0.2c0.1,0.1-0.1,0.2-0.1,0.3c0,0.1,0,0.2-0.1,0.3c0,0.1,0,0.1,0.1,0.2c-0.1,0.1-0.1,0.2-0.1,0.3
			c0.1,0,0.1,0.1,0.2,0.2c0.1,0.1-0.1,0.2-0.1,0.3c0,0.1-0.1,0.2,0.1,0.2c0,0.1-0.1,0.2-0.1,0.3c0,0.1,0,0.1,0,0.2
			c0.1,0.1,0.1,0.2,0.1,0.3c-0.1,0.1-0.1,0.2-0.1,0.4c0,0.1,0.1,0.2,0.2,0.3c0.1,0.1-0.2,0.2,0,0.3C33.8,44,33.7,44,33.6,44
			c-0.1,0,0,0.1,0,0.2c0,0.1-0.1,0.1-0.1,0.1c-0.1-0.1-0.2-0.2-0.1-0.3c0-0.1-0.1,0-0.1,0c0,0.1,0,0.3,0,0.3c0.1,0,0.2,0.1,0.3,0.1
			c0.2,0.1,0.1,0.3,0.2,0.4c0.1,0.2,0.4,0.2,0.3,0.5c0,0.1,0.2,0.1,0.3,0.1c0.1,0.2-0.2,0-0.2,0.1c0.1,0.1,0.2,0.1,0.3,0.1
			c0.1,0.1,0,0.1,0,0.2c0,0,0.1,0,0.1,0l0-0.2c0-0.1,0.1,0,0.1-0.1c0.1,0,0.1,0.1,0.1,0.2c0.1,0,0.1,0.2,0.2,0.2
			c0.1-0.1,0.1,0.2,0.2,0.1c0,0,0-0.1,0-0.1c0-0.1-0.1-0.3,0.1-0.4c0.1,0,0.1-0.1,0.2-0.1c0.1,0.2,0.3,0.1,0.4,0.2
			c0.1,0.2-0.2,0.1-0.3,0.3l0.1,0.1c0.1,0.1,0,0.2,0,0.3c-0.1,0.2-0.3,0-0.4,0.1l0.1,0.1c0.1,0.1,0.1,0,0.2,0c0.2,0,0.2-0.2,0.3-0.3
			c0.1,0,0.1,0,0.2,0c0.2,0.1,0.3-0.1,0.4-0.2c0.1,0,0.2-0.1,0.2,0c0.1,0.2,0.2,0.1,0.3,0.2c0.1,0.2,0.2,0.2,0.2,0.4
			c0,0.1,0.1,0.2,0.1,0.1c0.1,0,0.1-0.1,0.1-0.2c0.1-0.1,0.2-0.1,0.3-0.1c0.1,0.1,0.1,0.2,0.2,0.3c0.1,0.1,0.2,0.2,0.4,0.2
			c0.1,0.2,0.3,0.1,0.4,0c0.1,0,0,0.1,0.1,0.2c0.1,0.1,0.2,0,0.3,0.1c0.2,0,0.1,0.2,0.2,0.3c0.1,0,0.1-0.2,0.2-0.3
			c0.1-0.1,0.1,0.1,0.2,0.1c0.1,0,0.2-0.1,0.2-0.2c0.1,0,0.2,0,0.4,0c0.2,0.1,0.3-0.1,0.5-0.1c0.2,0,0-0.2,0.2-0.3
			c0.1-0.1,0.1,0,0.2,0.1l0-0.2c0-0.1,0.1-0.1,0.2-0.1c0.1,0.1,0,0.1,0,0.2c0,0,0,0,0.1,0c0,0,0.1,0.1,0.1,0.1
			c0.1,0.2,0.2-0.1,0.3,0c0.3-0.2,0.2,0.3,0.4,0.3c0.2,0,0.3,0.1,0.4,0.1c0.1,0,0.2,0.2,0.2,0.3c0.1,0,0.1,0,0.1-0.1
			c0.1-0.1,0.2,0.1,0.3,0.1c0.1,0,0.1,0,0.2,0c0,0,0.1,0,0.1,0c0.1-0.1,0.2-0.1,0.3-0.1c0,0,0.1,0.1,0.1,0.1c0.1-0.1,0.2,0.1,0.3,0
			c-0.1-0.2,0.1-0.3,0.2-0.4c0.1,0,0.2,0,0.2,0l0-0.1c0-0.2,0.3-0.2,0.4-0.3c0.1-0.1,0.2-0.1,0.3-0.1c0.1-0.1,0.3-0.1,0.4-0.3
			c0.1,0,0.1-0.1,0.1-0.1c0.1,0,0.1-0.1,0.1-0.2c0-0.1,0.1-0.1,0.2-0.1c0.2-0.1,0.5-0.1,0.8-0.1c0.1,0,0.1,0.1,0.2,0
			c0.1,0,0.1-0.1,0.1-0.2c0.1-0.1,0.4-0.1,0.6,0c0.2,0,0.3-0.1,0.4-0.2c0.1,0,0.2,0,0.2,0.1c0.2,0.1,0.2-0.1,0.3-0.2
			c0.1-0.1,0.2,0,0.2,0.1c0.1,0,0.1-0.1,0.2-0.1l0.4,0.1l0.1,0c0-0.1,0.1-0.1,0.2-0.2c0,0,0.1,0,0.1,0c0.1,0.1,0.2,0,0.2,0
			c0.1-0.2,0.3-0.1,0.4-0.1c0-0.1,0-0.1,0.1-0.2c0.1,0,0.1,0,0.2,0.1c0.1,0.1,0.1-0.1,0.2-0.1c0.1,0.1,0.3,0.1,0.4,0.1
			c0.1,0,0,0.2,0.1,0.2c0.1,0,0.3,0.1,0.4,0.1c0-0.1,0-0.1-0.1-0.2c0-0.1-0.1-0.2,0-0.2c0.1-0.1,0.3-0.2,0.5-0.2
			c0.1,0.2-0.2,0.1-0.3,0.2c0,0.1,0.1,0.1,0.2,0.2c0,0,0,0.1,0.1,0.1v-0.2c0-0.1,0.2,0,0.2-0.1c0,0,0-0.1,0-0.1
			c-0.1-0.1,0.1-0.1,0.1-0.2c-0.1-0.1-0.2,0-0.4,0c-0.1,0-0.2-0.1-0.3-0.2c0,0,0,0,0,0c0,0,0,0,0,0c0,0.1-0.1,0.1-0.2,0.1
			c-0.1,0-0.2-0.2-0.2-0.2c0.1-0.2,0.4,0,0.4-0.3c0.1,0,0.2,0,0.2-0.1c0.1,0,0.2,0,0.2,0.1c0.1,0.1,0.1-0.1,0.1-0.2
			c0.2-0.1,0.3-0.2,0.5-0.1c0-0.1-0.1-0.1-0.1-0.2c0.1-0.2,0-0.4,0-0.6c-0.1-0.1-0.1,0-0.2,0c-0.1,0,0-0.1,0-0.2
			c0.1-0.2,0.3,0,0.4,0c0.1,0.1-0.1,0.2,0,0.3c0.1,0,0.2,0.1,0.3,0.2c-0.1,0.2-0.2-0.1-0.3,0.1c-0.1,0.2,0.2,0.1,0.2,0.3
			c0,0,0,0.1-0.1,0.1c0.1,0,0.2,0,0.3-0.1c0-0.1,0.2-0.1,0.2-0.1l-0.1-0.2c-0.1-0.1,0.1-0.2,0.1-0.3c0.1-0.1,0.1-0.2,0.2-0.4
			c0-0.1-0.2,0-0.2-0.1c0,0,0-0.1,0-0.1c0.2,0,0.1-0.3,0.3-0.3c0,0,0-0.1,0-0.1c0-0.1,0.2-0.1,0.2-0.2c0,0,0-0.1-0.1-0.1
			c0,0,0-0.1,0-0.1c0,0,0.1-0.1,0.1,0c0.1-0.1,0-0.1,0-0.2l0,0.1c0,0-0.1,0.1-0.1,0c0,0-0.1,0-0.1-0.1c0,0,0.1-0.1,0.1-0.1
			c-0.1-0.1,0.1-0.1,0-0.2c0-0.1,0.1-0.1,0.1-0.1c-0.1-0.1,0-0.3-0.2-0.3c0-0.1,0.2-0.1,0.2-0.3c0-0.1,0-0.1-0.1-0.2
			c-0.1-0.1,0.1-0.2,0.1-0.3c0-0.1-0.2-0.2-0.1-0.4c-0.1-0.1,0.1-0.2,0.1-0.3c0-0.2-0.2-0.1-0.3-0.2c0-0.1-0.1-0.1,0-0.2
			c0.1,0,0.1,0,0.1,0.1c0.1,0,0.2-0.1,0.3-0.2c0-0.2-0.2-0.1-0.2-0.2c-0.1,0-0.2-0.1-0.2-0.2c0-0.1,0-0.1,0.1-0.1
			c0-0.1,0.1-0.2,0.1-0.3c0.2-0.1,0-0.2,0.1-0.3c0-0.1,0.1,0,0.2,0c0-0.1-0.1-0.1-0.1-0.2c0,0,0.1,0,0.1,0c0-0.1,0.2-0.1,0.2-0.1
			c-0.1-0.1,0-0.2,0-0.3c0-0.1,0.2-0.1,0.2-0.3c0,0,0.1-0.1,0.2-0.1c0.1,0,0.1,0.1,0.1,0.2c0,0,0.1,0.1,0.1,0c0,0-0.1-0.1,0-0.1
			c-0.2,0,0-0.3-0.2-0.3c0,0,0-0.1,0-0.1C54.5,36.5,54.6,36.5,54.7,36.5z M38.7,37.4c-0.1,0-0.1,0-0.2-0.1c0-0.2,0.2-0.1,0.2-0.1
			c0,0,0.1,0,0.1,0.1C38.8,37.3,38.7,37.3,38.7,37.4z M39.7,36.8c-0.1,0-0.2,0-0.2-0.1c0-0.1,0-0.1,0.1-0.1
			C39.6,36.6,39.7,36.6,39.7,36.8C39.8,36.8,39.7,36.8,39.7,36.8z M43.2,36.5c-0.1,0-0.3,0.2-0.4,0.1c0.1-0.1-0.2-0.2-0.1-0.3
			C42.9,36.3,43.1,36.2,43.2,36.5C43.2,36.4,43.2,36.4,43.2,36.5z M40.1,46.1c-0.1,0-0.2-0.1-0.2-0.1c0-0.1,0.2-0.1,0.3-0.2
			c0.1,0,0.1,0.1,0.2,0.1C40.2,46,40.2,46.1,40.1,46.1z M40.9,45.7c-0.1,0-0.1,0-0.1,0c0-0.1,0-0.1,0.1-0.2c0.1,0,0.1,0.1,0.1,0.1
			C41,45.7,40.9,45.7,40.9,45.7z M44.2,44.5c-0.1,0-0.1,0-0.1-0.1c0,0-0.1-0.1,0-0.1c0,0,0.1-0.1,0.1,0c0,0,0.1,0.1,0.1,0
			c0,0,0.1,0,0.1,0C44.3,44.4,44.3,44.5,44.2,44.5z M50.2,44.7c-0.1,0-0.2-0.1-0.2,0c0,0.1,0,0.1,0.1,0.1c0.1,0,0.1,0.1,0.1,0.1
			c0,0.1-0.1,0.1-0.1,0.1c-0.1,0-0.2-0.1-0.2-0.1c-0.1-0.1,0-0.2,0-0.2c0.1-0.1,0.3-0.2,0.4-0.2l0,0C50.2,44.6,50.5,44.7,50.2,44.7z
			 M53,41.3C53,41.3,53,41.3,53,41.3c0.1,0.1,0,0.2,0,0.2c0,0-0.1,0-0.1-0.1C52.8,41.4,52.9,41.4,53,41.3z M53,43
			c-0.1,0-0.1,0-0.1,0c-0.1-0.1-0.1-0.3-0.2-0.4c0-0.1,0-0.2,0.1-0.2c0-0.1-0.1-0.2,0.1-0.2c0.2,0.2,0,0.5,0.3,0.6
			C53.1,42.8,53.1,42.9,53,43z M53.4,40.6c-0.1,0-0.1,0-0.1-0.1c0-0.1,0-0.2,0.1-0.2c0.1,0,0.1,0,0.1,0.1
			C53.5,40.5,53.5,40.5,53.4,40.6z M53.6,39.4c0,0,0.1,0.1,0.1,0.1c0,0.1-0.1,0.1-0.1,0.1c-0.1,0-0.2-0.1-0.3-0.2
			c0-0.1-0.1-0.2,0-0.2c0.1,0,0.2-0.1,0.2,0C53.5,39.3,53.5,39.4,53.6,39.4z M54.1,36.6c-0.1,0-0.1-0.1-0.2,0
			c-0.1,0-0.1-0.1-0.3-0.1c-0.1,0,0-0.1,0-0.1c0,0,0.1-0.1,0.1-0.1c0.1,0.1,0.1,0.1,0.2,0.1c0,0,0.1,0,0.1,0c0,0.1,0,0.1,0,0.1
			C54.1,36.5,54.1,36.5,54.1,36.6C54.1,36.6,54.1,36.6,54.1,36.6z"/>
		<path d="M45.6,38.5c-0.1,0-0.2,0-0.2,0c0,0,0,0.1,0,0.1c0,0.1-0.1,0-0.2,0c-0.1,0.2,0.1,0.3,0.1,0.5c0,0,0.1,0,0.1,0
			c0-0.1-0.1-0.1-0.1-0.2c0-0.1,0.1-0.1,0.1-0.1c0.1,0,0.2,0.1,0.2,0.2c0,0.2,0.3,0.2,0.4,0.4c0.1,0.1,0,0.1-0.1,0.1
			c-0.1,0-0.2,0.1-0.2,0.1c0,0.1-0.2,0.2-0.2,0.3c0,0.1,0.2,0.1,0.2,0.2c0.1,0,0.2,0,0.2-0.1c0.1,0,0.2,0,0.2,0.1
			c0,0.2,0,0.3,0.1,0.5h0.1c0.1,0.2,0.3,0.2,0.3,0.4c0,0.1,0,0.2-0.1,0.3c-0.2,0-0.2,0.3-0.2,0.4c0,0.1,0.2,0.2,0.3,0.2
			c0.2,0,0.1-0.2,0.2-0.3c0.1,0,0.2-0.1,0.4,0c0.1,0,0.1,0.1,0.1,0.2c0.1,0,0.1,0,0.1-0.1c0.1-0.2,0.3,0.1,0.4,0.1
			c0.1,0,0.3-0.1,0.3-0.2c0.2-0.1,0.5,0,0.6-0.2c0.1-0.1,0.3-0.1,0.3-0.2c0.2-0.1,0.1-0.3,0.3-0.4c0.1-0.2,0.3,0,0.4-0.2
			c0-0.1,0.1-0.2,0-0.2c-0.1-0.1-0.1-0.1-0.1-0.2c0,0,0-0.1,0-0.1c-0.1-0.1,0-0.2,0-0.2c0-0.1,0-0.1,0-0.2c0,0-0.1,0-0.1,0
			c-0.1,0-0.2,0-0.2-0.1c-0.1,0.1-0.2,0.1-0.3,0.1c-0.1,0-0.3-0.1-0.4,0c-0.1,0-0.2-0.1-0.2-0.2c-0.1-0.1-0.3-0.1-0.4-0.2
			c0-0.1-0.2-0.1-0.2-0.2c0,0,0-0.1,0-0.1c0,0-0.1,0-0.1-0.1c0-0.1-0.1-0.1,0-0.2c0,0,0.1-0.1,0.1-0.1l-0.2-0.2v-0.2
			c-0.1-0.1-0.1-0.1-0.1-0.2c0,0-0.1,0-0.1,0c-0.1,0-0.1-0.1-0.1-0.2l-0.1,0c-0.1-0.1,0-0.2-0.2-0.2c0-0.1,0-0.1,0-0.2
			c0-0.1-0.1,0-0.1-0.1c-0.1,0-0.1-0.2-0.2-0.1c-0.1,0.1-0.3,0.2-0.2,0.4c0,0.1-0.1,0.1-0.2,0.2c-0.1,0.1-0.2-0.1-0.3-0.1l0,0
			c0,0.1,0.1,0.2,0.1,0.3c0,0.1-0.1,0.1-0.1,0.1c-0.1,0,0,0.2-0.1,0.3C45.6,38.4,45.7,38.5,45.6,38.5z"/>
		<path d="M40.1,43.9c0.1,0.1,0.1,0,0.2-0.1c0.1,0,0.2,0.1,0.3,0.1c0.3,0.2,0.2-0.2,0.4-0.3c0.1,0,0.1,0.1,0.1,0.1
			c0.1,0,0.3,0.1,0.4,0c0-0.1-0.1-0.2-0.2-0.2c0-0.1-0.1-0.2,0-0.2c0.1,0,0.1,0,0.2,0.1c0.2,0,0.1,0.2,0.2,0.3
			c0.1,0,0.2,0.1,0.3,0.1c0.1-0.1,0.2-0.1,0.2-0.2C42,43.4,42,43.3,42,43.1c0.1-0.1,0.3-0.1,0.3-0.2c0-0.1,0.1-0.3-0.1-0.4
			c0,0-0.1,0.1-0.2,0c0,0,0-0.1,0-0.1c0,0,0.1,0,0.1,0c0-0.1,0-0.1,0.1-0.1c0.1,0,0.1,0.1,0.1,0.1c0.1,0,0.1,0,0.1-0.1
			c0-0.1-0.1-0.1-0.1-0.1c0-0.1,0-0.1,0.1-0.2c0.1-0.2-0.1-0.5,0.2-0.7c0-0.2,0.2-0.4,0-0.6c0.1-0.1,0.2-0.2,0.3-0.2
			c0.1,0,0.1-0.1,0.1-0.1l0,0c0-0.1-0.1-0.1-0.2-0.1c0,0-0.1-0.1-0.1-0.1c0-0.1-0.1-0.2,0-0.3c0.1-0.2-0.1-0.1-0.2-0.2
			c0,0,0-0.1,0.1-0.1c0.1-0.1,0-0.2,0-0.2c0-0.1,0.1-0.1,0.1-0.1c0,0,0-0.1,0-0.1c-0.1-0.1-0.1-0.2-0.2-0.3c0-0.1,0-0.2,0.1-0.3
			c-0.2,0-0.2-0.2-0.3-0.2c-0.1-0.1-0.4,0-0.5-0.2c-0.1,0.1-0.3,0-0.4,0c0,0-0.1,0.1-0.1,0.1c-0.1,0-0.1,0-0.1,0
			c-0.2,0.1-0.3,0.4-0.3,0.6c0.1,0,0.2,0.2,0.3,0.3c0.1,0,0.1,0,0.2,0.1c0,0.1,0.1,0.2,0.2,0.3c-0.1,0.1,0,0.3-0.2,0.3
			c0,0.1,0,0.2,0,0.2c-0.1,0.1-0.1,0-0.2,0c0,0,0,0,0,0.1c0,0.1,0.1,0,0.1,0c0.1,0,0.1,0.1,0.1,0.1c0,0-0.1,0-0.1,0
			c0,0-0.1,0.1-0.1,0.1c0.1,0.2-0.2,0.2-0.1,0.3c0,0,0,0.1,0,0.1c-0.1,0-0.1,0-0.2,0c-0.1,0-0.1,0.1-0.1,0.2c0,0,0.1,0.1,0.1,0.1
			c0,0.1,0,0.2-0.1,0.2c0,0.1,0,0.2,0.1,0.3c0,0.1-0.1,0-0.1,0c-0.1,0.1-0.1,0.4-0.3,0.4c0,0.1,0.1,0.1,0.1,0.1
			c0.1,0.2-0.1,0.3-0.1,0.4c0.1,0.1,0.2,0,0.2,0.1c-0.1,0.1,0.1,0.3,0,0.4c0,0.1-0.1,0-0.1,0c-0.1,0-0.1,0-0.2,0
			c-0.1,0.1-0.1,0.2-0.1,0.3C40.2,43.7,40,43.8,40.1,43.9z"/>
	</g>
	<g>
		<path d="M64.1,24c0.6,0.1,0.7-0.5,1.3-0.4c0.5,0,1-0.2,1.4-0.4c0.5,0,0.7-0.4,1.2-0.3c0.3-0.3,0.9-0.3,1.1-0.8
			c0.3-0.5-0.1-1.1-0.4-1.5c-0.2-0.2-0.4-0.1-0.7-0.2c-0.5,0.3-0.7,0.9-1.2,1.2c-0.1,0.2-0.1,0.4-0.2,0.6c-0.1,0-0.2,0-0.3,0.1
			c-0.4,0-0.6,0.5-1,0.6c-0.3,0.5-0.9,0.5-1.3,0.8c-0.2,0.4-0.7,0.4-0.9,0.7v0C63.5,24.5,63.8,24.1,64.1,24z"/>
		<path d="M69.3,36.1c1.1-0.5,1.5-1.7,2.6-2.1c0.3-0.1,0.3-0.6,0.7-0.6c0.5-0.5,1-1,1.6-1.2c0.3-0.7,1.1-1.2,1.3-1.9
			c-0.1-0.1-0.1-0.2-0.3-0.2c-0.3-0.2-0.6-0.6-0.7-0.8c-0.3-0.2-0.7,0-1,0l-0.8,0.7c-0.3-0.3-0.5,0.1-0.8,0.1
			c-0.5,0.4-1.1,0.5-1.5,1c-0.3,0.3-0.9-0.1-1.1,0.3c-0.3,0.1-0.4-0.2-0.6-0.3c-0.1-0.7,0.2-1.3,0.7-1.7c0.1-0.6-0.6-1.1-0.3-1.6
			c-0.1-0.3-0.1-0.7,0-1c0.3-0.5,1.1-0.1,1.3-0.7c0.4,0.1,0.7-0.2,1.1-0.3c0,0.1,0.2,0.1,0.3,0.1c0.3,0.1,0.5-0.1,0.6-0.3
			c0-0.3,0.2-0.7-0.1-0.9c-0.6-0.5-1.4-0.2-2.1-0.1c-0.3,0.4-0.8,0.5-1.3,0.7c-0.4-0.3-0.6-0.8-1.2-0.7c-0.3,0.1-0.1,0.5-0.1,0.7
			c-0.1,0.1-0.2,0.4-0.2,0.6c0,0.1-0.2,0.1-0.1,0.2c-0.1,0.2-0.2,0.5-0.5,0.5c-0.4,0.4-0.8,0.7-1.4,0.7c-0.6,0.5-1.3,0.5-1.9,0.9
			c-0.2,0-0.4,0-0.5,0.1c-0.4,0.3-0.7,0.5-1.1,0.7c-0.6,0.4-1.3,0.7-2,0.7c-0.3,0.3-0.7,0.3-1,0.4c-0.3-0.2-0.5,0.2-0.7,0.3
			c-0.1,0.3,0.3,0.3,0.5,0.5c0.2,0.3,0.7,0.1,0.9,0.3c0.2,0,0.6,0,0.8-0.2c0.4,0,0.6-0.4,0.9-0.6c0.3,0.1,0.6-0.1,0.7-0.4
			c0.1-0.1-0.1-0.2-0.1-0.3c0-0.8,0.7-0.1,1-0.4c0.5,0,1.1,0,1.6-0.1c0.6-0.2,1.1-0.7,1.7-1c0.3,0.1,0.1,0.5,0.2,0.8
			c-0.4,0.7-1.3,0.9-1.8,1.6c-0.2,0-0.3,0.2-0.5,0.2c-0.4,0.2-0.7,0.4-1.1,0.7c-0.8,0.3-1.5,1-2.3,1.4c-0.5,0.5-1,0.7-1.6,1
			c-0.3,0-0.7,0.3-0.9,0.5c-0.1,0-0.3,0-0.4,0.1c-0.2,0.3-0.5,0.4-0.8,0.6c-0.4-0.1-0.6,0.3-0.9,0.4c-0.1,0.2,0,0.3-0.1,0.4
			c0.1,0.4-0.2,0.8,0,1.1c0.4,0.1,0.8,0.4,1.1,0.7l0.8,0.1c0.2-0.2,0.1-0.6,0.4-0.7c0.2-0.5,0.7-0.2,1.1-0.5c0-0.1,0.1-0.3,0.2-0.3
			c0.4-0.1,0.7-0.5,1.1-0.6c0.6-0.2,1-0.7,1.6-0.8c0.6,0,0.8-0.5,1.3-0.5c0.2-0.3,0.6-0.3,0.8-0.4c0.7-0.3,1.3-0.8,2.1-0.9
			c0.1,0,0.2,0.1,0.2,0.2c0,0.2,0.1,0.5,0,0.6c0,0.3,0.2,0.5,0.4,0.7c0.3,0.2,0.5-0.2,0.8-0.1c0.3-0.2,0.7-0.4,0.6-0.8
			c-0.1-0.6,0.3-1,0.4-1.5c0.1-0.1,0.3,0,0.5,0c0.4-0.2,0.9-0.6,1.4-0.5c0.1-0.2,0.3-0.1,0.5-0.2c0.1-0.1,0.4,0,0.5,0.1
			c0,0.4-0.2,0.7-0.5,0.9c-0.1,0.6-0.7,0.9-1.2,1.1c-0.1,0,0,0.2-0.1,0.2c-0.2,0.1-0.4,0.5-0.7,0.6c-0.3,0.1-0.5,0.4-0.7,0.6
			c-0.5,0.3-0.7,0.9-1.3,1c-0.3,0.5-1,0.6-1.1,1.1c-0.4,0.3-0.3,0.7-0.3,1.1c0,0.4,0.5,0.2,0.7,0.4c0.1,0.1,0.1,0.3,0.1,0.4
			c0,0.4-0.5,0.7-0.1,1c0.3,0.3,0.3,0.8,0.1,1.2c-0.1,0.2-0.4,0.3-0.6,0.4c-0.5-0.1-0.9,0.2-1.3,0.4c-0.2,0.1-0.4,0-0.5,0.1
			c-0.2,0.5-0.5,0.9-0.7,1.4c-0.5,0.4-0.3,1-0.6,1.5c-0.1,0.4,0,0.8-0.2,1.3c0.6,0.6-0.1,1.4,0.4,2c0.1,0.2-0.1,0.4,0,0.7
			c0.4,0.2,0.5,0.9,1.1,1c0.3,0.1,0.5,0.4,0.7,0.6c0.2-0.1,0.5,0.1,0.6-0.1c0.2,0.4,0.7,0.2,1,0.4c0.4-0.2,0.8,0,1.2,0
			c0-0.5,0.7-0.7,1-0.9c0.2-0.4,0.8-0.4,0.8-0.9c0.6-0.5,0.6-1.4,0.8-2c-0.1-0.6,0.3-1.3,0-2c0-0.5-0.1-1-0.2-1.4
			c0.2-0.3-0.2-0.5,0-0.8c0.5-0.2,1-0.4,1.4-0.7c0.5-0.3,0.7,0.2,1.1,0.3c0.1,0.5-0.3,0.7-0.5,1.2c-0.1,0.1-0.3,0.1-0.3,0.3
			c0.2,0,0.3-0.3,0.5-0.3c0.4-0.6,0.7-1.1,1.3-1.4c0.2,0,0.4-0.1,0.6-0.2c0-0.1,0.2-0.2,0.2-0.4c-0.2-0.4-0.7-0.6-0.9-1
			c-0.1-0.5-0.7-0.1-0.9-0.5c-0.2-0.1-0.5,0-0.7,0c-0.5-0.1-0.9,0-1.3,0.1c-0.3,0-0.7,0.4-0.9,0c-0.1-0.4,0-0.9-0.3-1.2
			c0.1-0.3,0-0.4-0.1-0.7c-0.4-0.2-0.7-0.6-0.7-1C68.6,36.7,68.9,36.4,69.3,36.1z M66.4,28.2c-0.2,0.1-0.4,0-0.4-0.2
			c0.1-0.1,0-0.3,0.2-0.3c0.1,0,0.2,0.1,0.3,0.1C66.5,28,66.6,28.2,66.4,28.2z M68.4,43.5c0.3,0.5,0.2,1.2,0.1,1.8
			c0.2,0.6-0.3,1-0.4,1.5c0,0.4-0.4,0.5-0.6,0.7c-0.4,0-0.8,0.1-0.9,0.6c-0.3,0-0.1,0.4-0.3,0.5c-0.5,0.4-1.2,0.2-1.7,0
			c-0.1-0.2-0.4-0.4-0.6-0.6c-0.5-0.5-0.5-1.1-0.7-1.7c0.3-0.5,0-1.3,0.7-1.5c0.5-0.3,1-0.8,1.7-0.7c0.7-0.6,1.4-0.6,2.2-0.9
			C68,43.3,68.2,43.3,68.4,43.5z"/>
	</g>
	<g>
		<path d="M88,30.5c0.2-0.2,0.4-0.1,0.6-0.1c0.2,0.3,0.5,0.6,1,0.5c0.5,0.2,1.3,0.1,1.5,0.7c0.4,0.6,0.1,1.4,0.6,2
			c0.2,0.7,0.2,1.5,0.4,2.2c-0.1,0.7-0.9,1.1-0.9,1.8c-0.3,0.2-0.3,0.5-0.6,0.7c-0.1-0.1-0.2-0.3-0.4-0.3c-0.5,0.2-0.5,0.7-0.5,1.1
			c-0.1,0.5-0.7,0.8-0.5,1.4c-0.3,0.7-1,1-1.5,1.6c-0.3,0.2-0.5,0.8-1,0.8c-0.2,0.5-0.8,0.3-0.8,0.9c-0.6,0.3-1.2-0.2-1.8,0.1
			c-0.5-0.1-0.8-0.4-1.2-0.5c-0.2-0.2-0.5-0.2-0.7-0.2c-0.3-0.3-0.6-0.8-1-0.7c-0.3,0.5-0.2,1,0,1.5c-0.1,0.4-0.6,0.7-1,0.9
			c-0.1,0.1-0.3,0-0.3,0.2c-0.2-0.1-0.5,0.3-0.5-0.1c0.3-0.6-0.2-1-0.3-1.5c-0.2-0.2-0.1-0.3-0.1-0.5c0.1-1-1.1-1.3-1-2.3
			c-0.2-0.4,0-0.9-0.1-1.3c-0.1-0.3-0.3-0.7-0.7-0.9c-0.1-0.6-0.4-1.1-0.7-1.6c-0.2-0.2-0.6-0.2-0.8-0.5c0.5-0.6,0.1-1.2,0.4-1.9
			c0.3-0.1,0.4-0.6,0.8-0.5c0.1,0.4,0.6,0.7,0.6,1.1c0.3,0.5,0.9,0.8,1.1,1.3c0.1,0.3,0.3,0.7,0.7,0.7c0.3,0.1,0.3,0.4,0.6,0.6
			c-0.3,0.5,0.2,1,0.1,1.5c0.1,0.3,0.5,0.6,0.7,0.9c0.1,0.4-0.3,0.7,0.1,1c0.3,0.2,0.7,0.6,1.2,0.4c0.2-0.2,0.6-0.3,0.9-0.3
			c0.4,0.1,0.8,0.6,1.3,0.3c0.4-0.4,0.9-0.1,1.3-0.2c0.3-0.2,1-0.2,1.1-0.7c0.1-0.2,0.3-0.3,0.3-0.6c0.6-0.5,0.5-1.4,1.1-1.9
			c0-0.6,0.7-0.7,0.9-1.2c0.1-0.4,0.2-0.8,0.5-1.1c-0.2-0.5,0.6-0.7,0.2-1.1c-0.1-0.2,0.1-0.4,0.2-0.6c-0.2-0.4,0.1-0.8-0.1-1.2
			c-0.6,0.2-1.1-0.1-1.6,0.2c-0.6,0.2-1.4-0.3-1.6,0.5c-0.2,0.5-0.7,0.1-1,0.1c-0.3-0.2-0.7-0.3-1-0.5c-1-0.3-2,0.3-3,0.1
			c-0.1,0.1-0.2,0.1-0.3-0.1c-0.1-0.2,0.3-0.5,0.5-0.6c1-0.2,1.8-0.8,2.5-1.4c0.7-0.5,1.6-0.7,2.3-1.1c0.2,0.2,0.3-0.1,0.6-0.1
			C87.7,30.3,87.9,30.3,88,30.5z"/>
		<path d="M85.2,37.1c-0.3,0.3-0.4,0.9-1,0.9c-0.5,0.4-1.2,0.9-1.8,0.5c-0.1-0.3-0.1-0.7-0.5-0.8l-0.4-0.1c-0.1-0.2,0.1-0.1,0.2-0.1
			c0.2-0.3,0.2-0.7,0.6-0.7c0.5-0.1,0.8-0.6,1.4-0.5c0.3-0.2,0.7,0.1,1,0.3L85.2,37.1z"/>
	</g>
	<g>
		<path d="M101.6,31.4c0.3,0.2,0.7,0.3,1,0.6c0.1,0.1,0,0.3,0.1,0.4c0.1,0,0.3,0,0.3,0.1c-0.1,0.4,0.3,0.5,0.2,0.8
			c-0.1,0.2,0,0.4,0.3,0.4c0.5,0.4,1.1-0.1,1.7-0.1c0.4,0.1,0.9,0.2,1.2,0.6c0.1,0.3-0.3,0.2-0.4,0.3c-0.3,0.4-0.8,0.1-1.1,0.3
			c-0.2-0.1-0.4,0.2-0.6,0c-0.1,0-0.2,0-0.2,0.1c-0.6-0.1-0.9,0.5-1.1,0.9c-0.3,0.7-0.3,1.5-0.4,2.1c-0.2,0.2,0,0.4,0,0.5
			c-0.2,0.4,0.2,0.7,0.1,1.1c-0.1,0.2-0.2,0.4,0,0.6c-0.3,0.1-0.1,0.4-0.2,0.7c0,0.3,0.3,0.6,0,0.8c0.1,0.4,0.1,0.6,0,1
			c0.1,0.2,0,0.3,0,0.5c-0.2,0.1-0.3,0.3-0.1,0.4c0.1,0.1,0,0.3,0,0.3c0,0.1-0.1,0.2,0,0.3c0.1,0.1,0.2,0.3,0.1,0.4
			c0,0.1-0.1,0.2-0.1,0.3c0.2,0.1,0.2,0.3,0.1,0.5c-0.1,0.1-0.1,0.3,0,0.3c0.2,0.3,0.5,0.1,0.8,0.1c0.6-0.1,1.2-0.1,1.8-0.4
			c0.3-0.2,0-0.5,0-0.8c-0.1,0-0.1-0.1-0.1-0.2c0.3,0.1,0.4,0.4,0.6,0.6c0.2,0.2,0.5,0,0.7,0.2c0.1,0,0.2,0,0.3-0.1
			c0-0.3-0.1-0.4-0.2-0.6c-0.1-0.6-0.5-0.9-0.7-1.5c-0.1-0.2-0.4-0.5-0.6-0.7c-0.2-0.1-0.3,0.1-0.5,0c-0.3-0.3,0.2-0.4,0.3-0.7
			c0.3-0.3,0.8-0.1,1.2-0.3c0.2-0.1,0.4,0.3,0.6,0c0.2,0.1,0.4,0.2,0.5,0.3c0.4,0,0.5,0.4,0.9,0.4c0.1,0.5,0.8,0.5,1,1
			c0.5,0.3,0.9,0.8,1.3,1.2c0.1,0.3,0.5,0.1,0.5,0.5c0,0.3,0.5,0.3,0.4,0.6c0.1,0.3,0.6,0.4,0.5,0.8c0.1,0.3,0,0.7,0.3,0.9
			c0.1,0.1,0,0.2-0.1,0.3c-0.2,0.2-0.5,0.1-0.6,0.4c-0.2,0.3-0.5,0.3-0.8,0.4c-0.1,0.4-0.5,0.2-0.8,0.2c-0.3-0.1-0.5-0.5-0.8-0.5
			c-0.3-0.3-0.7-0.4-0.8-0.8c-0.4-0.1-0.6-0.4-0.8-0.7c-0.1-0.1-0.3-0.2-0.4-0.1c-0.3,0.1-0.7,0.5-1.1,0.2c-0.1-0.2-0.3-0.3-0.5-0.3
			c-0.2,0-0.4,0.2-0.5,0.4c0,0.3,0.1,0.6-0.3,0.7c-0.2,0.2-0.4,0.2-0.5,0.5c-0.4,0.1-0.5,0.5-0.9,0.6c-0.1,0.4-0.8,0.6-0.4,1
			c-0.1,0.4,0.2,0.8,0,1.2c0.4,0.4-0.2,0.8,0.3,1.1c0,0.3-0.1,0.5,0.2,0.7c0,0.5-0.5,0.7-0.8,1.1c-0.3,0-0.4,0.4-0.7,0.4
			c-0.3-0.2-0.7-0.1-0.9-0.4c-0.1-0.1-0.3,0-0.4,0c-0.4-0.5-0.7-1-0.7-1.6c0-0.3-0.4-0.6-0.1-0.9c0-0.2,0.1-0.4,0-0.6
			c-0.5-0.1-0.8-0.7-1.3-0.6c-0.3-0.1-0.6-0.5-0.9-0.5c-0.1-0.1-0.2-0.3-0.4-0.2c-0.1,0.2-0.3,0.3-0.5,0.3c-0.3,0.3-0.7,0.5-1,0.8
			c-0.3,0.3-0.8,0-1.1,0.3c-0.3,0-0.5,0.4-0.9,0.4c-0.2,0-0.3-0.1-0.4-0.2c-0.2-0.3,0-0.7,0.2-1.1c-0.1-0.3,0.2-0.5,0.3-0.7
			c0.1-0.6,0.3-1.2,0.7-1.6c0-0.5,0.5-0.7,0.6-1.2c0.3-0.3,0.5-0.5,0.5-0.9c0.4-0.4,0.4-0.8,0.8-1.2c0.2-0.5,0.6-0.8,0.8-1.3
			c0.4-0.3,0.7-0.7,0.9-1c0.1-0.3,0.3-0.5,0.3-0.8c0.1-0.1,0.3-0.4,0.5-0.4c0.2-0.2,0.7,0.1,0.6-0.3c-0.1-0.4,0.1-0.9-0.2-1.3
			c0-0.3,0.1-0.7-0.2-0.9c-0.4,0.2-1,0-1.3,0.3c-0.4,0.1-0.8,0.2-1.2,0.3c-0.3,0.1-0.7,0-0.9,0.2c-0.3,0-0.5,0-0.8,0
			c-0.2,0.1-0.4,0.1-0.6,0.2c-0.3,0.1-0.5,0.5-0.9,0.4c-0.3-0.2-0.5-0.4-0.7-0.8c0,0,0.1,0,0.1-0.1c0.3,0.1,0.6,0.1,0.9-0.1
			c0.7,0,1.1-0.5,1.6-0.7c0.3-0.3,0.7-0.3,1-0.5c0.5,0,0.8-0.5,1.3-0.7c0.6-0.1,1.1-0.5,1.7-0.8c0.1-0.3,0.3-0.6,0.2-0.9
			c0.2-0.3,0.1-0.5,0-0.8c0.1-0.3-0.1-0.7,0.1-1c-0.1-0.3,0.1-0.6,0.1-0.9c0.1-0.1,0-0.4,0.3-0.4c0.1-0.3,0.5-0.2,0.7-0.2
			c0.4-0.1,0.7-0.4,1.1-0.1C101.4,31.4,101.5,31.4,101.6,31.4z"/>
	</g>
	<g>
		<g>
			<path d="M126.2,52.9C126.2,52.9,126.2,52.9,126.2,52.9C126.2,52.9,126.2,52.9,126.2,52.9L126.2,52.9z"/>
			<path d="M132.7,45.2c0-0.1-0.1-0.2-0.1-0.3c-0.1-0.1-0.2-0.3-0.4-0.4c-0.1-0.3-0.5-0.3-0.6-0.6c-0.3-0.3-0.7-0.3-1-0.4
				c-0.3-0.2-0.6-0.3-0.9-0.3c-0.3-0.1-0.7,0-1,0.1c-0.2,0.3-0.6,0.2-0.9,0.2c-0.2,0-0.2,0.2-0.3,0.3c-0.1,0-0.2,0-0.2,0
				c0,0,0-0.1,0-0.2c0.1-0.2,0.2-0.3,0.3-0.5c0.1-0.3,0.4-0.4,0.5-0.7c0.4-0.2,0.3-0.6,0.7-0.9c0-0.2,0.3-0.2,0.2-0.4
				c0.2-0.2,0.5-0.5,0.7-0.8c0.2-0.1,0.2-0.3,0.4-0.4c0-0.2,0.2-0.2,0.3-0.3c0.2-0.1,0.3-0.4,0.4-0.6c0.2-0.1,0.1-0.3,0.2-0.5
				c-0.1-0.3-0.2-0.4-0.4-0.6c-0.1,0-0.2-0.1-0.3-0.2c-0.2-0.1-0.5,0-0.7,0c-0.1,0-0.2,0-0.3,0.1c-0.1,0-0.3,0.1-0.3-0.1
				c0.2-0.1,0.1-0.3,0.3-0.5c0-0.2,0.1-0.2,0.2-0.4c0.2-0.2,0.3-0.5,0.5-0.7c0-0.2,0.2-0.3,0.2-0.5c0.2-0.2,0.3-0.5,0.3-0.8
				c-0.1-0.2,0-0.4-0.1-0.5c0-0.3-0.3-0.4-0.5-0.7c-0.2-0.4-0.7-0.4-1-0.7c-0.2-0.1-0.5-0.1-0.8-0.1c-0.3,0-0.6,0.1-0.8,0
				c-0.1,0-0.1-0.1,0-0.2c0.2-0.1,0.1-0.5,0.4-0.6c0-0.3,0.3-0.4,0.3-0.7c0.1,0,0.2-0.1,0.2-0.2c0.1-0.1,0.2-0.3,0.2-0.4
				c0.2-0.2,0.4-0.4,0.6-0.6c0-0.2,0.3-0.4,0.3-0.6c0-0.3-0.2-0.4-0.3-0.6c-0.2,0-0.2-0.2-0.4-0.2c-0.3-0.2-0.6-0.3-0.9-0.5
				c-0.2,0-0.3-0.2-0.4-0.2c-0.1,0.1-0.3,0-0.5,0.1c-0.3,0.3-0.6,0.4-0.9,0.6c-0.4,0.1-0.7,0.3-1.1,0.5c-0.3,0-0.4,0.3-0.7,0.3
				c0,0.2-0.3,0-0.4,0.2c-0.3,0.2-0.7,0.4-1,0.6c-0.1,0.1-0.2,0.2-0.3,0.2c-0.3,0.2,0.1,0.4,0.2,0.6c0.3,0,0.4,0.3,0.6,0.3
				c0.1,0.2,0.3,0.1,0.5,0.3c0.1,0.1,0.3,0,0.4,0.1c0.2,0.2,0.4,0.1,0.6,0.2c0.1,0.2,0,0.3-0.1,0.4c0,0.1,0,0.3-0.1,0.4
				c-0.2,0.3,0,0.6-0.2,0.9c-0.1,0.1,0,0.3-0.2,0.4c0.1,0.2-0.2,0.3-0.2,0.4c-0.1,0.1-0.2,0.1-0.3,0.2c-0.3,0.3-0.8,0.6-1.1,0.9
				c-0.1,0.3-0.4,0.5-0.6,0.6c-0.2,0.3-0.5,0.4-0.6,0.7c-0.1,0.1-0.2,0-0.2,0.1c-0.2,0.3-0.6,0.5-0.7,0.8c0,0.2,0.3,0.3,0.3,0.5
				c0.2,0.1,0.4,0.2,0.5,0.4c0.2,0.1,0.5,0.3,0.7,0.3c0.3,0.3,0.7-0.2,1,0.1c0.1,0.1,0,0.2,0,0.3c-0.1,0-0.1,0.2-0.2,0.2
				c-0.2,0.2-0.4,0.2-0.6,0.4c0.1,0.1,0.3,0.2,0.3,0.4c-0.1,0.2,0,0.4-0.1,0.6c-0.1,0.3-0.4,0.2-0.5,0.5c-0.4,0.2-0.6,0.6-1,0.8
				c0,0.2-0.3,0.3-0.3,0.4c-0.3,0.3-0.5,0.6-0.8,0.8c-0.1,0.1-0.1,0.3-0.3,0.2c-0.1,0.1-0.2,0.1-0.2,0.2c0,0.1-0.1,0.1-0.2,0.1
				c-0.1,0,0,0.1-0.1,0.1c-0.2,0.1-0.3,0.1-0.5,0.2c-0.1,0-0.2,0-0.3-0.1c-0.1,0-0.2,0-0.2,0.1c0,0.2,0.1,0.4,0.1,0.6
				c0.1,0.2,0.3,0.4,0.5,0.5c0.2,0.3,0.5,0.4,0.8,0.6c0.2,0.2,0.4,0,0.7,0c0.2-0.2,0.5-0.3,0.6-0.6c0.2-0.1,0.3-0.3,0.5-0.4
				c0.2-0.2,0.5-0.3,0.6-0.6c0.2,0,0.3-0.3,0.5-0.5c0.2-0.2,0.4-0.4,0.7-0.7c0.2-0.1,0.4-0.3,0.6-0.5c0.1-0.1-0.2-0.1-0.1-0.3
				c0-0.1,0.2-0.2,0.3-0.2c0.1-0.3,0.6-0.1,0.7-0.5c0.1,0,0.1-0.2,0.3-0.2c0.2-0.2,0.5-0.1,0.6-0.3c0.2,0,0.2-0.2,0.3-0.3
				c0.2,0,0.4-0.3,0.7-0.2c0.2,0.2-0.2,0.2-0.1,0.3c0,0.2-0.1,0.3-0.3,0.4c-0.2,0.2-0.3,0.5-0.4,0.7c0.1,0.1,0.3,0,0.5,0.1
				c0,0,0,0.1,0,0.1c0,0.2-0.2,0.3-0.1,0.6c0.1,0,0.1-0.1,0.2-0.1c0.1,0.1,0.1,0.1,0.2,0.2c0,0,0,0-0.1,0c0,0,0,0.1,0,0.1
				c-0.1,0.2-0.2,0.4-0.3,0.5c0,0.1-0.1,0.2-0.1,0.3c-0.3,0.2-0.2,0.7-0.6,0.6c-0.2,0.1-0.3,0.3-0.6,0.3c-0.2-0.2,0.1-0.4,0-0.6h0
				c-0.1,0.1-0.2,0.3-0.3,0.5c0,0.1-0.2,0.1-0.2,0.3c-0.1,0.1-0.2,0-0.3,0.1c-0.1,0.1-0.2,0.2-0.4,0.3c-0.1,0.2-0.3,0.3-0.4,0.4
				c-0.1,0.1-0.2,0.2-0.3,0.2c-0.3,0.2-0.7,0.3-0.9,0.6l0.1,0.5c0.2,0.1,0,0.3,0.3,0.4c0,0.2,0.1,0.2,0.2,0.3c0,0.1,0,0.3,0.1,0.3
				c0,0.2,0.3,0.3,0.4,0.5c0.1,0,0.2,0.1,0.3,0c0.2,0.1,0.4,0,0.6,0.1c0,0,0-0.1,0-0.1c0,0,0,0.1,0.1,0.1c0.1-0.1,0.2-0.1,0.4-0.2
				c0.2,0,0.2-0.2,0.4-0.3c0.1-0.1,0.2-0.2,0.3-0.3c0.1-0.2,0.3-0.4,0.5-0.5c0.3-0.2,0.5-0.6,0.8-0.8c0.5-0.2,0.7-0.7,1.1-0.9
				c0.1,0,0.1-0.2,0.3-0.2c0.4,0.4-0.1,1-0.1,1.4c-0.1,0.1-0.1,0.3-0.2,0.4c0,0.5-0.3,0.9-0.3,1.4c-0.1,0.1-0.1,0.3-0.2,0.4
				c0,0.3-0.2,0.5-0.1,0.7c-0.2,0.3-0.2,0.6-0.3,0.8c-0.1,0.3-0.3,0.6-0.3,0.9c0,0.2-0.1,0.4-0.1,0.6c0.1-0.2,0.2-0.4,0.3-0.6
				c0.1-0.1,0.1-0.3,0.2-0.5c0-0.2,0.1-0.4,0.1-0.6c0.1-0.1,0.2-0.1,0.2-0.3c0.2-0.3,0.3-0.7,0.4-1.1c0-0.5,0.3-0.9,0.5-1.3
				c0.1-0.1,0.1-0.4,0.3-0.4c0,0,0.1,0.1,0.2,0.1c0,0.2-0.1,0.3-0.2,0.5c-0.1,0.3-0.3,0.7-0.2,1c-0.2,0.3-0.2,0.6-0.3,0.9
				c0.1-0.1,0.2,0.1,0.2,0.1c0.1,0,0-0.1,0.1-0.2c0.2-0.1,0.2-0.4,0.3-0.6c0.2-0.2,0.2-0.5,0.4-0.8c0.1,0,0.2,0,0.3,0
				c0,0.1,0.1,0.2,0.1,0.3l0.1-0.1c0-0.1,0.1-0.2,0.2-0.2c0.1,0,0.1,0.2,0.2,0.2c0.1-0.1,0.2-0.3,0.3-0.3c0.1-0.1,0.2,0,0.3,0
				c0-0.1,0-0.2,0.1-0.2c0.1-0.1,0.2,0.2,0.3,0.2c0-0.1,0.1-0.3,0.2-0.4c0-0.2,0.2-0.3,0.2-0.4c0.2-0.2,0.3-0.6,0.5-0.8
				c0.1-0.3,0.3-0.5,0.4-0.7c0.3-0.3,0.4-0.7,0.6-1C132.6,45.7,132.8,45.4,132.7,45.2z M126.4,36.9c0,0.2-0.2,0.3-0.1,0.4
				c-0.1,0.1-0.2,0.3-0.3,0.4c-0.1,0.2-0.2,0.4-0.3,0.6c-0.3,0.2-0.4,0.5-0.7,0.5c0,0-0.1,0-0.1,0c-0.2-0.3,0.1-0.7,0.2-0.9
				c0.1-0.1,0-0.2,0-0.3c0.1-0.3,0.3-0.5,0.3-0.7c0.2-0.2,0.2-0.5,0.4-0.7c0.2-0.3,0.6-0.4,0.9-0.4l0.1,0.1
				C126.7,36.3,126.5,36.6,126.4,36.9z"/>
		</g>
		<g>
			<path class="st8" d="M115.3,28.9c0.4,0.1,0.6,0.3,1,0.4c0.1,0.2-0.1,0.3,0,0.4c0.1,0.1,0.2,0,0.2,0.2c-0.2,0.6-0.9,0.3-1.2,0.8
				c-0.4,0.2-0.7,0.6-1.1,0.8c-0.2,0.3-0.6,0.3-0.8,0.5c-0.1-0.1-0.3-0.1-0.2-0.4c0.4-0.3,0.5-0.8,0.7-1.3c-0.2-0.3,0.3-0.7,0.5-1
				c0-0.3,0-0.6,0-0.9C114.7,28.6,115,29,115.3,28.9z"/>
			<path class="st8" d="M118.7,32.8L118.7,32.8L118.7,32.8L118.7,32.8c0,0-0.1,0.1-0.1,0c-0.2,0.1,0,0.2,0,0.3
				c-0.3,0.3-0.6,0.7-1,0.6c-0.3,0.4-1,0-1.1,0.7c-0.1,0.1-0.3,0.1-0.5,0.2c-0.6,0.7-1.5,0.9-2,1.6c-0.1,0.4-0.6,0.8-0.3,1.1
				c0.1,0.3,0.4,0.1,0.6,0.2c0.4-0.2,0.8-0.2,1.2-0.5c0.4,0.2,1-0.1,1.1,0.4c0.1,0.3,0.6,0.3,0.4,0.6c-0.3,0.3-0.5,0.4-0.7,0.6
				c-0.2,0-0.3,0.2-0.4,0.3c0,0.3-0.3,0.3-0.4,0.5c-0.5,0.2-0.5,0.8-0.7,1.2c0,0.2,0,0.4,0.2,0.4c0.2,0,0.3,0,0.4,0.2
				c0,0.3,0.4,0.2,0.5,0.4c0.3-0.1,0.3,0.3,0.5,0.2c0.2,0.2,0.3,0.4,0.6,0.4c0.1,0.1,0.1,0.4,0.4,0.4c-0.1,0.2-0.2,0.5,0,0.6
				c0,0.2-0.3,0.2-0.3,0.3c-0.4,0.3-0.1,1-0.7,1.2c-0.2,0.3-0.4,0.8-0.7,1c-0.2,0.3,0,0.6-0.3,0.9l-0.1,0.5c0.2,0.4,0.6,0.7,0.8,1
				c0.3,0.2,0.7,0.1,0.9,0.4c0,0.3,0.4,0.5,0.3,0.9c-0.3,0.3-0.1,0.7-0.4,1c-0.2,0.1-0.3,0.2-0.4,0.1c-0.2-0.3-0.3-0.6-0.7-0.8
				c-0.2,0-0.2-0.2-0.4-0.4c0-0.1,0.1-0.2,0-0.3c-0.1-0.2-0.4-0.1-0.3-0.4c-0.2-0.2-0.1-0.5-0.2-0.7c0-0.1-0.1-0.2-0.1-0.2
				c0.3-0.5-0.3-0.8-0.1-1.3c-0.4-0.4,0.3-0.8,0.3-1.2c-0.1-0.5,0-1-0.1-1.5c0.3-0.4,0-0.8,0.3-1.1c0-0.2,0-0.3,0-0.4
				c-0.2-0.3-0.3-0.6-0.6-0.8c0-0.6-0.1-1.2,0.1-1.8c0.3-0.3,0.2-0.6,0.3-1c0-0.2,0.2-0.3,0.1-0.5c-0.1-0.2-0.4,0-0.4-0.3
				c-0.1-0.2-0.4-0.1-0.6-0.3c-0.2,0-0.3-0.1-0.4-0.3c0-0.3-0.6-0.4-0.1-0.8c-0.1-0.4,0.2-0.6,0.3-0.9c0.4-0.2,0.7-0.4,0.7-0.9
				c0-0.2-0.2-0.2-0.3-0.2c-0.3,0.1-0.6,0.2-0.9,0.4c-0.3,0.1-0.7,0.1-0.7,0.4c-0.2,0.2-0.5,0.2-0.7,0.4c-0.3,0-0.3,0.5-0.6,0.3
				c-0.2,0-0.4,0.2-0.6,0c0-0.5-0.6-0.5-0.6-0.9c0.4-0.1,0.8-0.8,1.2-0.4c0.5-0.1,1-0.8,1.6-0.5c0.1-0.3,0.4,0.1,0.5-0.3
				c0.4,0,0.6-0.3,1-0.4c0.2-0.4,0.5,0,0.7-0.4c0.4,0,0.8-0.5,1.2-0.4c0.4-0.2,0.8-0.5,1.2-0.6c0.2-0.1,0.3,0,0.5,0.1
				C118.4,32.7,118.6,32.8,118.7,32.8z"/>
		</g>
	</g>
</g>
</svg>
