<svg xmlns="http://www.w3.org/2000/svg" width="255.566" height="171.866" viewBox="0 0 255.566 171.866"><g transform="translate(-79 -137.724)"><g transform="translate(-357.993 -216.132)"><path d="M436.993,398.01h16.644l5.672,17.161,5.671-17.161h10.753l5.671,17.161,5.671-17.161h16.645l-16.2,49.125H475.291l-4.934-14.878-4.934,14.878H453.2Z" fill="#fff"/><path d="M537.6,398.01h11.784l18.634,49.125H552.549l-1.62-4.419H536.052l-1.62,4.419H518.965Zm9.206,33.879-3.315-8.617-3.314,8.617Z" transform="translate(-21.872)" fill="#fff"/><path d="M592.4,398.01h16.35v36.236H622.3v12.888H592.4Z" transform="translate(-41.466)" fill="#fff"/><path d="M641.719,398.01H658.07v36.236h13.552v12.888h-29.9Z" transform="translate(-54.627)" fill="#fff"/><path d="M691.041,398.01h28.945V410.9H706.729v5.45h13.036v12.226H706.729v5.671H720.5v12.888H691.041Z" transform="translate(-67.787)" fill="#fff"/><path d="M747.815,410.9h-9.058V398.01h34.32V410.9h-9.058v36.236h-16.2Z" transform="translate(-80.519)" fill="#fff"/></g><g transform="translate(-344.454 -236.748)"><path d="M549.7,521.184h12.387v-4.216h10.543v4.216h12.65v9.488h-12.65v5.536H587.39v8.96H546.538v-5.534h-11.86v3.953h-9.224V489.031h21.611v47.177h15.023v-5.536H549.7Zm-15.023-22.93v32.155h3.69V498.254Zm16.077-6.851h11.333V484.55h10.543V491.4h11.6v9.488h-11.6V505.9h13.7v9.488H548.911V505.9h13.177v-5.007H550.756Z" transform="translate(-90.915 69.272) rotate(-7)" fill="#fff"/><path d="M621.063,486.536h15.688v6.553H629.8q-.2,1.987-.6,4.17h7.348q.991,24.425-12.511,35.149-2.188-2.783-4.568-5.561a30.664,30.664,0,0,0,7.745-8.936,25.56,25.56,0,0,0-3.177-3.376q-.8,1.787-1.787,3.574-1.191-2.978-2.581-6.156v13.7h-7.348v2.979h-5.759v-41.5h13.107v22.043a56.331,56.331,0,0,0,3.972-16.086h-2.582Zm-8.738,7.348V519.1h2.383v-25.22Zm14.3,14.1a9.912,9.912,0,0,1,1.391,1.192,11.373,11.373,0,0,0,1.588,1.39q.6-2.979.993-6.752h-2.581Q627.417,505.8,626.623,507.983ZM643.5,520.1h-5.758V489.714H643.5Zm1.787-35.546h6.553v39.12q.4,7.345-5.759,7.546-2.188.2-6.751.2-.6-3.575-1.192-6.951h4.965q2.382.2,2.184-2.581Z" transform="matrix(0.998, 0.07, -0.07, 0.998, -7.064, -39.557)" fill="#fff"/></g><g transform="matrix(0.996, 0.087, -0.087, 0.996, -287.151, -507.757)"><path d="M453.788,609.35a71.139,71.139,0,0,0,7.711-.529l.529,2.721a4.7,4.7,0,0,0-.68.076q-1.06.076-1.739.076v1.739h2.873q-.227-3.175-.227-5.14h3.1q0,.68.076,3.024.075,1.361.076,2.117h3.4q-1.059-1.134-3.175-3.1l1.89-1.89a31.717,31.717,0,0,1,3.4,2.948l-2.041,2.041h2.495v2.8h-2.495l1.965,1.512a28.764,28.764,0,0,1-4.082,4.309q.226.3.453.68.453.606.756.6c.3,0,.5-.227.6-.681q.227-1.435.378-2.646.755.454,1.965,1.058a3.027,3.027,0,0,1,.68.3,19.562,19.562,0,0,1-.907,3.478,2.545,2.545,0,0,1-2.57,1.587,3.973,3.973,0,0,1-3.855-2.495q-1.361.831-2.949,1.663-.3-.454-.907-1.285-.606-.755-.907-1.21v.529q.074,2.419-1.966,2.495a11.306,11.306,0,0,1-1.588.076q-1.059.075-1.587.076-.076-.379-.227-1.134-.076-.379-.378-1.663.907.076,1.739.076.981.076.907-1.058v-1.21q-.453.076-1.361.151-.983.153-1.436.227l-.454-3.024q.982-.151,3.024-.3h.227V616.23h-3.1v-2.8h3.1V611.92a20.577,20.577,0,0,1-2.419.151A18.267,18.267,0,0,0,453.788,609.35Zm9.45,11.717a27.287,27.287,0,0,1-.6-4.838h-3.024v1.814q.453-.075,1.361-.151a9.174,9.174,0,0,1,1.361-.151q0,.53-.076,1.588v1.285a7.763,7.763,0,0,0-1.285.151q-.907.076-1.361.151v2.192A22.641,22.641,0,0,0,463.238,621.068Zm2.343-4.838q.074.68.227,1.814a8.218,8.218,0,0,1,.076.907,20.19,20.19,0,0,0,2.344-2.721Z" transform="translate(0)" fill="#00fff8"/><path d="M554.638,622.353q0,3.628-3.326,3.7-1.361.074-3.478.075a8.088,8.088,0,0,1-.151-.907q-.153-.907-.454-2.041.907.076,2.722.076,1.662.153,1.663-1.588V618.5q.074-3.175.076-4.46h-2.646a19.629,19.629,0,0,1-1.058,2.344q-1.134-.6-2.344-1.285v10.962h-2.948V625H540.5v1.134h-2.948V611.164h2.117a22.57,22.57,0,0,0,.529-2.8l3.326.378a4.966,4.966,0,0,0-.151.6,16.167,16.167,0,0,1-.454,1.814h2.721v3.175a38.009,38.009,0,0,0,2.268-6.047l3.024.68a9.509,9.509,0,0,1-.3,1.058q-.227.757-.378,1.134h4.612Q554.712,619.482,554.638,622.353ZM540.5,614.037v2.646h2.192v-2.646Zm0,5.518V622.2h2.192v-2.646Zm8.165-3.477q.681.833,1.965,2.57.528.757.832,1.134l-2.57,1.663q-1.588-2.418-2.646-3.855Z" transform="translate(-64.261)" fill="#00fff8"/><path d="M623.136,619.193l1.436-.151a1.757,1.757,0,0,0-.151-.6c-.051-.3-.1-.554-.151-.756l2.721-.151v.151a5.73,5.73,0,0,0,.3,1.058l.907-.075-.3-.832,2.344-.151.3.756,3.024-.378.227,2.192-1.512.227,1.134,1.285a2.926,2.926,0,0,1-.529.378c-.253.2-.454.354-.6.454q.907.3,1.814.68-.227.983-.454,1.663a2.221,2.221,0,0,1-2.343,1.588,4.771,4.771,0,0,1-3.78-1.512,36.848,36.848,0,0,1-3.78,1.285,5.979,5.979,0,0,0-.3-.681l-.454-.907a3.32,3.32,0,0,1-.076.529v.378q-3.175.3-6.728.756l-.378-2.495a9.111,9.111,0,0,1,1.361-.076q.831-.075,1.285-.076v-.907l-1.512.454q-.453-1.814-.983-3.4l1.512-.529a6.814,6.814,0,0,0,.378.983q.377,1.21.6,1.89V618.89h-2.343v-2.344h2.343v-1.058H617.39v-.68l-.454.453a7.428,7.428,0,0,1-.529.6q-.076-.453-.227-1.21-.227-1.058-.378-1.663a10.991,10.991,0,0,0,2.8-4.385l2.646.151a1.153,1.153,0,0,1-.3.6q.3.3.832.832a19.158,19.158,0,0,1,1.436,1.436l-.151-.756,1.739-.227q-.227-.831-.454-1.89l2.721-.151a7.877,7.877,0,0,0,.454,1.739l1.361-.151-.529-1.286,2.495-.151.529,1.209,1.965-.227.227,2.192-1.361.151,1.058,1.361a8.072,8.072,0,0,1-.68.454,12.465,12.465,0,0,0,1.588.6q-.227.907-.454,1.663a2.2,2.2,0,0,1-2.192,1.588,4.675,4.675,0,0,1-3.7-1.512,38.128,38.128,0,0,1-4.082,1.134q-.379-1.133-.832-2.268a29.714,29.714,0,0,0,3.477-.756,5.479,5.479,0,0,1-.756-1.436l-2.117.227-.075-.454-1.21,1.663a.6.6,0,0,0-.076-.227c-.05-.05-.1-.1-.151-.151v1.512h-1.21v1.058h2.192v2.344h-2.192v2.948q.453-1.208.831-2.57l1.512.454Zm-3.251-7.711a9.324,9.324,0,0,1-1.134,1.738h2.57a6.359,6.359,0,0,1-.6-.756A11.58,11.58,0,0,0,619.885,611.482Zm3.477,10.054-.151-1.739q-.153.53-.53,1.512a14.229,14.229,0,0,1-.529,1.588l-1.361-.454v.983a10.62,10.62,0,0,0,1.512-.151,6.289,6.289,0,0,1,.756-.076l-.076.832q1.662-.454,3.1-.907a9.725,9.725,0,0,1-.756-1.814Zm4.687-.529c.05.1.151.278.3.529a4.321,4.321,0,0,1,.227.529q1.361-.68,2.646-1.436Zm.3-8.391a1.823,1.823,0,0,1,.3.454,3.5,3.5,0,0,1,.3.453,23.826,23.826,0,0,0,2.494-1.361Zm3.477,10.962a2.1,2.1,0,0,0,.227-.832,13.156,13.156,0,0,1-1.965,1.134,1.5,1.5,0,0,0,.983.378A.739.739,0,0,0,631.829,623.577Zm.227-8.769a.067.067,0,0,1,.076-.076,2.515,2.515,0,0,0,.076-.6,19.3,19.3,0,0,1-1.739.983,1.994,1.994,0,0,0,.982.3C631.754,615.413,631.955,615.212,632.056,614.808Z" transform="translate(-123.914 -0.242)" fill="#00fff8"/><path d="M701.71,608.292l3.477.227q-.3.68-.68,1.361h9.828q0,3.478-.151,8.391a4.617,4.617,0,0,1-.529,2.344,2.271,2.271,0,0,0,.529.151,15.68,15.68,0,0,0,1.814.454,17.393,17.393,0,0,1-.529,2.721q-.379,2.116-3.477,2.041h-8.769q-3.855.15-3.7-3.629v-6.5q-.53.53-1.058.983-.153-.755-.529-2.041-.227-.831-.378-1.285A13.567,13.567,0,0,0,701.71,608.292Zm9.6,4.385h-8.694l-.68.907-.378.378h7.635V618.8h1.058q1.058.076.983-.907Q711.309,616.305,711.311,612.677Zm-2.948,9c-.051-.2-.126-.454-.227-.756h-5.67v1.059q-.152,1.587,1.663,1.436h7.106a1.192,1.192,0,0,0,1.436-1.134,4.073,4.073,0,0,0,.227-.983,3.834,3.834,0,0,1-1.588.378Zm-5.9-5.141v1.814h3.78v-1.814Z" transform="translate(-186.234)" fill="#00fff8"/><path d="M786.819,620.285h.756q.074-1.058.076-2.268h-.68v-2.495h.68q.074-1.058.075-2.192h-.831v-2.495h6.048q0,4.159-.076,10.432v4.385q0,2.116-1.815,2.192-.757.075-1.966.076a8.125,8.125,0,0,1-.151-.907q-.153-.606-.227-.831a19.34,19.34,0,0,1-1.361,2.344.867.867,0,0,1-.151-.227q-.756-1.211-1.361-2.041h-2.192v1.285h-2.117V611.364h4.99V625.2a6.015,6.015,0,0,0,.907-2.495h-.6Zm-3.175-6.123v9.45h.831v-9.45Zm7.031,10.735V622.7h-1.058a14.933,14.933,0,0,1-.68,2.948h.983A.668.668,0,0,0,790.674,624.9Zm0-4.612v-2.268h-.832c0,.3-.026.707-.076,1.21v1.058Zm.075-6.955h-.832v2.192h.832Zm7.333,5.065a7.8,7.8,0,0,1,1.209,4.989q0,2.194-1.663,2.57-.53.076-1.285.227l-.378-1.285v3.4h-2.419V611.062h5.594v2.494Zm-2.117-4.838v9.676h.454q.68-.074.68-.982a6.023,6.023,0,0,0-1.058-3.7l.907-4.989Z" transform="translate(-250.252 -1.939)" fill="#00fff8"/><path d="M861.865,611.255h6.35v-2.646h3.326v2.646h6.35v2.873h-6.35v2.344h7.408v2.8h-8.467q-.681.832-2.117,2.57-.68.833-1.058,1.285l5.443-.227q-.907-1.058-1.512-1.814l2.344-1.588q3.4,3.629,5.141,5.443L876,626.753l-1.134-1.361q-4.688.151-8.315.378a7.906,7.906,0,0,0-.907.075,14.506,14.506,0,0,0-2.646.378l-1.285-2.948,1.815-.076a45.984,45.984,0,0,0,2.8-3.931h-5.595v-2.8h7.484v-2.344h-6.35Z" transform="translate(-310.632 -0.242)" fill="#00fff8"/><path d="M952.449,618.217l5.292-3.629h-12.4v-2.8H962.05v3.326l-6.275,4.385v6.124q.151,3.175-3.024,3.1-1.287.074-4.233.075a26.888,26.888,0,0,0-.6-3.024q.6.076,3.251.076,1.435.152,1.285-1.361Z" transform="translate(-375.135 -2.667)" fill="#00fff8"/><path d="M1045.573,622.48v.68h-3.024v-.907a4.17,4.17,0,0,1,1.966-3.7q1.965-1.435,1.89-2.721a1.844,1.844,0,0,0-1.814-1.739q-2.117,0-2.646,2.8l-3.4-.68q.907-5.216,6.577-5.065,4.686.227,5.065,4.233.151,2.571-2.721,4.385Q1045.347,621.2,1045.573,622.48Zm.378,5.518h-3.7v-3.477h3.7Z" transform="translate(-446.185 -2.168)" fill="#00fff8"/></g></g></svg>