<?xml version="1.0" encoding="UTF-8"?>
<svg id="_圖層_2" data-name="圖層_2" xmlns="http://www.w3.org/2000/svg" viewBox="0 0 36.57 21.7">
  <defs>
    <style>
      .cls-1 {
        fill: #fff;
      }
    </style>
  </defs>
  <g id="_圖層_1-2" data-name="圖層_1">
    <g>
      <g>
        <polygon class="cls-1" points="0 .04 8.85 .04 8.85 9.57 0 .04"/>
        <polygon class="cls-1" points="9.61 0 9.61 13.96 15.85 6.93 9.61 0"/>
        <polygon class="cls-1" points="18.28 .1 24.25 .1 29.8 6.47 23.48 6.47 18.28 .1"/>
        <polygon class="cls-1" points="16.44 7.44 22.85 7.44 22.85 14.48 10.3 14.48 16.44 7.44"/>
        <polygon class="cls-1" points="23.71 7.37 23.71 14.55 29.85 14.55 29.85 7.33 23.71 7.37"/>
        <polygon class="cls-1" points="30.66 7.37 30.66 14.5 36.57 7.38 30.66 7.37"/>
      </g>
      <g>
        <path class="cls-1" d="M3.3,20.42h-1.05l-.13.53c-.03.12-.04.21-.04.27,0,.12.06.14.23.14v.26h-.84v-.26c.15,0,.22-.06.29-.3l.96-3.52h.48l1.03,3.45c.1.32.15.38.31.38v.26h-1.29v-.26c.18,0,.24-.04.24-.15,0-.05-.01-.12-.04-.2l-.15-.6ZM3.21,20.12l-.44-1.61h-.02l-.41,1.61h.87Z"/>
        <path class="cls-1" d="M4.99,20.54c.15.68.37.86.73.86.29,0,.55-.22.55-.62,0-.37-.15-.54-.66-.94-.57-.44-.85-.67-.85-1.27,0-.43.27-1.02,1.18-1.02.32,0,.6.06.79.15.01.21.05.52.1.87l-.3.05c-.1-.58-.22-.77-.6-.77-.32,0-.49.22-.49.5,0,.32.18.5.62.84.63.5.92.72.92,1.35,0,.66-.48,1.16-1.28,1.16-.31,0-.62-.07-.87-.17-.03-.36-.08-.66-.14-.92l.31-.08Z"/>
        <path class="cls-1" d="M8.36,20.25c0,.43.04,1.08.67,1.08s.68-.73.68-1.07v-1.93c0-.41-.04-.46-.33-.46v-.26h.98v.26c-.29,0-.33.06-.33.46v1.97c0,.52-.09,1.4-1.15,1.4-1.13,0-1.3-.6-1.3-1.43v-1.94c0-.4-.03-.46-.35-.46v-.26h1.45v.26c-.3,0-.33.04-.33.46v1.92Z"/>
        <path class="cls-1" d="M12.51,19.05l.9,1.88c.19.39.25.44.45.44v.26h-.97l-.89-1.95-.25.37v.87c0,.4.04.46.33.46v.26h-1.48v-.26c.36,0,.39-.06.39-.46v-2.57c0-.4-.03-.46-.39-.46v-.26h1.47v.26c-.28,0-.31.06-.31.46v1.17h.01l.81-1.2c.1-.15.16-.26.16-.33s-.06-.1-.2-.1v-.26h1.07v.26c-.18,0-.29.02-.46.27l-.63.91Z"/>
        <path class="cls-1" d="M15.75,20.42h-1.05l-.13.53c-.03.12-.04.21-.04.27,0,.12.06.14.23.14v.26h-.84v-.26c.15,0,.22-.06.29-.3l.96-3.52h.48l1.04,3.45c.1.32.15.38.31.38v.26h-1.29v-.26c.18,0,.24-.04.24-.15,0-.05-.01-.12-.04-.2l-.15-.6ZM15.66,20.12l-.44-1.61h-.02l-.41,1.61h.87Z"/>
        <path class="cls-1" d="M20.12,17.94v2.97c0,.4.03.46.44.46v.26h-1.64v-.26c.41,0,.44-.06.44-.46v-2.97h-.36c-.29,0-.34.03-.45.7h-.29l.12-1.02h2.73l.12,1.02h-.29c-.11-.67-.16-.7-.46-.7h-.36Z"/>
        <path class="cls-1" d="M22.83,17.62c.49,0,.81.07,1.06.27.22.17.36.42.36.8,0,.44-.22.89-.77,1.03l.64,1.27c.17.34.27.38.44.38v.26h-.95l-.82-1.79h-.24v1.08c0,.41.02.46.34.46v.26h-1.5v-.26c.36,0,.39-.06.39-.46v-2.57c0-.4-.03-.46-.39-.46v-.26h1.45ZM22.66,17.93c-.12,0-.13.06-.13.33v1.26h.22c.55,0,.7-.34.7-.83,0-.25-.06-.45-.17-.59-.1-.12-.24-.18-.45-.18h-.17Z"/>
        <path class="cls-1" d="M26.41,20.42h-1.05l-.13.53c-.03.12-.04.21-.04.27,0,.12.06.14.23.14v.26h-.84v-.26c.15,0,.22-.06.29-.3l.96-3.52h.48l1.04,3.45c.1.32.15.38.31.38v.26h-1.29v-.26c.18,0,.24-.04.24-.15,0-.05-.01-.12-.04-.2l-.15-.6ZM26.32,20.12l-.44-1.61h-.02l-.41,1.61h.87Z"/>
        <path class="cls-1" d="M29.54,20.71l.64-2.42c.03-.11.04-.18.04-.24,0-.14-.08-.17-.25-.17v-.26h.88v.26c-.17,0-.23.05-.3.3l-.96,3.52h-.51l-1.03-3.45c-.1-.33-.15-.38-.35-.38v-.26h1.35v.26c-.18,0-.25.05-.25.17,0,.06.01.14.04.23l.69,2.43h.01Z"/>
        <path class="cls-1" d="M33.48,21.62h-2.49v-.26c.35,0,.39-.06.39-.46v-2.57c0-.4-.04-.46-.39-.46v-.26h2.37l.15.93h-.3c-.12-.58-.18-.62-.45-.62h-.44c-.16,0-.17.04-.17.24v1.23h.41c.21,0,.26-.08.26-.54h.29v1.41h-.29c0-.52-.04-.56-.26-.56h-.41v1.37c0,.22.04.24.14.24h.6c.28,0,.33-.06.46-.66h.3l-.16.97Z"/>
        <path class="cls-1" d="M36.5,20.58l-.16,1.04h-2.51v-.26c.35,0,.39-.06.39-.46v-2.57c0-.4-.04-.46-.39-.46v-.26h1.56v.26c-.38,0-.4.05-.4.47v2.72c0,.22.04.25.15.25h.57c.3,0,.35-.06.48-.73h.31Z"/>
      </g>
    </g>
  </g>
</svg>