<?xml version="1.0" encoding="UTF-8"?><svg id="_圖層_2" xmlns="http://www.w3.org/2000/svg" width="79.74" height="47.85" xmlns:xlink="http://www.w3.org/1999/xlink" viewBox="0 0 79.74 47.85"><defs><linearGradient id="_未命名漸層_8" x1="14.76" y1="-1.46" x2="35.24" y2="52.55" gradientUnits="userSpaceOnUse"><stop offset="0" stop-color="#4593d0"/><stop offset=".53" stop-color="#21c2c4"/><stop offset=".95" stop-color="#04eabb"/><stop offset="1" stop-color="#55bba5"/></linearGradient><linearGradient id="_新增漸層色票_1" x1="49.7" y1="-14.7" x2="70.17" y2="39.31" gradientUnits="userSpaceOnUse"><stop offset="0" stop-color="#4593d0"/><stop offset=".56" stop-color="#21c2c4"/><stop offset="1" stop-color="#04eabb"/></linearGradient><linearGradient id="_未命名漸層_9" x1="21.15" y1="-3.88" x2="41.62" y2="50.13" gradientUnits="userSpaceOnUse"><stop offset="0" stop-color="#4593d0"/><stop offset=".54" stop-color="#21c2c4"/><stop offset=".96" stop-color="#04eabb"/><stop offset="1" stop-color="#55bba5"/></linearGradient></defs><g id="main"><path d="M15.79,0h-.43c-3.69.17-7.01,2.67-8.22,6.21L.62,24.9l-.2.56c-.27.7-.41,1.42-.42,2.15v.14c.01,1.18.37,2.33,1.04,3.34,1.21,1.82,3.32,2.91,5.62,2.91h1.87v8.11c0,3.18,2.7,5.75,6.04,5.75h24.15c2.36,0,4.24-1.92,4.24-4.28s-1.9-4.26-4.26-4.26h-21.68v-8.11c0-3.16-2.7-5.74-6.04-5.74h-1.52l5.73-16.46c.07-.25.27-.43.52-.47h22.88c2.36,0,4.26-1.9,4.26-4.26s-1.9-4.26-4.26-4.26H15.79Z" style="fill:url(#_未命名漸層_8);"/><path d="M53.06,0c-2.36,0-4.26,1.91-4.26,4.26s1.9,4.26,4.26,4.26h16.19l-19.25,29.52c-1.27,1.83-1.43,4.23-.42,6.21,1.12,2.21,3.47,3.59,6.1,3.59h19.47c2.36,0,4.27-1.91,4.27-4.27s-1.91-4.26-4.27-4.26h-15.81l19.33-29.65c1.27-1.81,1.43-4.17.42-6.13-1.13-2.18-3.43-3.54-6.03-3.54h-20Z" style="fill:url(#_新增漸層色票_1);"/><path d="M27.05,19.65c-2.36,0-4.26,1.91-4.26,4.27s1.91,4.27,4.26,4.27h9.26c2.36,0,4.26-1.91,4.26-4.27s-1.9-4.27-4.26-4.27h-9.26Z" style="fill:url(#_未命名漸層_9);"/></g></svg>