<?xml version="1.0" encoding="UTF-8"?><svg id="_圖層_2" xmlns="http://www.w3.org/2000/svg" width="210.89" height="48.14" xmlns:xlink="http://www.w3.org/1999/xlink" viewBox="0 0 210.89 48.14"><defs><linearGradient id="_未命名漸層_8" x1="14.76" y1="-1.18" x2="35.24" y2="52.84" gradientUnits="userSpaceOnUse"><stop offset="0" stop-color="#4593d0"/><stop offset=".53" stop-color="#21c2c4"/><stop offset=".95" stop-color="#04eabb"/><stop offset="1" stop-color="#55bba5"/></linearGradient><linearGradient id="_新增漸層色票_1" x1="49.7" y1="-14.42" x2="70.17" y2="39.59" gradientUnits="userSpaceOnUse"><stop offset="0" stop-color="#4593d0"/><stop offset=".56" stop-color="#21c2c4"/><stop offset="1" stop-color="#04eabb"/></linearGradient><linearGradient id="_未命名漸層_9" x1="21.15" y1="-3.6" x2="41.62" y2="50.42" gradientUnits="userSpaceOnUse"><stop offset="0" stop-color="#4593d0"/><stop offset=".54" stop-color="#21c2c4"/><stop offset=".96" stop-color="#04eabb"/><stop offset="1" stop-color="#55bba5"/></linearGradient></defs><g id="main"><path d="M174.72,47.97c-2.34,0-4.24-1.9-4.24-4.24V5.32c.02-2.22,1.47-4.18,3.59-4.85,2.21-.75,4.65.01,6.04,1.88l.04.06,27.16,38.42c1.35,1.91.9,4.55-1.01,5.9-1.91,1.35-4.55.9-5.9-1.01l-21.45-30.34v28.35c0,2.34-1.89,4.24-4.23,4.24" style="fill:#fff;"/><path d="M206.66,8.47h-13.02c-2.34,0-4.24-1.9-4.24-4.24s1.9-4.23,4.24-4.23h13.02c2.34,0,4.24,1.9,4.24,4.23s-1.9,4.24-4.24,4.24" style="fill:#fff;"/><path d="M102.65,47.96c-6.08,0-11.76-3.04-15.12-8.11-1.99-2.99-3.05-6.57-3.05-10.36v-11.28c.02-4.24,1.49-8.34,4.18-11.61,2.83-3.42,6.81-5.69,11.2-6.38,4.51-.69,9.12.32,12.93,2.83,3.69,2.46,6.36,6.18,7.5,10.46.6,2.26-.74,4.58-3,5.18-2.26.6-4.58-.74-5.18-3-1.38-5.2-6.72-8.29-11.92-6.91-4.29,1.14-7.27,5.04-7.24,9.48v11.23c0,2.14.55,4.05,1.62,5.67,2.98,4.48,9.03,5.7,13.51,2.72,1.68-1.12,2.98-2.73,3.7-4.62.21-.54.37-1.1.47-1.67.4-2.31,2.59-3.85,4.89-3.45,2.3.4,3.85,2.59,3.45,4.89,0,.04-.02.09-.03.13-1.62,8.62-9.17,14.85-17.94,14.81h0Z" style="fill:#fff;"/><path d="M145.07,47.97c-10.05-.01-18.2-8.16-18.21-18.21v-11.55c.1-10.06,8.34-18.13,18.39-18.03,9.92.1,17.93,8.11,18.03,18.03v11.55c-.01,10.05-8.16,18.2-18.21,18.21M145.07,8.47c-5.38,0-9.74,4.36-9.74,9.74v11.55c.07,5.38,4.5,9.68,9.88,9.61,5.28-.07,9.54-4.33,9.61-9.61v-11.55c0-5.38-4.36-9.74-9.74-9.74" style="fill:#fff;"/><path d="M200.38,14.57h7.62c.97,0,1.75.78,1.75,1.75v11.14c0,.97-.79,1.75-1.75,1.75-.58,0-1.12-.29-1.44-.76l-7.62-11.13c-.55-.8-.35-1.89.44-2.44.3-.2.65-.31,1-.31" style="fill:#fff;"/><path d="M15.79.28h-.43c-3.69.17-7.01,2.67-8.22,6.21L.62,25.18l-.2.56c-.27.7-.41,1.42-.42,2.15v.14c.01,1.18.37,2.33,1.04,3.34,1.21,1.82,3.32,2.91,5.62,2.91h1.87v8.11c0,3.18,2.7,5.75,6.04,5.75h24.15c2.36,0,4.24-1.92,4.24-4.28s-1.9-4.26-4.26-4.26h-21.68v-8.11c0-3.16-2.7-5.74-6.04-5.74h-1.52l5.73-16.46c.07-.25.27-.43.52-.47h22.88c2.36,0,4.26-1.9,4.26-4.26s-1.9-4.26-4.26-4.26H15.79Z" style="fill:url(#_未命名漸層_8);"/><path d="M53.06.28c-2.36,0-4.26,1.91-4.26,4.26s1.9,4.26,4.26,4.26h16.19l-19.25,29.52c-1.27,1.83-1.43,4.23-.42,6.21,1.12,2.21,3.47,3.59,6.1,3.59h19.47c2.36,0,4.27-1.91,4.27-4.27s-1.91-4.26-4.27-4.26h-15.81l19.33-29.65c1.27-1.81,1.43-4.17.42-6.13-1.13-2.18-3.43-3.54-6.03-3.54h-20Z" style="fill:url(#_新增漸層色票_1);"/><path d="M27.05,19.93c-2.36,0-4.26,1.91-4.26,4.27s1.91,4.27,4.26,4.27h9.26c2.36,0,4.26-1.91,4.26-4.27s-1.9-4.27-4.26-4.27h-9.26Z" style="fill:url(#_未命名漸層_9);"/></g></svg>