<?xml version="1.0" encoding="utf-8"?>
<!-- Generator: Adobe Illustrator 23.0.1, SVG Export Plug-In . SVG Version: 6.00 Build 0)  -->
<svg version="1.1" id="圖層_1" xmlns="http://www.w3.org/2000/svg" xmlns:xlink="http://www.w3.org/1999/xlink" x="0px" y="0px"
	 viewBox="0 0 69.5 69.5" style="enable-background:new 0 0 69.5 69.5;" xml:space="preserve">
<style type="text/css">
	.st0{fill:#492B80;}
	.st1{fill:#FFFFFF;}
</style>
<g>
	<circle class="st0" cx="34.75" cy="34.75" r="34.75"/>
	<g>
		<path class="st1" d="M25.44,37.04v11.23h26.36c0.6,0,1.06-0.14,1.38-0.42c0.32-0.28,0.58-0.78,0.78-1.5h0.96v10.6h-0.96
			c-0.2-0.72-0.46-1.22-0.78-1.5c-0.32-0.28-0.78-0.42-1.38-0.42H14.57v-0.96c0.72-0.2,1.22-0.46,1.5-0.78
			c0.28-0.32,0.42-0.79,0.42-1.41V17.2c0-0.62-0.14-1.09-0.42-1.41c-0.28-0.32-0.78-0.58-1.5-0.78v-0.96h36.5
			c0.6,0,1.06-0.14,1.38-0.43c0.32-0.29,0.58-0.78,0.78-1.49h0.96v10.6h-0.96c-0.2-0.71-0.46-1.21-0.78-1.49
			c-0.32-0.28-0.78-0.43-1.38-0.43H25.44v9.73H46.5c0.6,0,1.06-0.14,1.38-0.42c0.32-0.28,0.58-0.78,0.78-1.5h0.96v10.36h-0.96
			c-0.2-0.7-0.46-1.2-0.78-1.49c-0.32-0.29-0.78-0.44-1.38-0.44H25.44z"/>
	</g>
</g>
</svg>
