<?xml version="1.0" encoding="utf-8"?>
<!-- Generator: Adobe Illustrator 19.1.0, SVG Export Plug-In . SVG Version: 6.00 Build 0)  -->
<svg version="1.1" id="圖層_1" xmlns="http://www.w3.org/2000/svg" xmlns:xlink="http://www.w3.org/1999/xlink" x="0px" y="0px"
	 viewBox="0 0 193.8 148.1" enable-background="new 0 0 193.8 148.1" xml:space="preserve">
<g>
	<g>
		
			<radialGradient id="SVGID_1_" cx="93.8066" cy="48.8234" r="68.5176" gradientTransform="matrix(0.9558 0 0 1.0932 7.1492 20.5193)" gradientUnits="userSpaceOnUse">
			<stop  offset="0" style="stop-color:#005FA7"/>
			<stop  offset="2.390000e-02" style="stop-color:#005CA4"/>
			<stop  offset="0.2455" style="stop-color:#00428C"/>
			<stop  offset="0.4598" style="stop-color:#002D7B"/>
			<stop  offset="0.6619" style="stop-color:#0F1D70"/>
			<stop  offset="0.8472" style="stop-color:#161069"/>
			<stop  offset="1" style="stop-color:#170C67"/>
		</radialGradient>
		<path fill="url(#SVGID_1_)" d="M96.9,2.2c-4.5-0.1-28.4,0.1-59.4,12.5l-1.8,0.7l0.7,2c0.2,0.5,0.3,1.1,0.3,1.7
			c0,2.3-1.5,4.3-3.5,4.6L31.3,24l0.3,2.1c1.1,6.6,2.4,19.1,0,28.9c-3.1,12.8-5.4,31.1,2,45.6c4.9,9.7,13.4,16.3,25.3,19.7
			c30.3,8.7,36.1,20.8,36.1,21l1.9,4.3l1.8-4.3c0-0.1,5.8-12.3,36.1-20.9c11.9-3.4,20.4-10,25.3-19.7c7.3-14.5,5.1-32.8,2-45.6
			c-2.4-9.8-1-22.3,0-28.9l0.3-2l-1.8-0.4c-1.9-0.4-3.4-2.3-3.4-4.6c0-0.5,0.1-1.1,0.3-1.6l0.6-2l-1.7-0.7
			C125.5,2.2,101.5,2.1,96.9,2.2z"/>
		<g>
			
				<linearGradient id="SVGID_2_" gradientUnits="userSpaceOnUse" x1="148.9046" y1="117.0919" x2="90.0243" y2="2.5526" gradientTransform="matrix(1 0 0 1 0 3.172)">
				<stop  offset="5.600000e-03" style="stop-color:#B37C10"/>
				<stop  offset="0.236" style="stop-color:#F4DD8A"/>
				<stop  offset="0.2978" style="stop-color:#FCF5B3"/>
				<stop  offset="0.3032" style="stop-color:#F8EBA0"/>
				<stop  offset="0.3121" style="stop-color:#F4DE88"/>
				<stop  offset="0.3226" style="stop-color:#F0D476"/>
				<stop  offset="0.3356" style="stop-color:#EDCD6A"/>
				<stop  offset="0.3539" style="stop-color:#ECC963"/>
				<stop  offset="0.4045" style="stop-color:#ECC861"/>
				<stop  offset="0.4551" style="stop-color:#CFA244"/>
				<stop  offset="0.5899" style="stop-color:#F4DD8A"/>
				<stop  offset="0.6629" style="stop-color:#FCF5B3"/>
				<stop  offset="0.6732" style="stop-color:#F4E89E"/>
				<stop  offset="0.6931" style="stop-color:#E7D27D"/>
				<stop  offset="0.7149" style="stop-color:#DCC162"/>
				<stop  offset="0.7392" style="stop-color:#D3B44F"/>
				<stop  offset="0.7672" style="stop-color:#CDAB42"/>
				<stop  offset="0.802" style="stop-color:#CAA63A"/>
				<stop  offset="0.8652" style="stop-color:#C9A438"/>
				<stop  offset="0.9663" style="stop-color:#815015"/>
			</linearGradient>
			<path fill="url(#SVGID_2_)" d="M106.7,135.5c4.6-3.6,13.3-8.8,28.6-13.2c12.4-3.5,21.2-10.5,26.4-20.7c3.7-7.2,5.4-16,5.2-26.1
				c-0.2-6.6-1.2-13.7-3-21.1c-2.3-9.4-0.9-21.6,0.1-28l0.7-4.1l-3.5-0.7c-1.1-0.2-1.9-1.3-1.9-2.6c0-0.3,0-0.6,0.1-0.9l1.3-3.9
				l-3.5-1.4C127.9,1,104.6,0.1,98.2,0.1c-0.4,0-0.8,0-1.2,0v4.1c0.3,0,0.7,0,1.2,0c6.4,0,29.1,0.9,57.8,12.5
				c-0.2,0.7-0.4,1.5-0.4,2.3c0,3.3,2.1,6.1,4.8,6.6c-0.7,4.3-1.4,10.4-1.4,16.6c0,4.5,0.4,9.1,1.4,13.3c1.3,5.3,2.9,13.3,2.9,21.9
				c0,16.1-5.6,34.2-28.9,40.9c-31.8,9.1-37.3,22.1-37.3,22.1l-0.2,0.5l0,0v7.1c0,0,0,0.1,0.1,0.1
				C99.9,143.1,102.3,138.9,106.7,135.5z"/>
			
				<linearGradient id="SVGID_3_" gradientUnits="userSpaceOnUse" x1="26.9463" y1="70.828" x2="98.0786" y2="70.828" gradientTransform="matrix(1 0 0 1 0 3.172)">
				<stop  offset="0" style="stop-color:#ECC861"/>
				<stop  offset="6.180000e-02" style="stop-color:#CFA244"/>
				<stop  offset="0.1404" style="stop-color:#B37C10"/>
				<stop  offset="0.3371" style="stop-color:#F4DD8A"/>
				<stop  offset="0.3574" style="stop-color:#F6E394"/>
				<stop  offset="0.427" style="stop-color:#FCF5B3"/>
				<stop  offset="0.4353" style="stop-color:#FBF1AC"/>
				<stop  offset="0.4551" style="stop-color:#F8EBA0"/>
				<stop  offset="0.5281" style="stop-color:#ECC861"/>
				<stop  offset="0.6461" style="stop-color:#CFA244"/>
				<stop  offset="0.9663" style="stop-color:#815015"/>
			</linearGradient>
			<path fill="url(#SVGID_3_)" d="M96.9,140.8L96.9,140.8l-0.2-0.5c0,0-5.4-12.9-37.3-22.1c-23.3-6.7-28.9-24.8-28.9-40.9
				c0-8.6,1.6-16.5,2.9-21.9c1-4.2,1.4-8.8,1.4-13.2c0-6.2-0.7-12.2-1.4-16.6c2.9-0.5,5.1-3.3,5.1-6.7c0-0.9-0.1-1.7-0.4-2.4
				C66.7,5,89.3,4.1,95.7,4.1c0.5,0,0.9,0,1.2,0l0,0V0c0.4,0,0.8,0,1.2,0c-0.4,0-0.8,0-1.2,0s-0.8,0-1.2,0
				c-6.4,0-29.6,0.9-58.8,12.6L33.4,14l1.3,4c0.1,0.3,0.2,0.6,0.2,0.9c0,1.3-0.9,2.4-2,2.6l-3.7,0.6l0.7,4.2c1,6.4,2.4,18.6,0.1,28
				c-1.8,7.4-2.8,14.5-3,21.1c-0.3,10.1,1.5,18.9,5.2,26.1c5.2,10.2,14.1,17.2,26.4,20.7c15.3,4.4,24,9.6,28.6,13.2
				c4.2,3.3,6.9,7.8,9.8,12.6c0,0,0-0.1-0.1-0.1L96.9,140.8L96.9,140.8z"/>
			
				<linearGradient id="SVGID_4_" gradientUnits="userSpaceOnUse" x1="31.8388" y1="21.0181" x2="36.8773" y2="13.5748" gradientTransform="matrix(1 0 0 1 0 3.172)">
				<stop  offset="0.3652" style="stop-color:#F4DD8A"/>
				<stop  offset="0.7079" style="stop-color:#C9A438"/>
				<stop  offset="0.9663" style="stop-color:#815015"/>
			</linearGradient>
			<path fill="url(#SVGID_4_)" d="M35,19.3c0,1.2-0.8,2.2-1.9,2.3l-3.6,0.5l3.1,2.4l1,0.8l0,0c2.8-0.4,4.9-3,4.9-6
				c0-0.7-0.1-1.4-0.4-2.1l-1.2-0.6l-3.4-1.7l1.3,3.6C34.9,18.8,35,19,35,19.3z"/>
			
				<linearGradient id="SVGID_5_" gradientUnits="userSpaceOnUse" x1="162.4185" y1="21.0421" x2="157.2635" y2="12.7941" gradientTransform="matrix(1 0 0 1 0 3.172)">
				<stop  offset="0.3652" style="stop-color:#F4DD8A"/>
				<stop  offset="0.7079" style="stop-color:#C9A438"/>
				<stop  offset="0.9663" style="stop-color:#815015"/>
			</linearGradient>
			<path fill="url(#SVGID_5_)" d="M157.5,16.1l-1.2,0.6c-0.2,0.7-0.4,1.4-0.4,2.1c0,3.1,2.2,5.6,4.9,6l0,0l1-0.8l2.7-2.1v-0.2
				l-3.4-0.7c-1-0.2-1.8-1.2-1.8-2.3c0-0.3,0-0.5,0.1-0.8l1.2-3.5L157.5,16.1z"/>
			
				<linearGradient id="SVGID_6_" gradientUnits="userSpaceOnUse" x1="33.587" y1="96.1866" x2="159.9599" y2="21.702" gradientTransform="matrix(1 0 0 1 0 3.172)">
				<stop  offset="0" style="stop-color:#ECC861"/>
				<stop  offset="6.740000e-02" style="stop-color:#CFA244"/>
				<stop  offset="0.1236" style="stop-color:#B37C10"/>
				<stop  offset="0.1798" style="stop-color:#F4DD8A"/>
				<stop  offset="0.2175" style="stop-color:#F6E191"/>
				<stop  offset="0.2698" style="stop-color:#F9EDA5"/>
				<stop  offset="0.2978" style="stop-color:#FCF5B3"/>
				<stop  offset="0.3032" style="stop-color:#F8EBA0"/>
				<stop  offset="0.3121" style="stop-color:#F4DE88"/>
				<stop  offset="0.3226" style="stop-color:#F0D476"/>
				<stop  offset="0.3356" style="stop-color:#EDCD6A"/>
				<stop  offset="0.3539" style="stop-color:#ECC963"/>
				<stop  offset="0.4045" style="stop-color:#ECC861"/>
				<stop  offset="0.4551" style="stop-color:#CFA244"/>
				<stop  offset="0.5899" style="stop-color:#F4DD8A"/>
				<stop  offset="0.6629" style="stop-color:#FCF5B3"/>
				<stop  offset="0.6732" style="stop-color:#F4E89E"/>
				<stop  offset="0.6931" style="stop-color:#E7D27D"/>
				<stop  offset="0.7149" style="stop-color:#DCC162"/>
				<stop  offset="0.7392" style="stop-color:#D3B44F"/>
				<stop  offset="0.7672" style="stop-color:#CDAB42"/>
				<stop  offset="0.802" style="stop-color:#CAA63A"/>
				<stop  offset="0.8652" style="stop-color:#C9A438"/>
				<stop  offset="0.9663" style="stop-color:#815015"/>
			</linearGradient>
			<path fill="url(#SVGID_6_)" d="M96.9,5.2c0.4,0,0.8,0,1.2,0c6.3,0,28.9,0.9,57.5,12.4l-0.6-1.3c-0.3,0.9-0.4,1.8-0.4,2.7
				c0,3.8,2.3,7,5.6,7.6l-0.7-1.2c-0.7,4.1-1.4,10.3-1.4,16.8c0,5.1,0.5,9.7,1.4,13.5c1.9,7.7,2.9,15,2.9,21.6
				c0,21.1-9.5,34.6-28.2,39.9c-31.9,9.1-37.7,22.1-37.9,22.6l-0.2,0.5h1.6l-0.2-0.5c-0.2-0.5-6-13.5-37.9-22.6
				c-18.7-5.3-28.2-18.8-28.2-39.9c0-6.6,1-13.9,2.8-21.6c0.9-3.9,1.4-8.4,1.4-13.5c0-6.5-0.8-12.7-1.4-16.8l-0.8,1.2
				c3.3-0.5,5.9-3.8,5.9-7.7c0-1-0.2-1.9-0.5-2.8l-0.5,1.3C66.8,6,89.3,5.1,95.6,5.1C96.1,5.2,96.5,5.2,96.9,5.2z M96.9,3.2
				c-0.4,0-0.8,0-1.2,0c-6.3,0-29.1,0.9-57.9,12.5l-0.9,0.4l0.3,1c0.2,0.7,0.3,1.4,0.3,2c0,2.8-1.9,5.3-4.3,5.6l-0.9,0.1l0.2,1.1
				c0.6,4,1.4,10.1,1.4,16.4c0,4.9-0.5,9.3-1.4,13c-1.9,7.9-2.9,15.3-2.9,22.2c0,21.9,10.2,36.4,29.5,41.9
				c30.9,8.8,36.6,21.4,36.7,21.5l0.2,0.5l0.8,1.5l0.8-1.5l0.2-0.5c0.1-0.1,5.8-12.7,36.7-21.5c19.3-5.5,29.5-20,29.6-41.9
				c0-6.8-1-14.3-2.9-22.2c-0.9-3.7-1.4-8.1-1.4-13c0-6.3,0.8-12.4,1.4-16.4l0.2-1l-0.9-0.2c-2.4-0.5-4.1-2.8-4.1-5.6
				c0-0.7,0.1-1.3,0.3-2l0.3-1l-0.9-0.3C127.2,4.2,104.3,3.3,98,3.3C97.7,3.2,97.3,3.2,96.9,3.2z"/>
		</g>
	</g>
	<g>
		<path fill="#FFFFFF" d="M80.4,21.6c-0.2-0.5-0.4-1-1.1-1c-0.5,0-0.8,0.4-0.8,0.8c0,0.5,0.3,0.7,1,1.1c0.7,0.4,1.4,0.8,1.4,1.6
			c0,0.9-0.7,1.5-1.8,1.5c-0.3,0-0.6,0-0.8-0.1c-0.2-0.1-0.4-0.1-0.4-0.2c-0.1-0.2-0.2-0.8-0.2-1.3l0.3-0.1c0.1,0.5,0.6,1.3,1.3,1.3
			c0.5,0,0.8-0.3,0.8-0.9c0-0.5-0.4-0.8-1-1.1c-0.7-0.3-1.3-0.8-1.3-1.6s0.6-1.5,1.7-1.5c0.4,0,0.8,0.1,1,0.2c0,0.3,0.1,0.6,0.1,1.1
			L80.4,21.6z"/>
		<path fill="#FFFFFF" d="M81.5,25.5v-0.2c0.6-0.1,0.7-0.1,0.7-0.8v-3c0-0.7-0.1-0.7-0.7-0.8v-0.3h2.2v0.3c-0.6,0-0.7,0.1-0.7,0.8v3
			c0,0.7,0.1,0.7,0.7,0.8v0.2H81.5z"/>
		<path fill="#FFFFFF" d="M89.6,20.7c-0.4,0-0.6,0.1-0.6,0.5c0,0.2-0.1,0.6-0.1,1.3v3.1h-0.3l-3.3-3.9l0,0v1.8c0,0.7,0,1,0.1,1.3
			c0,0.4,0.2,0.5,0.7,0.5v0.2h-1.9v-0.2c0.4,0,0.6-0.1,0.6-0.5c0-0.3,0.1-0.6,0.1-1.3v-1.6c0-0.5,0-0.6-0.2-0.8
			c-0.2-0.2-0.3-0.3-0.7-0.3v-0.3h1.3l3.1,3.6l0,0v-1.6c0-0.7,0-1.1-0.1-1.3c0-0.3-0.2-0.5-0.8-0.5v-0.3h1.9L89.6,20.7L89.6,20.7z"
			/>
		<path fill="#FFFFFF" d="M94.8,24.1c-0.1,0.4-0.3,1-0.4,1.2c-0.2,0-0.9,0.2-1.4,0.2c-2,0-2.9-1.3-2.9-2.6c0-1.6,1.2-2.7,3-2.7
			c0.6,0,1.2,0.2,1.4,0.2c0.1,0.4,0.1,0.8,0.2,1.2h-0.3c-0.2-0.9-0.8-1.2-1.5-1.2c-1.2,0-1.8,1.1-1.8,2.2c0,1.4,0.8,2.4,1.9,2.4
			c0.7,0,1.2-0.4,1.5-1.2L94.8,24.1z"/>
		<path fill="#FFFFFF" d="M99.2,24.2c0,0.3-0.2,1-0.3,1.3H95v-0.2c0.7-0.1,0.7-0.1,0.7-0.8v-3c0-0.7-0.1-0.7-0.6-0.8v-0.3h3.6
			c0,0.2,0,0.7,0.1,1.2h-0.3c-0.1-0.3-0.2-0.5-0.3-0.7s-0.3-0.2-0.8-0.2h-0.5c-0.3,0-0.3,0-0.3,0.3v1.7h0.6c0.7,0,0.8,0,0.9-0.6h0.3
			v1.5h-0.3C98,23,97.9,23,97.2,23h-0.6v1.4c0,0.4,0,0.6,0.2,0.6c0.1,0.1,0.4,0.1,0.7,0.1c0.5,0,0.7-0.1,0.9-0.3
			c0.1-0.2,0.3-0.4,0.4-0.7L99.2,24.2z"/>
		<path fill="#FFFFFF" d="M101.9,25.5v-0.2c0.6,0,0.7-0.1,0.7-0.7v-3c0-0.4,0-0.5-0.4-0.5h-0.4v-0.2c0.5-0.1,1-0.2,1.6-0.4v4
			c0,0.5,0.1,0.6,0.7,0.7v0.2L101.9,25.5L101.9,25.5z"/>
		<path fill="#FFFFFF" d="M108.4,22.5c0,1.4-0.8,2.4-1.9,2.8c-0.3,0.1-0.9,0.2-1.2,0.2v-0.3c1.1-0.2,1.9-1,2.2-2l-0.4,0.2
			c-0.2,0.1-0.3,0.1-0.5,0.1c-0.9,0-1.5-0.6-1.5-1.4c0-0.7,0.6-1.7,1.7-1.7C107.9,20.5,108.4,21.4,108.4,22.5z M106,21.9
			c0,0.7,0.4,1.2,1,1.2c0.2,0,0.4-0.1,0.5-0.1c0-0.2,0-0.4,0-0.6c0-0.7-0.2-1.6-0.8-1.6C106.2,20.8,106,21.4,106,21.9z"/>
		<path fill="#FFFFFF" d="M112.2,22.5c0,1.4-0.8,2.4-1.9,2.8c-0.3,0.1-0.9,0.2-1.2,0.2v-0.3c1.1-0.2,1.9-1,2.2-2l-0.4,0.2
			c-0.2,0.1-0.3,0.1-0.5,0.1c-0.9,0-1.5-0.6-1.5-1.4c0-0.7,0.6-1.7,1.7-1.7C111.7,20.5,112.2,21.4,112.2,22.5z M109.8,21.9
			c0,0.7,0.4,1.2,1,1.2c0.2,0,0.4-0.1,0.5-0.1c0-0.2,0-0.4,0-0.6c0-0.7-0.2-1.6-0.9-1.6C110,20.8,109.8,21.4,109.8,21.9z"/>
		<path fill="#FFFFFF" d="M116.2,20.7c-0.7,1.6-1.5,3.1-2.2,4.7l-0.7,0.1l-0.1-0.1c0.9-1.3,1.7-2.8,2.3-4.1h-1.7
			c-0.5,0-0.6,0.1-0.8,0.5h-0.3c0.1-0.5,0.1-0.9,0.2-1.3L116.2,20.7L116.2,20.7z"/>
	</g>
	<g>
		
			<linearGradient id="SVGID_7_" gradientUnits="userSpaceOnUse" x1="14.2172" y1="84.1807" x2="21.3544" y2="80.8798" gradientTransform="matrix(1 0 0 1 0 3.172)">
			<stop  offset="5.600000e-03" style="stop-color:#970F16"/>
			<stop  offset="8.870000e-02" style="stop-color:#A72116"/>
			<stop  offset="0.249" style="stop-color:#D54B0E"/>
			<stop  offset="0.3202" style="stop-color:#EB5F00"/>
			<stop  offset="0.3709" style="stop-color:#E45705"/>
			<stop  offset="0.4464" style="stop-color:#CC4311"/>
			<stop  offset="0.537" style="stop-color:#A72116"/>
			<stop  offset="0.573" style="stop-color:#970F16"/>
			<stop  offset="1" style="stop-color:#75330F"/>
		</linearGradient>
		<path fill="url(#SVGID_7_)" d="M14,87.5l5.5-10.1l4.7,12c0.7,1.8-2,0.7-3,0.3c-1.8-0.8-3.5-2-5.4-2.5C15.3,87.1,14.3,87.1,14,87.5
			L14,87.5z"/>
		<path fill="#430001" d="M178.6,90.6c-0.1,0.7,0.1,0.6-0.6,1l0,0c-25.4,13-53.3,19.6-81.2,19.8l0,0l0,0l0,0
			c-27.9-0.1-55.8-6.7-81.2-19.8l0,0c-0.7-0.4-0.2-0.1-0.4-0.8c-0.2-1.1-0.3-2.3,0.6-2.1c0.4,0.1,0.8,0.2,1.2,0.4
			c4.2-7.7,8.4-15.5,12.7-23.2c21,10.8,44,16.2,67.1,16.4c23.1-0.1,46.1-5.6,67.1-16.4c4.2,7.7,8.5,15.5,12.7,23.2
			c0.4-0.2,0.8-0.3,1.2-0.4C178.7,88.5,178.8,89.5,178.6,90.6z"/>
		
			<linearGradient id="SVGID_8_" gradientUnits="userSpaceOnUse" x1="-777.06" y1="78.7401" x2="-760.0966" y2="65.8803" gradientTransform="matrix(-1 0 0 1 -585.6736 3.172)">
			<stop  offset="5.600000e-03" style="stop-color:#000000"/>
			<stop  offset="3.810000e-02" style="stop-color:#050000"/>
			<stop  offset="0.1162" style="stop-color:#1A0102"/>
			<stop  offset="0.2048" style="stop-color:#290302"/>
			<stop  offset="0.3068" style="stop-color:#350100"/>
			<stop  offset="0.4301" style="stop-color:#3D0001"/>
			<stop  offset="0.5971" style="stop-color:#410001"/>
			<stop  offset="1" style="stop-color:#430001"/>
		</linearGradient>
		<path fill="url(#SVGID_8_)" d="M192.3,79.2c1.6,0.9,2.3,3.3,0.2,5c-1.4,1.2-4.5,2-5.9,0.3c-0.5-0.6-0.6-1.5-0.8-2.2
			c-0.4-1.2-1-2.3-1.4-3.5c-0.7-2-1.2-4-1.8-6c-1.8-6.9,3.2-1.1,3.2-1.1L192.3,79.2z"/>
		
			<linearGradient id="SVGID_9_" gradientUnits="userSpaceOnUse" x1="185.2805" y1="77.8523" x2="196.9929" y2="73.4604" gradientTransform="matrix(1 0 0 1 0 3.172)">
			<stop  offset="5.600000e-03" style="stop-color:#B37C10"/>
			<stop  offset="5.070000e-02" style="stop-color:#BA871F"/>
			<stop  offset="0.138" style="stop-color:#CCA545"/>
			<stop  offset="0.2579" style="stop-color:#EAD789"/>
			<stop  offset="0.3202" style="stop-color:#FCF5B3"/>
			<stop  offset="0.3509" style="stop-color:#F9EFAB"/>
			<stop  offset="0.3966" style="stop-color:#EFDF93"/>
			<stop  offset="0.4517" style="stop-color:#DFC46E"/>
			<stop  offset="0.5135" style="stop-color:#C9A140"/>
			<stop  offset="0.573" style="stop-color:#B37C10"/>
			<stop  offset="1" style="stop-color:#75330F"/>
		</linearGradient>
		<path fill="url(#SVGID_9_)" d="M184.1,78.6l2,5c0,0,0.2-1,1.8-1.6l-1.5-3.9L184.1,78.6z"/>
		
			<linearGradient id="SVGID_10_" gradientUnits="userSpaceOnUse" x1="-0.6519" y1="79.3965" x2="13.4889" y2="71.7827" gradientTransform="matrix(1 0 0 1 0 3.172)">
			<stop  offset="5.600000e-03" style="stop-color:#000000"/>
			<stop  offset="3.810000e-02" style="stop-color:#050000"/>
			<stop  offset="0.1162" style="stop-color:#1A0102"/>
			<stop  offset="0.2048" style="stop-color:#290302"/>
			<stop  offset="0.3068" style="stop-color:#350100"/>
			<stop  offset="0.4301" style="stop-color:#3D0001"/>
			<stop  offset="0.5971" style="stop-color:#410001"/>
			<stop  offset="1" style="stop-color:#430001"/>
		</linearGradient>
		<path fill="url(#SVGID_10_)" d="M1.7,79.1c-2.1,1-2.3,3.3-0.2,5c1.8,1.4,4.8,2.4,5.7,0.3c0,0,0.6-5.4,4.1-11.7
			c3.5-6.3-3.2-1.1-3.2-1.1L1.7,79.1z"/>
		
			<linearGradient id="SVGID_11_" gradientUnits="userSpaceOnUse" x1="3.1409" y1="75.9478" x2="9.8954" y2="78.9751" gradientTransform="matrix(1 0 0 1 0 3.172)">
			<stop  offset="5.600000e-03" style="stop-color:#B37C10"/>
			<stop  offset="5.070000e-02" style="stop-color:#BA871F"/>
			<stop  offset="0.138" style="stop-color:#CCA545"/>
			<stop  offset="0.2579" style="stop-color:#EAD789"/>
			<stop  offset="0.3202" style="stop-color:#FCF5B3"/>
			<stop  offset="0.3509" style="stop-color:#F9EFAB"/>
			<stop  offset="0.3966" style="stop-color:#EFDF93"/>
			<stop  offset="0.4517" style="stop-color:#DFC46E"/>
			<stop  offset="0.5135" style="stop-color:#C9A140"/>
			<stop  offset="0.573" style="stop-color:#B37C10"/>
			<stop  offset="1" style="stop-color:#75330F"/>
		</linearGradient>
		<path fill="url(#SVGID_11_)" d="M9.2,78.5l-1.9,5.8c0,0-0.1-1.7-1.6-2.4L7.3,78L9.2,78.5z"/>
		
			<linearGradient id="SVGID_12_" gradientUnits="userSpaceOnUse" x1="13.6593" y1="84.028" x2="179.8979" y2="84.028" gradientTransform="matrix(1 0 0 1 0 3.172)">
			<stop  offset="2.810000e-02" style="stop-color:#6B380F"/>
			<stop  offset="0.2303" style="stop-color:#ECC861"/>
			<stop  offset="0.2978" style="stop-color:#CFA244"/>
			<stop  offset="0.3315" style="stop-color:#B37C10"/>
			<stop  offset="0.6124" style="stop-color:#F4DD8A"/>
			<stop  offset="0.6685" style="stop-color:#FCF5B3"/>
			<stop  offset="0.6689" style="stop-color:#FCF5B2"/>
			<stop  offset="0.6863" style="stop-color:#ECDB8A"/>
			<stop  offset="0.7045" style="stop-color:#DFC76B"/>
			<stop  offset="0.7239" style="stop-color:#D5B754"/>
			<stop  offset="0.7446" style="stop-color:#CEAC44"/>
			<stop  offset="0.7677" style="stop-color:#CAA63B"/>
			<stop  offset="0.7978" style="stop-color:#C9A438"/>
			<stop  offset="0.9888" style="stop-color:#815015"/>
		</linearGradient>
		<path fill="url(#SVGID_12_)" d="M179.9,88.3c-0.1,0.7-1.2,1.5-1.9,1.9l0,0c-25.4,13-53.3,19.6-81.2,19.8l0,0l0,0l0,0
			c-27.9-0.1-55.8-6.7-81.2-19.8l0,0c-0.7-0.4-1.7-1.2-1.9-1.9c-0.2-1.1,1.2-1.3,2.1-1.1c0.4,0.1,0.8,0.2,1.2,0.4
			c4.2-7.7,8.4-15.5,12.7-23.2c21,10.8,44,16.2,67.1,16.4c23.1-0.1,46.1-5.6,67.1-16.4c4.2,7.7,8.5,15.5,12.7,23.2
			c0.4-0.2,0.8-0.3,1.2-0.4C178.7,87,180.1,87.1,179.9,88.3z"/>
		
			<linearGradient id="SVGID_13_" gradientUnits="userSpaceOnUse" x1="177.8381" y1="78.8801" x2="161.9965" y2="85.8104" gradientTransform="matrix(1 0 0 1 0 3.172)">
			<stop  offset="5.600000e-03" style="stop-color:#6B380F"/>
			<stop  offset="4.200000e-02" style="stop-color:#703F12"/>
			<stop  offset="9.760001e-02" style="stop-color:#81511E"/>
			<stop  offset="0.1655" style="stop-color:#9E7334"/>
			<stop  offset="0.2422" style="stop-color:#C9A75C"/>
			<stop  offset="0.3034" style="stop-color:#F4DD8A"/>
			<stop  offset="0.4132" style="stop-color:#A07536"/>
			<stop  offset="0.5" style="stop-color:#6B380F"/>
			<stop  offset="1" style="stop-color:#430001"/>
		</linearGradient>
		<path fill="url(#SVGID_13_)" d="M179.7,87.5l-5.5-10.1l-4.7,12c-0.7,1.8,2,0.7,3,0.3c1.8-0.8,3.5-2,5.4-2.5
			C178.4,87.1,179.4,87.1,179.7,87.5L179.7,87.5z"/>
		
			<linearGradient id="SVGID_14_" gradientUnits="userSpaceOnUse" x1="15.7961" y1="78.8929" x2="27.1677" y2="83.59" gradientTransform="matrix(1 0 0 1 0 3.172)">
			<stop  offset="5.600000e-03" style="stop-color:#815015"/>
			<stop  offset="3.500000e-02" style="stop-color:#8F601A"/>
			<stop  offset="9.160000e-02" style="stop-color:#B48B2D"/>
			<stop  offset="0.118" style="stop-color:#C9A438"/>
			<stop  offset="0.2303" style="stop-color:#F4DD8A"/>
			<stop  offset="0.3202" style="stop-color:#FCF5B3"/>
			<stop  offset="0.3609" style="stop-color:#FBF0AB"/>
			<stop  offset="0.4213" style="stop-color:#F6E394"/>
			<stop  offset="0.4438" style="stop-color:#F4DD8A"/>
			<stop  offset="0.573" style="stop-color:#B37C10"/>
			<stop  offset="0.7" style="stop-color:#B57E11"/>
			<stop  offset="0.7471" style="stop-color:#B98417"/>
			<stop  offset="0.7808" style="stop-color:#C18F23"/>
			<stop  offset="0.8083" style="stop-color:#CD9E34"/>
			<stop  offset="0.8316" style="stop-color:#DDB34A"/>
			<stop  offset="0.8483" style="stop-color:#ECC861"/>
			<stop  offset="1" style="stop-color:#75330F"/>
		</linearGradient>
		<path fill="url(#SVGID_14_)" d="M14,87.5l5.5-10.1l4.8,12c0.7,1.8-2,0.7-3,0.3c-1.8-0.8-3.5-2-5.4-2.5
			C15.2,87.1,14.3,87.1,14,87.5L14,87.5z"/>
		
			<linearGradient id="SVGID_15_" gradientUnits="userSpaceOnUse" x1="160.834" y1="73.6736" x2="184.8178" y2="60.7223" gradientTransform="matrix(1 0 0 1 0 3.172)">
			<stop  offset="5.600000e-03" style="stop-color:#815015"/>
			<stop  offset="3.500000e-02" style="stop-color:#8F601A"/>
			<stop  offset="9.160000e-02" style="stop-color:#B48B2D"/>
			<stop  offset="0.118" style="stop-color:#C9A438"/>
			<stop  offset="0.2303" style="stop-color:#F4DD8A"/>
			<stop  offset="0.3202" style="stop-color:#FCF5B3"/>
			<stop  offset="0.3609" style="stop-color:#FBF0AB"/>
			<stop  offset="0.4213" style="stop-color:#F6E394"/>
			<stop  offset="0.4438" style="stop-color:#F4DD8A"/>
			<stop  offset="0.573" style="stop-color:#B37C10"/>
			<stop  offset="0.7" style="stop-color:#B57E11"/>
			<stop  offset="0.7471" style="stop-color:#B98417"/>
			<stop  offset="0.7808" style="stop-color:#C18F23"/>
			<stop  offset="0.8083" style="stop-color:#CD9E34"/>
			<stop  offset="0.8316" style="stop-color:#DDB34A"/>
			<stop  offset="0.8483" style="stop-color:#ECC861"/>
			<stop  offset="1" style="stop-color:#75330F"/>
		</linearGradient>
		<path fill="url(#SVGID_15_)" d="M154.1,62c5.1-6,12.4-9.9,20.4-10.7c4.1,10.1,11.3,20.6,18.8,28.9c-4-4.4-19,3.6-24.1,9.7
			C165.7,79.8,160.4,70.5,154.1,62z"/>
		
			<linearGradient id="SVGID_16_" gradientUnits="userSpaceOnUse" x1="10.2297" y1="61.3466" x2="30.9737" y2="73.03" gradientTransform="matrix(1 0 0 1 0 3.172)">
			<stop  offset="5.600000e-03" style="stop-color:#815015"/>
			<stop  offset="3.500000e-02" style="stop-color:#8F601A"/>
			<stop  offset="9.160000e-02" style="stop-color:#B48B2D"/>
			<stop  offset="0.118" style="stop-color:#C9A438"/>
			<stop  offset="0.2303" style="stop-color:#F4DD8A"/>
			<stop  offset="0.3202" style="stop-color:#FCF5B3"/>
			<stop  offset="0.3609" style="stop-color:#FBF0AB"/>
			<stop  offset="0.4213" style="stop-color:#F6E394"/>
			<stop  offset="0.4438" style="stop-color:#F4DD8A"/>
			<stop  offset="0.573" style="stop-color:#B37C10"/>
			<stop  offset="0.7" style="stop-color:#B57E11"/>
			<stop  offset="0.7471" style="stop-color:#B98417"/>
			<stop  offset="0.7808" style="stop-color:#C18F23"/>
			<stop  offset="0.8083" style="stop-color:#CD9E34"/>
			<stop  offset="0.8316" style="stop-color:#DDB34A"/>
			<stop  offset="0.8483" style="stop-color:#ECC861"/>
			<stop  offset="1" style="stop-color:#75330F"/>
		</linearGradient>
		<path fill="url(#SVGID_16_)" d="M39.6,62c-5.1-6-12.4-9.9-20.4-10.7C15.1,61.4,7.9,71.9,0.4,80.2c4-4.4,19,3.6,24.1,9.7
			C28,79.8,33.3,70.5,39.6,62z"/>
	</g>
	<g>
		
			<linearGradient id="SVGID_17_" gradientUnits="userSpaceOnUse" x1="79.6368" y1="119.1809" x2="115.1769" y2="119.1809" gradientTransform="matrix(1 0 0 1 0 3.172)">
			<stop  offset="2.810000e-02" style="stop-color:#6B380F"/>
			<stop  offset="0.2303" style="stop-color:#ECC861"/>
			<stop  offset="0.2978" style="stop-color:#CFA244"/>
			<stop  offset="0.3315" style="stop-color:#B37C10"/>
			<stop  offset="0.6124" style="stop-color:#F4DD8A"/>
			<stop  offset="0.6685" style="stop-color:#FCF5B3"/>
			<stop  offset="0.6689" style="stop-color:#FCF5B2"/>
			<stop  offset="0.6863" style="stop-color:#ECDB8A"/>
			<stop  offset="0.7045" style="stop-color:#DFC76B"/>
			<stop  offset="0.7239" style="stop-color:#D5B754"/>
			<stop  offset="0.7446" style="stop-color:#CEAC44"/>
			<stop  offset="0.7677" style="stop-color:#CAA63B"/>
			<stop  offset="0.7978" style="stop-color:#C9A438"/>
			<stop  offset="0.9888" style="stop-color:#815015"/>
		</linearGradient>
		<path fill="url(#SVGID_17_)" d="M98.2,128.9c0.1,0,0.2,0,0.2,0c0.3,0,0.4,0.1,0.5-0.3s0-0.8,0.1-1.1c0.2-0.7,0.9-1.2,1.5-1.5
			c0.7-0.4,1.4-1,1.7-1.8c0.4-1.1-0.1-2.8-1.5-2.7c-0.8,0.1-1.3,1.2-0.8,1.8c0.2,0.2,0.7,0.3,1,0.2c0.1,0,0.2-0.1,0.2-0.1
			c0.1,0,0.1,0.4,0.1,0.5c-0.1,0.4-0.4,0.8-0.8,0.9c0.1-0.6-0.3-1.1-0.7-1.1c-0.6-0.1-0.9,0.3-1.1,0.8c-0.2-1.1,0.5-2.9,1.6-3.1
			c0.4-0.1,0.9-0.1,1.3-0.4c0.5-0.4,0.8-0.9,0.7-1.5c-0.1-0.5-0.3-0.9-0.8-1.2c-0.2-0.1-0.4-0.2-0.7-0.2c-0.2,0-0.5,0.2-0.8,0.1
			c0.4-1-0.3-2.3-1.3-2.6c-0.2-0.1-0.4,0-0.6-0.1c-0.4-0.1-0.9-0.4-1.1-0.8c0,0-0.2-0.6-0.2-0.4c-0.2,0.5-0.5,0.9-1,1.1
			c-0.6,0.3-1.5,0.3-1.9,1c-0.4,0.5-0.6,1.3-0.3,1.9c-0.1-0.2-0.8-0.2-1-0.2c-1.3,0.2-1.5,1.8-0.8,2.6c0.4,0.4,0.9,0.5,1.4,0.6
			c1,0.3,1.6,1.3,1.8,2.3c0.1,0.3,0.1,0.6,0,0.9c-0.2-0.4-0.5-0.9-1.1-0.8c-0.3,0.1-0.6,0.4-0.7,0.8c0,0.2,0,0.3,0,0.3
			c-0.1,0-0.2-0.1-0.3-0.2c-0.2-0.2-0.3-0.4-0.4-0.6c0-0.1-0.1-0.5,0-0.6l0.2,0.1c1.6,0.3,1.5-2,0.2-2.1c-0.4,0-0.8,0.1-1,0.3
			c-0.4,0.3-0.7,0.9-0.6,1.5c0,0.7,0.3,1.4,0.8,1.9c0.9,0.9,2.5,1.3,2.6,2.7c0,0.2,0,0.9,0.1,1s0.2,0,0.3,0c0.5,0,0.9,0.4,1.1,0.8
			c0.1,0.2,0.2,0.3,0.3,0.5c0,0.1,0.1,0.3,0.1,0.3c0.2,0.2,0.2-0.3,0.3-0.4c0.1-0.2,0.2-0.4,0.3-0.6C97.6,129.3,97.8,129,98.2,128.9
			z M100.3,119.2c0.2-0.1,0.7-0.3,0.9,0c0.3,0.4-0.4,0.8-0.6,1c-0.3,0.2-0.7,0.2-1,0.4C99.7,120.1,99.9,119.5,100.3,119.2z
			 M93,119.9c-0.2-0.1-0.6-0.4-0.4-0.8c0.1-0.2,0.7-0.1,0.9,0c0.4,0.3,0.5,0.9,0.8,1.3C93.9,120.4,93.4,120.2,93,119.9z M96.9,128.2
			c-0.1,0-0.1-0.3,0-0.4C97.1,127.7,97.1,128.2,96.9,128.2z M97.2,126.6c-0.2,0-0.3,0-0.6,0C96.4,126,97.4,126,97.2,126.6z
			 M97.3,125.2c-0.1,0.1-0.3-0.1-0.5-0.1c-0.1,0-0.3,0.2-0.4,0.1s0.2-0.2,0.2-0.3c0.1-0.1,0.3-0.1,0.4,0
			C97.2,125,97.4,125.1,97.3,125.2z M97,123.7c-0.1,0-0.2,0-0.3,0.1c-0.1,0-0.2,0.1-0.3,0.1c-0.2-0.1,0.1-0.4,0.2-0.4
			c0.3-0.1,0.8-0.1,0.9,0.3c0,0.1,0,0.2-0.1,0.2C97.3,123.9,97.2,123.8,97,123.7C97.1,123.7,97,123.7,97,123.7z M97.1,120.7
			C97.1,120.7,97.1,120.8,97.1,120.7c-0.2,0.4-0.1,0.7-0.2,1c0.1-0.2-0.1-0.7-0.2-0.9c-0.1-0.3-0.2-0.5-0.4-0.8
			c-0.5-0.8-1.6-1.6-1.4-2.6c0-0.3,0.4-0.5,0.7-0.5c0.4,0.1,0.7,0.4,0.9,0.7c0.1-0.3,0.7-0.3,0.8,0c0.3-0.2,0.5-0.6,0.9-0.7
			c0.6-0.1,0.8,0.5,0.7,1C98.6,119,97.6,119.7,97.1,120.7z"/>
		
			<linearGradient id="SVGID_18_" gradientUnits="userSpaceOnUse" x1="79.6726" y1="120.5427" x2="115.1001" y2="120.5427" gradientTransform="matrix(1 0 0 1 0 3.172)">
			<stop  offset="2.810000e-02" style="stop-color:#6B380F"/>
			<stop  offset="0.2303" style="stop-color:#ECC861"/>
			<stop  offset="0.2978" style="stop-color:#CFA244"/>
			<stop  offset="0.3315" style="stop-color:#B37C10"/>
			<stop  offset="0.6124" style="stop-color:#F4DD8A"/>
			<stop  offset="0.6685" style="stop-color:#FCF5B3"/>
			<stop  offset="0.6689" style="stop-color:#FCF5B2"/>
			<stop  offset="0.6863" style="stop-color:#ECDB8A"/>
			<stop  offset="0.7045" style="stop-color:#DFC76B"/>
			<stop  offset="0.7239" style="stop-color:#D5B754"/>
			<stop  offset="0.7446" style="stop-color:#CEAC44"/>
			<stop  offset="0.7677" style="stop-color:#CAA63B"/>
			<stop  offset="0.7978" style="stop-color:#C9A438"/>
			<stop  offset="0.9888" style="stop-color:#815015"/>
		</linearGradient>
		<path fill="url(#SVGID_18_)" d="M94.5,128.7c0.1,0.1,0.1,0.1,0.2,0s0.1-0.1,0.1-0.2c0-0.4-0.2-0.7-0.4-1c-0.3-0.5-0.7-0.9-1.1-1.2
			c-0.5-0.3-1.1-0.6-1.4-1.1c-0.3-0.4-0.5-1.1-0.6-1.7c-0.2-1-0.5-2.1-1-2.8c-0.9-1.3-2.9-2.6-4.5-1.8c-0.4,0.2-0.9,0.6-1.1,1
			c-0.2,0.4-0.4,0.9-0.4,1.4c0.1,0.4,0.5,1,1.1,0.9s0.9-0.7,0.8-1.3c0-0.1-0.1-0.3-0.2-0.4c-0.1-0.4,0-0.7,0.4-0.8
			c-0.2,0.3,0,0.9,0.4,1c0.4,0.1,0.6-0.2,0.9-0.3c0.5-0.2,0.9-0.1,1.4,0.1c0.1,0,0.4,0.3,0.4,0.4c0,0-0.2,0.1-0.3,0.2
			c-0.3,0.4-0.1,1,0.2,1.3c0.5,0.4,1.1,0.7,1.4,1.4c0.1,0.2,0.1,0.5,0.1,0.7c0.3,1,1,1.6,1.7,2.2c-0.1,0-0.6-0.1-0.7-0.1
			c-0.6-0.1-1.1-0.5-1.2-1.2c0-0.4,0.1-0.8-0.1-1c-0.1-0.1-0.3-0.2-0.5-0.2c-0.8,0.1-0.9,1.2-0.6,1.8l0,0l0,0
			c-0.6-0.2-0.9-1.3-0.8-1.9s0.7-1.2,0.4-1.8c-0.1-0.4-0.7-0.4-1-0.3c-0.3,0.2-0.5,0.5-0.6,0.9c-0.2,0.7,0,1.4,0.4,2
			c0.6,0.9,1.6,1.3,2.5,1.6c1.4,0.5,3.3,0.1,4,1.8C94.4,128.4,94.4,128.6,94.5,128.7z"/>
		
			<linearGradient id="SVGID_19_" gradientUnits="userSpaceOnUse" x1="79.5845" y1="120.5281" x2="115.1394" y2="120.5281" gradientTransform="matrix(1 0 0 1 0 3.172)">
			<stop  offset="2.810000e-02" style="stop-color:#6B380F"/>
			<stop  offset="0.2303" style="stop-color:#ECC861"/>
			<stop  offset="0.2978" style="stop-color:#CFA244"/>
			<stop  offset="0.3315" style="stop-color:#B37C10"/>
			<stop  offset="0.6124" style="stop-color:#F4DD8A"/>
			<stop  offset="0.6685" style="stop-color:#FCF5B3"/>
			<stop  offset="0.6689" style="stop-color:#FCF5B2"/>
			<stop  offset="0.6863" style="stop-color:#ECDB8A"/>
			<stop  offset="0.7045" style="stop-color:#DFC76B"/>
			<stop  offset="0.7239" style="stop-color:#D5B754"/>
			<stop  offset="0.7446" style="stop-color:#CEAC44"/>
			<stop  offset="0.7677" style="stop-color:#CAA63B"/>
			<stop  offset="0.7978" style="stop-color:#C9A438"/>
			<stop  offset="0.9888" style="stop-color:#815015"/>
		</linearGradient>
		<path fill="url(#SVGID_19_)" d="M109.7,120.7c-0.1-0.3-0.2-0.6-0.4-0.8c-0.1-0.1-0.2-0.3-0.3-0.4c-0.2-0.2-0.4-0.3-0.6-0.4
			c-0.2-0.1-0.4-0.2-0.7-0.3c-0.5-0.1-1-0.1-1.5,0c-1,0.3-1.8,0.9-2.4,1.7c-0.2,0.2-0.3,0.5-0.4,0.7s-0.2,0.5-0.4,0.7
			c-0.2,0.3-0.2,0.7-0.3,1.1c-0.1,0.6-0.2,1.2-0.5,1.8c-0.1,0.1-0.1,0.3-0.2,0.4c-0.4,0.5-1.1,0.8-1.7,1.2c-0.3,0.2-0.5,0.4-0.6,0.7
			c-0.2,0.3-0.5,0.7-0.6,1.1c0,0.1-0.1,0.3-0.1,0.4c0.1,0.1,0.2,0.1,0.3,0c0.1-0.1,0.1-0.3,0.1-0.5c0.2-0.6,0.8-1.1,1.5-1.3
			c0.4-0.1,0.9-0.2,1.3-0.2c0.4,0,0.9-0.1,1.3-0.2c0.8-0.2,1.7-0.6,2.2-1.3c0.1-0.2,0.3-0.4,0.4-0.6c0.2-0.4,0.3-0.9,0.2-1.3
			c0-0.2,0-0.3-0.1-0.5c-0.1-0.4-0.4-0.8-0.8-0.9c-0.1,0-0.3,0.1-0.4,0.1c-0.2,0.1-0.3,0.3-0.3,0.6c0,0.4,0.2,0.7,0.3,1
			c0.1,0.4,0.2,0.7,0.1,1.1s-0.2,0.9-0.6,1.1c0,0-0.2,0-0.2,0.1c0.4-0.6,0.2-1.7-0.6-1.8c-0.1,0-0.2,0-0.3,0
			c-0.5,0.2-0.2,0.7-0.3,1.2c0,0.3-0.1,0.5-0.3,0.7c-0.3,0.3-0.6,0.4-1,0.5c-0.2,0-0.4,0.1-0.6,0.1l0.2-0.2c0.6-0.4,1.1-0.9,1.4-1.6
			c0.1-0.2,0.2-0.4,0.2-0.7c0-0.2,0.1-0.5,0.2-0.7c0.2-0.3,0.4-0.6,0.7-0.7c0.2-0.2,0.5-0.3,0.7-0.5c0.2-0.2,0.3-0.5,0.2-0.7
			c0-0.1,0-0.3-0.1-0.4c-0.1-0.1-0.3-0.1-0.3-0.2c0-0.2,0.4-0.3,0.5-0.4c0.2-0.1,0.5-0.2,0.8-0.2c0.2,0,0.3,0,0.5,0.1
			c0.2,0.1,0.4,0.3,0.7,0.3c0.7,0.1,0.8-0.6,0.7-1c0.3,0.1,0.4,0.3,0.4,0.5c0,0.3-0.1,0.5-0.2,0.8c-0.1,0.3,0,0.6,0.2,0.9
			c0.1,0.2,0.4,0.4,0.6,0.4c0.3,0,0.5-0.1,0.7-0.2c0.1-0.1,0.3-0.3,0.3-0.5C109.7,121.3,109.7,121,109.7,120.7z"/>
		
			<linearGradient id="SVGID_20_" gradientUnits="userSpaceOnUse" x1="79.5828" y1="126.6559" x2="115.2085" y2="126.6559" gradientTransform="matrix(1 0 0 1 0 3.172)">
			<stop  offset="2.810000e-02" style="stop-color:#6B380F"/>
			<stop  offset="0.2303" style="stop-color:#ECC861"/>
			<stop  offset="0.2978" style="stop-color:#CFA244"/>
			<stop  offset="0.3315" style="stop-color:#B37C10"/>
			<stop  offset="0.6124" style="stop-color:#F4DD8A"/>
			<stop  offset="0.6685" style="stop-color:#FCF5B3"/>
			<stop  offset="0.6689" style="stop-color:#FCF5B2"/>
			<stop  offset="0.6863" style="stop-color:#ECDB8A"/>
			<stop  offset="0.7045" style="stop-color:#DFC76B"/>
			<stop  offset="0.7239" style="stop-color:#D5B754"/>
			<stop  offset="0.7446" style="stop-color:#CEAC44"/>
			<stop  offset="0.7677" style="stop-color:#CAA63B"/>
			<stop  offset="0.7978" style="stop-color:#C9A438"/>
			<stop  offset="0.9888" style="stop-color:#815015"/>
		</linearGradient>
		<path fill="url(#SVGID_20_)" d="M96.2,130.2C96.3,130.2,96.3,130.2,96.2,130.2c0.2-0.1-0.1-0.3-0.1-0.4c-0.2-0.2-0.5-0.4-0.8-0.5
			c-0.5-0.2-1.1,0.1-1.1,0.5c-0.1,0.4,0.3,0.7,0.7,0.6c0.3,0,0.5-0.3,0.7-0.3c0.1,0,0.3,0,0.4,0.1C96.1,130.1,96.1,130.2,96.2,130.2
			z"/>
		
			<linearGradient id="SVGID_21_" gradientUnits="userSpaceOnUse" x1="79.63" y1="126.6486" x2="115.1295" y2="126.6486" gradientTransform="matrix(1 0 0 1 0 3.172)">
			<stop  offset="2.810000e-02" style="stop-color:#6B380F"/>
			<stop  offset="0.2303" style="stop-color:#ECC861"/>
			<stop  offset="0.2978" style="stop-color:#CFA244"/>
			<stop  offset="0.3315" style="stop-color:#B37C10"/>
			<stop  offset="0.6124" style="stop-color:#F4DD8A"/>
			<stop  offset="0.6685" style="stop-color:#FCF5B3"/>
			<stop  offset="0.6689" style="stop-color:#FCF5B2"/>
			<stop  offset="0.6863" style="stop-color:#ECDB8A"/>
			<stop  offset="0.7045" style="stop-color:#DFC76B"/>
			<stop  offset="0.7239" style="stop-color:#D5B754"/>
			<stop  offset="0.7446" style="stop-color:#CEAC44"/>
			<stop  offset="0.7677" style="stop-color:#CAA63B"/>
			<stop  offset="0.7978" style="stop-color:#C9A438"/>
			<stop  offset="0.9888" style="stop-color:#815015"/>
		</linearGradient>
		<path fill="url(#SVGID_21_)" d="M99,129.2c-0.3,0-0.6,0.1-0.8,0.2c-0.2,0.2-0.7,0.4-0.7,0.8c0,0,0,0.1,0.1,0.1s0.1-0.1,0.2-0.1
			c0.1,0,0.2-0.1,0.3-0.1c0.5-0.1,0.8,0.5,1.3,0.3c0.2-0.1,0.4-0.3,0.3-0.6c0-0.1-0.2-0.3-0.2-0.4C99.3,129.3,99.1,129.2,99,129.2z"
			/>
		
			<linearGradient id="SVGID_22_" gradientUnits="userSpaceOnUse" x1="78.6574" y1="127.5935" x2="116.2068" y2="127.5935" gradientTransform="matrix(1 0 0 1 0 3.172)">
			<stop  offset="2.810000e-02" style="stop-color:#6B380F"/>
			<stop  offset="0.2303" style="stop-color:#ECC861"/>
			<stop  offset="0.2978" style="stop-color:#CFA244"/>
			<stop  offset="0.3315" style="stop-color:#B37C10"/>
			<stop  offset="0.6124" style="stop-color:#F4DD8A"/>
			<stop  offset="0.6685" style="stop-color:#FCF5B3"/>
			<stop  offset="0.6689" style="stop-color:#FCF5B2"/>
			<stop  offset="0.6863" style="stop-color:#ECDB8A"/>
			<stop  offset="0.7045" style="stop-color:#DFC76B"/>
			<stop  offset="0.7239" style="stop-color:#D5B754"/>
			<stop  offset="0.7446" style="stop-color:#CEAC44"/>
			<stop  offset="0.7677" style="stop-color:#CAA63B"/>
			<stop  offset="0.7978" style="stop-color:#C9A438"/>
			<stop  offset="0.9888" style="stop-color:#815015"/>
		</linearGradient>
		<path fill="url(#SVGID_22_)" d="M96.4,130.7c-0.1,0-0.1-0.1-0.2-0.1c-0.3-0.2-0.7-0.3-0.9,0c-0.2,0.2-0.1,0.5,0.2,0.5
			c0.2,0.1,0.5-0.2,0.7-0.2c0.1,0,0.2,0,0.3,0l0.2,0.1l-0.1-0.2C96.5,130.8,96.4,130.8,96.4,130.7z"/>
		
			<linearGradient id="SVGID_23_" gradientUnits="userSpaceOnUse" x1="78.6347" y1="127.5882" x2="116.1181" y2="127.5882" gradientTransform="matrix(1 0 0 1 0 3.172)">
			<stop  offset="2.810000e-02" style="stop-color:#6B380F"/>
			<stop  offset="0.2303" style="stop-color:#ECC861"/>
			<stop  offset="0.2978" style="stop-color:#CFA244"/>
			<stop  offset="0.3315" style="stop-color:#B37C10"/>
			<stop  offset="0.6124" style="stop-color:#F4DD8A"/>
			<stop  offset="0.6685" style="stop-color:#FCF5B3"/>
			<stop  offset="0.6689" style="stop-color:#FCF5B2"/>
			<stop  offset="0.6863" style="stop-color:#ECDB8A"/>
			<stop  offset="0.7045" style="stop-color:#DFC76B"/>
			<stop  offset="0.7239" style="stop-color:#D5B754"/>
			<stop  offset="0.7446" style="stop-color:#CEAC44"/>
			<stop  offset="0.7677" style="stop-color:#CAA63B"/>
			<stop  offset="0.7978" style="stop-color:#C9A438"/>
			<stop  offset="0.9888" style="stop-color:#815015"/>
		</linearGradient>
		<path fill="url(#SVGID_23_)" d="M97.9,130.4C97.9,130.4,97.9,130.5,97.9,130.4c-0.3,0.1-0.5,0.3-0.7,0.5c0,0-0.1,0.1,0,0.1
			c0.2,0,0.3-0.2,0.5-0.1c0.2,0,0.4,0.3,0.6,0.2c0.2-0.1,0.3-0.3,0.2-0.5C98.4,130.5,98.1,130.4,97.9,130.4z"/>
	</g>
	<g>
		<g>
			
				<linearGradient id="SVGID_24_" gradientUnits="userSpaceOnUse" x1="112.8043" y1="3.3358" x2="40.0869" y2="58.5466" gradientTransform="matrix(1 0 0 1 0 3.172)">
				<stop  offset="0" style="stop-color:#F6E595"/>
				<stop  offset="8.790000e-02" style="stop-color:#B37C10"/>
				<stop  offset="0.1648" style="stop-color:#C89B36"/>
				<stop  offset="0.2308" style="stop-color:#F4DD8A"/>
				<stop  offset="0.3132" style="stop-color:#FCF5B3"/>
				<stop  offset="0.3179" style="stop-color:#F8EBA0"/>
				<stop  offset="0.3255" style="stop-color:#F4DE88"/>
				<stop  offset="0.3345" style="stop-color:#F0D476"/>
				<stop  offset="0.3456" style="stop-color:#EDCD6A"/>
				<stop  offset="0.3612" style="stop-color:#ECC963"/>
				<stop  offset="0.4045" style="stop-color:#ECC861"/>
				<stop  offset="0.4551" style="stop-color:#CFA244"/>
				<stop  offset="0.5899" style="stop-color:#F4DD8A"/>
				<stop  offset="0.6629" style="stop-color:#FCF5B3"/>
				<stop  offset="0.6732" style="stop-color:#F4E89E"/>
				<stop  offset="0.6931" style="stop-color:#E7D27D"/>
				<stop  offset="0.7149" style="stop-color:#DCC162"/>
				<stop  offset="0.7392" style="stop-color:#D3B44F"/>
				<stop  offset="0.7672" style="stop-color:#CDAB42"/>
				<stop  offset="0.802" style="stop-color:#CAA63A"/>
				<stop  offset="0.8652" style="stop-color:#C9A438"/>
				<stop  offset="0.9451" style="stop-color:#815015"/>
			</linearGradient>
			<path fill="url(#SVGID_24_)" d="M53.5,38.5v11H54c1.6,0,2.7-0.5,3.5-1.6c0.7-1.1,1.2-2.7,1.4-4.8h0.7v14.1h-0.7
				c-0.2-1.5-0.5-2.8-0.9-3.8c-0.5-1-1-1.6-1.7-2c-0.6-0.3-1.5-0.5-2.7-0.5v7.6c0,1.5,0.1,2.4,0.2,2.7c0.1,0.3,0.3,0.6,0.7,0.8
				c0.3,0.2,0.8,0.3,1.6,0.3h1.5c2.3,0,4.2-0.6,5.6-1.7c1.4-1.2,2.4-2.9,3-5.3h0.7l-1.1,8.6H44.1v-0.7h0.8c0.7,0,1.3-0.1,1.8-0.4
				c0.3-0.2,0.6-0.5,0.7-1c0.1-0.3,0.2-1.2,0.2-2.5V41.6c0-1.2,0-2-0.1-2.2c-0.1-0.5-0.4-0.8-0.7-1.1c-0.5-0.4-1.1-0.6-1.9-0.6h-0.8
				V37h21v8h-0.7c-0.4-1.9-0.9-3.3-1.5-4.2c-0.7-0.8-1.6-1.5-2.8-1.9c-0.7-0.2-2-0.4-3.9-0.4C56.1,38.5,53.5,38.5,53.5,38.5z"/>
			
				<linearGradient id="SVGID_25_" gradientUnits="userSpaceOnUse" x1="121.3567" y1="14.7346" x2="48.0448" y2="70.3971" gradientTransform="matrix(1 0 0 1 0 3.172)">
				<stop  offset="0" style="stop-color:#F6E595"/>
				<stop  offset="8.790000e-02" style="stop-color:#B37C10"/>
				<stop  offset="0.1648" style="stop-color:#C89B36"/>
				<stop  offset="0.2308" style="stop-color:#F4DD8A"/>
				<stop  offset="0.3132" style="stop-color:#FCF5B3"/>
				<stop  offset="0.3179" style="stop-color:#F8EBA0"/>
				<stop  offset="0.3255" style="stop-color:#F4DE88"/>
				<stop  offset="0.3345" style="stop-color:#F0D476"/>
				<stop  offset="0.3456" style="stop-color:#EDCD6A"/>
				<stop  offset="0.3612" style="stop-color:#ECC963"/>
				<stop  offset="0.4045" style="stop-color:#ECC861"/>
				<stop  offset="0.4551" style="stop-color:#CFA244"/>
				<stop  offset="0.5899" style="stop-color:#F4DD8A"/>
				<stop  offset="0.6629" style="stop-color:#FCF5B3"/>
				<stop  offset="0.6732" style="stop-color:#F4E89E"/>
				<stop  offset="0.6931" style="stop-color:#E7D27D"/>
				<stop  offset="0.7149" style="stop-color:#DCC162"/>
				<stop  offset="0.7392" style="stop-color:#D3B44F"/>
				<stop  offset="0.7672" style="stop-color:#CDAB42"/>
				<stop  offset="0.802" style="stop-color:#CAA63A"/>
				<stop  offset="0.8652" style="stop-color:#C9A438"/>
				<stop  offset="0.9451" style="stop-color:#815015"/>
			</linearGradient>
			<path fill="url(#SVGID_25_)" d="M90.5,54.5L89.6,64H67.3v-0.7h0.8c0.7,0,1.3-0.1,1.8-0.4c0.3-0.2,0.6-0.5,0.7-1
				c0.1-0.3,0.2-1.2,0.2-2.5V41.6c0-1.4-0.1-2.2-0.2-2.6c-0.1-0.3-0.4-0.6-0.8-0.9c-0.4-0.3-1-0.4-1.7-0.4h-0.8V37h13.4v0.7h-1.1
				c-0.7,0-1.3,0.1-1.8,0.4c-0.3,0.2-0.6,0.5-0.8,1c-0.1,0.3-0.2,1.1-0.2,2.5v17.2c0,1.4,0.1,2.3,0.2,2.6c0.1,0.4,0.4,0.7,0.9,0.8
				c0.3,0.1,1.1,0.2,2.2,0.2h2.1c1.3,0,2.4-0.3,3.3-0.8s1.7-1.3,2.3-2.4c0.7-1.1,1.3-2.7,1.8-4.8C89.8,54.5,90.5,54.5,90.5,54.5z"/>
			
				<linearGradient id="SVGID_26_" gradientUnits="userSpaceOnUse" x1="127.6085" y1="24.2879" x2="54.275" y2="79.9666" gradientTransform="matrix(1 0 0 1 0 3.172)">
				<stop  offset="0" style="stop-color:#F6E595"/>
				<stop  offset="8.790000e-02" style="stop-color:#B37C10"/>
				<stop  offset="0.1648" style="stop-color:#C89B36"/>
				<stop  offset="0.2308" style="stop-color:#F4DD8A"/>
				<stop  offset="0.3132" style="stop-color:#FCF5B3"/>
				<stop  offset="0.3179" style="stop-color:#F8EBA0"/>
				<stop  offset="0.3255" style="stop-color:#F4DE88"/>
				<stop  offset="0.3345" style="stop-color:#F0D476"/>
				<stop  offset="0.3456" style="stop-color:#EDCD6A"/>
				<stop  offset="0.3612" style="stop-color:#ECC963"/>
				<stop  offset="0.4045" style="stop-color:#ECC861"/>
				<stop  offset="0.4551" style="stop-color:#CFA244"/>
				<stop  offset="0.5899" style="stop-color:#F4DD8A"/>
				<stop  offset="0.6629" style="stop-color:#FCF5B3"/>
				<stop  offset="0.6732" style="stop-color:#F4E89E"/>
				<stop  offset="0.6931" style="stop-color:#E7D27D"/>
				<stop  offset="0.7149" style="stop-color:#DCC162"/>
				<stop  offset="0.7392" style="stop-color:#D3B44F"/>
				<stop  offset="0.7672" style="stop-color:#CDAB42"/>
				<stop  offset="0.802" style="stop-color:#CAA63A"/>
				<stop  offset="0.8652" style="stop-color:#C9A438"/>
				<stop  offset="0.9451" style="stop-color:#815015"/>
			</linearGradient>
			<path fill="url(#SVGID_26_)" d="M103.9,63.2v0.7H90.8v-0.7h0.8c0.7,0,1.3-0.1,1.8-0.4c0.3-0.2,0.6-0.5,0.7-1
				c0.1-0.3,0.2-1.2,0.2-2.5V41.6c0-1.4-0.1-2.2-0.2-2.6c-0.1-0.3-0.4-0.6-0.8-0.9c-0.4-0.3-1-0.4-1.7-0.4h-0.8V37h13.1v0.7h-0.8
				c-0.7,0-1.3,0.1-1.8,0.4c-0.3,0.2-0.6,0.5-0.8,1c-0.1,0.3-0.2,1.1-0.2,2.5v17.8c0,1.4,0.1,2.2,0.2,2.6c0.1,0.3,0.4,0.7,0.8,0.9
				c0.4,0.3,1,0.4,1.7,0.4L103.9,63.2L103.9,63.2z"/>
			
				<linearGradient id="SVGID_27_" gradientUnits="userSpaceOnUse" x1="132.6669" y1="32.3296" x2="59.7321" y2="87.7056" gradientTransform="matrix(1 0 0 1 0 3.172)">
				<stop  offset="0" style="stop-color:#F6E595"/>
				<stop  offset="8.790000e-02" style="stop-color:#B37C10"/>
				<stop  offset="0.1648" style="stop-color:#C89B36"/>
				<stop  offset="0.2308" style="stop-color:#F4DD8A"/>
				<stop  offset="0.3132" style="stop-color:#FCF5B3"/>
				<stop  offset="0.3179" style="stop-color:#F8EBA0"/>
				<stop  offset="0.3255" style="stop-color:#F4DE88"/>
				<stop  offset="0.3345" style="stop-color:#F0D476"/>
				<stop  offset="0.3456" style="stop-color:#EDCD6A"/>
				<stop  offset="0.3612" style="stop-color:#ECC963"/>
				<stop  offset="0.4045" style="stop-color:#ECC861"/>
				<stop  offset="0.4551" style="stop-color:#CFA244"/>
				<stop  offset="0.5899" style="stop-color:#F4DD8A"/>
				<stop  offset="0.6629" style="stop-color:#FCF5B3"/>
				<stop  offset="0.6732" style="stop-color:#F4E89E"/>
				<stop  offset="0.6931" style="stop-color:#E7D27D"/>
				<stop  offset="0.7149" style="stop-color:#DCC162"/>
				<stop  offset="0.7392" style="stop-color:#D3B44F"/>
				<stop  offset="0.7672" style="stop-color:#CDAB42"/>
				<stop  offset="0.802" style="stop-color:#CAA63A"/>
				<stop  offset="0.8652" style="stop-color:#C9A438"/>
				<stop  offset="0.9451" style="stop-color:#815015"/>
			</linearGradient>
			<path fill="url(#SVGID_27_)" d="M126.8,37v7.3h-0.7c-0.4-1.7-0.8-2.9-1.3-3.6s-1.1-1.3-2-1.8c-0.5-0.2-1.3-0.4-2.5-0.4h-1.9v20.8
				c0,1.4,0.1,2.2,0.2,2.6c0.1,0.3,0.4,0.7,0.8,0.9c0.4,0.3,1,0.4,1.7,0.4h0.8v0.7h-13.2v-0.7h0.8c0.7,0,1.3-0.1,1.8-0.4
				c0.3-0.2,0.6-0.5,0.8-1c0.1-0.3,0.2-1.2,0.2-2.5V38.5h-1.8c-1.7,0-2.9,0.4-3.7,1.2c-1.1,1.1-1.7,2.6-2,4.6h-0.7V37H126.8
				L126.8,37z"/>
			
				<linearGradient id="SVGID_28_" gradientUnits="userSpaceOnUse" x1="141.341" y1="44.763" x2="68.6159" y2="99.9796" gradientTransform="matrix(1 0 0 1 0 3.172)">
				<stop  offset="0" style="stop-color:#F6E595"/>
				<stop  offset="8.790000e-02" style="stop-color:#B37C10"/>
				<stop  offset="0.1648" style="stop-color:#C89B36"/>
				<stop  offset="0.2308" style="stop-color:#F4DD8A"/>
				<stop  offset="0.3132" style="stop-color:#FCF5B3"/>
				<stop  offset="0.3179" style="stop-color:#F8EBA0"/>
				<stop  offset="0.3255" style="stop-color:#F4DE88"/>
				<stop  offset="0.3345" style="stop-color:#F0D476"/>
				<stop  offset="0.3456" style="stop-color:#EDCD6A"/>
				<stop  offset="0.3612" style="stop-color:#ECC963"/>
				<stop  offset="0.4045" style="stop-color:#ECC861"/>
				<stop  offset="0.4551" style="stop-color:#CFA244"/>
				<stop  offset="0.5899" style="stop-color:#F4DD8A"/>
				<stop  offset="0.6629" style="stop-color:#FCF5B3"/>
				<stop  offset="0.6732" style="stop-color:#F4E89E"/>
				<stop  offset="0.6931" style="stop-color:#E7D27D"/>
				<stop  offset="0.7149" style="stop-color:#DCC162"/>
				<stop  offset="0.7392" style="stop-color:#D3B44F"/>
				<stop  offset="0.7672" style="stop-color:#CDAB42"/>
				<stop  offset="0.802" style="stop-color:#CAA63A"/>
				<stop  offset="0.8652" style="stop-color:#C9A438"/>
				<stop  offset="0.9451" style="stop-color:#815015"/>
			</linearGradient>
			<path fill="url(#SVGID_28_)" d="M136.6,38.5v11h0.5c1.6,0,2.7-0.5,3.5-1.6c0.7-1.1,1.2-2.7,1.4-4.8h0.7v14.1H142
				c-0.2-1.5-0.5-2.8-0.9-3.8c-0.5-1-1-1.6-1.7-2c-0.6-0.3-1.5-0.5-2.7-0.5v7.6c0,1.5,0.1,2.4,0.2,2.7c0.1,0.3,0.3,0.6,0.7,0.8
				c0.3,0.2,0.8,0.3,1.6,0.3h1.5c2.3,0,4.2-0.6,5.6-1.7c1.4-1.2,2.4-2.9,3-5.3h0.7l-1.1,8.6h-21.7v-0.7h0.8c0.7,0,1.3-0.1,1.8-0.4
				c0.3-0.2,0.6-0.5,0.7-1c0.1-0.3,0.2-1.2,0.2-2.5V41.6c0-1.2,0-2-0.1-2.2c-0.1-0.5-0.4-0.8-0.7-1.1c-0.5-0.4-1.1-0.6-1.9-0.6h-0.8
				V37h21v8h-0.8c-0.4-1.9-0.9-3.3-1.5-4.2c-0.7-0.8-1.6-1.5-2.8-1.9c-0.7-0.2-2-0.4-3.9-0.4C139.2,38.5,136.6,38.5,136.6,38.5z"/>
		</g>
	</g>
	<g>
		<path stroke="#000000" stroke-width="3.064968e-02" d="M38.6,76.5l-0.8,2h0.1c0.3,0.1,0.6,0.1,0.8,0s0.4-0.4,0.6-0.8l0.1,0.1
			l-1,2.6l-0.1-0.1c0.1-0.3,0.1-0.6,0.1-0.8c0-0.2-0.1-0.4-0.2-0.5s-0.3-0.2-0.5-0.3l-0.5,1.4c-0.1,0.3-0.2,0.5-0.2,0.5
			c0,0.1,0,0.1,0.1,0.2s0.2,0.1,0.3,0.2l0.3,0.1c0.5,0.2,0.9,0.2,1.3,0.1s0.7-0.4,1-0.7l0.1,0.1l-0.8,1.5l-4.5-1.7l0.1-0.1l0.2,0.1
			c0.2,0.1,0.3,0.1,0.4,0.1s0.2-0.1,0.2-0.1c0-0.1,0.1-0.2,0.2-0.4l1.3-3.3c0.1-0.2,0.1-0.4,0.1-0.4c0-0.1,0-0.2-0.1-0.3
			c-0.1-0.1-0.2-0.2-0.4-0.3l-0.2-0.1l0.1-0.1l4.4,1.7l-0.6,1.5l-0.1-0.1c0.1-0.4,0.1-0.7,0-0.9c-0.1-0.2-0.2-0.4-0.4-0.6
			c-0.1-0.1-0.4-0.2-0.8-0.4L38.6,76.5z"/>
		<path stroke="#000000" stroke-width="3.064968e-02" d="M43.3,77.9l1.6,4l0.7-2.2c0.1-0.3,0.1-0.5,0.1-0.7
			c-0.1-0.2-0.3-0.3-0.6-0.4v-0.1l1.8,0.6l-0.1,0.1c-0.2,0-0.4-0.1-0.5,0c-0.1,0-0.2,0.1-0.3,0.2s-0.2,0.2-0.2,0.5l-1.4,4.2h-0.1
			l-2.2-5.5L41,81.8c-0.1,0.3-0.1,0.5,0,0.7s0.2,0.3,0.4,0.3h0.1v0.1l-1.9-0.6v-0.1c0.3,0.1,0.5,0.1,0.7,0s0.3-0.2,0.4-0.5l1.2-3.6
			l-0.1-0.2c-0.1-0.2-0.1-0.3-0.2-0.4s-0.2-0.1-0.3-0.2v-0.1L43.3,77.9z"/>
		<path stroke="#000000" stroke-width="3.064968e-02" d="M52.2,80.6l-0.5,1.8h-0.1c0-0.5-0.2-1-0.5-1.4s-0.6-0.6-1-0.7
			s-0.8-0.1-1.1,0s-0.6,0.4-0.8,0.7c-0.2,0.4-0.4,0.7-0.5,1.1c-0.1,0.5-0.2,0.9-0.2,1.3s0.1,0.7,0.3,1s0.5,0.4,0.9,0.6
			c0.1,0,0.3,0.1,0.4,0.1s0.3,0,0.5,0l0.3-1.1c0.1-0.2,0.1-0.3,0.1-0.4s-0.1-0.1-0.1-0.2c-0.1-0.1-0.2-0.1-0.3-0.2h-0.1v-0.1
			l2.6,0.8V84c-0.2,0-0.3-0.1-0.4,0c-0.1,0-0.2,0.1-0.2,0.1s-0.1,0.2-0.1,0.3l-0.3,1.1c-0.4,0-0.8,0-1.2,0s-0.8-0.1-1.2-0.2
			c-0.5-0.2-0.9-0.3-1.2-0.6c-0.3-0.2-0.5-0.5-0.7-0.8s-0.3-0.6-0.4-0.9c-0.1-0.4-0.1-0.8,0.1-1.3c0.2-0.8,0.7-1.3,1.4-1.7
			c0.7-0.4,1.5-0.4,2.4-0.2c0.3,0.1,0.5,0.2,0.7,0.3c0.1,0,0.3,0.2,0.5,0.3c0.2,0.2,0.4,0.3,0.4,0.3C52,80.7,52.1,80.7,52.2,80.6
			c0,0.1,0.1,0,0.2-0.1L52.2,80.6z"/>
		<path stroke="#000000" stroke-width="3.064968e-02" d="M56.6,85.5l-0.7,1.8L51.1,86v-0.1h0.2c0.2,0,0.3,0,0.4,0s0.1-0.1,0.2-0.1
			c0-0.1,0.1-0.2,0.2-0.5l0.9-3.4c0.1-0.3,0.1-0.4,0.1-0.5S53,81.2,53,81.2c-0.1-0.1-0.2-0.1-0.3-0.2h-0.2v-0.1l2.9,0.8v0.2
			l-0.2-0.1c-0.2,0-0.3,0-0.4,0s-0.2,0.1-0.2,0.1c0,0.1-0.1,0.2-0.2,0.5l-0.9,3.3c-0.1,0.3-0.1,0.4-0.1,0.5s0.1,0.2,0.1,0.2
			c0.1,0,0.2,0.1,0.5,0.2l0.5,0.1c0.3,0.1,0.5,0.1,0.8,0c0.2,0,0.4-0.1,0.6-0.3c0.2-0.2,0.4-0.4,0.6-0.8L56.6,85.5z"/>
		<path stroke="#000000" stroke-width="3.064968e-02" d="M59,87.9V88l-2.9-0.7v-0.1h0.2c0.2,0,0.3,0,0.4,0s0.1-0.1,0.2-0.1
			c0-0.1,0.1-0.2,0.2-0.5l0.8-3.4c0.1-0.3,0.1-0.4,0.1-0.5s-0.1-0.2-0.1-0.2c-0.1-0.1-0.2-0.1-0.3-0.2h-0.2v-0.1l2.9,0.7V83h-0.2
			c-0.2,0-0.3,0-0.4,0s-0.1,0.1-0.2,0.1c0,0.1-0.1,0.2-0.2,0.5L58.5,87c-0.1,0.3-0.1,0.4-0.1,0.5s0.1,0.2,0.1,0.2
			C58.6,87.8,58.7,87.8,59,87.9L59,87.9z"/>
		<path stroke="#000000" stroke-width="3.064968e-02" d="M63.8,83.5l-0.3,1.8h-0.2c0-0.5-0.1-0.8-0.3-1.2c-0.2-0.3-0.6-0.5-0.9-0.6
			s-0.5,0-0.7,0.1s-0.3,0.3-0.3,0.4s0,0.2,0,0.3c0.1,0.1,0.2,0.3,0.3,0.4s0.4,0.3,0.8,0.6c0.6,0.4,0.9,0.8,1.1,1.1
			c0.2,0.3,0.2,0.6,0.1,1s-0.4,0.8-0.8,1s-0.9,0.3-1.5,0.2c-0.2,0-0.3-0.1-0.5-0.2c-0.1-0.1-0.3-0.2-0.5-0.3C60,88,59.9,88,59.8,88
			s-0.2,0-0.2,0c-0.1,0-0.2,0.1-0.2,0.2h-0.1l0.4-2h0.2c0,0.6,0.1,1.1,0.4,1.4c0.3,0.4,0.6,0.6,1,0.7c0.3,0.1,0.6,0,0.8-0.1
			s0.3-0.3,0.4-0.5c0-0.1,0-0.3,0-0.4s-0.1-0.3-0.2-0.4s-0.3-0.3-0.7-0.6c-0.4-0.3-0.8-0.6-0.9-0.8c-0.2-0.2-0.3-0.4-0.4-0.7
			c-0.1-0.2-0.1-0.5,0-0.7c0.1-0.4,0.3-0.7,0.7-1c0.4-0.2,0.8-0.3,1.3-0.2c0.2,0,0.3,0.1,0.5,0.2c0.1,0.1,0.3,0.2,0.4,0.3
			c0.2,0.1,0.3,0.2,0.4,0.2C63.7,83.6,63.7,83.6,63.8,83.5c0,0.1,0.1,0,0.2-0.2L63.8,83.5z"/>
		<path stroke="#000000" stroke-width="3.064968e-02" d="M65.7,86.8l-0.3,1.6c0,0.3-0.1,0.4,0,0.5c0,0.1,0.1,0.1,0.2,0.2
			c0.1,0.1,0.2,0.1,0.4,0.1h0.2v0.1l-2.9-0.5v-0.1h0.2c0.2,0,0.3,0,0.4,0s0.1-0.1,0.2-0.2c0-0.1,0.1-0.2,0.1-0.5l0.6-3.5
			c0-0.3,0.1-0.4,0-0.5c0-0.1-0.1-0.1-0.1-0.2c-0.1-0.1-0.2-0.1-0.4-0.1h-0.2v-0.1l2.9,0.5v0.1h-0.2c-0.2,0-0.3,0-0.4,0
			c-0.1,0-0.1,0.1-0.2,0.2c0,0.1-0.1,0.2-0.1,0.5l-0.3,1.5l2,0.4l0.3-1.5c0.1-0.3,0.1-0.4,0.1-0.5s-0.1-0.1-0.2-0.2
			c-0.1-0.1-0.2-0.1-0.4-0.1h-0.2v-0.1l2.9,0.5V85h-0.2c-0.2,0-0.3,0-0.4,0c-0.1,0-0.1,0.1-0.2,0.2c0,0.1-0.1,0.2-0.1,0.5l-0.6,3.5
			c-0.1,0.3-0.1,0.4,0,0.5c0,0.1,0.1,0.1,0.2,0.2c0.1,0.1,0.2,0.1,0.4,0.1h0.2v0.1l-2.9-0.5v-0.1h0.2c0.2,0,0.3,0,0.4,0
			c0.1,0,0.2-0.1,0.2-0.2s0.1-0.2,0.1-0.5l0.3-1.6L65.7,86.8z"/>
		<path stroke="#000000" stroke-width="3.064968e-02" d="M76.3,89.2L75.8,91l-5-0.7v-0.1H71c0.2,0,0.3,0,0.4,0s0.1-0.1,0.2-0.2
			c0-0.1,0.1-0.2,0.1-0.5l0.5-3.5c0-0.3,0.1-0.4,0-0.5c0-0.1-0.1-0.1-0.2-0.2s-0.2-0.1-0.4-0.1h-0.2v-0.1l3,0.4v0.1h-0.2
			c-0.2,0-0.3,0-0.4,0c-0.1,0-0.1,0.1-0.2,0.2c0,0.1-0.1,0.2-0.1,0.5L73,89.7c0,0.3,0,0.5,0,0.5c0,0.1,0.1,0.1,0.2,0.2
			c0.1,0,0.2,0.1,0.5,0.1l0.5,0.1c0.3,0,0.6,0,0.8,0c0.2-0.1,0.4-0.2,0.6-0.4c0.2-0.2,0.4-0.5,0.5-0.9L76.3,89.2z"/>
		<path stroke="#000000" stroke-width="3.064968e-02" d="M79.6,89.9l-2-0.2l-0.3,0.5c-0.1,0.2-0.1,0.3-0.2,0.4c0,0.1,0,0.3,0.2,0.3
			c0.1,0,0.2,0.1,0.5,0.2v0.1L75.9,91v-0.1c0.2,0,0.4-0.1,0.5-0.2s0.3-0.4,0.6-0.8l2.5-4h0.1l1.6,4.6c0.2,0.4,0.3,0.7,0.4,0.8
			c0.1,0.1,0.2,0.2,0.4,0.2v0.1l-2.7-0.3v-0.1h0.1c0.2,0,0.4,0,0.5,0S80,91.1,80,91s0-0.1,0-0.1s0-0.1-0.1-0.3L79.6,89.9z
			 M79.5,89.6l-0.6-1.9l-1.1,1.8L79.5,89.6z"/>
		<path stroke="#000000" stroke-width="3.064968e-02" d="M84.1,86.4l2.5,3.5l0.2-2.3c0-0.3,0-0.5-0.1-0.7c-0.1-0.2-0.3-0.2-0.7-0.3
			v-0.1l1.9,0.1v0.1c-0.2,0-0.4,0-0.5,0.1c-0.1,0-0.2,0.1-0.2,0.2s-0.1,0.3-0.1,0.5L86.8,92h-0.1l-3.5-4.7L83,90.7
			c0,0.3,0,0.5,0.2,0.6c0.1,0.1,0.3,0.2,0.5,0.2h0.1v0.2l-2-0.1v-0.1c0.3,0,0.5,0,0.7-0.1c0.1-0.1,0.2-0.3,0.2-0.6L83,87l-0.1-0.2
			c-0.1-0.1-0.2-0.2-0.3-0.3c-0.1-0.1-0.2-0.1-0.4-0.1v-0.1L84.1,86.4z"/>
		<path stroke="#000000" stroke-width="3.064968e-02" d="M93.3,86.7l-0.1,1.9H93c-0.2-0.5-0.4-0.9-0.8-1.2C91.8,87.1,91.4,87,91,87
			s-0.8,0.1-1.1,0.3c-0.3,0.2-0.5,0.5-0.6,0.9c-0.1,0.4-0.2,0.8-0.2,1.2c0,0.5,0,1,0.2,1.4c0.1,0.4,0.3,0.7,0.6,0.9
			c0.3,0.2,0.6,0.3,1,0.3c0.1,0,0.3,0,0.4,0s0.3-0.1,0.4-0.1v-1.1c0-0.2,0-0.3,0-0.4s-0.1-0.1-0.2-0.2s-0.2-0.1-0.3-0.1h-0.1V90
			l2.7,0.1v0.1c-0.2,0-0.4,0-0.4,0.1c-0.1,0-0.1,0.1-0.2,0.2c0,0.1,0,0.2,0,0.4V92c-0.4,0.1-0.7,0.2-1.1,0.3
			c-0.4,0.1-0.8,0.1-1.2,0.1c-0.5,0-1-0.1-1.3-0.3c-0.3-0.1-0.7-0.3-0.9-0.6c-0.3-0.2-0.5-0.5-0.6-0.8c-0.2-0.4-0.3-0.8-0.3-1.2
			c0-0.8,0.3-1.5,1-2c0.6-0.5,1.4-0.8,2.3-0.8c0.3,0,0.5,0,0.8,0.1c0.1,0,0.3,0.1,0.6,0.2c0.3,0.1,0.4,0.2,0.5,0.2
			c0.1,0,0.2,0,0.2-0.1c0.1,0,0.1-0.2,0.2-0.3L93.3,86.7z"/>
		<path stroke="#000000" stroke-width="3.064968e-02" d="M93.7,86.9h2.9V87h-0.1c-0.2,0-0.4,0-0.5,0.1c-0.1,0-0.1,0.1-0.2,0.2
			c0,0.1,0,0.3,0,0.6v2.6c0,0.5,0,0.8,0.1,1s0.2,0.3,0.4,0.4c0.2,0.1,0.4,0.2,0.7,0.2s0.6-0.1,0.8-0.2c0.2-0.1,0.4-0.3,0.5-0.5
			c0.1-0.2,0.2-0.6,0.2-1.2V88c0-0.2,0-0.4-0.1-0.5s-0.1-0.2-0.2-0.2c-0.1-0.1-0.3-0.1-0.5-0.1v-0.1h1.9v0.1h-0.1
			c-0.2,0-0.3,0-0.4,0.1s-0.2,0.2-0.2,0.3c0,0.1-0.1,0.2-0.1,0.5v2c0,0.6,0,1.1-0.1,1.4c-0.1,0.3-0.3,0.5-0.6,0.8
			c-0.3,0.2-0.8,0.4-1.4,0.4c-0.5,0-0.9-0.1-1.1-0.2c-0.4-0.2-0.6-0.4-0.8-0.6c-0.2-0.3-0.2-0.6-0.2-1.1v-2.6c0-0.3,0-0.5-0.1-0.6
			c0-0.1-0.1-0.1-0.2-0.2c-0.1,0-0.2-0.1-0.5-0.1L93.7,86.9L93.7,86.9z"/>
		<path stroke="#000000" stroke-width="3.064968e-02" d="M102.7,90.5l-2,0.1l-0.2,0.5c-0.1,0.2-0.1,0.3-0.1,0.4s0.1,0.3,0.2,0.3
			s0.3,0.1,0.6,0.1V92l-1.9,0.1v-0.2c0.2,0,0.4-0.1,0.5-0.3c0.1-0.1,0.3-0.4,0.4-0.8l1.8-4.4h0.1l2.2,4.3c0.2,0.4,0.4,0.7,0.5,0.8
			c0.1,0.1,0.2,0.1,0.4,0.1v0.1l-2.7,0.1v-0.1h0.1c0.2,0,0.4,0,0.5-0.1c0.1,0,0.1-0.1,0.1-0.2v-0.1c0,0-0.1-0.1-0.1-0.3L102.7,90.5z
			 M102.5,90.2l-0.9-1.8l-0.8,1.9L102.5,90.2z"/>
		<path stroke="#000000" stroke-width="3.064968e-02" d="M110.3,86l0.1,1.9h-0.2c-0.2-0.5-0.5-0.9-0.9-1.1c-0.4-0.2-0.8-0.3-1.2-0.3
			s-0.8,0.2-1,0.4c-0.3,0.2-0.4,0.6-0.5,1s-0.1,0.8-0.1,1.2c0,0.5,0.1,1,0.3,1.3c0.2,0.4,0.4,0.7,0.7,0.8c0.3,0.2,0.6,0.2,1,0.2
			c0.1,0,0.3,0,0.4-0.1c0.1,0,0.3-0.1,0.4-0.2l-0.1-1.1c0-0.2,0-0.3-0.1-0.4c0-0.1-0.1-0.1-0.2-0.2c-0.1,0-0.2-0.1-0.4-0.1h-0.1
			v-0.1l2.7-0.2v0.1c-0.2,0-0.4,0.1-0.4,0.1c-0.1,0-0.1,0.1-0.2,0.2c0,0,0,0.2,0,0.4l0.1,1.1c-0.3,0.2-0.7,0.3-1.1,0.4
			s-0.8,0.2-1.2,0.2c-0.5,0-1,0-1.3-0.1c-0.4-0.1-0.7-0.3-1-0.5c-0.3-0.2-0.5-0.4-0.7-0.7c-0.2-0.4-0.4-0.8-0.4-1.2
			c-0.1-0.8,0.2-1.5,0.7-2.1s1.3-0.9,2.2-1c0.3,0,0.5,0,0.8,0c0.1,0,0.3,0.1,0.6,0.1c0.3,0.1,0.4,0.1,0.5,0.1s0.1,0,0.2-0.1
			c0.1-0.1,0.1-0.2,0.2-0.3L110.3,86z"/>
		<path stroke="#000000" stroke-width="3.064968e-02" d="M112.8,86.2l0.2,2.2h0.1c0.4,0,0.6-0.2,0.7-0.4c0.1-0.2,0.2-0.6,0.2-1h0.2
			l0.3,2.8h-0.2c-0.1-0.3-0.2-0.5-0.3-0.7s-0.3-0.3-0.4-0.3s-0.4-0.1-0.6,0l0.2,1.5c0,0.3,0.1,0.5,0.1,0.5c0,0.1,0.1,0.1,0.2,0.1
			s0.2,0,0.4,0h0.3c0.5-0.1,0.9-0.2,1.2-0.5c0.3-0.3,0.5-0.6,0.6-1.1h0.1L116,91l-4.8,0.6v-0.1h0.2c0.2,0,0.3-0.1,0.4-0.1
			c0.1,0,0.1-0.1,0.1-0.2s0-0.2,0-0.5l-0.4-3.5c0-0.2,0-0.4-0.1-0.4c0-0.1-0.1-0.2-0.2-0.2c-0.1-0.1-0.3-0.1-0.4-0.1h-0.2v-0.1
			l4.7-0.5l0.2,1.6h-0.2c-0.1-0.4-0.3-0.6-0.4-0.8c-0.2-0.2-0.4-0.3-0.7-0.3c-0.2,0-0.4,0-0.9,0L112.8,86.2z"/>
		<path stroke="#000000" stroke-width="3.064968e-02" d="M121.1,90v0.1l-2.9,0.4v-0.1h0.2c0.2,0,0.3-0.1,0.4-0.1
			c0.1,0,0.1-0.1,0.1-0.2s0-0.2,0-0.5l-0.5-3.5c0-0.3-0.1-0.4-0.1-0.5s-0.1-0.1-0.2-0.2c-0.1,0-0.2,0-0.4,0h-0.2v-0.1l2.9-0.4V85
			h-0.2c-0.2,0-0.3,0.1-0.4,0.1c-0.1,0-0.1,0.1-0.1,0.2s0,0.2,0,0.5l0.5,3.5c0,0.3,0.1,0.4,0.1,0.5s0.1,0.1,0.2,0.1s0.2,0,0.4,0
			L121.1,90z"/>
		<path stroke="#000000" stroke-width="3.064968e-02" d="M122,84.6l3.3,2.8l-0.4-2.3c-0.1-0.3-0.1-0.5-0.3-0.6s-0.4-0.2-0.7-0.1
			v-0.1l1.8-0.3v0.1c-0.2,0.1-0.4,0.1-0.5,0.2s-0.1,0.1-0.1,0.2s0,0.3,0,0.5l0.8,4.4h-0.1l-4.5-3.7l0.6,3.4c0.1,0.3,0.2,0.5,0.3,0.6
			c0.2,0.1,0.3,0.1,0.5,0.1h0.1v0.1l-2,0.3v-0.1c0.3-0.1,0.5-0.2,0.6-0.3c0.1-0.1,0.1-0.3,0.1-0.6l-0.7-3.7l-0.1-0.1
			c-0.1-0.1-0.3-0.2-0.4-0.2s-0.2,0-0.4,0v-0.1L122,84.6z"/>
		<path stroke="#000000" stroke-width="3.064968e-02" d="M129.3,83.1l0.4,1.7h-0.2c-0.2-0.4-0.4-0.7-0.8-0.9
			c-0.4-0.2-0.7-0.3-1.1-0.2c-0.3,0.1-0.5,0.2-0.6,0.4c-0.1,0.2-0.2,0.3-0.1,0.5c0,0.1,0.1,0.2,0.2,0.3c0.1,0.1,0.3,0.2,0.5,0.3
			c0.1,0.1,0.5,0.2,1,0.3c0.7,0.2,1.2,0.4,1.5,0.6c0.3,0.2,0.4,0.5,0.5,0.8c0.1,0.4,0,0.9-0.3,1.3c-0.3,0.4-0.7,0.6-1.3,0.8
			c-0.2,0-0.3,0.1-0.5,0.1s-0.4,0-0.6-0.1c-0.1,0-0.3,0-0.3,0c-0.1,0-0.1,0.1-0.2,0.1c-0.1,0.1-0.1,0.2-0.1,0.3h-0.2l-0.4-2h0.2
			c0.2,0.5,0.5,0.9,0.9,1.1c0.4,0.2,0.8,0.3,1.2,0.2c0.3-0.1,0.5-0.2,0.7-0.4c0.1-0.2,0.2-0.4,0.2-0.6c0-0.1-0.1-0.2-0.2-0.3
			c-0.1-0.1-0.2-0.2-0.4-0.3c-0.2-0.1-0.4-0.2-0.8-0.3c-0.6-0.1-1-0.3-1.2-0.4c-0.3-0.1-0.5-0.3-0.6-0.4c-0.2-0.2-0.3-0.4-0.3-0.6
			c-0.1-0.4,0-0.8,0.3-1.2c0.3-0.4,0.6-0.6,1.1-0.7c0.2,0,0.4-0.1,0.5,0c0.1,0,0.3,0,0.5,0.1s0.3,0.1,0.4,0.1c0.1,0,0.1-0.1,0.2-0.1
			c0-0.1,0.1-0.2,0.1-0.3L129.3,83.1z"/>
		<path stroke="#000000" stroke-width="3.064968e-02" d="M134.7,81.9l0.3,1.4h-0.1c-0.2-0.3-0.3-0.5-0.5-0.6
			c-0.1-0.1-0.3-0.2-0.5-0.2c-0.1,0-0.3,0-0.6,0.1l-0.4,0.1l1,4c0.1,0.3,0.1,0.4,0.2,0.5c0,0.1,0.1,0.1,0.2,0.1c0.1,0,0.2,0,0.4,0
			h0.2v0.1l-2.9,0.7V88h0.2c0.2,0,0.3-0.1,0.4-0.2c0.1-0.1,0.1-0.1,0.1-0.2s0-0.2-0.1-0.5l-1-4l-0.4,0.1c-0.4,0.1-0.6,0.2-0.7,0.4
			c-0.2,0.3-0.3,0.6-0.2,1h-0.2l-0.3-1.4L134.7,81.9z"/>
		<path stroke="#000000" stroke-width="3.064968e-02" d="M138.8,86.2v0.1l-2.8,0.8V87h0.2c0.2,0,0.3-0.1,0.4-0.2
			c0.1-0.1,0.1-0.1,0.1-0.2s0-0.2-0.1-0.5l-0.9-3.4c-0.1-0.3-0.1-0.4-0.2-0.5c0-0.1-0.1-0.1-0.2-0.1s-0.2,0-0.4,0h-0.2V82l2.8-0.7
			v0.1h-0.2c-0.2,0-0.3,0.1-0.4,0.2c-0.1,0-0.1,0.1-0.1,0.2s0,0.2,0.1,0.5l0.9,3.4c0.1,0.3,0.1,0.4,0.2,0.5s0.1,0.1,0.2,0.1
			c0.1,0,0.2,0,0.4,0L138.8,86.2z"/>
		<path stroke="#000000" stroke-width="3.064968e-02" d="M142.3,79.8l0.4,1.4h-0.1c-0.2-0.3-0.3-0.5-0.5-0.6
			c-0.1-0.1-0.3-0.2-0.5-0.2c-0.1,0-0.3,0-0.6,0.1l-0.4,0.1l1.2,4c0.1,0.3,0.1,0.4,0.2,0.5c0,0.1,0.1,0.1,0.2,0.1c0.1,0,0.2,0,0.4,0
			l0.2-0.1v0.1L140,86v-0.1l0.2-0.1c0.2,0,0.3-0.1,0.4-0.2c0.1-0.1,0.1-0.1,0.1-0.2s0-0.2-0.1-0.5l-1.2-4L139,81
			c-0.4,0.1-0.6,0.3-0.7,0.4c-0.2,0.3-0.2,0.6-0.2,1h-0.2l-0.4-1.4L142.3,79.8z"/>
		<path stroke="#000000" stroke-width="3.064968e-02" d="M142.2,79.8l2.8-0.9V79h-0.1c-0.2,0.1-0.3,0.1-0.4,0.2s-0.1,0.1-0.1,0.2
			s0,0.3,0.1,0.6l0.8,2.5c0.1,0.5,0.3,0.8,0.4,0.9s0.3,0.2,0.5,0.3c0.2,0,0.4,0,0.7-0.1c0.3-0.1,0.5-0.2,0.7-0.4
			c0.2-0.2,0.3-0.4,0.3-0.7c0-0.2,0-0.7-0.2-1.2l-0.7-2.1c-0.1-0.2-0.2-0.4-0.2-0.5c-0.1-0.1-0.2-0.1-0.3-0.1c-0.1,0-0.3,0-0.5,0.1
			v-0.1l1.9-0.6v0.1h-0.1c-0.1,0.1-0.3,0.1-0.3,0.2c-0.1,0.1-0.1,0.2-0.1,0.3c0,0.1,0,0.2,0.1,0.4l0.6,1.9c0.2,0.6,0.3,1,0.3,1.3
			s-0.1,0.6-0.4,0.9c-0.2,0.3-0.6,0.6-1.2,0.8c-0.5,0.2-0.8,0.2-1.1,0.2c-0.4,0-0.7-0.2-0.9-0.4c-0.2-0.2-0.4-0.5-0.5-0.9l-0.8-2.5
			c-0.1-0.3-0.2-0.5-0.2-0.5c-0.1-0.1-0.1-0.1-0.2-0.1c-0.1,0-0.3,0-0.5,0.1L142.2,79.8z"/>
		<path stroke="#000000" stroke-width="3.064968e-02" d="M152.2,76.3l0.5,1.4l-0.1,0.1c-0.2-0.3-0.4-0.5-0.5-0.6
			c-0.2-0.1-0.3-0.2-0.5-0.2c-0.1,0-0.3,0-0.5,0.1l-0.4,0.1l1.4,3.9c0.1,0.3,0.2,0.4,0.2,0.5c0,0,0.1,0.1,0.2,0.1s0.2,0,0.4-0.1
			l0.2-0.1l0.1,0.1l-2.8,1v-0.1l0.2-0.1c0.2-0.1,0.3-0.1,0.3-0.2c0.1-0.1,0.1-0.1,0.1-0.2s0-0.2-0.1-0.5l-1.4-3.9l-0.4,0.1
			c-0.4,0.1-0.6,0.3-0.7,0.5c-0.2,0.3-0.2,0.6-0.1,1l-0.1,0.1l-0.5-1.4L152.2,76.3z"/>
		<path stroke="#000000" stroke-width="3.064968e-02" d="M154.2,75.8l0.8,2h0.1c0.3-0.1,0.5-0.3,0.6-0.6c0.1-0.3,0-0.6-0.1-1
			l0.1-0.1l1.1,2.6l-0.1,0.1c-0.2-0.3-0.3-0.5-0.5-0.6s-0.3-0.2-0.5-0.2s-0.4,0-0.6,0.1l0.6,1.4c0.1,0.3,0.2,0.4,0.2,0.5
			c0,0,0.1,0.1,0.2,0.1c0.1,0,0.2,0,0.3-0.1l0.3-0.1c0.5-0.2,0.8-0.5,1-0.8s0.3-0.7,0.2-1.2l0.1-0.1l0.4,1.7l-4.5,1.9l-0.1-0.1
			l0.2-0.1c0.2-0.1,0.3-0.1,0.3-0.2c0.1-0.1,0.1-0.1,0.1-0.2s0-0.2-0.2-0.5l-1.3-3.3c-0.1-0.2-0.2-0.4-0.2-0.4
			c-0.1-0.1-0.1-0.1-0.2-0.1c-0.1,0-0.3,0-0.4,0.1l-0.2,0.1l-0.1-0.1l4.4-1.8l0.6,1.5l-0.1,0.1c-0.2-0.3-0.4-0.5-0.6-0.6
			s-0.4-0.1-0.7-0.1c-0.2,0-0.4,0.1-0.8,0.3L154.2,75.8z"/>
	</g>
	<g>
		<path stroke="#000000" stroke-width="3.064968e-02" d="M40.1,88.7c0.9,0.3,1.5,0.8,1.8,1.5c0.4,0.7,0.4,1.4,0.1,2.2
			c-0.2,0.6-0.6,1.1-1.2,1.5c-0.8,0.5-1.6,0.5-2.6,0.2s-1.6-0.9-1.9-1.7c-0.2-0.6-0.2-1.3,0-2c0.3-0.7,0.8-1.3,1.5-1.6
			C38.6,88.4,39.4,88.4,40.1,88.7z M40.1,89c-0.5-0.2-0.9-0.1-1.4,0.3c-0.3,0.3-0.6,0.8-0.9,1.6c-0.3,0.9-0.4,1.6-0.2,2.1
			c0.1,0.4,0.4,0.6,0.8,0.8c0.3,0.1,0.5,0.1,0.8,0.1c0.3-0.1,0.6-0.3,0.8-0.6c0.3-0.3,0.5-0.7,0.7-1.3c0.2-0.7,0.4-1.2,0.3-1.6
			c0-0.4-0.1-0.7-0.3-0.9C40.6,89.3,40.4,89.1,40.1,89z"/>
		<path stroke="#000000" stroke-width="3.064968e-02" d="M45.3,90.9L44.6,93h0.2c0.2,0.1,0.4,0.1,0.6,0.1s0.3-0.1,0.5-0.2
			s0.3-0.3,0.4-0.6h0.1l-0.8,2.6h-0.1c0.1-0.5,0.1-0.9-0.1-1.1s-0.4-0.4-0.7-0.5l-0.2-0.1L44,94.8c-0.1,0.3-0.1,0.4-0.1,0.5
			s0.1,0.2,0.1,0.2c0.1,0.1,0.2,0.1,0.3,0.2l0.2,0.1v0.1L41.7,95v-0.1l0.2,0.1c0.2,0.1,0.3,0.1,0.4,0c0.1,0,0.2-0.1,0.2-0.1
			c0.1-0.1,0.1-0.2,0.2-0.5l1.1-3.4c0.1-0.3,0.1-0.4,0.1-0.5s0-0.2-0.1-0.2c-0.1-0.1-0.2-0.1-0.3-0.2L43.3,90v-0.1l4.6,1.5l-0.5,1.5
			l-0.2-0.1c0.1-0.3,0.1-0.6,0-0.9c-0.1-0.2-0.3-0.4-0.6-0.6c-0.1-0.1-0.4-0.2-0.9-0.3L45.3,90.9z"/>
		<path stroke="#000000" stroke-width="3.064968e-02" d="M54.8,93.4l-0.4,1.4h-0.1c0-0.3,0-0.6-0.1-0.8c-0.1-0.2-0.2-0.3-0.3-0.5
			c-0.1-0.1-0.3-0.1-0.5-0.2L53,93.2l-1.1,4c-0.1,0.3-0.1,0.4-0.1,0.5s0.1,0.1,0.1,0.2c0.1,0.1,0.2,0.1,0.4,0.2h0.2v0.1l-2.9-0.8
			v-0.1h0.2c0.2,0,0.3,0.1,0.4,0c0.1,0,0.2-0.1,0.2-0.1c0-0.1,0.1-0.2,0.2-0.5l1.1-4l-0.4-0.1c-0.4-0.1-0.7-0.1-0.9,0
			c-0.3,0.1-0.5,0.4-0.7,0.8h-0.2l0.4-1.4L54.8,93.4z"/>
		<path stroke="#000000" stroke-width="3.064968e-02" d="M57.1,94.3l-0.5,2.1h0.1c0.4,0.1,0.6,0,0.8-0.1c0.2-0.2,0.4-0.5,0.5-0.8
			h0.2l-0.7,2.7h-0.2c0-0.3,0-0.6,0-0.8c-0.1-0.2-0.1-0.4-0.3-0.5c-0.1-0.1-0.3-0.2-0.6-0.2L56,98.2c-0.1,0.3-0.1,0.5-0.1,0.5
			c0,0.1,0,0.1,0.1,0.2s0.2,0.1,0.3,0.1l0.3,0.1c0.5,0.1,1,0.1,1.3,0c0.4-0.2,0.7-0.4,0.9-0.9H59l-0.6,1.6l-4.8-1.2v-0.1h0.2
			c0.2,0,0.3,0,0.4,0s0.1-0.1,0.2-0.1c0-0.1,0.1-0.2,0.2-0.5l0.8-3.4c0.1-0.2,0.1-0.4,0.1-0.4c0-0.1,0-0.2-0.1-0.2
			c-0.1-0.1-0.2-0.2-0.4-0.2h-0.2v-0.1l4.6,1.1L59,96.2h-0.2c0-0.4,0-0.7-0.1-0.9c-0.1-0.2-0.3-0.4-0.5-0.5
			c-0.1-0.1-0.4-0.2-0.8-0.3L57.1,94.3z"/>
		<path stroke="#000000" stroke-width="3.064968e-02" d="M64.3,95.4L64,97.2h-0.2c0-0.5-0.1-0.9-0.4-1.2c-0.3-0.3-0.6-0.5-0.9-0.6
			s-0.5,0-0.7,0.1s-0.3,0.3-0.3,0.4s0,0.2,0,0.3c0.1,0.1,0.2,0.3,0.3,0.4s0.4,0.3,0.8,0.6c0.6,0.4,1,0.8,1.1,1.1
			c0.2,0.3,0.2,0.6,0.1,1s-0.3,0.8-0.8,1c-0.4,0.2-0.9,0.3-1.5,0.2c-0.2,0-0.3-0.1-0.5-0.2s-0.3-0.2-0.6-0.3
			c-0.1-0.1-0.2-0.1-0.3-0.1s-0.2,0-0.2,0c-0.1,0-0.2,0.1-0.2,0.2h-0.2l0.4-2h0.2c0,0.6,0.1,1.1,0.4,1.4c0.3,0.4,0.6,0.6,1,0.7
			c0.3,0.1,0.6,0,0.8-0.1s0.3-0.3,0.4-0.5c0-0.1,0-0.2,0-0.4c0-0.1-0.1-0.3-0.3-0.4c-0.1-0.1-0.3-0.3-0.7-0.6
			c-0.5-0.3-0.8-0.6-1-0.8c-0.2-0.2-0.3-0.4-0.4-0.7c-0.1-0.2-0.1-0.5,0-0.7c0.1-0.4,0.3-0.7,0.7-1c0.4-0.2,0.8-0.3,1.3-0.2
			c0.2,0,0.4,0.1,0.5,0.2s0.3,0.1,0.4,0.3c0.2,0.1,0.3,0.2,0.4,0.2s0.1,0,0.2,0c0,0,0.1-0.1,0.2-0.3L64.3,95.4z"/>
		<path stroke="#000000" stroke-width="3.064968e-02" d="M70.2,96.6L70,98h-0.1c0-0.3-0.1-0.6-0.2-0.8c-0.1-0.2-0.2-0.3-0.4-0.4
			c-0.1-0.1-0.3-0.1-0.5-0.2l-0.4-0.1l-0.7,4.1c-0.1,0.3-0.1,0.4,0,0.5c0,0.1,0.1,0.1,0.2,0.2c0.1,0.1,0.2,0.1,0.4,0.1h0.2v0.1
			l-2.9-0.5v-0.1h0.2c0.2,0,0.3,0,0.4,0c0.1,0,0.1-0.1,0.2-0.1c0-0.1,0.1-0.2,0.1-0.5l0.7-4.1l-0.4-0.1c-0.4-0.1-0.7,0-0.9,0.1
			c-0.3,0.2-0.5,0.4-0.6,0.8h-0.2l0.2-1.4L70.2,96.6z"/>
		<path stroke="#000000" stroke-width="3.064968e-02" d="M72.8,102.2v0.1l-2.9-0.4v-0.1h0.2c0.2,0,0.3,0,0.4,0
			c0.1,0,0.1-0.1,0.2-0.2c0-0.1,0.1-0.2,0.1-0.5l0.5-3.5c0-0.3,0.1-0.4,0-0.5c0-0.1-0.1-0.1-0.2-0.2c-0.1-0.1-0.2-0.1-0.4-0.1h-0.2
			v-0.1l3,0.4v0.1h-0.2c-0.2,0-0.3,0-0.4,0c-0.1,0-0.1,0.1-0.2,0.2c0,0.1-0.1,0.2-0.1,0.5l-0.5,3.5c0,0.3,0,0.4,0,0.5
			s0.1,0.1,0.2,0.2S72.5,102.2,72.8,102.2L72.8,102.2z"/>
		<path stroke="#000000" stroke-width="3.064968e-02" d="M75.7,97.4l2.4,3.6l0.3-2.3c0-0.3,0-0.5-0.1-0.7s-0.3-0.3-0.6-0.3v-0.2
			l1.9,0.2v0.1c-0.2,0-0.4,0-0.5,0.1c-0.1,0-0.2,0.1-0.2,0.2c-0.1,0.1-0.1,0.3-0.1,0.5l-0.5,4.4h-0.1l-3.3-4.9l-0.4,3.4
			c0,0.3,0,0.5,0.1,0.7c0.1,0.1,0.3,0.2,0.5,0.2h0.1v0.1l-2-0.2v-0.1c0.3,0,0.5,0,0.7-0.1c0.1-0.1,0.2-0.3,0.3-0.6l0.4-3.8l-0.1-0.2
			c-0.1-0.2-0.2-0.3-0.3-0.3c-0.1-0.1-0.2-0.1-0.4-0.1V97L75.7,97.4z"/>
		<path stroke="#000000" stroke-width="3.064968e-02" d="M85.5,98.2l-0.2,1.9h-0.2c-0.1-0.5-0.4-0.9-0.7-1.2
			c-0.3-0.3-0.7-0.5-1.2-0.5c-0.4,0-0.8,0.1-1.1,0.3c-0.3,0.2-0.5,0.5-0.7,0.9c-0.2,0.4-0.2,0.8-0.3,1.2c0,0.5,0,1,0.1,1.4
			s0.3,0.7,0.6,0.9c0.3,0.2,0.6,0.3,1,0.4c0.1,0,0.3,0,0.4,0c0.2,0,0.3,0,0.5-0.1l0.1-1.1c0-0.2,0-0.3,0-0.4s-0.1-0.1-0.2-0.2
			c-0.1-0.1-0.2-0.1-0.3-0.1h-0.1v-0.1l2.8,0.2v0.1c-0.2,0-0.4,0-0.4,0c-0.1,0-0.2,0.1-0.2,0.2c0,0-0.1,0.2-0.1,0.4l-0.1,1.1
			c-0.4,0.1-0.8,0.2-1.2,0.3c-0.4,0-0.8,0.1-1.2,0c-0.5,0-1-0.2-1.3-0.3c-0.3-0.2-0.6-0.4-0.9-0.6c-0.3-0.2-0.4-0.5-0.6-0.8
			c-0.2-0.4-0.2-0.8-0.2-1.2c0.1-0.8,0.4-1.5,1.1-2c0.6-0.5,1.4-0.7,2.3-0.6c0.3,0,0.5,0.1,0.8,0.1c0.1,0,0.3,0.1,0.6,0.2
			s0.4,0.2,0.5,0.2s0.1,0,0.2-0.1c0.1,0,0.1-0.1,0.2-0.3L85.5,98.2z"/>
		<path stroke="#000000" stroke-width="3.064968e-02" d="M91.1,102.4l-2-0.1l-0.3,0.5c-0.1,0.2-0.1,0.3-0.1,0.4
			c0,0.2,0.1,0.3,0.2,0.3c0.1,0.1,0.3,0.1,0.6,0.1v0.2l-1.9-0.1v-0.1c0.2,0,0.4-0.1,0.5-0.2s0.3-0.4,0.5-0.8l2.2-4.2h0.1l1.9,4.5
			c0.2,0.4,0.3,0.7,0.5,0.8c0.1,0.1,0.2,0.1,0.4,0.2v0.2l-2.8-0.1v-0.1H91c0.2,0,0.4,0,0.5-0.1c0.1,0,0.1-0.1,0.1-0.2
			c0,0,0-0.1,0-0.2c0,0,0-0.1-0.1-0.3L91.1,102.4z M91,102.1l-0.8-1.9l-0.9,1.8L91,102.1z"/>
		<path stroke="#000000" stroke-width="3.064968e-02" d="M95.8,98.6l2.8,3.3v-2.3c0-0.3-0.1-0.5-0.2-0.7c-0.1-0.1-0.4-0.2-0.7-0.2
			v-0.1h1.9v0.1c-0.2,0-0.4,0.1-0.5,0.1C99,98.9,99,98.9,98.9,99c0,0.1-0.1,0.3-0.1,0.5v4.5h-0.1l-3.9-4.4v3.4
			c0,0.3,0.1,0.5,0.2,0.6c0.2,0.1,0.3,0.2,0.5,0.2h0.1v0.1h-2v-0.2c0.3,0,0.5-0.1,0.7-0.2c0.1-0.1,0.2-0.3,0.2-0.6v-3.8L94.4,99
			c-0.1-0.1-0.2-0.2-0.3-0.3c-0.1,0-0.2-0.1-0.4-0.1l0,0H95.8z"/>
		<path stroke="#000000" stroke-width="3.064968e-02" d="M100,103.9v-0.1h0.2c0.2,0,0.3,0,0.4-0.1s0.2-0.1,0.2-0.2s0-0.2,0-0.5
			l-0.2-3.5c0-0.3,0-0.4-0.1-0.5c0-0.1-0.1-0.1-0.2-0.2c-0.1,0-0.2-0.1-0.4-0.1h-0.2v-0.1l2.6-0.1c0.7,0,1.2,0,1.7,0.2
			s0.9,0.5,1.2,0.9c0.3,0.4,0.4,0.9,0.5,1.4c0,0.4,0,0.7-0.1,1.1c-0.1,0.3-0.3,0.6-0.5,0.8c-0.2,0.2-0.4,0.4-0.7,0.5
			c-0.3,0.1-0.6,0.2-1,0.3c-0.2,0-0.4,0.1-0.8,0.1L100,103.9z M102,98.8l0.2,4.2c0,0.2,0,0.4,0.1,0.4c0,0.1,0.1,0.1,0.1,0.1
			c0.1,0,0.2,0.1,0.3,0c0.5,0,0.8-0.2,1-0.5c0.3-0.4,0.5-1.1,0.4-1.9c0-0.7-0.2-1.2-0.4-1.6c-0.2-0.3-0.4-0.5-0.7-0.6
			C102.8,98.8,102.4,98.8,102,98.8z"/>
		<path stroke="#000000" stroke-width="3.064968e-02" d="M110.1,98.3l0.2,2.2h0.1c0.4,0,0.6-0.2,0.8-0.4c0.1-0.2,0.2-0.6,0.2-1h0.2
			l0.3,2.8h-0.2c-0.1-0.3-0.2-0.5-0.3-0.7c-0.1-0.2-0.3-0.3-0.4-0.4c-0.2,0-0.4-0.1-0.6,0l0.1,1.5c0,0.3,0.1,0.5,0.1,0.5
			c0,0.1,0.1,0.1,0.2,0.1c0.1,0,0.2,0.1,0.4,0h0.3c0.5,0,0.9-0.2,1.2-0.5c0.3-0.3,0.5-0.6,0.6-1.1h0.2l-0.1,1.7l-4.9,0.5v-0.1h0.2
			c0.2,0,0.3-0.1,0.4-0.1s0.1-0.1,0.2-0.2c0-0.1,0-0.2,0-0.5l-0.3-3.5c0-0.2,0-0.4-0.1-0.4c0-0.1-0.1-0.2-0.2-0.2
			c-0.1-0.1-0.3-0.1-0.4-0.1h-0.2v-0.2l4.8-0.4l0.1,1.6h-0.2c-0.1-0.4-0.3-0.6-0.4-0.8c-0.2-0.2-0.4-0.3-0.7-0.3c-0.2,0-0.5,0-0.9,0
			L110.1,98.3L110.1,98.3z"/>
		<path stroke="#000000" stroke-width="3.064968e-02" d="M114.1,102.9v-0.1h0.2c0.2,0,0.3-0.1,0.4-0.1c0.1-0.1,0.1-0.1,0.2-0.2
			c0-0.1,0-0.2,0-0.5l-0.5-3.5c0-0.3-0.1-0.4-0.1-0.5s-0.1-0.1-0.2-0.2c-0.1,0-0.2-0.1-0.4,0h-0.2v-0.1l2.5-0.3
			c0.7-0.1,1.2-0.1,1.7,0s1,0.4,1.3,0.8c0.3,0.4,0.5,0.9,0.6,1.4c0.1,0.4,0,0.7-0.1,1.1c-0.1,0.3-0.2,0.6-0.4,0.8
			c-0.2,0.2-0.4,0.4-0.6,0.6c-0.3,0.2-0.6,0.3-0.9,0.4c-0.2,0-0.4,0.1-0.8,0.1L114.1,102.9z M115.6,97.6l0.5,4.2
			c0,0.2,0.1,0.4,0.1,0.4l0.1,0.1c0.1,0,0.2,0,0.3,0c0.5-0.1,0.8-0.3,1-0.6c0.3-0.4,0.4-1.1,0.3-1.9c-0.1-0.7-0.3-1.2-0.6-1.6
			c-0.2-0.3-0.5-0.5-0.8-0.6C116.4,97.6,116.1,97.6,115.6,97.6z"/>
		<path stroke="#000000" stroke-width="3.064968e-02" d="M119.5,96.8l2.9-0.5v0.1h-0.1c-0.2,0-0.4,0.1-0.4,0.1
			c-0.1,0.1-0.1,0.1-0.2,0.2c0,0.1,0,0.3,0,0.6l0.4,2.6c0.1,0.5,0.2,0.8,0.3,0.9c0.1,0.1,0.2,0.2,0.4,0.3c0.2,0.1,0.4,0.1,0.7,0
			c0.3-0.1,0.6-0.2,0.7-0.3c0.2-0.2,0.3-0.4,0.4-0.6s0.1-0.6,0-1.2l-0.4-2.2c0-0.2-0.1-0.4-0.2-0.5c-0.1-0.1-0.1-0.1-0.2-0.2
			c-0.1,0-0.3,0-0.5,0V96l1.9-0.3v0.1h-0.1c-0.2,0-0.3,0.1-0.4,0.2s-0.2,0.2-0.2,0.3c0,0.1,0,0.2,0,0.5l0.3,2
			c0.1,0.6,0.1,1.1,0.1,1.4s-0.2,0.6-0.5,0.9c-0.3,0.3-0.7,0.5-1.3,0.6c-0.5,0.1-0.9,0.1-1.2,0c-0.4-0.1-0.7-0.3-0.9-0.5
			c-0.2-0.2-0.3-0.6-0.4-1l-0.4-2.6c-0.1-0.3-0.1-0.5-0.1-0.6c-0.1-0.1-0.1-0.1-0.2-0.1S119.6,96.9,119.5,96.8L119.5,96.8z"/>
		<path stroke="#000000" stroke-width="3.064968e-02" d="M130.9,94.6l0.4,1.8h-0.2c-0.2-0.4-0.5-0.8-0.9-1s-0.8-0.2-1.2-0.1
			c-0.3,0.1-0.6,0.2-0.9,0.5c-0.3,0.2-0.4,0.5-0.5,0.9s-0.1,0.9,0,1.4s0.2,0.9,0.5,1.2c0.2,0.4,0.5,0.6,0.8,0.7s0.7,0.2,1.1,0.1
			c0.4-0.1,0.7-0.2,0.9-0.4c0.3-0.2,0.5-0.5,0.8-0.9l0.1,0.5c-0.3,0.4-0.5,0.7-0.8,0.9c-0.3,0.2-0.7,0.4-1.1,0.5
			c-0.6,0.1-1.1,0.1-1.7,0c-0.5-0.1-0.9-0.4-1.3-0.8c-0.3-0.4-0.6-0.8-0.7-1.3s-0.1-1,0.1-1.5c0.2-0.5,0.5-0.9,0.9-1.3
			c0.4-0.3,0.9-0.6,1.4-0.7c0.4-0.1,0.8-0.1,1.3,0c0.3,0,0.4,0.1,0.5,0c0.1,0,0.2-0.1,0.2-0.1c0.1-0.1,0.1-0.2,0.1-0.3L130.9,94.6z"
			/>
		<path stroke="#000000" stroke-width="3.064968e-02" d="M135.6,97.5l-2,0.5l-0.1,0.6c0,0.2,0,0.3,0,0.4s0.1,0.2,0.3,0.3
			c0.1,0,0.3,0,0.6,0v0.1l-1.8,0.4v-0.1c0.2-0.1,0.3-0.2,0.4-0.3c0.1-0.2,0.2-0.5,0.3-0.9l1-4.6h0.1l3,3.8c0.3,0.4,0.5,0.6,0.7,0.6
			c0.1,0.1,0.3,0.1,0.4,0v0.1l-2.7,0.6v-0.1h0.1c0.2-0.1,0.4-0.1,0.4-0.2c0.1-0.1,0.1-0.1,0-0.2c0,0,0-0.1-0.1-0.1
			c0,0-0.1-0.1-0.2-0.3L135.6,97.5z M135.3,97.3l-1.3-1.6l-0.4,2L135.3,97.3z"/>
		<path stroke="#000000" stroke-width="3.064968e-02" d="M141.7,91.9l0.4,1.4H142c-0.2-0.3-0.3-0.5-0.5-0.6
			c-0.1-0.1-0.3-0.2-0.5-0.2c-0.1,0-0.3,0-0.6,0.1l-0.4,0.1l1.1,4c0.1,0.3,0.1,0.4,0.2,0.5c0.1,0.1,0.1,0.1,0.2,0.1s0.2,0,0.4,0h0.2
			v0.1l-2.9,0.8v-0.1l0.2-0.1c0.2,0,0.3-0.1,0.4-0.2c0.1,0,0.1-0.1,0.1-0.2s0-0.2-0.1-0.5l-1.1-4l-0.4,0.1c-0.4,0.1-0.6,0.3-0.7,0.4
			c-0.2,0.3-0.2,0.6-0.2,1h-0.2l-0.4-1.4L141.7,91.9z"/>
		<path stroke="#000000" stroke-width="3.064968e-02" d="M146.4,95.9V96l-2.9,0.9v-0.1l0.2-0.1c0.2,0,0.3-0.1,0.4-0.2
			c0.1-0.1,0.1-0.1,0.1-0.2s0-0.2-0.1-0.5l-1-3.4c-0.1-0.3-0.1-0.4-0.2-0.5c-0.1-0.1-0.1-0.1-0.2-0.1s-0.2,0-0.4,0l-0.2,0.1v-0.1
			l2.9-0.9V91l-0.2,0.1c-0.2,0-0.3,0.1-0.4,0.2s-0.1,0.1-0.1,0.2s0,0.2,0.1,0.5l1,3.4c0.1,0.3,0.1,0.4,0.2,0.5
			c0.1,0.1,0.1,0.1,0.2,0.1c0.1,0,0.2,0,0.4,0L146.4,95.9z"/>
		<path stroke="#000000" stroke-width="3.064968e-02" d="M148,89.8c0.8-0.3,1.6-0.3,2.3,0c0.7,0.3,1.2,0.9,1.5,1.6
			c0.2,0.6,0.2,1.3,0,1.9c-0.3,0.8-1,1.4-1.9,1.7c-1,0.3-1.8,0.3-2.6-0.1c-0.6-0.3-1-0.9-1.2-1.5c-0.3-0.8-0.2-1.5,0.2-2.2
			C146.6,90.5,147.2,90.1,148,89.8z M148.1,90c-0.5,0.2-0.8,0.5-0.9,1.1c-0.1,0.5,0,1.1,0.3,1.8c0.3,0.9,0.7,1.4,1.1,1.7
			c0.3,0.2,0.7,0.2,1.1,0.1c0.3-0.1,0.5-0.2,0.6-0.4c0.2-0.2,0.3-0.6,0.3-1s-0.1-0.9-0.3-1.4c-0.2-0.7-0.5-1.2-0.7-1.4
			c-0.2-0.3-0.5-0.5-0.7-0.5C148.6,89.9,148.4,90,148.1,90z"/>
		<path stroke="#000000" stroke-width="3.064968e-02" d="M153,88.1l3.8,2.1l-0.9-2.1c-0.1-0.3-0.2-0.5-0.4-0.6
			c-0.2-0.1-0.4-0.1-0.7,0v-0.1l1.8-0.7v0.1c-0.2,0.1-0.3,0.2-0.4,0.3c-0.1,0.1-0.1,0.2-0.1,0.3c0,0.1,0,0.3,0.1,0.5l1.6,4.1
			l-0.1,0.1l-5.2-2.7l1.3,3.2c0.1,0.3,0.3,0.4,0.4,0.5c0.2,0,0.4,0,0.5,0h0.1l0.1,0.1l-1.9,0.7l-0.1-0.1c0.3-0.1,0.5-0.3,0.5-0.4
			c0.1-0.2,0.1-0.4-0.1-0.6l-1.4-3.5l-0.2-0.1c-0.2-0.1-0.3-0.1-0.4-0.1s-0.2,0-0.4,0.1l-0.1-0.1L153,88.1z"/>
	</g>
</g>
</svg>
