<?xml version="1.0" encoding="UTF-8"?>
<svg id="_圖層_2" data-name="圖層_2" xmlns="http://www.w3.org/2000/svg" xmlns:xlink="http://www.w3.org/1999/xlink" viewBox="0 0 37.06 24.7">
  <defs>
    <style>
      .cls-1 {
        fill: url(#_新增漸層色票_3);
      }

      .cls-2 {
        fill: #dcdddd;
      }

      .cls-3 {
        fill: url(#_新增漸層色票_3-5);
      }

      .cls-4 {
        fill: url(#_新增漸層色票_3-4);
      }

      .cls-5 {
        fill: url(#_新增漸層色票_3-3);
      }

      .cls-6 {
        fill: url(#_新增漸層色票_3-2);
      }

      .cls-7 {
        fill: url(#_新增漸層色票_3-6);
      }
    </style>
    <linearGradient id="_新增漸層色票_3" data-name="新增漸層色票 3" x1=".54" y1="1.75" x2="30.51" y2="12.79" gradientUnits="userSpaceOnUse">
      <stop offset="0" stop-color="#b3a9eb"/>
      <stop offset=".51" stop-color="#637af5"/>
      <stop offset="1" stop-color="#00ffd1"/>
    </linearGradient>
    <linearGradient id="_新增漸層色票_3-2" data-name="新增漸層色票 3" x1="-.07" y1="3.41" x2="29.89" y2="14.45" xlink:href="#_新增漸層色票_3"/>
    <linearGradient id="_新增漸層色票_3-3" data-name="新增漸層色票 3" x1="2.83" y1="-4.46" x2="32.8" y2="6.58" xlink:href="#_新增漸層色票_3"/>
    <linearGradient id="_新增漸層色票_3-4" data-name="新增漸層色票 3" x1="-.53" y1="4.65" x2="29.44" y2="15.69" xlink:href="#_新增漸層色票_3"/>
    <linearGradient id="_新增漸層色票_3-5" data-name="新增漸層色票 3" x1=".69" y1="1.33" x2="30.66" y2="12.37" xlink:href="#_新增漸層色票_3"/>
    <linearGradient id="_新增漸層色票_3-6" data-name="新增漸層色票 3" x1="1.51" y1="-.89" x2="31.48" y2="10.15" xlink:href="#_新增漸層色票_3"/>
  </defs>
  <g id="_圖層_1-2" data-name="圖層_1">
    <g>
      <g>
        <polygon class="cls-1" points="0 .04 8.85 .04 8.85 9.57 0 .04"/>
        <polygon class="cls-6" points="9.61 0 9.61 13.96 15.85 6.93 9.61 0"/>
        <polygon class="cls-5" points="18.28 .1 24.25 .1 29.8 6.47 23.48 6.47 18.28 .1"/>
        <polygon class="cls-4" points="16.44 7.44 22.85 7.44 22.85 14.48 10.3 14.48 16.44 7.44"/>
        <polygon class="cls-3" points="23.71 7.37 23.71 14.55 29.85 14.55 29.85 7.33 23.71 7.37"/>
        <polygon class="cls-7" points="30.66 7.37 30.66 14.5 36.57 7.38 30.66 7.37"/>
      </g>
      <g>
        <path class="cls-2" d="M4.64,23.4h-1.15l-.15.6c-.03.12-.05.21-.05.27,0,.12.07.14.25.14v.21h-.82v-.21c.16,0,.23-.06.3-.3l.98-3.54h.35l1.07,3.46c.1.32.15.38.32.38v.21h-1.14v-.21c.19,0,.25-.04.25-.14,0-.05-.01-.12-.04-.21l-.19-.66ZM4.56,23.13l-.51-1.75h-.01l-.46,1.75h.99Z"/>
        <path class="cls-2" d="M6.16,23.6c.15.67.38.84.78.84.32,0,.63-.24.63-.69s-.24-.62-.72-.97c-.54-.39-.87-.63-.87-1.23,0-.42.28-.97,1.12-.97.3,0,.56.06.77.15.02.21.06.52.11.83l-.25.04c-.1-.58-.21-.76-.64-.76-.3,0-.57.2-.57.55s.18.51.66.87c.39.29.61.44.75.65.12.18.2.4.2.68,0,.61-.43,1.12-1.22,1.12-.29,0-.6-.07-.85-.17-.03-.35-.09-.63-.15-.88l.25-.06Z"/>
        <path class="cls-2" d="M9.37,23.26c0,.47.06,1.13.76,1.13s.76-.74.76-1.12v-1.96c0-.4-.04-.44-.34-.44v-.22h.95v.22c-.3,0-.33.04-.33.44v2.02c0,.47-.09.81-.29,1.04-.19.22-.46.34-.85.34-1.13,0-1.25-.71-1.25-1.42v-1.98c0-.39-.03-.44-.35-.44v-.22h1.29v.22c-.31,0-.34.03-.34.44v1.95Z"/>
        <path class="cls-2" d="M13.42,22.12l.92,1.86c.19.38.26.42.47.42v.21h-.82l-.96-2.01-.3.43v.93c0,.39.03.45.35.45v.21h-1.33v-.21c.36,0,.39-.05.39-.44v-2.66c0-.39-.03-.44-.39-.44v-.22h1.31v.22c-.3,0-.33.05-.33.44v1.27h.01l.89-1.27c.11-.16.18-.27.18-.34s-.06-.1-.21-.1v-.22h.99v.22c-.19,0-.28.02-.45.26l-.71,1Z"/>
        <path class="cls-2" d="M16.81,23.4h-1.15l-.15.6c-.03.12-.05.21-.05.27,0,.12.07.14.25.14v.21h-.82v-.21c.16,0,.23-.06.3-.3l.98-3.54h.35l1.07,3.46c.1.32.15.38.32.38v.21h-1.14v-.21c.19,0,.25-.04.25-.14,0-.05-.01-.12-.04-.21l-.19-.66ZM16.73,23.13l-.51-1.75h-.01l-.46,1.75h.99Z"/>
        <path class="cls-2" d="M20.97,20.93v3.04c0,.39.02.44.45.44v.21h-1.48v-.21c.42,0,.44-.05.44-.44v-3.04h-.47c-.29,0-.33.03-.44.68h-.24l.12-.96h2.65l.12.96h-.24c-.11-.66-.15-.68-.44-.68h-.47Z"/>
        <path class="cls-2" d="M23.64,20.65c.46,0,.76.06,1.01.26.22.17.35.42.35.78,0,.49-.29.92-.83,1.03l.67,1.3c.18.33.26.38.46.38v.21h-.81l-.88-1.81h-.34v1.15c0,.41.02.44.36.44v.21h-1.34v-.21c.36,0,.39-.05.39-.45v-2.66c0-.39-.03-.44-.39-.44v-.22h1.35ZM23.4,20.91c-.12,0-.13.05-.13.34v1.3h.28c.47,0,.83-.18.83-.86,0-.24-.06-.45-.2-.59-.12-.12-.29-.19-.54-.19h-.24Z"/>
        <path class="cls-2" d="M27.25,23.4h-1.15l-.15.6c-.03.12-.05.21-.05.27,0,.12.07.14.25.14v.21h-.82v-.21c.16,0,.23-.06.3-.3l.98-3.54h.35l1.07,3.46c.1.32.15.38.32.38v.21h-1.14v-.21c.19,0,.25-.04.25-.14,0-.05-.01-.12-.04-.21l-.19-.66ZM27.17,23.13l-.51-1.75h-.01l-.46,1.75h.99Z"/>
        <path class="cls-2" d="M30.2,23.88l.73-2.61c.03-.11.04-.19.04-.25,0-.13-.08-.16-.26-.16v-.22h.84v.22c-.19,0-.24.05-.31.3l-1.01,3.53h-.38l-1.07-3.46c-.1-.34-.14-.38-.35-.38v-.22h1.19v.22c-.19,0-.27.04-.27.16,0,.06.02.14.05.24l.78,2.61h.01Z"/>
        <path class="cls-2" d="M34.11,24.62h-2.39v-.21c.35,0,.39-.05.39-.44v-2.66c0-.39-.04-.44-.39-.44v-.22h2.26l.15.88h-.25c-.13-.59-.18-.62-.45-.62h-.56c-.16,0-.17.04-.17.25v1.27h.52c.22,0,.26-.06.26-.54h.24v1.36h-.24c0-.52-.04-.55-.26-.55h-.53v1.42c0,.22.04.24.14.24h.73c.28,0,.33-.05.46-.65h.25l-.16.92Z"/>
        <path class="cls-2" d="M37.06,23.66l-.17.96h-2.4v-.21c.35,0,.39-.05.39-.45v-2.66c0-.39-.04-.44-.39-.44v-.22h1.38v.22c-.37,0-.4.04-.4.45v2.79c0,.23.03.25.16.25h.69c.3,0,.34-.05.48-.7h.26Z"/>
      </g>
    </g>
  </g>
</svg>