<svg xmlns="http://www.w3.org/2000/svg" xmlns:xlink="http://www.w3.org/1999/xlink" width="159.46" height="156.925" viewBox="0 0 159.46 156.925"><defs><style>.a{fill:none;}.b{clip-path:url(#a);}.c{fill:#cefdd8;}.d{clip-path:url(#b);}.e{fill:#cee9f2;}.f{fill:#e7e6e5;}.g{fill:#a4d1de;}.h{fill:#585a56;}.i{fill:#fbf6ef;}.j{fill:#fadbca;}.k{fill:#54acba;}</style><clipPath id="a"><rect class="a" width="132.427" height="127.487"/></clipPath><clipPath id="b"><rect class="a" width="117.51" height="113.815"/></clipPath></defs><g transform="translate(11 -110.99)"><g transform="translate(-11 110.99)"><g class="b"><path class="c" d="M77.54,127.446C53.592,128.346,28.606,114.322,15.1,95A91.361,91.361,0,0,1,.2,55.614C-1.581,40.476,8.746,35.9,18.107,26.766c9.74-9.5,16.979-18.312,29.888-24.013,14.153-6.25,27.948-.768,41.2,5.634,12.511,6.046,24.663,14.792,32.434,26.471,7.342,11.033,8.491,25.264,10.332,38.066,4.583,31.859-25.178,53.677-54.418,54.523" transform="translate(0 0)"/></g></g><g transform="matrix(0.999, 0.035, -0.035, 0.999, 31.022, 150.069)"><g class="d"><path class="e" d="M40.276,232.482c-13.557-4.7-26.2.294-40.185-.308-.5,1.843,1.194,3.719,1.848,5.55,8.031-1.213,12.617-4.6,21.954-4.419,4.02.079,12.74.4,17.412.157Z" transform="translate(0 -161.04)"/><path class="f" d="M110.947,299.789a57.245,57.245,0,0,1-6.764,14.322c-5.082,1.762-9.774,6.343-15.98,7.242-5.664.82-12.8-1.308-18.543-2.72-8.461-2.081-28.816-2.409-29.736-14.5,5.062-3.575,11.053-4.474,16.664-6.524-1.087.442-1.516-.01-2.572-.365Z" transform="translate(-27.9 -207.72)"/><path class="g" d="M137.022,217.705c-.234,8.834.854,21-4.268,28.511-10.125-1.509-21.965,2.874-32.518,2.457a89.068,89.068,0,0,1-31.662-7c5.648-7.5,11.444-17.514,14.358-26.2Z" transform="translate(-47.92 -150.577)"/><path class="g" d="M49.355,175.006c-8.611-.37-17.345-8.783-22.79-15.776q-.514-.658-.986-1.3c-2.075-2.8-8.555-10.5-1.47-11.021,1.778-.131,4.909,3.137,8.093,7.2,4.975,6.359,20.208,17.267,20.465,17.566Z" transform="translate(-14.591 -102.663)"/><path class="g" d="M313,155.631c-5.215,10.126-21.875,15.695-30.966,17.65l3.657-4.484c8.222-6.625,13.766-10.506,19.314-17.835.01-.014.021-.028.031-.043.719-.99,1.591-3.721,2.459-4.417,2.154-1.721,2.392-3.531,5.72-3.816,2.065,4.952,1.685,9.251-.216,12.944" transform="translate(-197.089 -99.713)"/><path class="h" d="M38.374,270.782c-.011-.581-.039-3.282-.128-4.235.844,1.024,1.8,2.259,2.615,3.4a3.049,3.049,0,0,1,.1-.694Z" transform="translate(-26.727 -186.269)"/><path class="h" d="M54,263.407a24.6,24.6,0,0,0,1.587-3.916c.489,1.261,1.129,2.523,1.708,3.727.4.231.074-.148.239-.328Z" transform="translate(-37.737 -181.338)"/><path class="h" d="M70.989,269.722q1.395-1.645,2.845-3.24c.033,2.238-1.251,4.022-1.288,5.808a4.3,4.3,0,0,0,.569-.594Z" transform="translate(-49.609 -186.224)"/><path class="i" d="M30.806,285.648c.377,2.24.958,4.977,3.038,6.387,3.76,2.549,8.282.185,10.1-3.5,2.94-5.957,3.42-18.9-5.322-19.608-3.509-.283-11.852,6.37-7.408,9.636,0,0-1.3,1.8-.407,7.081" transform="translate(-20.923 -187.929)"/><path class="j" d="M40.374,281.386c-1.313-.671-2.7,2-.807,2.414a1.879,1.879,0,0,0,1.156-.135c.764-.338,1.906-1.127-.349-2.279" transform="translate(-27.005 -196.564)"/><path class="j" d="M55.231,277.767c-1.956-1.3-4.487,1.357-1.9,2.942a1.756,1.756,0,1,0,1.9-2.942" transform="translate(-36.5 -193.869)"/><path class="j" d="M69.532,287.225c-1.418-.579-3.912.918-1.952,2.841,1.717,1.684,4.141-1.946,1.952-2.841" transform="translate(-46.721 -200.632)"/><path class="j" d="M45.528,294.323c-1.908-.252-4.962.483-4.915,3.952a4.8,4.8,0,0,0,5.569,4.761c5.876-.855,3.6-8.152-.655-8.713" transform="translate(-28.381 -205.648)"/><path class="i" d="M305.5,28.011c3.564-1.779,6.114-6.45,9.76-8.046A3.325,3.325,0,0,1,319.79,22.1c1.831,6.445,3.972,11.947-8.46,13.464Z" transform="translate(-213.488 -13.756)"/><path class="j" d="M310.226,43.1a22.93,22.93,0,0,0,7.092-3.081c.429-.305,1.411-1.513,1.926-1.513,1.035,0,1.99,1.589,1.87,2.682-.336,3.076-6.615,5.42-8.735,3.149Z" transform="translate(-216.793 -26.906)"/><path class="i" d="M150.685,66.463c-5.841,2.841-14.115,2.591-21.447,2.5-2.439-.03-4.774-.043-6.88.08a177.067,177.067,0,0,1-20.111.374A81.271,81.271,0,0,1,93.61,68.5C71.986,64.978,79.366,54.678,82.884,38.936,87.4,18.714,93.321,6.753,114.231.709a18.235,18.235,0,0,1,6.675-.637c5.226.465,15.347,1.5,19.613,2.881,11.957,3.872,10.249,9.995,12.736,20.873,2.81,12.292,14.591,34.289-2.57,42.636" transform="translate(-55.05 0)"/><path class="h" d="M193.924,136.117a.236.236,0,0,0-.086-.115c-2.328-1.621-7.917.105-11.007.116a.233.233,0,0,0-.2.351c1.167,2.047,3.376,1.421,5.188,1.24-.055.823-.09,1.656-.128,2.538-.206,4.784-.439,10.206-4.03,13.713-1.043,1.018-1.9,1.3-2.421.8a1.885,1.885,0,0,1-.194-2.174c.187-.2.467-.148.831.168l.32-.369c-.82-.71-1.33-.327-1.51-.129a2.348,2.348,0,0,0,.214,2.855,1.352,1.352,0,0,0,1.285.345A3.946,3.946,0,0,0,184,154.309a10.961,10.961,0,0,0,1.875-2.446c.4,1.3.939,2.733,2.017,3.3a2.4,2.4,0,0,0,1.667.183c.119-.026.241-.058.364-.1a3.214,3.214,0,0,0,2.125-3.607l-.479.09a2.719,2.719,0,0,1-1.8,3.053,2.065,2.065,0,0,1-1.654-.052c-1.029-.541-1.524-2.155-1.918-3.476,1.645-3.317,1.818-7.334,1.975-10.986.039-.9.076-1.75.132-2.587l-.061,0a2.674,2.674,0,0,1,1.537.273.189.189,0,0,0,.038.018c.358.124,5.41,1.82,4.1-1.85" transform="translate(-125.997 -94.556)"/><path class="h" d="M122.387,113.229a1.976,1.976,0,0,1,.672.006l.234.045.028.236a18.718,18.718,0,0,1,.014,4.179l-.647-.07a18.059,18.059,0,0,0,.015-3.773,3.732,3.732,0,0,0-2.545,1.678c-.411.608-.525,1.175-.305,1.515l-.546.353a2.032,2.032,0,0,1,.312-2.232,4.575,4.575,0,0,1,2.769-1.938" transform="translate(-83.223 -79.109)"/><path class="h" d="M282.306,119.573c.34-.789.855-1.981,1.353-2.057h0a.669.669,0,0,1,.639.175c.559.573.468,2.233.3,3.526l.652.021c.216-1.69.221-3.273-.489-4a1.333,1.333,0,0,0-1.2-.364h0c-.855.13-1.386,1.359-1.853,2.443a6.172,6.172,0,0,1-.567,1.136l.505.41a6.192,6.192,0,0,0,.659-1.288" transform="translate(-196.468 -81.659)"/><path class="i" d="M94.851,40.834A53.188,53.188,0,0,0,81.631,37.9c-2.033,5.858,2.6,17.94,9.943,9.186Z" transform="translate(-56.71 -26.485)"/><path class="j" d="M96.957,55.479c-1.676,2.531-7.419-2.8-9.057.056-1.127,1.967,1.484,2.921,2.9,3.16,2.111.356,3.337-.283,5.1-1.1Z" transform="translate(-61.235 -38.202)"/><path class="j" d="M265.744,141.591a5.528,5.528,0,0,0-.453,4.982c1.733,4.778,6.755,4.144,10.034,1.373,2.016-1.7,4.207-4.981,2.3-7.542-1.392-1.871-8.887-3.4-11.883,1.186" transform="translate(-185.122 -96.84)"/><path class="j" d="M105.051,131.176q-.967.157-1.911.38a6.9,6.9,0,0,0-4.84,9.3,6.6,6.6,0,0,0,3.223,3.461c3.883,1.914,10.231.15,11.388-4.306.994-3.829-2.306-6.883-5.434-8.268a7.861,7.861,0,0,0-2.426-.572" transform="translate(-68.33 -91.669)"/><path class="i" d="M32.2,154.115a26.715,26.715,0,0,1-5.637,5.114q-.514-.658-.986-1.3c-2.075-2.8-8.555-10.5-1.47-11.021,1.778-.131,4.909,3.137,8.093,7.2" transform="translate(-14.591 -102.662)"/><path class="i" d="M366.368,155.631c-3.1-.949-6.2-2.193-7.963-4.712.719-.99,1.59-3.721,2.459-4.417,2.154-1.721,2.392-3.531,5.72-3.816,2.065,4.952,1.685,9.251-.216,12.944" transform="translate(-250.462 -99.713)"/><path class="h" d="M149.388,289.077a19.723,19.723,0,0,0-.669-5.458,17.554,17.554,0,0,0,3.174,3.38Z" transform="translate(-103.928 -198.199)"/><path class="h" d="M165.928,286.742a12.641,12.641,0,0,1,1.041-3.917,39.051,39.051,0,0,1,1.149,3.932Z" transform="translate(-115.954 -197.644)"/><path class="h" d="M180.424,297.073a35.578,35.578,0,0,1,3.3-2.642c-.774,1.428-.721,3.173-1.361,4.683.02.336.094-.187.135-.3Z" transform="translate(-126.084 -205.755)"/><path class="i" d="M139.94,302.918c.038-6.512,5.143-20.942,13.374-9.422,2.357,3.3,2.24,6.985.9,10.507-4.29,11.253-14.325,8.008-14.272-1.085" transform="translate(-97.793 -202.081)"/><path class="j" d="M149.607,305.946c-1.313-.671-2.7,2-.807,2.414a1.884,1.884,0,0,0,1.156-.135c.764-.338,1.906-1.127-.35-2.279" transform="translate(-103.339 -213.727)"/><path class="j" d="M164.464,302.326c-1.956-1.3-4.488,1.357-1.9,2.942a1.756,1.756,0,1,0,1.9-2.942" transform="translate(-112.834 -211.031)"/><path class="j" d="M178.763,311.785c-1.418-.579-3.912.918-1.952,2.84,1.717,1.684,4.141-1.946,1.952-2.84" transform="translate(-123.055 -217.795)"/><path class="j" d="M154.761,318.882c-1.908-.252-4.963.483-4.915,3.952a4.8,4.8,0,0,0,5.569,4.761c5.876-.855,3.6-8.152-.655-8.714" transform="translate(-104.716 -222.811)"/><path class="k" d="M45.591,212.662c-6.9-1.168-11.974-5.237-19.583-5.194-6.113.034-11.061,1.091-17.326,1.063a15.029,15.029,0,0,1,3.547,3.8,5.872,5.872,0,0,1,.913,2.606l.11.014c3.239.393,7.85-.138,11.546.092,6.911.43,17.732,1.743,23.63.846Z" transform="translate(-6.066 -144.983)"/><path class="k" d="M159.669,223.446c-6.009-1.029-16.363.065-23.21.078-9.681.018-23.591-.228-31.7-2.574l1.4.392c-.236,3.829-.924,5.064,8.152,6.621,5.486.941,11.152,1.323,16.951,1.937,5.446.576,12.672,1.634,18.267,1.379,4.277-.2,7.959-2.2,11.964-2.676-.681-1.718-.835-3.451-1.821-5.157" transform="translate(-73.207 -154.405)"/></g></g></g></svg>