<svg xmlns="http://www.w3.org/2000/svg" xmlns:xlink="http://www.w3.org/1999/xlink" width="50" height="60.617" viewBox="0 0 50 60.617"><defs><style>.a{fill:none;}.b{clip-path:url(#a);}.c{fill:#826f58;}</style><clipPath id="a"><rect class="a" width="50" height="60.617" transform="translate(0 0)"/></clipPath></defs><g class="b"><path class="c" d="M50.4,40.038c0,1.732-1.4,1.226-3.137,1.226s-3.137.506-3.137-1.226a3.137,3.137,0,1,1,6.274,0" transform="translate(-22.265 -18.619)"/><path class="c" d="M32.354,25.638a1.853,1.853,0,1,0,1.852,1.852,1.854,1.854,0,0,0-1.852-1.852" transform="translate(-15.39 -12.936)"/><path class="c" d="M64.794,25.638a1.853,1.853,0,1,0,1.852,1.852,1.854,1.854,0,0,0-1.852-1.852" transform="translate(-31.758 -12.936)"/><path class="c" d="M51.308,41.3c1.228.072,2.111.106,2.111-1.267A3.137,3.137,0,0,0,50.283,36.9c-.059,0-.117.006-.175.009a13.878,13.878,0,0,0,1.2,4.4" transform="translate(-25.282 -18.618)"/><path class="c" d="M49.943,44.179a20.431,20.431,0,0,0-6.176-11.72A1,1,0,0,0,42.4,33.912,18.448,18.448,0,0,1,47.977,44.5a2.29,2.29,0,0,1-.527,1.88,2.425,2.425,0,0,1-1.852.858h-.083a2.423,2.423,0,0,1-2.293-1.689,18.287,18.287,0,0,0-6.973-9.438,18.419,18.419,0,0,0,5.416-22.555,6.963,6.963,0,1,0-8.84-8.793,18.3,18.3,0,0,0-5.493-1.593,1,1,0,0,0-.248,1.976A16.444,16.444,0,1,1,10.9,12.96a.421.421,0,0,0,.1-.168A16.4,16.4,0,0,1,20.1,5.76a1,1,0,0,0-.592-1.9,18.79,18.79,0,0,0-2.334.915,6.964,6.964,0,1,0-8.853,8.784A18.463,18.463,0,0,0,8.836,30.4,20.146,20.146,0,0,0,.058,44.179a4.308,4.308,0,0,0,.974,3.494A4.414,4.414,0,0,0,4.4,49.234h.083a4.348,4.348,0,0,0,2.362-.708,10.483,10.483,0,0,0,.5,1.067,6.194,6.194,0,0,0-1.427,3.9c0,3.931,3.917,7.13,8.73,7.13a9.537,9.537,0,0,0,6.838-2.709,26.722,26.722,0,0,0,7.029,0,9.535,9.535,0,0,0,6.837,2.71c4.814,0,8.73-3.2,8.73-7.13a6.193,6.193,0,0,0-1.428-3.9,10.529,10.529,0,0,0,.5-1.065,4.347,4.347,0,0,0,2.361.708H45.6a4.414,4.414,0,0,0,3.371-1.561,4.309,4.309,0,0,0,.975-3.494M39.433,1.992a4.968,4.968,0,0,1,3.362,8.63A5.365,5.365,0,0,0,35.773,3.6a4.97,4.97,0,0,1,3.659-1.611M35.389,6.233A3.378,3.378,0,1,1,40.178,11a18.565,18.565,0,0,0-4.789-4.763M5.595,6.964a4.971,4.971,0,0,1,9.784-1.245,18.312,18.312,0,0,0-5.571,5.263,3.379,3.379,0,0,1,2.354-5.8,1,1,0,0,0,0-1.992A5.366,5.366,0,0,0,7.2,10.619,4.975,4.975,0,0,1,5.595,6.964m9.053,51.661c-3.715,0-6.738-2.3-6.738-5.138a4.368,4.368,0,0,1,1.327-3.048l.014-.015a7.574,7.574,0,0,1,5.4-2.074c3.716,0,6.739,2.3,6.739,5.137s-3.023,5.138-6.739,5.138m8.139-2.578a5.957,5.957,0,0,0,.592-2.559c0-2.956-2.215-5.5-5.359-6.576a8.155,8.155,0,0,1,12.534-1.756A1,1,0,1,0,31.911,43.7a10.15,10.15,0,0,0-15.918,2.754,10.613,10.613,0,0,0-1.345-.094,9.863,9.863,0,0,0-5.786,1.805,8.1,8.1,0,0,1-.47-1.325,4.482,4.482,0,0,0,.278-.664,16.847,16.847,0,0,1,3.939-6.555,1,1,0,1,0-1.415-1.4,18.846,18.846,0,0,0-4.416,7.337,2.422,2.422,0,0,1-2.293,1.689H4.4a2.424,2.424,0,0,1-1.851-.858,2.292,2.292,0,0,1-.528-1.88A18.16,18.16,0,0,1,9.9,32.086a18.428,18.428,0,0,0,24.562,5.252,16.127,16.127,0,0,1,6.871,8.836,4.553,4.553,0,0,0,.28.665,8.107,8.107,0,0,1-.47,1.324,9.865,9.865,0,0,0-5.786-1.805c-4.814,0-8.73,3.2-8.73,7.129a5.963,5.963,0,0,0,.591,2.559,25.483,25.483,0,0,1-4.425,0m12.565,2.578c-3.715,0-6.739-2.3-6.739-5.138s3.023-5.137,6.739-5.137,6.738,2.3,6.738,5.137-3.023,5.138-6.738,5.138" transform="translate(0 0)"/><path class="c" d="M45.812,8.25a1.013,1.013,0,0,0,.1,0c.128-.013.257-.025.384-.035a1,1,0,0,0-.154-1.987c-.144.012-.288.025-.433.04a1,1,0,0,0,.1,1.987" transform="translate(-22.612 -3.139)"/><path class="c" d="M32.511,43.062c0,4.009,3.989,7.27,8.893,7.27s8.892-3.262,8.892-7.27c0-3.083-2.34-5.791-5.853-6.83a4.113,4.113,0,0,0-6.077,0c-3.513,1.039-5.854,3.748-5.854,6.83m15.792,0c0,2.91-3.1,5.278-6.9,5.278s-6.9-2.368-6.9-5.278a5,5,0,0,1,2.776-4.228c0,.063-.009.126-.009.19a2.269,2.269,0,0,0,.634,1.727,3.3,3.3,0,0,0,2.585.531,15.857,15.857,0,0,1,1.829,0c.266.015.534.031.8.031a2.472,2.472,0,0,0,1.788-.562,2.268,2.268,0,0,0,.634-1.727c0-.064-.007-.127-.009-.191A5,5,0,0,1,48.3,43.062m-4.759-4.038a1.208,1.208,0,0,1-.024.27,5.348,5.348,0,0,1-1.085,0c-.326-.019-.672-.039-1.033-.039s-.708.02-1.033.039a5.312,5.312,0,0,1-1.085,0,1.24,1.24,0,0,1-.024-.27,2.141,2.141,0,0,1,4.282,0" transform="translate(-16.404 -17.604)"/><path class="c" d="M34.205,27.49a1.853,1.853,0,1,0-1.853,1.852,1.855,1.855,0,0,0,1.853-1.852m-1.992,0a.139.139,0,0,1,.279,0c0,.154-.279.154-.279,0" transform="translate(-15.389 -12.936)"/><path class="c" d="M66.645,27.49a1.853,1.853,0,1,0-1.853,1.852,1.854,1.854,0,0,0,1.853-1.852m-1.992,0a.139.139,0,0,1,.279,0c0,.154-.279.154-.279,0" transform="translate(-31.757 -12.936)"/></g></svg>