<?xml version="1.0" encoding="utf-8"?>
<!-- Generator: Adobe Illustrator 24.0.0, SVG Export Plug-In . SVG Version: 6.00 Build 0)  -->
<svg version="1.1" id="圖層_1" xmlns="http://www.w3.org/2000/svg" xmlns:xlink="http://www.w3.org/1999/xlink" x="0px" y="0px"
	 viewBox="0 0 512.21 158.95" style="enable-background:new 0 0 512.21 158.95;" xml:space="preserve">
<style type="text/css">
	.st0{fill:#938472;}
	.st1{fill:#C8D900;}
	.st2{fill:#C4E4E0;}
	.st3{fill:#B4A896;}
	.st4{fill:#FFF8D1;}
	.st5{fill:#C8D800;}
</style>
<g>
	<g>
		<polygon class="st0" points="409.03,62.11 423.47,62.11 423.47,59.39 396.04,59.39 398.55,54.48 388.36,54.48 385.2,62.11 
			387.62,62.11 394.64,62.11 399.93,62.11 399.86,68.73 384,68.73 384,71.45 399.83,71.45 399.7,84.05 392.3,84.05 393.5,75.57 
			384.4,75.57 383.19,86.77 385.46,86.77 391.92,86.77 399.67,86.77 408.77,86.77 415.52,86.77 423.94,86.77 424.24,86.77 
			425.82,75.57 416.73,75.57 415.81,84.05 408.8,84.05 408.93,71.45 425.82,71.45 425.82,68.73 408.96,68.73 		"/>
		<polygon class="st0" points="381.8,55.64 376.22,57.4 376.22,44.93 382.52,44.93 382.52,42.21 376.22,42.21 376.22,29.54 
			367.13,29.54 367.13,42.21 360.43,42.21 360.43,44.93 367.13,44.93 367.13,60.28 360.74,62.3 361.56,64.89 367.13,63.13 
			367.13,84.05 363.05,84.05 363.05,86.77 367.13,86.77 376.22,86.77 376.22,84.05 376.22,60.25 382.62,58.23 		"/>
		<polygon class="st0" points="386.17,41.96 387,50.37 391.22,50.37 395.49,50.37 397.58,50.37 397.58,47.65 395.22,47.65 
			394.65,41.96 		"/>
		<polygon class="st0" points="399.5,41.96 400.34,50.37 404.55,50.37 408.82,50.37 410.92,50.37 410.92,47.65 408.55,47.65 
			407.99,41.96 		"/>
		<polygon class="st0" points="415.13,50.37 411.97,50.37 411.97,53.09 414.82,53.09 419.09,53.09 423.3,53.09 424.57,41.96 
			416.08,41.96 		"/>
		<polygon class="st0" points="417.92,38.3 423.78,38.3 425.82,29.54 416.73,29.54 415.75,33.09 385.9,33.09 385.9,38.3 
			414.31,38.3 		"/>
		<g>
			<path class="st0" d="M453.13,48.37c-0.83,0-1.47,0.67-1.44,1.5l0.72,16.55c0.04,0.82,0.74,1.5,1.56,1.5h4.97
				c0.83,0,1.51-0.67,1.52-1.5l0.24-16.55c0.01-0.83-0.65-1.5-1.48-1.5H453.13z"/>
			<path class="st0" d="M467.66,46.85c-0.83,0-1.47,0.67-1.44,1.5l0.73,19.19c0.03,0.82,0.73,1.5,1.56,1.5h4.97
				c0.83,0,1.51-0.67,1.52-1.5l0.24-19.19c0.01-0.82-0.66-1.5-1.48-1.5H467.66z"/>
			<path class="st0" d="M510.71,84.12h-0.68c-0.83,0-1.47-0.67-1.43-1.5l0.45-9.26c0.04-0.82-0.02-1.5-0.12-1.5
				c-0.11,0-0.87,0-1.69,0h-5.71c-0.83,0-2.18,0-3,0H462.5c-0.83,0-2.18,0-3,0h-4.89c-0.83,0-1.77,0-2.1,0
				c-0.33,0-0.62,0.67-0.63,1.5l-0.19,9.26c-0.02,0.82-0.71,1.5-1.53,1.5h-0.35c-0.83,0-1.5,0.61-1.5,1.36
				c0,0.75,0.68,1.36,1.5,1.36h60.91c0.83,0,1.5-0.61,1.5-1.36C512.21,84.73,511.53,84.12,510.71,84.12z M470.49,82.62
				c0,0.82-0.68,1.5-1.5,1.5h-7.08c-0.83,0-1.47-0.67-1.43-1.5l0.32-6.54c0.04-0.82,0.75-1.5,1.57-1.5h6.62c0.83,0,1.5,0.68,1.5,1.5
				V82.62z M487.07,82.62c0,0.82-0.68,1.5-1.5,1.5h-5.4c-0.83,0-1.48-0.67-1.45-1.5l0.24-6.54c0.03-0.82,0.73-1.5,1.55-1.5h5.05
				c0.83,0,1.5,0.68,1.5,1.5V82.62z M499.8,82.62c-0.02,0.82-0.71,1.5-1.53,1.5h-2.56c-0.83,0-1.48-0.67-1.45-1.5l0.24-6.54
				c0.03-0.82,0.73-1.5,1.55-1.5h2.41c0.83,0,1.49,0.67,1.47,1.5L499.8,82.62z"/>
			<path class="st0" d="M480.92,63.1h7.19c0.83,0,1.81-0.6,2.18-1.33l2.14-4.18c0.38-0.73,1.36-1.33,2.18-1.33h12.61
				c0.83,0,1.5-0.61,1.5-1.36c0-0.75-0.68-1.36-1.5-1.36h-11.21c-0.83,0-1.19-0.6-0.82-1.33l1.29-2.52
				c0.38-0.73,0.01-1.33-0.82-1.33h-7.19c-0.83,0-1.81,0.6-2.18,1.33l-6.2,12.08C479.73,62.5,480.09,63.1,480.92,63.1z"/>
			<path class="st0" d="M507.23,64.58h-1.46c-0.83,0-1.57-0.67-1.65-1.49l-0.27-2.7c-0.08-0.82-0.82-1.49-1.65-1.49h-5.48
				c-0.83,0-1.43,0.67-1.35,1.49l0.54,5.42c0.08,0.82,0.82,1.49,1.65,1.49h1.21c0.83,0,2.18,0,3,0h1.27c0.83,0,2.18,0,3,0h1.19
				c0.83,0,1.5-0.61,1.5-1.36S508.06,64.58,507.23,64.58z"/>
			<path class="st0" d="M449.95,45.61h6.26c0.56,0,1.19-0.42,1.4-0.94l2.76-6.66l14.99,6.56c0.57,0.25,1.23-0.01,1.48-0.58
				l0.19-0.43c0.25-0.57-0.01-1.23-0.58-1.48l-13.38-5.86h13.4c0.56,0,1.01-0.46,1.01-1.01v-0.69c0-0.56-0.46-1.01-1.01-1.01h-13.2
				c-0.56,0-0.84-0.42-0.62-0.93l0.33-0.78c0.22-0.51-0.06-0.93-0.62-0.93h-6.26c-0.56,0-1.19,0.42-1.41,0.94l-5.37,12.88
				C449.12,45.18,449.4,45.61,449.95,45.61z"/>
			<path class="st0" d="M482.36,45.61h6.26c0.56,0,1.19-0.42,1.4-0.94l2.76-6.66l14.98,6.55c0.57,0.25,1.23-0.01,1.48-0.58
				l0.19-0.43c0.25-0.57-0.01-1.23-0.58-1.48l-13.38-5.86h13.41c0.56,0,1.01-0.46,1.01-1.01v-0.69c0-0.56-0.46-1.01-1.01-1.01h-13.2
				c-0.56,0-0.84-0.42-0.62-0.93l0.33-0.78c0.22-0.51-0.06-0.93-0.62-0.93h-6.26c-0.56,0-1.19,0.42-1.41,0.94l-5.37,12.88
				C481.52,45.18,481.8,45.61,482.36,45.61z"/>
		</g>
		<path class="st0" d="M306.53,34.75h-6.31c-0.68,0-1.24,0.52-1.24,1.16v2.35c0,0.64-0.55,1.16-1.24,1.16h-10.38
			c-0.83,0-1.42-0.75-1.19-1.49l1.99-6.37c0.23-0.74-0.36-1.49-1.19-1.49h-7.11c-0.58,0-1.08,0.38-1.21,0.91l-2.57,10.88
			c-0.17,0.73,0.42,1.41,1.21,1.41h29.21c0.68,0,1.24-0.52,1.24-1.16v-6.2C307.77,35.27,307.21,34.75,306.53,34.75z"/>
		<path class="st0" d="M306.53,47.31h-29.51c-0.68,0-1.24,0.52-1.24,1.17v23.89c0,0.64,0.56,1.17,1.24,1.17h7.08
			c0.68,0,1.24-0.52,1.24-1.17v-6.35h13.07v2.68c0,0.64-0.56,1.17-1.24,1.17h-3.18c-0.68,0-1.24,0.52-1.24,1.17v1.34
			c0,0.64,0.56,1.17,1.24,1.17h12.54c0.68,0,1.24-0.52,1.24-1.17V48.48C307.77,47.83,307.21,47.31,306.53,47.31z M286.58,50.98
			h10.59c0.68,0,1.24,0.52,1.24,1.17v3.05h-13.07v-3.05C285.34,51.5,285.89,50.98,286.58,50.98z M285.34,62.9v-4.58h13.07v4.58
			H285.34z"/>
		<path class="st0" d="M287.54,76.47h-7.08c-0.48,0-0.91,0.26-1.12,0.67l-4.09,8.13c-0.39,0.77,0.21,1.66,1.12,1.66h7.38
			c0.49,0,0.94-0.27,1.13-0.7l3.79-8.13C289.03,77.33,288.43,76.47,287.54,76.47z"/>
		<path class="st0" d="M303.82,76.47h-6.55c-0.74,0-1.32,0.61-1.23,1.31l1.06,8.12c0.08,0.58,0.6,1.02,1.23,1.02h7.16
			c0.78,0,1.36-0.67,1.22-1.38l-1.67-8.12C304.92,76.86,304.41,76.47,303.82,76.47z"/>
		<path class="st0" d="M320.02,76.47h-6.9c-0.76,0-1.35,0.64-1.23,1.35l1.36,8.12c0.1,0.57,0.62,0.99,1.23,0.99h7.36
			c0.79,0,1.38-0.68,1.22-1.41l-1.82-8.12C321.12,76.85,320.61,76.47,320.02,76.47z"/>
		<path class="st0" d="M337.45,77.36c-0.14-0.52-0.64-0.89-1.21-0.89h-6.82c-0.8,0-1.39,0.7-1.21,1.43l1.97,8.11
			c0.13,0.53,0.63,0.91,1.21,0.91h6.97c0.81,0,1.4-0.71,1.21-1.45L337.45,77.36z"/>
		<path class="st0" d="M338.7,47.31h-15.65c-0.69,0-1.24-0.52-1.24-1.17v-3.48c0-0.51,0.35-0.96,0.86-1.11l16.11-4.87l-0.91-1.7
			c-0.27-0.5-0.87-0.75-1.45-0.6l-12.84,3.36c-0.79,0.21-1.58-0.35-1.58-1.13v-5.36c0-0.65-0.56-1.17-1.24-1.17h-7.85
			c-0.69,0-1.24,0.52-1.24,1.17v18.56c0,0.65,0.56,1.17,1.24,1.17h25.79c0.69,0,1.24-0.52,1.24-1.17v-1.33
			C339.95,47.83,339.39,47.31,338.7,47.31z"/>
		<path class="st0" d="M338.7,69.68h-15.65c-0.69,0-1.24-0.52-1.24-1.17v-3.48c0-0.51,0.35-0.96,0.86-1.11l16.11-4.87l-0.91-1.7
			c-0.27-0.5-0.87-0.75-1.45-0.6l-12.84,3.36c-0.79,0.21-1.58-0.35-1.58-1.13v-5.36c0-0.65-0.56-1.17-1.24-1.17h-7.85
			c-0.69,0-1.24,0.52-1.24,1.17v18.56c0,0.65,0.56,1.17,1.24,1.17h25.79c0.69,0,1.24-0.52,1.24-1.17v-1.33
			C339.95,70.21,339.39,69.68,338.7,69.68z"/>
		<path class="st0" d="M217.82,31.29v48.68c0,0.65-0.56,1.18-1.25,1.18h-2.81c-0.69,0-1.25,0.53-1.25,1.18v2.76
			c0,0.65,0.56,1.18,1.25,1.18h4.06h6.76h1.93c0.69,0,1.25-0.53,1.25-1.18V31.29c0-0.65-0.56-1.18-1.25-1.18h-7.44
			C218.38,30.11,217.82,30.64,217.82,31.29z"/>
		<path class="st0" d="M199.77,42.65h7c0.66,0,1.2,0.47,1.24,1.09c0.42,5.93-1.07,27.97-9.37,38.96c-0.23,0.3-0.61,0.46-1.01,0.46
			h-6.51c-0.9,0-1.51-0.88-1.13-1.65c1.56-3.19,4.9-10.75,6.8-20.24c2.11-10.52,1.92-13.57,1.72-17.39
			C198.49,43.2,199.06,42.65,199.77,42.65z"/>
		<path class="st0" d="M238.07,43.26h7.3c0.58,0,1.05,0.37,1.14,0.9l6.1,37.54c0.12,0.74-0.54,1.45-1.35,1.45h-8.69
			c-0.59,0-1.07-0.39-1.14-0.93l-4.71-37.54C236.62,43.95,237.28,43.26,238.07,43.26z"/>
	</g>
	<g>
		<path class="st1" d="M79.48,5.93c40.62,0,73.54,32.93,73.54,73.54c0,40.62-32.93,73.54-73.54,73.54
			c-40.62,0-73.54-32.93-73.54-73.54C5.93,38.86,38.86,5.93,79.48,5.93 M79.48,0C35.65,0,0,35.65,0,79.48
			c0,43.82,35.65,79.48,79.48,79.48c43.82,0,79.48-35.65,79.48-79.48C158.95,35.65,123.3,0,79.48,0L79.48,0z"/>
		<circle class="st2" cx="79.48" cy="79.48" r="67.91"/>
		<path class="st3" d="M125.94,64.65c-1.85-1.66-4.4-2.18-7.02-1.42c-1.81,0.53-2.94,2.65-3.69,4.06c-0.07,0.13-0.14,0.25-0.2,0.37
			c-1.94,3.55-6.53,5.17-9.1,5.82c-2.44,0.62-4.29,0.65-5.5,0.1c-0.28-0.13-0.5-0.36-0.55-0.59c-0.03-0.13,0-0.24,0.1-0.36
			c0.46-0.54,1.34-1,2.2-1.45c0.47-0.24,0.95-0.5,1.37-0.77c5.27-3.38,8.29-8.95,8.08-14.9c-0.13-3.49-0.7-7.96-4.06-11.59
			c-0.9-0.98-1.92-0.93-2.66-0.9c-0.11,0.01-0.22,0.01-0.34,0.01c-0.82,0.01-1.74-0.11-2.63-0.36c-1.77-0.5-3.12-1.56-3.69-2.92
			c-0.39-0.92-1.43-1.71-2.27-2.34c-0.19-0.15-0.37-0.28-0.51-0.4c-0.23-0.19-0.54-0.38-0.9-0.6c-0.3-0.19-0.86-0.53-1.17-0.78
			c0.03-0.06,0.06-0.12,0.09-0.17c0.14-0.27,0.26-0.52,0.33-0.77c0.2-0.76,0.3-1.47,0.3-2.18c0-4.52-3.68-8.2-8.2-8.2
			c-3.84,0-7.1,2.63-7.97,6.27c-0.13,0-0.27,0-0.4,0c-6.11,0-13.54,2.05-18.44,6.14c-2.27-1.95-4.78-2.43-6.16-2.54
			c-3.71-0.29-7.14,1.51-8.78,5.02c-1.61,3.45-1,8.23,1.58,10.84c0.87,0.88,2.56,2.19,4.21,2.82c-0.03,0.46-0.04,1.06-0.06,1.87
			c-0.02,1.34-0.01,2.68-0.01,2.87c0.06,2.53,0.29,5.52,1.53,8.46c1.01,2.38,2.78,4.23,4.36,5.78c0.22,0.22,0.46,0.44,0.69,0.66
			c1.26,1.19,2.44,2.31,2.71,3.79c0.29,1.63-0.86,2.8-2.06,3.19c-3.81,1.24-9.47,0.59-13.75-1.59c-0.62-0.32-1.25-0.71-1.92-1.13
			c-1.86-1.15-3.98-2.47-6.4-2.4c-2.36,0.07-4.3,1.51-5.31,3.96c-1.21,2.92,0.11,6.03,1.58,8.31c1.98,3.06,5.4,5.94,9.86,7.27
			c0.05,0.02,0.52,0.15,0.87,0.23c-0.03,1.23,0.17,4.21,0.17,4.21s0.49,7.2,4.17,14.33c3.4,6.58,10.96,16.01,23.68,19.62
			c0.34,0.1,4.91,1.6,11,1.6c5.77,0,11.16-1.2,16.59-3.62c0.79-0.32,12.29-4.99,18.64-18.18c0.3-0.55,2.9-5.57,3.77-12.76
			c0.47-3.84,0.24-8.25-0.65-13.02c-0.11-0.59,0.9-1.63,1.22-2c1.37-1.61,3.12-3.52,4.26-5.27c1.54-2.38,2.75-4.75,3.21-7.3
			C128.62,68.93,127.82,66.35,125.94,64.65z"/>
		<path class="st1" d="M114.88,95.88c-0.03-2.96-1.96-1.93-3.04-0.78c-1.13,1.21-3.55,3.59-4.23,4.27c-1.9,1.88-3.77,2.46-5.05,1.63
			c-1.31-0.85-1.02-3.05-0.21-3.94c1.73-1.92-0.83-3.32-2.12-1.69c-0.04,0.05-6.12,6.3-6.12,6.31c0,0,0,0,0,0
			c-1.04,1.03-3.47,3.26-4.52,4.29c-1.47,1.44-4.46,4.17-6.28,5.32c-4.96,3.12-9.24,4.9-16.63,3.95c-2.46-0.32-5.41-1.34-7.29-2.42
			c-2.7-1.55-4.45-2.85-5.86-4.55c-1.55-1.86-3.58-0.03-2.41,1.66c0,0,1.44,2.42,1.83,3.04c0.49,0.78,1.04,1.48,1.61,2.19
			c1.43,1.77,3,3.4,4.79,4.86c3.39,2.78,7.34,5.07,12.19,6.53c0.01,0,3.54,1.36,8.83,1.36c4.66,0,8.01-0.43,12.39-2.07
			c0.01,0,6.54-2.05,12.22-7.82c1.54-1.56,3.15-3.19,4.3-5.25c0.01-0.01,1.72-2.71,2.11-3.66c0.71-1.71,1.8-3.66,2.14-5.44
			c0.17-0.9,0.64-2.52,0.92-3.98C114.79,97.94,114.89,96.39,114.88,95.88z"/>
		<path class="st4" d="M105.42,63c1.51-2.19,2.3-4.81,2.21-7.55c-0.08-2.46-0.44-4.38-1.13-5.98c-0.18,0.02-0.37,0.03-0.55,0.03
			c-2.42,0-4.4-1.34-4.68-3.08c-0.95-0.29-1.8-0.76-2.49-1.37c-0.61,1.65-0.93,3.39-0.93,5.19C97.86,55.72,100.81,60.68,105.42,63z"
			/>
		<path class="st4" d="M123.83,67.4c-0.73-0.66-1.61-0.79-2.22-0.79c-0.28,0-0.56,0.03-0.85,0.09c-0.31,0.06-0.44,0.13-0.69,0.44
			c-0.36,0.46-0.68,1.02-0.95,1.51c-0.66,1.21-1.43,2.48-2.57,3.61c-0.96,0.95-2.13,1.81-3.47,2.55c-2.14,1.2-4.63,2.09-7.21,2.58
			c-0.72,0.14-1.82,0.3-3,0.3c-4.41,0-5.75-2.25-6.16-3.58c-0.47-1.53-0.3-3.76,3.14-5.71c0.3-0.17,0.61-0.33,0.91-0.49
			c0.5-0.26,0.96-0.5,1.39-0.79c0.24-0.16,0.48-0.33,0.71-0.51c-4.36-2.86-7.58-7.4-8.78-12.48c-0.77-3.25-0.73-6.67,0.11-9.88
			c0.22-0.86,0.51-1.72,0.84-2.54c0.06-0.14,0.12-0.29,0.18-0.43c-0.63-0.66-1.47-1.2-2.35-1.76c-0.19-0.12-0.38-0.25-0.57-0.37
			c-0.72-0.47-1.52-1.05-2-1.99c-0.72-1.43-0.07-2.73,0.28-3.43c0.34-0.68,0.3-1.83-0.1-2.84c-0.67-1.7-2.35-2.84-4.18-2.84
			c-0.13,0-0.26,0.01-0.39,0.02c-1.96,0.18-3.63,1.71-3.98,3.64c-0.13,0.73-0.39,2.19-2.04,2.57c-0.22,0.05-0.46,0.08-0.73,0.08
			c-0.17,0-0.35-0.01-0.53-0.02c-0.09-0.01-0.19-0.01-0.28-0.02c-0.13,0-0.27,0-0.4,0c-0.25,0-0.49,0-0.73,0.01
			c-1.31,0.04-2.67,0.18-4.04,0.43c-2.89,0.52-5.57,1.41-7.95,2.66c-1.25,0.65-2.37,1.39-3.35,2.19c-0.08,0.06-0.16,0.14-0.24,0.21
			c-0.45,0.42-1.14,1.04-2.19,1.04c-0.14,0-0.28-0.01-0.43-0.04c-0.8-0.14-1.27-0.6-1.58-0.91c-0.25-0.25-0.5-0.46-0.75-0.65
			c-1.18-0.88-2.67-1.38-4.11-1.38c-0.56,0-1.09,0.08-1.6,0.22c-1.85,0.55-3.19,2.18-3.49,4.24c-0.16,1.08-0.09,2.16,0.19,3.12
			c0.29,0.97,0.85,1.79,1.71,2.5c0.5,0.41,1.01,0.76,1.52,1.05c0.26,0.14,0.49,0.25,0.7,0.33c0.08,0.03,0.16,0.05,0.25,0.06
			c0.18,0.04,0.4,0.09,0.64,0.19c1.87,0.73,1.67,2.74,1.57,3.71c-0.02,0.17-0.03,0.33-0.04,0.47c-0.07,2.22-0.11,4.57,0.18,6.83
			c0.23,1.76,0.62,3.2,1.21,4.4c0.67,1.36,1.71,2.51,2.64,3.46c0.34,0.35,0.71,0.7,1.07,1.05c1.88,1.79,4.02,3.82,4.18,6.94
			c0.09,1.63-0.47,3.28-1.54,4.52c-1.32,1.53-3.09,2.1-4.31,2.39c-1.37,0.33-2.84,0.5-4.37,0.5c-1.75,0-3.59-0.22-5.47-0.65
			c-1.54-0.35-3.02-0.84-4.4-1.43c-1.24-0.54-2.36-1.22-3.45-1.88c-0.33-0.2-0.65-0.4-0.99-0.59c-1.06-0.63-2.18-1.21-3.17-1.21
			c-0.15,0-0.3,0.01-0.44,0.04c-0.79,0.15-1.27,0.88-1.49,1.3c-0.56,1.08-0.37,2.23-0.11,3c0.38,1.13,1.14,2.11,2.1,3.28
			c0.81,0.98,1.53,1.71,2.26,2.27c0.87,0.67,1.86,1.21,2.71,1.64c1.73,0.88,3.92,1.32,6.51,1.32c0.33,0,0.66-0.01,0.98-0.02
			c1.06-0.04,2.05-0.17,2.95-0.37c0.3-0.07,0.59-0.15,0.89-0.23c0.35-0.1,0.72-0.2,1.1-0.28c1.57-0.34,4.92-1.11,6.68-1.11
			c1.4,0,2.41,0,3.92,0.22c5.91,0.85,10.16,3.78,13.87,7.63c0.55,0.57,1.29,1.71,1.8,2.33c1.43,1.74,2.39,3.25,4.23,3.53
			c0.15,0.02,0.3,0.03,0.46,0.03c1.01,0,2.1-0.49,2.91-1.3c0.78-0.78,1.55-1.62,2.3-2.43c0.38-0.41,0.77-0.83,1.15-1.24l7.46-7.93
			l2.69-2.86l2.96-3.14c0.79-0.84,1.49-1.6,2.13-2.32c0.57-0.63,1.27-0.98,1.98-0.98c0.69,0,1.32,0.33,1.78,0.92
			c0.58,0.76,0.64,1.62,0.67,2.24c0.01,0.22,0.03,0.42,0.06,0.55c0.08,0.35,0.35,0.69,0.71,0.9c0.09,0.05,0.24,0.12,0.55,0.12
			c0.19,0,0.42-0.03,0.72-0.08c2.82-0.53,4.87-2.48,7.26-4.99c1.74-1.83,3.67-4.05,4.71-6.66C124.91,71.53,125.48,68.89,123.83,67.4
			z M77.34,44.23c1.12-1.99,2.86-2.5,3.38-2.67c1-0.33,2.9-0.31,4.24,0.46c1,0.57,1.75,1.34,2.23,2.14
			c0.31,0.51,0.55,1.27,0.55,1.27s-0.76-0.66-1.97-1.08c-0.87-0.3-2.04-0.47-3.2-0.25c-0.18,0.03-0.91,0.15-1.77,0.57
			c-0.54,0.27-1.01,0.57-1.5,1.01c-0.66,0.59-1.2,1.35-1.53,2.03c-0.49,1.04-0.58,1.92-0.58,1.92s-0.58-1.18-0.62-2.59
			C76.54,46.11,76.89,45.03,77.34,44.23z"/>
	</g>
	<g>
		<path class="st5" d="M192.03,108.23h10.34c5.01,0,7.22,2.48,7.22,5.41c0,2.22-1.16,3.8-2.83,4.49c1.56,0.55,3.4,2.01,3.4,4.7
			c0,3.41-2.55,6.19-7.73,6.19h-10.41V108.23z M201.35,116.25c1.68,0,2.35-0.86,2.35-1.99c0-1.29-0.94-1.92-2.4-1.92h-3.35v3.91
			H201.35z M197.95,124.93h3.11c2,0,2.85-0.87,2.85-2.36c0-1.31-0.81-2.23-2.74-2.23h-3.23V124.93z"/>
		<path class="st5" d="M214.35,108.23h10.34c5.01,0,7.22,2.48,7.22,5.41c0,2.22-1.17,3.8-2.83,4.49c1.56,0.55,3.4,2.01,3.4,4.7
			c0,3.41-2.55,6.19-7.73,6.19h-10.41V108.23z M223.67,116.25c1.68,0,2.35-0.86,2.35-1.99c0-1.29-0.94-1.92-2.4-1.92h-3.35v3.91
			H223.67z M220.27,124.93h3.11c2,0,2.85-0.87,2.85-2.36c0-1.31-0.81-2.23-2.74-2.23h-3.23V124.93z"/>
		<path class="st5" d="M236.44,129.01v-6.3h5.87v6.3H236.44z"/>
		<path class="st5" d="M250.65,129.02l-5.01-20.79h6.41c1.41,7.93,1.89,11.4,2.13,14.7h0.09c0.86-4.51,2.12-9.83,3.18-14.7h5.42
			c0.93,4.2,2.31,9.98,3.04,14.45h0.09c0.51-4.31,1.88-11.25,2.4-14.45h5.85l-5.26,20.79h-6.23c-0.92-4.31-2.12-9.22-2.89-13.26
			h-0.07c-0.72,3.93-2.02,9.24-2.92,13.26H250.65z"/>
		<path class="st5" d="M281.39,122.27c0,1.59,0.61,3.19,2.35,3.19c1.4,0,1.79-0.59,2.09-1.42h5.78c-0.57,2.1-2.37,5.36-7.97,5.36
			c-5.97,0-8.17-4.02-8.17-8.16c0-4.77,2.52-8.43,8.28-8.43c6.13,0,8,4.15,8,8.1c0,0.53-0.01,0.93-0.06,1.36H281.39z M285.85,119.2
			c-0.02-1.48-0.44-2.73-2.13-2.73c-1.57,0-2.18,1.16-2.28,2.73H285.85z"/>
		<path class="st5" d="M295.91,108.23h6.05v8.44c1.36-1.9,4.43-5.7,6.48-8.44h7.21l-7.64,8.52l7.9,12.27h-7.14l-4.98-8.34
			l-1.84,1.89v6.44h-6.05V108.23z"/>
		<path class="st5" d="M325.02,108.23v20.79h-6.11v-20.79H325.02z"/>
		<path class="st5" d="M330.52,108.23h8.93c6.62,0,10.45,4.19,10.45,10.16c0,5.99-3.74,10.62-10.55,10.62h-8.84V108.23z
			 M336.62,124.61h2.33c3.31,0,4.66-2.32,4.66-6.21c0-3.44-1.26-5.75-4.59-5.75h-2.41V124.61z"/>
		<path class="st5" d="M359.1,122.72c0.35,1.81,1.62,2.57,3.58,2.57c1.84,0,2.69-0.65,2.69-1.85c0-1.37-0.92-1.88-4.21-2.67
			c-6.13-1.49-7.35-3.72-7.35-6.52c0-3.49,2.56-6.41,8.35-6.41c6.01,0,8.47,3.05,8.76,6.33h-5.88c-0.16-1.12-0.73-2.25-2.89-2.25
			c-1.39,0-2.25,0.53-2.25,1.65c0,1.13,0.76,1.56,3.97,2.35c6.41,1.6,7.68,3.91,7.68,6.86c0,3.9-3.01,6.62-9.11,6.62
			c-5.75,0-8.79-2.68-9.25-6.68H359.1z"/>
		<path class="st5" d="M399.16,120.61h-9.47v3.9h10.57l-0.68,4.51h-15.75v-20.79h15.73v4.51h-9.87v3.35h9.47V120.61z"/>
		<path class="st5" d="M419.67,107.15v17.08c0,1.59-0.01,3.42,0.03,4.78H414c-0.09-0.46-0.17-1.12-0.2-1.51
			c-0.79,1.16-2.03,1.89-4.3,1.89c-4.16,0-6.39-3.56-6.39-8.19c0-4.82,2.59-8.39,7.04-8.39c1.87,0,3.2,0.58,3.64,1.31v-6.97H419.67z
			 M409.13,121.06c0,2.77,0.81,4.2,2.46,4.2c2.22,0,2.42-2.02,2.42-4.18c0-2.65-0.24-4.18-2.35-4.18
			C410.01,116.9,409.13,118.25,409.13,121.06z"/>
		<path class="st5" d="M439.55,123.96c0,1.4,0,3.55,0.03,5.06h-5.77c-0.07-0.38-0.1-1.25-0.12-1.67c-1.02,1.5-2.38,2.06-4.37,2.06
			c-3.39,0-5.2-2.06-5.2-5.81v-10.4h5.87v9.42c0,1.44,0.41,2.45,1.73,2.45c1.39,0,1.94-0.78,1.94-3.12v-8.75h5.88V123.96z"/>
		<path class="st5" d="M459.3,123.54c-0.47,2.85-2.32,5.86-7.78,5.86c-5.57,0-8.02-3.65-8.02-8.15c0-4.75,2.95-8.44,8.23-8.44
			c5.96,0,7.46,4.02,7.57,5.93h-5.61c-0.16-1.11-0.64-1.99-1.93-1.99c-1.48,0-2.23,1.4-2.23,4.29c0,3.26,0.82,4.46,2.2,4.46
			c1.2,0,1.72-0.91,1.98-1.97H459.3z"/>
		<path class="st5" d="M477.54,124.32c0,1.78,0.09,4.16,0.19,4.69h-5.43c-0.12-0.32-0.22-1.07-0.24-1.46
			c-0.75,0.98-1.92,1.84-4.46,1.84c-3.55,0-5.47-2.23-5.47-5.04c0-3.72,2.98-5.33,7.81-5.33c0.52,0,1.44,0,1.94,0v-0.88
			c0-1.01-0.36-1.76-1.78-1.76c-1.33,0-1.68,0.61-1.82,1.63h-5.43c0.21-2.64,1.78-5.24,7.4-5.22c5.19,0.02,7.29,2.02,7.29,5.83
			V124.32z M471.88,122c-0.3,0-0.84,0-1.3,0c-2.03,0-2.69,0.71-2.69,1.88c0,0.93,0.55,1.68,1.72,1.68c1.99,0,2.28-1.37,2.28-3.07
			V122z"/>
		<path class="st5" d="M482.12,117.74c0-1.51-0.01-3.13-0.04-4.54h5.75c0.07,0.49,0.14,1.88,0.14,2.57
			c0.61-1.52,2.15-2.93,4.86-2.95v5.38c-3.33-0.14-4.83,0.62-4.83,4.33v6.5h-5.88V117.74z"/>
		<path class="st5" d="M501.4,122.27c0,1.59,0.61,3.19,2.35,3.19c1.39,0,1.79-0.59,2.09-1.42h5.78c-0.58,2.1-2.37,5.36-7.97,5.36
			c-5.97,0-8.17-4.02-8.17-8.16c0-4.77,2.52-8.43,8.28-8.43c6.13,0,8,4.15,8,8.1c0,0.53-0.01,0.93-0.06,1.36H501.4z M505.86,119.2
			c-0.02-1.48-0.44-2.73-2.13-2.73c-1.57,0-2.18,1.16-2.28,2.73H505.86z"/>
	</g>
</g>
</svg>
