<?xml version="1.0" encoding="utf-8"?>
<!-- Generator: Adobe Illustrator 24.3.0, SVG Export Plug-In . SVG Version: 6.00 Build 0)  -->
<svg version="1.1" id="圖層_1" xmlns="http://www.w3.org/2000/svg" xmlns:xlink="http://www.w3.org/1999/xlink" x="0px" y="0px"
	 viewBox="0 0 189.2 189.2" style="enable-background:new 0 0 189.2 189.2;" xml:space="preserve">
<style type="text/css">
	.st0{fill:#319DE7;}
	.st1{fill:#FFA6A1;}
	.st2{fill:#FFFFFF;}
	.st3{fill:#FFC9BD;}
</style>
<g>
	<circle class="st0" cx="94.6" cy="94.6" r="94.6"/>
	<path class="st1" d="M94.6,172.1c-25.4,0-46-20.6-46-46c0-25.4,20.6-46,46-46c25.4,0,46,20.6,46,46
		C140.6,151.4,120,172.1,94.6,172.1z M94.6,105.1c-11.6,0-21,9.4-21,21s9.4,21,21,21s21-9.4,21-21S106.2,105.1,94.6,105.1z"/>
	<path class="st2" d="M111.5,38.1V20.6c0-9.5-7.7-17.5-17.2-17.3C85.1,3.5,77.7,11,77.7,20.2v18c0,3.6-2.9,6.5-6.5,6.5
		c-3.6,0-6.5,2.9-6.5,6.5v26.9h59.8V51.1c0-3.6-2.9-6.5-6.5-6.5C114.4,44.6,111.5,41.7,111.5,38.1z"/>
	<path class="st3" d="M128.9,94.6H60.4c-9,0-16.3-7.3-16.3-16.3v-0.5c0-9,7.3-16.3,16.3-16.3h68.5c9,0,16.3,7.3,16.3,16.3v0.5
		C145.2,87.3,137.9,94.6,128.9,94.6z"/>
	<path class="st3" d="M108.6,91.1h-28v12.7c0,7.7,6.3,14,14,14s14-6.3,14-14V91.1z"/>
</g>
</svg>
