<?xml version="1.0" encoding="utf-8"?>
<!-- Generator: Adobe Illustrator 24.3.0, SVG Export Plug-In . SVG Version: 6.00 Build 0)  -->
<svg version="1.1" id="圖層_1" xmlns="http://www.w3.org/2000/svg" xmlns:xlink="http://www.w3.org/1999/xlink" x="0px" y="0px"
	 viewBox="0 0 175.9 175.9" style="enable-background:new 0 0 175.9 175.9;" xml:space="preserve">
<style type="text/css">
	.st0{fill:#FFFFFF;}
</style>
<g>
	<path class="st0" d="M88,175.9c48.6,0,88-39.4,88-88c0-48.6-39.4-88-88-88C39.4,0,0,39.4,0,88C0,136.6,39.4,175.9,88,175.9z
		 M88,6.7c44.9,0,81.2,36.4,81.2,81.2c0,44.9-36.4,81.2-81.2,81.2c-44.9,0-81.2-36.4-81.2-81.2C6.7,43.1,43.1,6.7,88,6.7z"/>
	<path class="st0" d="M85.9,50c0.4-0.8,1-1.7,1.8-2.4c0.6-0.5,1.1-0.9,1.8-1.2c1-0.5,1.9-0.6,2.1-0.7c1.4-0.3,2.8-0.1,3.8,0.3
		c1.4,0.5,2.4,1.3,2.4,1.3s-0.3-0.9-0.7-1.5c-0.6-1-1.5-1.9-2.7-2.6c-1.6-0.9-3.9-0.9-5.1-0.5c-0.6,0.2-2.7,0.8-4,3.2
		c-0.5,1-1,2.2-0.9,3.4c0,1.7,0.7,3.1,0.7,3.1S85.3,51.2,85.9,50z"/>
	<path class="st0" d="M30.4,96.5c2.4,3.7,6.5,7.1,11.8,8.7c0.1,0,0.6,0.2,1,0.3c0,1.5,0.2,5,0.2,5s0.6,8.6,5,17.1
		c4.1,7.9,13.1,19.1,28.3,23.5c0.4,0.1,5.9,1.9,13.2,1.9c6.9,0,13.3-1.4,19.8-4.3c0.9-0.4,14.7-6,22.3-21.8
		c0.4-0.7,3.5-6.7,4.5-15.3c0.6-4.6,0.3-9.9-0.8-15.6c-0.1-0.7,1.1-1.9,1.5-2.4c1.6-1.9,3.7-4.2,5.1-6.3c1.8-2.8,3.3-5.7,3.8-8.7
		c0.6-3.4-0.3-6.4-2.6-8.5c-2.2-2-5.3-2.6-8.4-1.7c-2.2,0.6-3.5,3.2-4.4,4.9c-0.1,0.2-0.2,0.3-0.2,0.4c-2.3,4.2-7.8,6.2-10.9,7
		c-2.9,0.7-5.1,0.8-6.6,0.1c-0.3-0.2-0.6-0.4-0.7-0.7c0-0.2,0-0.3,0.1-0.4c0.6-0.7,1.6-1.2,2.6-1.7c0.6-0.3,1.1-0.6,1.6-0.9
		c6.3-4,9.9-10.7,9.7-17.8c-0.1-4.2-0.8-9.5-4.9-13.9c-1.1-1.2-2.3-1.1-3.2-1.1c-0.1,0-0.3,0-0.4,0c-1,0-2.1-0.1-3.2-0.4
		c-2.1-0.6-3.7-1.9-4.4-3.5c-0.5-1.1-1.7-2-2.7-2.8c-0.2-0.2-0.4-0.3-0.6-0.5c-0.3-0.2-0.6-0.5-1.1-0.7c-0.4-0.2-1-0.6-1.4-0.9
		c0-0.1,0.1-0.1,0.1-0.2c0.2-0.3,0.3-0.6,0.4-0.9c0.2-0.9,0.4-1.8,0.4-2.6c0-5.4-4.4-9.8-9.8-9.8c-4.6,0-8.5,3.1-9.5,7.5
		c-0.2,0-0.3,0-0.5,0c-7.3,0-16.2,2.5-22.1,7.3c-2.7-2.3-5.7-2.9-7.4-3c-4.4-0.3-8.5,1.8-10.5,6c-1.9,4.1-1.2,9.8,1.9,13
		c1,1.1,3.1,2.6,5,3.4c0,0.5-0.1,1.3-0.1,2.2c0,1.6,0,3.2,0,3.4c0.1,3,0.3,6.6,1.8,10.1c1.2,2.8,3.3,5.1,5.2,6.9
		c0.3,0.3,0.5,0.5,0.8,0.8c1.5,1.4,2.9,2.8,3.2,4.5c0.3,2-1,3.3-2.5,3.8c-4.6,1.5-11.3,0.7-16.4-1.9c-0.7-0.4-1.5-0.8-2.3-1.4
		c-2.2-1.4-4.8-2.9-7.7-2.9c-2.8,0.1-5.1,1.8-6.4,4.7C27,90.1,28.6,93.8,30.4,96.5z M129.8,112.1c-0.3,1.7-0.9,3.7-1.1,4.8
		c-0.4,2.1-1.7,4.5-2.6,6.5c-0.5,1.1-2.5,4.4-2.5,4.4c-1.4,2.5-3.3,4.4-5.1,6.3c-6.8,6.9-14.6,9.4-14.6,9.4c-5.2,2-9.2,2.5-14.8,2.5
		c-6.3,0-10.6-1.6-10.6-1.6c-5.8-1.7-10.5-4.5-14.6-7.8c-2.1-1.8-4-3.7-5.7-5.8c-0.7-0.9-1.4-1.7-1.9-2.6c-0.5-0.7-2.2-3.6-2.2-3.6
		c-1.4-2,1-4.2,2.9-2c1.7,2,3.8,3.6,7,5.4c2.3,1.3,5.8,2.5,8.7,2.9c8.8,1.1,14-1,19.9-4.7c2.2-1.4,5.8-4.6,7.5-6.4
		c1.3-1.2,4.2-3.9,5.4-5.1c0,0,7.3-7.5,7.3-7.5c1.5-1.9,4.6-0.3,2.5,2c-1,1.1-1.3,3.7,0.2,4.7c1.5,1,3.8,0.3,6-1.9
		c0.8-0.8,3.7-3.7,5.1-5.1c1.3-1.4,3.6-2.6,3.6,0.9C130.3,108.2,130.2,110.1,129.8,112.1z M111.1,46.8c0.8,0.7,1.8,1.3,3,1.6
		c0.3,2.1,2.7,3.7,5.6,3.7c0.2,0,0.4,0,0.7,0c0.8,1.9,1.3,4.2,1.4,7.2c0.1,3.3-0.8,6.4-2.6,9c-5.5-2.8-9-8.7-9-15.2
		C110,50.9,110.3,48.8,111.1,46.8z M33.3,87.9c0.3-0.5,0.8-1.4,1.8-1.6c0.2,0,0.3-0.1,0.5-0.1c1.2,0,2.5,0.7,3.8,1.4
		c0.4,0.2,0.8,0.5,1.2,0.7c1.3,0.8,2.6,1.6,4.1,2.3c1.6,0.7,3.4,1.3,5.3,1.7c2.2,0.5,4.4,0.8,6.5,0.8c1.8,0,3.6-0.2,5.2-0.6
		c1.5-0.3,3.6-1,5.2-2.9c1.3-1.5,1.9-3.5,1.8-5.4c-0.2-3.7-2.8-6.2-5-8.3c-0.4-0.4-0.9-0.8-1.3-1.3c-1.1-1.1-2.4-2.5-3.2-4.1
		c-0.7-1.4-1.2-3.2-1.5-5.3c-0.3-2.7-0.3-5.5-0.2-8.2c0-0.2,0-0.4,0-0.6c0.1-1.2,0.4-3.6-1.9-4.4C55.4,52.1,55.2,52,55,52
		c-0.1,0-0.2,0-0.3-0.1c-0.3-0.1-0.5-0.2-0.8-0.4c-0.6-0.3-1.2-0.8-1.8-1.2c-1-0.9-1.7-1.8-2-3c-0.3-1.1-0.4-2.4-0.2-3.7
		c0.4-2.5,2-4.4,4.2-5.1c0.6-0.2,1.2-0.3,1.9-0.3c1.7,0,3.5,0.6,4.9,1.7c0.3,0.2,0.6,0.5,0.9,0.8c0.4,0.4,0.9,0.9,1.9,1.1
		c0.2,0,0.3,0,0.5,0c1.2,0,2.1-0.7,2.6-1.2c0.1-0.1,0.2-0.2,0.3-0.3c1.2-1,2.5-1.8,4-2.6c2.9-1.5,6.1-2.6,9.5-3.2
		c1.6-0.3,3.3-0.5,4.8-0.5c0.3,0,0.6,0,0.9,0c0.2,0,0.3,0,0.5,0c0.1,0,0.2,0,0.3,0c0.2,0,0.4,0,0.6,0c0.3,0,0.6,0,0.9-0.1
		c2-0.5,2.3-2.2,2.4-3.1c0.4-2.3,2.4-4.1,4.8-4.4c0.2,0,0.3,0,0.5,0c2.2,0,4.2,1.4,5,3.4c0.5,1.2,0.5,2.6,0.1,3.4
		c-0.4,0.8-1.2,2.4-0.3,4.1c0.6,1.1,1.5,1.8,2.4,2.4c0.2,0.1,0.5,0.3,0.7,0.4c1.1,0.7,2.1,1.3,2.8,2.1c-0.1,0.2-0.1,0.3-0.2,0.5
		c-0.4,1-0.7,2-1,3c-1,3.8-1,7.9-0.1,11.8c1.4,6.1,5.3,11.5,10.5,14.9c-0.3,0.2-0.6,0.4-0.9,0.6c-0.5,0.3-1.1,0.6-1.7,0.9
		c-0.4,0.2-0.7,0.4-1.1,0.6c-4.1,2.3-4.3,5-3.8,6.8c0.5,1.6,2.1,4.3,7.4,4.3c1.4,0,2.7-0.2,3.6-0.4c3.1-0.6,6.1-1.7,8.6-3.1
		c1.6-0.9,3-1.9,4.1-3.1c1.4-1.4,2.3-2.9,3.1-4.3c0.3-0.6,0.7-1.3,1.1-1.8c0.3-0.4,0.5-0.5,0.8-0.5c0.3-0.1,0.7-0.1,1-0.1
		c0.7,0,1.8,0.2,2.7,0.9c2,1.8,1.3,4.9,0.4,7.3c-1.2,3.1-3.5,5.8-5.6,8c-2.9,3-5.3,5.3-8.7,6c-0.4,0.1-0.6,0.1-0.9,0.1
		c-0.4,0-0.6-0.1-0.7-0.1c-0.4-0.2-0.8-0.7-0.8-1.1c0-0.2-0.1-0.4-0.1-0.7c0-0.7-0.1-1.8-0.8-2.7c-0.5-0.7-1.3-1.1-2.1-1.1
		c-0.8,0-1.7,0.4-2.4,1.2c-0.8,0.9-1.6,1.8-2.6,2.8l-3.5,3.8l-3.2,3.4l-8.9,9.5c-0.5,0.5-0.9,1-1.4,1.5c-0.9,1-1.8,2-2.8,2.9
		c-1,1-2.3,1.6-3.5,1.6c-0.2,0-0.4,0-0.5,0c-2.2-0.3-3.4-2.1-5.1-4.2c-0.6-0.7-1.5-2.1-2.2-2.8c-4.4-4.6-9.5-8.1-16.6-9.1
		c-1.8-0.3-3-0.3-4.7-0.3c-2.1,0-6.1,0.9-8,1.3c-0.5,0.1-0.9,0.2-1.3,0.3c-0.4,0.1-0.7,0.2-1.1,0.3c-1.1,0.2-2.3,0.4-3.5,0.4
		c-0.4,0-0.8,0-1.2,0c-3.1,0-5.7-0.5-7.8-1.6c-1-0.5-2.2-1.2-3.2-2c-0.9-0.7-1.7-1.5-2.7-2.7c-1.1-1.4-2.1-2.6-2.5-3.9
		C32.8,90.6,32.6,89.2,33.3,87.9z"/>
</g>
</svg>
