<?xml version="1.0" encoding="utf-8"?>
<!-- Generator: Adobe Illustrator 24.3.0, SVG Export Plug-In . SVG Version: 6.00 Build 0)  -->
<svg version="1.1" id="圖層_1" xmlns="http://www.w3.org/2000/svg" xmlns:xlink="http://www.w3.org/1999/xlink" x="0px" y="0px"
	 viewBox="0 0 96.3 96.3" style="enable-background:new 0 0 96.3 96.3;" xml:space="preserve">
<style type="text/css">
	.st0{fill:url(#SVGID_1_);}
	.st1{fill:url(#SVGID_2_);}
	.st2{fill:url(#SVGID_3_);}
</style>
<linearGradient id="SVGID_1_" gradientUnits="userSpaceOnUse" x1="105.1374" y1="81.0566" x2="-8.8142" y2="15.2666">
	<stop  offset="0" style="stop-color:#7AFEFE"/>
	<stop  offset="0.1568" style="stop-color:#98F9F7"/>
	<stop  offset="0.4242" style="stop-color:#C4F0EE"/>
	<stop  offset="0.6634" style="stop-color:#E4EBE6"/>
	<stop  offset="0.8635" style="stop-color:#F8E7E2"/>
	<stop  offset="1" style="stop-color:#FFE6E1"/>
</linearGradient>
<rect x="0" y="0" class="st0" width="96.3" height="96.3"/>
<g>
	
		<image style="overflow:visible;opacity:0.15;" width="63" height="74" xlink:href="ACF1DDCFF3132217.png"  transform="matrix(1 0 0 1 20.6593 15.8084)">
	</image>
	<g>
		
			<image style="overflow:visible;" width="48" height="59" xlink:href="ACF1DDCFF3132215.png"  transform="matrix(1 0 0 1 26.3157 17.4648)">
		</image>
		<g>
			<g>
				<linearGradient id="SVGID_2_" gradientUnits="userSpaceOnUse" x1="30.8003" y1="31.7491" x2="73.3307" y2="65.836">
					<stop  offset="0" style="stop-color:#33CC00"/>
					<stop  offset="0.3796" style="stop-color:#43B41B"/>
					<stop  offset="0.7484" style="stop-color:#4FA32F"/>
					<stop  offset="1" style="stop-color:#539D36"/>
				</linearGradient>
				<path class="st1" d="M37.9,70.5c-5.9,0-7.8-2.7-7.8-10.6V27.8c0-5.8,2.6-8.6,7.7-8.6h14c10,0,16.7,4.2,16.7,12.4v1.8
					c0,4.4-2.8,6.5-2.8,9.9c0,3.4,4.6,5.7,4.6,12.6c0,8.3-5.8,14.6-19.7,14.6H37.9z M49.1,59.8c5.4,0,7.7-2.3,7.7-5.4
					c0-2.4-2.4-4.9-5.9-4.9c-5.1,0-8.1,1-8.1,4.9C42.8,57.8,45.1,59.8,49.1,59.8z M49.1,38.6c2.3,0,5.7-2,5.7-4
					c0-2.4-1.7-4.8-5.7-4.8c-3.6,0-6,1.4-6,4.4C43,36.5,44.3,38.6,49.1,38.6z"/>
			</g>
			<g>
				<linearGradient id="SVGID_3_" gradientUnits="userSpaceOnUse" x1="34.8756" y1="39.1051" x2="105.3409" y2="73.9534">
					<stop  offset="0" style="stop-color:#FFC7BE"/>
					<stop  offset="0.1883" style="stop-color:#D5BFC9"/>
					<stop  offset="0.6087" style="stop-color:#6EABE4"/>
					<stop  offset="1" style="stop-color:#0898FF"/>
				</linearGradient>
				<path class="st2" d="M37.9,70.5c-5.9,0-7.8-2.7-7.8-10.6V27.8c0-5.8,2.6-8.6,7.7-8.6h14c10,0,16.7,4.2,16.7,12.4v1.8
					c0,4.4-2.8,6.5-2.8,9.9c0,3.4,4.6,5.7,4.6,12.6c0,8.3-5.8,14.6-19.7,14.6H37.9z M49.1,59.8c5.4,0,7.7-2.3,7.7-5.4
					c0-2.4-2.4-4.9-5.9-4.9c-5.1,0-8.1,1-8.1,4.9C42.8,57.8,45.1,59.8,49.1,59.8z M49.1,38.6c2.3,0,5.7-2,5.7-4
					c0-2.4-1.7-4.8-5.7-4.8c-3.6,0-6,1.4-6,4.4C43,36.5,44.3,38.6,49.1,38.6z"/>
			</g>
		</g>
	</g>
</g>
</svg>
