<?xml version="1.0" encoding="utf-8"?>
<!-- Generator: Adobe Illustrator 24.3.0, SVG Export Plug-In . SVG Version: 6.00 Build 0)  -->
<svg version="1.1" id="圖層_1" xmlns="http://www.w3.org/2000/svg" xmlns:xlink="http://www.w3.org/1999/xlink" x="0px" y="0px"
	 viewBox="0 0 159 159" style="enable-background:new 0 0 159 159;" xml:space="preserve">
<style type="text/css">
	.st0{fill:#C8D900;}
	.st1{fill:#C4E4E0;}
	.st2{fill:#B4A896;}
	.st3{fill:#FFF8D1;}
</style>
<g>
	<g>
		<path class="st0" d="M79.5,5.9c40.6,0,73.5,32.9,73.5,73.5c0,40.6-32.9,73.5-73.5,73.5c-40.6,0-73.5-32.9-73.5-73.5
			C5.9,38.9,38.9,5.9,79.5,5.9 M79.5,0C35.7,0,0,35.7,0,79.5C0,123.3,35.7,159,79.5,159c43.8,0,79.5-35.7,79.5-79.5
			C158.9,35.7,123.3,0,79.5,0L79.5,0z"/>
		<circle class="st1" cx="79.5" cy="79.5" r="67.9"/>
		<path class="st2" d="M125.9,64.7c-1.8-1.7-4.4-2.2-7-1.4c-1.8,0.5-2.9,2.7-3.7,4.1c-0.1,0.1-0.1,0.2-0.2,0.4
			c-1.9,3.6-6.5,5.2-9.1,5.8c-2.4,0.6-4.3,0.7-5.5,0.1c-0.3-0.1-0.5-0.4-0.6-0.6c0-0.1,0-0.2,0.1-0.4c0.5-0.5,1.3-1,2.2-1.4
			c0.5-0.2,0.9-0.5,1.4-0.8c5.3-3.4,8.3-9,8.1-14.9c-0.1-3.5-0.7-8-4.1-11.6c-0.9-1-1.9-0.9-2.7-0.9c-0.1,0-0.2,0-0.3,0
			c-0.8,0-1.7-0.1-2.6-0.4c-1.8-0.5-3.1-1.6-3.7-2.9c-0.4-0.9-1.4-1.7-2.3-2.3c-0.2-0.2-0.4-0.3-0.5-0.4c-0.2-0.2-0.5-0.4-0.9-0.6
			c-0.3-0.2-0.9-0.5-1.2-0.8c0-0.1,0.1-0.1,0.1-0.2c0.1-0.3,0.3-0.5,0.3-0.8c0.2-0.8,0.3-1.5,0.3-2.2c0-4.5-3.7-8.2-8.2-8.2
			c-3.8,0-7.1,2.6-8,6.3c-0.1,0-0.3,0-0.4,0c-6.1,0-13.5,2-18.4,6.1c-2.3-2-4.8-2.4-6.2-2.5c-3.7-0.3-7.1,1.5-8.8,5
			c-1.6,3.5-1,8.2,1.6,10.8c0.9,0.9,2.6,2.2,4.2,2.8c0,0.5,0,1.1-0.1,1.9c0,1.3,0,2.7,0,2.9c0.1,2.5,0.3,5.5,1.5,8.5
			c1,2.4,2.8,4.2,4.4,5.8c0.2,0.2,0.5,0.4,0.7,0.7c1.3,1.2,2.4,2.3,2.7,3.8c0.3,1.6-0.9,2.8-2.1,3.2c-3.8,1.2-9.5,0.6-13.8-1.6
			c-0.6-0.3-1.2-0.7-1.9-1.1c-1.9-1.2-4-2.5-6.4-2.4c-2.4,0.1-4.3,1.5-5.3,4c-1.2,2.9,0.1,6,1.6,8.3c2,3.1,5.4,5.9,9.9,7.3
			c0,0,0.5,0.2,0.9,0.2c0,1.2,0.2,4.2,0.2,4.2s0.5,7.2,4.2,14.3c3.4,6.6,11,16,23.7,19.6c0.3,0.1,4.9,1.6,11,1.6
			c5.8,0,11.2-1.2,16.6-3.6c0.8-0.3,12.3-5,18.6-18.2c0.3-0.6,2.9-5.6,3.8-12.8c0.5-3.8,0.2-8.2-0.7-13c-0.1-0.6,0.9-1.6,1.2-2
			c1.4-1.6,3.1-3.5,4.3-5.3c1.5-2.4,2.8-4.8,3.2-7.3C128.6,68.9,127.8,66.3,125.9,64.7z"/>
		<path class="st0" d="M114.9,95.9c0-3-2-1.9-3-0.8c-1.1,1.2-3.6,3.6-4.2,4.3c-1.9,1.9-3.8,2.5-5.1,1.6c-1.3-0.8-1-3.1-0.2-3.9
			c1.7-1.9-0.8-3.3-2.1-1.7c0,0.1-6.1,6.3-6.1,6.3l0,0c-1,1-3.5,3.3-4.5,4.3c-1.5,1.4-4.5,4.2-6.3,5.3c-5,3.1-9.2,4.9-16.6,3.9
			c-2.5-0.3-5.4-1.3-7.3-2.4c-2.7-1.6-4.5-2.8-5.9-4.6c-1.5-1.9-3.6,0-2.4,1.7c0,0,1.4,2.4,1.8,3c0.5,0.8,1,1.5,1.6,2.2
			c1.4,1.8,3,3.4,4.8,4.9c3.4,2.8,7.3,5.1,12.2,6.5c0,0,3.5,1.4,8.8,1.4c4.7,0,8-0.4,12.4-2.1c0,0,6.5-2.1,12.2-7.8
			c1.5-1.6,3.2-3.2,4.3-5.2c0,0,1.7-2.7,2.1-3.7c0.7-1.7,1.8-3.7,2.1-5.4c0.2-0.9,0.6-2.5,0.9-4C114.8,97.9,114.9,96.4,114.9,95.9z"
			/>
		<path class="st3" d="M105.4,63c1.5-2.2,2.3-4.8,2.2-7.5c-0.1-2.5-0.4-4.4-1.1-6c-0.2,0-0.4,0-0.6,0c-2.4,0-4.4-1.3-4.7-3.1
			c-0.9-0.3-1.8-0.8-2.5-1.4c-0.6,1.7-0.9,3.4-0.9,5.2C97.9,55.7,100.8,60.7,105.4,63z"/>
		<path class="st3" d="M123.8,67.4c-0.7-0.7-1.6-0.8-2.2-0.8c-0.3,0-0.6,0-0.8,0.1c-0.3,0.1-0.4,0.1-0.7,0.4c-0.4,0.5-0.7,1-0.9,1.5
			c-0.7,1.2-1.4,2.5-2.6,3.6c-1,0.9-2.1,1.8-3.5,2.6c-2.1,1.2-4.6,2.1-7.2,2.6c-0.7,0.1-1.8,0.3-3,0.3c-4.4,0-5.8-2.2-6.2-3.6
			c-0.5-1.5-0.3-3.8,3.1-5.7c0.3-0.2,0.6-0.3,0.9-0.5c0.5-0.3,1-0.5,1.4-0.8c0.2-0.2,0.5-0.3,0.7-0.5c-4.4-2.9-7.6-7.4-8.8-12.5
			c-0.8-3.2-0.7-6.7,0.1-9.9c0.2-0.9,0.5-1.7,0.8-2.5c0.1-0.1,0.1-0.3,0.2-0.4c-0.6-0.7-1.5-1.2-2.3-1.8c-0.2-0.1-0.4-0.2-0.6-0.4
			c-0.7-0.5-1.5-1-2-2c-0.7-1.4-0.1-2.7,0.3-3.4c0.3-0.7,0.3-1.8-0.1-2.8c-0.7-1.7-2.3-2.8-4.2-2.8c-0.1,0-0.3,0-0.4,0
			c-2,0.2-3.6,1.7-4,3.6c-0.1,0.7-0.4,2.2-2,2.6c-0.2,0-0.5,0.1-0.7,0.1c-0.2,0-0.3,0-0.5,0c-0.1,0-0.2,0-0.3,0c-0.1,0-0.3,0-0.4,0
			c-0.2,0-0.5,0-0.7,0c-1.3,0-2.7,0.2-4,0.4c-2.9,0.5-5.6,1.4-7.9,2.7c-1.2,0.7-2.4,1.4-3.3,2.2c-0.1,0.1-0.2,0.1-0.2,0.2
			c-0.5,0.4-1.1,1-2.2,1c-0.1,0-0.3,0-0.4,0c-0.8-0.1-1.3-0.6-1.6-0.9c-0.2-0.2-0.5-0.5-0.8-0.7c-1.2-0.9-2.7-1.4-4.1-1.4
			c-0.6,0-1.1,0.1-1.6,0.2c-1.8,0.5-3.2,2.2-3.5,4.2c-0.2,1.1-0.1,2.2,0.2,3.1c0.3,1,0.8,1.8,1.7,2.5c0.5,0.4,1,0.8,1.5,1
			c0.3,0.1,0.5,0.2,0.7,0.3c0.1,0,0.2,0,0.2,0.1c0.2,0,0.4,0.1,0.6,0.2c1.9,0.7,1.7,2.7,1.6,3.7c0,0.2,0,0.3,0,0.5
			c-0.1,2.2-0.1,4.6,0.2,6.8c0.2,1.8,0.6,3.2,1.2,4.4c0.7,1.4,1.7,2.5,2.6,3.5c0.3,0.3,0.7,0.7,1.1,1.1c1.9,1.8,4,3.8,4.2,6.9
			c0.1,1.6-0.5,3.3-1.5,4.5c-1.3,1.5-3.1,2.1-4.3,2.4c-1.4,0.3-2.8,0.5-4.4,0.5c-1.8,0-3.6-0.2-5.5-0.7c-1.5-0.3-3-0.8-4.4-1.4
			c-1.2-0.5-2.4-1.2-3.5-1.9c-0.3-0.2-0.7-0.4-1-0.6c-1.1-0.6-2.2-1.2-3.2-1.2c-0.2,0-0.3,0-0.4,0c-0.8,0.2-1.3,0.9-1.5,1.3
			c-0.6,1.1-0.4,2.2-0.1,3c0.4,1.1,1.1,2.1,2.1,3.3c0.8,1,1.5,1.7,2.3,2.3c0.9,0.7,1.9,1.2,2.7,1.6c1.7,0.9,3.9,1.3,6.5,1.3
			c0.3,0,0.7,0,1,0c1.1,0,2-0.2,3-0.4c0.3-0.1,0.6-0.2,0.9-0.2c0.3-0.1,0.7-0.2,1.1-0.3c1.6-0.3,4.9-1.1,6.7-1.1
			c1.4,0,2.4,0,3.9,0.2c5.9,0.8,10.2,3.8,13.9,7.6c0.6,0.6,1.3,1.7,1.8,2.3c1.4,1.7,2.4,3.2,4.2,3.5c0.2,0,0.3,0,0.5,0
			c1,0,2.1-0.5,2.9-1.3c0.8-0.8,1.6-1.6,2.3-2.4c0.4-0.4,0.8-0.8,1.2-1.2l7.5-7.9l2.7-2.9l3-3.1c0.8-0.8,1.5-1.6,2.1-2.3
			c0.6-0.6,1.3-1,2-1c0.7,0,1.3,0.3,1.8,0.9c0.6,0.8,0.6,1.6,0.7,2.2c0,0.2,0,0.4,0.1,0.6c0.1,0.3,0.3,0.7,0.7,0.9
			c0.1,0.1,0.2,0.1,0.6,0.1c0.2,0,0.4,0,0.7-0.1c2.8-0.5,4.9-2.5,7.3-5c1.7-1.8,3.7-4.1,4.7-6.7C124.9,71.5,125.5,68.9,123.8,67.4z
			 M77.3,44.2c1.1-2,2.9-2.5,3.4-2.7c1-0.3,2.9-0.3,4.2,0.5c1,0.6,1.8,1.3,2.2,2.1c0.3,0.5,0.6,1.3,0.6,1.3s-0.8-0.7-2-1.1
			c-0.9-0.3-2-0.5-3.2-0.2c-0.2,0-0.9,0.2-1.8,0.6c-0.5,0.3-1,0.6-1.5,1c-0.7,0.6-1.2,1.3-1.5,2c-0.5,1-0.6,1.9-0.6,1.9
			s-0.6-1.2-0.6-2.6C76.5,46.1,76.9,45,77.3,44.2z"/>
	</g>
</g>
</svg>
