<?xml version="1.0" encoding="utf-8"?>
<!-- Generator: Adobe Illustrator 24.3.0, SVG Export Plug-In . SVG Version: 6.00 Build 0)  -->
<svg version="1.1" id="圖層_1" xmlns="http://www.w3.org/2000/svg" xmlns:xlink="http://www.w3.org/1999/xlink" x="0px" y="0px"
	 viewBox="0 0 512.2 158.9" style="enable-background:new 0 0 512.2 158.9;" xml:space="preserve">
<style type="text/css">
	.st0{fill:#FFFFFF;}
</style>
<g>
	<g>
		<g>
			<polygon class="st0" points="409,62.1 423.5,62.1 423.5,59.4 396,59.4 398.6,54.5 388.4,54.5 385.2,62.1 387.6,62.1 394.7,62.1 
				399.9,62.1 399.9,68.7 384,68.7 384,71.5 399.8,71.5 399.7,84.1 392.3,84.1 393.5,75.6 384.4,75.6 383.2,86.8 385.5,86.8 
				391.9,86.8 399.7,86.8 408.8,86.8 415.5,86.8 423.9,86.8 424.3,86.8 425.8,75.6 416.7,75.6 415.8,84.1 408.8,84.1 408.9,71.5 
				425.8,71.5 425.8,68.7 409,68.7 			"/>
			<polygon class="st0" points="381.8,55.6 376.2,57.4 376.2,44.9 382.5,44.9 382.5,42.2 376.2,42.2 376.2,29.5 367.1,29.5 
				367.1,42.2 360.4,42.2 360.4,44.9 367.1,44.9 367.1,60.3 360.7,62.3 361.6,64.9 367.1,63.1 367.1,84.1 363.1,84.1 363.1,86.8 
				367.1,86.8 376.2,86.8 376.2,84.1 376.2,60.3 382.6,58.2 			"/>
			<polygon class="st0" points="386.2,42 387,50.4 391.2,50.4 395.5,50.4 397.6,50.4 397.6,47.7 395.2,47.7 394.7,42 			"/>
			<polygon class="st0" points="399.5,42 400.3,50.4 404.6,50.4 408.8,50.4 410.9,50.4 410.9,47.7 408.6,47.7 408,42 			"/>
			<polygon class="st0" points="415.1,50.4 412,50.4 412,53.1 414.8,53.1 419.1,53.1 423.3,53.1 424.6,42 416.1,42 			"/>
			<polygon class="st0" points="417.9,38.3 423.8,38.3 425.8,29.5 416.7,29.5 415.8,33.1 385.9,33.1 385.9,38.3 414.3,38.3 			"/>
			<g>
				<path class="st0" d="M453.1,48.4c-0.8,0-1.5,0.7-1.4,1.5l0.7,16.6c0,0.8,0.7,1.5,1.6,1.5h5c0.8,0,1.5-0.7,1.5-1.5l0.2-16.6
					c0-0.8-0.7-1.5-1.5-1.5H453.1z"/>
				<path class="st0" d="M467.7,46.9c-0.8,0-1.5,0.7-1.4,1.5l0.7,19.2c0,0.8,0.7,1.5,1.6,1.5h5c0.8,0,1.5-0.7,1.5-1.5l0.2-19.2
					c0-0.8-0.7-1.5-1.5-1.5H467.7z"/>
				<path class="st0" d="M510.7,84.1H510c-0.8,0-1.5-0.7-1.4-1.5l0.4-9.3c0-0.8,0-1.5-0.1-1.5c-0.1,0-0.9,0-1.7,0h-5.7
					c-0.8,0-2.2,0-3,0h-36c-0.8,0-2.2,0-3,0h-4.9c-0.8,0-1.8,0-2.1,0c-0.3,0-0.6,0.7-0.6,1.5l-0.2,9.3c0,0.8-0.7,1.5-1.5,1.5h-0.3
					c-0.8,0-1.5,0.6-1.5,1.4c0,0.7,0.7,1.4,1.5,1.4h60.9c0.8,0,1.5-0.6,1.5-1.4C512.2,84.7,511.5,84.1,510.7,84.1z M470.5,82.6
					c0,0.8-0.7,1.5-1.5,1.5h-7.1c-0.8,0-1.5-0.7-1.4-1.5l0.3-6.5c0-0.8,0.7-1.5,1.6-1.5h6.6c0.8,0,1.5,0.7,1.5,1.5V82.6z
					 M487.1,82.6c0,0.8-0.7,1.5-1.5,1.5h-5.4c-0.8,0-1.5-0.7-1.4-1.5l0.2-6.5c0-0.8,0.7-1.5,1.6-1.5h5.1c0.8,0,1.5,0.7,1.5,1.5V82.6
					z M499.8,82.6c0,0.8-0.7,1.5-1.5,1.5h-2.6c-0.8,0-1.5-0.7-1.4-1.5l0.2-6.5c0-0.8,0.7-1.5,1.6-1.5h2.4c0.8,0,1.5,0.7,1.5,1.5
					L499.8,82.6z"/>
				<path class="st0" d="M480.9,63.1h7.2c0.8,0,1.8-0.6,2.2-1.3l2.1-4.2c0.4-0.7,1.4-1.3,2.2-1.3h12.6c0.8,0,1.5-0.6,1.5-1.4
					c0-0.7-0.7-1.4-1.5-1.4H496c-0.8,0-1.2-0.6-0.8-1.3l1.3-2.5c0.4-0.7,0-1.3-0.8-1.3h-7.2c-0.8,0-1.8,0.6-2.2,1.3l-6.2,12.1
					C479.7,62.5,480.1,63.1,480.9,63.1z"/>
				<path class="st0" d="M507.2,64.6h-1.5c-0.8,0-1.6-0.7-1.6-1.5l-0.3-2.7c-0.1-0.8-0.8-1.5-1.6-1.5h-5.5c-0.8,0-1.4,0.7-1.4,1.5
					l0.5,5.4c0.1,0.8,0.8,1.5,1.6,1.5h1.2c0.8,0,2.2,0,3,0h1.3c0.8,0,2.2,0,3,0h1.2c0.8,0,1.5-0.6,1.5-1.4
					C508.7,65.2,508.1,64.6,507.2,64.6z"/>
				<path class="st0" d="M450,45.6h6.3c0.6,0,1.2-0.4,1.4-0.9l2.8-6.7l15,6.6c0.6,0.2,1.2,0,1.5-0.6l0.2-0.4c0.2-0.6,0-1.2-0.6-1.5
					l-13.4-5.9h13.4c0.6,0,1-0.5,1-1v-0.7c0-0.6-0.5-1-1-1h-13.2c-0.6,0-0.8-0.4-0.6-0.9l0.3-0.8c0.2-0.5-0.1-0.9-0.6-0.9h-6.3
					c-0.6,0-1.2,0.4-1.4,0.9l-5.4,12.9C449.1,45.2,449.4,45.6,450,45.6z"/>
				<path class="st0" d="M482.4,45.6h6.3c0.6,0,1.2-0.4,1.4-0.9l2.8-6.7l15,6.6c0.6,0.2,1.2,0,1.5-0.6l0.2-0.4
					c0.2-0.6,0-1.2-0.6-1.5l-13.4-5.9h13.4c0.6,0,1-0.5,1-1v-0.7c0-0.6-0.5-1-1-1h-13.2c-0.6,0-0.8-0.4-0.6-0.9l0.3-0.8
					c0.2-0.5-0.1-0.9-0.6-0.9h-6.3c-0.6,0-1.2,0.4-1.4,0.9l-5.4,12.9C481.5,45.2,481.8,45.6,482.4,45.6z"/>
			</g>
			<path class="st0" d="M306.5,34.8h-6.3c-0.7,0-1.2,0.5-1.2,1.2v2.4c0,0.6-0.6,1.2-1.2,1.2h-10.4c-0.8,0-1.4-0.7-1.2-1.5l2-6.4
				c0.2-0.7-0.4-1.5-1.2-1.5h-7.1c-0.6,0-1.1,0.4-1.2,0.9l-2.6,10.9c-0.2,0.7,0.4,1.4,1.2,1.4h29.2c0.7,0,1.2-0.5,1.2-1.2v-6.2
				C307.8,35.3,307.2,34.8,306.5,34.8z"/>
			<path class="st0" d="M306.5,47.3H277c-0.7,0-1.2,0.5-1.2,1.2v23.9c0,0.6,0.6,1.2,1.2,1.2h7.1c0.7,0,1.2-0.5,1.2-1.2V66h13.1v2.7
				c0,0.6-0.6,1.2-1.2,1.2H294c-0.7,0-1.2,0.5-1.2,1.2v1.3c0,0.6,0.6,1.2,1.2,1.2h12.5c0.7,0,1.2-0.5,1.2-1.2V48.5
				C307.8,47.8,307.2,47.3,306.5,47.3z M286.6,51h10.6c0.7,0,1.2,0.5,1.2,1.2v3.1h-13.1v-3.1C285.3,51.5,285.9,51,286.6,51z
				 M285.3,62.9v-4.6h13.1v4.6H285.3z"/>
			<path class="st0" d="M287.5,76.5h-7.1c-0.5,0-0.9,0.3-1.1,0.7l-4.1,8.1c-0.4,0.8,0.2,1.7,1.1,1.7h7.4c0.5,0,0.9-0.3,1.1-0.7
				l3.8-8.1C289,77.3,288.4,76.5,287.5,76.5z"/>
			<path class="st0" d="M303.8,76.5h-6.6c-0.7,0-1.3,0.6-1.2,1.3l1.1,8.1c0.1,0.6,0.6,1,1.2,1h7.2c0.8,0,1.4-0.7,1.2-1.4l-1.7-8.1
				C304.9,76.9,304.4,76.5,303.8,76.5z"/>
			<path class="st0" d="M320,76.5h-6.9c-0.8,0-1.3,0.6-1.2,1.3l1.4,8.1c0.1,0.6,0.6,1,1.2,1h7.4c0.8,0,1.4-0.7,1.2-1.4l-1.8-8.1
				C321.1,76.9,320.6,76.5,320,76.5z"/>
			<path class="st0" d="M337.5,77.4c-0.1-0.5-0.6-0.9-1.2-0.9h-6.8c-0.8,0-1.4,0.7-1.2,1.4l2,8.1c0.1,0.5,0.6,0.9,1.2,0.9h7
				c0.8,0,1.4-0.7,1.2-1.5L337.5,77.4z"/>
			<path class="st0" d="M338.7,47.3h-15.7c-0.7,0-1.2-0.5-1.2-1.2v-3.5c0-0.5,0.3-1,0.9-1.1l16.1-4.9l-0.9-1.7
				c-0.3-0.5-0.9-0.8-1.4-0.6l-12.8,3.4c-0.8,0.2-1.6-0.4-1.6-1.1v-5.4c0-0.6-0.6-1.2-1.2-1.2h-7.8c-0.7,0-1.2,0.5-1.2,1.2v18.6
				c0,0.6,0.6,1.2,1.2,1.2h25.8c0.7,0,1.2-0.5,1.2-1.2v-1.3C340,47.8,339.4,47.3,338.7,47.3z"/>
			<path class="st0" d="M338.7,69.7h-15.7c-0.7,0-1.2-0.5-1.2-1.2V65c0-0.5,0.3-1,0.9-1.1l16.1-4.9l-0.9-1.7
				c-0.3-0.5-0.9-0.8-1.4-0.6l-12.8,3.4c-0.8,0.2-1.6-0.4-1.6-1.1v-5.4c0-0.6-0.6-1.2-1.2-1.2h-7.8c-0.7,0-1.2,0.5-1.2,1.2v18.6
				c0,0.6,0.6,1.2,1.2,1.2h25.8c0.7,0,1.2-0.5,1.2-1.2v-1.3C340,70.2,339.4,69.7,338.7,69.7z"/>
			<path class="st0" d="M217.8,31.3V80c0,0.6-0.6,1.2-1.3,1.2h-2.8c-0.7,0-1.3,0.5-1.3,1.2v2.8c0,0.6,0.6,1.2,1.3,1.2h4.1h6.8h1.9
				c0.7,0,1.3-0.5,1.3-1.2V31.3c0-0.6-0.6-1.2-1.3-1.2h-7.4C218.4,30.1,217.8,30.6,217.8,31.3z"/>
			<path class="st0" d="M199.8,42.6h7c0.7,0,1.2,0.5,1.2,1.1c0.4,5.9-1.1,28-9.4,39c-0.2,0.3-0.6,0.5-1,0.5h-6.5
				c-0.9,0-1.5-0.9-1.1-1.7c1.6-3.2,4.9-10.7,6.8-20.2c2.1-10.5,1.9-13.6,1.7-17.4C198.5,43.2,199.1,42.6,199.8,42.6z"/>
			<path class="st0" d="M238.1,43.3h7.3c0.6,0,1,0.4,1.1,0.9l6.1,37.5c0.1,0.7-0.5,1.5-1.3,1.5h-8.7c-0.6,0-1.1-0.4-1.1-0.9
				l-4.7-37.5C236.6,43.9,237.3,43.3,238.1,43.3z"/>
		</g>
		<g>
			<path class="st0" d="M192,108.2h10.3c5,0,7.2,2.5,7.2,5.4c0,2.2-1.2,3.8-2.8,4.5c1.6,0.6,3.4,2,3.4,4.7c0,3.4-2.5,6.2-7.7,6.2
				H192V108.2z M201.4,116.2c1.7,0,2.4-0.9,2.4-2c0-1.3-0.9-1.9-2.4-1.9H198v3.9H201.4z M198,124.9h3.1c2,0,2.9-0.9,2.9-2.4
				c0-1.3-0.8-2.2-2.7-2.2H198V124.9z"/>
			<path class="st0" d="M214.4,108.2h10.3c5,0,7.2,2.5,7.2,5.4c0,2.2-1.2,3.8-2.8,4.5c1.6,0.6,3.4,2,3.4,4.7c0,3.4-2.5,6.2-7.7,6.2
				h-10.4V108.2z M223.7,116.2c1.7,0,2.4-0.9,2.4-2c0-1.3-0.9-1.9-2.4-1.9h-3.4v3.9H223.7z M220.3,124.9h3.1c2,0,2.9-0.9,2.9-2.4
				c0-1.3-0.8-2.2-2.7-2.2h-3.2V124.9z"/>
			<path class="st0" d="M236.4,129v-6.3h5.9v6.3H236.4z"/>
			<path class="st0" d="M250.7,129l-5-20.8h6.4c1.4,7.9,1.9,11.4,2.1,14.7h0.1c0.9-4.5,2.1-9.8,3.2-14.7h5.4c0.9,4.2,2.3,10,3,14.4
				h0.1c0.5-4.3,1.9-11.2,2.4-14.4h5.9L269,129h-6.2c-0.9-4.3-2.1-9.2-2.9-13.3h-0.1c-0.7,3.9-2,9.2-2.9,13.3H250.7z"/>
			<path class="st0" d="M281.4,122.3c0,1.6,0.6,3.2,2.3,3.2c1.4,0,1.8-0.6,2.1-1.4h5.8c-0.6,2.1-2.4,5.4-8,5.4c-6,0-8.2-4-8.2-8.2
				c0-4.8,2.5-8.4,8.3-8.4c6.1,0,8,4.1,8,8.1c0,0.5,0,0.9-0.1,1.4H281.4z M285.9,119.2c0-1.5-0.4-2.7-2.1-2.7
				c-1.6,0-2.2,1.2-2.3,2.7H285.9z"/>
			<path class="st0" d="M295.9,108.2h6v8.4c1.4-1.9,4.4-5.7,6.5-8.4h7.2l-7.6,8.5l7.9,12.3h-7.1l-5-8.3l-1.8,1.9v6.4h-6V108.2z"/>
			<path class="st0" d="M325,108.2V129h-6.1v-20.8H325z"/>
			<path class="st0" d="M330.5,108.2h8.9c6.6,0,10.5,4.2,10.5,10.2c0,6-3.7,10.6-10.5,10.6h-8.8V108.2z M336.6,124.6h2.3
				c3.3,0,4.7-2.3,4.7-6.2c0-3.4-1.3-5.8-4.6-5.8h-2.4V124.6z"/>
			<path class="st0" d="M359.1,122.7c0.3,1.8,1.6,2.6,3.6,2.6c1.8,0,2.7-0.6,2.7-1.9c0-1.4-0.9-1.9-4.2-2.7
				c-6.1-1.5-7.4-3.7-7.4-6.5c0-3.5,2.6-6.4,8.3-6.4c6,0,8.5,3.1,8.8,6.3h-5.9c-0.2-1.1-0.7-2.3-2.9-2.3c-1.4,0-2.3,0.5-2.3,1.7
				c0,1.1,0.8,1.6,4,2.4c6.4,1.6,7.7,3.9,7.7,6.9c0,3.9-3,6.6-9.1,6.6c-5.7,0-8.8-2.7-9.3-6.7H359.1z"/>
			<path class="st0" d="M399.2,120.6h-9.5v3.9h10.6l-0.7,4.5h-15.8v-20.8h15.7v4.5h-9.9v3.3h9.5V120.6z"/>
			<path class="st0" d="M419.7,107.2v17.1c0,1.6,0,3.4,0,4.8H414c-0.1-0.5-0.2-1.1-0.2-1.5c-0.8,1.2-2,1.9-4.3,1.9
				c-4.2,0-6.4-3.6-6.4-8.2c0-4.8,2.6-8.4,7-8.4c1.9,0,3.2,0.6,3.6,1.3v-7H419.7z M409.1,121.1c0,2.8,0.8,4.2,2.5,4.2
				c2.2,0,2.4-2,2.4-4.2c0-2.7-0.2-4.2-2.4-4.2C410,116.9,409.1,118.2,409.1,121.1z"/>
			<path class="st0" d="M439.6,124c0,1.4,0,3.5,0,5.1h-5.8c-0.1-0.4-0.1-1.2-0.1-1.7c-1,1.5-2.4,2.1-4.4,2.1c-3.4,0-5.2-2.1-5.2-5.8
				v-10.4h5.9v9.4c0,1.4,0.4,2.4,1.7,2.4c1.4,0,1.9-0.8,1.9-3.1v-8.8h5.9V124z"/>
			<path class="st0" d="M459.3,123.5c-0.5,2.9-2.3,5.9-7.8,5.9c-5.6,0-8-3.7-8-8.2c0-4.8,3-8.4,8.2-8.4c6,0,7.5,4,7.6,5.9h-5.6
				c-0.2-1.1-0.6-2-1.9-2c-1.5,0-2.2,1.4-2.2,4.3c0,3.3,0.8,4.5,2.2,4.5c1.2,0,1.7-0.9,2-2H459.3z"/>
			<path class="st0" d="M477.5,124.3c0,1.8,0.1,4.2,0.2,4.7h-5.4c-0.1-0.3-0.2-1.1-0.2-1.5c-0.8,1-1.9,1.8-4.5,1.8
				c-3.5,0-5.5-2.2-5.5-5c0-3.7,3-5.3,7.8-5.3c0.5,0,1.4,0,1.9,0v-0.9c0-1-0.4-1.8-1.8-1.8c-1.3,0-1.7,0.6-1.8,1.6h-5.4
				c0.2-2.6,1.8-5.2,7.4-5.2c5.2,0,7.3,2,7.3,5.8V124.3z M471.9,122c-0.3,0-0.8,0-1.3,0c-2,0-2.7,0.7-2.7,1.9c0,0.9,0.6,1.7,1.7,1.7
				c2,0,2.3-1.4,2.3-3.1V122z"/>
			<path class="st0" d="M482.1,117.7c0-1.5,0-3.1,0-4.5h5.8c0.1,0.5,0.1,1.9,0.1,2.6c0.6-1.5,2.1-2.9,4.9-3v5.4
				c-3.3-0.1-4.8,0.6-4.8,4.3v6.5h-5.9V117.7z"/>
			<path class="st0" d="M501.4,122.3c0,1.6,0.6,3.2,2.3,3.2c1.4,0,1.8-0.6,2.1-1.4h5.8c-0.6,2.1-2.4,5.4-8,5.4c-6,0-8.2-4-8.2-8.2
				c0-4.8,2.5-8.4,8.3-8.4c6.1,0,8,4.1,8,8.1c0,0.5,0,0.9-0.1,1.4H501.4z M505.9,119.2c0-1.5-0.4-2.7-2.1-2.7
				c-1.6,0-2.2,1.2-2.3,2.7H505.9z"/>
		</g>
	</g>
	<g>
		<path class="st0" d="M79.5,159c43.9,0,79.5-35.6,79.5-79.5C159,35.6,123.4,0,79.5,0C35.6,0,0,35.6,0,79.5
			C0,123.4,35.6,159,79.5,159z M79.5,6.1c40.5,0,73.4,32.9,73.4,73.4c0,40.5-32.9,73.4-73.4,73.4c-40.5,0-73.4-32.9-73.4-73.4
			C6.1,38.9,38.9,6.1,79.5,6.1z"/>
		<path class="st0" d="M77.6,45.2c0.4-0.7,0.9-1.6,1.7-2.2c0.5-0.5,1-0.8,1.6-1.1c0.9-0.5,1.7-0.6,1.9-0.6c1.3-0.2,2.5,0,3.5,0.3
			c1.3,0.4,2.1,1.2,2.1,1.2s-0.3-0.8-0.6-1.4c-0.5-0.9-1.3-1.7-2.4-2.3c-1.4-0.8-3.5-0.8-4.6-0.5c-0.6,0.2-2.4,0.7-3.6,2.9
			c-0.5,0.9-0.9,2-0.8,3c0,1.5,0.7,2.8,0.7,2.8S77.1,46.3,77.6,45.2z"/>
		<path class="st0" d="M27.4,87.2c2.1,3.3,5.8,6.4,10.7,7.9c0.1,0,0.6,0.2,0.9,0.2c0,1.3,0.2,4.5,0.2,4.5s0.5,7.8,4.5,15.5
			c3.7,7.1,11.8,17.3,25.6,21.2c0.4,0.1,5.3,1.7,11.9,1.7c6.2,0,12.1-1.3,17.9-3.9c0.9-0.3,13.3-5.4,20.1-19.7
			c0.3-0.6,3.1-6,4.1-13.8c0.5-4.1,0.3-8.9-0.7-14.1c-0.1-0.6,1-1.8,1.3-2.2c1.5-1.7,3.4-3.8,4.6-5.7c1.7-2.6,3-5.1,3.5-7.9
			c0.5-3-0.3-5.8-2.3-7.7c-2-1.8-4.8-2.4-7.6-1.5c-2,0.6-3.2,2.9-4,4.4c-0.1,0.1-0.1,0.3-0.2,0.4c-2.1,3.8-7.1,5.6-9.8,6.3
			c-2.6,0.7-4.6,0.7-5.9,0.1c-0.3-0.1-0.5-0.4-0.6-0.6c0-0.1,0-0.3,0.1-0.4c0.5-0.6,1.4-1.1,2.4-1.6c0.5-0.3,1-0.5,1.5-0.8
			c5.7-3.7,9-9.7,8.7-16.1c-0.1-3.8-0.8-8.6-4.4-12.5c-1-1.1-2.1-1-2.9-1c-0.1,0-0.2,0-0.4,0c-0.9,0-1.9-0.1-2.8-0.4
			c-1.9-0.5-3.4-1.7-4-3.2c-0.4-1-1.5-1.8-2.5-2.5c-0.2-0.2-0.4-0.3-0.6-0.4c-0.2-0.2-0.6-0.4-1-0.7c-0.3-0.2-0.9-0.6-1.3-0.8
			c0-0.1,0.1-0.1,0.1-0.2c0.1-0.3,0.3-0.6,0.4-0.8c0.2-0.8,0.3-1.6,0.3-2.4c0-4.9-4-8.9-8.9-8.9c-4.2,0-7.7,2.8-8.6,6.8
			c-0.1,0-0.3,0-0.4,0c-6.6,0-14.6,2.2-19.9,6.6c-2.4-2.1-5.2-2.6-6.7-2.7c-4-0.3-7.7,1.6-9.5,5.4c-1.7,3.7-1.1,8.9,1.7,11.7
			c0.9,1,2.8,2.4,4.5,3c0,0.5,0,1.1-0.1,2c0,1.4,0,2.9,0,3.1c0.1,2.7,0.3,6,1.7,9.1c1.1,2.6,3,4.6,4.7,6.2c0.2,0.2,0.5,0.5,0.7,0.7
			c1.4,1.3,2.6,2.5,2.9,4.1c0.3,1.8-0.9,3-2.2,3.4c-4.1,1.3-10.2,0.6-14.9-1.7c-0.7-0.3-1.4-0.8-2.1-1.2c-2-1.2-4.3-2.7-6.9-2.6
			c-2.6,0.1-4.6,1.6-5.7,4.3C24.4,81.4,25.8,84.7,27.4,87.2z M117.3,101.3c-0.3,1.6-0.8,3.3-1,4.3c-0.4,1.9-1.6,4-2.3,5.9
			c-0.4,1-2.3,3.9-2.3,4c-1.2,2.2-3,4-4.6,5.7c-6.1,6.2-13.2,8.5-13.2,8.5c-4.7,1.8-8.4,2.2-13.4,2.2c-5.7,0-9.5-1.5-9.5-1.5
			c-5.2-1.6-9.5-4.1-13.2-7.1c-1.9-1.6-3.6-3.3-5.2-5.3c-0.6-0.8-1.2-1.5-1.7-2.4c-0.4-0.7-2-3.3-2-3.3c-1.3-1.8,0.9-3.8,2.6-1.8
			c1.5,1.8,3.4,3.2,6.3,4.9c2,1.2,5.2,2.3,7.9,2.6c8,1,12.6-0.9,18-4.3c2-1.2,5.2-4.2,6.8-5.7c1.1-1.1,3.8-3.5,4.9-4.6
			c0,0,6.6-6.8,6.6-6.8c1.4-1.8,4.2-0.2,2.3,1.8c-0.9,1-1.2,3.3,0.2,4.3c1.4,0.9,3.4,0.3,5.5-1.8c0.7-0.7,3.3-3.3,4.6-4.6
			c1.2-1.3,3.3-2.4,3.3,0.8C117.7,97.8,117.6,99.4,117.3,101.3z M100.3,42.3c0.7,0.7,1.7,1.2,2.7,1.5c0.3,1.9,2.4,3.3,5.1,3.3
			c0.2,0,0.4,0,0.6,0c0.7,1.7,1.1,3.8,1.2,6.5c0.1,3-0.8,5.8-2.4,8.2c-5-2.5-8.2-7.9-8.2-13.8C99.3,45.9,99.7,44.1,100.3,42.3z
			 M30,79.4c0.2-0.5,0.8-1.2,1.6-1.4c0.2,0,0.3,0,0.5,0c1.1,0,2.3,0.6,3.4,1.3c0.4,0.2,0.7,0.4,1.1,0.6c1.2,0.7,2.4,1.5,3.7,2
			c1.5,0.6,3.1,1.2,4.8,1.5c2,0.5,4,0.7,5.9,0.7c1.6,0,3.2-0.2,4.7-0.5c1.3-0.3,3.2-0.9,4.7-2.6c1.2-1.3,1.8-3.1,1.7-4.9
			c-0.2-3.4-2.5-5.6-4.5-7.5c-0.4-0.4-0.8-0.8-1.2-1.1c-1-1-2.1-2.3-2.9-3.7c-0.6-1.3-1.1-2.8-1.3-4.8c-0.3-2.4-0.3-5-0.2-7.4
			c0-0.1,0-0.3,0-0.5c0.1-1,0.3-3.2-1.7-4c-0.3-0.1-0.5-0.2-0.7-0.2c-0.1,0-0.2,0-0.3-0.1c-0.2-0.1-0.5-0.2-0.8-0.4
			c-0.6-0.3-1.1-0.7-1.6-1.1c-0.9-0.8-1.5-1.7-1.8-2.7c-0.3-1-0.4-2.2-0.2-3.4c0.3-2.2,1.8-4,3.8-4.6c0.5-0.2,1.1-0.2,1.7-0.2
			c1.5,0,3.2,0.5,4.4,1.5c0.3,0.2,0.5,0.4,0.8,0.7c0.3,0.3,0.8,0.8,1.7,1c0.2,0,0.3,0,0.5,0c1.1,0,1.9-0.7,2.4-1.1
			c0.1-0.1,0.2-0.2,0.3-0.2c1.1-0.9,2.3-1.7,3.6-2.4c2.6-1.3,5.5-2.3,8.6-2.9c1.5-0.3,2.9-0.4,4.4-0.5c0.3,0,0.5,0,0.8,0
			c0.1,0,0.3,0,0.4,0c0.1,0,0.2,0,0.3,0c0.2,0,0.4,0,0.6,0c0.3,0,0.5,0,0.8-0.1c1.8-0.4,2.1-2,2.2-2.8c0.4-2.1,2.2-3.7,4.3-3.9
			c0.1,0,0.3,0,0.4,0c2,0,3.8,1.2,4.5,3.1c0.4,1.1,0.5,2.3,0.1,3.1c-0.4,0.8-1.1,2.2-0.3,3.7c0.5,1,1.4,1.6,2.2,2.1
			c0.2,0.1,0.4,0.3,0.6,0.4c1,0.6,1.9,1.2,2.5,1.9c-0.1,0.2-0.1,0.3-0.2,0.5c-0.4,0.9-0.7,1.8-0.9,2.7c-0.9,3.5-0.9,7.2-0.1,10.7
			c1.3,5.5,4.8,10.4,9.5,13.5c-0.3,0.2-0.5,0.4-0.8,0.5c-0.5,0.3-1,0.6-1.5,0.8c-0.3,0.2-0.7,0.3-1,0.5c-3.7,2.1-3.9,4.5-3.4,6.2
			c0.4,1.4,1.9,3.9,6.7,3.9c1.3,0,2.5-0.2,3.2-0.3c2.8-0.5,5.5-1.5,7.8-2.8c1.4-0.8,2.7-1.7,3.7-2.8c1.2-1.2,2.1-2.6,2.8-3.9
			c0.3-0.5,0.6-1.1,1-1.6c0.3-0.3,0.4-0.4,0.7-0.5c0.3-0.1,0.6-0.1,0.9-0.1c0.7,0,1.6,0.1,2.4,0.9c1.8,1.6,1.2,4.5,0.3,6.6
			c-1.1,2.8-3.2,5.2-5.1,7.2c-2.6,2.7-4.8,4.8-7.8,5.4c-0.3,0.1-0.6,0.1-0.8,0.1c-0.3,0-0.5-0.1-0.6-0.1c-0.4-0.2-0.7-0.6-0.8-1
			c0-0.1,0-0.4-0.1-0.6c0-0.7-0.1-1.6-0.7-2.4c-0.5-0.6-1.2-1-1.9-1c-0.8,0-1.5,0.4-2.1,1.1c-0.7,0.8-1.4,1.6-2.3,2.5l-3.2,3.4
			l-2.9,3.1l-8.1,8.6c-0.4,0.4-0.8,0.9-1.2,1.3c-0.8,0.9-1.6,1.8-2.5,2.6c-0.9,0.9-2,1.4-3.1,1.4c-0.2,0-0.3,0-0.5,0
			c-2-0.3-3-1.9-4.6-3.8c-0.5-0.7-1.4-1.9-1.9-2.5c-4-4.2-8.6-7.3-15-8.2c-1.6-0.2-2.7-0.2-4.2-0.2c-1.9,0-5.5,0.8-7.2,1.2
			c-0.4,0.1-0.8,0.2-1.2,0.3c-0.3,0.1-0.6,0.2-1,0.2c-1,0.2-2,0.4-3.2,0.4c-0.4,0-0.7,0-1.1,0c-2.8,0-5.2-0.5-7-1.4
			c-0.9-0.5-2-1-2.9-1.8c-0.8-0.6-1.6-1.4-2.4-2.5c-1-1.3-1.9-2.3-2.3-3.5C29.6,81.8,29.4,80.6,30,79.4z"/>
	</g>
</g>
</svg>
