<?xml version="1.0" encoding="UTF-8"?>
<svg id="_圖層_2" xmlns="http://www.w3.org/2000/svg" version="1.1" viewBox="0 0 1600 817.9">
  <!-- Generator: Adobe Illustrator 29.4.0, SVG Export Plug-In . SVG Version: 2.1.0 Build 152)  -->
  <defs>
    <style>
      .st0 {
        fill: none;
      }

      .st1 {
        fill: #0b68b5;
      }

      .st2 {
        fill: #fff;
      }
    </style>
  </defs>
  <rect class="st2" x="-12.6" y="-88.5" width="1661.4" height="979.9"/>
  <polygon class="st1" points="334.4 233.2 235.4 332.1 201.4 298.1 167.9 264.6 201.9 230.6 235.4 264 300.4 199.1 235.5 134.2 104.5 265.2 235.5 396.2 366.5 265.2 334.4 233.2"/>
  <rect class="st1" x="310.7" y="176.1" width="45.2" height="48.2" transform="translate(-44 294.4) rotate(-45)"/>
  <polygon class="st2" points="201.9 230.6 167.9 264.6 201.4 298.1 235.4 332.1 334.4 233.2 300.4 199.1 235.4 264 201.9 230.6"/>
  <rect x="417.8" y="164.4" width="19.4" height="69.2"/>
  <rect x="638.8" y="132.8" width="19.4" height="100.8"/>
  <rect x="417.8" y="132.8" width="19.4" height="19.4"/>
  <line class="st0" x1="618.6" y1="213.7" x2="618.6" y2="213.7"/>
  <path d="M628.9,192.6h0c-3.1-16.2-17.4-28.4-34.5-28.4s-35.1,15.8-35.1,35.1,15.8,35.1,35.1,35.1,24.1-6.7,30.4-17.5l-12.1-7c-3.8,6.5-10.8,10.5-18.3,10.5s-17.2-6-20-14.4h54.5v-13.4h0ZM574.5,192.6c2.8-8.4,10.7-14.4,20-14.4s17.2,6,20,14.4h-40Z"/>
  <path d="M555.5,179.3v-14.9h-12.9v-26.7h-19.4v75.8c0,2.1.3,9.1,5.5,14.4,3.8,3.8,8.3,4.8,11.7,5.6,6.3,1.4,11.6.6,14.6-.1v-17h-9.9c-.3,0-1.1-.3-1.8-1.1-.6-.7-.7-1.4-.8-1.7v-34.1h12.9v-.2Z"/>
  <path d="M512,179c-4.2-10.7-17.5-17.1-29.3-16.1-8.2.7-14.2,4.8-18.1,8.3v-6.9h-19.4v69.2h19.4v-46.8c2.5-3.3,7.9-9.1,15.7-9.7,2.1-.1,6-.4,9.4,2.3,3.9,3.1,4.3,7.8,4.4,8.8h0v45.5h19.4v-45.5c0-2.1-.2-5.9-1.5-9.1h0Z"/>
  <circle cx="673.9" cy="226" r="8"/>
  <g>
    <path class="st1" d="M509.7,415.9c22.5-30.8,43.1-61.6,65.6-92.4v121.5h24.6v-164.4h-26.1l-64.2,93.1-66.2-93.1h-25.6v164.4h24.6v-120.8"/>
    <path class="st1" d="M771.8,445h24.6l-73.5-164.2v-.2h-24.7v.2l-73.4,164.2h24.6l18.1-40.5h86l18.1,40.5h.2ZM676.6,384.4l34-76.1,34,76.1h-68Z"/>
    <polygon class="st1" points="1475 280.6 1413.3 280.6 1388.7 280.6 1327.1 280.6 1327.1 305.2 1388.7 305.2 1388.7 445 1413.3 445 1413.3 305.2 1475 305.2 1475 280.6"/>
    <polygon class="st1" points="1120 445 1151 445 1066.2 351.5 1145.4 280.6 1112.6 280.6 1018.6 364.8 1018.6 280.6 993.9 280.6 993.9 386.9 993.9 416.2 993.9 445 1018.6 445 1018.6 394.2 1049.1 366.8 1120 445"/>
    <path class="st1" d="M962.7,445l-38.5-67.5c19.8-6.6,34.1-25.3,34.1-47.2h0c0-26.7-21.3-48.6-47.7-49.7h-89.1v164.4h24.6v-65h50.3l37,65h29.3ZM846.2,300.7h55.8c16.3,0,29.6,13.3,29.6,29.6h0c0,16.3-13.3,29.6-29.6,29.6h-55.8v-59.2Z"/>
    <path class="st1" d="M1323.6,354.1c-2.2-21.2-12-40.8-27.8-55.2-15.9-14.5-36.5-22.4-58.1-22.4-47.6,0-86.3,38.7-86.3,86.3s38.7,86.3,86.3,86.3,58.3-12.1,74.2-37.8l-19.6-12.1c-11.6,18.9-32.5,26.9-54.6,26.9s-56.9-22.4-62.3-51.9h148.2v-20.1h0ZM1237.7,299.4c31.9,0,58.4,23.3,62.7,54.6h-125.4c4.3-30.8,30.8-54.6,62.7-54.6h0Z"/>
  </g>
  <g>
    <path class="st1" d="M909.3,651.1h24.6l-73.5-164.2v-.2h-24.7v.2l-73.4,164.2h24.6l18.1-40.5h86l18.1,40.5h.2ZM814.1,590.5l34-76.1,34,76.1h-68Z"/>
    <polygon class="st1" points="1251.4 485.9 1194.1 562.5 1136.8 485.9 1109.3 485.9 1179.6 580.2 1179.6 651.9 1207.6 651.9 1207.6 580.4 1278.7 485.9 1251.4 485.9"/>
    <path class="st1" d="M558.9,651.1l-38.5-67.5c19.8-6.6,34.1-25.3,34.1-47.2h0c0-26.7-21.3-48.6-47.7-49.7h-89.1v164.4h24.6v-65h50.3l37.1,65h29.2ZM442.4,506.8h55.8c16.3,0,29.6,13.3,29.6,29.6h0c0,16.3-13.3,29.6-29.6,29.6h-55.8v-59.2h0Z"/>
    <path class="st1" d="M753,560.2c-2.2-21.2-12-40.8-27.8-55.2-15.9-14.5-36.5-22.4-58-22.4-47.6,0-86.3,38.7-86.3,86.3s38.7,86.3,86.3,86.3,58.3-12.1,74.2-37.8l-19.6-12.1c-11.6,18.9-32.5,26.9-54.6,26.9s-56.9-22.4-62.3-51.9h148.2v-20.1h-.1ZM667.1,505.6c31.9,0,58.5,23.3,62.7,54.6h-125.4c4.3-30.8,30.8-54.6,62.7-54.6h0Z"/>
    <path class="st1" d="M1028.7,485.5h-68v166.9h68c46,0,83.4-37.4,83.4-83.4s-37.4-83.4-83.4-83.4h0ZM1028.7,630.3h-43.4v-122.9h43.4c33.9,0,61.4,27.6,61.4,61.4s-27.6,61.4-61.4,61.4h0Z"/>
  </g>
</svg>