<svg xmlns="http://www.w3.org/2000/svg" xmlns:xlink="http://www.w3.org/1999/xlink" width="50.946" height="46.005" viewBox="0 0 50.946 46.005"><defs><style>.a{fill:none;}.b{clip-path:url(#a);}.c{fill:#826f58;}</style><clipPath id="a"><rect class="a" width="50.946" height="46.005"/></clipPath></defs><g class="b"><path class="c" d="M38.839,92.5H38.62a.839.839,0,1,0,0,1.677h.219a.839.839,0,1,0,0-1.677" transform="translate(-19.676 -48.172)"/><path class="c" d="M50.916,39.071l-5.873-21.3a.839.839,0,0,0-1.031-.586L36.3,19.312a.839.839,0,1,0,.446,1.617l6.905-1.9,5.427,19.683L29.392,44.135,23.965,24.452l9.43-2.6a.839.839,0,1,0-.445-1.617l-6.783,1.87a.776.776,0,0,0-.095-.01H4.815V1.678H25.233V17.994a.839.839,0,0,0,1.677,0V.84A.838.838,0,0,0,26.071,0H3.977A.838.838,0,0,0,3.138.84V22.233H.839A.839.839,0,0,0,0,23.072v22.1a.839.839,0,0,0,.839.839h14.85a.839.839,0,0,0,0-1.677H1.677V23.911H22.095V45.167a.839.839,0,1,0,1.677,0v-15.1L28,45.39a.838.838,0,0,0,1.031.586L50.33,40.1a.839.839,0,0,0,.586-1.031" transform="translate(0 -0.001)"/><path class="c" d="M13.4,70.725h2.332l.9-2.473h4.352l.95,2.473h2.391L19.97,59.839H17.646Zm6.877-4.307h-2.97l1.47-4.04Z" transform="translate(-6.981 -31.163)"/><path class="c" d="M73.1,57.552a2.543,2.543,0,0,0,.024-1.463,2.465,2.465,0,0,0-.661-1.139,2.785,2.785,0,0,0-1.048-.655,2.838,2.838,0,0,0-1.214-.132,12.619,12.619,0,0,0-1.887.409l-4.2,1.156,2.894,10.494,3.572-.984q2.022-.573,2.536-.776a3.116,3.116,0,0,0,1.284-.889,2.912,2.912,0,0,0,.611-1.332,3.23,3.23,0,0,0-.052-1.484,2.621,2.621,0,0,0-.951-1.44,2.866,2.866,0,0,0-1.737-.545,2.558,2.558,0,0,0,.823-1.221m-6.379-.66,1.217-.336q1.5-.413,1.822-.463a1.261,1.261,0,0,1,.9.148,1.2,1.2,0,0,1,.487.718,1.15,1.15,0,0,1-.085.905,1.455,1.455,0,0,1-.752.612q-.291.119-1.53.46l-1.388.383ZM72.3,60.523a1.422,1.422,0,0,1,.45.739,1.337,1.337,0,0,1-.051.973,1.364,1.364,0,0,1-.654.631,9.866,9.866,0,0,1-1.435.465l-1.962.541-.773-2.806,1.711-.472a7.48,7.48,0,0,1,1.921-.368,1.347,1.347,0,0,1,.795.3" transform="translate(-33.394 -28.199)"/><path class="c" d="M26.439,14.936a2.25,2.25,0,0,1,2.294,1.827l2.176-.519A4.3,4.3,0,0,0,29.8,14.238a4.526,4.526,0,0,0-3.245-1.181,4.812,4.812,0,0,0-3.691,1.5,5.951,5.951,0,0,0-1.4,4.221,5.666,5.666,0,0,0,1.4,4.051,4.683,4.683,0,0,0,3.565,1.481,4.646,4.646,0,0,0,2.891-.865A4.784,4.784,0,0,0,30.94,20.8l-2.132-.676a3.235,3.235,0,0,1-.906,1.752,2.2,2.2,0,0,1-1.508.557,2.41,2.41,0,0,1-1.931-.876,4.564,4.564,0,0,1-.743-2.94,4.265,4.265,0,0,1,.753-2.815,2.479,2.479,0,0,1,1.965-.868" transform="translate(-11.174 -6.8)"/></g></svg>