<?xml version="1.0" encoding="utf-8"?>
<!-- Generator: Adobe Illustrator 24.0.0, SVG Export Plug-In . SVG Version: 6.00 Build 0)  -->
<svg version="1.1" id="圖層_1" xmlns="http://www.w3.org/2000/svg" xmlns:xlink="http://www.w3.org/1999/xlink" x="0px" y="0px"
	 viewBox="0 0 27.8 43" style="enable-background:new 0 0 27.8 43;" xml:space="preserve">
<style type="text/css">
	.st0{fill:#FFFFFF;}
</style>
<g>
	<g>
		<path class="st0" d="M1,19.2L19.2,0.9c1.3-1.3,3.3-1.3,4.5,0c0,0,0,0,0,0l3,3c1.3,1.3,1.3,3.3,0,4.5c0,0,0,0,0,0l-13,13l13,13
			c1.3,1.3,1.3,3.3,0,4.5c0,0,0,0,0,0l-3,3c-1.3,1.3-3.3,1.3-4.5,0c0,0,0,0,0,0L0.9,23.8C-0.3,22.5-0.3,20.5,1,19.2
			C0.9,19.3,0.9,19.2,1,19.2"/>
	</g>
</g>
</svg>
