<svg xmlns="http://www.w3.org/2000/svg" xmlns:xlink="http://www.w3.org/1999/xlink" width="51.022" height="45.899" viewBox="0 0 51.022 45.899"><defs><style>.a{fill:none;}.b{clip-path:url(#a);}.c{fill:#826f58;}</style><clipPath id="a"><rect class="a" width="51.022" height="45.899"/></clipPath></defs><g class="b"><path class="c" d="M34.576,42.585A1.174,1.174,0,0,1,33.4,41.412V39.234a1.173,1.173,0,0,1,2.346,0v2.178a1.174,1.174,0,0,1-1.173,1.173" transform="translate(-17.484 -19.922)"/><path class="c" d="M69.911,42.585a1.174,1.174,0,0,1-1.173-1.173V39.234a1.173,1.173,0,0,1,2.346,0v2.178a1.174,1.174,0,0,1-1.173,1.173" transform="translate(-35.979 -19.922)"/><path class="c" d="M47.827,65.805a5.2,5.2,0,0,1-5.194-5.194,1.173,1.173,0,1,1,2.345,0,2.849,2.849,0,0,0,5.7,0,1.173,1.173,0,1,1,2.345,0,5.2,5.2,0,0,1-5.194,5.194" transform="translate(-22.315 -31.111)"/><path class="c" d="M33.677,11.938a1.166,1.166,0,0,0,.507-.115q.2-.1.4-.188A1.173,1.173,0,1,0,33.62,9.5c-.152.069-.3.139-.452.21a1.173,1.173,0,0,0,.509,2.231" transform="translate(-17.013 -4.916)"/><path class="c" d="M34.575,38.061A1.173,1.173,0,0,0,33.4,39.234v2.178a1.173,1.173,0,1,0,2.346,0V39.234a1.173,1.173,0,0,0-1.173-1.173" transform="translate(-17.483 -19.922)"/><path class="c" d="M71.083,41.412V39.234a1.173,1.173,0,0,0-2.346,0v2.178a1.173,1.173,0,1,0,2.346,0" transform="translate(-35.978 -19.922)"/><path class="c" d="M53.019,60.61a1.173,1.173,0,0,0-2.346,0,2.849,2.849,0,1,1-5.7,0,1.173,1.173,0,0,0-2.346,0,5.195,5.195,0,0,0,10.389,0" transform="translate(-22.313 -31.111)"/><path class="c" d="M51.022,23.585a6.1,6.1,0,0,0-4.951-5.957A21.634,21.634,0,0,0,31.7,3.572a4.921,4.921,0,0,0-.487-.9A6.774,6.774,0,0,0,25.41.019a5.737,5.737,0,0,0-5.5,5.191,7,7,0,0,0,1.546,5.269c1.972,2.479,5.666,4.233,9.88,4.693.043,0,.086.007.128.007a1.174,1.174,0,0,0,.974-1.827c-.02-.03-1.95-3-1-5.02a6.936,6.936,0,0,0,.632-2.176A19.275,19.275,0,1,1,13.271,9.4,1.173,1.173,0,1,0,11.78,7.589,21.571,21.571,0,0,0,4.948,17.627a6.057,6.057,0,0,0-.426,11.814,21.6,21.6,0,0,0,5.528,9.925c5.869,4.821,10.4,6.5,15.461,6.532a23.013,23.013,0,0,0,9.974-2.449A21.7,21.7,0,0,0,46.5,29.442a6.054,6.054,0,0,0,4.522-5.857m-21.63-11.13a11.284,11.284,0,0,1-6.1-3.436,4.635,4.635,0,0,1-1.052-3.532,3.415,3.415,0,0,1,3.377-3.131c.086-.007.174-.011.265-.011A4.416,4.416,0,0,1,29.29,4.012a3.181,3.181,0,0,1,.018,3.325,6.7,6.7,0,0,0,.083,5.118M2.346,23.585a3.706,3.706,0,0,1,1.915-3.244,21.28,21.28,0,0,0-.228,6.347,3.722,3.722,0,0,1-1.687-3.1m44.416-3.232a3.685,3.685,0,0,1,.228,6.328" transform="translate(0 0)"/></g></svg>