<?xml version="1.0" encoding="utf-8"?>
<!-- Generator: Adobe Illustrator 22.1.0, SVG Export Plug-In . SVG Version: 6.00 Build 0)  -->
<svg version="1.1" id="圖層_1" xmlns="http://www.w3.org/2000/svg" xmlns:xlink="http://www.w3.org/1999/xlink" x="0px" y="0px"
	 viewBox="0 0 1920 1080" style="enable-background:new 0 0 1920 1080;" xml:space="preserve">
<style type="text/css">
	.st0{fill:none;}
	.st1{filter:url(#Adobe_OpacityMaskFilter);}
	.st2{fill:#FFFFFF;}
	.st3{mask:url(#mask-2_1_);fill:url(#Fill-1_1_);}
</style>
<title>Desktop HD-MyCourse Copy</title>
<desc>Created with Sketch.</desc>
<g id="_x2D_">
	<g id="Desktop-HD-MyCourse-Copy">
		<rect id="Rectangle-2" x="426" y="-78" class="st0" width="1024" height="2123"/>
		<g id="cloud-big" transform="translate(-14.000000, 73.000000)">
			<g id="Clip-2">
			</g>
			<defs>
				<filter id="Adobe_OpacityMaskFilter" filterUnits="userSpaceOnUse" x="0" y="1.7" width="2099.2" height="1503.3">
					<feColorMatrix  type="matrix" values="1 0 0 0 0  0 1 0 0 0  0 0 1 0 0  0 0 0 1 0"/>
				</filter>
			</defs>
			<mask maskUnits="userSpaceOnUse" x="0" y="1.7" width="2099.2" height="1503.3" id="mask-2_1_">
				<g class="st1">
					<polygon id="path-1_1_" class="st2" points="1938,1508 0,1508 0,0 1938,0 					"/>
				</g>
			</mask>
			
				<linearGradient id="Fill-1_1_" gradientUnits="userSpaceOnUse" x1="553.2456" y1="764.4366" x2="553.2411" y2="763.4818" gradientTransform="matrix(2099.1562 0 0 -1503.2708 -1160294.375 1149156.875)">
				<stop  offset="0" style="stop-color:#FFFFFF"/>
				<stop  offset="1" style="stop-color:#0468BF"/>
			</linearGradient>
			<path id="Fill-1" class="st3" d="M1808.9,59.3c-61.5-39.1-90.8,24.6-67.2,52.5c-2.9-0.7-5.9-1-9-1c-15,0-28,8.3-35,20.6
				c-10.9-14.5-28-23.9-47.4-23.9c-11.3,0-21.9,3.2-30.9,8.8c-9.5-12.8-24.6-21.1-41.6-21.1c-3.7-24.9-21.8-43.3-44.2-43.3
				c-13.9,0-26.2,7.1-33.5,18c-4.1-9.9-13.4-17-24.4-17.9c0.1-17.2-26.3-44.4-48.8-44.3C1381,3.7,1363,32.1,1363,54.4
				c-2.6-9.9-38.3-20.1-51.9-8.1c-2.7-11.6-13.3-53.1-17.3,3.1c-21.8,0.6-23.5,15.3-23.5,29.1c-22.3,4.9-23.3,19-23.7,37.8
				c-9-5.6-19.6-8.8-30.9-8.8c-17.4,0-33.1,7.6-43.9,19.7c-7.3-9.9-19.1-16.4-32.2-16.4c-5.1,0-10.1,1-14.6,2.8
				c-8.5-27-33.5-46.6-63-46.6c-9.1,0-17.7,1.9-25.6,5.2c0.3-34.2-24.6-59.9-65.3-59.9c-27.9,0-53.7,25.8-53.7,54.7
				c-7.6,1.9-16.3,0-25.4,0c-28.8,0-53.3,18.7-62.4,44.9c-23.2-3.3-37,7.3-43.9,19.6c-10.1-19.3-51.4-63.6-119.8-36.3
				C652.9,57,615.4,29.6,563.8,51.9c0-23.3-15.4-41.9-42.2-41.9C494.8,10,478,29.3,478,51.9c-11,0.9-20.3,8-24.4,17.9
				c-7.3-10.9-19.6-18-33.5-18c-22.4,0-40.5,18.4-40.5,41.1c-20.7,2.2-35.8,10.5-45.2,23.3c-31.4-26.6-68.7-6-74.8,10.9
				c-7.3-9.9-19.1-16.4-32.2-16.4c-5.1,0-10.1,1-14.6,2.8c-8.5-27-33.5-46.6-63-46.6c-9.1,0-17.7,1.9-25.6,5.2
				C123.6,26,54.3-14,0,16.9V1505h969.6h14.8h1114.8V120V5.8L1938,38.2C1923.7-15.1,1810.1-11.6,1808.9,59.3z"/>
		</g>
	</g>
</g>
</svg>
