<?xml version="1.0" encoding="UTF-8"?>
<svg width="1920px" height="1080px" viewBox="0 0 1920 1080" version="1.1" xmlns="http://www.w3.org/2000/svg" xmlns:xlink="http://www.w3.org/1999/xlink">
    <!-- Generator: Sketch 47.1 (45422) - http://www.bohemiancoding.com/sketch -->
    <title>Desktop HD-ReserveClass-bg</title>
    <desc>Created with Sketch.</desc>
    <defs>
        <filter x="-8.7%" y="-2.8%" width="111.7%" height="109.3%" filterUnits="objectBoundingBox" id="filter-1">
            <feOffset dx="-7" dy="5" in="SourceAlpha" result="shadowOffsetOuter1"></feOffset>
            <feGaussianBlur stdDeviation="3" in="shadowOffsetOuter1" result="shadowBlurOuter1"></feGaussianBlur>
            <feColorMatrix values="0 0 0 0 0   0 0 0 0 0   0 0 0 0 0  0 0 0 0.3 0" type="matrix" in="shadowBlurOuter1" result="shadowMatrixOuter1"></feColorMatrix>
            <feMerge>
                <feMergeNode in="shadowMatrixOuter1"></feMergeNode>
                <feMergeNode in="SourceGraphic"></feMergeNode>
            </feMerge>
        </filter>
        <polygon id="path-2" points="30.1823476 70.0327869 0.471104643 70.0327869 0.471104643 0.309807541 30.1823476 0.309807541 30.1823476 70.0327869"></polygon>
        <polygon id="path-4" points="48.7114528 32.1196951 48.7114528 0.00858402778 0.0870051181 0.00858402778 0.0870051181 32.1196951 48.7114528 32.1196951"></polygon>
    </defs>
    <g id="-" stroke="none" stroke-width="1" fill="none" fill-rule="evenodd">
        <g id="Desktop-HD-ReserveClass-bg">
            <g id="Page-1-bg4" filter="url(#filter-1)" transform="translate(319.064085, 725.213722) rotate(8.000000) translate(-319.064085, -725.213722) translate(207.564085, 591.213722)">
                <g id="Group-194" transform="translate(0.000000, 15.903570)">
                    <path d="M29.9053535,167.726599 L29.9053535,167.726599 C29.1810425,168.652782 26.4058339,167.702087 23.7052512,165.602854 C21.0064244,163.504497 19.4050386,161.051599 20.1284717,160.125415 L18.0977669,158.546176 L15.532389,161.827212 L29.3715583,172.586874 L31.9360583,169.306713 L29.9053535,167.726599 Z" id="Fill-1" fill="#325F65"></path>
                    <polygon id="Fill-3" fill="#325F65" points="15.4294051 156.471104 12.8631492 159.75214 14.2432909 160.825393 16.8086689 157.544357"></polygon>
                    <polygon id="Fill-5" fill="#325F65" points="33.2259465 170.308357 30.6596906 173.588518 32.0398323 174.66177 34.6052102 171.38161"></polygon>
                    <path d="M11.6269039,153.514845 L9.46011654,156.285517 C9.23975039,156.567399 9.29067165,156.97359 9.57337244,157.193317 L12.8630614,159.75214 L15.4293173,156.471104 L11.6269039,153.514845 Z" id="Fill-7" fill="#9BB21D"></path>
                    <polygon id="Fill-9" fill="#9BB21D" points="32.0401835 174.661508 33.6284 175.895836 41.8223331 178.046718 42.3350575 177.39016 34.6055614 171.381347"></polygon>
                    <path d="M15.4294051,156.471104 L16.8086689,157.544357 L19.3740469,154.264196 L17.9947831,153.190944 L15.4294051,156.471104 Z M34.6056492,171.381085 L37.1710272,168.100049 L35.7908854,167.027671 L33.2263854,170.308708 L34.6056492,171.381085 Z M18.0975035,158.545826 L20.6628815,155.265665 L34.5029287,166.025327 L31.9366728,169.306363 L29.9050902,167.726249 C30.6294012,166.80094 29.0280154,164.348042 26.3283106,162.249685 C23.6286059,160.150452 20.8533972,159.199757 20.1290862,160.12594 L18.0975035,158.545826 Z" id="Fill-11" fill="#26555B"></path>
                    <path d="M17.9946953,153.190856 L14.7041283,150.632033 C14.4223055,150.412305 14.0140575,150.463079 13.7936913,150.744961 L11.6269039,153.514758 L15.4293173,156.471017 L17.9946953,153.190856 Z" id="Fill-13" fill="#82A513"></path>
                    <polygon id="Fill-15" fill="#82A513" points="38.7586291 169.334639 37.1704126 168.100311 34.6059126 171.381347 42.3345307 177.39016 42.8472551 176.734478"></polygon>
                    <polygon id="Fill-17" fill="#FFFFFF" points="29.3712071 172.586611 30.6600417 173.588956 33.2254197 170.30792 35.7907976 167.026884 34.5028409 166.025415 31.936585 169.306451"></polygon>
                    <path d="M20.1286472,160.125765 C19.4052142,161.051949 21.0066,163.503096 23.7054268,165.603205 C26.4051315,167.701562 29.1812181,168.652257 29.9055291,167.726949 C30.6298402,166.800765 29.0284543,164.347867 26.3287496,162.24951 C23.6281669,160.150277 20.8529583,159.199582 20.1286472,160.125765" id="Fill-19" fill="#FFFFFF"></path>
                    <polygon id="Fill-21" fill="#FFFFFF" points="16.8089323 157.543919 14.2435543 160.824955 15.532389 161.827299 18.0977669 158.546263 20.6631449 155.265227 19.3743102 154.263758"></polygon>
                    <path d="M24.2483528,215.283413 L24.2483528,215.283413 C23.1474,215.700984 21.2685811,213.452056 20.0534945,210.261187 C18.8375299,207.070318 18.743589,204.144698 19.8454197,203.728879 L18.929715,201.32763 L15.0307268,202.804446 L21.2641913,219.162354 L25.1631795,217.684662 L24.2483528,215.283413 Z" id="Fill-23" fill="#325F65"></path>
                    <polygon id="Fill-25" fill="#325F65" points="17.7288512 198.17274 13.828985 199.650432 14.4505756 201.282196 18.3504417 199.803629"></polygon>
                    <polygon id="Fill-27" fill="#325F65" points="25.7435941 219.208226 21.843728 220.685042 22.4653185 222.316806 26.3651846 220.839114"></polygon>
                    <path d="M16.0158776,193.679436 L12.7226768,194.926895 C12.3872988,195.05383 12.2196098,195.42763 12.346035,195.762036 L13.8288972,199.650607 L17.7287634,198.172915 L16.0158776,193.679436 Z" id="Fill-29" fill="#64589F"></path>
                    <polygon id="Fill-31" fill="#64589F" points="22.4650551 222.316631 23.1797087 224.19351 29.0672598 230.270605 29.8468819 229.974716 26.3649213 220.839814"></polygon>
                    <path d="M17.7288512,198.17274 L18.3504417,199.803629 L22.2494299,198.326812 L21.6278394,196.695924 L17.7288512,198.17274 Z M26.3652724,220.839727 L30.2651386,219.36116 L29.643548,217.730271 L25.7436819,219.207963 L26.3652724,220.839727 Z M18.9307685,201.327717 L22.8306346,199.850025 L29.0632213,216.207933 L25.1633551,217.68475 L24.2485283,215.283501 C25.3494811,214.86593 25.2564181,211.942061 24.0395756,208.751192 C22.824489,205.559448 20.946548,203.311396 19.8455953,203.728091 L18.9307685,201.327717 Z" id="Fill-33" fill="#26555B"></path>
                    <path d="M21.6281906,196.695486 L20.1470843,192.806915 C20.0197811,192.472509 19.6440173,192.30443 19.3095173,192.431365 L16.0154386,193.679699 L17.7292024,198.172302 L21.6281906,196.695486 Z" id="Fill-35" fill="#554996"></path>
                    <polygon id="Fill-37" fill="#554996" points="30.9804945 221.238564 30.2658409 219.36081 26.3650969 220.839377 29.8470575 229.974278 30.6266795 229.679265"></polygon>
                    <polygon id="Fill-39" fill="#FFFFFF" points="21.2638402 219.162004 21.843289 220.685217 25.7440331 219.208401 29.6438992 217.729833 29.0635724 216.207496 25.1628283 217.685188"></polygon>
                    <path d="M19.8457709,203.728704 C18.7439402,204.145399 18.8378811,207.070143 20.0529677,210.261012 C21.2698102,213.451881 23.1477512,215.700809 24.2487039,215.283238 C25.3496567,214.866543 25.2565937,211.941799 24.0397512,208.75093 C22.8246646,205.560061 20.9467236,203.311133 19.8457709,203.728704" id="Fill-41" fill="#FFFFFF"></path>
                    <polygon id="Fill-43" fill="#FFFFFF" points="18.3504417 199.803891 14.4505756 201.281583 15.0309024 202.804796 18.9298906 201.327104 22.8306346 199.850288 22.2494299 198.327075"></polygon>
                    <path d="M96.0141425,70.6988862 C92.6638748,59.7378797 96.0589181,47.3420764 105.536418,39.7163813 C115.013918,32.0906862 127.88295,31.3991125 137.919706,36.9798502 L96.0141425,70.6988862 Z M98.7463315,31.325578 C81.6288866,45.0992764 78.9502528,70.1001059 92.7639614,87.1670961 L154.75006,37.2923715 C140.937229,20.2245059 115.862898,17.5536305 98.7463315,31.325578 L98.7463315,31.325578 Z" id="Fill-45" fill="#FAAD3B"></path>
                    <path d="M90.0570575,83.3794603 C90.8788213,84.6759423 91.7734551,85.9452866 92.7637858,87.1673587 L154.750762,37.2926341 C153.760431,36.0688111 152.70601,34.9281521 151.607691,33.8540243 L90.0570575,83.3794603 Z" id="Fill-47" fill="#FAC145"></path>
                    <path d="M94.7958075,81.3961318 L96.8238783,83.9006793" id="Stroke-49" stroke="#325F65" stroke-width="1.06"></path>
                    <path d="M98.0418622,79.9120495 L99.5168228,81.7337774" id="Stroke-51" stroke="#325F65" stroke-width="1.06"></path>
                    <path d="M100.735685,77.7448849 L102.209767,79.5666128" id="Stroke-53" stroke="#325F65" stroke-width="1.06"></path>
                    <path d="M103.428717,75.5777203 L104.903678,77.3994482" id="Stroke-55" stroke="#325F65" stroke-width="1.06"></path>
                    <path d="M106.122627,73.4105557 L107.59671,75.2322836" id="Stroke-57" stroke="#325F65" stroke-width="1.06"></path>
                    <path d="M108.262637,70.5603964 L110.290708,73.0649439" id="Stroke-59" stroke="#325F65" stroke-width="1.06"></path>
                    <path d="M135.196208,48.888838 L137.224279,51.394261" id="Stroke-61" stroke="#325F65" stroke-width="1.06"></path>
                    <path d="M138.442263,47.4047557 L139.917224,49.227359" id="Stroke-63" stroke="#325F65" stroke-width="1.06"></path>
                    <path d="M141.136085,45.2375911 L142.611046,47.0601944" id="Stroke-65" stroke="#325F65" stroke-width="1.06"></path>
                    <path d="M143.829118,43.0704266 L145.304078,44.8930298" id="Stroke-67" stroke="#325F65" stroke-width="1.06"></path>
                    <path d="M146.523028,40.903262 L147.997111,42.7258652" id="Stroke-69" stroke="#325F65" stroke-width="1.06"></path>
                    <path d="M148.663038,38.0531026 L150.691109,40.5585256" id="Stroke-71" stroke="#325F65" stroke-width="1.06"></path>
                    <path d="M111.508604,69.0762266 L112.983565,70.8979544" id="Stroke-73" stroke="#325F65" stroke-width="1.06"></path>
                    <path d="M114.202514,66.9091495 L115.677475,68.7308774" id="Stroke-75" stroke="#325F65" stroke-width="1.06"></path>
                    <path d="M116.895546,64.7419849 L118.370507,66.5637128" id="Stroke-77" stroke="#325F65" stroke-width="1.06"></path>
                    <path d="M119.589369,62.5748203 L121.063452,64.3974236" id="Stroke-79" stroke="#325F65" stroke-width="1.06"></path>
                    <path d="M121.729379,59.7245734 L123.75745,62.229121" id="Stroke-81" stroke="#325F65" stroke-width="1.06"></path>
                    <path d="M124.975433,58.2404911 L126.450394,60.062219" id="Stroke-83" stroke="#325F65" stroke-width="1.06"></path>
                    <path d="M127.669344,56.0733266 L129.144304,57.8950544" id="Stroke-85" stroke="#325F65" stroke-width="1.06"></path>
                    <path d="M130.362376,53.906162 L131.837337,55.7287652" id="Stroke-87" stroke="#325F65" stroke-width="1.06"></path>
                    <path d="M133.056198,51.7390849 L134.530281,53.5616882" id="Stroke-89" stroke="#325F65" stroke-width="1.06"></path>
                    <path d="M164.973732,130.536212 L153.333834,124.921334 C152.180204,124.363698 151.696452,122.978799 152.255708,121.828511 C152.813208,120.676471 154.20213,120.194996 155.357515,120.751757 L166.996535,126.366635 C168.151043,126.924271 168.633917,128.308294 168.075539,129.460334 C167.516283,130.611498 166.127362,131.092973 164.973732,130.536212" id="Fill-91" fill="#FFFFFF"></path>
                    <path d="M158.040978,176.417405 L158.866254,142.744766 C158.882935,142.111844 159.027797,141.487677 159.292939,140.911657 L164.239324,130.181759 L159.154222,127.728861 L154.06912,125.275087 L148.700439,135.80189 C148.41247,136.36653 148.012124,136.867264 147.523982,137.272579 L121.556773,158.818166 C119.307458,160.683664 119.744679,164.244831 122.378537,165.515051 L137.320415,172.723175 L152.264049,179.932175 C154.897907,181.20327 157.968986,179.335146 158.040978,176.417405" id="Fill-93" fill="#FFFFFF"></path>
                    <path d="M155.851276,142.807357 C155.87937,141.6702 156.134855,140.568934 156.612461,139.532449 L163.606233,124.731895 L158.753788,122.391049 L151.448343,137.042784 C150.930351,138.057384 150.222721,138.941548 149.344768,139.669889 L124.279217,160.483633 C123.347709,161.257495 123.529445,162.732561 124.620741,163.257807 L152.661674,176.773259 C153.752091,177.298505 155.025122,176.525518 155.054095,175.317452 L155.851276,142.807357 Z" id="Fill-95" fill="#FFFFFF"></path>
                    <path d="M155.601762,152.990825 L141.497451,146.18714 L124.278163,160.485209 C123.346656,161.25732 123.528392,162.732386 124.618809,163.258507 L152.648329,176.780963 C153.739624,177.306209 155.0109,176.534097 155.04075,175.326031 L155.601762,152.990825 Z" id="Fill-97" fill="#D25BD1"></path>
                    <path d="M146.276938,158.056909 C145.404253,159.531975 143.498217,160.022204 142.018867,159.152047 C140.540394,158.28189 140.047863,156.380499 140.920548,154.905434 C141.794111,153.431244 143.699269,152.941014 145.179497,153.811171 C146.658847,154.682204 147.149623,156.581844 146.276938,158.056909" id="Fill-99" fill="#C837C7"></path>
                    <path d="M148.70676,164.526713 C148.241445,165.312831 147.224776,165.573703 146.435496,165.110611 C145.647094,164.646644 145.385465,163.63292 145.849902,162.845926 C146.315217,162.059808 147.332764,161.798061 148.121165,162.262028 C148.909567,162.725995 149.172075,163.740595 148.70676,164.526713" id="Fill-101" fill="#C837C7"></path>
                    <path d="M143.284699,164.15659 C142.950199,164.722105 142.218865,164.909442 141.652585,164.575911 C141.085428,164.243255 140.896668,163.514039 141.231168,162.948524 C141.565668,162.383885 142.297002,162.195672 142.86416,162.529203 C143.430439,162.861859 143.619199,163.591075 143.284699,164.15659" id="Fill-103" fill="#C837C7"></path>
                    <path d="M135.996111,163.22813 C135.515871,164.039635 134.467595,164.308386 133.654611,163.830412 C132.840749,163.352438 132.571217,162.306324 133.05058,161.495694 C133.529942,160.684189 134.579095,160.414563 135.392957,160.893412 C136.205942,161.372261 136.476351,162.417501 135.996111,163.22813" id="Fill-105" fill="#C837C7"></path>
                    <path d="M147.323809,169.202977 C147.156998,169.484859 146.791769,169.579404 146.507313,169.4122 C146.223734,169.245872 146.129793,168.881702 146.297482,168.598945 C146.464293,168.315312 146.830399,168.222518 147.1131,168.388846 C147.396679,168.55605 147.49062,168.92022 147.323809,169.202977" id="Fill-107" fill="#C837C7"></path>
                    <polygon id="Fill-109" fill="#FFFFFF" points="154.091069 125.286292 164.216498 130.171079 166.156773 125.961233 156.196399 121.156984"></polygon>
                    <path d="M163.507639,127.260254 C163.227572,127.73385 162.615639,127.891424 162.141544,127.611293 C161.666572,127.332913 161.509418,126.722752 161.789485,126.250031 C162.068674,125.776434 162.681485,125.61886 163.15558,125.898116 C163.630552,126.177372 163.786828,126.787532 163.507639,127.260254" id="Fill-111" fill="#FFFFFF"></path>
                    <path d="M165.503576,127.997174 C165.329742,128.290436 164.949588,128.387607 164.654596,128.215151 C164.360482,128.04182 164.262151,127.662767 164.435986,127.36863 C164.60982,127.075367 164.989974,126.977321 165.284966,127.150652 C165.57908,127.323984 165.676533,127.703036 165.503576,127.997174" id="Fill-113" fill="#FFFFFF"></path>
                    <path d="M140.488771,79.2494518 L129.661857,83.7192944 C128.954228,84.0116813 128.142121,83.6772748 127.849763,82.970819 L124.818192,75.6707764 C124.524956,74.9651961 124.861212,74.1563174 125.56972,73.8639305 L136.396633,69.3932125 L140.488771,79.2494518 Z" id="Fill-115" fill="#325F65"></path>
                    <path d="M151.315772,74.7801344 L140.488859,79.2491016 L136.396721,69.3937377 L147.222756,64.9238951 C147.931264,64.6315082 148.742493,64.9667902 149.035729,65.6732459 L152.066422,72.9724131 C152.359658,73.6779934 152.02428,74.4877475 151.315772,74.7801344" id="Fill-117" fill="#FA582C"></path>
                    <polygon id="Fill-119" fill="#FFFFFF" points="140.844605 79.1033459 140.133463 79.3966082 136.040448 69.5403689 136.751589 69.2471066"></polygon>
                    <path d="M72.8050224,190.518857 L55.901798,186.442073 C54.2257862,186.037634 53.1950697,184.354221 53.6006839,182.683063 C54.006298,181.01103 55.6946012,179.983299 57.370613,180.387739 L74.2738374,184.464522 C75.9507272,184.868962 76.9814437,186.552375 76.5758295,188.223532 C76.1702154,189.895565 74.4819122,190.923296 72.8050224,190.518857" id="Fill-121" fill="#FFFFFF"></path>
                    <g id="Group-125" transform="translate(43.019685, 180.334426)">
                        <mask id="mask-3" fill="white">
                            <use xlink:href="#path-2"></use>
                        </mask>
                        <g id="Clip-124"></g>
                        <path d="M15.6908594,64.1315616 L30.1823476,3.87097475 L15.4125484,0.309807541 L0.69279252,60.5143682 C-0.318609055,64.6480534 2.22657598,68.8158797 6.3740248,69.8155977 C10.5214736,70.8161911 14.696139,68.2696239 15.6908594,64.1315616" id="Fill-123" fill="#FFFFFF" mask="url(#mask-3)"></path>
                    </g>
                    <path d="M50.3348752,246.270645 C49.3691272,246.036911 48.5535091,245.444258 48.0372728,244.597737 C47.5201587,243.752091 47.365639,242.75675 47.6018083,241.79555 L62.2179657,181.556849 L69.2231508,183.24639 L54.816824,243.535865 C54.5859224,244.498816 53.9924264,245.312947 53.145202,245.830314 C52.2979776,246.346806 51.3006232,246.503504 50.3348752,246.270645" id="Fill-126" fill="#FFFFFF"></path>
                    <path d="M56.9504248,203.606409 L47.6019839,241.795288 C47.3658146,242.757363 47.5203343,243.751829 48.0374484,244.597474 C48.5536846,245.443996 49.3693028,246.037524 50.3350508,246.270383 C51.2999209,246.503242 52.2981531,246.346543 53.1453776,245.830051 C53.992602,245.31356 54.586098,244.498553 54.8169996,243.535602 L64.0056531,205.308206 L56.9504248,203.606409 Z" id="Fill-128" fill="#4BAEF1"></path>
                    <path d="M70.7652748,186.384646 C70.5229598,187.38524 71.1392827,188.391961 72.1419047,188.633574 C73.1454047,188.876063 74.1541724,188.261525 74.3982433,187.260931 C74.6396803,186.260338 74.0233575,185.253617 73.0207354,185.012004 C72.0181134,184.769515 71.0075898,185.384053 70.7652748,186.384646" id="Fill-130" fill="#FFFFFF"></path>
                    <path d="M69.9121681,185.427998 C69.7892547,185.93311 69.2782862,186.244756 68.7717075,186.122198 C68.2651287,185.999641 67.9534555,185.490152 68.0754909,184.985041 C68.1984043,184.47993 68.7093728,184.169159 69.2159516,184.290841 C69.7225303,184.413398 70.0350815,184.922887 69.9121681,185.427998" id="Fill-132" fill="#FFFFFF"></path>
                    <path d="M35.6231965,102.201647 L35.6231965,102.201647 C36.7057122,103.271398 36.7144917,105.013464 35.6416335,106.092844 L4.72101535,137.224169 C3.64815709,138.303549 1.9010311,138.312303 0.817637402,137.242552 C-0.264878346,136.173677 -0.273657874,134.430736 0.799200394,133.351355 L31.7206965,102.220031 C32.7926768,101.139775 34.5406807,101.131896 35.6231965,102.201647" id="Fill-134" fill="#325F65"></path>
                    <path d="M34.5137276,102.112706 L35.118637,102.709735 L35.7235465,103.305889 L39.5830268,101.006188 L41.177389,97.0510859 L38.3837433,99.8637777 C38.3995465,100.00822 38.3600386,100.157915 38.2485386,100.269968 C38.0536331,100.465184 37.7358142,100.466935 37.5382748,100.272594 C37.3424913,100.078253 37.3407354,99.7613548 37.534763,99.565263 C37.646263,99.4532105 37.795515,99.4120662 37.9412551,99.4269482 L40.7349008,96.6142564 L36.7841134,98.2416433 L34.5137276,102.112706 Z" id="Fill-136" fill="#F0871C"></path>
                    <path d="M31.7092831,102.230711 L35.631976,106.104399 L35.6416335,106.093019 C36.7144917,105.013639 36.7057122,103.270698 35.6231965,102.201822 C34.5406807,101.132071 32.7926768,101.13995 31.7206965,102.220206 L31.7092831,102.230711 Z" id="Fill-138" fill="#26555B"></path>
                    <polygon id="Fill-140" fill="#FAAD3B" points="14.5454823 119.511476 18.4672972 123.384289 20.4198642 121.418119 16.4989272 117.545306"></polygon>
                    <path d="M7.97795669,134.086525 L9.5240315,135.612364 C9.83833858,135.923134 10.3457953,135.920508 10.6574685,135.606236 L24.8162126,121.351938 C24.8162126,121.351938 22.3149252,121.76163 18.4651024,125.637944 C16.6898819,127.425531 15.5125472,128.817433 14.7610197,129.799643 C13.5792953,131.341239 12.3115315,132.811928 10.9410472,134.190698 C10.6723937,134.4612 10.2342953,134.463826 9.96300787,134.195075 C9.73122835,133.966593 9.69435433,133.605925 9.87609055,133.336298 L12.2755354,129.761125 L7.97795669,134.086525 Z" id="Fill-142" fill="#FAAD3B"></path>
                    <path d="M28.9518969,59.4228197 L25.714885,73.1851377 L35.7437394,75.5294852 L38.9789953,61.7759213 C35.4408457,61.832823 32.0045386,60.9941803 28.9518969,59.4228197" id="Fill-144" fill="#26555B"></path>
                    <path d="M56.7377846,51.6082111 C54.9590524,54.5382079 52.4683004,57.0436308 49.4209264,58.838221 L59.388324,68.8800472 L66.7086941,61.6552898 L56.7377846,51.6082111 Z" id="Fill-146" fill="#26555B"></path>
                    <path d="M12.5888768,48.0125528 C16.6485303,62.3640216 31.6070894,70.7163069 46.0002469,66.6684118 C60.3916484,62.6205167 68.7681957,47.7044085 64.7085421,33.3546905 C60.6488886,19.0032216 45.6912075,10.6509364 31.298928,14.6988315 C16.9057705,18.7467266 8.53010118,33.6619593 12.5888768,48.0125528" id="Fill-148" fill="#FA582C"></path>
                    <path d="M18.2638756,16.2853367 C20.5658677,11.078399 24.1760094,7.36403508 28.8519858,6.04916951 C33.5262063,4.73430393 38.5507299,6.01940557 43.2433874,9.26017279 L45.9624071,4.86561541 C40.2425449,1.91460885 33.9485016,0.985799016 27.901163,2.68759574 C21.8520685,4.38851705 16.9724071,8.45917279 13.6423323,13.9558711 L18.2638756,16.2853367 Z" id="Fill-150" fill="#26555B"></path>
                    <path d="M59.0080827,34.9574784 C62.179248,46.1688521 55.6358661,57.820557 44.3919252,60.9834128 C33.1479843,64.1462685 21.4615551,57.6209636 18.2903898,46.4095898 C15.1192244,35.1973407 21.6626063,23.5456357 32.9065472,20.3836554 C44.1504882,17.2207997 55.8369173,23.7461046 59.0080827,34.9574784" id="Fill-152" fill="#BE3E20"></path>
                    <path d="M57.6457634,35.3404702 C60.6053421,45.8016177 54.4991807,56.6742079 44.0076453,59.6252144 C33.5161098,62.5753456 22.6119366,56.4868702 19.6532358,46.026598 C16.6927791,35.5654505 22.7998185,24.6928603 33.2913539,21.7418538 C43.7820114,18.7908472 54.6861846,24.8793226 57.6457634,35.3404702" id="Fill-154" fill="#FFFFFF"></path>
                    <path d="M48.0980272,39.6269144 L39.0682831,42.1664784 C38.2465193,42.3975866 37.3940272,41.9204882 37.1622476,41.10198 L33.5626413,28.3805243 C33.3317398,27.5620161 33.810224,26.7111177 34.6311098,26.4791341 C35.4528736,26.2489013 36.3053657,26.7259997 36.5380232,27.5445079 L39.7162122,38.7821439 L47.2595823,36.6610259 C48.0804681,36.4299177 48.9338382,36.9070161 49.1656177,37.7255243 C49.3973972,38.5449079 48.9197909,39.3958062 48.0980272,39.6269144" id="Fill-156" fill="#BE3E20"></path>
                    <path d="M26.7038988,12.5110072 C24.2386075,8.94021049 19.6916902,7.14737115 15.2738319,8.3895777 C9.72429252,9.95043344 6.49430433,15.7018761 8.06057205,21.2353416 C8.66372559,23.3687154 9.89549331,25.1528007 11.4960012,26.4571613 C14.7180878,20.3468007 19.99195,15.3307023 26.7038988,12.5110072" id="Fill-158" fill="#325F65"></path>
                    <path d="M34.0695713,10.4396125 C34.2995949,6.11071082 37.2363469,2.21251082 41.6542051,0.970304262 C47.2037445,-0.590551475 52.9710161,2.63008131 54.5364059,8.16354689 C55.1404374,10.2969207 55.0245476,12.4609338 54.3450122,14.4060944 C48.3951264,10.8746911 41.2687839,9.34622557 34.0695713,10.4396125" id="Fill-160" fill="#325F65"></path>
                    <polygon id="Fill-162" fill="#D8D8D8" points="140.795703 213.397518 140.846624 233.008449 195.820514 179.789659"></polygon>
                    <polygon id="Fill-164" fill="#FFFFFF" points="144.969403 217.179551 162.438029 233.008711 195.820426 179.789921"></polygon>
                    <polygon id="Fill-166" fill="#FFFFFF" points="140.795703 213.397518 195.820514 179.789659 124.992554 199.077564"></polygon>
                    <polygon id="Fill-168" fill="#BEBEBE" points="144.969403 217.179551 140.846537 233.008711 151.892938 223.452738"></polygon>
                    <path d="M75.3025346,89.7227675 L57.0674559,95.4120561 C55.2588732,95.9775708 53.3335228,94.9717249 52.7672433,93.1692561 C52.2018417,91.3650364 53.2088535,89.446138 55.0183142,88.8806233 L73.252515,83.1913348 C75.0619756,82.6275708 76.986448,83.6316659 77.5527276,85.4358856 C78.1190071,87.2392298 77.1111173,89.1581282 75.3025346,89.7227675" id="Fill-170" fill="#FFFFFF"></path>
                    <path d="M81.0126516,111.363511 L74.1523287,90.081423 L58.2183642,95.0528754 L64.7476988,116.439138 C55.7539508,122.95919 51.4853445,134.692308 54.9892539,145.859036 C59.3842854,159.862092 74.3323091,167.662869 88.3769193,163.280567 C102.42153,158.899141 110.244089,143.993538 105.849057,129.989607 C102.345148,118.822879 92.1284114,111.609502 81.0126516,111.363511" id="Fill-172" fill="#FFFFFF"></path>
                    <path d="M87.0631508,159.095583 C75.3556508,162.748668 62.8500917,156.223363 59.1863949,144.549773 C56.3339264,135.458642 59.6086902,125.587521 67.3329185,119.984898 L69.8658122,118.149163 L60.3777768,87.208678 L67.9817256,84.8363174 L77.7849461,115.678757 L80.9148476,115.747039 C90.4652177,115.959763 98.7987453,122.208439 101.652092,131.29957 C105.315789,142.97316 98.7715287,155.442498 87.0631508,159.095583" id="Fill-174" fill="#FFFFFF"></path>
                    <polyline id="Fill-176" fill="#FFFFFF" points="56.1899421 88.5156649 58.1881626 95.0628551 74.1870957 90.0703928 72.0861547 83.5555928"></polyline>
                    <path d="M58.2047559,138.92439 C58.2899173,140.803019 58.6033465,142.693029 59.1863071,144.549773 C62.8500039,156.223363 75.355563,162.748668 87.063063,159.095583 C98.7714409,155.442498 105.315701,142.97316 101.652004,131.29957 C101.069043,129.442826 100.24728,127.71214 99.2429016,126.118894 L58.2047559,138.92439 Z" id="Fill-178" fill="#FA582C"></path>
                    <path d="M87.357265,120.02184 C87.8366272,121.548555 86.9832571,123.174191 85.4521075,123.651289 C83.9200799,124.129263 82.2905996,123.27924 81.8112374,121.752525 C81.3318752,120.224935 82.1843673,118.599299 83.7163949,118.122201 C85.2484224,117.644227 86.8779028,118.49425 87.357265,120.02184" id="Fill-180" fill="#325F65"></path>
                    <path d="M89.589811,123.184083 C89.8417835,123.987709 90.6995433,124.435044 91.5055039,124.183801 C92.3114646,123.931683 92.7592205,123.077283 92.507248,122.273657 C92.2552756,121.470906 91.3983937,121.022696 90.5924331,121.273939 C89.7864724,121.526057 89.3378386,122.381332 89.589811,123.184083" id="Fill-182" fill="#325F65"></path>
                    <path d="M72.1645559,86.3536652 C72.4296976,87.1975603 73.3304772,87.6676554 74.1768236,87.4032816 C75.0231701,87.1389079 75.4946307,86.2416128 75.229489,85.3977177 C74.9643472,84.5538226 74.0635677,84.0837275 73.2172213,84.3481013 C72.3708748,84.6124751 71.9002921,85.5097702 72.1645559,86.3536652" id="Fill-184" fill="#FFFFFF"></path>
                    <path d="M69.2923335,86.9307354 C69.4257823,87.35706 69.1878571,87.8113977 68.7602941,87.94446 C68.3318531,88.0783977 67.8770736,87.8411616 67.7427469,87.414837 C67.609298,86.987637 67.8472232,86.5341748 68.2756642,86.4011125 C68.7032272,86.2671748 69.1588846,86.5052862 69.2923335,86.9307354" id="Fill-186" fill="#FFFFFF"></path>
                    <path d="M76.796898,140.706811 C77.6414886,141.982284 77.2894295,143.698962 76.0093744,144.541982 C74.7301972,145.384126 73.0085319,145.032211 72.1630634,143.755864 C71.3184728,142.480392 71.6705319,140.763713 72.950587,139.921569 C74.2297642,139.079425 75.9514295,139.430464 76.796898,140.706811" id="Fill-188" fill="#E6492C"></path>
                    <path d="M88.1777118,143.701501 C89.6561843,145.933796 89.0389835,148.936452 86.8010819,150.409767 C84.5631803,151.883081 81.5509244,151.268544 80.0733299,149.037124 C78.5957354,146.804829 79.2120583,143.801298 81.4499598,142.328858 C83.6887394,140.855544 86.7001173,141.470081 88.1777118,143.701501" id="Fill-190" fill="#E6492C"></path>
                    <path d="M91.7521209,133.74634 C92.2104122,134.43879 92.0198965,135.371101 91.3254358,135.828065 C90.6309752,136.285029 89.6959555,136.095065 89.2376642,135.402616 C88.7784949,134.710167 88.9698886,133.777855 89.6643492,133.320891 C90.3588098,132.863052 91.2947075,133.053891 91.7521209,133.74634" id="Fill-192" fill="#E6492C"></path>
                </g>
                <text id="a2-–-b2-=-(a-–" font-family="KGNoRegretsSketch, KG No Regrets Sketch" font-size="13.9064" font-weight="normal" fill="#FFFFFF">
                    <tspan x="106.373458" y="118.878479">a2 </tspan>
                    <tspan x="125.467597" y="118.878479" font-family="MyriadPro-Regular, Myriad Pro">–</tspan>
                    <tspan x="132.420797" y="118.878479"> b2 = (a </tspan>
                    <tspan x="106.373458" y="138.659765" font-family="MyriadPro-Regular, Myriad Pro">–</tspan>
                </text>
                <g id="Group-196" transform="translate(173.834646, 99.192095)">
                    <mask id="mask-5" fill="white">
                        <use xlink:href="#path-4"></use>
                    </mask>
                    <g id="Clip-195"></g>
                    <text id="-b)(a-+-b)" mask="url(#mask-5)" font-family="KGNoRegretsSketch, KG No Regrets Sketch" font-size="13.9064" font-weight="normal" fill="#FFFFFF">
                        <tspan x="0.0870051181" y="30.0641396"> b)(a + </tspan>
                        <tspan x="0.0870051181" y="47.0641396">b)</tspan>
                    </text>
                </g>
                <text id="a+b" font-family="KGNoRegretsSketch, KG No Regrets Sketch" font-size="11.6754" font-weight="normal" fill="#FFFFFF">
                    <tspan x="122.043861" y="134.220106">a+</tspan>
                    <tspan x="122.043861" y="149.220106">b</tspan>
                </text>
                <text id="Celcius-" font-family="KGNoRegretsSketch, KG No Regrets Sketch" font-size="15.712" font-weight="normal" fill="#FFFFFF">
                    <tspan x="81.6588248" y="237.124385">C</tspan>
                    <tspan x="92.9978561" y="237.124385" letter-spacing="-0.26813986">e</tspan>
                    <tspan x="100.156091" y="237.124385" letter-spacing="-0.26187491">l</tspan>
                    <tspan x="104.45131" y="237.124385">c</tspan>
                    <tspan x="112.276623" y="237.124385" letter-spacing="-0.26062192">i</tspan>
                    <tspan x="116.511719" y="237.124385">u</tspan>
                    <tspan x="81.6588248" y="257.124385">s </tspan>
                </text>
                <text id="2+3=5" font-family="KGNoRegretsSketch, KG No Regrets Sketch" font-size="14.437" font-weight="normal" fill="#FFFFFF">
                    <tspan x="104.24056" y="31.5433696">2+3=</tspan>
                    <tspan x="104.24056" y="50.5433696">5</tspan>
                </text>
                <text id="x" font-family="KGNoRegretsSketch, KG No Regrets Sketch" font-size="14.3036" font-weight="normal" fill="#FFFFFF">
                    <tspan x="92.9252413" y="217.9125">x</tspan>
                </text>
                <text id="2" font-family="KGNoRegretsSketch, KG No Regrets Sketch" font-size="6.8253" font-weight="normal" fill="#FFFFFF">
                    <tspan x="98.3562571" y="215.583029">2</tspan>
                </text>
                <text id="Cos" font-family="KGNoRegretsSketch, KG No Regrets Sketch" font-size="12.5742" font-weight="normal" fill="#FFFFFF">
                    <tspan x="186.101577" y="231.223855">Co</tspan>
                    <tspan x="186.101577" y="247.223855">s</tspan>
                </text>
                <text id="Tan" font-family="KGNoRegretsSketch, KG No Regrets Sketch" font-size="7.7412" font-weight="normal" letter-spacing="-0.041" fill="#FFFFFF">
                    <tspan x="15.0870035" y="8.07562032">T</tspan>
                    <tspan x="20.0052098" y="8.07562032" letter-spacing="0.47077024">a</tspan>
                    <tspan x="15.0870035" y="18.0756203">n</tspan>
                </text>
            </g>
        </g>
    </g>
</svg>