<?xml version="1.0" encoding="UTF-8"?>
<svg width="1920px" height="1080px" viewBox="0 0 1920 1080" version="1.1" xmlns="http://www.w3.org/2000/svg" xmlns:xlink="http://www.w3.org/1999/xlink">
    <!-- Generator: Sketch 47.1 (45422) - http://www.bohemiancoding.com/sketch -->
    <title>Desktop HD-Occupied-main-BG</title>
    <desc>Created with Sketch.</desc>
    <defs>
        <filter x="-5.7%" y="-4.5%" width="111.4%" height="118.1%" filterUnits="objectBoundingBox" id="filter-1">
            <feOffset dx="0" dy="35" in="SourceAlpha" result="shadowOffsetOuter1"></feOffset>
            <feGaussianBlur stdDeviation="3" in="shadowOffsetOuter1" result="shadowBlurOuter1"></feGaussianBlur>
            <feColorMatrix values="0 0 0 0 0   0 0 0 0 0   0 0 0 0 0  0 0 0 0.153108016 0" type="matrix" in="shadowBlurOuter1" result="shadowMatrixOuter1"></feColorMatrix>
            <feMerge>
                <feMergeNode in="shadowMatrixOuter1"></feMergeNode>
                <feMergeNode in="SourceGraphic"></feMergeNode>
            </feMerge>
        </filter>
        <polygon id="path-2" points="0.0285153846 0.9 10.1874385 0.9 10.1874385 1.89972481 0.0285153846 1.89972481"></polygon>
        <polygon id="path-4" points="465.71961 0.611241316 465.71961 448.038465 0.000631864407 448.038465 0.000631864407 0.611241316"></polygon>
    </defs>
    <g id="-" stroke="none" stroke-width="1" fill="none" fill-rule="evenodd">
        <g id="Desktop-HD-Occupied-main-BG">
            <g id="3-0" transform="translate(1435.000000, 75.000000)">
                <g id="earth" filter="url(#filter-1)">
                    <path d="M174,7 C175.337838,6.65408253 176.670608,6.32309043 178,6 C176.659628,6.30114135 175.325169,6.6286216 174,7" id="Fill-1" fill="#84D3ED"></path>
                    <path d="M187,5 C184.029725,5.60750853 181.026114,6.27645051 178,7 C178.725067,6.8387372 179.448467,6.67832765 180.173535,6.51535836 L187,5 Z" id="Fill-3" fill="#84D3ED"></path>
                    <path d="M173.4,7.147 C173.267,7.184 173.133,7.218 173,7.254 C173.329,7.171 173.658,7.082 173.987,7 C173.792,7.053 173.594,7.092 173.4,7.147" id="Fill-5" fill="#84D3ED"></path>
                    <path d="M182.435383,6.13805628 C183.421298,5.68664937 186.048029,5.00019956 188.964595,4.54645779 C191.871658,4.04212732 195.021835,3.51444821 197,3 C193.657392,3.46775095 190.458118,3.91370984 187.334866,4.34955099 C184.217949,4.83364598 181.209523,5.49207743 178.193969,6.06411894 C175.165745,6.6011375 172.208,7.3965476 169.179777,8.15926961 C167.889772,8.48926362 166.580762,8.82470565 165.263833,9.16170425 C167.628445,8.51806027 170.004936,7.91722211 172.373507,7.28525244 C169.82755,7.91722211 167.268131,8.58732788 164.700001,9.30646578 C164.662781,9.31580523 164.626354,9.32514468 164.589135,9.33448413 C164.425212,9.37962483 164.259705,9.43410497 164.096573,9.48002395 C163.922355,9.52905608 163.748137,9.58120136 163.574711,9.63023349 C163.645191,9.609998 163.71567,9.5913191 163.786149,9.5718619 C163.291211,9.71506685 162.797858,9.85515865 162.301337,10.0100379 C162.489017,9.95322291 162.672738,9.89173818 162.859626,9.83570146 C159.319835,10.8544801 155.768166,11.9456396 152.217288,13.1356416 C140.950933,16.9453602 129.787525,21.8174416 119.136476,27.4646977 C117.190779,28.5021553 115.253,29.4119737 113.274043,30.3046697 C111.322803,31.2456196 109.366019,32.2387148 107.30708,33.2855119 C103.148816,35.3121732 98.8733499,38.0828777 94,42 C107.109897,33.2956296 121.3435,25.9034524 136.221709,19.9051886 C151.105461,13.9061465 166.644906,9.32514468 182.435383,6.13805628" id="Fill-7" fill="#84D3ED"></path>
                    <g id="Group-11" transform="translate(223.000000, 0.000000)">
                        <mask id="mask-3" fill="white">
                            <use xlink:href="#path-2"></use>
                        </mask>
                        <g id="Clip-10"></g>
                        <path d="M0.0285153846,1.2109 C3.35897692,1.1069 6.72666923,1.0049 10.1874385,0.8999 C7.06259231,0.8939 3.57220769,1.0429 0.0285153846,1.2109" id="Fill-9" fill="#84D3ED" mask="url(#mask-3)"></path>
                    </g>
                    <path d="M85,53 C71.9828253,62.6280358 60.0557017,75.3393159 50,88 C59.3052762,76.3784806 69.6619217,65.9689307 80.7357264,56.7876968 C82.1878385,55.522796 83.6035897,54.267236 85,53" id="Fill-12" fill="#84D3ED"></path>
                    <path d="M99,45 C111.574281,36.3471923 124.856069,29.2693846 138,24 C124.805363,29.1474231 111.285099,36.3512308 99,45" id="Fill-14" fill="#84D3ED"></path>
                    <path d="M17.9889155,196.676236 C17.9700419,197.665961 17.851408,198.676272 17.8100659,199.567817 C17.7804074,200.460153 17.7453565,201.228972 17.7588376,201.72621 C17.3696824,204.900457 17.009287,207.831627 16.6632714,210.640863 C16.4358898,213.464351 16.2174955,216.166697 16,218.870627 C16.0790893,219.855601 16.4511684,221.708367 16.570701,223.797875 C16.6201318,225.897676 16.6686639,227.959472 16.7162972,229.99118 C16.7549431,231.008618 16.7549431,232.018929 16.8304374,233.018156 C16.9239065,234.017382 17.0173757,235.011067 17.1099461,236 C16.1806471,221.236466 16.8582984,206.867239 19,193 C18.6737567,194.301687 18.3367286,195.536072 17.9889155,196.676236" id="Fill-16" fill="#84D3ED"></path>
                    <path d="M37.8132696,128.17786 C37.2300449,129.646208 36.5567869,131.246098 35.8142112,132.946624 C35.4373461,133.79451 35.0485296,134.67013 34.6493554,135.567939 C34.2477908,136.465747 33.807982,137.375441 33.4494423,138.341397 C32.6765899,140.251121 31.8710705,142.238502 31.0488194,144.267089 C30.643271,145.28376 30.1875272,146.293299 29.8058815,147.339289 C29.4337969,148.387656 29.0601188,149.443155 28.6840504,150.498654 C27.9319137,152.612822 27.1749964,154.733329 26.4300304,156.824517 C25.7997972,158.955326 25.179125,161.054438 24.5783717,163.087779 C23.9792119,165.12429 23.3816457,167.088691 23,169 L23.0493988,168.988906 C23.552948,166.610864 24.3305809,164.31444 24.9887006,161.989489 L26.008547,158.516327 L26.5168767,156.780934 L27.114443,155.076446 C27.911198,152.806172 28.7079531,150.539068 29.5015211,148.27751 C29.8751992,147.134845 30.3389106,146.030216 30.7986383,144.92321 L32.1642764,141.599815 C33.8749095,137.12583 36.0699696,132.873722 38.0730117,128.539995 C39.1550051,126.412356 40.323048,124.3283 41.4432855,122.218886 L43.1403738,119.063483 L45,116 C42.908518,118.97394 41.197885,121.851997 39.4553817,124.293433 C39.0227437,125.44006 38.4387223,126.7317 37.8132696,128.17786" id="Fill-18" fill="#84D3ED"></path>
                    <path d="M94.8914708,48.6622677 C92.9279087,50.1125198 90.9337517,51.5198695 89,53 C97.9156545,46.4336447 107.263559,40.5537268 116.938594,35.3349644 C119.387751,34.0862001 121.834555,32.838968 124.27979,31.5909698 C126.733654,30.3644227 129.269105,29.3002916 131.755917,28.1480575 C133.009522,27.5933917 134.240377,26.9896945 135.51124,26.4756327 L139.331674,24.953366 L143.148186,23.4280348 C143.785187,23.1782819 144.415127,22.9101423 145.058403,22.6741795 L147,22 C135.781102,25.6765767 124.378635,30.6363928 113.355858,36.7269919 L107.042335,40.4709866 C104.973652,41.7733788 102.952823,43.1516163 100.90689,44.4861853 L97.8474044,46.5041271 L94.8914708,48.6622677 Z" id="Fill-20" fill="#84D3ED"></path>
                    <path d="M63.1235099,89.4788696 C64.4062927,87.984087 65.6140317,86.4188696 67,85 C65.5616572,86.368 64.2898183,87.8807826 62.949189,89.323913 C61.6257573,90.7889565 60.3077975,92.2469565 59,93.6947826 C59.1571233,93.7182609 59.6957201,93.3441739 59.3322259,94 C60.5939027,92.4966087 61.8571429,90.990087 63.1235099,89.4788696" id="Fill-22" fill="#84D3ED"></path>
                    <path d="M86.4510618,67.4457731 C86.9536125,66.9452169 87.4839245,66.483871 88,66 C87.4711116,66.4254727 86.9671373,66.8083982 86.5023134,67.1504449 C86.0531498,67.5133482 85.638154,67.8278643 85.2623087,68.0806452 C84.19599,69.4221357 83.1132993,70.7177419 82,72 C82.9858821,70.9913793 83.9746115,69.9802558 84.9647645,68.9682981 L86.4510618,67.4457731 Z" id="Fill-24" fill="#84D3ED"></path>
                    <path d="M234.681,6 C234.487,6.055 234.258,6.12 234,6.191 C234.084,6.204 234.18,6.213 234.233,6.234 C234.506,6.134 234.637,6.06 234.681,6" id="Fill-26" fill="#84D3ED"></path>
                    <path d="M235,5 C234.7028,5.083 234.36766,5.173 234,5.272 L234.018067,5.272 C234.393857,5.172 234.722674,5.082 235,5" id="Fill-28" fill="#84D3ED"></path>
                    <path d="M235.669578,5.04483725 C235.78332,5.08683725 235.510052,5.22083725 235,5.40983725 C235.922816,5.08683725 236.342017,4.91183725 235.669578,5.04483725" id="Fill-30" fill="#84D3ED"></path>
                    <path d="M171.527134,434.023778 C172.875257,434.196808 176.270402,435.157426 178.600067,435.679075 C179.759761,435.955242 180.671072,436.074574 180.928877,435.951833 C181.187538,435.820568 180.759291,435.532468 179.337509,434.738914 C177.736721,434.164418 176.22929,433.727154 174.297038,433.110892 C172.366499,432.488664 169.983731,431.748809 166.772732,430.252904 C164.670038,429.703127 164.609227,430.104592 165.697831,430.928832 C166.796714,431.725795 168.994479,433.068274 171.527134,434.023778" id="Fill-32" fill="#84D3ED"></path>
                    <g id="Group-36" transform="translate(0.000000, 5.000000)">
                        <mask id="mask-5" fill="white">
                            <use xlink:href="#path-4"></use>
                        </mask>
                        <g id="Clip-35"></g>
                        <path d="M435.155381,312.466577 C434.570906,313.585095 434.014076,314.71308 433.48173,315.842642 C432.950174,316.972993 432.461269,318.114386 431.900489,319.205297 C430.82474,321.408416 429.843771,323.589449 428.952052,325.682136 C428.525544,326.740706 428.034269,327.729073 427.587225,328.698508 C427.142551,329.671888 426.713673,330.609771 426.30691,331.50506 C425.483906,333.29327 424.810181,334.962371 424.119079,336.333306 C421.22593,341.036133 418.759289,343.431719 420.422673,340.149522 L418.230103,343.323654 L415.889045,346.394453 L413.558256,349.467619 L412.397205,351.006568 L411.16112,352.487935 L406.236527,358.425235 L401.0505,364.132204 C394.002842,371.613975 386.531045,378.685569 378.537961,385.119024 C370.503805,391.497263 362.077893,397.346217 353.304456,402.595682 C344.450456,407.707108 335.316856,412.271895 325.937618,416.169357 C323.947245,416.761746 321.986096,417.35729 320.062069,418.006473 C318.130934,418.63988 316.256666,419.372675 314.3279,419.924046 C310.498012,421.095415 306.773961,422.469505 302.935384,423.423164 C301.026364,423.93904 299.120503,424.459648 297.205164,424.937661 C295.26692,425.327328 293.322357,425.693331 291.367527,426.022261 C287.474452,426.770833 283.450266,426.934903 279.402384,426.993274 L282.106764,426.979076 C282.528534,427.168388 280.508147,427.61406 278.917428,427.993473 C281.617859,428.017137 284.247995,428.059732 286.78651,428.124414 C284.388584,428.428891 281.98513,428.745988 279.593523,429.090694 C278.3993,429.290261 277.195598,429.384128 275.996635,429.513491 C274.800042,429.650742 273.607398,429.787205 272.419493,429.923667 C271.147076,430.501069 268.803649,431.061906 265.873378,431.311956 C262.947056,431.580937 259.467852,431.950884 255.924673,431.935108 C254.157032,431.972181 252.375964,432.010044 250.647025,432.047117 C249.782161,432.08498 248.929934,432.082613 248.097452,432.061316 C247.26734,432.058161 246.456184,432.055794 245.675042,432.053428 C242.545734,432.047117 239.85952,432.27587 238.124262,432.52513 C234.776961,432.180425 232.024401,431.921698 229.727574,431.621165 C227.437066,431.252007 225.592022,430.935698 224.043954,430.65804 C222.497466,430.365395 221.240056,430.16504 220.145351,429.88265 C219.240205,429.642066 218.436157,429.428301 217.643167,429.21848 C221.447781,429.42199 225.276879,429.531633 229.132042,429.531633 C257.306086,429.531633 284.181649,423.991889 308.743008,413.963872 C323.211913,409.971754 337.315917,404.325521 350.717761,397.086701 C364.854147,388.596056 379.666628,378.415799 392.1033,366.581429 C395.351083,363.303175 398.771049,360.069094 401.858496,356.507661 L404.224828,353.888056 C405.016239,353.018009 405.8037,352.147173 406.531134,351.225855 C408.013645,349.408459 409.487469,347.598951 410.950235,345.806008 L412.040991,344.461893 L413.062242,343.075182 C413.740706,342.151497 414.415222,341.2357 415.086578,340.323058 C415.752405,339.412782 416.416652,338.508028 417.073001,337.609585 C417.400781,337.162335 417.726981,336.712719 418.050812,336.267836 C418.354896,335.807176 418.658191,335.348883 418.958327,334.892957 C421.351513,331.233712 423.729693,327.776401 425.646612,324.330921 C426.572293,322.69495 427.497184,321.367399 428.433134,320.122672 C429.386459,318.891355 430.217361,317.661615 431.139093,316.338008 C432.112164,314.568729 433.101822,312.711894 434.095428,310.792743 C434.696489,310.675211 435.686937,309.970024 435.155381,312.466577 M27.3129708,111.381672 L24.9016183,115.962235 C24.7594488,116.243048 24.609381,116.519917 24.4608929,116.797575 C25.3921031,114.96598 26.3462183,113.164361 27.3129708,111.381672 M34.7902963,98.53606 C33.5865946,100.410249 32.4958386,102.35622 31.3450556,104.261961 L30.2408725,106.127474 C31.7297031,103.538631 33.2469675,101.004216 34.7902963,98.53606 M233.433459,1.8188945 C233.644344,1.76131209 233.841012,1.70688487 234.022673,1.65640165 C233.239951,1.53650401 230.834127,1.8054849 229.483517,1.93563694 C229.486676,2.13441461 229.982689,2.1194274 229.952676,2.21408343 C229.531696,2.32372667 228.942483,2.4270595 228.351689,2.52329313 C228.146334,2.54932354 227.954405,2.57772035 227.754578,2.60611716 L227.390466,2.59744035 C226.979754,2.67632038 226.520862,2.7378468 226.107781,2.79621802 C225.793428,2.81120522 225.509089,2.80252842 225.27293,2.7496788 C225.570696,2.64871237 226.248371,2.64003557 226.725428,2.60848356 C225.663896,2.68105318 228.414876,2.00978417 231.154798,1.35744636 C232.345862,1.42291678 234.756425,1.23675992 234.559757,1.5057408 C234.711405,1.46156799 234.833039,1.42607198 234.922289,1.39767517 C235.017859,1.40161917 235.131595,1.40635197 235.248489,1.41187357 C235.516242,1.41897278 235.788734,1.44421438 235.788734,1.44421438 C235.279293,1.56095682 234.373357,1.71004007 233.433459,1.8188945 M228.742656,3.51087105 C227.940978,3.56529827 228.139225,3.41384862 228.819269,3.17010934 C229.006459,3.28448537 228.995401,3.41227102 228.742656,3.51087105 M465.711554,239.781 C465.675222,237.592079 465.533052,235.735243 465.236076,234.431356 C464.373581,239.288788 463.714073,239.582222 463.126439,241.171655 C463.021391,239.231995 462.848418,238.098489 462.694401,236.847452 C462.526957,235.596414 462.459822,234.227846 462.289218,231.822794 C462.221293,230.057459 462.176273,228.253473 462.159686,226.537832 C462.159686,225.680406 462.159686,224.845067 462.160476,224.04759 C462.167584,223.250113 462.120984,222.493653 462.120984,221.789255 C462.090181,218.977182 462.246567,217.028056 462.696771,216.994138 C462.989798,218.918811 463.126439,220.934984 463.227537,222.908562 C463.301781,224.886085 463.227537,226.824167 463.312049,228.598179 C463.814381,229.241051 464.079764,226.406891 464.127944,222.875433 C464.074235,219.350284 463.897313,215.130992 463.898893,213.012274 C463.466856,214.923537 462.974791,215.11916 462.505632,214.668755 C462.039632,214.215984 461.58074,213.114818 461.121059,212.413575 C460.1859,211.003989 459.805991,211.162538 459.680408,221.035951 C459.680408,221.035951 459.380273,218.352452 459.080927,215.667376 C459.005103,214.997685 458.930859,214.326416 458.861354,213.697742 C458.760256,213.073801 458.668635,212.4893 458.588073,211.990778 C458.426947,210.990579 458.31953,210.325621 458.31953,210.325621 C458.014656,209.518678 457.795873,209.24102 457.639486,209.35934 C457.225615,201.438997 456.495022,195.161725 456.546361,194.141806 C456.448422,193.27097 456.343374,192.370161 456.236747,191.448842 C454.972228,173.730811 451.933751,155.264208 446.606344,140.770792 C445.239937,137.706303 443.445442,134.372833 442.034015,131.921242 C441.305791,129.287438 440.593364,129.02319 439.275927,126.039947 C438.758588,124.003265 438.199388,122.207167 437.67573,120.728955 C437.415876,119.98906 437.16313,119.329623 436.927761,118.757743 C436.675805,118.195329 436.430167,117.72757 436.224812,117.348946 C435.39233,115.839971 435.061391,115.850226 435.81094,117.869554 C434.112805,114.903665 432.572635,111.851008 430.939266,108.959267 C429.247449,106.099866 427.651991,103.292525 426.054164,100.717093 C424.410527,98.4343047 422.777157,96.166504 421.119303,93.8647849 C420.420303,92.8858838 419.880849,92.1223251 419.487513,91.4376465 C419.093388,90.7506015 418.838273,90.1479581 418.631337,89.5516251 C416.726266,87.1221203 416.118886,86.222888 415.526513,85.2597629 C414.954676,84.284017 414.313334,83.3114263 412.345866,80.7399375 C412.206856,80.3502701 411.456517,79.3966106 410.395774,78.1660822 C409.866588,77.5492404 409.261578,76.8614066 408.609967,76.145176 C407.922815,75.4597086 407.19933,74.7355899 406.475056,74.0091049 C405.018608,72.5703332 403.557422,71.1252512 402.378995,69.9601932 C401.229791,68.7714712 400.263039,67.9558517 399.988178,67.5890596 L400.782747,68.2879367 C398.196842,65.5989166 396.268076,63.1378598 394.242951,60.7817134 C392.164117,58.4823607 390.116086,56.1561888 387.410127,53.6769896 C379.871984,46.8033842 371.328388,40.3502093 362.542313,34.6243082 C360.314991,33.2423302 358.096357,31.8642962 355.895889,30.5012493 C353.678045,29.1681769 351.404123,27.9723557 349.200496,26.7205297 C348.090784,26.1099983 347.003978,25.4742253 345.897425,24.8944571 C344.778235,24.3351977 343.670103,23.7790936 342.569869,23.228511 C340.363083,22.146277 338.238439,20.9851631 336.085361,20.0094171 C335.699134,20.3935629 339.903401,21.6942945 339.76913,22.4767843 C329.815686,17.5452052 319.600018,12.7248468 308.82673,9.33142812 C306.922449,8.61519749 304.589289,7.70413319 303.741801,7.27818106 C300.309988,6.11706708 301.615578,6.97370416 299.08654,6.20462391 L298.864598,5.61539012 C294.993639,5.16892918 293.463737,3.83112395 289.849473,3.24189016 C289.620422,3.39649501 288.315622,3.12830292 287.037676,2.91690446 C287.073218,2.37420988 283.094052,2.28034265 283.363384,1.82520491 L283.321523,1.85912332 C282.548279,1.71871687 281.996978,1.65955685 281.064978,1.40714077 C280.692178,1.38663197 279.539815,1.32668315 277.995696,1.24464792 C276.449998,1.22808311 274.510964,1.20836311 272.57272,1.1870655 C270.636845,1.1775999 268.712028,1.13263828 267.171069,1.16576789 C265.625371,1.23202712 264.473798,1.28724313 264.097049,1.31958394 L263.407527,1.1807551 C261.34212,1.05375826 260.437764,1.39451997 261.632778,1.57436643 L259.095842,1.36691196 L259.392028,1.35034715 L256.86773,1.15235829 C256.40252,1.09477587 255.885181,0.832894188 256.614984,0.611241316 C255.170384,0.770578967 253.555971,0.84157099 252.122428,0.717729351 C253.116035,0.823428584 254.172039,0.937804621 255.260425,1.05375826 C255.803828,1.11449588 256.35513,1.1775999 256.911961,1.24070392 C257.464842,1.33220475 258.024042,1.42607198 258.584822,1.51915041 C260.823991,1.90092973 263.075798,2.31347226 265.124618,2.7299588 C263.407527,2.79621802 260.354832,2.29532986 258.505049,2.22670424 C257.414293,1.94115854 255.731164,1.74395848 253.878222,1.56411202 C252.02212,1.39451997 249.999364,1.20678551 248.229354,1.04508146 C247.449791,1.08215507 246.915866,1.60355204 245.150595,1.41423997 C244.281781,1.02457265 243.157062,1.4915424 241.682449,1.23597112 C243.363208,0.970145432 245.020273,0.991443038 246.731835,0.998542241 C246.435649,0.478722874 242.557581,0.783199772 241.197493,0.677500538 C240.568788,0.861290997 237.24913,0.77767817 235.179774,1.01905105 C235.753981,0.660935732 234.848045,0.701164545 233.8031,0.729561354 C233.634866,0.769001367 233.455574,0.81080778 233.269964,0.854191794 C233.448466,0.81080778 233.620649,0.769790167 233.787303,0.729561354 C233.24232,0.743759759 232.663374,0.753225362 232.237656,0.701164545 C230.830178,0.760324564 229.950306,1.02220625 230.533201,1.14210389 C230.442371,1.26200153 230.669842,1.32037274 231.045801,1.34876955 C227.770374,2.06105618 223.988666,2.83644683 224.8093,2.78044201 C225.253974,2.78990762 225.291096,2.86168844 225.204215,2.95003407 C225.020184,2.99657328 224.930144,3.0494229 224.983852,3.11094932 C224.791923,3.23873496 224.660812,3.3538998 225.284778,3.34601179 L225.842398,3.17010934 C228.801893,2.98868528 227.6985,3.74277832 226.589578,4.51974657 C225.404042,5.34798684 224.213767,6.20462391 227.810656,5.98849264 C224.733476,5.62801093 228.765561,5.28093882 231.929622,4.95043151 C232.251873,5.13658837 233.683045,5.31327963 235.967235,5.30065882 C237.936283,5.19101559 237.119598,5.04114354 237.486079,4.87391789 C238.588683,4.97882832 240.688052,5.02773393 240.422669,5.35903004 C241.949412,4.9267675 242.885361,5.52546689 244.724876,5.33615483 C246.344028,5.10740276 244.61272,5.17366198 245.763503,4.95279791 C248.204079,4.97882832 251.626415,5.14289877 253.563869,5.2414988 C254.308679,5.5554413 256.566015,6.13442069 254.890784,6.57062723 C251.214123,6.43574239 256.320378,5.83546539 252.481801,5.8622846 C254.115171,6.58403683 249.08553,5.98612624 248.38732,6.49569121 C249.603659,6.83014251 252.065561,6.88141453 254.130967,6.83408651 L253.721045,6.73390888 C254.63093,6.72049928 256.000496,6.64161925 257.38191,6.73154248 C258.763323,6.82619851 260.159744,6.97843696 261.127286,7.23164184 C260.650228,7.44067391 261.492188,7.68283559 260.159744,7.64891718 L262.64613,7.86741485 C262.969171,7.81219883 263.3009,7.75777161 262.584523,7.65207238 C263.776378,7.54637314 264.946906,7.73253 265.837045,7.93840687 C265.966578,8.0220197 269.287025,8.14665014 272.541127,8.26181497 C274.173706,8.31466459 275.782591,8.36672541 276.957069,8.40616542 C278.130757,8.48346784 278.868459,8.57102467 278.761832,8.58995588 C279.60853,8.73036232 280.133767,8.90547598 280.644788,9.05613683 C280.482083,9.03483922 280.315428,9.01354161 280.138506,8.99224401 C279.357364,8.89837678 278.449059,8.78873354 277.484676,8.67356871 C276.517134,8.57654627 275.487984,8.53473986 274.480161,8.46611424 C270.440178,8.21843096 266.691642,8.0196533 267.878757,8.12140853 C268.253927,8.23657337 269.711954,8.36672541 271.712595,8.50634305 C272.71252,8.57102467 273.847506,8.6451719 275.047259,8.72326312 C275.6499,8.76112553 276.266757,8.79819915 276.892303,8.83606156 C277.519428,8.88181197 278.144974,8.9693688 278.774469,9.03326162 C281.289289,9.31486331 283.797791,9.5996202 285.740774,9.85676909 C287.692445,10.0792108 289.039106,10.4586237 289.292642,10.6132285 C290.602181,10.8853646 292.19211,11.1835311 291.941734,10.8617006 C294.124035,11.4753872 291.172439,11.1969407 292.692073,11.7853857 C292.737093,11.7530449 292.591764,11.6292033 293.090937,11.7506785 L294.523689,12.4053827 C295.399612,12.5063491 296.371893,12.6459668 297.374188,12.8975941 C298.372534,13.1547429 299.41511,13.4536982 300.467954,13.7487095 C302.568113,14.3403097 304.688018,14.9216555 306.536222,15.1519852 C305.429669,15.1385756 304.12171,15.2923916 301.786181,14.9153451 L301.426018,14.674761 C301.080073,14.6637178 299.190798,14.2377657 299.178161,14.5020138 C301.284639,15.2616284 303.135212,15.7191326 305.4739,16.0977567 C305.870395,16.2815471 306.341134,16.4708592 306.639689,16.6554385 C306.642059,16.6191537 306.615205,16.58208 306.634951,16.5473728 C307.318154,16.941773 307.232852,16.9401954 306.936666,16.949661 C306.896384,16.9567602 306.848995,16.9638594 306.765273,16.9567602 C307.318944,17.538106 309.425422,18.1020981 311.873106,18.7315607 C313.097344,19.0431368 314.406093,19.3728553 315.642967,19.7270267 C316.858517,20.1348364 318.001401,20.5734093 318.917605,21.0277583 C320.077076,21.3574768 319.067673,20.9480894 320.514642,21.3456448 C322.399178,22.2472435 324.012012,22.9461205 325.598781,23.7641064 C327.183181,24.5899802 328.792066,25.4087549 330.742157,26.3624144 C332.145686,26.6203521 332.304442,26.5469936 330.906442,25.5586269 L333.873045,26.9792562 C332.3155,26.7844225 333.654262,27.5456148 334.884028,28.4267046 C336.130381,29.2793977 337.333293,30.1107932 335.678598,29.7723979 C336.445523,30.3789853 338.171303,31.2853168 339.870228,31.9731506 C340.132452,31.8666626 340.56212,31.6584193 342.606991,32.7185668 C345.264771,34.5406954 344.651073,34.0737257 346.823106,35.6134638 C347.229869,36.1679903 346.326303,35.7909438 346.314456,36.0457263 C350.041666,37.73297 349.1381,38.2598886 352.400889,40.2594973 C354.472615,41.4671504 358.529184,43.9218968 358.883818,43.6016439 C361.534489,45.4687341 361.325974,45.7700558 360.83312,45.9238719 L362.958554,47.4643988 C361.212239,46.259112 359.443018,45.0372604 357.657212,43.806732 C355.831913,42.6385188 353.988449,41.4600512 352.137876,40.2760621 C351.207456,39.6923499 350.307049,39.0534217 349.348984,38.5067831 L346.492167,36.8345266 C344.576828,35.7333614 342.700981,34.5556826 340.762737,33.5097335 C346.120157,36.9851874 351.615008,40.8503086 357.009551,44.7627579 C356.088608,44.2760681 355.140812,43.771236 354.335184,43.372103 C353.357374,42.8680597 352.566754,42.5612164 352.310849,42.6156436 C352.048625,42.6779588 352.368506,43.0297637 353.467951,44.0536265 C354.77433,44.9213067 356.028581,45.6438478 357.624828,46.6211713 C359.215547,47.6032276 361.186964,48.7919496 363.734167,50.8373086 C365.422035,51.7523169 365.613174,51.4651936 364.930761,50.5801598 C364.997896,50.6298542 365.066612,50.6803374 365.133747,50.7300318 C368.973113,53.7945208 372.895412,56.5174593 376.469395,59.2238329 C377.379279,59.8801148 378.286005,60.5135214 379.187201,61.1208976 C379.640564,61.4206416 380.089978,61.7172305 380.535442,62.0122418 C380.972218,62.3167187 381.403466,62.6188292 381.829974,62.9162069 C383.546276,64.0994073 385.245201,65.1690205 386.917273,66.1045376 C386.861195,66.7450434 387.704734,67.9834598 388.805757,69.6636043 C389.937584,71.3169296 391.465117,73.2794647 393.015554,75.1536541 C393.808544,76.0733952 394.5265,77.0499299 395.231818,77.9310197 C395.931608,78.8152648 396.594276,79.6285179 397.173222,80.3171405 C398.335852,81.6983298 399.171493,82.5880964 399.32472,82.581786 C400.041096,83.2262358 400.701395,83.9251129 401.365642,84.6263563 C402.02831,85.3291773 402.694927,86.033576 403.361544,86.7395522 C404.677401,88.1704358 406.057235,89.5737115 407.317015,91.084264 C415.442791,100.525414 422.598656,111.544165 428.420496,123.61833 C434.250235,135.693285 438.745161,148.813399 441.811283,162.446234 C442.096412,163.617602 442.400496,164.968817 442.712479,166.43993 C442.685625,166.353162 442.656401,166.263239 442.627967,166.177259 C441.811283,163.799027 440.822415,161.527282 439.903052,159.302865 C439.430734,158.193812 438.956045,157.104479 438.474249,156.038021 C437.961649,154.984972 437.402449,153.970575 436.857466,152.975109 C435.759601,150.987333 434.638042,149.106044 433.48094,147.362007 C432.966761,148.868615 433.544127,151.482699 434.766784,154.744388 C435.399439,156.368528 436.106337,158.189868 436.866154,160.142149 C437.644137,162.086541 438.521639,164.143732 439.44574,166.251407 C440.271113,168.400098 441.120181,170.606373 441.96214,172.796082 C442.376801,173.896459 442.830164,174.982637 443.198225,176.07828 C443.550489,177.181812 443.896435,178.271934 444.236852,179.339969 C444.764459,181.043778 445.247835,182.671073 445.675923,184.241574 C446.24934,188.83318 446.712971,193.696134 446.957028,198.589062 C447.009157,199.487505 447.099988,200.383582 447.117364,201.283603 C447.131581,202.183624 447.145008,203.081279 447.158435,203.974201 C447.185289,205.7632 447.212144,207.540367 447.239788,209.291504 C447.306134,211.041063 447.193978,212.766169 447.140269,214.452624 C447.076293,216.139079 447.016266,217.78846 446.954659,219.38578 C446.927015,220.982312 446.757201,222.523628 446.62451,224.001051 C446.488659,225.478474 446.355967,226.892004 446.232754,228.229809 C446.034506,230.908574 445.630903,233.25841 445.330767,235.209902 L444.821327,238.598588 C444.649934,239.72815 444.511713,240.8656 444.262917,241.994373 C444.483279,241.059645 444.607283,240.353669 444.696534,239.762857 C444.793683,239.173624 444.871086,238.701921 444.950069,238.228641 C445.108825,237.283658 445.266001,236.338675 445.578774,234.449499 C445.405012,236.850607 445.296805,239.211486 445.083551,241.512416 C444.815008,243.809403 444.551205,246.059061 444.291351,248.274012 C444.077306,250.500795 443.666595,252.655009 443.297744,254.794235 C442.907567,256.92794 442.586896,259.052968 442.131954,261.131456 C442.800151,259.752633 443.063954,259.5507 444.227374,256.155704 L443.101866,260.367898 C442.984971,262.380127 442.279652,265.598432 441.527734,268.851444 C441.188106,270.488994 440.650232,272.078426 440.2411,273.55506 C439.815381,275.028539 439.442581,276.364767 439.185886,277.416237 C439.064252,276.39553 437.997191,279.626456 436.799808,282.380946 L437.485381,281.367338 C436.404103,284.006664 435.39233,286.79034 434.243127,289.562973 C433.048903,292.317463 431.838883,295.105872 430.643079,297.860362 C429.325642,300.560426 428.025581,303.224993 426.775279,305.790171 C425.463371,308.321431 424.083537,310.690199 422.841134,312.914615 C422.141344,314.154609 421.501581,315.010457 421.018995,315.471117 C421.018995,315.471117 419.793178,317.581158 418.566571,319.692776 C417.952873,320.750557 417.337595,321.808338 416.877913,322.600294 C416.650442,323.000215 416.455354,323.328356 416.306076,323.54922 C416.159167,323.772451 416.077025,323.900236 416.077025,323.900236 C416.032005,322.976551 411.050544,330.267432 413.412927,326.248495 C412.509361,327.837927 411.549717,329.403696 410.55611,330.941856 C409.493788,332.431111 408.405401,333.899857 407.325703,335.362293 C406.787039,336.095877 406.249164,336.825517 405.714449,337.554369 C405.188422,338.289531 404.651337,339.010494 404.087398,339.706216 C402.984005,341.115802 401.920893,342.532487 400.921757,343.977569 C395.796547,349.970085 390.233771,355.802474 384.298984,361.372981 C418.684256,323.948353 439.677951,274.05516 439.677951,219.260361 C439.677951,218.440798 439.655045,217.625178 439.646357,216.807981 C440.034164,216.895538 440.434608,216.977573 440.861906,217.050143 C440.562561,217.000448 440.064967,214.305907 439.475754,210.321677 C438.677235,191.280039 435.3481,172.893105 429.807439,155.487438 C429.292469,153.464166 428.702466,151.25237 428.091137,149.013755 C427.728605,147.542642 427.170984,146.133056 426.72394,144.72347 C426.248462,143.320194 425.787991,141.958725 425.355954,140.679291 C425.355954,140.679291 425.14033,140.217843 424.820449,139.525276 C424.659323,139.178204 424.471344,138.775127 424.269937,138.338921 C424.048784,137.916913 423.811835,137.465719 423.574096,137.013736 C422.62472,135.211328 421.674554,133.408919 421.674554,133.408919 C421.751957,133.711818 421.809615,133.976067 421.861744,134.230849 C420.940012,132.225719 419.985896,130.231632 418.985181,128.250166 C418.005791,126.213483 416.982961,124.199676 415.939595,122.200856 C416.071496,120.148398 414.920713,119.720868 410.522147,111.765029 C410.875991,112.474949 411.338042,113.400212 411.801673,114.330207 C412.306374,115.343027 412.807127,116.347958 413.170449,117.076021 C409.818408,111.065363 406.178079,105.236918 402.269998,99.6064619 C402.656225,99.9472236 402.880537,100.011116 402.885276,99.6884971 C402.894754,98.7900536 402.899493,97.8947654 401.973022,96.0592272 C401.973022,96.0592272 401.627076,95.6593054 401.108157,95.0574508 C400.606615,94.4445531 399.876812,93.6731064 399.140689,92.9103366 C397.682662,91.3769089 396.223845,89.84427 396.223845,89.84427 C395.429276,88.793588 394.75871,87.901455 394.189242,87.1473619 C393.633201,86.3845921 393.122971,85.8119231 392.7557,85.3181341 C392.001412,84.3455434 391.657835,83.8225688 391.603337,83.612748 C391.492761,83.1931062 392.533757,84.0268681 393.739039,85.0168124 C394.974334,85.9815151 396.231744,87.2199315 396.76093,87.407666 C397.020784,87.5046884 397.081601,87.3532388 396.826486,86.803445 C396.559523,86.2639056 396.031127,85.2786941 394.932473,83.8604313 C392.834683,81.5792209 391.787367,80.4425598 390.770066,79.6064315 C388.225232,77.1903363 387.094984,76.5616625 387.036537,76.812501 C386.941757,77.0972579 387.880076,78.3033335 388.952666,80.0592028 C388.529317,79.5906555 388.124923,79.1434057 387.738696,78.7150872 C387.337462,78.2986007 386.955974,77.9010453 386.591073,77.5216324 C385.864428,76.7564962 385.215978,76.0513087 384.634662,75.3997597 C383.473612,74.0998169 382.581893,73.009695 381.890001,72.0789107 C380.488052,70.2323293 379.802479,69.0940905 379.386239,68.0836374 C378.954201,67.0865939 378.735418,66.2812288 378.112242,65.2471117 C377.801049,64.7336027 377.387178,64.1585673 376.794805,63.4801991 C376.215859,62.7844773 375.416551,62.0295954 374.340012,61.1382512 C371.333127,58.7568632 369.443852,57.4616532 368.252788,56.8290354 C367.049876,56.2090384 366.520689,56.2792416 366.300327,56.5427009 C365.846174,57.0853955 366.499364,58.5273223 364.805178,57.7361557 C365.176398,57.3291347 364.156727,55.9014063 362.119754,53.758236 C361.609523,53.2226406 361.037686,52.6412948 360.407401,52.0220866 C359.786595,51.3878912 359.080486,50.7536958 358.307242,50.1076684 C356.773391,48.7935272 355.028656,47.3539667 353.122795,45.8236942 C352.644947,45.4442813 352.16394,45.0459372 351.660818,44.6657355 C351.146639,44.2981545 350.625351,43.9242632 350.097744,43.5472167 C349.031473,42.7962789 347.937557,42.0264098 346.821527,41.2391872 C345.696808,40.4630077 344.557083,39.6513323 343.373917,38.874364 C342.166266,38.1352582 340.942028,37.3851091 339.706734,36.6302273 C338.46512,35.8832334 337.212449,35.1291404 335.957408,34.3758362 C334.714215,33.5996567 333.382561,32.9749269 332.096717,32.2760499 C330.795866,31.6008369 329.501334,30.9287791 328.217069,30.261454 C327.572567,29.9317355 326.932015,29.6028058 326.293832,29.2778201 C325.641432,28.9812312 324.992191,28.6885863 324.348479,28.3967302 C321.8771,27.4407043 319.394662,26.4247296 316.88774,25.3637933 C314.331849,24.4219658 311.753842,23.4328102 309.148981,22.4121027 C307.856028,21.8765073 306.522005,21.4221584 305.179293,20.9670207 C303.84211,20.5008397 302.493079,20.0322924 301.13694,19.5613786 C299.775273,19.1078185 298.432561,18.5603911 297.031401,18.1723014 C295.63814,17.7566036 294.236981,17.3385395 292.829503,16.9165314 C281.560991,13.5767511 269.40313,11.0825647 256.715293,10.6006077 C251.83651,9.97824432 246.228713,9.50102017 240.23074,9.2770009 C236.554869,9.08690004 232.856093,8.98672241 229.132042,8.98672241 C229.132042,8.98672241 96.8938793,1.12948308 36.2214692,133.333983 C35.6448929,134.59212 35.2468183,136.132646 34.9909132,137.759153 C24.42772,162.824858 18.5861336,190.361086 18.5861336,219.260361 C18.5861336,307.299146 72.7716658,382.68873 149.649028,414.015932 C149.864652,414.290435 150.094493,414.566515 150.38594,414.859949 C150.811659,415.287478 151.350323,415.743405 152.087235,416.264013 C152.815459,416.801975 153.771944,417.347036 155.028564,417.95599 C158.517245,419.554888 160.660056,420.365775 161.967225,420.697071 C163.283873,421.01338 163.780676,420.820123 163.932323,420.512491 C164.109245,420.15201 163.882564,419.599849 163.978923,419.253566 C164.442554,419.404227 164.905395,419.557254 165.371395,419.70476 C165.872937,420.305826 167.000815,421.161674 168.65551,422.224977 C169.278686,422.623321 169.972947,423.051639 170.731974,423.5052 C171.486262,423.97138 172.322693,424.421785 173.227839,424.866669 C175.029442,425.776155 177.067995,426.761367 179.282679,427.796273 C179.83793,428.051055 180.3995,428.32398 180.979235,428.573241 C181.566079,428.808304 182.160822,429.048099 182.764252,429.289472 C183.976642,429.765907 185.223784,430.253386 186.495412,430.754274 C187.772567,431.240964 189.072628,431.758417 190.406652,432.233274 C191.755683,432.665537 193.122089,433.101743 194.502713,433.541105 C195.886496,433.97179 197.282127,434.407208 198.680917,434.842626 C200.073388,435.300919 201.514828,435.591197 202.930205,435.963511 C204.353479,436.31216 205.772015,436.657655 207.177913,437.000783 C207.881652,437.16722 208.583812,437.334446 209.280442,437.500882 C209.956537,437.626302 210.627103,437.75251 211.29214,437.875563 L210.627893,437.806937 C208.597239,437.524546 206.573693,437.187729 204.547778,436.881674 C202.527391,436.551167 200.494367,436.294807 198.485828,435.903562 L192.470479,434.660413 C188.421808,434.015963 184.647998,433.108054 180.974496,432.239585 C177.284408,431.438952 173.822581,430.15873 170.406564,428.780696 C169.718622,428.56772 169.038578,428.355532 168.362483,428.144134 C166.951056,427.838868 165.620191,427.511516 164.224561,427.072154 C161.178184,425.956791 159.378161,425.182189 157.47072,424.436773 C155.584605,423.62983 153.619506,422.785814 150.20033,421.623122 C150.177425,421.502436 150.452286,421.528466 150.866157,421.620756 C149.819632,421.28236 148.517991,420.753864 147.181598,420.226946 C145.872059,419.637712 144.530137,419.042957 143.364347,418.6525 C143.326435,418.424537 143.294842,418.197363 142.900717,417.851868 C128.712991,411.10526 115.119218,402.850465 102.324754,393.152166 C100.426791,391.707873 98.6070217,390.18391 96.760398,388.721475 C95.8402454,387.983947 94.9232522,387.250362 94.0086285,386.517567 C93.0940047,385.783194 92.2449369,384.978618 91.3626963,384.218214 C89.8525403,382.923793 88.325798,381.614384 86.7769403,380.286834 L85.6158895,379.282691 L84.4982793,378.212289 C83.7534692,377.492903 83.00392,376.767996 82.2464725,376.036778 C80.7173607,374.596429 79.0918895,373.593864 78.3044285,372.98491 C76.4570149,370.98609 74.7209675,368.884726 72.8348522,366.769164 C70.9171437,364.678843 69.0957946,362.342417 67.0556624,359.874261 C66.3369166,359.187216 64.9381268,357.634068 63.5069539,356.237892 C62.8979946,355.206141 62.2234793,354.125484 61.4968353,353.011698 C60.2607505,351.430154 59.0270353,349.852553 57.7972692,348.279686 C56.6164725,346.669744 55.4878047,345.029829 54.3338624,343.413577 C53.2051946,341.78076 51.9983336,340.206315 50.9399607,338.537214 C49.876059,336.871268 48.8145268,335.209266 47.7561539,333.551207 L47.7292997,333.593803 C47.1953742,332.775028 46.6448624,331.934167 46.0832929,331.075952 C45.5177742,330.218526 45.029659,329.286953 44.4870454,328.36879 C43.4302522,326.517476 42.3387064,324.606213 41.2321539,322.66813 C40.6626861,321.70816 40.1524556,320.706384 39.6540725,319.697509 L38.1312793,316.677981 C37.6226285,315.671472 37.1147675,314.668118 36.6084861,313.670286 C36.0966759,312.676398 35.5919742,311.686453 35.1599369,310.674422 C33.4783878,307.07986 31.9469064,303.607561 30.5591742,300.453938 C29.4913234,297.525911 28.3784522,294.616027 27.3548319,291.669069 C27.3714183,292.195199 27.2213505,292.377412 27.0847098,292.550948 C27.6170556,293.576388 28.1343946,294.83768 28.631198,296.09345 C27.7331607,294.079643 26.9117369,292.282756 26.1866725,290.839251 C25.597459,287.88835 24.6867844,284.656635 23.7863776,281.122021 C23.1829471,278.962286 22.5771471,276.801762 21.9721369,274.639661 C21.6791098,273.556638 21.347381,272.483869 21.0835776,271.391381 L20.3427166,268.101295 C19.8482827,265.906853 19.353059,263.710044 18.8578353,261.51008 C18.4439641,259.29434 18.0845912,257.063613 17.6952047,254.835253 C17.428242,254.108768 17.3611064,254.769782 17.2410522,254.87627 C17.1075708,253.891059 16.9732997,252.900326 16.8382386,251.909592 L16.6447302,250.423493 L16.5262556,248.922406 C16.3674997,246.923586 16.2103234,244.920033 16.0523573,242.912537 C15.5421268,239.33375 15.4299708,235.701325 15.1653776,232.069688 C14.8454963,228.43963 14.9055234,224.774075 14.8439166,221.096688 L14.6338217,218.496802 L14.5090285,217.197648 L14.4371539,215.900072 C14.6598861,214.942469 14.8454963,213.715884 14.9995132,212.280268 C15.0571708,210.909333 15.1140386,209.537609 15.1716963,208.16273 L15.2585776,206.096863 C15.3217641,205.40824 15.3857403,204.721195 15.4497166,204.030995 C16.0010183,196.592608 17.3587369,183.175905 20.4801471,169.394776 C20.5907234,168.32674 20.6657573,167.474047 20.8205641,166.994456 C21.6664725,163.035468 22.9254624,159.334417 23.9964725,155.728811 C27.6644454,143.212918 32.3892115,132.056916 35.1954793,125.892442 C36.7182725,122.129076 34.3732658,125.680254 31.6341336,130.00919 C30.9580386,131.096157 30.2187573,132.212309 29.5845234,133.30322 C28.9605573,134.399652 28.3713437,135.438502 27.8721708,136.317226 C26.855659,138.065996 26.1558692,139.147441 26.1850929,138.689148 C26.3699132,137.51778 26.6439844,136.257277 26.995459,134.90764 C27.3572014,133.563524 27.7418488,132.104244 28.3460692,130.623665 C28.9202759,129.1281 29.5663573,127.542612 30.2756251,125.868778 C30.9991098,124.201254 31.7075878,122.405156 32.6672319,120.615368 C34.5249132,117.005029 36.4757946,112.956906 39.0064115,108.755756 C39.614581,107.690087 40.2338081,106.601543 40.8672522,105.490912 C41.1831844,104.936385 41.5038556,104.373971 41.8253166,103.806823 C42.172842,103.254663 42.5243166,102.696981 42.8781607,102.135356 C44.2927471,99.882542 45.7460353,97.5295508 47.2332861,95.0692829 C49.0198827,92.4749188 48.2758624,93.3307671 47.0168725,94.8310652 C45.8408149,96.3889457 44.1876997,98.6196728 43.9618081,98.6117848 C44.3314488,97.7188629 44.8606353,96.5900897 45.5248827,95.3351085 C46.65592,93.623412 47.8927946,91.9850739 49.083859,90.3151837 L51.2156115,87.3627044 L52.2795132,85.8844927 C52.6444149,85.4001693 53.0330115,84.9339884 53.4073912,84.457553 C53.0006285,84.9521308 52.5812285,85.4230446 52.1878929,85.9341871 C50.8767742,87.7318629 49.5838217,89.5042971 48.3311505,91.2191488 C47.7150827,92.0828851 47.1077031,92.932423 46.5153302,93.7638184 C46.23652,94.1534858 45.9821946,94.5526187 45.7341878,94.9493852 C46.3613132,93.7874824 47.0919064,92.5356564 47.9180692,91.2664768 C49.7117742,88.4417831 51.5892014,85.3015693 53.371059,82.7963397 C42.4026827,95.7965567 33.3006759,110.402771 26.0760963,125.857734 C18.8562556,141.319797 13.5438556,157.692924 10.4627268,174.453352 C13.0881234,161.904328 16.8848386,149.845939 21.6569946,138.847697 L20.8568963,140.773947 L20.1555268,142.740426 L18.751998,146.671807 L17.34452,150.604765 C16.9116929,151.92916 16.5325742,153.270121 16.1242319,154.602404 L14.9173708,158.607932 C14.5256149,159.947315 14.0769912,161.270133 13.7752759,162.634757 C13.1070793,165.346653 12.4396725,168.060125 11.7698963,170.776754 C11.4034149,172.126391 11.1877912,173.512313 10.9113505,174.883248 L10.1159912,179.011039 L9.32853017,183.144353 L8.74642508,187.31474 L8.16432,191.491437 C7.97160136,192.886036 7.75044881,194.275902 7.65803864,195.683122 C7.41319119,198.489673 7.1675539,201.299379 6.92112678,204.113819 C6.38562169,216.155643 6.69523525,228.20299 7.87287254,240.150947 C9.20136746,252.081551 11.3718217,263.882003 14.3597505,275.44897 C13.5572827,273.554271 12.9799166,271.29988 12.2998725,268.888518 L13.0431031,271.949063 C13.2863708,272.972137 13.5304285,273.992844 13.8471505,274.994621 L15.6218997,281.040775 L16.5049302,284.063457 C16.8074353,285.068389 17.1794454,286.052023 17.5127539,287.048277 L19.5607844,293.002142 L20.2621539,294.787197 C20.5109505,295.37643 20.7850217,295.956199 21.0448759,296.539122 L22.6292759,300.029563 C22.2233031,299.200534 21.2549708,297.212757 20.5709776,295.810271 C29.6769336,320.171578 42.8994861,342.769916 58.7490149,362.052927 C57.4213098,360.549474 56.7436353,359.842709 56.0422658,359.221134 C56.8968624,360.256829 57.704859,361.346162 58.6250115,362.351093 C61.0861234,365.04248 63.4643031,367.811958 65.8724963,370.392123 C63.3655742,367.862441 61.0332047,365.061411 58.6250115,362.351093 C57.6013912,361.269648 56.7073031,360.073827 55.7595064,358.95452 C55.1229031,358.347143 54.4586556,357.628546 53.4113403,356.09433 C52.345859,354.762835 51.2290386,353.508643 50.281242,352.186613 C49.321598,350.871683 48.3927573,349.59856 47.5010386,348.378286 C46.6266963,347.14618 45.7902658,345.96929 45.0035946,344.861025 C44.2106047,343.755916 43.5953268,342.634242 42.9832081,341.633255 C41.8458522,339.706216 40.6998081,337.806785 39.5466556,335.932595 C38.9527031,335.004178 38.4219369,334.043419 37.8919607,333.087393 C37.3556658,332.1361 36.8201607,331.187173 36.2862353,330.244557 C35.2278624,328.351436 34.1118319,326.511165 33.0984793,324.632243 C32.111981,322.738334 31.1349607,320.860989 30.1650488,318.997843 C26.2775031,311.554724 23.0376183,304.089518 20.4825166,296.738688 C19.8372251,295.033302 19.6990047,294.359667 19.772459,294.341524 C19.8474929,294.326537 20.1318319,294.967043 20.5709776,295.810271 C20.1839607,294.898417 19.8956725,293.946336 19.5607844,293.002142 C18.4889844,290.263427 17.4242929,287.504204 16.3832963,284.715006 C15.4655132,281.886368 14.5974895,279.018291 13.7531607,276.113139 C13.5288488,275.303042 13.2887403,274.494521 13.0786454,273.680479 L12.5186556,271.220211 C12.1482251,269.581873 11.7770047,267.945113 11.4065742,266.30993 C10.5977878,263.054551 10.0994047,259.744745 9.52045898,256.461759 C9.28666915,255.189424 9.05129966,253.914723 8.81672,252.638444 C8.94151322,253.275006 9.06867593,253.919455 9.19346915,254.556017 C6.47803186,237.717498 5.74348949,220.774858 6.92112678,204.113819 C7.2970861,199.153843 7.49928271,194.17178 8.21328949,189.237835 L8.66507254,185.52653 C8.82856746,184.292057 8.93045559,183.048119 9.17451322,181.82469 L10.4627268,174.453352 C6.80028271,192.25184 5.49390305,210.946406 6.03177763,229.044639 C5.06186576,216.997293 5.10293695,203.733617 6.63520814,190.414725 L6.20159119,193.640129 C6.07679797,194.718419 6.01361153,195.803808 5.9172522,196.886042 C5.74190983,199.056031 5.56656746,201.228387 5.38964542,203.40311 C5.16533356,205.576254 5.17402169,207.762809 5.09424881,209.948574 L4.90784881,216.507448 C4.85572,223.17281 4.82254712,229.847638 4.92917424,234.479473 C4.80754034,232.341825 4.62666915,230.294888 4.55005559,228.316577 C4.50187593,226.335899 4.45685559,224.426214 4.41262508,222.574111 C4.34785898,220.722008 4.2862522,218.927487 4.22543525,217.173984 C4.23017424,215.417326 4.23412339,213.704841 4.23807254,212.016808 C3.78313017,226.727144 4.67326915,241.702517 7.10120814,256.710231 C6.92507593,255.690312 6.74894373,254.668027 6.57202169,253.64022 L6.30189966,252.098116 L6.10207254,250.538658 C5.83195051,248.457803 5.56024881,246.362749 5.28696746,244.260596 C5.14874712,243.208337 5.00973695,242.1545 4.87072678,241.100663 C4.73329627,240.044459 4.68116746,238.979579 4.58322847,237.917065 C4.41104542,235.790459 4.23807254,233.659121 4.06430983,231.527783 C3.99322508,230.461325 3.86290305,229.397233 3.84473695,228.328409 L3.76259458,225.12588 C3.71994373,222.991386 3.67808271,220.861626 3.63464203,218.741331 L3.61489627,217.153476 L3.67650305,215.567987 C3.72310305,214.51415 3.76812339,213.460313 3.81472339,212.412786 C3.91424203,210.314577 4.02639797,208.232145 4.15750983,206.170221 C4.20410983,208.105937 4.22859458,210.039286 4.23807254,212.016808 C4.36760475,208.68886 4.39682847,205.366433 4.74830305,202.067671 C4.88810305,200.417501 5.02790305,198.768908 5.16770305,197.122682 C5.3114522,195.476456 5.41334034,193.827075 5.67082508,192.197413 C6.11707932,188.930991 6.56096407,185.671669 7.00405898,182.417868 C7.60906915,179.191675 8.21170983,175.968637 8.81356068,172.753487 C11.5084624,159.947315 15.2901708,147.462973 20.1286725,135.427459 C19.3664861,136.988495 18.5221573,138.646553 17.8026217,140.447384 C17.0973031,142.253736 16.3896149,144.155534 15.6779776,146.128323 C14.1599234,150.039195 13.0739064,154.362609 11.8172861,158.693911 C11.1522488,160.852069 10.7375878,163.089895 10.2076115,165.289859 C9.69580136,167.494556 9.18715051,169.690576 8.68560814,171.855832 C8.27647593,174.038443 7.85865559,176.187135 7.42661831,178.276666 C7.01353695,180.368565 6.49224881,182.387104 6.17710644,184.357528 C8.07822847,170.294008 11.5226793,156.060896 16.5302047,142.203253 C21.529042,128.341666 28.0862149,114.868958 35.9513471,102.240266 C43.8109505,89.6036859 52.9682454,77.8142773 63.0014624,67.1323443 C73.036259,56.4425232 83.9477675,46.8743762 95.2289166,38.4168599 L89.1693369,42.8317749 C88.1654624,43.5748247 87.1363132,44.2886889 86.1513946,45.0577692 L83.2282319,47.4068163 C81.2907776,48.9883609 79.2996149,50.5075901 77.4008624,52.1419843 L71.763842,57.1169475 C64.3805064,63.902996 57.2214827,71.0282287 50.6808963,78.8018552 C51.9351471,77.3567732 53.2478454,75.7697071 54.5850285,74.1179593 C55.9917166,72.523794 57.4402658,70.8830895 58.8753878,69.2565834 C49.461398,79.5456939 41.4067064,89.954702 33.8519776,102.297848 C33.8598759,102.256042 33.8859403,102.190572 33.9048963,102.135356 C25.411059,115.949614 18.3333878,130.675726 12.9404251,145.917714 C7.5403539,161.155757 3.83288949,176.902576 1.86068271,192.638353 C1.95941153,189.482363 2.20267932,186.633216 2.52887932,184.0073 C2.61655051,183.351018 2.70343186,182.708935 2.78794373,182.077106 C2.90088949,181.450799 3.03437085,180.837901 3.1599539,180.235257 C3.41822847,179.029182 3.68756068,177.868857 3.9600522,176.736928 C4.51767254,174.477804 5.03738102,172.333845 5.61711661,170.228537 C6.24582169,168.132695 6.83503525,166.055784 7.33499797,163.888161 C10.0883471,152.049058 13.8147675,140.339318 18.5648081,129.331611 C20.0283641,125.942136 21.5772217,122.623653 23.1821573,119.367486 L23.0502556,119.652243 C23.3819844,118.935223 23.7184522,118.229247 24.0833539,117.542202 C24.0865132,117.53668 24.0896725,117.529581 24.092042,117.52406 C24.8510692,116.101064 25.597459,114.699366 26.3359505,113.311078 C27.0831302,111.925944 27.8216217,110.555009 28.5577437,109.189596 C29.3072929,107.832071 30.1532014,106.536072 30.9493505,105.213254 C34.1023539,99.8912188 37.6565912,94.7837372 41.6863064,89.3141962 C41.1397437,90.1881869 40.4415336,91.2988176 39.6817166,92.5119924 C38.9029437,93.7117576 38.0601946,95.009334 37.252198,96.2548496 C36.4418319,97.4995764 35.6646386,98.6930312 35.0533098,99.7090059 C34.4862115,100.754166 34.0668115,101.608437 33.9048963,102.135356 C34.5083268,101.158032 35.0556793,100.142846 35.70492,99.1962858 L37.6163098,96.3289969 L41.4343505,90.5952078 L45.5019776,85.0436316 L47.5294725,82.2646883 C48.2276827,81.3583568 48.9598556,80.477267 49.6722827,79.5811899 C51.1050353,77.7937685 52.5354183,76.0063471 53.9650115,74.2212922 C55.4206692,72.4591124 56.9671573,70.7766015 58.4575675,69.0483401 C61.3949471,65.5444894 64.6198251,62.3261843 67.7388658,59.0116457 C68.2159234,58.5178567 68.6708658,58.0461542 69.1013234,57.5989044 C69.5499471,57.1697971 69.9756658,56.7627762 70.3784793,56.3770528 C71.1762081,55.5969294 71.8838963,54.9012076 72.5102319,54.2883098 C73.7526353,53.0483158 74.6451437,52.1072771 75.2438353,51.4178656 C76.4412183,50.042198 76.4672827,49.6793499 75.7777607,49.9775164 C74.420042,50.5904142 70.1288929,53.7984648 66.8692624,56.8921394 C58.7308488,64.7083611 51.40912,72.9694662 44.65212,81.4561681 C43.0187505,83.6230024 41.3924895,85.7795823 39.7717573,87.929063 C38.9384861,88.9899993 38.2039437,90.1156173 37.4464963,91.2246704 C36.692998,92.332146 35.9402895,93.4404103 35.1883708,94.5486747 C34.4364522,95.6545726 33.6861132,96.7612594 32.9373539,97.8640022 C32.2138692,98.9848873 31.5425132,100.136536 30.8443031,101.269253 C29.4723675,103.549674 28.0585708,105.798544 26.7363946,108.093953 C24.2389505,112.766017 21.622242,117.355256 19.4778522,122.170882 L17.7970929,125.743358 C17.521442,126.339691 17.2292047,126.928925 16.9677708,127.533146 L16.2229607,129.357641 L13.2579369,136.661931 C12.7374386,137.868796 12.3606895,139.127721 11.9191742,140.365349 L10.6404386,144.091641 L9.37197085,147.822666 C8.95967932,149.069759 8.6405878,150.346827 8.27173695,151.608119 C7.5687878,154.140956 6.86267932,156.674583 6.15657085,159.213731 C5.5910522,161.784431 5.02632339,164.360652 4.46080475,166.941607 L3.73653017,170.586653 L3.18206915,174.267195 C2.80610983,176.718786 2.43173017,179.174321 2.05419119,181.629856 C1.79117763,184.09959 1.5289539,186.570901 1.26436068,189.044579 L0.870235254,192.753517 C0.730435254,193.988779 0.70832,195.235083 0.622228475,196.475866 C0.476899661,198.959009 0.333940339,201.44373 0.188611525,203.929239 C0.0883030508,205.170811 0.105679322,206.416327 0.0898827119,207.660265 L0.054340339,211.393656 L0.0180081356,215.126259 L0.000631864407,216.994138 C0.00695050847,217.615713 0.0440725424,218.237287 0.0653979661,218.859651 L0.363164068,226.321701 C0.617489492,237.563682 2.37802169,253.240298 4.03745559,259.598817 C8.01267254,276.464156 13.8503098,293.42415 21.9610793,309.929006 C30.0284081,326.43544 40.0197641,342.664217 52.4066759,357.865975 C73.9982725,385.527623 104.350669,409.22476 137.01411,424.205654 C153.3249,431.758417 170.088262,437.353377 186.380096,441.167226 C202.686147,444.977131 218.495395,446.969641 233.031435,448.038465 C230.047456,447.644065 226.426083,447.294626 222.488778,446.968063 C221.504649,446.90417 220.502354,446.778751 219.486632,446.6415 C218.47012,446.512925 217.440971,446.381984 216.399974,446.251044 C214.32114,445.994684 212.203605,445.733591 210.086069,445.472498 C205.871534,444.790186 201.672795,444.046347 197.814473,443.304875 C193.980635,442.393022 190.484056,441.505621 187.646195,440.675015 L191.773849,441 C191.170418,440.749162 190.170493,440.440741 188.942306,440.103923 C188.329398,439.929598 187.654883,439.77105 186.952723,439.564384 C186.251354,439.350619 185.516812,439.128177 184.764893,438.901003 C181.759588,438.000982 178.506276,437.076508 176.319235,436.37842 C178.356998,436.649767 180.550357,437.334446 182.746086,438.02859 C180.555096,437.33839 180.555096,437.33839 178.356998,436.645823 C186.769483,438.75823 199.264601,441.333663 209.38391,442.587066 C214.448303,443.087955 218.887151,443.461057 221.852174,443.550192 C224.825886,443.528894 226.318666,443.342737 225.514618,442.896276 C225.113384,442.670679 224.286432,442.459281 223.106425,442.258137 C221.91694,442.070402 220.388618,441.826663 218.581486,441.53954 C214.958534,440.961349 210.187957,440.534608 204.896883,439.574638 C203.570757,439.36324 202.209089,439.149475 200.820567,438.9294 C200.127096,438.820545 199.424937,438.706958 198.718039,438.594948 C198.018249,438.450598 197.310561,438.305459 196.598923,438.158742 C193.753954,437.578185 190.833951,436.981852 187.906049,436.387096 C185.0129,435.647991 182.113432,434.907307 179.271622,434.179245 C178.563144,433.997821 177.857035,433.816396 177.156456,433.635761 C176.465354,433.421208 175.778201,433.207443 175.097367,432.995255 C173.738069,432.568514 172.400886,432.147295 171.095296,431.737119 C180.169659,433.94576 190.144428,435.920127 200.234513,437.628668 C205.308384,438.297571 210.381466,439.137643 215.428483,439.447641 C216.686683,439.550185 217.940934,439.654307 219.187286,439.758429 C220.434428,439.857029 221.674462,439.97456 222.910547,439.978504 C224.372523,440.014 225.795008,440.032931 227.23092,440.056595 C227.344656,440.071582 227.453652,440.083414 227.568178,440.09919 C228.95354,440.312167 230.3547,440.437586 231.767706,440.561427 C233.178344,440.694735 234.599249,440.82962 236.029632,440.966082 C237.458435,441.083613 238.894347,441.297378 240.346845,441.340762 C241.800134,441.414909 243.26053,441.487479 244.728035,441.563204 C256.468076,442.133506 268.872364,441.668903 281.310615,439.1266 C292.054679,437.909481 306.03073,435.195219 319.562106,430.635954 C319.595279,430.744019 319.663205,430.841042 319.675842,430.956996 C319.976767,430.761373 320.145791,430.597303 320.10472,430.48056 C322.687466,429.923667 326.018181,428.81067 329.604012,427.486274 C331.386659,426.802385 333.185103,425.949692 335.011981,425.144326 C336.827801,424.316086 338.664157,423.51151 340.414422,422.673015 C343.868351,420.898215 347.105866,419.261454 349.701249,418.130315 C352.231866,416.882433 354.134567,416.165413 354.997062,416.392588 L357.121706,414.932518 C359.903489,413.347819 361.234354,412.454108 361.889123,412.151209 C362.537574,411.838844 362.4657,412.043932 362.259554,412.359452 C361.849632,412.988126 360.898676,414.064049 364.158306,412.284516 C366.616259,410.596483 369.420947,409.001529 372.098473,407.15337 C373.46172,406.262026 374.831286,405.368315 376.185845,404.48407 C376.8651,404.042342 377.538035,403.60298 378.206232,403.168351 C378.86732,402.725046 379.491286,402.243878 380.121571,401.787951 C382.624544,399.950046 384.955334,398.172091 386.874622,396.518765 C388.715717,394.773939 390.156367,393.165575 390.959625,391.767033 C391.782628,391.236959 390.8917,392.160644 391.718652,391.629781 C391.718652,391.629781 392.157798,391.215661 392.815727,390.593298 C393.468917,389.963046 394.375642,389.165569 395.193906,388.275014 C396.866767,386.534132 398.541208,384.79325 398.541208,384.79325 C398.651784,383.983152 399.6059,382.20914 398.081527,382.930892 C398.891893,382.170489 399.537184,381.346981 400.279625,380.454848 C400.997581,379.537473 401.778723,378.522287 402.931086,377.429799 C408.383286,371.609242 404.353571,377.44242 406.636181,375.639223 C408.350113,373.781598 409.928195,371.746493 411.571832,369.727953 C413.195723,367.695215 414.923083,365.707439 416.463252,363.546915 C418.050022,361.421887 419.648639,359.285027 421.250415,357.144223 C422.767679,354.94347 424.288103,352.737196 425.804578,350.53881 L426.948252,348.89495 L428.016103,347.206917 C428.7309,346.084455 429.444906,344.965936 430.155754,343.851361 C430.87134,342.739153 431.586137,341.633255 432.296984,340.531301 C432.963601,339.403317 433.624689,338.28322 434.283408,337.167068 C435.58031,334.926086 436.968042,332.767929 438.180432,330.568754 C439.386503,328.363268 440.587045,326.205899 441.7789,324.10848 C442.656401,324.537587 445.267581,319.614685 448.054893,313.462831 C449.313883,310.332872 450.673971,306.922888 451.819225,303.712471 C452.854693,300.461826 453.812757,297.456497 454.522815,295.222614 C455.400317,293.040004 456.109584,290.75485 456.825961,288.444454 C457.179015,287.288073 457.517852,286.120648 457.846422,284.945336 C458.130761,283.759769 458.385086,282.563948 458.638622,281.364971 C459.133056,278.965441 459.639337,276.565122 460.023984,274.158492 C460.338337,271.740031 460.65032,269.337345 460.958354,266.970156 C461.305089,264.611643 461.428303,262.258652 461.6305,259.979808 C461.801103,257.693076 462.075174,255.478125 462.203917,253.3247 C462.331869,251.174431 462.493784,249.103041 462.7023,247.127096 C462.936089,245.154307 463.159612,243.279329 463.368917,241.506106 C463.466856,242.562309 463.58454,243.717113 463.562425,244.923977 C463.546628,246.130842 463.499239,247.395289 463.432103,248.681033 C463.361808,249.966777 463.273347,251.271453 463.176988,252.56193 C463.128018,253.20638 463.077469,253.846097 463.02771,254.478715 C462.947937,255.1066 462.867374,255.726597 462.789181,256.333184 C462.146259,261.185095 461.696845,265.19851 462.111506,266.087488 C462.111506,266.087488 462.190489,265.852426 462.304225,265.502198 C462.423489,265.151971 462.579876,264.685001 462.703879,264.210932 L463.236225,262.320967 C463.613764,260.150977 464.047381,257.661524 464.499164,255.066371 C464.860906,252.457809 465.152354,249.729349 465.415367,247.109743 C465.716293,244.493292 465.739198,241.970709 465.711554,239.781" id="Fill-34" fill="#84D3ED" mask="url(#mask-5)"></path>
                    </g>
                    <path d="M442.194146,333.327615 C442.07556,334.551785 440.914664,337.557659 439.204527,340.738415 C438.375204,342.342831 437.467864,344.022656 436.589391,345.598193 C435.72496,347.18496 434.746625,348.581605 434,349.757642 C434.082698,350.590335 435.356719,349.162404 436.849188,347.225873 C438.260519,345.242012 439.847389,342.72388 440.747707,341.523777 C440.747707,341.523777 441.147155,340.610864 441.550504,339.699555 C441.751008,339.242296 441.949952,338.789049 442.100526,338.444901 C442.255,338.10637 442.342379,337.872927 442.342379,337.872927 C446.347002,328.761445 445.435761,327.997743 442.194146,333.327615" id="Fill-37" fill="#84D3ED"></path>
                    <path d="M378.051486,410.543483 C375.526158,412.259378 373,413.976022 373,413.976022 C373.329679,414.143938 374.747218,413.412303 376.576648,412.333591 C377.490118,411.792361 378.507391,411.164174 379.542933,410.517996 C380.060289,410.191909 380.585119,409.865072 381.099983,409.541233 C381.5999,409.197155 382.095665,408.854575 382.57233,408.526239 L383,407 C383,407 382.393788,407.457272 381.483641,408.140931 C380.592593,408.852327 379.304601,409.674667 378.051486,410.543483" id="Fill-39" fill="#84D3ED"></path>
                    <path d="M433.92722,146.281447 C432.789669,144.362365 431.201301,142.272715 430.415235,141.231395 C429.175486,140.042872 431.041795,143.733055 431.721842,145.480791 C432.846976,147.378844 436.909112,151.893828 433.92722,146.281447" id="Fill-41" fill="#84D3ED"></path>
                    <path d="M436,166 C436.52671,167.485044 436.403936,167.78173 436.929709,169.273242 L439,170 L436,166 Z" id="Fill-43" fill="#84D3ED"></path>
                    <path d="M410,115 C410.303,115.356915 410.581,115.67559 410.862,116 C410.848,115.982792 410.832,115.961759 410.819,115.944551 C410.348,115.372212 410.002,115 410,115" id="Fill-45" fill="#84D3ED"></path>
                    <path d="M155.079523,25.5830803 C154.518766,25.8445206 153.952473,26.1078763 153.39409,26.368359 C152.844406,26.6575713 152.30105,26.9467837 151.776675,27.2245042 L151,29 C151,29 151.675439,28.5996994 152.688596,27.9982909 C153.690682,27.3624068 155.089014,26.6939623 156.466782,25.9603971 C159.233391,24.5219965 162,23.0845536 162,23.0845536 C161.736626,22.78768 160.243385,23.303857 158.280342,24.1437221 C157.29803,24.5631758 156.200244,25.064988 155.079523,25.5830803" id="Fill-47" fill="#84D3ED"></path>
                    <g id="Group-57" transform="translate(24.000000, 17.000000)" fill="#FFFFFF">
                        <path d="M2.46474774,128.684885 C0.763449623,132.396042 0.497028868,138.430816 1.20774774,142.389805 C2.24971377,148.183061 4.88941377,147.81605 11.0178817,149.566655 C8.43747415,148.829475 2.20623264,163.629115 1.55796849,165.904586 C-0.0350220755,171.485529 -0.529125849,178.436648 4.70995528,182.306448 C7.00180623,183.998648 10.5743742,182.544019 12.6994157,184.098096 C17.0918006,187.31359 14.139827,186.970257 16.3320666,191.795077 C18.9646515,197.582019 17.7234628,204.945927 20.5908458,210.878885 C26.6181213,223.350962 33.0794175,225.706149 44.4366892,232.2429 C52.5526402,236.914602 59.805293,252.707146 70.6921779,246.463215 C62.6457968,238.235843 56.542627,236.410257 54.627876,223.50487 C53.9147855,218.709253 56.542627,213.517421 52.4625157,210.458203 C47.366527,206.634969 39.1738911,212.903368 33.9648515,210.091192 C28.2957025,207.029605 27.3430704,192.05159 27.5683817,186.557467 C47.4274006,186.103636 54.6927025,204.326349 74.7849383,201.416303 C80.1228402,200.642816 81.7150402,204.365812 84.196627,197.766709 C85.9667043,193.055544 83.1032742,189.555912 79.6619402,187.517222 C75.6932987,185.163613 70.7743968,189.789536 67.0524119,185.639544 C64.0269157,182.264617 65.6618062,174.777582 66.5037591,170.807544 C72.5278723,170.142977 83.8890968,171.453169 88.7629364,167.096387 C94.456593,162.007161 89.476027,148.011789 89.9598534,141.253253 C99.4134421,135.006954 122.807082,141.621054 119.48117,122.080257 C124.570044,118.923169 134.618929,118.577467 137.542442,112.883659 C141.220155,105.718648 137.81835,103.849651 131.225029,103.197713 C136.019021,92.820364 124.600085,88.0870996 116.877046,85.4588238 C104.069085,81.1028314 103.403429,85.2986015 98.8695326,96.9656207 C94.7190609,107.649996 89.8159704,109.428226 80.9347515,107.044625 C72.9792855,94.8203793 74.1184911,74.181705 91.2018326,73.7531303 C99.8522062,73.5360805 105.786985,78.0767625 114.797857,76.044387 C121.831523,74.4571609 137.548767,62.906954 140.805108,57.1886782 C110.235501,60.1634444 107.191821,54.1712912 106.358565,41.358249 C105.699233,28.4512835 122.424448,36.2848084 126.676112,33.0582644 C133.929555,27.5546705 140.855704,12.2633142 151.07377,19.3912299 C173.785942,35.2382337 150.411276,39.6368467 152.209023,53.3678123 C153.371946,62.242387 174.470572,97.1739885 186.805774,84.5124866 C197.137682,73.9094061 169.791212,58.464931 196.449099,44.8736667 C196.449099,44.8736667 229.346923,26.7535594 197.58277,25.6201648 C197.58277,25.6201648 188.227212,13.4614291 200.846227,0.853597701 C200.846227,0.853597701 64.85701,-7.22381226 2.46474774,128.684885" id="Fill-49"></path>
                        <path d="M70.6919408,246.463293 C70.6919408,246.463293 96.9047389,245.331477 101.159565,263.170604 C101.159565,263.170604 105.412811,265.719163 113.069443,259.771998 C113.069443,259.771998 138.596029,257.225807 132.638324,284.405968 C132.638324,284.405968 153.057854,271.666328 154.759943,293.74937 C154.759943,293.74937 183.685963,277.611125 183.685963,301.395048 C183.685963,301.395048 167.520469,304.790497 171.776086,329.424466 C171.776086,329.424466 176.029331,345.5635 166.670611,338.767868 C166.670611,338.767868 158.163329,336.219309 158.163329,347.262803 C158.163329,347.262803 142.847694,351.509876 146.25108,372.742872 C146.25108,372.742872 145.401222,380.390129 136.89236,372.742872 C136.89236,372.742872 130.087167,387.184972 153.910084,402.473171 C153.910084,402.473171 146.25108,433.051148 122.428954,382.088642 C122.428954,382.088642 106.262669,376.991523 107.114899,354.056067 C107.114899,354.056067 109.667637,337.919401 96.9047389,336.219309 C96.9047389,336.219309 75.6361408,334.521585 79.8901766,313.283853 C79.8901766,313.283853 82.4405426,300.544213 72.2311728,300.544213 C72.2311728,300.544213 41.6030634,287.804573 67.1264879,281.858198 C67.1264879,281.858198 57.7685577,265.719163 64.5761219,258.92432 C64.5761219,258.92432 68.3020596,255.234474 70.6919408,246.463293" id="Fill-51"></path>
                        <path d="M321.516804,37.2287778 C321.516804,37.2287778 314.812013,48.8500192 307.987847,48.4025019 C308.824266,50.4498736 307.901676,51.9376513 309.753972,54.0481648 C307.08423,57.7506398 302.121847,56.9645249 297.821959,56.6377663 C296.172838,50.3693678 304.818468,46.9628697 303.555144,42.942318 C302.247547,38.7907471 290.39301,37.9888467 286.63624,37.2256207 C280.474568,35.9754138 278.736904,34.0456437 275.363559,40.4182261 C273.028227,44.8342031 267.915636,39.2114291 269.934742,53.474364 C263.946995,63.5628391 257.706266,73.7554981 273.972162,71.164318 C284.45823,69.4934291 293.226398,75.937046 294.606727,64.4973372 C297.40454,65.5896897 297.263028,71.074341 298.444134,72.1998429 C304.624779,78.1383257 296.391034,88.0705249 290.535312,89.0342261 C287.759634,89.4904253 263.097136,85.0176207 262.958787,85.772954 C261.723132,92.4872912 254.895804,96.0058659 249.34603,91.6317203 C247.4044,90.0997433 249.211634,85.7200728 246.027234,83.8865939 C244.453217,82.9812989 239.232319,83.9931456 237.414808,84.0744406 C236.126976,91.9111226 241.651451,99.0082567 249.070123,101.061153 C249.521536,109.447169 254.242006,122.767713 241.67833,123.166295 C240.664034,123.197866 241.749481,133.7749 242.7954,135.096931 C245.649344,138.704693 252.644272,138.525529 256.706991,138.160096 C257.510996,135.743345 259.744345,133.710969 260.342804,131.506533 C262.312104,124.284693 265.325742,121.683253 266.193783,120.261774 C268.459545,116.565613 267.302947,114.701352 272.088244,116.227015 C276.539921,117.647705 274.810162,119.204939 277.483066,123.018701 C288.042657,138.087483 309.320742,131.513636 302.029351,112.995736 C310.350059,107.203268 322.667868,106.870195 333.282798,107.729713 C344.960249,108.675261 349.902078,113.193054 349.481496,124.400716 C343.296108,125.909015 328.502245,120.206525 323.369891,124.845077 C321.817219,126.251559 321.684404,129.624908 322.368244,131.513636 C324.342287,136.992762 325.713919,135.032211 331.061308,136.609966 C337.292549,138.449759 336.14781,135.775705 338.506859,142.390594 C339.487951,145.141996 340.399474,150.817651 339.383596,153.783736 C335.335108,165.611766 327.608115,150.583238 317.40507,153.577736 C310.609364,155.572226 302.148727,161.868249 296.018678,151.895797 C290.396172,142.744188 296.276402,133.213728 282.190887,138.332946 C278.674449,139.610778 274.336613,137.009337 270.511855,137.458433 C264.029213,138.222448 265.515478,140.498709 260.300113,142.615536 C254.138442,145.120686 241.808774,145.298272 246.417774,155.957391 C229.235612,159.122372 230.25307,168.226625 228.778664,182.476931 C227.888487,191.095782 218.041987,201.739115 222.974328,211.167759 C224.998178,215.039138 224.33173,215.191467 226.907395,219.170188 C230.553485,224.807169 232.831106,233.802502 241.539981,235.140318 C250.56034,236.527858 249.312827,231.793015 253.411912,229.008464 C257.634325,226.13946 261.734991,228.321008 261.235353,236.707812 C267.648425,237.047199 274.199845,228.020295 280.653236,228.345475 C290.443606,228.840349 280.489589,235.905123 289.375551,240.894111 C296.276402,244.769437 289.183444,263.452295 289.185815,276.105115 C289.187396,283.176992 290.060181,290.493544 290.934547,297.120272 C291.800217,303.683069 297.627479,309.441598 297.693887,316.685536 C297.76741,324.610617 289.127313,328.950824 287.062355,336.265008 C285.363428,342.279261 288.333585,350.662119 292.6983,356.477475 C301.872819,358.237552 312.971576,345.14195 315.580444,338.786732 C317.269093,334.673835 320.062162,326.784272 324.026851,324.268862 C328.318834,321.545084 330.875525,324.436188 335.788893,323.478011 C342.288927,322.210441 350.501327,322.349352 355.738036,319.376165 C360.105123,316.897851 361.419834,314.009115 365.473857,311.588418 C376.100645,305.245038 375.388345,298.999529 373.967698,287.084678 C366.711883,286.699513 363.583613,294.841644 360.369172,299.695667 C357.473328,304.066655 355.32457,313.420318 345.482023,310.612088 C338.428593,300.826693 347.934359,283.877866 353.717349,277.360057 C359.856885,270.436563 364.700683,261.869015 365.776644,252.78923 C366.231219,248.962839 365.401125,244.97149 365.756879,241.128525 C366.485781,233.297368 365.526034,236.196364 370.905045,231.935874 C374.722689,228.910594 376.473002,231.610693 377.667547,225.796916 C378.515034,221.687176 377.183721,218.960241 374.454687,216.221467 C367.889036,209.631046 358.538221,215.118854 352.929945,204.554448 C349.644353,198.365766 345.191885,184.509307 353.189251,182.476931 C365.167908,179.434287 362.833366,194.646716 367.484266,200.309743 C371.059996,204.665736 386.178781,208.051713 390.256521,201.821989 C394.279712,195.678295 388.630327,186.736632 385.136025,182.713713 C379.604434,176.337184 374.838112,174.962272 376.110132,165.611766 C380.327012,164.23133 383.580981,166.343421 387.40574,167.73333 C392.919938,169.73808 392.302506,169.556548 394.82204,174.686027 C398.764593,182.714502 406.673415,188.917391 408.309887,198.032693 C409.837261,206.522893 407.733564,212.908893 418.58013,214.747107 C417.433019,214.552946 413.514974,177.158027 412.237419,172.158778 C409.680728,162.13818 407.888515,152.235973 404.367334,142.518456 C395.289264,117.451966 379.254213,93.4336284 361.898127,73.1793295 C350.336098,59.683567 321.516804,37.2287778 321.516804,37.2287778" id="Fill-53"></path>
                        <path d="M201.553072,64.4100437 C201.553072,64.4100437 226.226638,67.8070705 221.121953,45.7224498 C221.121953,45.7224498 206.657757,40.6269096 206.657757,52.518082 C206.657757,52.518082 198.150476,56.7651548 201.553072,64.4100437" id="Fill-55"></path>
                    </g>
                </g>
            </g>
        </g>
    </g>
</svg>