<?xml version="1.0" encoding="UTF-8"?>
<svg width="1920px" height="1080px" viewBox="0 0 1920 1080" version="1.1" xmlns="http://www.w3.org/2000/svg" xmlns:xlink="http://www.w3.org/1999/xlink">
    <!-- Generator: Sketch 47.1 (45422) - http://www.bohemiancoding.com/sketch -->
    <title>Desktop HD-Occupied-main-BG</title>
    <desc>Created with Sketch.</desc>
    <defs>
        <polygon id="path-1" points="255.739284 433.4339 255.739284 446 0 446 0 0.482998492 255.739284 0.482998492 255.739284 433.4339 23.7586189 433.4339 23.7586189 445.999933 255.739756 445.999933 255.739756 433.4339"></polygon>
        <polygon id="path-3" points="0 447 256 447 256 1 0 1"></polygon>
    </defs>
    <g id="-" stroke="none" stroke-width="1" fill="none" fill-rule="evenodd">
        <g id="Desktop-HD-Occupied-main-BG">
            <g id="boy-3-3" transform="translate(1484.000000, 128.000000)">
                <g id="Group-3">
                    <mask id="mask-2" fill="white">
                        <use xlink:href="#path-1"></use>
                    </mask>
                    <g id="Clip-2"></g>
                    <path d="M23.7586189,439.716916 C23.7586189,436.24713 75.6895663,433.4339 139.748851,433.4339 C203.808808,433.4339 255.739756,436.24713 255.739756,439.716916 C255.739756,443.186702 203.808808,445.999933 139.748851,445.999933 C75.6895663,445.999933 23.7586189,443.186702 23.7586189,439.716916" id="Fill-1" fill="#481218" mask="url(#mask-2)"></path>
                </g>
                <path d="M58,437 L206.178436,437 C215.347058,437 224,430.024681 224,421.904851 L224,419.700255 C224,411.579745 215.347058,405 206.178436,405 L58,405 C58,405 62.1509917,410.33583 62.1509917,420.265362 C62.1509917,431.649872 58,437 58,437" id="Fill-4" fill="#FCFCF7"></path>
                <path d="M56,437 L149,437 L149,406 L56,406 C56,406 60.145945,410.9445 60.145945,420.772848 C60.145945,432.041348 56,437 56,437" id="Fill-6" fill="#F0F0E2"></path>
                <path d="M203.348283,436 C213.957805,436 222,429.453862 222,421.096705 L222,418.931372 C222,414.823323 220.240944,411.018113 216.558664,408.215681 C212.988159,405.497483 208.397709,404 203.3895,404 C202.672046,404 202.157882,404.486682 202.157882,405.087012 C202.157882,405.686673 202.405882,406.173355 203.123336,406.173355 C212.327989,406.173355 219.205631,411.77755 219.205631,418.931372 L219.205631,421.096705 C219.205631,428.235152 212.402738,433.826645 203.249083,433.826645 C202.532327,433.826645 202,434.313995 202,434.912988 C202,435.51265 202.631527,436 203.348283,436" id="Fill-8" fill="#3C6082"></path>
                <path d="M55,437 L206.54976,437 C216.949791,437 226,429.92 226,420.886 L226,418.727333 C226,409.989333 217.12887,403 206.54976,403 L55,403 L55,406.333333 L206.54976,406.333333 C214.763819,406.333333 221.287402,412.038 221.287402,418.727333 L221.287402,420.886 C221.287402,427.785333 214.485102,433.666667 206.54976,433.666667 L55,433.666667 L55,437 Z" id="Fill-10" fill="#613D3B"></path>
                <path d="M91,310 L188.133391,310 C195.029926,310 201,304.460943 201,298.5828 L201,296.9866 C201,291.109114 195.029926,287 188.133391,287 L91,287 C91,287 94.1225902,290.779886 94.1225902,297.967714 C94.1225902,306.208943 91,310 91,310" id="Fill-12" fill="#FCFCF7"></path>
                <path d="M90,310 L168,310 L168,287 L90,287 C90,287 93.1386284,290.779886 93.1386284,297.967714 C93.1386284,306.208943 90,310 90,310" id="Fill-14" fill="#F0F0E2"></path>
                <path d="M186.882536,310 C194.306532,310 200,305.090362 200,298.822284 L200,297.199109 C200,294.117883 198.702919,291.263955 196.127008,289.161448 C193.628661,287.122451 190.382699,286 186.878626,286 C186.37674,286 186,286.365014 186,286.81493 C186,287.264847 186.557289,287.629861 187.059174,287.629861 C193.500256,287.629861 198.696401,291.832869 198.696401,297.199109 L198.696401,298.822284 C198.696401,304.17649 193.544578,308.370139 187.139345,308.370139 C186.63746,308.370139 186.102333,308.734485 186.102333,309.18507 C186.102333,309.634986 186.380651,310 186.882536,310" id="Fill-16" fill="#3C6082"></path>
                <path d="M89,310 L188.131268,310 C195.924232,310 202,304.526667 202,297.750667 L202,296.131333 C202,289.578667 196.058083,284 188.131268,284 L89,284 L89,286.666667 L188.131268,286.666667 C194.285732,286.666667 199.309524,291.114667 199.309524,296.131333 L199.309524,297.750667 C199.309524,302.925333 194.07722,308 188.131268,308 L89,308 L89,310 Z" id="Fill-18" fill="#8DA1B5"></path>
                <path d="M53,353 L203.659664,353 C210.806843,353 216,347.307432 216,341.057432 L216,339.360135 C216,333.110135 210.806843,328 203.659664,328 L53,328 C53,328 56.2350815,332.291892 56.2350815,339.934459 C56.2350815,348.697297 53,353 53,353" id="Fill-20" fill="#FCFCF7"></path>
                <path d="M53,329 L163,329 L163,353 L53,353 C53,353 56.2339631,349.143648 56.2339631,340.438161 C56.2339631,332.845612 53,329 53,329" id="Fill-22" fill="#F0F0E2"></path>
                <path d="M201.457495,354 C209.150359,354 215,348.467916 215,341.668947 L215,340.001225 C215,333.384093 208.970037,328 201.054142,328 C200.358612,328 200,328.483128 200,329.078411 C200,329.674358 200.838568,330.156823 201.534099,330.156823 C208.05961,330.156823 213.64419,334.573332 213.64419,340.001225 L213.64419,341.668947 C213.64419,347.278677 208.342975,351.842514 202.039138,351.842514 C201.343607,351.842514 200.488091,352.325642 200.488091,352.921589 C200.488091,353.516872 200.761287,354 201.457495,354" id="Fill-24" fill="#A7A57E"></path>
                <path d="M49,355 L202.36048,355 C210.13216,355 217,348.74005 217,341.719375 L217,340.023775 C217,333.249475 210.541408,328 202.36048,328 L49,328 L49,330.7 L202.36048,330.7 C207.14848,330.7 213.64,336.45505 213.64,340.023775 L213.64,341.719375 C213.64,347.404225 208.611424,352.975 202.36048,352.975 L49,352.975 L49,355 Z" id="Fill-26" fill="#DC5164"></path>
                <path d="M197,402 L157.050428,402 C150.6685,402 146,397.054125 146,391.378813 L146,389.837438 C146,384.161437 150.6685,380 157.050428,380 L197,380 C197,380 194.111843,383.545437 194.111843,390.486438 C194.111843,398.44425 197,402 197,402" id="Fill-28" fill="#FCFCF7"></path>
                <path d="M157.0223,402 C157.348781,402 157.668643,401.869476 157.853207,401.631855 C158.137775,401.267057 157.995859,400.787799 157.537757,400.562896 C155.309749,399.44976 150.952265,399.959139 150.952265,389.999146 C150.952265,383.747377 157.470108,380.470218 157.536286,380.438089 C157.995124,380.212516 158.137775,379.733259 157.853943,379.36846 C157.570846,379.003662 156.970093,378.890541 156.51052,379.116114 C156.203893,379.266719 149,382.890603 149,389.999146 C149,398.086955 156.203158,401.732258 156.509785,401.882863 C156.670084,401.961847 156.847295,402 157.0223,402" id="Fill-30" fill="#A7A57E"></path>
                <path d="M93.80536,380 L199,380 L199,381.314286 L153.628663,381.314286 C151.750103,383.285714 149.327394,385.983286 149.327394,390.0464 C149.327394,395.406714 152.534971,399.057143 154.429714,400.371429 L199,400.371429 L199,403 L93.80536,403 C86.89056,403 81,398.788371 81,391.227943 L81,389.754629 C81,383.747029 86.4131657,380 93.80536,380" id="Fill-32" fill="#DC5164"></path>
                <path d="M127,391.6196 C127,384.985086 130.459095,380 130.459095,380 L137,380 C137,380 133.540905,384.985086 133.540905,391.6196 C133.540905,399.226029 137,403 137,403 L130.459095,403 C130.459095,403 127,399.226029 127,391.6196" id="Fill-34" fill="#C4BA03"></path>
                <path d="M96,391.6196 C96,384.985086 99.458671,380 99.458671,380 L106,380 C106,380 102.540681,384.985086 102.540681,391.6196 C102.540681,399.226029 106,403 106,403 L99.458671,403 C99.458671,403 96,399.226029 96,391.6196" id="Fill-36" fill="#C4BA03"></path>
                <path d="M97,268 L137.456604,268 C141.743826,268 146,264.697273 146,261.162909 L146,260.203273 C146,256.668909 141.743826,254 137.456604,254 L97,254 C97,254 98.9404537,256.357727 98.9404537,260.679909 C98.9404537,265.635273 97,268 97,268" id="Fill-38" fill="#FCFCF7"></path>
                <path d="M137,268 L178.166011,268 C182.38953,268 186,264.998667 186,261.295333 L186,260.290667 C186,256.588 182.38953,254 178.166011,254 L137,254 C137,254 141.286685,256.136667 141.286685,260.664667 C141.286685,265.856 137,268 137,268" id="Fill-40" fill="#613D3B"></path>
                <path d="M136.543001,268 C136.361442,268 136.184134,267.914135 136.081513,267.759318 C135.923636,267.521238 136.002575,267.207051 136.257,267.06004 C136.405162,266.972874 139.915504,264.858776 139.915504,260.153771 C139.915504,256.066733 136.294648,253.924014 136.257607,253.903198 C136.002575,253.755537 135.923636,253.44265 136.080906,253.20392 C136.238783,252.965189 136.667481,252.946325 136.922514,253.093987 C137.092536,253.192211 141,255.50666 141,260.153771 C141,265.441617 136.998416,267.824367 136.828395,267.923892 C136.739133,267.975281 136.640156,268 136.543001,268" id="Fill-42" fill="#3C6082"></path>
                <path d="M178.338196,269 L94,269 L94,267.666667 L178.338196,267.666667 C181.944304,267.666667 185.652174,264.371333 185.652174,260.962 L185.652174,259.957333 C185.652174,256.822 182.192304,254.333333 178.338196,254.333333 L94,254.333333 L94,253 L178.338196,253 C183.308978,253 187,255.856667 187,259.957333 L187,260.962 C187,265.274 182.987522,269 178.338196,269" id="Fill-44" fill="#613D3B"></path>
                <path d="M173,253 L125.944155,253 C123.100756,253 121,249.828 121,246.934 L121,246.148 C121,243.254 123.100756,241 125.944155,241 L173,241 C173,241 171.712615,243.198667 171.712615,246.738 C171.712615,250.795333 173,253 173,253" id="Fill-46" fill="#FCFCF7"></path>
                <path d="M124.529538,252 C124.632079,252 124.732766,251.936414 124.790831,251.822731 C124.8804,251.646103 125.095982,251.651884 124.951437,251.542696 C124.867428,251.478468 122.615861,249.677513 122.615861,246.199563 C122.615861,243.17699 124.670995,241.593126 124.691379,241.577069 C124.835924,241.468524 124.8804,241.23666 124.791449,241.060675 C124.70188,240.883406 124.23983,241.140318 124.095285,241.248864 C123.998922,241.322084 122,242.762719 122,246.199563 C122,250.109126 124.270716,251.870902 124.367697,251.944122 C124.417732,251.982658 124.473944,252 124.529538,252" id="Fill-48" fill="#3C6082"></path>
                <path d="M97.286579,239 L172,239 L172,240.999691 L123.444959,240.999691 C122.634106,241.949344 121.64091,243.552844 121.64091,245.728546 C121.64091,248.254929 122.660154,250.001647 123.477019,251.000154 L172,251.000154 L172,252 L124.47489,252 L97.286579,252 L97.2558547,252 C97.2171154,252 97.179044,251.993308 97.1396368,251.991969 C94.1827593,251.906306 92,249.265483 92,245.826255 L92,245.01112 C92,241.687671 94.0445001,239 97.286579,239" id="Fill-50" fill="#E2C95E"></path>
                <mask id="mask-4" fill="white">
                    <use xlink:href="#path-3"></use>
                </mask>
                <g id="Clip-53"></g>
                <polygon id="Fill-52" fill="#006D9A" mask="url(#mask-4)" points="65 380 208 380 208 355 65 355"></polygon>
                <polygon id="Fill-54" fill="#EFEDC7" mask="url(#mask-4)" points="194 380 198 380 198 355 194 355"></polygon>
                <polygon id="Fill-55" fill="#EFEDC7" mask="url(#mask-4)" points="186 380 193 380 193 355 186 355"></polygon>
                <polygon id="Fill-56" fill="#DC5164" mask="url(#mask-4)" points="71 284 204 284 204 269 71 269"></polygon>
                <polygon id="Fill-57" fill="#EFEDC7" mask="url(#mask-4)" points="76 284 81 284 81 269 76 269"></polygon>
                <polygon id="Fill-58" fill="#EFEDC7" mask="url(#mask-4)" points="82 284 87 284 87 269 82 269"></polygon>
                <path d="M64,327 L158.043217,327 C164.146592,327 169,324.635217 169,319.431522 L169,318.018261 C169,312.813913 164.146592,312 158.043217,312 L64,312 L64,327 Z" id="Fill-59" fill="#FCFCF7" mask="url(#mask-4)"></path>
                <path d="M58,327 L120,327 L120,312 L58,312 C58,312 59.5602141,315.043696 59.5602141,319.545652 C59.5602141,324.085435 58,327 58,327" id="Fill-60" fill="#F0F0E2" mask="url(#mask-4)"></path>
                <path d="M157.649554,329 L56,329 L56,327.615385 L157.649554,327.615385 C164.672369,327.615385 167.654762,325.024077 167.654762,320.273462 L167.654762,318.773231 C167.654762,314.633923 164.965631,313.076923 157.649554,313.076923 L56,313.076923 L56,311 L157.649554,311 C162.896655,311 169,312.039154 169,318.773231 L169,320.273462 C169,324.227231 167.752964,329 157.649554,329" id="Fill-61" fill="#E2C95E" mask="url(#mask-4)"></path>
                <path d="M0,26.5 C0,29.5376791 1.79039986,32 3.99965154,32 C6.20890321,32 8,29.5376791 8,26.5 C8,23.4623209 6.20890321,21 3.99965154,21 C1.79039986,21 0,23.4623209 0,26.5" id="Fill-62" fill="#FCFCF7" mask="url(#mask-4)"></path>
                <path d="M88.0176868,33.3864741 L127.673475,35 C127.680958,34.992851 127.68572,34.9885616 127.692522,34.9814126 L128,26.633543 C127.993197,26.6256792 127.989796,26.6213898 127.982313,26.6135259 L88.3265251,25 C88.3190422,25.007149 88.3149606,25.0114384 88.3074778,25.0178725 L88,33.3671719 C88.0068026,33.3743208 88.0102039,33.3786102 88.0176868,33.3864741" id="Fill-63" fill="#E2C95E" mask="url(#mask-4)"></path>
                <path d="M60.0172656,32.8846395 L88.6408754,34 C88.6484723,33.9937417 88.652616,33.9895696 88.6602129,33.982616 L89,25.1348307 C88.9930938,25.1278771 88.98895,25.1237049 88.9820438,25.1160559 L60.3591246,24 C60.3515277,24.0069536 60.3480746,24.0111258 60.3404777,24.0180794 L60,32.8651693 C60.0062156,32.8728183 60.0103594,32.8769905 60.0172656,32.8846395" id="Fill-64" fill="#E2C95E" mask="url(#mask-4)"></path>
                <path d="M31.3824022,32.8878047 L59.5760572,33.9999692 C59.5876246,34.0006626 59.5985115,33.9895687 59.5991919,33.9750079 L59.9999657,23.4226194 C60.0006461,23.4080586 59.9911201,23.3962714 59.9788723,23.395578 L31.7858977,22.2834135 C31.77365,22.2827201 31,21.9859581 31,22.0005188 L31.3619892,32.8614567 C31.3613088,32.8753241 31.3701544,32.8871113 31.3824022,32.8878047" id="Fill-65" fill="#E2C95E" mask="url(#mask-4)"></path>
                <path d="M3.01718172,32.9404472 L31.5010428,34 C31.5086027,33.9933943 31.5127263,33.9900915 31.5202863,33.9834858 L32,22.0787093 C31.9931273,22.0707825 31.9890037,22.0674797 31.9828183,22.0602134 L3.49758271,21 C3.49002275,21.0066057 3.48658641,21.0105691 3.47902645,21.0171748 L3,32.9219512 C3.00618542,32.9292175 3.01030903,32.9331809 3.01718172,32.9404472" id="Fill-66" fill="#E2C95E" mask="url(#mask-4)"></path>
                <path d="M126.413911,35 L126.586089,35 C126.813716,35 127,34.7421454 127,34.4270646 L127,26.5729354 C127,26.2578546 126.813716,26 126.586089,26 L126.413911,26 C126.186284,26 126,26.2578546 126,26.5729354 L126,34.4270646 C126,34.7421454 126.186284,35 126.413911,35" id="Fill-67" fill="#E0DA8A" mask="url(#mask-4)"></path>
                <path d="M88.4137093,34 L88.5858046,34 C88.8138065,34 89,33.7483244 89,33.4407938 L89,24.5585491 C89,24.2516756 88.8138065,24 88.5858046,24 L88.4137093,24 C88.1861935,24 88,24.2516756 88,24.5592062 L88,33.4407938 C88,33.7483244 88.1861935,34 88.4137093,34" id="Fill-68" fill="#E0DA8A" mask="url(#mask-4)"></path>
                <path d="M59.4141954,35 L59.5862907,35 C59.8138065,35 60,34.7371311 60,34.4159231 L60,23.5840769 C60,23.2628689 59.8138065,23 59.5862907,23 L59.4141954,23 C59.1861935,23 59,23.2628689 59,23.5840769 L59,34.4159231 C59,34.7371311 59.1861935,35 59.4141954,35" id="Fill-69" fill="#E0DA8A" mask="url(#mask-4)"></path>
                <path d="M31.5862907,34 L31.4141954,34 C31.1861935,34 31,33.7532706 31,33.4517839 L31,21.5482161 C31,21.2473736 31.1861935,21 31.4141954,21 L31.5862907,21 C31.8138065,21 32,21.2473736 32,21.5482161 L32,33.4517839 C32,33.7532706 31.8138065,34 31.5862907,34" id="Fill-70" fill="#E0DA8A" mask="url(#mask-4)"></path>
                <path d="M2.41370929,34 L2.58580457,34 C2.81380651,34 3,33.7402383 3,33.4228272 L3,20.5771728 C3,20.2597617 2.81380651,20 2.58580457,20 L2.41370929,20 C2.18619349,20 2,20.2597617 2,20.5771728 L2,33.4228272 C2,33.7402383 2.18619349,34 2.41370929,34" id="Fill-71" fill="#E0DA8A" mask="url(#mask-4)"></path>
                <path d="M150.784009,52 C150.784009,52 160.249937,78.848294 150.814039,63.5624785 C150.809469,63.5549964 150.797718,63.5740416 150.79119,63.5788029 C150.388398,63.564519 149.992788,63.6828714 149.639611,63.8869271 C149.216582,63.6787902 148.728923,63.6236952 148.262808,63.7053175 C148.194914,63.5720011 145.093354,72.1151348 145,71.998823 L147.929868,63.2108224 C147.876989,63.1448444 147.814971,63.0945106 147.75687,63.037375 C147.86328,62.7190481 146.423806,71.8444208 146.57722,71.4512734 C146.526952,69.4256801 145.628668,53.3420066 145.628668,53.3420066 C150.453681,52.5393873 150.784009,52 150.784009,52" id="Fill-72" fill="#F9F7E8" mask="url(#mask-4)"></path>
                <path d="M89.6781009,30.9587175 C89.9635845,31.5136976 90.3353929,32.0147768 90.7772128,32.4486462 C91.5072351,33.4780878 92.723939,34.2979146 93.3431665,34.3471575 C93.4526019,34.3558082 93.5899059,34.3138853 93.7435233,34.2433482 C94.2302048,34.3691171 94.7563103,34.4449777 95.3327153,34.4449777 C95.571298,34.4449777 95.7962863,34.4243489 96.0178759,34.400393 C96.1986822,34.4216872 96.3808479,34.4369924 96.5650528,34.4449777 C96.6826449,34.4503012 96.7981977,34.4416505 96.9144303,34.4383233 C96.8682092,35.5017025 96.329189,37.0634992 94.8270015,38.9839701 C92.3562089,42.141501 90.4380311,44.3055244 90.4380311,44.3055244 C90.4380311,44.3055244 93.1297335,56.0359682 97.0823219,60.6188799 C101.034231,65.2017916 91.0205536,63.3804718 89.7508313,64 C89.7508313,64 84.8683821,52.8059039 84.201574,46.1947194 C84.201574,46.1947194 80.1918889,37.9937896 80.0015665,34.5927062 C79.8846542,32.5018817 86.3406618,28.0467353 89.6781009,30.9587175" id="Fill-73" fill="#F9F7E8" mask="url(#mask-4)"></path>
                <path d="M154.710856,224.351254 C154.710856,224.351254 157.843032,234.291747 157.998411,236.771276 C158.15379,239.250804 146.862934,239.323054 145.794705,238.605666 C144.725828,237.887639 142.197039,226.00406 143.25232,225.660711 C144.3076,225.317363 154.345068,223.170313 154.710856,224.351254" id="Fill-74" fill="#5C3938" mask="url(#mask-4)"></path>
                <path d="M155,225.591684 C155,225.591684 153.106515,227.389985 149.911342,228.711653 C146.716168,230.032648 142.492897,226.386298 142.492897,226.386298 C138.034744,215.855309 132,149.447224 132,149.447224 C132,149.447224 146.813926,132.833606 148.048037,137.993891 C149.281492,143.154849 144.132474,166.247058 145.971503,180.11314 L155,225.591684 Z" id="Fill-75" fill="#09648F" mask="url(#mask-4)"></path>
                <path d="M134.85578,225.636045 C134.85578,225.636045 130.559162,233.166713 129.450134,233.778141 C128.340416,234.389569 120.4474,233.762396 119.719558,234.350863 C118.991715,234.939986 119.000002,238.789621 119.000002,238.789621 C120.890045,239.387928 130.311944,240.006573 133.757801,239.986235 C137.203659,239.965242 145.960556,240.265708 147.976279,238.873594 C148.298767,237.944643 145.241,226.298644 144.394383,225.075132 C143.549147,223.850308 135.274255,223.246096 134.85578,225.636045" id="Fill-76" fill="#613D3B" mask="url(#mask-4)"></path>
                <path d="M116.002219,135.137209 C116.002219,135.137209 115.825085,177.343002 118.635753,186.721992 C121.44575,196.100306 128.954507,219.798046 129.58991,221.819071 C129.58991,221.819071 129.58991,224.067732 129.796567,225.178215 C130.003224,226.289374 131.936271,230.478003 133.105761,231.341262 C134.275251,232.205197 142.686455,232.804344 144.445051,229.214862 C144.445051,229.214862 140.795679,214.18889 139.304126,208.09947 C137.813244,202.010725 134.002169,164.549478 134.646294,150.83393 C134.646294,150.83393 145.739341,144.795846 147.071204,141.066541 C148.278268,137.687132 149.033103,133.638326 148.998884,133.078356 C148.963993,132.519062 116.002219,135.137209 116.002219,135.137209" id="Fill-77" fill="#006D9A" mask="url(#mask-4)"></path>
                <path d="M152.859456,135.121234 C152.859456,135.121234 148.984023,113.832524 153.200264,99.3770769 C157.416505,84.9216297 165.895858,68.1798653 162.003685,61.4628787 C162.003685,61.4628787 158.806519,60.6009466 154.775078,61.4628787 C150.744305,62.3254869 143.377098,61.9922065 143.377098,61.9922065 C143.377098,61.9922065 136.148491,62.4661001 134.342009,62.8865878 C132.534857,63.3077515 120.71907,72.8518755 113.491132,74.1146906 C106.262524,75.3775057 96.3094632,53.2586367 94.7808498,50.477469 C93.2515667,47.6969772 85.2851004,49.2389908 85.0072315,51.8234352 C84.7293627,54.4078796 92.5009861,77.903812 101.119607,82.3953235 C109.738229,86.886159 123.776966,83.6581386 123.776966,83.6581386 C123.776966,83.6581386 112.964855,112.525767 115.605613,137.36699 C115.605613,137.36699 135.316223,142.2533 152.859456,135.121234" id="Fill-78" fill="#DC5164" mask="url(#mask-4)"></path>
                <path d="M141,61.7629095 C141,61.7629095 142.156799,58.277943 142.735896,58.0285458 C143.314295,57.7797481 156.046054,59.2737334 159.807045,58.0285458 C159.807045,58.0285458 160.241193,59.8960274 159.807045,61.3894132 C159.807045,61.3894132 155.322706,64.7496811 141,61.7629095" id="Fill-79" fill="#5F2D34" mask="url(#mask-4)"></path>
                <path d="M120.188913,34.4044866 C123.355072,34.5574094 124.806912,32.5310121 125.500706,33.1015578 C126.1945,33.6721035 126.294296,35.9659441 123.809627,39.2198375 C121.324957,42.4744167 119.396006,44.7044824 119.396006,44.7044824 C119.396006,44.7044824 122.102826,56.7922337 126.076931,61.5156938 C130.051718,66.2384682 119.981117,64.3615648 118.704947,65 C118.704947,65 113.795076,53.4635933 113.125206,46.6506467 C113.125206,46.6506467 107.549567,36.0393195 107,33.9656053 C111.406102,34.43946 115.754786,34.190532 120.188913,34.4044866" id="Fill-80" fill="#F9F7E8" mask="url(#mask-4)"></path>
                <path d="M113.007338,55.7616458 C113.289284,53.2336128 121.372666,51.7252573 122.924393,54.4457196 C124.47544,57.1655207 134.574572,78.802256 141.909266,77.5663435 C147.017599,76.706032 154.379469,71.9184414 159,68.9513255 C157.855228,71.2717199 156.693471,73.5769051 155.331294,75.8040605 C153.041071,79.5475066 151.166634,83.4126264 149.562594,87.3895006 C144.97875,88.0626729 135.715268,88.8608251 129.355498,85.6662325 C120.61107,81.2734198 112.725391,58.2896787 113.007338,55.7616458" id="Fill-81" fill="#DC5164" mask="url(#mask-4)"></path>
                <path d="M137.732897,18.9146784 C137.732897,18.9146784 137.592246,25.4197658 134.703495,34.6585324 C131.734952,44.1503046 130.55362,45.8922555 130.144516,47.9359191 C128.208538,57.6211662 146.278786,57.3329833 151.140706,53.560222 C156.003302,49.7888137 162.278492,28.4098331 162.98107,24.0769415 C163.683648,19.7447265 144.637635,4.83700901 137.732897,18.9146784" id="Fill-82" fill="#F9F7E8" mask="url(#mask-4)"></path>
                <path d="M154.851177,43.1812215 C154.851177,43.1812215 149.878501,40.0053792 152.314475,30.973437 C153.173062,27.7866578 152.724239,25.0920452 152.724239,25.0920452 C152.724239,25.0920452 153.871305,27.0750668 147.788566,21.4144663 C145.804155,19.5667906 138.046726,22.228592 135.118076,20.0104241 C132.189425,17.7929398 126.930326,8.3235161 136.412465,5.25020858 C146.204326,2.07573347 156.938371,-0.679032827 152.64955,2.23158626 C136.122615,13.4475181 162.887492,10.5895335 168.633101,18.1060125 C168.633101,18.1060125 167.716956,15.0463763 169.228561,15.0320214 C172.206548,15.0026281 169.395071,18.1613813 169.395071,18.1613813 C169.395071,18.1613813 171.345906,15.5843418 172.520381,17.8708662 C173.694171,20.1573906 170.0337,20.1854167 170.0337,20.1854167 C170.0337,20.1854167 178.078924,30.5564625 167.670361,41.1660723 C167.670361,41.1660723 158.857686,49.1877057 158.552075,51.0620405 C158.246465,52.9370589 155.853661,50.1016319 155.853661,50.1016319 C155.853661,50.1016319 157.562611,54.5687281 153.508136,52.4113975 C146.792249,48.8384041 154.851177,43.1812215 154.851177,43.1812215" id="Fill-83" fill="#613D3B" mask="url(#mask-4)"></path>
                <path d="M150.696128,37.430507 C150.696128,37.430507 153.760466,34.6729638 156.924589,36.815051 C160.088712,38.9578888 155.889225,47.6140527 149.304791,42.3023669 C149.304791,42.3023669 148.029517,40.966377 150.696128,37.430507" id="Fill-84" fill="#F9F7E8" mask="url(#mask-4)"></path>
                <path d="M149.598364,39.1483971 C149.624554,39.1731819 149.644373,39.2032242 149.671978,39.2265069 C150.637457,40.0594274 151.935615,40.3928961 153.032042,39.5562202 C153.963544,38.8457217 154.149703,37.7687081 154.052023,36.6533907 C154.032912,36.4288251 153.979117,36.2215338 153.911165,36.0225041 C154.832758,35.9323774 155.871143,36.0968586 156.924392,36.8103613 C160.089095,38.9538737 155.888839,47.6165479 149.303199,42.3013281 C149.303199,42.3013281 148.453805,41.4060699 149.598364,39.1483971" id="Fill-85" fill="#F9F7E8" mask="url(#mask-4)"></path>
                <path d="M151,40.042871 C151,40.042871 155.978705,40.8463616 158,38 C158,38 157.26393,43.0534178 151,40.042871" id="Fill-86" fill="#F9F7E8" mask="url(#mask-4)"></path>
                <path d="M141.332562,22.2408623 C141.332562,22.2408623 140.428882,23.5776195 141.600832,25.2480233 C142.771398,26.9177033 145.50249,25.0453747 146.968292,28.1140541 C148.434093,31.1827334 149.113755,25.4072472 143.53403,23.9894305 C143.53403,23.9894305 143.112266,21.1755094 141.332562,22.2408623" id="Fill-87" fill="#613D3B" mask="url(#mask-4)"></path>
                <path d="M138,31 C138,31 138.043065,31.0585379 138.120043,31.1449171 C138.118428,31.1413477 138.114122,31.127784 138.114122,31.127784 C138.114122,31.127784 138.12112,31.1406338 138.129194,31.1556253 C138.321909,31.372644 138.731563,31.7724153 139.350081,32.0458303 C140.182846,32.4134772 141,32.1222152 141,32.1222152 C141,32.1222152 140.153239,32.6954587 139.32478,32.3856359 C139.258568,32.3613641 139.198277,32.3249564 139.136372,32.2914041 C139.198816,32.3392339 139.259645,32.3884915 139.327472,32.4348935 C140.108021,32.9681599 140.949399,32.845373 140.949399,32.845373 C140.949399,32.845373 140.046115,33.240861 139.263413,32.7668464 C138.69442,32.4220437 138.347748,31.7174467 138.199713,31.3562248 C138.069442,31.1506281 138,31 138,31" id="Fill-88" fill="#52708E" mask="url(#mask-4)"></path>
                <path d="M138,42 C137.881249,42.4375099 137.649207,42.8250595 137.353694,43.1612213 C137.058864,43.4995242 136.678041,43.7807296 136.218734,43.9306106 C135.755332,44.0697859 135.211397,43.998414 134.818973,43.7272006 C134.406757,43.47954 134.159017,43.0698652 134,42.6594766 C134.379457,42.8850119 134.698174,43.126249 135.046238,43.2233148 C135.383382,43.3325139 135.706876,43.3460745 136.032418,43.2447264 C136.361372,43.1498017 136.682819,42.9563838 137.00836,42.7408406 C137.331172,42.5181602 137.651254,42.2655036 138,42" id="Fill-89" fill="#BFACAE" mask="url(#mask-4)"></path>
                <path d="M151.633312,30 C151.633312,30 148.512791,34.4820404 147.057049,38.7661011 C146.790106,39.5525205 147.512765,40.3025061 148.129457,39.8762998 C149.663371,38.8176584 152.315437,37.0440902 151.969163,35.5516807 C151.814556,34.8876238 151.633312,30 151.633312,30" id="Fill-90" fill="#613D3B" mask="url(#mask-4)"></path>
                <path d="M135,33.4360013 C134.016898,31.8784711 129.377354,34.8301311 134.050759,37" id="Fill-91" fill="#F9F7E8" mask="url(#mask-4)"></path>
                <path d="M135,66 C136.334069,66.3596473 137.60378,66.9860661 138.718632,67.8298541 C139.834825,68.6690312 140.789455,69.7644406 141.381406,71.0554824 C141.954587,72.3524524 142.13425,73.8114613 141.900285,75.1841812 C141.68241,76.5621707 141.131352,77.8505776 140.400631,79 C140.898728,77.7346473 141.260067,76.4317491 141.381406,75.12424 C141.496713,73.8167308 141.299619,72.5039522 140.768673,71.3222537 C140.238398,70.1372619 139.384326,69.1044285 138.386121,68.2244122 C137.376519,67.3536178 136.238874,66.5967775 135,66" id="Fill-92" fill="#5F2D34" mask="url(#mask-4)"></path>
                <path d="M80,33.0411835 C80.1237521,31.1606139 80.4162572,28.6455003 81.0581801,25.450377 C81.599513,22.7553771 92.6293364,24.2636546 93.9992131,26.3524442 C94.0336254,26.3003892 92.923165,32.7222642 93.8522988,34.7392311 C94.4359853,36.0083191 88.1755828,36.6863521 83.8806555,37 C83.4418979,35.1418338 82.1487872,33.5195625 80,33.0411835" id="Fill-93" fill="#F9F7E8" mask="url(#mask-4)"></path>
                <path d="M115,28.5 C115,30.4328574 115.671633,32 116.499713,32 C117.328367,32 118,30.4328574 118,28.5 C118,26.5671426 117.328367,25 116.499713,25 C115.671633,25 115,26.5671426 115,28.5" id="Fill-94" fill="#F9F7E8" mask="url(#mask-4)"></path>
                <path d="M112,28.5 C112,30.4328574 112.671633,32 113.500287,32 C114.328367,32 115,30.4328574 115,28.5 C115,26.5671426 114.328367,25 113.500287,25 C112.671633,25 112,26.5671426 112,28.5" id="Fill-95" fill="#F9F7E8" mask="url(#mask-4)"></path>
                <path d="M109,27.5 C109,29.4328574 109.672078,31 110.5,31 C111.328495,31 112,29.4328574 112,27.5 C112,25.5671426 111.328495,24 110.5,24 C109.672078,24 109,25.5671426 109,27.5" id="Fill-96" fill="#F9F7E8" mask="url(#mask-4)"></path>
                <path d="M105,27.5 C105,29.4328574 105.671505,31 106.5,31 C107.327922,31 108,29.4328574 108,27.5 C108,25.5671426 107.327922,24 106.5,24 C105.671505,24 105,25.5671426 105,27.5" id="Fill-97" fill="#F9F7E8" mask="url(#mask-4)"></path>
                <path d="M90,26.5 C90,28.4328574 90.6720779,30 91.5,30 C92.328495,30 93,28.4328574 93,26.5 C93,24.5671426 92.328495,23 91.5,23 C90.6720779,23 90,24.5671426 90,26.5" id="Fill-98" fill="#F9F7E8" mask="url(#mask-4)"></path>
                <path d="M88,26.5 C88,28.4328574 88.6716332,30 89.4997135,30 C90.3283668,30 91,28.4328574 91,26.5 C91,24.5671426 90.3283668,23 89.4997135,23 C88.6716332,23 88,24.5671426 88,26.5" id="Fill-99" fill="#F9F7E8" mask="url(#mask-4)"></path>
                <path d="M85,26.5 C85,28.4328574 85.6720779,30 86.5,30 C87.328495,30 88,28.4328574 88,26.5 C88,24.5671426 87.328495,23 86.5,23 C85.6720779,23 85,24.5671426 85,26.5" id="Fill-100" fill="#F9F7E8" mask="url(#mask-4)"></path>
                <path d="M81,26.5 C81,28.4328574 81.671505,30 82.5,30 C83.3279221,30 84,28.4328574 84,26.5 C84,24.5671426 83.3279221,23 82.5,23 C81.671505,23 81,24.5671426 81,26.5" id="Fill-101" fill="#F9F7E8" mask="url(#mask-4)"></path>
                <path d="M150.992089,93.0360822 C150.994246,93.0240606 150.997123,93.012039 150.997123,93.0006853 C150.992808,93.0040246 150.984896,93.0193855 150.980581,93.0287357 L150.951812,93.0961901 L150.900029,93.2337705 L150.802215,93.5095992 L150.614499,94.0652637 L150.244102,95.1772607 L149.542865,97.4112726 C149.074654,98.8999459 148.625862,100.393294 148.206558,101.893321 C147.360758,104.890704 146.5502,107.896769 145.929515,110.936895 C145.258485,113.965668 144.752155,117.029169 144.559405,120.108032 C144.464468,121.645459 144.464468,123.192905 144.68383,124.716975 C144.890245,126.23036 145.316741,127.775134 146.367518,129 C145.185124,127.869303 144.658657,126.289132 144.335009,124.767733 C144.04013,123.221623 143.977558,121.649466 144.006326,120.087996 C144.087598,116.959043 144.605435,113.866156 145.224681,110.806661 C145.909377,107.757185 146.713462,104.733756 147.676495,101.754405 C148.161247,100.2664 148.669734,98.7844051 149.209148,97.3130962 L150.065017,95.1211599 L150.51309,94.0318704 L150.751151,93.4929026 L150.875575,93.2244204 L150.940305,93.0915151 L150.974827,93.0260642 C150.98202,93.0180498 150.983458,92.9993496 151,93.0000174 C150.999281,93.0127069 150.994965,93.0240606 150.992089,93.0360822" id="Fill-102" fill="#5F2D34" mask="url(#mask-4)"></path>
            </g>
        </g>
    </g>
</svg>