<?xml version="1.0" encoding="utf-8"?>
<!-- Generator: Adobe Illustrator 23.0.1, SVG Export Plug-In . SVG Version: 6.00 Build 0)  -->
<svg version="1.1" id="圖層_1" xmlns="http://www.w3.org/2000/svg" xmlns:xlink="http://www.w3.org/1999/xlink" x="0px" y="0px"
	 viewBox="0 0 555.89 209.83" style="enable-background:new 0 0 555.89 209.83;" xml:space="preserve">
<style type="text/css">
	.st0{fill:#00A5E3;}
	.st1{fill:#F5AF1F;}
	.st2{fill:#FFFFFF;}
</style>
<g>
	<g>
		<path class="st0" d="M184.79,182.05h0.91c1.65,0,2.99,1.34,2.99,2.99v24.06c0,0.02-0.02,0.04-0.04,0.04h-6.72
			c-0.02,0-0.04-0.02-0.04-0.04v-2.73c0-0.03-0.04-0.05-0.07-0.03c-1.3,1.23-2.61,2.12-3.92,2.66c-1.33,0.56-2.78,0.83-4.34,0.83
			c-3.5,0-6.52-1.36-9.08-4.07c-2.55-2.71-3.83-6.09-3.83-10.12c0-4.18,1.24-7.61,3.7-10.28c2.47-2.67,5.47-4.01,9-4.01
			c1.62,0,3.15,0.31,4.57,0.92c1.4,0.6,2.7,1.5,3.89,2.7c0.02,0.03,0.07,0.01,0.07-0.02C181.89,183.35,183.19,182.05,184.79,182.05
			 M174.75,187.63c-2.1,0-3.85,0.74-5.23,2.23c-1.39,1.48-2.08,3.39-2.08,5.71c0,2.33,0.7,4.25,2.11,5.76
			c1.45,1.55,3.57,2.37,5.69,2.26c1.93-0.1,3.55-0.84,4.85-2.22c1.41-1.48,2.11-3.43,2.11-5.84c0-2.36-0.7-4.26-2.11-5.73
			C178.68,188.36,176.9,187.63,174.75,187.63"/>
		<path class="st0" d="M205.67,182.05h1.42c1.48,0,2.69,1.21,2.69,2.69c0,0.03,0.04,0.05,0.07,0.03c1.52-1.27,2.89-2.15,4.12-2.65
			c1.25-0.51,2.53-0.76,3.84-0.76c2.68,0,4.96,0.94,6.84,2.81c1.57,1.59,2.36,3.95,2.36,7.07v17.86c0,0.02-0.02,0.04-0.04,0.04
			h-6.64c-0.02,0-0.04-0.02-0.04-0.04v-11.82c0-3.23-0.15-5.38-0.44-6.44c-0.29-1.06-0.79-1.87-1.52-2.42
			c-0.72-0.56-1.61-0.83-2.67-0.83c-1.37,0-2.55,0.46-3.54,1.38c-0.98,0.92-1.67,2.19-2.05,3.82c-0.2,0.85-0.3,2.68-0.3,5.5v10.82
			c0,0.02-0.02,0.04-0.04,0.04h-6.71c-0.02,0-0.04-0.02-0.04-0.04v-24.35C202.98,183.26,204.19,182.05,205.67,182.05"/>
		<path class="st0" d="M254.68,188.05L254.68,188.05c-1.04,1.04-2.68,1.21-3.91,0.4c-0.97-0.63-1.88-0.95-2.73-0.95
			c-0.76,0-1.36,0.16-1.79,0.49c-0.43,0.32-0.65,0.73-0.65,1.21c0,0.37,0.14,0.7,0.41,1.01c0.27,0.31,0.95,0.73,2.03,1.26l2.49,1.24
			c2.62,1.29,4.42,2.61,5.4,3.96s1.47,2.92,1.47,4.73c0,2.41-0.88,4.42-2.65,6.02c-1.77,1.61-4.14,2.42-7.11,2.42
			c-2.7,0-5.03-0.72-6.99-2.17c-1.51-1.12-1.67-3.33-0.4-4.72c1.08-1.18,2.85-1.35,4.19-0.47c0.23,0.15,0.47,0.29,0.72,0.43
			c1.07,0.57,2.02,0.86,2.85,0.86c0.89,0,1.62-0.22,2.16-0.65c0.55-0.43,0.82-0.93,0.82-1.49c0-1.05-0.99-2.07-2.96-3.06l-2.29-1.15
			c-4.38-2.21-6.57-4.97-6.57-8.29c0-2.14,0.83-3.97,2.48-5.49c1.65-1.52,3.76-2.28,6.34-2.28c1.76,0,3.41,0.38,4.97,1.16
			c0.43,0.21,0.84,0.46,1.24,0.72C255.83,184.34,256.08,186.65,254.68,188.05"/>
		<path class="st0" d="M270.95,182.05h0.08c1.88,0,3.4,1.52,3.4,3.4v9.65c0,2.54,0.17,4.3,0.52,5.29c0.35,0.99,0.91,1.75,1.68,2.3
			c0.77,0.55,1.73,0.82,2.86,0.82c1.13,0,2.09-0.27,2.88-0.81c0.79-0.54,1.38-1.33,1.76-2.38c0.28-0.78,0.42-2.45,0.42-5v-9.87
			c0-1.88,1.52-3.4,3.4-3.4c1.88,0,3.4,1.52,3.4,3.4v8.08c0,4.73-0.37,7.97-1.12,9.71c-0.91,2.12-2.26,3.76-4.03,4.89
			c-1.78,1.14-4.03,1.71-6.77,1.71c-2.97,0-5.37-0.66-7.21-1.99c-1.83-1.33-3.12-3.18-3.87-5.55c-0.53-1.64-0.8-4.63-0.8-8.96v-7.88
			C267.55,183.57,269.07,182.05,270.95,182.05"/>
		<path class="st0" d="M306.62,182.05h0.77c1.66,0,3.01,1.35,3.01,3.01c0,0.03,0.04,0.05,0.07,0.02c1.15-1.24,2.41-2.17,3.81-2.79
			c1.42-0.63,2.97-0.95,4.65-0.95c1.7,0,3.22,0.41,4.59,1.24c1.34,0.82,2.43,2.01,3.26,3.58c0.01,0.02,0.05,0.03,0.07,0
			c1.07-1.57,2.39-2.76,3.94-3.58c1.57-0.83,3.28-1.24,5.14-1.24c1.93,0,3.62,0.45,5.08,1.34c1.46,0.9,2.51,2.06,3.15,3.51
			c0.64,1.44,0.96,3.79,0.96,7.05v15.84c0,0.02-0.02,0.04-0.04,0.04h-6.76c-0.02,0-0.04-0.02-0.04-0.04v-13.7
			c0-3.07-0.38-5.15-1.15-6.24c-0.76-1.09-1.91-1.63-3.44-1.63c-1.16,0-2.2,0.33-3.12,0.99c-0.92,0.66-1.61,1.58-2.05,2.75
			c-0.45,1.17-0.67,3.05-0.67,5.64v12.18c0,0.02-0.02,0.04-0.04,0.04h-6.76c-0.02,0-0.04-0.02-0.04-0.04v-13.08
			c0-2.42-0.18-4.18-0.54-5.27c-0.36-1.09-0.89-1.9-1.61-2.43c-0.71-0.53-1.58-0.8-2.59-0.8c-1.13,0-2.16,0.34-3.08,1.01
			c-0.92,0.67-1.61,1.62-2.07,2.83c-0.46,1.21-0.69,3.12-0.69,5.72v12.01c0,0.02-0.02,0.04-0.04,0.04h-6.72
			c-0.02,0-0.04-0.02-0.04-0.04v-24.03C303.61,183.4,304.96,182.05,306.62,182.05"/>
		<path class="st0" d="M360.98,182.05h0.77c1.66,0,3.01,1.35,3.01,3.01c0,0.03,0.04,0.05,0.07,0.02c1.15-1.24,2.41-2.17,3.81-2.79
			c1.42-0.63,2.97-0.95,4.65-0.95c1.7,0,3.22,0.41,4.59,1.24c1.34,0.82,2.43,2.01,3.26,3.58c0.01,0.02,0.05,0.03,0.07,0
			c1.07-1.57,2.39-2.76,3.94-3.58c1.57-0.83,3.28-1.24,5.14-1.24c1.93,0,3.62,0.45,5.08,1.34c1.46,0.9,2.51,2.06,3.15,3.51
			c0.64,1.44,0.96,3.79,0.96,7.05v15.84c0,0.02-0.02,0.04-0.04,0.04h-6.76c-0.02,0-0.04-0.02-0.04-0.04v-13.7
			c0-3.07-0.38-5.15-1.15-6.24c-0.76-1.09-1.91-1.63-3.44-1.63c-1.16,0-2.2,0.33-3.12,0.99c-0.92,0.66-1.61,1.58-2.05,2.75
			c-0.45,1.17-0.67,3.05-0.67,5.64v12.18c0,0.02-0.02,0.04-0.04,0.04h-6.76c-0.02,0-0.04-0.02-0.04-0.04v-13.08
			c0-2.42-0.18-4.18-0.54-5.27c-0.36-1.09-0.89-1.9-1.61-2.43c-0.71-0.53-1.58-0.8-2.59-0.8c-1.13,0-2.16,0.34-3.08,1.01
			c-0.92,0.67-1.61,1.62-2.07,2.83c-0.46,1.21-0.69,3.12-0.69,5.72v12.01c0,0.02-0.02,0.04-0.04,0.04h-6.72
			c-0.02,0-0.04-0.02-0.04-0.04v-24.03C357.97,183.4,359.32,182.05,360.98,182.05"/>
		<path class="st0" d="M415.37,170.92c1.41-0.13,2.6,0.29,3.56,1.27c0.85,0.86,1.28,1.91,1.28,3.14c0,1.21-0.42,2.24-1.27,3.1
			c-0.84,0.85-1.85,1.28-3.03,1.28c-1.21,0-2.24-0.43-3.09-1.31c-0.85-0.87-1.28-1.93-1.28-3.17c0-1.35,0.54-2.47,1.61-3.38
			C413.78,171.33,414.56,171,415.37,170.92 M415.87,182.05L415.87,182.05c1.88,0,3.4,1.52,3.4,3.4v23.65c0,0.02-0.02,0.04-0.04,0.04
			h-6.72c-0.02,0-0.04-0.02-0.04-0.04v-23.65C412.47,183.57,413.99,182.05,415.87,182.05"/>
		<path class="st0" d="M439.28,172.07L439.28,172.07c1.88,0,3.4,1.52,3.4,3.4v6.54c0,0.02,0.02,0.04,0.04,0.04h3.95
			c0.02,0,0.04,0.02,0.04,0.04v5.77c0,0.02-0.02,0.04-0.04,0.04h-3.95c-0.02,0-0.04,0.02-0.04,0.04v21.15
			c0,0.02-0.02,0.04-0.04,0.04h-6.72c-0.02,0-0.04-0.02-0.04-0.04v-21.15c0-0.02-0.02-0.04-0.04-0.04h-3.4
			c-0.02,0-0.04-0.02-0.04-0.04v-5.77c0-0.02,0.02-0.04,0.04-0.04h3.4c0.02,0,0.04-0.02,0.04-0.04v-6.54
			C435.88,173.59,437.4,172.07,439.28,172.07"/>
		<path class="st0" d="M121.72,174.73c0-1.22,0.99-2.22,2.22-2.22h6.04c5.32,0,9.28,0.66,11.86,1.98c2.59,1.32,4.72,3.46,6.39,6.44
			c1.67,2.97,2.51,6.44,2.51,10.41c0,2.82-0.47,5.41-1.41,7.78c-0.94,2.37-2.23,4.33-3.88,5.89c-1.65,1.56-3.44,2.64-5.36,3.24
			c-1.92,0.6-5.26,0.89-10,0.89h-6.2c-1.21,0-2.18-0.98-2.18-2.18V174.73z M128.64,181.45v18.7c0,1.2,0.98,2.18,2.18,2.18h1.05
			c3.19,0,5.5-0.37,6.93-1.1c1.43-0.73,2.61-1.96,3.52-3.69c0.91-1.73,1.37-3.85,1.37-6.38c0-3.89-1.09-6.9-3.26-9.05
			c-1.96-1.93-5.1-2.89-9.43-2.89h-0.15C129.63,179.24,128.64,180.23,128.64,181.45"/>
		<path class="st1" d="M140.58,190.79c0,2.43-1.97,4.41-4.41,4.41c-2.43,0-4.41-1.98-4.41-4.41c0-2.43,1.97-4.41,4.41-4.41
			C138.6,186.38,140.58,188.35,140.58,190.79"/>
	</g>
	<path class="st0" d="M554.64,32.66l1.13-9.86c0.63-5.59-1.26-11.1-5.19-15.12c-3.8-3.89-9.03-5.9-14.45-5.57l-50.51,2.53
		l-38.46,1.3L446.28,6c-5.22,0.44-9.79,2.98-12.88,6.76c-4.25-5.4-11-8.38-17.88-7.81L404.27,5.9c-1.2,0.1-2.38,0.31-3.53,0.61
		c-3.81-2.48-8.35-3.65-12.96-3.26l-12.02,1.01c-2.67,0.23-5.19,0.95-7.46,2.08c-3.04-1.32-6.41-1.91-9.85-1.62l-11.84,1
		c-6.34,0.54-11.98,3.91-15.47,9.23c-0.65,0.99-1.17,2.02-1.63,3.08c-10.18-10.49-26.31-16.55-45.8-16.55c-0.02,0-0.05,0-0.07,0
		c-14.95,0.01-28.56,6.04-39.36,17.43c-9.01,9.5-15.59,22.46-19,36.61c-3.14-1.58-6.65-2.46-10.31-2.46c-2.78,0-5.47,0.52-7.97,1.46
		l1.7-20.3c0.63-7.59-1.96-15.16-7.12-20.77c-5.16-5.61-12.49-8.82-20.1-8.82c-14.08,0-26.04,10.99-27.22,25.03l-1.78,21.24
		c-2.43-0.78-5-1.19-7.67-1.19c-6.42,0-12.38,2.43-16.89,6.53c-0.98-1.08-2.04-2.08-3.18-2.96l1.68-24.6
		c0.59-7.84-2.29-15.51-7.91-21.02s-13.33-8.26-21.04-7.54l-34.3,2.93C57.82,3.5,53.01,5.65,49.23,8.95
		c-3.13-0.93-6.44-1.32-9.78-1.03c-12.98,1.1-23.16,11.32-24.21,24.3l-1.54,19.11C7.43,54.68,2.72,60.73,1.26,68.08l-0.82,4.17
		c-1.33,6.71,0.4,13.59,4.74,18.88c1.44,1.76,3.11,3.26,4.95,4.49l-1.03,12.7c-0.59,7.36,1.94,14.69,6.94,20.12
		c5.01,5.43,12.11,8.54,19.5,8.54c10.85,0,20.36-6.71,24.42-16.27c2.93,4.22,7.26,7.5,12.53,9.07l-0.04,0.5l14.27,3.44l4.3,1.12
		c2.02,0.55,4.07,0.82,6.12,0.82c4.75,0,9.42-1.46,13.39-4.28c2.28-1.62,4.2-3.62,5.73-5.86c0.86,1.62,1.9,3.15,3.16,4.51
		c4.07,4.42,9.85,6.95,15.86,6.95h57.82c2.64,0,5.17-0.49,7.52-1.36c2.67,1.28,5.63,1.98,8.77,1.98h2.9
		c11.09,0,20.32-8.32,21.46-19.36l0.08-0.75c11.18,16.64,29.39,26.87,47.69,26.86c2.64,0,5.28-0.21,7.89-0.65
		c7.62-1.27,14.77-4.31,21.25-9.03c13.03-9.5,17.77-18.87,18.97-26.43c0.33,0.34,0.66,0.69,1.01,1.02
		c4.39,3.93,10.16,5.77,15.98,5.13l2.84-0.22c0.91,9.63,7.63,17.97,17.41,20.67l12.56,3.47c2.24,0.62,4.52,0.93,6.79,0.93
		c5.31,0,10.52-1.68,14.93-4.91c6.29-4.61,10.06-11.72,10.34-19.51l0.28-7.55l2.97-0.3l0.99-0.13c4.76-0.76,8.93-3.1,12-6.46
		c-2.24,3.39-3.53,7.45-3.49,11.8l0.02,2.26c0.06,5.83,2.57,11.41,6.89,15.32c4.32,3.91,10.14,5.85,15.92,5.34l6.82-0.6
		c3.14,2.13,6.86,3.29,10.74,3.29c0.26,0,0.52,0,0.78-0.01l6.97-0.29c5.26-0.22,10.05-2.4,13.65-5.84l0.02,0
		c4.4,3.81,10.12,5.72,15.97,5.22l3.09-0.26c3.17-0.26,6.14-1.21,8.79-2.68c3.12,2.21,6.89,3.43,10.77,3.43h8.92
		c10.27,0,18.63-8.36,18.63-18.63V71.51c0-1.01-0.11-2.01-0.27-3c0.71-1.86,1.21-3.83,1.45-5.9l2.37-21.13
		C556.11,38.44,555.71,35.43,554.64,32.66z"/>
	<g>
		<g>
			<path class="st2" d="M504.51,34.52c8.68-0.13,17.37-0.27,26.05-0.4c1.75-0.03,3.61-0.09,5.05-1.08c1.67-1.14,2.37-3.26,2.68-5.27
				c0.39-2.55,0.15-5.56-1.91-7.12c-1.64-1.24-3.89-1.16-5.95-1.03c-25.06,1.63-50.16,2.74-75.26,3.35
				c-2.51,0.06-5.29,0.22-7.08,1.99c-1.4,1.38-1.85,3.45-2.06,5.41c-0.19,1.85-0.14,3.92,1.11,5.28c1.44,1.57,3.87,1.61,6,1.52
				c10.98-0.43,21.96-0.86,32.93-1.29c0.64-0.02,1.31-0.04,1.86,0.28c1.25,0.72,1.03,2.75-0.06,3.7c-1.09,0.95-2.64,1.1-4.08,1.21
				c-11.44,0.89-22.88,1.79-34.32,2.68c-0.92,0.07-1.93,0.18-2.59,0.82c-0.7,0.67-0.82,1.73-0.89,2.69l-0.95,11.53
				c-0.16,1.96-0.27,4.1,0.88,5.69c1.71,2.34,5.16,2.26,8.03,1.95c2.17-0.23,4.61-0.63,5.85-2.41c0.73-1.05,0.89-2.37,1.02-3.64
				c0.43-4.01,0.81-8.03,1.16-12.05c7.9-0.34,15.8-0.68,23.7-1.02c0.44-0.02,0.92-0.03,1.29,0.22c0.63,0.42,0.62,1.34,0.54,2.1
				c-0.38,3.58-0.76,7.17-1.15,10.75c-0.18,1.69-0.21,3.74,1.21,4.7c0.77,0.52,1.76,0.54,2.7,0.54c0.95,0,1.91,0,2.86,0
				c0.93,0,1.93-0.02,2.71-0.53c1.24-0.8,1.48-2.48,1.61-3.94c0.38-4.37,0.76-8.73,1.14-13.1c0.05-0.53,0.12-1.11,0.5-1.48
				c0.42-0.41,1.07-0.43,1.65-0.42c6.62,0.06,13.24,0.12,19.86,0.18c0.35,0,0.72,0.01,1.03,0.18c0.73,0.41,0.73,1.44,0.63,2.28
				c-0.38,3.07-0.76,6.15-1.14,9.22c-0.26,2.14-0.46,4.54,0.87,6.24c1.68,2.13,4.86,2.08,7.56,1.84c1.43-0.13,2.92-0.28,4.11-1.08
				c2.04-1.38,2.49-4.15,2.75-6.6c0.3-2.84,0.61-5.68,0.92-8.52c0.29-2.66,0.55-5.46-0.48-7.93c-0.33-0.79-0.8-1.47-1.37-2.03
				c-1.08-1.06-2.52-1.66-4.11-1.68c-2.55-0.03-5.2,0.19-7.75,0.28c-2.4,0.09-4.8,0.19-7.21,0.28c-4.91,0.19-9.82,0.38-14.73,0.57
				c-0.4,0.02-0.82,0.03-1.2-0.11c-1.4-0.5-1.35-2.71-0.22-3.68C501.41,34.61,503.03,34.54,504.51,34.52z"/>
			<path class="st2" d="M465.95,62.37c-0.73,0.83-0.12,2.13,0.98,2.1l8.79-0.25c0.39-0.01,0.76-0.2,0.99-0.52l4.29-5.94
				c0.6-0.83,0.01-2-1.02-2h-0.22c-0.98,0-1.59-1.07-1.08-1.91l0.45-0.75c0.54-0.91-0.2-2.04-1.25-1.9l-9.23,1.25
				c-0.38,0.05-0.72,0.27-0.91,0.61l-1.36,2.29c-0.53,0.89,0.18,2,1.21,1.9c1.14-0.11,1.83,1.23,1.07,2.09L465.95,62.37z"/>
			<path class="st2" d="M503.33,64.24c-0.73,0.83-0.12,2.13,0.98,2.1l8.79-0.25c0.39-0.01,0.76-0.2,0.99-0.52l4.29-5.94
				c0.6-0.84,0-2-1.02-2h-0.22c-0.98,0-1.59-1.07-1.08-1.91l0.45-0.75c0.54-0.91-0.2-2.04-1.25-1.9l-9.23,1.25
				c-0.38,0.05-0.72,0.28-0.92,0.61l-1.36,2.29c-0.53,0.89,0.18,2,1.2,1.9c1.14-0.11,1.83,1.23,1.07,2.09L503.33,64.24z"/>
			<path class="st2" d="M530.55,70.29c-1.84-0.05-3.7,0.05-5.54,0.08c-6.82,0.09-13.64,0.19-20.46,0.28
				c-2.64,0.14-4.77,2.2-5.01,4.83l-3.63,39.39c-0.25,2.68,1.99,4.94,4.68,4.72l3.1-0.26c2.37-0.2,4.2-2.18,4.2-4.56v-3.54
				c0-0.7,0.56-1.26,1.26-1.26h4.12c2.03,0,3.75-1.52,3.99-3.54l0.18-1.43c0.25-2.04-1.52-3.75-3.55-3.43
				c-0.87,0.14-1.83,0.29-2.82,0.44c-1.67,0.26-3.18-1.03-3.18-2.72v-2.55c0-1.24,1-2.24,2.24-2.24h5.59c1.96,0,3.6-1.46,3.84-3.4
				l0.18-1.46c0.26-2.09-1.56-3.84-3.64-3.52c-1.52,0.24-3.28,0.51-4.98,0.78c-1.71,0.27-3.22-1.07-3.22-2.8
				c0-1.62-0.22-3.32,0.12-4.94c0.67-3.14,4.1-2.3,6.47-2.22c3.04,0.11,6.08,0.18,9.12,0.28c1.1,0.03,2.23-0.11,3.08,0.73
				c1.43,1.42,0.83,3.97,0.63,5.77c-0.2,1.79-0.4,3.58-0.6,5.38l-1.45,13.08L524,113.42c-0.19,1.69-0.73,3.97,0.35,5.49
				c1.23,1.73,4.08,1.1,5.9,1.1c2.55,0,4.61-2.06,4.61-4.61v-0.84V93.33V80.34c0-2.82,0.55-7.51-1.91-9.31
				C532.35,70.59,531.57,70.32,530.55,70.29z"/>
			<path class="st2" d="M491.93,90.19l-14.31,0.68c-0.78,0.04-1.42-0.6-1.39-1.38l0.01-0.31c0.03-0.71,0.61-1.28,1.33-1.28h1.67
				c2.34,0,6.04,1.03,7.98-0.82c1.77-1.69,1.5-6.08,1.83-8.42c0.09-0.62,0.58-1.1,1.2-1.15l2.17-0.19c1.21-0.11,2.14-1.12,2.14-2.33
				c0-1.58-1.29-2.85-2.87-2.83l-0.54,0.01c-0.62,0.01-1.1-0.54-1.01-1.15l0.01-0.05c0.09-0.63-0.42-1.18-1.06-1.15l-8.82,0.51
				c-0.56,0.03-1.02,0.48-1.03,1.03c-0.01,0.54-0.45,0.98-0.99,0.99l-13.68,0.19c-0.66,0.01-1.18-0.57-1.08-1.23l0.04-0.26
				c0.1-0.67-0.45-1.27-1.13-1.23l-8.81,0.51c-0.53,0.03-0.95,0.47-0.95,1v0.38c0,0.55-0.44,1-0.99,1.01l-2.14,0.03
				c-2.05,0.03-3.69,1.7-3.69,3.74v1.06c0,2.09,1.79,3.74,3.88,3.55l1.5-0.13c0.78-0.07,1.45,0.55,1.45,1.33v1.48v1.33
				c0,1.54,1.25,2.79,2.79,2.79h5.71h5.09c0.82,0,1.44,0.73,1.32,1.54l-0.14,0.86c-0.1,0.62-0.62,1.09-1.25,1.12l-9.18,0.43
				c-2.08,0.1-4.42-0.07-6.45,0.4c-4.2,0.98-3.43,5.89-3.43,9.08c0,2.28,1.85,4.12,4.12,4.12h4.38h8.13c0.66,0,1.17,0.59,1.07,1.25
				l-0.06,0.34c-0.08,0.52-0.52,0.9-1.05,0.91l-18.28,0.26c-2.13,0.03-3.83,1.78-3.81,3.9l0.02,2.1c0.02,2.14,1.86,3.8,3.99,3.61
				l15.31-1.36c1.15-0.1,2.14,0.87,1.99,2.02c-0.15,1.07,0.7,2.01,1.78,1.97l6.91-0.29c1.99-0.08,3.58-1.68,3.66-3.67l0-0.12
				c0.02-0.67,0.55-1.22,1.21-1.28l12.57-1.11c1.55-0.14,2.95-1.18,3.3-2.7c0.45-1.98-1.05-3.72-2.94-3.69l-12.76,0.18
				c-0.58,0.01-1.04-0.47-1.02-1.04l0.01-0.29c0.02-0.54,0.47-0.97,1.01-0.97h8.16c1.66,0,3.6,0.3,5.18-0.18
				c3.7-1.13,4.42-5.61,5.02-8.82l0.44-2.18C495.86,92.09,494.14,90.09,491.93,90.19z M465.95,99.37c-0.09,0.59-0.59,1.03-1.18,1.06
				l-6.71,0.34c-0.82,0.04-1.45-0.69-1.3-1.49l0.34-1.81c0.11-0.6,0.63-1.03,1.24-1.03h6.6c0.78,0,1.37,0.69,1.25,1.46L465.95,99.37
				z M463.35,83.06c-0.8,0.05-1.45-0.64-1.33-1.44l0.09-0.65c0.08-0.58,0.55-1.03,1.14-1.08l14.62-1.3
				c0.74-0.07,1.37,0.52,1.37,1.26v0.97c0,0.66-0.52,1.22-1.18,1.26L463.35,83.06z M484.78,98.22c0,0.67-0.53,1.23-1.2,1.26
				l-6.36,0.32c-0.74,0.04-1.35-0.57-1.32-1.31l0.03-0.85c0.02-0.68,0.58-1.22,1.26-1.22h6.33c0.7,0,1.26,0.57,1.26,1.26V98.22z"/>
		</g>
		<g>
			<path class="st2" d="M87.13,75.26c0.81-4.95-3.01-9.44-8.03-9.44H52.29c-2.13,0-3.81-1.82-3.63-3.94l2.16-26.79
				c0.46-5.64-4.26-10.34-9.9-9.86c-4.46,0.38-8,3.93-8.36,8.39l-2.21,27.41c-0.22,2.71-2.48,4.8-5.2,4.8
				c-3.33,0-6.2,2.36-6.85,5.63l-0.83,4.19c-0.66,3.35,1.9,6.46,5.31,6.46c3.16,0,5.65,2.7,5.39,5.85l-1.76,21.79
				c-0.43,5.33,3.78,9.9,9.13,9.9c4.77,0,8.75-3.66,9.13-8.42l2.08-25.76c0.15-1.89,1.73-3.35,3.63-3.35H79.1
				C83.09,82.09,86.49,79.2,87.13,75.26z"/>
			<path class="st2" d="M110.38,65.82c-2.12,0-3.79-1.8-3.64-3.92l2.36-34.52c0.43-5.75-4.41-10.5-10.14-9.96l-34.3,2.93
				c-3.39,0.29-6.08,3-6.34,6.39c-0.32,4.26,3.25,7.81,7.51,7.45l24.9-2.08c3.68-0.31,6.75,2.77,6.44,6.45l-4.93,61.4
				c-0.19,2.24-2.33,3.77-4.51,3.23l-7.03-1.74c-3.42-0.85-6.84,1.38-7.44,4.86c-0.53,3.08,1.36,6.07,4.38,6.89l13.18,3.59
				l-0.01,0.06l1.85,0.44l2.94,0.8c3.53,0.96,7.06-1.54,7.33-5.19l2.06-27.44c0.14-1.9,1.73-3.37,3.63-3.37
				c3.83,0,7.09-2.77,7.7-6.55l0.38-2.31C117.32,69.35,114.32,65.82,110.38,65.82z"/>
			<path class="st2" d="M80.99,49.23c0-5.44-4.41-9.86-9.86-9.86s-9.86,4.41-9.86,9.86c0,5.45,4.41,9.86,9.86,9.86
				S80.99,54.67,80.99,49.23z"/>
		</g>
		<g>
			<path class="st2" d="M194.01,103.35h-3.96c-2.46,0-4.4-2.1-4.19-4.55l5.53-66.03c0.49-5.8-4.09-10.78-9.91-10.78
				c-5.17,0-9.48,3.96-9.91,9.12l-5.73,68.39c-0.18,2.18-2,3.85-4.19,3.85h-6.36c-2.46,0-4.39-2.1-4.19-4.54l1.44-23.26
				c0.02-0.23,0.07-0.45,0.07-0.69c0-0.09-0.02-0.16-0.03-0.25c0.02-0.39-0.03-0.77-0.11-1.14c-0.66-3.64-3.82-6.4-7.65-6.4
				c-3.48,0-6.39,2.29-7.39,5.43c-0.25,0.48-0.42,1.02-0.46,1.59l-5.87,40.99c-0.2,2.45,1.74,4.54,4.19,4.54h11.12h17.75h19.96h8.99
				c2.13,0,3.93-1.6,4.18-3.72l0.91-7.87C198.48,105.55,196.52,103.35,194.01,103.35z"/>
			<path class="st2" d="M220.63,76.08C220.63,76.08,220.63,76.08,220.63,76.08c0-0.01,0-0.01,0-0.01c0.03-0.67-0.09-1.3-0.34-1.87
				c-0.78-2.19-2.85-3.78-5.31-3.78c-2.6,0-4.76,1.76-5.43,4.15c-0.02,0.05-0.03,0.1-0.05,0.16c-0.04,0.15-0.06,0.3-0.09,0.45
				c-0.01,0.09-0.04,0.17-0.05,0.26l-2.46,40.17c-0.26,2.48,0,4.63,2.49,4.63h2.9c2.16,0,3.96-1.63,4.18-3.77l4.15-40.17
				C220.64,76.22,220.62,76.15,220.63,76.08z"/>
		</g>
		<g>
			<path class="st2" d="M428.2,42.15c0.4-3.93-2.7-7.35-6.67-7.32c-2.3,0.02-3.82-2.41-2.89-4.52l0.07-0.16
				c1.66-3.77-1.32-7.93-5.42-7.59l-3.79,0.32c-3.48,0.29-6.54,2.42-8.04,5.58l-2.83,5.97c-0.51,1.08-1.57,1.78-2.76,1.84
				l-0.47,0.02c-1.93,0.09-3.5-1.53-3.36-3.46l0.39-5.17c0.3-3.89-2.96-7.13-6.85-6.8l-4.25,0.36c-3.94,0.33-7.06,3.48-7.36,7.42
				l-0.44,5.83c-0.12,1.62-1.44,2.9-3.06,2.97l-0.66,0.03c-1.47,0.07-2.8-0.87-3.23-2.28l-2.31-7.57c-1.04-3.4-4.31-5.61-7.85-5.32
				l-5.6,0.47c-3.47,0.29-5.75,3.77-4.64,7.07l1.53,4.52c1.35,4-3.6,3.9-6.22,3.97c-4.97,0.12-7.81,3.04-7.69,7.95
				c0.07,2.82,0.01,12.21,3.58,12.71c2.39,0.33,8.8,0.49,10.54-1.35c1.48-1.58-0.41-10.25,2.47-10.8c2.05-0.39,4.42-0.18,6.51-0.27
				c5.43-0.22,10.87-0.44,16.3-0.66c10.34-0.42,20.68-0.84,31.02-1.26c2.14-0.09,4.28-0.26,6.42-0.26c3.86,0,3.52,3.19,3.74,7
				c0.11,1.91,1.43,3.51,3.34,3.51h4.03c3.34,0,6.14-2.53,6.47-5.85L428.2,42.15z"/>
			<path class="st2" d="M414.04,78.16c-0.46-0.21-0.96-0.32-1.51-0.28l-11.64,0.27c-2.65,0.16-4.89-3.29-3.52-5.57l8-13.34
				c1.97-3.29-0.52-7.44-4.35-7.24l-4.46,0.23l-32.22,2.43c-4.54,0.34-8.13,4-8.39,8.55c-0.32,5.53,4.48,9.99,9.97,9.26l10.32-1.36
				c3.07-0.4,4.97,3.26,2.87,5.54l-1.83,1.98c-0.57,0.61-1.35,0.98-2.18,1.03l-30.5,1.8c-0.19,0.01-0.36,0.09-0.55,0.14
				c-0.05,0-0.09-0.01-0.14-0.01c-4.31,0-7.8,3.49-7.8,7.8c0,4.31,3.49,7.8,7.8,7.8c0.07,0,0.14-0.02,0.21-0.02
				c0.24,0.02,0.49,0.01,0.74-0.03l29.73-2.29c2.03-0.32,3.84,1.32,3.72,3.37l0.22,3.54c-0.03,2.1-2.02,3.6-4.05,3.06
				c-3.41-0.91-6.86,1.3-7.47,4.77l-0.03,0.19c-0.67,3.84,1.69,7.57,5.45,8.61l11.52,3.18c5.06,1.4,10.04-2.4,10.08-7.64
				c0.05-6.52-0.11-13.07-0.04-19.6c0.09-1.51,1.22-2.74,2.71-2.98l15.7-1.58c0,0,0,0,0.01,0c3.27,0,5.93-2.65,5.93-5.93
				C418.35,81.13,416.52,78.87,414.04,78.16z"/>
		</g>
		<path class="st1" d="M312.96,77.3c8.54-10.19,13.62-23.95,9.95-37.07c-4.57-16.35-24.01-21.39-39.26-21.38
			c-29.26,0.02-45.06,34.08-43.55,62.61c-2.61-0.29-5.19-0.28-7.24,0.86c-4.48,2.49-2.1,11.23,1.82,13.51
			c2.26,1.32,5.3,1.95,8.59,2.21c0.7,1.94,1.5,3.8,2.43,5.56c8.03,15.21,24.64,25.68,40.86,22.99c4.73-0.79,9.43-2.69,13.87-5.93
			c5.29-3.85,14.01-11.46,11.84-19.02c-1.51-5.25-4.32-3.68-7.42-0.85c-10.02,9.17-22.76,11.77-30.06-2.02
			c-0.41-0.78-0.78-1.58-1.12-2.39C288.5,94.13,303.4,88.71,312.96,77.3z M299.95,61.11c-0.8,2.7-2.69,4.95-4.8,6.82
			c-7.07,6.26-15.49,10.41-24.59,12.57c-0.21-12.53,4.92-28.06,19.37-29.47C296.03,50.43,301.95,54.42,299.95,61.11z"/>
	</g>
</g>
</svg>
