<?xml version="1.0" encoding="utf-8"?>
<!-- Generator: Adobe Illustrator 22.1.0, SVG Export Plug-In . SVG Version: 6.00 Build 0)  -->
<svg version="1.1" id="圖層_1" xmlns="http://www.w3.org/2000/svg" xmlns:xlink="http://www.w3.org/1999/xlink" x="0px" y="0px"
	 viewBox="0 0 141.7 107.4" style="enable-background:new 0 0 141.7 107.4;" xml:space="preserve">
<style type="text/css">
	.st0{clip-path:url(#SVGID_1_);}
	.st1{fill:#4D4D4D;}
	.st2{fill:url(#SVGID_3_);}
	.st3{fill:#040000;}
	.st4{fill:#212121;}
	.st5{fill:#EB6619;}
</style>
<g>
	<g>
		<defs>
			<path id="SVGID_2_" d="M99.2,28.3c0,15.7-12.7,28.3-28.3,28.3c-15.7,0-28.3-12.7-28.3-28.3C42.5,12.7,55.2,0,70.9,0
				C86.5,0,99.2,12.7,99.2,28.3z"/>
		</defs>
		<clipPath id="SVGID_1_">
			<use xlink:href="#SVGID_2_"  style="overflow:visible;"/>
		</clipPath>
		<g class="st0">
			<path class="st1" d="M93.6,11.4c0-0.1-0.1-0.1-0.1-0.1C93.5,11.4,93.6,11.4,93.6,11.4z"/>
			<linearGradient id="SVGID_3_" gradientUnits="userSpaceOnUse" x1="50.6373" y1="8.3453" x2="90.8966" y2="48.6046">
				<stop  offset="0" style="stop-color:#F9BF11"/>
				<stop  offset="1" style="stop-color:#E73820"/>
			</linearGradient>
			<path class="st2" d="M92.3,9.9c1.8,3.2,4.3,9.3-0.8,21.6C95.9,11.4,85,3.8,85,3.8c6.8,11-1.1,27.7-1.1,27.7s6.8-24.6-6.4-30.7
				c5.9,3.4,4,31.5-11.3,30.7c-6.4-0.3-9.3-5.7-9.8-8.8c-1.2-6.4,3.6-11.2,7.3-12.1c0,0,6.6-2.5,11.7,3.7c0.2-1.2,0.1-2.3-0.1-3.5
				c-0.2-1.1-0.4-2.2-1-3.1c-0.7-1.2-1.8-2.1-2.6-3.1c-0.7-1-1.5-2-1.9-3.1c-0.1-0.3-0.2-0.5-0.3-0.8c0-0.1-0.2-0.5-0.1-0.7
				c-0.8,3.1,0.6,4.7,0.8,5.5c-2.9-1-6-1.6-9.1-1.3c-2.1,0.1-4.3,0.6-6.2,1.4c-4.1,1.7-7.1,5.8-9.1,9.7c-0.7,1.3-1.3,2.7-1.8,4.1
				c-0.8,2.2-1.1,4-1.3,5.9c-0.1,1-0.2,2.1-0.2,3.1c0,15.7,11.8,28,28.4,28.4c19.7,0.5,26.3-17.7,26.3-17.7
				C100.7,30,99.9,18.6,92.3,9.9z"/>
		</g>
	</g>
	<g>
		<path class="st3" d="M3.2,84c-1,0-2.1,0-3.2,0L0,83.5L1.6,83c0.2-0.1,0.3-0.2,0.3-0.4c0-0.3,0-0.7,0-1.2c0-0.4,0-0.9,0-1.4V69.7
			c0-0.4,0-0.8,0-1.2c0-0.4,0-0.7,0-1c0-0.2-0.1-0.4-0.3-0.4L0,66.6L0,66c1.1,0,2.2,0.1,3.2,0.1c0.9,0,1.7,0,2.5-0.1
			C6.5,66,7.3,66,8.2,66c3,0,5.2,0.7,6.8,2c1.5,1.4,2.3,3.4,2.3,6.1c0,3.2-0.8,5.6-2.5,7.4c-1.7,1.8-4,2.6-7,2.6c-0.8,0-1.6,0-2.2,0
			C4.7,84,4,84,3.2,84z M4.5,82.9C5,83,5.5,83,6,83c0.5,0,1,0,1.5,0c2.3,0,4-0.7,5.2-2c1.2-1.3,1.8-3.4,1.8-6.1
			c0-2.7-0.6-4.7-1.7-5.9c-1.1-1.3-2.9-1.9-5.3-1.9c-0.4,0-0.8,0-1.3,0c-0.5,0-1,0-1.6,0.1V82.9z"/>
		<path class="st3" d="M20.5,72.9c1.7-0.7,3.1-1.1,4.4-1.1c1.3,0,2.4,0.3,3.1,1c0.8,0.7,1.1,1.7,1.1,3l-0.1,5.3c0,0.4,0,0.8,0,1.1
			c0,0.3,0.1,0.5,0.2,0.6c0.1,0.1,0.3,0.2,0.6,0.3c0.2,0.1,0.6,0.1,1,0.1l0.1,0.5c-0.4,0.1-0.8,0.3-1.4,0.4
			c-0.5,0.1-0.9,0.2-1.1,0.2c-0.8,0-1.4-0.4-1.7-1.3c-1.2,0.9-2.4,1.3-3.4,1.3c-1.2,0-2.2-0.3-2.9-0.9c-0.7-0.6-1.1-1.4-1.1-2.5
			c0-1.3,0.6-2.3,1.8-2.9c1.2-0.6,3-0.9,5.5-0.9l0-1c0-1-0.2-1.7-0.7-2.1c-0.5-0.5-1.3-0.7-2.3-0.7c-0.8,0-1.8,0.1-2.9,0.4
			L20.5,72.9z M26.8,78.2c-1.8,0-3,0.2-3.7,0.6c-0.7,0.4-1,1-1,1.9c0,0.8,0.2,1.4,0.7,1.7c0.4,0.3,1,0.5,1.8,0.5
			c0.8,0,1.6-0.1,2.2-0.4L26.8,78.2z"/>
		<path class="st3" d="M32.9,72.7c1.4-0.3,2.8-0.6,4.1-0.9l0.1,0.1v1.5c1.5-1.1,2.9-1.6,4.2-1.6c1.2,0,2.2,0.3,2.9,1
			c0.7,0.7,1,1.6,1,2.9v4.5c0,1.1,0,1.9,0,2.4c0,0.2,0.1,0.4,0.3,0.5l1.4,0.4l0,0.5c-1.1,0-2.1,0-3,0c-0.8,0-1.8,0-2.8,0l-0.1-0.5
			l1.3-0.4c0.2-0.1,0.3-0.2,0.3-0.4c0-0.1,0-0.4,0-0.8v-5.6c0-1.1-0.3-1.8-0.8-2.3c-0.5-0.5-1.2-0.7-2.2-0.7c-0.9,0-1.8,0.2-2.7,0.7
			v5.6c0,1.1,0,2.1,0,2.9c0,0.2,0.1,0.4,0.3,0.4l1.3,0.4l0,0.5c-1.1,0-2,0-2.9,0c-0.8,0-1.8,0-3,0l-0.1-0.5l1.5-0.4
			c0.2-0.1,0.3-0.2,0.3-0.4c0-0.5,0-1.1,0-1.6v-4.4c0-1.1,0-2.2-0.1-3.1l-1.7-0.5L32.9,72.7z"/>
		<path class="st3" d="M58.3,67.2c-0.9-0.3-1.7-0.4-2.5-0.4c-1.1,0-2,0.3-2.7,0.8c-0.7,0.5-1,1.3-1,2.3c0,0.6,0.1,1,0.4,1.5
			c0.2,0.4,0.6,0.8,1,1.1c0.4,0.3,0.9,0.6,1.4,0.8c0.5,0.2,1,0.5,1.6,0.7c0.6,0.3,1.2,0.5,1.7,0.8c0.6,0.3,1.1,0.6,1.5,1
			c0.4,0.4,0.8,0.8,1.1,1.4c0.3,0.5,0.4,1.2,0.4,1.9c0,1.7-0.7,3-2,3.9c-1.3,0.9-3.1,1.3-5.2,1.3c-1.4,0-2.9-0.2-4.5-0.7l-0.1-0.1
			l0.6-4.4l0.6-0.1l0.9,3.7c0.9,0.4,1.8,0.5,2.8,0.5c1.3,0,2.3-0.3,3-0.8c0.7-0.6,1.1-1.4,1.1-2.4c0-0.5-0.1-1-0.3-1.4
			c-0.2-0.4-0.5-0.8-0.9-1.1c-0.4-0.3-0.8-0.6-1.3-0.8c-0.5-0.2-1-0.5-1.5-0.7c-0.6-0.3-1.2-0.5-1.7-0.8c-0.6-0.3-1.1-0.6-1.5-1
			c-0.5-0.4-0.8-0.9-1.1-1.5c-0.3-0.6-0.4-1.3-0.4-2c0-1.6,0.6-2.8,1.9-3.6c1.3-0.8,2.9-1.3,4.8-1.3c1.4,0,2.8,0.2,4.3,0.5l0.1,0.1
			l-0.8,4l-0.5,0.1L58.3,67.2z"/>
		<path class="st3" d="M72.4,82.9c-1.3,1-2.7,1.5-4,1.5c-1.3,0-2.4-0.3-3-1c-0.7-0.7-1-1.7-1-2.9v-2.7c0-1.8,0-3.2-0.1-4.1l-1.7-0.5
			l-0.1-0.4c1.5-0.3,2.9-0.6,4.2-0.9l0.1,0.1c-0.1,1-0.1,2.3-0.1,3.9v4.1c0,1,0.2,1.8,0.7,2.3c0.5,0.5,1.2,0.7,2.1,0.7
			c0.9,0,1.8-0.2,2.7-0.7v-5.5c0-1.2,0-2.2-0.1-3l-1.7-0.5l-0.1-0.4c1.5-0.3,2.9-0.6,4.2-0.9l0.1,0.1c-0.1,1-0.1,2.3-0.1,3.9
			c0,3.1,0,5,0,5.7c0,0.4,0,0.6,0.1,0.8s0.1,0.4,0.2,0.5c0.1,0.1,0.3,0.2,0.5,0.2c0.2,0,0.5,0.1,0.9,0.1l0.1,0.5
			c-0.4,0.2-0.8,0.3-1.4,0.4c-0.5,0.1-0.9,0.2-1.1,0.2C73.3,84.4,72.7,83.9,72.4,82.9z"/>
		<path class="st3" d="M90.4,74.3c0.1,0.4,0.2,0.9,0.2,1.4v4.6c0,1,0,1.8,0,2.4c0,0.2,0.1,0.4,0.3,0.4l1.3,0.4l0,0.5c-1,0-2,0-2.8,0
			c-0.8,0-1.8,0-2.8,0l-0.1-0.5l1.2-0.4c0.2-0.1,0.4-0.2,0.4-0.4c0-0.1,0-0.4,0-0.8v-5.6c0-1.1-0.2-1.8-0.7-2.3
			c-0.5-0.5-1.2-0.7-2.1-0.7c-0.8,0-1.7,0.2-2.5,0.7v5.6c0,1.1,0,2.1,0,2.9c0,0.3,0.1,0.4,0.3,0.4l1.4,0.4l0,0.5c-1.1,0-2,0-2.9,0
			c-0.8,0-1.8,0-3,0l-0.1-0.5l1.5-0.4c0.2-0.1,0.3-0.2,0.3-0.4c0-0.5,0-1,0-1.6v-4.4c0-1.1,0-2.2-0.1-3.1l-1.7-0.5l-0.1-0.4
			c1.4-0.3,2.8-0.6,4.1-0.9l0.1,0.1v1.5c1.4-1.1,2.7-1.6,4-1.6c1.5,0,2.7,0.6,3.3,1.8c1.4-1.2,2.8-1.8,4.4-1.8c1.2,0,2.1,0.3,2.8,1
			c0.7,0.7,1,1.6,1,2.9v4.5c0,1.1,0,1.9,0,2.4c0,0.2,0.1,0.4,0.3,0.5l1.4,0.4l0,0.5c-1.1,0-2.1,0-3,0c-0.9,0-1.8,0-2.8,0l-0.1-0.5
			l1.3-0.4c0.2-0.1,0.3-0.2,0.3-0.4c0-0.1,0-0.4,0-0.8v-5.6c0-1.1-0.2-1.8-0.7-2.3c-0.5-0.5-1.2-0.7-2.2-0.7
			C92.1,73.4,91.2,73.7,90.4,74.3z"/>
		<path class="st3" d="M113.8,74.3c0.1,0.4,0.2,0.9,0.2,1.4v4.6c0,1,0,1.8,0,2.4c0,0.2,0.1,0.4,0.3,0.4l1.3,0.4l0,0.5
			c-1,0-2,0-2.8,0c-0.8,0-1.8,0-2.8,0l-0.1-0.5l1.2-0.4c0.2-0.1,0.4-0.2,0.4-0.4c0-0.1,0-0.4,0-0.8v-5.6c0-1.1-0.2-1.8-0.7-2.3
			c-0.5-0.5-1.2-0.7-2.1-0.7c-0.8,0-1.7,0.2-2.5,0.7v5.6c0,1.1,0,2.1,0,2.9c0,0.3,0.1,0.4,0.3,0.4l1.4,0.4l0,0.5c-1.1,0-2,0-2.9,0
			c-0.8,0-1.8,0-3,0l-0.1-0.5l1.5-0.4c0.2-0.1,0.3-0.2,0.3-0.4c0-0.5,0-1,0-1.6v-4.4c0-1.1,0-2.2-0.1-3.1l-1.7-0.5l-0.1-0.4
			c1.4-0.3,2.8-0.6,4.1-0.9l0.1,0.1v1.5c1.4-1.1,2.7-1.6,4-1.6c1.5,0,2.7,0.6,3.3,1.8c1.4-1.2,2.8-1.8,4.4-1.8c1.2,0,2.1,0.3,2.8,1
			c0.7,0.7,1,1.6,1,2.9v4.5c0,1.1,0,1.9,0,2.4c0,0.2,0.1,0.4,0.3,0.5l1.4,0.4l0,0.5c-1.1,0-2.1,0-3,0c-0.9,0-1.8,0-2.8,0l-0.1-0.5
			l1.3-0.4c0.2-0.1,0.3-0.2,0.3-0.4c0-0.1,0-0.4,0-0.8v-5.6c0-1.1-0.2-1.8-0.7-2.3c-0.5-0.5-1.2-0.7-2.2-0.7
			C115.6,73.4,114.7,73.7,113.8,74.3z"/>
		<path class="st3" d="M125.5,72.7c1.5-0.3,2.9-0.6,4.2-0.9l0.1,0.1c-0.1,1.1-0.1,2.3-0.1,3.7v4.9c0,1,0,1.7,0,2.1
			c0,0.2,0.1,0.4,0.3,0.5l1.5,0.4l0,0.5c-1.2,0-2.2,0-3,0c-0.8,0-1.8,0-3,0l-0.1-0.5l1.5-0.4c0.2-0.1,0.3-0.2,0.3-0.4
			c0-0.3,0-0.9,0-1.7v-4.3c0-1.1,0-2.2-0.1-3.1l-1.7-0.5L125.5,72.7z M129.8,67.3c0,0.5-0.1,0.8-0.4,1.1c-0.3,0.3-0.6,0.4-1.1,0.4
			c-0.4,0-0.8-0.1-1-0.4c-0.3-0.3-0.4-0.6-0.4-1.1c0-0.5,0.1-0.8,0.4-1.1c0.3-0.3,0.7-0.4,1.1-0.4c0.4,0,0.8,0.1,1,0.4
			C129.7,66.5,129.8,66.8,129.8,67.3z"/>
		<path class="st3" d="M137.5,73.5c-0.1,2.9-0.1,5.2-0.1,7c0,0.9,0.1,1.5,0.4,1.8c0.3,0.3,0.8,0.5,1.5,0.5c0.6,0,1.4-0.1,2.3-0.2
			l0.1,0.6c-1.5,0.7-2.8,1.1-4,1.1c-0.9,0-1.7-0.3-2.1-0.8c-0.5-0.5-0.7-1.3-0.7-2.3c0-1.7,0-4.3,0.1-7.9l-1.8-0.4l-0.1-0.5l2-0.2
			l0.9-3.1c0.5-0.1,0.9-0.3,1.3-0.4l0.1,0.1c0,1,0,2,0,2.9v0.5h3.9v1.2H137.5z"/>
	</g>
	<g>
		<path class="st4" d="M35,99.2c0-2.4,0-4.1,0-4.9l0.8,0.5h4.4l0.5-0.5l0.8,0.6l-0.5,0.3v4h1l0.7-0.7l0.9,0.9h-2.6v4.5
			c0,0.5-0.3,0.8-1,1.1c0-0.4-0.6-0.8-1.7-1.1v-0.2c0.9,0.2,1.4,0.2,1.7,0.2s0.4-0.2,0.4-0.5v-3.9h-4.5c0,2.4-1.1,4.3-3.2,5.6
			l-0.1-0.2c1.7-1.2,2.6-3,2.6-5.4h-1c-0.4,0-0.8,0-1.1,0.1l-0.4-0.4H35z M35.7,95v4.1h4.5V95H35.7z M36.9,96
			c0.7,0.4,1.2,0.8,1.5,1.2s0.3,0.7,0,1.1s-0.5,0.2-0.7-0.4s-0.5-1.2-0.9-1.8L36.9,96z"/>
		<path class="st4" d="M55.7,103.4c0-2.9,0-4.5,0-4.8s0-0.8,0-1.4l1.1,0.5l-0.4,0.4c0,2.9,0,4.5,0,4.9s0,0.8,0,1.3l-0.7,0.3v-0.9
			h-6.8l-0.4,0.5l-0.7-0.7l0.4-0.3c0-2.8,0-4.3,0-4.6s0-0.8,0-1.4l1.1,0.5L48.9,98v5.4h3c0-4.5,0-6.9,0-7.3s0-0.9,0-1.7l1.1,0.5
			l-0.4,0.3v8.2H55.7z"/>
		<path class="st4" d="M81.4,103.8c0.8,0.1,1.3,0.2,1.5,0.2s0.4-0.2,0.4-0.5v-1.8h-3.6c-0.4,0-0.8,0-1.1,0.1l-0.4-0.4h5.1
			c0-0.3,0-0.6,0-1.1l0.5,0.3l1.6-1.4h-3.9c-0.4,0-0.8,0-1.1,0.1L80,98.9h5.4l0.5-0.5l0.8,0.9c-0.2,0-0.6,0.1-1,0.3s-1,0.6-1.8,1
			l0.4,0.2l-0.3,0.2v0.2h3l0.8-0.8l1,1H84v2.3c0,0.5-0.4,0.8-1.1,1.1c0-0.3-0.5-0.7-1.5-1V103.8z M87,98.9l-0.1-0.1l0.8-1.3h-8
			c0.1,0.4,0.1,0.7,0,1s-0.2,0.4-0.4,0.5s-0.5,0.1-0.6,0s-0.1-0.3,0.1-0.6s0.4-0.9,0.6-1.7h0.2l0,0.6h5.3c0.6-1.2,1-2.2,1.3-3.1
			l1.1,0.7L86.8,95c-0.5,0.7-1.1,1.5-1.6,2.2h2.4l0.5-0.6l0.8,0.9C88.3,97.7,87.7,98.1,87,98.9z M80.1,94.5c1,0.7,1.5,1.1,1.6,1.5
			s0,0.6-0.3,0.9S81,97,80.9,96.5s-0.4-1.1-0.9-1.9L80.1,94.5z M82.6,94.3c0.9,0.7,1.4,1.2,1.4,1.5s-0.1,0.6-0.3,0.9
			s-0.4,0.1-0.5-0.4s-0.3-1.2-0.7-1.9L82.6,94.3z"/>
		<path class="st4" d="M97.7,101.3c0,0.4,0,0.7,0,0.9l-0.6,0.3v-0.3H96v0.8h1.5l0.5-0.5l0.6,0.6c0.2-0.3,0.3-1,0.3-2.1s0-2,0-2.6
			l0.7,0.4h2l0.4-0.4l0.6,0.6l-0.3,0.2v4.8c0,0.3-0.1,0.5-0.2,0.6s-0.4,0.3-0.8,0.4c-0.2-0.4-0.5-0.7-1.2-0.8V104
			c0.8,0.1,1.3,0.2,1.4,0.1s0.1-0.2,0.1-0.4v-1.8h-2.1c-0.1,0.8-0.3,1.4-0.7,1.9s-1,0.9-1.8,1.3l0-0.1c0.8-0.6,1.4-1.1,1.7-1.7H96
			c0,0.8,0,1.3,0,1.6l-0.7,0.3c0-0.9,0-1.5,0-1.9h-1.3c-0.4,0-0.8,0-1.1,0.1l-0.4-0.4h2.8v-0.8h-1.3v0.2l-0.7,0.3c0-0.6,0-1.3,0-2.1
			l0.7,0.3h1.3V100H95v0.1l-0.6,0.2c0-0.4,0-0.8,0-1.3c-0.4,0-0.7,0-1.1,0.1L93,98.8h1.5c0-0.2,0-0.5,0-0.9l0.8,0.4L95,98.5v0.3h1.5
			c0-0.3,0-0.6,0-0.8l0.9,0.4L97,98.6v0.2h0.4l0.4-0.4l0.7,0.7H97c0,0.5,0,0.9,0,1.1l-0.6,0.2V100H96v0.8h1.2l0.3-0.3l0.7,0.6
			L97.7,101.3z M101.6,97l0.5-1h-3.9c0,0.8,0,1.3,0,1.7L97.5,98c0-0.9,0-1.5,0-2h-3.7c0,0.4-0.1,0.7-0.2,0.9s-0.3,0.4-0.5,0.4
			s-0.4-0.1-0.4-0.3s0.1-0.4,0.3-0.5s0.4-0.6,0.5-1.3h0.2l0,0.5h3.7v-0.8h-1.9c-0.4,0-0.8,0-1.1,0.1l-0.4-0.4h6.4l0.5-0.5l0.8,0.8
			h-3.7v0.8h3.8l0.5-0.5l0.8,0.8c-0.3,0-0.5,0.1-0.8,0.3s-0.5,0.4-0.8,0.8L101.6,97z M94.2,101.1v0.8h1.3v-0.8H94.2z M94.6,97.5h2.1
			v0.3h-2.1V97.5z M94.7,96.5h1.9v0.3h-1.9V96.5z M95,99.1v0.7h1.5v-0.7H95z M96,101.1v0.8h1.2v-0.8H96z M99,96.5h1.9v0.3H99V96.5z
			 M99,97.5h1.9v0.3H99V97.5z M99.5,99.1v1.1h2.1v-1.1H99.5z M99.5,100.5v1.2h2.1v-1.2H99.5z"/>
	</g>
	<g>
		<path class="st5" d="M73.1,103.9c0,0,0.1,0,0.1,0.1c0.1,0,0.1,0.1,0.2,0.1c0.1,0,0.1,0.1,0.1,0.1c0,0,0.1,0.1,0.1,0.1
			c0,0,0,0.1,0,0.1c-0.4,0.5-0.7,0.9-1.2,1.3c-0.4,0.4-0.8,0.7-1.3,0.9c-0.4,0.2-0.9,0.4-1.4,0.5c-0.5,0.1-0.9,0.2-1.4,0.2
			c-0.8,0-1.5-0.2-2.1-0.5c-0.6-0.3-1.2-0.7-1.7-1.3c-0.5-0.5-0.8-1.2-1.1-1.9c-0.3-0.7-0.4-1.5-0.4-2.4c0-0.7,0.1-1.4,0.2-2.1
			c0.2-0.7,0.4-1.3,0.7-2s0.6-1.2,1-1.7c0.4-0.5,0.9-1,1.4-1.4s1.1-0.7,1.7-0.9c0.6-0.2,1.3-0.3,2-0.3c0.5,0,0.9,0.1,1.4,0.2
			c0.4,0.1,0.8,0.3,1.1,0.6c0.3,0.2,0.6,0.5,0.8,0.9c0.2,0.4,0.3,0.8,0.3,1.2c0,0.7-0.2,1.2-0.6,1.7c-0.4,0.5-1,0.9-1.8,1.2
			c-0.8,0.3-1.6,0.6-2.7,0.8s-2.1,0.4-3.3,0.5v0.2c0,0.8,0.1,1.6,0.3,2.3c0.2,0.7,0.5,1.3,0.9,1.7c0.4,0.5,0.8,0.9,1.3,1.1
			s1,0.4,1.6,0.4c0.6,0,1.2-0.1,1.8-0.4C71.8,105,72.5,104.5,73.1,103.9z M71.3,96.1c0-0.3-0.1-0.6-0.1-0.8
			c-0.1-0.3-0.2-0.5-0.4-0.7s-0.4-0.3-0.6-0.4c-0.2-0.1-0.5-0.2-0.8-0.2c-0.4,0-0.8,0.1-1.1,0.2s-0.6,0.3-0.9,0.6
			c-0.3,0.3-0.5,0.5-0.7,0.9c-0.2,0.3-0.4,0.7-0.5,1.1c-0.1,0.4-0.3,0.8-0.4,1.2s-0.2,0.8-0.2,1.2c0.9-0.1,1.7-0.2,2.5-0.3
			c0.7-0.2,1.3-0.4,1.8-0.6s0.9-0.5,1.1-0.9S71.3,96.6,71.3,96.1z"/>
	</g>
</g>
</svg>
