<?xml version="1.0" encoding="utf-8"?>
<!-- Generator: Adobe Illustrator 23.0.1, SVG Export Plug-In . SVG Version: 6.00 Build 0)  -->
<svg version="1.1" id="圖層_1" xmlns="http://www.w3.org/2000/svg" xmlns:xlink="http://www.w3.org/1999/xlink" x="0px" y="0px"
	 viewBox="0 0 555.89 219.74" style="enable-background:new 0 0 555.89 219.74;" xml:space="preserve">
<style type="text/css">
	.st0{fill:#00A5E3;}
	.st1{fill:#FFFFFF;}
	.st2{fill:#F5AF1F;}
	.st3{fill:#F56D1F;}
</style>
<g>
	<g>
		<path class="st0" d="M554.64,32.66l1.13-9.86c0.63-5.59-1.26-11.1-5.19-15.12c-3.8-3.89-9.03-5.9-14.45-5.57l-50.51,2.53
			l-38.46,1.3L446.28,6c-5.22,0.44-9.79,2.98-12.88,6.76c-4.25-5.4-11-8.38-17.88-7.81L404.27,5.9c-1.2,0.1-2.38,0.31-3.53,0.61
			c-3.81-2.48-8.35-3.65-12.96-3.26l-12.02,1.01c-2.67,0.23-5.19,0.95-7.46,2.08c-3.04-1.32-6.41-1.91-9.85-1.62l-11.84,1
			c-6.34,0.54-11.98,3.91-15.47,9.23c-0.65,0.99-1.17,2.02-1.63,3.08c-10.18-10.49-26.31-16.55-45.8-16.55c-0.02,0-0.05,0-0.07,0
			c-14.95,0.01-28.56,6.04-39.36,17.43c-9.01,9.5-15.59,22.46-19,36.61c-3.14-1.58-6.65-2.46-10.31-2.46
			c-2.78,0-5.47,0.52-7.97,1.46l1.7-20.3c0.63-7.59-1.96-15.16-7.12-20.77c-5.16-5.61-12.49-8.82-20.1-8.82
			c-14.08,0-26.04,10.99-27.22,25.03l-1.78,21.24c-2.43-0.78-5-1.19-7.67-1.19c-6.42,0-12.38,2.43-16.89,6.53
			c-0.98-1.08-2.04-2.08-3.18-2.96l1.68-24.6c0.59-7.84-2.29-15.51-7.91-21.02s-13.33-8.26-21.04-7.54l-34.3,2.93
			C57.82,3.5,53.01,5.65,49.23,8.95c-3.13-0.93-6.44-1.32-9.78-1.03c-12.98,1.1-23.16,11.32-24.21,24.3l-1.54,19.11
			C7.43,54.68,2.72,60.73,1.26,68.08l-0.82,4.17c-1.33,6.71,0.4,13.59,4.74,18.88c1.44,1.76,3.11,3.26,4.95,4.49l-1.03,12.7
			c-0.59,7.36,1.94,14.69,6.94,20.12c5.01,5.43,12.11,8.54,19.5,8.54c10.85,0,20.36-6.71,24.42-16.27c2.93,4.22,7.26,7.5,12.53,9.07
			l-0.04,0.5l14.27,3.44l4.3,1.12c2.02,0.55,4.07,0.82,6.12,0.82c4.75,0,9.42-1.46,13.39-4.28c2.28-1.62,4.2-3.62,5.73-5.86
			c0.86,1.62,1.9,3.15,3.16,4.51c4.07,4.42,9.85,6.95,15.86,6.95h57.82c2.64,0,5.17-0.49,7.52-1.36c2.67,1.28,5.63,1.98,8.77,1.98
			h2.9c11.09,0,20.32-8.32,21.46-19.36l0.08-0.75c11.18,16.64,29.39,26.87,47.69,26.86c2.64,0,5.28-0.21,7.89-0.65
			c7.62-1.27,14.77-4.31,21.25-9.03c13.03-9.5,17.77-18.87,18.97-26.43c0.33,0.34,0.66,0.69,1.01,1.02
			c4.39,3.93,10.16,5.77,15.98,5.13l2.84-0.22c0.91,9.63,7.63,17.97,17.41,20.67l12.56,3.47c2.24,0.62,4.52,0.93,6.79,0.93
			c5.31,0,10.52-1.68,14.93-4.91c6.29-4.61,10.06-11.72,10.34-19.51l0.28-7.55l2.97-0.3l0.99-0.13c4.76-0.76,8.93-3.1,12-6.46
			c-2.24,3.39-3.53,7.45-3.49,11.8l0.02,2.26c0.06,5.83,2.57,11.41,6.89,15.32c4.32,3.91,10.14,5.85,15.92,5.34l6.82-0.6
			c3.14,2.13,6.86,3.29,10.74,3.29c0.26,0,0.52,0,0.78-0.01l6.97-0.29c5.26-0.22,10.05-2.4,13.65-5.84l0.02,0
			c4.4,3.81,10.12,5.72,15.97,5.22l3.09-0.26c3.17-0.26,6.14-1.21,8.79-2.68c3.12,2.21,6.89,3.43,10.77,3.43h8.92
			c10.27,0,18.63-8.36,18.63-18.63V71.51c0-1.01-0.11-2.01-0.27-3c0.71-1.86,1.21-3.83,1.45-5.9l2.37-21.13
			C556.11,38.44,555.71,35.43,554.64,32.66z"/>
		<g>
			<g>
				<path class="st1" d="M504.51,34.52c8.68-0.13,17.37-0.27,26.05-0.4c1.75-0.03,3.61-0.09,5.05-1.08
					c1.67-1.14,2.37-3.26,2.68-5.27c0.39-2.55,0.15-5.56-1.91-7.12c-1.64-1.24-3.89-1.16-5.95-1.03
					c-25.06,1.63-50.16,2.74-75.26,3.35c-2.51,0.06-5.29,0.22-7.08,1.99c-1.4,1.38-1.85,3.45-2.06,5.41
					c-0.19,1.85-0.14,3.92,1.11,5.28c1.44,1.57,3.87,1.61,6,1.52c10.98-0.43,21.96-0.86,32.93-1.29c0.64-0.02,1.31-0.04,1.86,0.28
					c1.25,0.72,1.03,2.75-0.06,3.7c-1.09,0.95-2.64,1.1-4.08,1.21c-11.44,0.89-22.88,1.79-34.32,2.68
					c-0.92,0.07-1.93,0.18-2.59,0.82c-0.7,0.67-0.82,1.73-0.89,2.69l-0.95,11.53c-0.16,1.96-0.27,4.1,0.88,5.69
					c1.71,2.34,5.16,2.26,8.03,1.95c2.17-0.23,4.61-0.63,5.85-2.41c0.73-1.05,0.89-2.37,1.02-3.64c0.43-4.01,0.81-8.03,1.16-12.05
					c7.9-0.34,15.8-0.68,23.7-1.02c0.44-0.02,0.92-0.03,1.29,0.22c0.63,0.42,0.62,1.34,0.54,2.1c-0.38,3.58-0.76,7.17-1.15,10.75
					c-0.18,1.69-0.21,3.74,1.21,4.7c0.77,0.52,1.76,0.54,2.7,0.54c0.95,0,1.91,0,2.86,0c0.93,0,1.93-0.02,2.71-0.53
					c1.24-0.8,1.48-2.48,1.61-3.94c0.38-4.37,0.76-8.73,1.14-13.1c0.05-0.53,0.12-1.11,0.5-1.48c0.42-0.41,1.07-0.43,1.65-0.42
					c6.62,0.06,13.24,0.12,19.86,0.18c0.35,0,0.72,0.01,1.03,0.18c0.73,0.41,0.73,1.44,0.62,2.28c-0.38,3.07-0.76,6.15-1.14,9.22
					c-0.26,2.14-0.46,4.54,0.87,6.24c1.68,2.13,4.86,2.08,7.56,1.84c1.43-0.13,2.92-0.28,4.11-1.08c2.04-1.38,2.49-4.15,2.75-6.6
					c0.3-2.84,0.61-5.68,0.91-8.52c0.29-2.66,0.55-5.46-0.48-7.93c-0.33-0.79-0.8-1.47-1.37-2.03c-1.08-1.06-2.52-1.66-4.11-1.68
					c-2.55-0.03-5.2,0.19-7.75,0.28c-2.4,0.09-4.8,0.19-7.21,0.28c-4.91,0.19-9.82,0.38-14.73,0.57c-0.4,0.02-0.82,0.03-1.2-0.11
					c-1.4-0.5-1.35-2.71-0.22-3.68C501.41,34.61,503.03,34.54,504.51,34.52z"/>
				<path class="st1" d="M465.95,62.37c-0.73,0.83-0.12,2.13,0.98,2.1l8.79-0.25c0.39-0.01,0.76-0.2,0.99-0.52l4.29-5.94
					c0.6-0.83,0.01-2-1.02-2h-0.22c-0.98,0-1.59-1.07-1.08-1.91l0.45-0.75c0.54-0.91-0.2-2.04-1.25-1.9l-9.23,1.25
					c-0.38,0.05-0.72,0.27-0.92,0.61l-1.36,2.29c-0.53,0.89,0.18,2,1.21,1.9c1.14-0.11,1.83,1.23,1.07,2.09L465.95,62.37z"/>
				<path class="st1" d="M503.33,64.24c-0.73,0.83-0.12,2.13,0.98,2.1l8.79-0.25c0.39-0.01,0.76-0.2,0.99-0.52l4.29-5.94
					c0.6-0.84,0-2-1.02-2h-0.22c-0.98,0-1.59-1.07-1.08-1.91l0.45-0.75c0.54-0.91-0.2-2.04-1.25-1.9l-9.23,1.25
					c-0.38,0.05-0.72,0.28-0.92,0.61l-1.36,2.29c-0.53,0.89,0.18,2,1.2,1.9c1.14-0.11,1.83,1.23,1.07,2.09L503.33,64.24z"/>
				<path class="st1" d="M530.55,70.29c-1.84-0.05-3.7,0.05-5.54,0.08c-6.82,0.09-13.64,0.19-20.47,0.28
					c-2.64,0.14-4.77,2.2-5.01,4.83l-3.63,39.39c-0.25,2.68,1.99,4.94,4.68,4.72l3.1-0.26c2.37-0.2,4.2-2.18,4.2-4.56v-3.54
					c0-0.7,0.56-1.26,1.26-1.26h4.12c2.03,0,3.75-1.52,3.99-3.54l0.18-1.43c0.25-2.04-1.52-3.75-3.55-3.43
					c-0.87,0.14-1.83,0.29-2.82,0.44c-1.67,0.26-3.18-1.03-3.18-2.72v-2.55c0-1.24,1-2.24,2.24-2.24h5.59c1.96,0,3.6-1.46,3.84-3.4
					l0.18-1.46c0.26-2.09-1.56-3.84-3.64-3.52c-1.52,0.24-3.28,0.51-4.98,0.78c-1.71,0.27-3.22-1.07-3.22-2.8
					c0-1.62-0.22-3.32,0.12-4.94c0.67-3.14,4.1-2.3,6.47-2.22c3.04,0.11,6.08,0.18,9.12,0.28c1.1,0.03,2.23-0.11,3.08,0.73
					c1.43,1.42,0.83,3.97,0.63,5.77c-0.2,1.79-0.4,3.58-0.6,5.38l-1.45,13.08L524,113.42c-0.19,1.69-0.73,3.97,0.35,5.49
					c1.23,1.73,4.08,1.1,5.9,1.1c2.55,0,4.61-2.06,4.61-4.61v-0.84V93.33V80.34c0-2.82,0.55-7.51-1.91-9.31
					C532.35,70.59,531.57,70.32,530.55,70.29z"/>
				<path class="st1" d="M491.93,90.19l-14.31,0.68c-0.78,0.04-1.42-0.6-1.39-1.38l0.01-0.31c0.03-0.71,0.61-1.28,1.33-1.28h1.67
					c2.34,0,6.04,1.03,7.98-0.82c1.77-1.69,1.5-6.08,1.83-8.42c0.09-0.62,0.58-1.1,1.2-1.15l2.17-0.19
					c1.21-0.11,2.14-1.12,2.14-2.33c0-1.58-1.29-2.85-2.87-2.83l-0.54,0.01c-0.62,0.01-1.1-0.54-1.01-1.15l0.01-0.05
					c0.09-0.63-0.42-1.18-1.06-1.15l-8.82,0.51c-0.56,0.03-1.02,0.48-1.03,1.03c-0.01,0.54-0.45,0.98-0.99,0.99l-13.68,0.19
					c-0.66,0.01-1.18-0.57-1.08-1.23l0.04-0.26c0.1-0.67-0.45-1.27-1.13-1.23l-8.81,0.51c-0.53,0.03-0.95,0.47-0.95,1v0.38
					c0,0.55-0.44,1-0.99,1.01l-2.14,0.03c-2.05,0.03-3.69,1.7-3.69,3.74v1.06c0,2.09,1.79,3.74,3.88,3.55l1.5-0.13
					c0.78-0.07,1.45,0.55,1.45,1.33v1.48v1.33c0,1.54,1.25,2.79,2.79,2.79h5.71h5.09c0.82,0,1.44,0.73,1.32,1.54l-0.14,0.86
					c-0.1,0.62-0.62,1.09-1.25,1.12l-9.18,0.43c-2.08,0.1-4.42-0.07-6.45,0.4c-4.2,0.98-3.43,5.89-3.43,9.08
					c0,2.28,1.85,4.12,4.12,4.12h4.38h8.13c0.66,0,1.17,0.59,1.07,1.25l-0.06,0.34c-0.08,0.52-0.52,0.9-1.05,0.91l-18.28,0.26
					c-2.13,0.03-3.83,1.78-3.81,3.9l0.02,2.1c0.02,2.14,1.86,3.8,3.99,3.61l15.31-1.36c1.15-0.1,2.14,0.87,1.99,2.02
					c-0.15,1.07,0.7,2.01,1.78,1.97l6.91-0.29c1.99-0.08,3.58-1.68,3.66-3.67l0-0.12c0.02-0.67,0.55-1.22,1.21-1.28l12.57-1.11
					c1.55-0.14,2.95-1.18,3.3-2.7c0.45-1.98-1.05-3.72-2.94-3.69l-12.76,0.18c-0.58,0.01-1.04-0.47-1.02-1.04l0.01-0.29
					c0.02-0.54,0.47-0.97,1.01-0.97h8.16c1.66,0,3.6,0.3,5.18-0.18c3.7-1.13,4.42-5.61,5.02-8.82l0.44-2.18
					C495.86,92.09,494.14,90.09,491.93,90.19z M465.95,99.37c-0.09,0.59-0.59,1.03-1.18,1.06l-6.71,0.34
					c-0.82,0.04-1.45-0.69-1.3-1.49l0.34-1.81c0.11-0.6,0.63-1.03,1.24-1.03h6.6c0.78,0,1.37,0.69,1.25,1.46L465.95,99.37z
					 M463.35,83.06c-0.8,0.05-1.45-0.64-1.33-1.44l0.09-0.65c0.08-0.58,0.55-1.03,1.14-1.08l14.62-1.3
					c0.74-0.07,1.37,0.52,1.37,1.26v0.97c0,0.66-0.52,1.22-1.18,1.26L463.35,83.06z M484.78,98.22c0,0.67-0.53,1.23-1.2,1.26
					l-6.36,0.32c-0.74,0.04-1.35-0.57-1.32-1.31l0.03-0.85c0.02-0.68,0.58-1.22,1.26-1.22h6.33c0.7,0,1.26,0.57,1.26,1.26V98.22z"/>
			</g>
			<g>
				<path class="st1" d="M87.13,75.26c0.81-4.95-3.01-9.44-8.03-9.44H52.29c-2.13,0-3.81-1.82-3.63-3.94l2.16-26.79
					c0.46-5.64-4.26-10.34-9.9-9.87c-4.46,0.38-8,3.93-8.36,8.39l-2.21,27.41c-0.22,2.71-2.48,4.8-5.2,4.8
					c-3.33,0-6.2,2.36-6.85,5.63l-0.83,4.19c-0.66,3.35,1.9,6.46,5.31,6.46c3.16,0,5.65,2.7,5.39,5.85l-1.76,21.79
					c-0.43,5.33,3.78,9.9,9.13,9.9c4.77,0,8.75-3.66,9.13-8.42l2.08-25.76c0.15-1.89,1.73-3.35,3.63-3.35H79.1
					C83.09,82.09,86.49,79.2,87.13,75.26z"/>
				<path class="st1" d="M110.38,65.82c-2.12,0-3.79-1.8-3.64-3.92l2.36-34.52c0.43-5.75-4.41-10.5-10.14-9.96l-34.3,2.93
					c-3.39,0.29-6.08,3-6.34,6.4c-0.32,4.26,3.25,7.81,7.51,7.45l24.9-2.08c3.68-0.31,6.75,2.77,6.44,6.45l-4.93,61.4
					c-0.19,2.24-2.33,3.77-4.51,3.23l-7.03-1.74c-3.42-0.85-6.84,1.38-7.44,4.86c-0.53,3.08,1.36,6.07,4.38,6.89l13.18,3.59
					l-0.01,0.06l1.85,0.44l2.94,0.8c3.53,0.96,7.06-1.54,7.33-5.19l2.06-27.44c0.14-1.9,1.73-3.37,3.63-3.37
					c3.83,0,7.09-2.77,7.7-6.55l0.38-2.31C117.32,69.35,114.32,65.82,110.38,65.82z"/>
				<path class="st1" d="M80.99,49.23c0-5.44-4.41-9.86-9.86-9.86s-9.86,4.41-9.86,9.86c0,5.45,4.41,9.86,9.86,9.86
					S80.99,54.67,80.99,49.23z"/>
			</g>
			<g>
				<path class="st1" d="M194.01,103.35h-3.96c-2.46,0-4.4-2.1-4.19-4.55l5.53-66.03c0.49-5.8-4.09-10.78-9.91-10.78
					c-5.17,0-9.48,3.96-9.91,9.12l-5.73,68.39c-0.18,2.18-2,3.85-4.19,3.85h-6.36c-2.46,0-4.39-2.1-4.19-4.54l1.44-23.26
					c0.02-0.23,0.07-0.45,0.07-0.69c0-0.09-0.02-0.16-0.03-0.25c0.02-0.39-0.03-0.77-0.11-1.14c-0.66-3.64-3.82-6.4-7.65-6.4
					c-3.48,0-6.39,2.29-7.39,5.43c-0.25,0.48-0.42,1.02-0.46,1.59l-5.87,40.99c-0.2,2.45,1.74,4.54,4.19,4.54h11.12h17.75h19.96
					h8.99c2.13,0,3.93-1.6,4.18-3.72l0.91-7.87C198.48,105.55,196.52,103.35,194.01,103.35z"/>
				<path class="st1" d="M220.63,76.08C220.63,76.08,220.63,76.08,220.63,76.08c0-0.01,0-0.01,0-0.01c0.03-0.67-0.09-1.3-0.34-1.87
					c-0.78-2.19-2.85-3.78-5.31-3.78c-2.6,0-4.76,1.76-5.43,4.15c-0.02,0.05-0.03,0.1-0.05,0.16c-0.04,0.15-0.06,0.3-0.09,0.45
					c-0.01,0.09-0.04,0.17-0.05,0.26l-2.46,40.17c-0.26,2.48,0,4.63,2.49,4.63h2.9c2.16,0,3.96-1.63,4.18-3.77l4.15-40.17
					C220.64,76.22,220.62,76.15,220.63,76.08z"/>
			</g>
			<g>
				<path class="st1" d="M428.2,42.15c0.4-3.93-2.7-7.35-6.67-7.32c-2.3,0.02-3.82-2.41-2.89-4.52l0.07-0.16
					c1.66-3.77-1.32-7.93-5.42-7.59l-3.79,0.32c-3.48,0.29-6.54,2.42-8.04,5.58l-2.83,5.97c-0.51,1.08-1.57,1.78-2.76,1.84
					l-0.47,0.02c-1.93,0.09-3.5-1.53-3.36-3.46l0.39-5.17c0.3-3.89-2.96-7.13-6.85-6.8l-4.25,0.36c-3.94,0.33-7.06,3.48-7.36,7.42
					l-0.44,5.83c-0.12,1.62-1.44,2.9-3.06,2.97l-0.66,0.03c-1.47,0.07-2.8-0.87-3.23-2.28l-2.31-7.57c-1.04-3.4-4.31-5.61-7.85-5.32
					l-5.6,0.47c-3.47,0.29-5.75,3.77-4.64,7.07l1.53,4.52c1.35,4-3.6,3.9-6.22,3.97c-4.97,0.12-7.81,3.04-7.69,7.95
					c0.07,2.82,0.01,12.21,3.58,12.71c2.39,0.33,8.8,0.49,10.54-1.35c1.48-1.58-0.41-10.25,2.47-10.8c2.05-0.39,4.42-0.18,6.51-0.27
					c5.43-0.22,10.87-0.44,16.3-0.66c10.34-0.42,20.68-0.84,31.02-1.26c2.14-0.09,4.28-0.26,6.42-0.26c3.86,0,3.52,3.19,3.74,7
					c0.11,1.91,1.43,3.51,3.34,3.51h4.03c3.34,0,6.14-2.53,6.47-5.85L428.2,42.15z"/>
				<path class="st1" d="M414.04,78.16c-0.46-0.21-0.96-0.32-1.51-0.28l-11.64,0.27c-2.65,0.16-4.89-3.29-3.52-5.57l8-13.34
					c1.97-3.29-0.52-7.44-4.35-7.24l-4.46,0.23l-32.22,2.43c-4.54,0.34-8.13,4-8.39,8.55c-0.32,5.53,4.48,9.99,9.97,9.26l10.32-1.36
					c3.07-0.4,4.97,3.26,2.87,5.54l-1.83,1.98c-0.57,0.61-1.35,0.98-2.18,1.03l-30.5,1.8c-0.19,0.01-0.36,0.09-0.55,0.14
					c-0.05,0-0.09-0.01-0.14-0.01c-4.31,0-7.8,3.49-7.8,7.8c0,4.31,3.49,7.8,7.8,7.8c0.07,0,0.14-0.02,0.21-0.02
					c0.24,0.02,0.49,0.01,0.74-0.03l29.73-2.29c2.03-0.32,3.84,1.32,3.72,3.37l0.22,3.54c-0.03,2.1-2.02,3.6-4.05,3.06
					c-3.41-0.91-6.86,1.3-7.47,4.77l-0.03,0.19c-0.67,3.84,1.69,7.57,5.45,8.61l11.52,3.18c5.06,1.4,10.04-2.4,10.08-7.64
					c0.05-6.52-0.11-13.07-0.04-19.6c0.09-1.51,1.22-2.74,2.71-2.98l15.7-1.58c0,0,0,0,0.01,0c3.27,0,5.93-2.65,5.93-5.93
					C418.35,81.13,416.52,78.87,414.04,78.16z"/>
			</g>
			<path class="st2" d="M312.96,77.3c8.54-10.19,13.62-23.95,9.95-37.07c-4.57-16.35-24.01-21.39-39.26-21.38
				c-29.26,0.02-45.06,34.08-43.55,62.61c-2.61-0.29-5.19-0.28-7.24,0.86c-4.48,2.49-2.1,11.23,1.82,13.51
				c2.26,1.32,5.3,1.95,8.59,2.21c0.7,1.94,1.5,3.8,2.43,5.56c8.03,15.21,24.64,25.68,40.86,22.99c4.73-0.79,9.43-2.69,13.87-5.93
				c5.29-3.85,14.01-11.46,11.84-19.02c-1.51-5.25-4.32-3.68-7.42-0.85c-10.02,9.17-22.76,11.77-30.06-2.02
				c-0.41-0.78-0.78-1.58-1.12-2.39C288.5,94.13,303.4,88.71,312.96,77.3z M299.95,61.11c-0.8,2.7-2.69,4.95-4.8,6.82
				c-7.07,6.26-15.49,10.41-24.59,12.57c-0.21-12.53,4.92-28.06,19.37-29.47C296.03,50.43,301.95,54.42,299.95,61.11z"/>
		</g>
	</g>
	<path class="st3" d="M525.67,219.74H32.09c-14.93,0-27.04-12.11-27.04-27.04v-3.83c0-14.93,12.11-27.04,27.04-27.04h493.58
		c14.93,0,27.04,12.11,27.04,27.04v3.83C552.71,207.64,540.61,219.74,525.67,219.74z"/>
	<g>
		<path class="st1" d="M220.72,195.4h-10.91c-0.7-0.56-1.55-1.08-2.54-1.57l1.39-0.63c0.52-0.24,1.02-0.45,1.49-0.62
			c0.47-0.18,0.95-0.33,1.42-0.47c0.48-0.14,1.03-0.28,1.64-0.43c1.18-0.29,1.95-0.66,2.36-1.12c0.42-0.46,0.63-1.04,0.63-1.71
			c0-0.19-0.02-0.38-0.07-0.55c0.26,0.38,0.71,0.64,1.36,0.79c0.45,0.1,0.86,0.18,1.21,0.23c0.38,0.06,0.73,0.04,1.06-0.04
			c0.33-0.09,0.64-0.26,0.92-0.51c0.27-0.25,0.54-0.61,0.8-1.09c0.48-0.88,0.81-1.71,0.99-2.48c0.17-0.76,0.26-1.48,0.26-2.13
			c0-1.38-0.45-2.35-1.33-2.87c-0.84-0.5-2.06-0.76-3.6-0.76h-2.55c0.33-0.4,0.63-0.8,0.88-1.19c0.34-0.52,0.74-1.17,1.22-1.97
			c0.6-1.06,0.73-1.92,0.38-2.54c-0.34-0.61-1-1.02-1.97-1.24c-0.81-0.13-1.46-0.08-1.95,0.18c-0.49,0.25-0.99,0.82-1.52,1.73
			c-0.49,0.85-1.01,1.69-1.54,2.52c-0.51,0.79-1.14,1.64-1.87,2.53h-2.33c0.21-0.66-0.02-1.51-0.69-2.54
			c-0.26-0.41-0.6-0.88-1.02-1.39c-0.42-0.51-0.86-1.05-1.33-1.63c-0.38-0.5-0.77-0.89-1.17-1.14c-0.4-0.26-0.81-0.42-1.2-0.49
			c-0.4-0.07-0.79-0.05-1.16,0.06c-0.36,0.11-0.69,0.28-0.96,0.5c-0.38,0.3-0.66,0.56-0.84,0.81c-0.2,0.27-0.3,0.56-0.3,0.85
			c0,0.29,0.1,0.6,0.31,0.91c0.19,0.29,0.49,0.65,0.88,1.05c0.31,0.36,0.56,0.63,0.74,0.83c0.17,0.18,0.32,0.35,0.44,0.51
			c0.12,0.16,0.24,0.34,0.36,0.53c0.13,0.2,0.3,0.48,0.51,0.8c0.05,0.12,0.11,0.23,0.18,0.33h-4.49c-0.01-0.52-0.29-1.17-0.86-1.98
			c-0.23-0.34-0.6-0.8-1.1-1.37c-0.5-0.57-1.08-1.18-1.72-1.82c-0.79-0.79-1.57-1.2-2.32-1.2c-0.01,0-0.02,0-0.04,0
			c-0.76,0.01-1.41,0.29-1.92,0.81c-0.49,0.47-0.76,0.98-0.79,1.49c-0.03,0.54,0.33,1.18,1.12,1.98c0.64,0.66,1.14,1.17,1.51,1.54
			c0.2,0.2,0.36,0.38,0.5,0.54h-1.91c-1.64,0-2.87,0.34-3.63,1.01c-0.78,0.68-1.17,1.77-1.17,3.23v3.46c0,0.9,0.24,1.51,0.72,1.82
			c0.45,0.3,1.09,0.44,1.96,0.44c0.86,0,1.53-0.17,2-0.5c0.5-0.35,0.75-0.94,0.75-1.76v-2.81c0-0.15,0.03-0.25,0.1-0.3
			c0.03-0.02,0.15-0.1,0.57-0.1h25.75c0.72,0,0.86,0.16,0.89,0.21c0.05,0.08,0,0.25-0.14,0.47c-0.85,1.35-1.22,2.34-1.14,3.03
			c0.01,0.07,0.02,0.14,0.04,0.2c-0.2-0.32-0.51-0.6-0.92-0.83c-0.74-0.41-1.75-0.62-2.98-0.62h-18.81c-0.89,0-1.56,0.17-2.01,0.51
			c-0.47,0.35-0.71,0.94-0.71,1.76c0,1.05,0.47,2.3,2.72,2.3h9.2c-0.76,0.24-1.41,0.5-1.93,0.76c-0.93,0.47-1.52,0.93-1.8,1.41
			c-0.3,0.52-0.26,1.04,0.13,1.5c0.26,0.3,0.64,0.56,1.17,0.77h-13.58c-0.97,0-1.64,0.2-2.06,0.6c-0.41,0.4-0.62,0.97-0.62,1.7
			c0,0.65,0.21,1.2,0.61,1.63c0.41,0.44,1.1,0.67,2.06,0.67h19.96c0.03,0.58-0.02,1.14-0.14,1.67c-0.13,0.6-0.36,1.12-0.67,1.56
			c-0.31,0.44-0.71,0.8-1.18,1.07c-0.46,0.27-1.01,0.4-1.63,0.4c-1.03,0-2.11-0.13-3.2-0.39c-1.1-0.26-2.5-0.64-4.17-1.12
			c-1.3-0.37-2.29-0.49-3.03-0.37c-0.79,0.13-1.36,0.65-1.7,1.55c-0.34,0.93-0.27,1.66,0.22,2.18c0.46,0.48,1.35,0.87,2.71,1.19
			c1.01,0.28,1.92,0.52,2.75,0.72c0.83,0.2,1.61,0.37,2.34,0.5c0.74,0.13,1.45,0.22,2.11,0.29c0.68,0.06,1.38,0.1,2.07,0.1
			c1.33,0,2.63-0.24,3.85-0.7c1.22-0.46,2.29-1.12,3.18-1.95c0.89-0.83,1.56-1.86,2.01-3.04c0.42-1.11,0.55-2.33,0.4-3.66h8.45
			c0.99,0,1.69-0.24,2.07-0.7c0.37-0.45,0.56-1,0.56-1.64c0-0.72-0.19-1.29-0.57-1.68C222.4,195.6,221.72,195.4,220.72,195.4z"/>
		<path class="st1" d="M269.76,176.09c-0.54-0.52-1.34-0.86-2.39-1.02c-1.01-0.15-2.42-0.23-4.18-0.23h-24.24
			c-0.99,0-1.69,0.19-2.13,0.57c-0.44,0.39-0.67,1.04-0.67,1.92s0.23,1.53,0.67,1.92c0.44,0.39,1.14,0.57,2.13,0.57h3.74
			c-0.66,0.27-1.06,0.81-1.29,1.35c-0.43,0.89-0.47,1.62-0.11,2.18c0.34,0.53,0.97,0.97,1.91,1.35c1.14,0.47,2.26,0.95,3.34,1.42
			c1.06,0.47,2.11,0.96,3.13,1.46c1.05,0.52,2.08,1.05,3.08,1.59c1.03,0.56,2.13,1.17,3.25,1.82c1.01,0.6,1.84,0.82,2.54,0.68
			c0.02,0,0.05-0.01,0.07-0.02c-1.1,0.61-2.17,1.17-3.18,1.67c-1.62,0.8-3.33,1.53-5.08,2.18c-1.75,0.64-3.62,1.24-5.58,1.78
			c-1.95,0.54-4.21,1.08-6.72,1.61c-0.86,0.19-1.51,0.54-1.93,1.03c-0.44,0.52-0.56,1.23-0.34,2.13c0.24,0.93,0.65,1.54,1.22,1.82
			c0.56,0.27,1.42,0.26,2.63-0.04c5.01-1.16,9.51-2.5,13.39-3.98c3.89-1.48,7.49-3.22,10.72-5.17c0.84-0.51,1.36-1.03,1.58-1.58
			c-0.03,1.15-0.06,2.09-0.1,2.8c-0.04,0.78-0.08,1.35-0.1,1.7c-0.14,1.38-0.32,2.49-0.54,3.32c-0.21,0.81-0.51,1.44-0.89,1.88
			c-0.37,0.43-0.84,0.72-1.4,0.87c-1.26,0.34-3.23,0.33-5.85-0.12c-1.4-0.24-3.07-0.65-4.97-1.23c-0.98-0.29-1.79-0.37-2.4-0.25
			c-0.66,0.13-1.16,0.61-1.5,1.42c-0.39,0.87-0.47,1.61-0.23,2.19c0.24,0.59,0.99,1.11,2.3,1.57c1.93,0.66,3.77,1.11,5.48,1.34
			c1.7,0.23,3.26,0.34,4.63,0.34c1.71,0,3.22-0.17,4.49-0.5c1.29-0.34,2.39-0.92,3.28-1.73c0.89-0.81,1.59-1.88,2.07-3.19
			c0.48-1.29,0.79-2.91,0.93-4.8c0.06-0.93,0.1-2.09,0.15-3.45c0.04-1.36,0.08-2.79,0.13-4.31c0.04-1.52,0.08-3.06,0.1-4.62
			c0.03-1.56,0.04-3.02,0.04-4.39c0-1.5-0.06-2.72-0.19-3.62C270.64,177.36,270.3,176.61,269.76,176.09z M264.9,190.91L264.9,190.91
			c-0.58-0.75-1.22-1.14-1.9-1.16c-0.03,0-0.06,0-0.09,0c-0.64,0-1.4,0.25-2.26,0.76c-0.3,0.18-0.6,0.35-0.89,0.52
			c0.19-0.19,0.36-0.41,0.52-0.67c0.49-0.78,0.63-1.45,0.42-1.99c-0.2-0.53-0.77-1.05-1.72-1.59c-2.07-1.21-4.31-2.4-6.64-3.56
			c-2.32-1.15-4.6-2.19-6.77-3.1c-0.28-0.12-0.55-0.21-0.8-0.28h19.81c0.38,0,0.64,0.07,0.74,0.21c0.04,0.05,0.17,0.32,0.14,1.45
			c0,2.45-0.01,4.66-0.04,6.55c-0.02,1.4-0.04,2.65-0.06,3.73C265.26,191.47,265.11,191.19,264.9,190.91z"/>
		<path class="st1" d="M320.64,179.85c-0.38-0.33-0.92-0.55-1.59-0.65c-0.64-0.09-1.49-0.13-2.52-0.13H306.5v-4.54
			c0-0.92-0.25-1.56-0.73-1.91c-0.47-0.34-1.14-0.5-2.07-0.5c-0.99,0-1.68,0.17-2.12,0.51c-0.45,0.35-0.68,0.99-0.68,1.91v4.54
			h-9.82c-1.02,0-1.85,0.06-2.49,0.17c-0.67,0.12-1.2,0.35-1.58,0.68c-0.39,0.34-0.65,0.82-0.77,1.41
			c-0.11,0.56-0.17,1.29-0.17,2.16v11.55c0,0.82,0.06,1.52,0.17,2.08c0.12,0.6,0.38,1.08,0.77,1.43c0.38,0.35,0.91,0.59,1.58,0.73
			c0.64,0.13,1.48,0.2,2.5,0.2h9.82v7.54c0,0.89,0.17,1.5,0.53,1.88c0.36,0.39,1.1,0.57,2.27,0.57c1.06,0,1.77-0.22,2.19-0.67
			c0.4-0.44,0.61-1.03,0.61-1.75v-7.58h10.07c1.06,0,1.89-0.06,2.54-0.2c0.67-0.13,1.2-0.37,1.58-0.7c0.39-0.34,0.65-0.81,0.77-1.41
			c0.11-0.56,0.17-1.27,0.17-2.12v-11.51c0-0.92-0.07-1.69-0.19-2.26C321.3,180.67,321.03,180.19,320.64,179.85z M316.07,184.98v8.4
			c0,0.75-0.1,0.93-0.12,0.95c0,0-0.11,0.13-0.8,0.13h-8.65v-10.37h8.32c0.79,0,1.02,0.11,1.08,0.16
			C315.95,184.28,316.07,184.44,316.07,184.98z M300.9,184.09v10.37h-8.44c-0.58,0-0.7-0.11-0.71-0.13
			c-0.01-0.01-0.12-0.16-0.12-0.95v-8.4c0-0.65,0.09-0.77,0.1-0.79c0,0,0.1-0.1,0.61-0.1H300.9z"/>
		<path class="st1" d="M352.22,180.51c0.43,1.31,0.81,2.66,1.12,3.99c0.32,1.34,0.61,2.74,0.85,4.17c0.25,1.43,0.49,3.01,0.71,4.7
			c0.15,1.04,0.39,1.76,0.74,2.19c0.37,0.46,1.06,0.68,2.1,0.68c1.11,0,1.88-0.27,2.29-0.8c0.41-0.53,0.52-1.45,0.34-2.83l0,0
			c-0.22-1.73-0.47-3.36-0.75-4.84c-0.28-1.5-0.61-2.97-0.99-4.39c-0.37-1.41-0.8-2.85-1.28-4.29c-0.48-1.44-1.03-2.99-1.64-4.6
			c-0.42-1-0.95-1.61-1.58-1.81c-0.61-0.19-1.34-0.14-2.17,0.16c-0.85,0.33-1.37,0.72-1.58,1.19c-0.21,0.48-0.11,1.21,0.31,2.25
			C351.28,177.77,351.79,179.19,352.22,180.51z"/>
		<path class="st1" d="M339.63,179.22L339.63,179.22c-1,0.06-1.68,0.31-2.08,0.77c-0.39,0.46-0.58,1.24-0.58,2.41
			c0,1.71-0.05,3.33-0.15,4.83c-0.1,1.5-0.25,2.95-0.46,4.33c-0.21,1.38-0.46,2.75-0.75,4.07c-0.29,1.32-0.63,2.68-1.02,4.03
			c-0.32,1.14-0.41,1.96-0.27,2.5c0.15,0.58,0.67,1.04,1.56,1.37c0.52,0.18,0.98,0.3,1.37,0.34c0.09,0.01,0.17,0.01,0.26,0.01
			c0.32,0,0.61-0.06,0.86-0.19c0.32-0.16,0.6-0.44,0.83-0.84c0.22-0.37,0.43-0.86,0.63-1.46c0.47-1.62,0.88-3.19,1.2-4.67
			c0.32-1.48,0.58-2.99,0.78-4.49c0.19-1.49,0.35-3.04,0.46-4.61c0.11-1.56,0.19-3.28,0.25-5.1c0.06-1.21-0.18-2.08-0.7-2.6
			S340.57,179.17,339.63,179.22z"/>
		<path class="st1" d="M366.1,195.39c-0.53-0.37-1.21-0.53-2.02-0.48c-1.06,0.06-1.75,0.31-2.11,0.78
			c-0.35,0.46-0.49,1.12-0.43,2.04c0.03,0.27,0.04,0.51,0.04,0.72v0.67c0,0.91-0.07,1.66-0.2,2.22c-0.13,0.53-0.38,0.93-0.77,1.23
			c-0.4,0.3-0.98,0.52-1.75,0.64c-0.79,0.12-1.88,0.19-3.22,0.19c-1.37,0-2.48-0.04-3.3-0.13c-0.79-0.09-1.39-0.24-1.79-0.46
			c-0.38-0.21-0.61-0.49-0.72-0.86c-0.12-0.41-0.18-0.96-0.18-1.64v-20.82c0-0.88-0.22-1.53-0.67-1.93c-0.44-0.4-1.14-0.6-2.13-0.6
			c-0.97,0-1.64,0.2-2.06,0.6c-0.41,0.4-0.62,1.05-0.62,1.93v21.17c0,1.54,0.17,2.83,0.49,3.82c0.34,1.02,0.94,1.84,1.79,2.44
			c0.83,0.59,1.99,1.01,3.43,1.24c1.42,0.23,3.24,0.34,5.41,0.34c2.29,0,4.21-0.17,5.7-0.5c1.51-0.34,2.73-0.88,3.62-1.63
			c0.9-0.75,1.53-1.71,1.9-2.87c0.35-1.13,0.53-2.53,0.53-4.14v-0.91c0-0.33-0.01-0.68-0.04-1.04
			C366.96,196.45,366.65,195.78,366.1,195.39z"/>
		<path class="st1" d="M373.88,199.41c-0.31-1.93-0.63-3.72-0.96-5.31c-0.33-1.61-0.7-3.16-1.09-4.63c-0.39-1.47-0.83-2.94-1.3-4.37
			c-0.48-1.45-1.02-2.96-1.59-4.5c-0.42-1.22-0.95-1.97-1.63-2.29c-0.68-0.32-1.51-0.28-2.46,0.13c-0.41,0.16-0.73,0.33-0.98,0.51
			c-0.26,0.2-0.45,0.45-0.55,0.75c-0.1,0.29-0.11,0.65-0.03,1.07c0.07,0.4,0.22,0.9,0.45,1.49c1.08,2.81,2.01,5.71,2.77,8.62
			c0.76,2.9,1.38,6.07,1.85,9.41c0.17,1.32,0.44,2.21,0.82,2.72c0.35,0.47,0.94,0.71,1.77,0.71c0.13,0,0.26,0,0.39-0.02
			c1.07-0.08,1.84-0.43,2.27-1.03C374.06,202.05,374.14,200.99,373.88,199.41z"/>
	</g>
</g>
</svg>
