<?xml version="1.0" encoding="utf-8"?>
<!-- Generator: Adobe Illustrator 22.1.0, SVG Export Plug-In . SVG Version: 6.00 Build 0)  -->
<svg version="1.1" id="圖層_1" xmlns="http://www.w3.org/2000/svg" xmlns:xlink="http://www.w3.org/1999/xlink" x="0px" y="0px"
	 viewBox="0 0 201.3 51.8" style="enable-background:new 0 0 201.3 51.8;" xml:space="preserve">
<style type="text/css">
	.st0{clip-path:url(#SVGID_2_);}
	.st1{fill:#4D4D4D;}
	.st2{fill:url(#SVGID_3_);}
	.st3{fill:#040000;}
	.st4{fill:#212121;}
	.st5{fill:#EB6619;}
</style>
<g>
	<g>
		<defs>
			<path id="SVGID_1_" d="M51.8,25.9c0,14.3-11.6,25.9-25.9,25.9C11.6,51.8,0,40.2,0,25.9C0,11.6,11.6,0,25.9,0
				C40.2,0,51.8,11.6,51.8,25.9z"/>
		</defs>
		<clipPath id="SVGID_2_">
			<use xlink:href="#SVGID_1_"  style="overflow:visible;"/>
		</clipPath>
		<g class="st0">
			<path class="st1" d="M46.7,10.5c0-0.1-0.1-0.1-0.1-0.1C46.6,10.4,46.6,10.4,46.7,10.5z"/>
			<linearGradient id="SVGID_3_" gradientUnits="userSpaceOnUse" x1="7.4183" y1="7.6255" x2="44.2049" y2="44.4121">
				<stop  offset="0" style="stop-color:#F9BF11"/>
				<stop  offset="1" style="stop-color:#E73820"/>
			</linearGradient>
			<path class="st2" d="M45.5,9c1.6,2.9,3.9,8.5-0.8,19.7c4-18.3-5.9-25.3-5.9-25.3c6.3,10.1-1,25.3-1,25.3S44,6.3,32,0.7
				c5.4,3.1,3.7,28.8-10.4,28c-5.9-0.3-8.5-5.2-9-8c-1.1-5.9,3.3-10.3,6.7-11c0,0,6-2.3,10.7,3.4c0.2-1.1,0.1-2.1-0.1-3.2
				c-0.2-1-0.4-2-0.9-2.9c-0.6-1.1-1.7-1.9-2.4-2.9c-0.7-0.9-1.3-1.9-1.8-2.9c-0.1-0.2-0.2-0.5-0.3-0.7c0-0.1-0.2-0.5-0.1-0.6
				c-0.8,2.8,0.5,4.3,0.7,5c-2.6-0.9-5.5-1.4-8.3-1.2C15,4,13,4.4,11.2,5.1c-3.8,1.6-6.5,5.3-8.3,8.8c-0.6,1.2-1.2,2.5-1.7,3.8
				c-0.8,2-1,3.6-1.2,5.4C0,24-0.1,25-0.1,25.9c0,14.3,10.8,25.6,25.9,25.9c18,0.4,24-16.1,24-16.1C53.2,27.4,52.4,17,45.5,9z"/>
		</g>
	</g>
	<g>
		<path class="st3" d="M62.8,27.8c-1,0-2.1,0-3.2,0l-0.1-0.6l1.6-0.5c0.2-0.1,0.3-0.2,0.3-0.4c0-0.3,0-0.7,0-1.2c0-0.4,0-0.9,0-1.4
			V13.4c0-0.4,0-0.8,0-1.2c0-0.4,0-0.7,0-1c0-0.2-0.1-0.4-0.3-0.4l-1.6-0.5l0-0.6c1.1,0,2.2,0.1,3.2,0.1c0.9,0,1.7,0,2.5-0.1
			c0.8,0,1.6-0.1,2.5-0.1c3,0,5.2,0.7,6.8,2c1.5,1.4,2.3,3.4,2.3,6.1c0,3.2-0.8,5.6-2.5,7.4c-1.7,1.8-4,2.6-7,2.6
			c-0.8,0-1.6,0-2.2,0C64.3,27.8,63.6,27.8,62.8,27.8z M64.1,26.7c0.5,0.1,1,0.1,1.5,0.1c0.5,0,1,0,1.5,0c2.3,0,4-0.7,5.2-2
			c1.2-1.3,1.8-3.4,1.8-6.1c0-2.7-0.6-4.7-1.7-5.9c-1.1-1.3-2.9-1.9-5.3-1.9c-0.4,0-0.8,0-1.3,0c-0.5,0-1,0-1.6,0.1V26.7z"/>
		<path class="st3" d="M80.1,16.7c1.7-0.7,3.1-1.1,4.4-1.1c1.3,0,2.4,0.3,3.1,1c0.8,0.7,1.1,1.7,1.1,3l-0.1,5.3c0,0.4,0,0.8,0,1.1
			c0,0.3,0.1,0.5,0.2,0.6c0.1,0.1,0.3,0.2,0.6,0.3c0.2,0.1,0.6,0.1,1,0.1l0.1,0.5c-0.4,0.1-0.8,0.3-1.4,0.4
			c-0.5,0.1-0.9,0.2-1.1,0.2c-0.8,0-1.4-0.4-1.7-1.3c-1.2,0.9-2.4,1.3-3.4,1.3c-1.2,0-2.2-0.3-2.9-0.9c-0.7-0.6-1.1-1.4-1.1-2.5
			c0-1.3,0.6-2.3,1.8-2.9c1.2-0.6,3-0.9,5.5-0.9l0-1c0-1-0.2-1.7-0.7-2.1c-0.5-0.5-1.3-0.7-2.3-0.7c-0.8,0-1.8,0.1-2.9,0.4
			L80.1,16.7z M86.4,22c-1.8,0-3,0.2-3.7,0.6c-0.7,0.4-1,1-1,1.9c0,0.8,0.2,1.4,0.7,1.7c0.4,0.3,1,0.5,1.8,0.5
			c0.8,0,1.6-0.1,2.2-0.4L86.4,22z"/>
		<path class="st3" d="M92.5,16.5c1.4-0.3,2.8-0.6,4.1-0.9l0.1,0.1v1.5c1.5-1.1,2.9-1.6,4.2-1.6c1.2,0,2.2,0.3,2.9,1
			c0.7,0.7,1,1.6,1,2.9v4.5c0,1.1,0,1.9,0,2.4c0,0.2,0.1,0.4,0.3,0.5l1.4,0.4l0,0.5c-1.1,0-2.1,0-3,0c-0.8,0-1.8,0-2.8,0l-0.1-0.5
			l1.3-0.4c0.2-0.1,0.3-0.2,0.3-0.4c0-0.1,0-0.4,0-0.8v-5.6c0-1.1-0.3-1.8-0.8-2.3c-0.5-0.5-1.2-0.7-2.2-0.7c-0.9,0-1.8,0.2-2.7,0.7
			v5.6c0,1.1,0,2.1,0,2.9c0,0.2,0.1,0.4,0.3,0.4l1.3,0.4l0,0.5c-1.1,0-2,0-2.9,0c-0.8,0-1.8,0-3,0l-0.1-0.5l1.5-0.4
			c0.2-0.1,0.3-0.2,0.3-0.4c0-0.5,0-1.1,0-1.6v-4.4c0-1.1,0-2.2-0.1-3.1l-1.7-0.5L92.5,16.5z"/>
		<path class="st3" d="M117.9,11c-0.9-0.3-1.7-0.4-2.5-0.4c-1.1,0-2,0.3-2.7,0.8c-0.7,0.5-1,1.3-1,2.3c0,0.6,0.1,1,0.4,1.5
			c0.2,0.4,0.6,0.8,1,1.1c0.4,0.3,0.9,0.6,1.4,0.8c0.5,0.2,1,0.5,1.6,0.7c0.6,0.3,1.2,0.5,1.7,0.8c0.6,0.3,1.1,0.6,1.5,1
			c0.4,0.4,0.8,0.8,1.1,1.4c0.3,0.5,0.4,1.2,0.4,1.9c0,1.7-0.7,3-2,3.9c-1.3,0.9-3.1,1.3-5.2,1.3c-1.4,0-2.9-0.2-4.5-0.7l-0.1-0.1
			l0.6-4.4l0.6-0.1l0.9,3.7c0.9,0.4,1.8,0.5,2.8,0.5c1.3,0,2.3-0.3,3-0.8c0.7-0.6,1.1-1.4,1.1-2.4c0-0.5-0.1-1-0.3-1.4
			c-0.2-0.4-0.5-0.8-0.9-1.1c-0.4-0.3-0.8-0.6-1.3-0.8c-0.5-0.2-1-0.5-1.5-0.7c-0.6-0.3-1.2-0.5-1.7-0.8c-0.6-0.3-1.1-0.6-1.5-1
			c-0.5-0.4-0.8-0.9-1.1-1.5c-0.3-0.6-0.4-1.3-0.4-2c0-1.6,0.6-2.8,1.9-3.6c1.3-0.8,2.9-1.3,4.8-1.3c1.4,0,2.8,0.2,4.3,0.5l0.1,0.1
			l-0.8,4l-0.5,0.1L117.9,11z"/>
		<path class="st3" d="M132,26.7c-1.3,1-2.7,1.5-4,1.5c-1.3,0-2.4-0.3-3-1c-0.7-0.7-1-1.7-1-2.9v-2.7c0-1.8,0-3.2-0.1-4.1l-1.7-0.5
			l-0.1-0.4c1.5-0.3,2.9-0.6,4.2-0.9l0.1,0.1c-0.1,1-0.1,2.3-0.1,3.9v4.1c0,1,0.2,1.8,0.7,2.3c0.5,0.5,1.2,0.7,2.1,0.7
			c0.9,0,1.8-0.2,2.7-0.7v-5.5c0-1.2,0-2.2-0.1-3l-1.7-0.5l-0.1-0.4c1.5-0.3,2.9-0.6,4.2-0.9l0.1,0.1c-0.1,1-0.1,2.3-0.1,3.9
			c0,3.1,0,5,0,5.7c0,0.4,0,0.6,0.1,0.8s0.1,0.4,0.2,0.5c0.1,0.1,0.3,0.2,0.5,0.2c0.2,0,0.5,0.1,0.9,0.1l0.1,0.5
			c-0.4,0.2-0.8,0.3-1.4,0.4c-0.5,0.1-0.9,0.2-1.1,0.2C132.9,28.2,132.3,27.7,132,26.7z"/>
		<path class="st3" d="M150,18.1c0.1,0.4,0.2,0.9,0.2,1.4v4.6c0,1,0,1.8,0,2.4c0,0.2,0.1,0.4,0.3,0.4l1.3,0.4l0,0.5c-1,0-2,0-2.8,0
			c-0.8,0-1.8,0-2.8,0l-0.1-0.5l1.2-0.4c0.2-0.1,0.4-0.2,0.4-0.4c0-0.1,0-0.4,0-0.8v-5.6c0-1.1-0.2-1.8-0.7-2.3
			c-0.5-0.5-1.2-0.7-2.1-0.7c-0.8,0-1.7,0.2-2.5,0.7v5.6c0,1.1,0,2.1,0,2.9c0,0.3,0.1,0.4,0.3,0.4l1.4,0.4l0,0.5c-1.1,0-2,0-2.9,0
			c-0.8,0-1.8,0-3,0l-0.1-0.5l1.5-0.4c0.2-0.1,0.3-0.2,0.3-0.4c0-0.5,0-1,0-1.6v-4.4c0-1.1,0-2.2-0.1-3.1l-1.7-0.5l-0.1-0.4
			c1.4-0.3,2.8-0.6,4.1-0.9l0.1,0.1v1.5c1.4-1.1,2.7-1.6,4-1.6c1.5,0,2.7,0.6,3.3,1.8c1.4-1.2,2.8-1.8,4.4-1.8c1.2,0,2.1,0.3,2.8,1
			c0.7,0.7,1,1.6,1,2.9V24c0,1.1,0,1.9,0,2.4c0,0.2,0.1,0.4,0.3,0.5l1.4,0.4l0,0.5c-1.1,0-2.1,0-3,0c-0.9,0-1.8,0-2.8,0l-0.1-0.5
			l1.3-0.4c0.2-0.1,0.3-0.2,0.3-0.4c0-0.1,0-0.4,0-0.8v-5.6c0-1.1-0.2-1.8-0.7-2.3c-0.5-0.5-1.2-0.7-2.2-0.7
			C151.7,17.2,150.8,17.5,150,18.1z"/>
		<path class="st3" d="M173.4,18.1c0.1,0.4,0.2,0.9,0.2,1.4v4.6c0,1,0,1.8,0,2.4c0,0.2,0.1,0.4,0.3,0.4l1.3,0.4l0,0.5
			c-1,0-2,0-2.8,0c-0.8,0-1.8,0-2.8,0l-0.1-0.5l1.2-0.4c0.2-0.1,0.4-0.2,0.4-0.4c0-0.1,0-0.4,0-0.8v-5.6c0-1.1-0.2-1.8-0.7-2.3
			c-0.5-0.5-1.2-0.7-2.1-0.7c-0.8,0-1.7,0.2-2.5,0.7v5.6c0,1.1,0,2.1,0,2.9c0,0.3,0.1,0.4,0.3,0.4l1.4,0.4l0,0.5c-1.1,0-2,0-2.9,0
			c-0.8,0-1.8,0-3,0l-0.1-0.5l1.5-0.4c0.2-0.1,0.3-0.2,0.3-0.4c0-0.5,0-1,0-1.6v-4.4c0-1.1,0-2.2-0.1-3.1l-1.7-0.5l-0.1-0.4
			c1.4-0.3,2.8-0.6,4.1-0.9l0.1,0.1v1.5c1.4-1.1,2.7-1.6,4-1.6c1.5,0,2.7,0.6,3.3,1.8c1.4-1.2,2.8-1.8,4.4-1.8c1.2,0,2.1,0.3,2.8,1
			c0.7,0.7,1,1.6,1,2.9V24c0,1.1,0,1.9,0,2.4c0,0.2,0.1,0.4,0.3,0.5l1.4,0.4l0,0.5c-1.1,0-2.1,0-3,0c-0.9,0-1.8,0-2.8,0l-0.1-0.5
			l1.3-0.4c0.2-0.1,0.3-0.2,0.3-0.4c0-0.1,0-0.4,0-0.8v-5.6c0-1.1-0.2-1.8-0.7-2.3c-0.5-0.5-1.2-0.7-2.2-0.7
			C175.2,17.2,174.3,17.5,173.4,18.1z"/>
		<path class="st3" d="M185.1,16.5c1.5-0.3,2.9-0.6,4.2-0.9l0.1,0.1c-0.1,1.1-0.1,2.3-0.1,3.7v4.9c0,1,0,1.7,0,2.1
			c0,0.2,0.1,0.4,0.3,0.5l1.5,0.4l0,0.5c-1.2,0-2.2,0-3,0c-0.8,0-1.8,0-3,0l-0.1-0.5l1.5-0.4c0.2-0.1,0.3-0.2,0.3-0.4
			c0-0.3,0-0.9,0-1.7v-4.3c0-1.1,0-2.2-0.1-3.1l-1.7-0.5L185.1,16.5z M189.4,11.1c0,0.5-0.1,0.8-0.4,1.1c-0.3,0.3-0.6,0.4-1.1,0.4
			c-0.4,0-0.8-0.1-1-0.4c-0.3-0.3-0.4-0.6-0.4-1.1c0-0.5,0.1-0.8,0.4-1.1c0.3-0.3,0.7-0.4,1.1-0.4c0.4,0,0.8,0.1,1,0.4
			C189.3,10.2,189.4,10.6,189.4,11.1z"/>
		<path class="st3" d="M197.1,17.3c-0.1,2.9-0.1,5.2-0.1,7c0,0.9,0.1,1.5,0.4,1.8c0.3,0.3,0.8,0.5,1.5,0.5c0.6,0,1.4-0.1,2.3-0.2
			l0.1,0.6c-1.5,0.7-2.8,1.1-4,1.1c-0.9,0-1.7-0.3-2.1-0.8c-0.5-0.5-0.7-1.3-0.7-2.3c0-1.7,0-4.3,0.1-7.9l-1.8-0.4l-0.1-0.5l2-0.2
			l0.9-3.1c0.5-0.1,0.9-0.3,1.3-0.4l0.1,0.1c0,1,0,2,0,2.9v0.5h3.9v1.2H197.1z"/>
	</g>
	<g>
		<path class="st4" d="M94.6,43c0-2.4,0-4.1,0-4.9l0.8,0.5h4.4l0.5-0.5l0.8,0.6l-0.5,0.3v4h1l0.7-0.7l0.9,0.9h-2.6v4.5
			c0,0.5-0.3,0.8-1,1.1c0-0.4-0.6-0.8-1.7-1.1v-0.2c0.9,0.2,1.4,0.2,1.7,0.2s0.4-0.2,0.4-0.5v-3.9h-4.5c0,2.4-1.1,4.3-3.2,5.6
			l-0.1-0.2c1.7-1.2,2.6-3,2.6-5.4h-1c-0.4,0-0.8,0-1.1,0.1L92,43H94.6z M95.3,38.8V43h4.5v-4.1H95.3z M96.5,39.8
			c0.7,0.4,1.2,0.8,1.5,1.2s0.3,0.7,0,1.1s-0.5,0.2-0.7-0.4s-0.5-1.2-0.9-1.8L96.5,39.8z"/>
		<path class="st4" d="M115.3,47.2c0-2.9,0-4.5,0-4.8s0-0.8,0-1.4l1.1,0.5l-0.4,0.4c0,2.9,0,4.5,0,4.9s0,0.8,0,1.3l-0.7,0.3v-0.9
			h-6.8l-0.4,0.5l-0.7-0.7l0.4-0.3c0-2.8,0-4.3,0-4.6s0-0.8,0-1.4l1.1,0.5l-0.4,0.3v5.4h3c0-4.5,0-6.9,0-7.3s0-0.9,0-1.7l1.1,0.5
			l-0.4,0.3v8.2H115.3z"/>
		<path class="st4" d="M141,47.5c0.8,0.1,1.3,0.2,1.5,0.2s0.4-0.2,0.4-0.5v-1.8h-3.6c-0.4,0-0.8,0-1.1,0.1l-0.4-0.4h5.1
			c0-0.3,0-0.6,0-1.1l0.5,0.3L145,43h-3.9c-0.4,0-0.8,0-1.1,0.1l-0.4-0.4h5.4l0.5-0.5l0.8,0.9c-0.2,0-0.6,0.1-1,0.3s-1,0.6-1.8,1
			l0.4,0.2l-0.3,0.2v0.2h3l0.8-0.8l1,1h-4.8v2.3c0,0.5-0.4,0.8-1.1,1.1c0-0.3-0.5-0.7-1.5-1V47.5z M146.6,42.7l-0.1-0.1l0.8-1.3h-8
			c0.1,0.4,0.1,0.7,0,1s-0.2,0.4-0.4,0.5s-0.5,0.1-0.6,0s-0.1-0.3,0.1-0.6s0.4-0.9,0.6-1.7h0.2l0,0.6h5.3c0.6-1.2,1-2.2,1.3-3.1
			l1.1,0.7l-0.5,0.2c-0.5,0.7-1.1,1.5-1.6,2.2h2.4l0.5-0.6l0.8,0.9C147.9,41.5,147.3,41.9,146.6,42.7z M139.7,38.3
			c1,0.7,1.5,1.1,1.6,1.5s0,0.6-0.3,0.9s-0.4,0.1-0.5-0.4s-0.4-1.1-0.9-1.9L139.7,38.3z M142.2,38c0.9,0.7,1.4,1.2,1.4,1.5
			s-0.1,0.6-0.3,0.9s-0.4,0.1-0.5-0.4s-0.3-1.2-0.7-1.9L142.2,38z"/>
		<path class="st4" d="M157.3,45.1c0,0.4,0,0.7,0,0.9l-0.6,0.3v-0.3h-1.2v0.8h1.5l0.5-0.5l0.6,0.6c0.2-0.3,0.3-1,0.3-2.1s0-2,0-2.6
			l0.7,0.4h2l0.4-0.4l0.6,0.6l-0.3,0.2v4.8c0,0.3-0.1,0.5-0.2,0.6s-0.4,0.3-0.8,0.4c-0.2-0.4-0.5-0.7-1.2-0.8v-0.2
			c0.8,0.1,1.3,0.2,1.4,0.1s0.1-0.2,0.1-0.4v-1.8h-2.1c-0.1,0.8-0.3,1.4-0.7,1.9s-1,0.9-1.8,1.3l0-0.1c0.8-0.6,1.4-1.1,1.7-1.7h-2.7
			c0,0.8,0,1.3,0,1.6L155,49c0-0.9,0-1.5,0-1.9h-1.3c-0.4,0-0.8,0-1.1,0.1l-0.4-0.4h2.8v-0.8h-1.3v0.2l-0.7,0.3c0-0.6,0-1.3,0-2.1
			l0.7,0.3h1.3v-0.8h-0.4v0.1l-0.6,0.2c0-0.4,0-0.8,0-1.3c-0.4,0-0.7,0-1.1,0.1l-0.4-0.4h1.5c0-0.2,0-0.5,0-0.9l0.8,0.4l-0.2,0.2
			v0.3h1.5c0-0.3,0-0.6,0-0.8l0.9,0.4l-0.3,0.2v0.2h0.4l0.4-0.4l0.7,0.7h-1.5c0,0.5,0,0.9,0,1.1l-0.6,0.2v-0.4h-0.5v0.8h1.2l0.3-0.3
			l0.7,0.6L157.3,45.1z M161.2,40.8l0.5-1h-3.9c0,0.8,0,1.3,0,1.7l-0.7,0.3c0-0.9,0-1.5,0-2h-3.7c0,0.4-0.1,0.7-0.2,0.9
			s-0.3,0.4-0.5,0.4s-0.4-0.1-0.4-0.3s0.1-0.4,0.3-0.5s0.4-0.6,0.5-1.3h0.2l0,0.5h3.7v-0.8h-1.9c-0.4,0-0.8,0-1.1,0.1l-0.4-0.4h6.4
			l0.5-0.5l0.8,0.8h-3.7v0.8h3.8l0.5-0.5l0.8,0.8c-0.3,0-0.5,0.1-0.8,0.3s-0.5,0.4-0.8,0.8L161.2,40.8z M153.8,44.9v0.8h1.3v-0.8
			H153.8z M154.2,41.3h2.1v0.3h-2.1V41.3z M154.3,40.3h1.9v0.3h-1.9V40.3z M154.6,42.9v0.7h1.5v-0.7H154.6z M155.6,44.9v0.8h1.2
			v-0.8H155.6z M158.6,40.3h1.9v0.3h-1.9V40.3z M158.6,41.3h1.9v0.3h-1.9V41.3z M159.1,42.9V44h2.1v-1.1H159.1z M159.1,44.3v1.2h2.1
			v-1.2H159.1z"/>
	</g>
	<g>
		<path class="st5" d="M132.7,47.7c0,0,0.1,0,0.1,0.1c0.1,0,0.1,0.1,0.2,0.1c0.1,0,0.1,0.1,0.1,0.1c0,0,0.1,0.1,0.1,0.1
			c0,0,0,0.1,0,0.1c-0.4,0.5-0.7,0.9-1.2,1.3c-0.4,0.4-0.8,0.7-1.3,0.9c-0.4,0.2-0.9,0.4-1.4,0.5c-0.5,0.1-0.9,0.2-1.4,0.2
			c-0.8,0-1.5-0.2-2.1-0.5c-0.6-0.3-1.2-0.7-1.7-1.3c-0.5-0.5-0.8-1.2-1.1-1.9c-0.3-0.7-0.4-1.5-0.4-2.4c0-0.7,0.1-1.4,0.2-2.1
			c0.2-0.7,0.4-1.3,0.7-2s0.6-1.2,1-1.7c0.4-0.5,0.9-1,1.4-1.4s1.1-0.7,1.7-0.9c0.6-0.2,1.3-0.3,2-0.3c0.5,0,0.9,0.1,1.4,0.2
			c0.4,0.1,0.8,0.3,1.1,0.6c0.3,0.2,0.6,0.5,0.8,0.9c0.2,0.4,0.3,0.8,0.3,1.2c0,0.7-0.2,1.2-0.6,1.7c-0.4,0.5-1,0.9-1.8,1.2
			c-0.8,0.3-1.6,0.6-2.7,0.8c-1,0.2-2.1,0.4-3.3,0.5v0.2c0,0.8,0.1,1.6,0.3,2.3c0.2,0.7,0.5,1.3,0.9,1.7c0.4,0.5,0.8,0.9,1.3,1.1
			s1,0.4,1.6,0.4c0.6,0,1.2-0.1,1.8-0.4C131.4,48.8,132.1,48.3,132.7,47.7z M130.9,39.9c0-0.3-0.1-0.6-0.1-0.8
			c-0.1-0.3-0.2-0.5-0.4-0.7s-0.4-0.3-0.6-0.4c-0.2-0.1-0.5-0.2-0.8-0.2c-0.4,0-0.8,0.1-1.1,0.2c-0.3,0.1-0.6,0.3-0.9,0.6
			c-0.3,0.3-0.5,0.5-0.7,0.9c-0.2,0.3-0.4,0.7-0.5,1.1c-0.1,0.4-0.3,0.8-0.4,1.2s-0.2,0.8-0.2,1.2c0.9-0.1,1.7-0.2,2.5-0.3
			c0.7-0.2,1.3-0.4,1.8-0.6s0.9-0.5,1.1-0.9S130.9,40.4,130.9,39.9z"/>
	</g>
</g>
</svg>
