<?xml version="1.0" encoding="utf-8"?>
<!-- Generator: Adobe Illustrator 22.1.0, SVG Export Plug-In . SVG Version: 6.00 Build 0)  -->
<svg version="1.1" id="圖層_1" xmlns="http://www.w3.org/2000/svg" xmlns:xlink="http://www.w3.org/1999/xlink" x="0px" y="0px"
	 viewBox="0 0 1307.3 198.9" style="enable-background:new 0 0 1307.3 198.9;" xml:space="preserve">
<style type="text/css">
	.st0{fill:#FFFFFF;}
	.st1{fill:#EB6619;}
</style>
<g>
	<g>
		<path class="st0" d="M45,91.6c22.8,0,37.3,4.5,47.3,14.1c7.9,7.8,13.8,19.1,13.8,34.7c0,19-7.8,34.3-20.3,43.7
			c-12.3,9.2-28,12.8-48,12.8H0v-4.5c13.9-1.3,14.6-2.4,14.6-15.7V112c0-13.9-1.9-14.6-14.6-15.9v-4.5C0,91.6,45,91.6,45,91.6z
			 M28.7,175.3c0,12.1,5.2,15.6,17.3,15.6c29.2,0,44.1-19.9,44.1-48.3c0-17.7-6-31.1-18.8-38.9c-7.5-4.7-16.8-6.5-27.7-6.5
			c-7.3,0-11.2,1-12.8,2.3c-1.5,1-2.1,2.8-2.1,9.1L28.7,175.3z"/>
		<path class="st0" d="M171.1,198.8c-2.4,0-6-1.3-7.6-3.1c-2.1-2.1-3.1-4.4-3.9-7.3c-6.5,4.4-14.4,10.4-19.4,10.4
			c-11.5,0-19.8-9.6-19.8-19.9c0-7.9,4.4-13.1,13.3-16.2c9.9-3.4,22-7.6,25.6-10.5V149c0-11.5-5.8-18.1-14.3-18.1
			c-3.7,0-6,1.8-7.6,3.7c-1.8,2.3-2.9,5.8-4.4,10.5c-0.8,2.6-2.3,3.7-4.7,3.7c-3.1,0-7.1-3.2-7.1-7.1c0-2.3,2.1-4.2,5.3-6.5
			c4.7-3.4,14.1-9.4,23.3-11.3c4.9,0,9.9,1.5,13.6,4.4c5.7,4.9,8.3,10.4,8.3,18.8c0,8.9,0,22.4,0,31.3c0,7.5,2.8,9.7,5.7,9.7
			c1.9,0,4.1-0.8,5.8-1.8l1.6,4.5L171.1,198.8z M159.2,157.8c-3.6,1.8-11.3,5.2-15.1,6.8c-6.2,2.8-9.9,5.8-9.9,11.8
			c0,8.6,6.5,12.5,11.7,12.5c4.2,0,10-2.6,13.3-5.8C159.2,175.5,159.2,165.5,159.2,157.8z"/>
		<path class="st0" d="M237.3,196.9v-4.5c9.4-1,10.4-2.1,10.4-13.1v-26.7c0-11.3-4.1-19-14.7-19c-6.6,0-13,3.9-18,8.4v37.9
			c0,11.2,1,11.5,10.5,12.5v4.5h-35v-4.5c10.7-1.1,11.7-1.8,11.7-12.5v-33.4c0-10.5-1.1-11-9.9-12.5v-4.2c7.9-1.3,15.9-3.4,22.7-6.5
			c0,3.7,0,8.9,0,12.8c3.2-2.3,6.8-4.7,11-7.5c4.5-2.9,8.7-4.9,13.4-4.9c13,0,21.1,9.6,21.1,25.3v30.8c0,11,1,11.5,10.4,12.5v4.5
			h-33.6L237.3,196.9L237.3,196.9z"/>
		<path class="st0" d="M320.6,145c-2.9-9.4-7.5-15.9-17.3-15.9c-5.7,0-10.4,4-10.4,10.5c0,7.1,5.3,10.5,14.1,14.4
			c13.3,5.8,20.9,11,20.9,22.2c0,14.9-13.6,22.5-26.4,22.5c-8.4,0-15.9-2.8-19.3-4.7c-0.8-4.7-2.3-13.9-2.9-19.3l4.7-0.8
			c2.9,10.4,8.6,19.3,19.9,19.3c6.2,0,11.7-4.2,11.7-11c0-7.3-4.4-11.2-13.3-15.1c-10.5-4.9-20.9-10.2-20.9-22.5
			c0-11.8,10.4-20.9,25.6-20.9c6.8,0,12.6,1.6,15.9,2.1c0.5,3.9,1.6,14.1,2.4,18L320.6,145z"/>
		<path class="st0" d="M414.9,193.2c-7.8,1.1-16.5,3.2-24.8,5.7c0-2.6,0-8.4,0-12.5c-8.7,7.3-15.9,12.5-24.8,12.5
			c-10.9,0-20.3-6.6-20.3-24.3v-31.4c0-8.7-1.3-9.7-5.3-10.5l-4.5-0.8v-4.2c7-0.3,17.7-1.9,23.2-2.9c-0.5,5.2-0.5,13-0.5,23.7v22
			c0,14.3,7.5,18.3,14.7,18.3c6,0,12-2.6,17.5-7.8v-37.7c0-8.7-1.9-9.9-7.5-10.7l-5.2-0.6v-4.2c10.4-0.5,21.7-2.3,25.4-2.9v54.3
			c0,8.1,1.3,9.2,7.5,9.6l4.5,0.2L414.9,193.2L414.9,193.2z"/>
		<path class="st0" d="M511.1,196.9v-4.5c9.6-1,10.7-1.6,10.7-13v-27.1c0-11.5-3.9-18.8-13.9-18.8c-6.2,0-11.8,3.4-18,8.4
			c0.2,1.9,0.5,3.9,0.5,7v31.4c0,10.2,1.5,11,10.4,12v4.5h-34.7v-4.5c10-1,11.5-1.6,11.5-12.3v-27.9c0-12-3.7-18.6-13.6-18.6
			c-6.5,0-12.8,4.4-17.8,8.4V180c0,10.7,1.1,11.3,10.4,12.3v4.5h-34.8v-4.5c10.7-1,11.7-1.6,11.7-12.3v-33.5c0-10.4-0.6-11-9.7-12.6
			v-4.1c7.6-1.1,15.2-3.2,22.5-6.5c0,3.9,0,9.2,0,13.1c3.4-2.6,6.8-5.3,12-8.4c4.1-2.6,7.6-4.2,12.8-4.2c7.8,0,14.4,4.9,17.7,13.3
			c4.5-3.6,8.7-6.3,12.8-9.1c3.6-2.3,8.1-4.2,12.8-4.2c12.6,0,20.4,9.1,20.4,24.9V180c0,10.9,1,11.3,10.2,12.3v4.5L511.1,196.9
			L511.1,196.9z"/>
		<path class="st0" d="M642.6,196.9v-4.5c9.6-1,10.7-1.6,10.7-13v-27.1c0-11.5-3.9-18.8-13.9-18.8c-6.2,0-11.8,3.4-18,8.4
			c0.2,1.9,0.5,3.9,0.5,7v31.4c0,10.2,1.5,11,10.4,12v4.5h-34.7v-4.5c10-1,11.5-1.6,11.5-12.3v-27.9c0-12-3.7-18.6-13.6-18.6
			c-6.5,0-12.8,4.4-17.8,8.4V180c0,10.7,1.1,11.3,10.4,12.3v4.5h-34.8v-4.5c10.7-1,11.7-1.6,11.7-12.3v-33.5c0-10.4-0.6-11-9.7-12.6
			v-4.1c7.6-1.1,15.2-3.2,22.5-6.5c0,3.9,0,9.2,0,13.1c3.4-2.6,6.8-5.3,12-8.4c4-2.6,7.6-4.2,12.8-4.2c7.8,0,14.4,4.9,17.7,13.3
			c4.5-3.6,8.7-6.3,12.8-9.1c3.6-2.3,8.1-4.2,12.8-4.2c12.6,0,20.4,9.1,20.4,24.9V180c0,10.9,1,11.3,10.2,12.3v4.5L642.6,196.9
			L642.6,196.9z"/>
		<path class="st0" d="M684.3,196.9v-4.5c10.2-1,11.3-1.8,11.3-12.8v-33.4c0-10-0.5-10.7-10.2-12.3V130c8.4-1.5,16-3.6,23-6.5
			c0,6.8,0,13.6,0,20.4v35.6c0,11,1.1,11.8,11.7,12.8v4.5h-35.8V196.9z M701.1,107.6c-4.5,0-8.6-4-8.6-8.6c0-5.2,4-8.9,8.7-8.9
			c4.5,0,8.3,3.7,8.3,8.9C709.6,103.6,705.8,107.6,701.1,107.6z"/>
		<path class="st0" d="M758.5,196.7c-2.8,1.5-5.3,2.1-7,2.1c-10.4,0-15.9-6.3-15.9-19.3v-47.1h-11.2l-0.6-1.9l4.4-4.7h7.5v-13.6
			c3.1-3.2,7.8-7.5,10.9-10.7l2.4,0.3c-0.3,6.8-0.5,16.2-0.5,24H767c1.5,1.6,1,5.2-1,6.6h-17.5v41.5c0,13.1,5.2,15.6,9.4,15.6
			c3.9,0,7.6-1.5,9.9-2.6l1.5,4.2L758.5,196.7z"/>
	</g>
	<g>
		<path class="st0" d="M839.6,177v-8.4h37.3v-2.4l13.8-8.4h-37v-8h50.4v8.1l-17.5,10.8h32.6v8.4h-32.9v9.7
			c0.2,7.2-3.6,10.8-11.4,10.8c-4.9,0-9.3,0-13.1,0c-0.7-3.1-1.3-6-2-8.7c1.1,0,2.9,0,5.4,0c2.5,0.2,4.4,0.3,5.7,0.3
			c4.5,0.4,6.5-1.3,6-5.4v-6.7h-37.3V177z M841.6,152.8v-18.5H892l-1.3-0.7c4.5-6,8.1-11.2,10.8-15.5l9.7,3c-0.9,1.1-2.1,2.8-3.7,5
			c-2.7,3.6-4.7,6.3-6,8.1H917v18.6h-8.7v-10.4h-57.8v10.4H841.6z M855.1,133.7c-0.9-1.3-2.2-3.5-4-6.4c-2-2.7-3.5-4.7-4.4-6
			l9.1-2.7c3.1,4,6,8,8.7,11.8L855.1,133.7z M876.9,132c-0.5-0.7-1.1-1.9-2-3.7c-1.1-1.6-2.9-4.6-5.4-9.1l9.1-1.7
			c2.7,4,5.4,8.2,8.1,12.4L876.9,132z"/>
		<path class="st0" d="M973.7,185.4l-3.7-10.1c18.8-5.8,37.4-12.2,55.8-19.1c0,0.9,0.1,2.6,0.3,5c0.2,2.7,0.3,4.5,0.3,5.4
			C1005.6,173.8,988,180.1,973.7,185.4z M1006.9,196.2c-0.7-3.1-1.3-6.3-2-9.4c3.6,0.2,8.6,0.3,15.1,0.3c8.1,0.7,11.9-3.2,11.4-11.8
			c0.4-5.8,0.8-16.7,1-32.6c0.2-4.7,0.3-8.1,0.3-10.1h-60.5v-9.1h70.5c-0.5,20.8-1,39.2-1.7,55.1c0.2,11.6-5.7,17.5-17.8,17.5
			C1017.8,196.2,1012.3,196.2,1006.9,196.2z M1005.2,158.9c-2-1.3-4.9-3.2-8.7-5.7c-6.7-4.3-11.6-7.3-14.8-9.1l5.7-6.7
			c8.5,4.7,16.6,9.4,24.2,14.1L1005.2,158.9z"/>
		<path class="st0" d="M1101,175.4v-41.7h31.2v-16.1h9.7v16.1h31.2V175h-9.4v-4.4H1142v27.9h-9.7v-27.9h-21.8v4.7h-9.5V175.4z
			 M1110.4,142.4v19.5h21.8v-19.5C1132.2,142.4,1110.4,142.4,1110.4,142.4z M1163.8,142.4H1142v19.5h21.8V142.4z"/>
		<path class="st0" d="M1233.7,178.4c-1.1-0.7-3.1-1.5-6-2.4c-1.3-0.4-2.2-0.8-2.7-1c4-12.1,7.1-22.7,9.1-31.9l9.1,2.7
			C1240.2,157,1237,167.9,1233.7,178.4z M1260.5,195.2c-9.4,0.2-14-4.1-13.8-13.1v-46.4h9.7V180c-0.2,4.9,2.1,7.3,7.1,7.1h10.4
			c4.7,0.2,7.5-2,8.4-6.7c0-0.7,0.1-1.9,0.3-3.7c0.4-3.1,0.8-5.6,1-7.4c1.1,0.2,2.7,0.8,4.7,1.7c2.2,0.7,3.8,1.2,4.7,1.7
			c-0.7,4.9-1.5,9.4-2.4,13.4c-1.1,6.3-6.2,9.3-15.1,9.1H1260.5z M1273.6,143.4c-4-4.7-10.3-11.2-18.8-19.5l6.4-6.4
			c7.6,6.7,14,12.9,19.1,18.5L1273.6,143.4z M1298.5,173c-4-8.3-8.7-17.5-14.1-27.5l8.1-4.4c4,7.2,9,16.2,14.8,27.2L1298.5,173z"/>
	</g>
	<g>
		<path class="st0" d="M11.7,35.7c0-10.9-0.1-18.2-0.2-21.8l3.4,2.1h19.7l2.1-2.3l3.4,2.7l-2.1,1.5v17.8h4.4l2.9-2.9l4.2,4.2H37.9
			v19.9c0,2.1-1.5,3.7-4.6,4.8c-0.1-1.8-2.7-3.5-7.8-5v-1c3.9,0.7,6.5,1,7.6,0.9c1.2-0.1,1.8-0.8,1.8-2.2V37H14.9
			c0,10.8-4.8,19.1-14.5,24.9L0,61.1C7.5,55.6,11.5,47.6,11.7,37H7.1c-1.8,0-3.5,0.2-5,0.6l-1.9-1.9H11.7z M14.9,17.3v18.4H35V17.3
			H14.9z M20.5,21.7c3.2,2,5.4,3.7,6.7,5.3c1.3,1.6,1.3,3.2,0,4.8s-2.2,1.1-2.9-1.6c-0.7-2.7-2.1-5.3-4.2-8L20.5,21.7z"/>
		<path class="st0" d="M104.4,54.6c0-13,0-20.2,0-21.6c0-1.4-0.1-3.5-0.2-6.3l5,2.3l-1.9,1.9c0,13,0,20.3,0,21.9s0.1,3.5,0.2,5.8
			l-3.1,1.5v-4.2H74.2l-1.9,2.1L69.4,55l1.7-1.5c0-12.4,0-19.3,0-20.7c0-1.4-0.1-3.4-0.2-6.1l4.8,2.1L74,30.3v24.3h13.2
			c0-20.1,0-31,0-32.8c0-1.7-0.1-4.2-0.2-7.4l5,2.3l-1.9,1.5v36.5H104.4z"/>
		<path class="st0" d="M219.3,56.3c3.5,0.6,5.8,0.8,6.9,0.7c1.1-0.1,1.7-0.8,1.7-2.2v-8.2H212c-1.8,0-3.5,0.2-5,0.6l-1.9-1.9h22.8
			c0-1.3-0.1-2.9-0.2-4.8l2.3,1.3l7.3-6.1h-17.4c-1.8,0-3.5,0.2-5,0.6l-1.9-1.9h24.1l2.3-2.1l3.6,4.2c-1.1-0.1-2.6,0.3-4.5,1.3
			c-1.9,1-4.5,2.5-7.9,4.6l1.7,1l-1.5,0.8v1h13.6l3.4-3.4l4.6,4.6h-21.6v10.3c0,2.1-1.6,3.8-4.8,5c0.1-1.5-2.1-3.1-6.7-4.6V56.3z
			 M244.2,34.7l-0.6-0.4l3.4-5.9h-35.8c0.3,1.8,0.3,3.3,0.2,4.5c-0.1,1.2-0.8,2-1.9,2.3c-1.1,0.3-2,0.3-2.7,0
			c-0.7-0.3-0.5-1.3,0.6-2.8c1.1-1.5,2-4.1,2.5-7.8h1l0.2,2.5h23.7c2.7-5.2,4.5-9.8,5.7-13.8l4.8,3.1l-2.1,0.8
			c-2.4,3.2-4.7,6.5-7.1,9.8h10.7l2.1-2.5l3.8,4.2C250.2,29.1,247.4,31,244.2,34.7z M213.4,14.8c4.5,2.9,6.8,5.1,7.1,6.6
			c0.3,1.5-0.1,2.8-1.2,3.9c-1,1.1-1.9,0.6-2.4-1.7s-2-5-4.2-8.4L213.4,14.8z M224.5,13.7c4.1,3.1,6.1,5.3,6.3,6.8
			c0.1,1.5-0.3,2.8-1.5,3.9c-1.1,1.1-1.9,0.5-2.3-2s-1.5-5.2-3.1-8.3L224.5,13.7z"/>
		<path class="st0" d="M292.3,45.2c0,2,0.1,3.3,0.2,4l-2.7,1.3v-1.5h-5.2v3.8h6.9l2.3-2.1l2.7,2.7c0.8-1.3,1.3-4.4,1.3-9.3
			s-0.1-8.9-0.2-11.8l2.9,1.9h8.8l1.7-1.7l2.5,2.5l-1.5,1v21.4c0,1.3-0.2,2.2-0.7,2.8c-0.5,0.6-1.6,1.3-3.5,2
			c-0.7-1.8-2.4-3.1-5.2-3.8v-0.8c3.8,0.6,5.9,0.7,6.3,0.4c0.4-0.3,0.6-0.8,0.6-1.7v-8.2h-9.2c-0.3,3.5-1.3,6.3-3.1,8.5
			c-1.8,2.2-4.5,4.1-8.2,5.8l-0.2-0.6c3.8-2.5,6.4-5.1,7.8-7.8h-11.9c0,3.6,0.1,6,0.2,7.1l-2.9,1.5c0.1-3.9,0.2-6.8,0.2-8.6h-5.7
			c-1.8,0-3.5,0.2-5,0.6l-1.9-1.9H282v-3.8h-5.7v0.8l-2.9,1.3c0.1-2.8,0.1-5.9,0-9.4l2.9,1.5h5.7v-3.6h-1.9v0.4l-2.7,1
			c0.1-1.8,0.2-3.7,0.2-5.7c-1.7,0-3.3,0.2-4.8,0.6l-1.9-1.9h6.7c0-1-0.1-2.3-0.2-4l3.8,1.7l-1,0.8v1.5h6.5c0-1.3-0.1-2.5-0.2-3.8
			l4.2,1.7l-1.5,1v1h1.9l1.9-1.9l2.9,3.1h-6.7c0,2.4,0.1,4,0.2,4.8l-2.7,1v-1.7h-2.1v3.6h5.2l1.3-1.5l2.9,2.5L292.3,45.2z
			 M309.4,26.1l2.3-4.6h-17.6c0,3.4,0.1,5.9,0.2,7.5l-2.9,1.3c0.1-3.9,0.2-6.8,0.2-8.8h-16.6c0,1.7-0.3,3-0.8,4.1
			c-0.6,1-1.4,1.6-2.4,1.7s-1.6-0.3-1.6-1.2c0-0.8,0.5-1.6,1.4-2.2c0.9-0.6,1.7-2.5,2.4-5.8h0.8l0.2,2.1h16.6v-3.6H283
			c-1.8,0-3.5,0.2-5,0.6l-1.9-1.9h28.7l2.3-2.3l3.4,3.6h-16.3v3.6h17.2l2.1-2.1l3.6,3.8c-1.3,0.1-2.4,0.6-3.4,1.3
			c-1,0.7-2.2,1.8-3.6,3.4L309.4,26.1z M276.3,44.3v3.4h5.7v-3.4H276.3z M278.4,28.2h9.2v1.3h-9.2V28.2z M278.8,24h8.6v1.3h-8.6V24z
			 M280.1,35.3v2.9h6.5v-2.9H280.1z M284.5,44.3v3.4h5.2v-3.4H284.5z M297.9,24h8.4v1.3h-8.4V24z M297.9,28.2h8.4v1.3h-8.4V28.2z
			 M300.2,35.3v5h9.2v-5H300.2z M300.2,41.6v5.2h9.2v-5.2H300.2z"/>
	</g>
	<g>
		<path class="st1" d="M182.1,49.1c0.2,0.1,0.4,0.2,0.7,0.4c0.3,0.2,0.5,0.3,0.8,0.5c0.2,0.2,0.4,0.4,0.6,0.6
			c0.2,0.2,0.3,0.4,0.3,0.6c0,0.1,0,0.2-0.1,0.3c-1.6,2.2-3.3,4.2-5.2,5.8c-1.9,1.7-3.8,3-5.8,4.1c-2,1.1-4,1.9-6.1,2.5
			c-2.1,0.5-4.1,0.8-6.1,0.8c-3.4,0-6.6-0.7-9.5-2.1c-2.9-1.4-5.3-3.3-7.4-5.8c-2.1-2.4-3.7-5.3-4.8-8.6c-1.2-3.3-1.7-6.8-1.7-10.6
			c0-3.1,0.3-6.1,1-9.2c0.7-3.1,1.6-6,2.9-8.8c1.3-2.8,2.8-5.4,4.7-7.8c1.8-2.4,3.9-4.5,6.3-6.2s4.9-3.2,7.7-4.2
			c2.8-1,5.8-1.5,9-1.5c2.1,0,4.2,0.3,6.1,0.9c1.9,0.6,3.6,1.4,5.1,2.5c1.4,1.1,2.6,2.4,3.5,4c0.9,1.6,1.3,3.4,1.3,5.4
			c0,2.9-1,5.5-2.9,7.7c-1.9,2.2-4.5,4-7.9,5.6c-3.4,1.5-7.3,2.7-11.9,3.7c-4.6,0.9-9.5,1.6-14.8,2.1v0.7c0,3.7,0.5,7,1.4,10.1
			c0.9,3,2.2,5.6,3.9,7.8c1.6,2.2,3.6,3.9,5.8,5.1c2.2,1.2,4.6,1.8,7.2,1.8c2.6,0,5.2-0.6,7.9-1.9C176.5,54,179.3,51.9,182.1,49.1z
			 M174,14.5c0-1.3-0.2-2.6-0.7-3.7c-0.4-1.1-1.1-2.1-1.9-3s-1.7-1.5-2.8-2c-1.1-0.5-2.3-0.7-3.5-0.7c-1.9,0-3.6,0.3-5.1,1
			c-1.5,0.7-2.9,1.6-4.1,2.7c-1.2,1.1-2.3,2.5-3.2,4c-0.9,1.5-1.7,3.1-2.3,4.8c-0.6,1.7-1.2,3.4-1.6,5.2s-0.7,3.5-0.9,5.2
			c4.1-0.3,7.7-0.8,11-1.5c3.2-0.7,6-1.6,8.2-2.7c2.2-1.1,3.9-2.4,5.1-4C173.4,18.2,174,16.5,174,14.5z"/>
	</g>
</g>
</svg>
