<?xml version="1.0" encoding="utf-8"?>
<!-- Generator: Adobe Illustrator 24.3.0, SVG Export Plug-In . SVG Version: 6.00 Build 0)  -->
<svg version="1.1" id="圖層_1" xmlns="http://www.w3.org/2000/svg" xmlns:xlink="http://www.w3.org/1999/xlink" x="0px" y="0px"
	 viewBox="0 0 169.3 353.6" style="enable-background:new 0 0 169.3 353.6;" xml:space="preserve">
<style type="text/css">
	.st0{fill:#F2D0B8;stroke:#525254;stroke-width:3.9022;stroke-linecap:round;stroke-linejoin:round;}
	.st1{fill:#C4DFE3;stroke:#525254;stroke-width:3.9022;stroke-linecap:round;stroke-linejoin:round;}
	.st2{fill:#F2D7C6;stroke:#525254;stroke-width:3.9022;stroke-linecap:round;stroke-linejoin:round;}
	.st3{fill:none;stroke:#525254;stroke-width:3.9022;stroke-linecap:round;stroke-linejoin:round;}
	.st4{fill:#525254;}
	.st5{fill:#FFFFFF;}
	.st6{fill:#EF565C;stroke:#525254;stroke-width:3.9022;stroke-linecap:round;stroke-linejoin:round;}
	.st7{filter:url(#Adobe_OpacityMaskFilter);}
	.st8{fill:url(#SVGID_2_);}
	.st9{mask:url(#SVGID_1_);fill:#ECB198;}
	.st10{filter:url(#Adobe_OpacityMaskFilter_1_);}
	.st11{fill:url(#SVGID_4_);}
	.st12{mask:url(#SVGID_3_);fill:#ECB198;}
</style>
<g>
	<g>
		<g>
			<path class="st0" d="M137.7,303.9c0,0-4,7.4-5.4,11.1c-1.4,3.7-2.1,7.3-2.1,7.3s-7.3-0.8-5,6c1.6,4.6,6.9,0.7,8.9-0.4
				c2-1.1,9.3-1.6,14.4-5.1c5.1-3.5,10.9-5,14.9-7.8c4.1-2.7,5.2-9.2,1.9-13.9c-3.3-4.8-5.9-9.6-5.9-9.6"/>
			<path class="st0" d="M160.7,297.2c-0.1-3.2-0.7-13.1-4.2-19.7c-4.3-8-9.1-14-9.1-14s-2.8-15.5-7.3-25.5
				c-4.5-10-9.8-16.1-13.6-18.5c-6-3.9-34.2,6.2-36.3,17.3c-2.1,11.2,6.3,23.8,13.4,32.3c5.4,6.6,14.5,14,14.5,14s2.7,3.7,9.2,12.1
				c4.2,5.5,8.1,11.7,10.2,15.4"/>
		</g>
		<g>
			<path class="st0" d="M46.1,173.8c-2.8,6.1-5.4,12.2-8.9,17.3C28.4,203.5,19,216.2,19,216.2s-7.1,0.6-9.9,2
				c-2.8,1.4-5.7,3.6-5.8,6.4c-0.1,2.8-1.6,3.9-1.3,6.1c0.4,2.2-0.4,3.3,0.5,4.2c0.9,0.9,2.9,1.1,2.9,1.1s-0.5,3.5,1.3,4.1
				c1.8,0.7,7.4-1.4,9.4-2.3c2.1-0.8,5.2-4.2,7-2.2c1.8,2-0.5,4.1,0,7.8c0.5,3.7,5.3,4.3,7.4,1c2.2-3.3,4.2-6.7,4.6-13.3
				c0.4-6.6,8.6-10.9,13.3-13.9c7.6-4.8,13.5-15.4,17.6-18.4c1.3-0.9,3-2.7,5-4.7C60.9,190.8,50.5,183.3,46.1,173.8z"/>
			<path class="st1" d="M87.2,185.2c5.9,1-7.9-42.1-23.2-33.9c-9.1,4.8-13.8,13.6-17.9,22.5c4.4,9.5,14.8,17,25,20.4
				C75.6,189.7,81.5,184.2,87.2,185.2z"/>
			<path class="st2" d="M11.9,220.9c0,0-6,1-8.2,4.5"/>
			<path class="st2" d="M10.7,226.1c0,0-6,1-8.2,4.5"/>
			<path class="st2" d="M13,231.1c0,0-6,1-8.2,4.5"/>
		</g>
		<path class="st1" d="M73.2,145.4c-5.8,2.9-24.2,38.3-21.1,71.5c3,33.2,27.2,56.2,56.2,53.6c38.8-3.6,38.5-47.5,31.4-66.7
			c-7-19.1-8.1-44.3-23.2-57.4C101.4,133.3,85.3,139.4,73.2,145.4z"/>
		<path class="st0" d="M72.2,135.3c0,0-10.1,34.2,12.1,28.2c22.1-6,40.2-27.8,41.2-33.5C126.6,124.3,72.2,135.3,72.2,135.3z"/>
		<path class="st0" d="M117.7,237.3c-12.1-14-27.4-11.2-38.1-2.9c-9.3,7.2-13.2,15.7-17.3,23.6c-4.1,7.9-4.9,20.1-4.9,20.1
			s1.7,11.7,6.9,21.4c5.2,9.7,9.1,21.1,9.1,21.1l-7.8,16.2c0,0-10.6-0.3-5.5,7.4c2.2,3.3,7.1-1.1,7.1-1.1s-3.8,3.2,0.2,5.2
			c2.4,1.2,5.6-4.2,5.6-4.2s-3,6.1,0.5,6.3c3.5,0.2,4.6-4.4,4.6-4.4s-2.5,5.8,1.9,5.7c2-0.1,3.4-4.2,3.4-4.2s-1,3.8,1.8,3.3
			c4.4-0.8,3.4-6.1,3.4-6.1s3.1-0.6,6.4-4.6c3.3-4.1,3.9-6.3,6.2-8.2c2.3-2,8.4-4.7,6.1-11c-2.3-6.3-7.6-11.6-7.6-11.6
			s0.1-5.5,0.8-13.9c0.4-5.3-3.1-13.9-3.1-13.9s7.1-3.6,16.4-11.9C124.2,260.2,126,247,117.7,237.3z"/>
		<g>
			<path class="st0" d="M126.3,192.1c3.5,2,5.4,3.1,5.4,3.1s3.6,15.9,7.4,20.6c3.8,4.7,5.3,8.1,5.4,12c0.1,3.9-5.1,13.4-2.4,19.6
				c2.7,6.1,4.7,8,6.3,7.9c1.6-0.1,1.5-1.7,1.5-1.7s2.7,3.7,4.5,2.4c1.8-1.4,1.5-4,1.5-4s3.4,1.3,4.6-0.5c1.2-1.8-2.8-12.4-2.8-12.4
				s6.8,10.3,8.6,7.8c2.4-3.5-0.4-5.5-1.3-9.5c-0.3-1.2,0.2-4.4-0.2-5.8c-1.4-6.3-3.6-6.6-2.8-9.7c0.7-3.1,0.9-32.3-3.7-40.3
				c-2.1-3.7-6.3-8.5-11.1-13C142.9,178.3,135.7,186.8,126.3,192.1z"/>
			<path class="st1" d="M101.6,165.1c0,0,0.1,13.2,11.4,19.5c5.5,3.1,10,5.7,13.3,7.5c9.4-5.3,16.6-13.8,20.9-23.6
				c-2.9-2.7-10.5-10.6-18.6-14.4c-8.1-3.8-16.7-3.5-19.5-4.4"/>
			<path class="st0" d="M145.5,244.9c0,0,1.4,6.3,4.6,8.7"/>
			<path class="st0" d="M150.4,241.7c0,0,2.4,7.9,5.6,10.2"/>
		</g>
		<g>
			<g>
				<g>
					<path class="st0" d="M80.5,2.1c-28.4,2-58.7,17.8-68.3,49c-7.2,23.5,5,51.3,5,51.3s-3.7,24.2,17.2,39.1
						c16.7,11.9,37.8,11.7,55.5,10.6c21-1.3,40.8-12,52.5-22.8C159,114.1,162,82.6,162,82.6s6.9-29.4-13.7-53.6
						C135.3,13.8,108.4,0.2,80.5,2.1z"/>
					<path class="st3" d="M62.2,103.7c0,0-4.9,2.6-3,6.3c2.3,4.6,8.6,1,8.6,1"/>
					<g>
						<path class="st3" d="M41.2,36c0,0-2.9,3.5-4.2,8.7C35.2,51.2,37,55.4,37,55.4"/>
						<path class="st3" d="M52,36.4c0,0-1.5,4.2-1.1,9.2c0.5,6.4,3.7,9.4,3.7,9.4"/>
						<path class="st3" d="M64.6,35.9c0,0,0.7,6,4.8,10c4.1,3.9,9.5,5.7,9.5,5.7"/>
					</g>
					<path class="st4" d="M33.3,113.2c-5.1,0.5-9.6-2.7-10-7.1c-0.5-4.5,3.3-8.5,8.3-9.1c5.1-0.5,9.6,2.7,10,7.1
						C42.1,108.6,38.4,112.6,33.3,113.2z"/>
					<path class="st4" d="M103.3,109.8c5.1,0,9.3-3.6,9.3-8.1c0-4.5-4.1-8.2-9.2-8.2c-5.1,0-9.3,3.6-9.3,8.1
						C94.1,106.1,98.2,109.8,103.3,109.8z"/>
					<path class="st5" d="M27.5,105.3c0,1-0.7,1.8-1.7,1.8c-1,0-1.8-0.7-1.8-1.6c0-1,0.7-1.8,1.6-1.8
						C26.6,103.6,27.5,104.3,27.5,105.3z"/>
					<path class="st5" d="M99,101.9c0,1-0.7,1.8-1.6,1.8c-1,0-1.8-0.7-1.8-1.7c0-1,0.7-1.8,1.7-1.8C98.1,100.2,98.9,100.9,99,101.9z
						"/>
					<path class="st6" d="M78.7,120c0,0-4.2,5.4-13.7,5.8c-8.4,0.4-12.1-4.1-12.1-4.1s2.9,16.1,17,14C81.5,134,78.7,120,78.7,120z"
						/>
				</g>
				<g>
					<defs>
						<filter id="Adobe_OpacityMaskFilter" filterUnits="userSpaceOnUse" x="89" y="104.4" width="42.9" height="42.9">
							<feColorMatrix  type="matrix" values="1 0 0 0 0  0 1 0 0 0  0 0 1 0 0  0 0 0 1 0"/>
						</filter>
					</defs>
					<mask maskUnits="userSpaceOnUse" x="89" y="104.4" width="42.9" height="42.9" id="SVGID_1_">
						<g class="st7">
							
								<radialGradient id="SVGID_2_" cx="-373.6967" cy="181.6013" r="21.4592" gradientTransform="matrix(-0.715 0.6991 0.6991 0.715 -283.6715 257.2745)" gradientUnits="userSpaceOnUse">
								<stop  offset="0" style="stop-color:#FFFFFF"/>
								<stop  offset="1" style="stop-color:#000000"/>
							</radialGradient>
							<path class="st8" d="M95.1,140.9c8.3,8.5,21.9,8.6,30.3,0.3c8.5-8.3,8.6-21.9,0.3-30.3c-8.3-8.5-21.9-8.6-30.3-0.3
								C87,118.8,86.9,132.4,95.1,140.9z"/>
						</g>
					</mask>
					<path class="st9" d="M95.1,140.9c8.3,8.5,21.9,8.6,30.3,0.3c8.5-8.3,8.6-21.9,0.3-30.3c-8.3-8.5-21.9-8.6-30.3-0.3
						C87,118.8,86.9,132.4,95.1,140.9z"/>
				</g>
				<g>
					<defs>
						<filter id="Adobe_OpacityMaskFilter_1_" filterUnits="userSpaceOnUse" x="12.7" y="108.8" width="27.1" height="40.3">
							<feColorMatrix  type="matrix" values="1 0 0 0 0  0 1 0 0 0  0 0 1 0 0  0 0 0 1 0"/>
						</filter>
					</defs>
					<mask maskUnits="userSpaceOnUse" x="12.7" y="108.8" width="27.1" height="40.3" id="SVGID_3_">
						<g class="st10">
							
								<radialGradient id="SVGID_4_" cx="640.2642" cy="-1444.3046" r="21.457" gradientTransform="matrix(-6.640000e-02 0.7869 0.6287 0.5103 976.799 362.0855)" gradientUnits="userSpaceOnUse">
								<stop  offset="0" style="stop-color:#FFFFFF"/>
								<stop  offset="1" style="stop-color:#000000"/>
							</radialGradient>
							<path class="st11" d="M24.8,145.8c7.5,6,14.1,3.4,14.9-5.9c0.8-9.3-4.6-21.8-12.1-27.8c-7.5-6-14.1-3.4-14.9,5.9
								C12,127.3,17.4,139.7,24.8,145.8z"/>
						</g>
					</mask>
					<path class="st12" d="M24.8,145.8c7.5,6,14.1,3.4,14.9-5.9c0.8-9.3-4.6-21.8-12.1-27.8c-7.5-6-14.1-3.4-14.9,5.9
						C12,127.3,17.4,139.7,24.8,145.8z"/>
				</g>
				<path class="st0" d="M138.4,86.5c0,0,7.2-9.5,13.9-2.1c6.7,7.4,2.8,18.2-2.7,23.7c-5.5,5.5-10.2,5.8-10.2,5.8"/>
			</g>
		</g>
	</g>
</g>
</svg>
